  0
SECTION
  2
HEADER
  9
$ANGBASE
  50
0.0
  9
$ANGDIR
  70
1
  9
$MEASUREMENT
  70
1
  0
ENDSEC
  0
SECTION
  2
TABLES
  0
TABLE
  2
LTYPE
  70
4
  0
LTYPE
  5
40F
  2
CONTINUOUS
  70
0
  3
Solid line
  72
65
  73
0
  40
0.0
  0
LTYPE
  5
410
  2
DASHDOT
 70
0
  3
Dash Dot ____ _ ____ _
 72
65
 73
4
 40
2.0
 49
1.25
 49
-0.25
 49
0.25
 49
-0.25
  0
LTYPE
  5
411
  2
DASHED
 70
0
  3
Dashed __ __ __ __ __
 72
65
 73
2
 40
0.75
 49
0.5
 49
-0.25
  0
LTYPE
  5
43B
  2
DOTTED
 70
0
  3
Dotted .  .  .  .
 72
65
 73
2
 40
0.2
 49
0.0
 49
-0.2
  0
ENDTAB
  0
TABLE
  2
STYLE
  70
4
  0
STYLE
  2
KICAD
  70
0
  40
0
  41
1
  42
1
  50
0
  71
0
  3
isocp.shx
  0
STYLE
  2
KICADB
  70
0
  40
0
  41
1
  42
1
  50
0
  71
0
  3
isocp.shx
  0
STYLE
  2
KICADI
  70
0
  40
0
  41
1
  42
1
  50
15
  71
0
  3
isocp.shx
  0
STYLE
  2
KICADBI
  70
0
  40
0
  41
1
  42
1
  50
15
  71
0
  3
isocp.shx
  0
ENDTAB
  0
TABLE
  2
LAYER
  70
1
  0
LAYER
  2
BLACK
  70
0
  62
7
  6
CONTINUOUS
  0
ENDTAB
  0
ENDSEC
  0
SECTION
  2
ENTITIES
0
LINE
8
BLACK
6
CONTINUOUS
10
81.2549
20
-83.001
11
81.336
21
-83.0552
0
LINE
8
BLACK
6
CONTINUOUS
10
81.336
20
-83.0552
11
81.3902
21
-83.1363
0
LINE
8
BLACK
6
CONTINUOUS
10
81.3902
20
-83.1363
11
81.4092
21
-83.232
0
LINE
8
BLACK
6
CONTINUOUS
10
81.4092
20
-83.232
11
81.4092
21
-84.182
0
LINE
8
BLACK
6
CONTINUOUS
10
81.4092
20
-84.182
11
81.3902
21
-84.2777
0
LINE
8
BLACK
6
CONTINUOUS
10
81.3902
20
-84.2777
11
81.336
21
-84.3588
0
LINE
8
BLACK
6
CONTINUOUS
10
81.336
20
-84.3588
11
81.2549
21
-84.413
0
LINE
8
BLACK
6
CONTINUOUS
10
81.2549
20
-84.413
11
81.1592
21
-84.432
0
LINE
8
BLACK
6
CONTINUOUS
10
81.1592
20
-84.432
11
80.6592
21
-84.432
0
LINE
8
BLACK
6
CONTINUOUS
10
80.6592
20
-84.432
11
80.5635
21
-84.413
0
LINE
8
BLACK
6
CONTINUOUS
10
80.5635
20
-84.413
11
80.4824
21
-84.3588
0
LINE
8
BLACK
6
CONTINUOUS
10
80.4824
20
-84.3588
11
80.4282
21
-84.2777
0
LINE
8
BLACK
6
CONTINUOUS
10
80.4282
20
-84.2777
11
80.4092
21
-84.182
0
LINE
8
BLACK
6
CONTINUOUS
10
80.4092
20
-84.182
11
80.4092
21
-83.232
0
LINE
8
BLACK
6
CONTINUOUS
10
80.4092
20
-83.232
11
80.4282
21
-83.1363
0
LINE
8
BLACK
6
CONTINUOUS
10
80.4282
20
-83.1363
11
80.4824
21
-83.0552
0
LINE
8
BLACK
6
CONTINUOUS
10
80.4824
20
-83.0552
11
80.5635
21
-83.001
0
LINE
8
BLACK
6
CONTINUOUS
10
80.5635
20
-83.001
11
80.6592
21
-82.982
0
LINE
8
BLACK
6
CONTINUOUS
10
80.6592
20
-82.982
11
81.1592
21
-82.982
0
LINE
8
BLACK
6
CONTINUOUS
10
81.1592
20
-82.982
11
81.2549
21
-83.001
0
LINE
8
BLACK
6
CONTINUOUS
10
79.3549
20
-83.001
11
79.436
21
-83.0552
0
LINE
8
BLACK
6
CONTINUOUS
10
79.436
20
-83.0552
11
79.4902
21
-83.1363
0
LINE
8
BLACK
6
CONTINUOUS
10
79.4902
20
-83.1363
11
79.5092
21
-83.232
0
LINE
8
BLACK
6
CONTINUOUS
10
79.5092
20
-83.232
11
79.5092
21
-84.182
0
LINE
8
BLACK
6
CONTINUOUS
10
79.5092
20
-84.182
11
79.4902
21
-84.2777
0
LINE
8
BLACK
6
CONTINUOUS
10
79.4902
20
-84.2777
11
79.436
21
-84.3588
0
LINE
8
BLACK
6
CONTINUOUS
10
79.436
20
-84.3588
11
79.3549
21
-84.413
0
LINE
8
BLACK
6
CONTINUOUS
10
79.3549
20
-84.413
11
79.2592
21
-84.432
0
LINE
8
BLACK
6
CONTINUOUS
10
79.2592
20
-84.432
11
78.7592
21
-84.432
0
LINE
8
BLACK
6
CONTINUOUS
10
78.7592
20
-84.432
11
78.6635
21
-84.413
0
LINE
8
BLACK
6
CONTINUOUS
10
78.6635
20
-84.413
11
78.5824
21
-84.3588
0
LINE
8
BLACK
6
CONTINUOUS
10
78.5824
20
-84.3588
11
78.5282
21
-84.2777
0
LINE
8
BLACK
6
CONTINUOUS
10
78.5282
20
-84.2777
11
78.5092
21
-84.182
0
LINE
8
BLACK
6
CONTINUOUS
10
78.5092
20
-84.182
11
78.5092
21
-83.232
0
LINE
8
BLACK
6
CONTINUOUS
10
78.5092
20
-83.232
11
78.5282
21
-83.1363
0
LINE
8
BLACK
6
CONTINUOUS
10
78.5282
20
-83.1363
11
78.5824
21
-83.0552
0
LINE
8
BLACK
6
CONTINUOUS
10
78.5824
20
-83.0552
11
78.6635
21
-83.001
0
LINE
8
BLACK
6
CONTINUOUS
10
78.6635
20
-83.001
11
78.7592
21
-82.982
0
LINE
8
BLACK
6
CONTINUOUS
10
78.7592
20
-82.982
11
79.2592
21
-82.982
0
LINE
8
BLACK
6
CONTINUOUS
10
79.2592
20
-82.982
11
79.3549
21
-83.001
0
LINE
8
BLACK
6
CONTINUOUS
10
85.3497
20
-82.9866
11
85.4308
21
-83.0408
0
LINE
8
BLACK
6
CONTINUOUS
10
85.4308
20
-83.0408
11
85.485
21
-83.1219
0
LINE
8
BLACK
6
CONTINUOUS
10
85.485
20
-83.1219
11
85.504
21
-83.2176
0
LINE
8
BLACK
6
CONTINUOUS
10
85.504
20
-83.2176
11
85.504
21
-84.1176
0
LINE
8
BLACK
6
CONTINUOUS
10
85.504
20
-84.1176
11
85.485
21
-84.2133
0
LINE
8
BLACK
6
CONTINUOUS
10
85.485
20
-84.2133
11
85.4308
21
-84.2944
0
LINE
8
BLACK
6
CONTINUOUS
10
85.4308
20
-84.2944
11
85.3497
21
-84.3486
0
LINE
8
BLACK
6
CONTINUOUS
10
85.3497
20
-84.3486
11
85.254
21
-84.3676
0
LINE
8
BLACK
6
CONTINUOUS
10
85.254
20
-84.3676
11
84.729
21
-84.3676
0
LINE
8
BLACK
6
CONTINUOUS
10
84.729
20
-84.3676
11
84.6333
21
-84.3486
0
LINE
8
BLACK
6
CONTINUOUS
10
84.6333
20
-84.3486
11
84.5522
21
-84.2944
0
LINE
8
BLACK
6
CONTINUOUS
10
84.5522
20
-84.2944
11
84.498
21
-84.2133
0
LINE
8
BLACK
6
CONTINUOUS
10
84.498
20
-84.2133
11
84.479
21
-84.1176
0
LINE
8
BLACK
6
CONTINUOUS
10
84.479
20
-84.1176
11
84.479
21
-83.2176
0
LINE
8
BLACK
6
CONTINUOUS
10
84.479
20
-83.2176
11
84.498
21
-83.1219
0
LINE
8
BLACK
6
CONTINUOUS
10
84.498
20
-83.1219
11
84.5522
21
-83.0408
0
LINE
8
BLACK
6
CONTINUOUS
10
84.5522
20
-83.0408
11
84.6333
21
-82.9866
0
LINE
8
BLACK
6
CONTINUOUS
10
84.6333
20
-82.9866
11
84.729
21
-82.9676
0
LINE
8
BLACK
6
CONTINUOUS
10
84.729
20
-82.9676
11
85.254
21
-82.9676
0
LINE
8
BLACK
6
CONTINUOUS
10
85.254
20
-82.9676
11
85.3497
21
-82.9866
0
LINE
8
BLACK
6
CONTINUOUS
10
83.5247
20
-82.9866
11
83.6058
21
-83.0408
0
LINE
8
BLACK
6
CONTINUOUS
10
83.6058
20
-83.0408
11
83.66
21
-83.1219
0
LINE
8
BLACK
6
CONTINUOUS
10
83.66
20
-83.1219
11
83.679
21
-83.2176
0
LINE
8
BLACK
6
CONTINUOUS
10
83.679
20
-83.2176
11
83.679
21
-84.1176
0
LINE
8
BLACK
6
CONTINUOUS
10
83.679
20
-84.1176
11
83.66
21
-84.2133
0
LINE
8
BLACK
6
CONTINUOUS
10
83.66
20
-84.2133
11
83.6058
21
-84.2944
0
LINE
8
BLACK
6
CONTINUOUS
10
83.6058
20
-84.2944
11
83.5247
21
-84.3486
0
LINE
8
BLACK
6
CONTINUOUS
10
83.5247
20
-84.3486
11
83.429
21
-84.3676
0
LINE
8
BLACK
6
CONTINUOUS
10
83.429
20
-84.3676
11
82.904
21
-84.3676
0
LINE
8
BLACK
6
CONTINUOUS
10
82.904
20
-84.3676
11
82.8083
21
-84.3486
0
LINE
8
BLACK
6
CONTINUOUS
10
82.8083
20
-84.3486
11
82.7272
21
-84.2944
0
LINE
8
BLACK
6
CONTINUOUS
10
82.7272
20
-84.2944
11
82.673
21
-84.2133
0
LINE
8
BLACK
6
CONTINUOUS
10
82.673
20
-84.2133
11
82.654
21
-84.1176
0
LINE
8
BLACK
6
CONTINUOUS
10
82.654
20
-84.1176
11
82.654
21
-83.2176
0
LINE
8
BLACK
6
CONTINUOUS
10
82.654
20
-83.2176
11
82.673
21
-83.1219
0
LINE
8
BLACK
6
CONTINUOUS
10
82.673
20
-83.1219
11
82.7272
21
-83.0408
0
LINE
8
BLACK
6
CONTINUOUS
10
82.7272
20
-83.0408
11
82.8083
21
-82.9866
0
LINE
8
BLACK
6
CONTINUOUS
10
82.8083
20
-82.9866
11
82.904
21
-82.9676
0
LINE
8
BLACK
6
CONTINUOUS
10
82.904
20
-82.9676
11
83.429
21
-82.9676
0
LINE
8
BLACK
6
CONTINUOUS
10
83.429
20
-82.9676
11
83.5247
21
-82.9866
0
LINE
8
BLACK
6
CONTINUOUS
10
83.5197
20
-80.9546
11
83.6008
21
-81.0088
0
LINE
8
BLACK
6
CONTINUOUS
10
83.6008
20
-81.0088
11
83.655
21
-81.0899
0
LINE
8
BLACK
6
CONTINUOUS
10
83.655
20
-81.0899
11
83.674
21
-81.1856
0
LINE
8
BLACK
6
CONTINUOUS
10
83.674
20
-81.1856
11
83.674
21
-82.0856
0
LINE
8
BLACK
6
CONTINUOUS
10
83.674
20
-82.0856
11
83.655
21
-82.1813
0
LINE
8
BLACK
6
CONTINUOUS
10
83.655
20
-82.1813
11
83.6008
21
-82.2624
0
LINE
8
BLACK
6
CONTINUOUS
10
83.6008
20
-82.2624
11
83.5197
21
-82.3166
0
LINE
8
BLACK
6
CONTINUOUS
10
83.5197
20
-82.3166
11
83.424
21
-82.3356
0
LINE
8
BLACK
6
CONTINUOUS
10
83.424
20
-82.3356
11
82.899
21
-82.3356
0
LINE
8
BLACK
6
CONTINUOUS
10
82.899
20
-82.3356
11
82.8033
21
-82.3166
0
LINE
8
BLACK
6
CONTINUOUS
10
82.8033
20
-82.3166
11
82.7222
21
-82.2624
0
LINE
8
BLACK
6
CONTINUOUS
10
82.7222
20
-82.2624
11
82.668
21
-82.1813
0
LINE
8
BLACK
6
CONTINUOUS
10
82.668
20
-82.1813
11
82.649
21
-82.0856
0
LINE
8
BLACK
6
CONTINUOUS
10
82.649
20
-82.0856
11
82.649
21
-81.1856
0
LINE
8
BLACK
6
CONTINUOUS
10
82.649
20
-81.1856
11
82.668
21
-81.0899
0
LINE
8
BLACK
6
CONTINUOUS
10
82.668
20
-81.0899
11
82.7222
21
-81.0088
0
LINE
8
BLACK
6
CONTINUOUS
10
82.7222
20
-81.0088
11
82.8033
21
-80.9546
0
LINE
8
BLACK
6
CONTINUOUS
10
82.8033
20
-80.9546
11
82.899
21
-80.9356
0
LINE
8
BLACK
6
CONTINUOUS
10
82.899
20
-80.9356
11
83.424
21
-80.9356
0
LINE
8
BLACK
6
CONTINUOUS
10
83.424
20
-80.9356
11
83.5197
21
-80.9546
0
LINE
8
BLACK
6
CONTINUOUS
10
85.3447
20
-80.9546
11
85.4258
21
-81.0088
0
LINE
8
BLACK
6
CONTINUOUS
10
85.4258
20
-81.0088
11
85.48
21
-81.0899
0
LINE
8
BLACK
6
CONTINUOUS
10
85.48
20
-81.0899
11
85.499
21
-81.1856
0
LINE
8
BLACK
6
CONTINUOUS
10
85.499
20
-81.1856
11
85.499
21
-82.0856
0
LINE
8
BLACK
6
CONTINUOUS
10
85.499
20
-82.0856
11
85.48
21
-82.1813
0
LINE
8
BLACK
6
CONTINUOUS
10
85.48
20
-82.1813
11
85.4258
21
-82.2624
0
LINE
8
BLACK
6
CONTINUOUS
10
85.4258
20
-82.2624
11
85.3447
21
-82.3166
0
LINE
8
BLACK
6
CONTINUOUS
10
85.3447
20
-82.3166
11
85.249
21
-82.3356
0
LINE
8
BLACK
6
CONTINUOUS
10
85.249
20
-82.3356
11
84.724
21
-82.3356
0
LINE
8
BLACK
6
CONTINUOUS
10
84.724
20
-82.3356
11
84.6283
21
-82.3166
0
LINE
8
BLACK
6
CONTINUOUS
10
84.6283
20
-82.3166
11
84.5472
21
-82.2624
0
LINE
8
BLACK
6
CONTINUOUS
10
84.5472
20
-82.2624
11
84.493
21
-82.1813
0
LINE
8
BLACK
6
CONTINUOUS
10
84.493
20
-82.1813
11
84.474
21
-82.0856
0
LINE
8
BLACK
6
CONTINUOUS
10
84.474
20
-82.0856
11
84.474
21
-81.1856
0
LINE
8
BLACK
6
CONTINUOUS
10
84.474
20
-81.1856
11
84.493
21
-81.0899
0
LINE
8
BLACK
6
CONTINUOUS
10
84.493
20
-81.0899
11
84.5472
21
-81.0088
0
LINE
8
BLACK
6
CONTINUOUS
10
84.5472
20
-81.0088
11
84.6283
21
-80.9546
0
LINE
8
BLACK
6
CONTINUOUS
10
84.6283
20
-80.9546
11
84.724
21
-80.9356
0
LINE
8
BLACK
6
CONTINUOUS
10
84.724
20
-80.9356
11
85.249
21
-80.9356
0
LINE
8
BLACK
6
CONTINUOUS
10
85.249
20
-80.9356
11
85.3447
21
-80.9546
0
LINE
8
BLACK
6
CONTINUOUS
10
71.8947
20
-81.6422
11
71.3407
21
-81.6422
0
LINE
8
BLACK
6
CONTINUOUS
10
71.3407
20
-81.6422
11
71.3407
21
-81.4382
0
LINE
8
BLACK
6
CONTINUOUS
10
71.3407
20
-81.4382
11
71.8947
21
-81.4382
0
LINE
8
BLACK
6
CONTINUOUS
10
71.8947
20
-81.4382
11
71.8947
21
-81.6422
0
LINE
8
BLACK
6
CONTINUOUS
10
77.0461
20
-81.6422
11
76.4921
21
-81.6422
0
LINE
8
BLACK
6
CONTINUOUS
10
76.4921
20
-81.6422
11
76.4921
21
-81.4382
0
LINE
8
BLACK
6
CONTINUOUS
10
76.4921
20
-81.4382
11
77.0461
21
-81.4382
0
LINE
8
BLACK
6
CONTINUOUS
10
77.0461
20
-81.4382
11
77.0461
21
-81.6422
0
LINE
8
BLACK
6
CONTINUOUS
10
75.9968
20
-81.534
11
72.39
21
-81.534
0
LINE
8
BLACK
6
CONTINUOUS
10
72.39
20
-81.534
11
72.39
21
-79.1464
0
LINE
8
BLACK
6
CONTINUOUS
10
72.39
20
-79.1464
11
75.9968
21
-79.1464
0
LINE
8
BLACK
6
CONTINUOUS
10
75.9968
20
-79.1464
11
75.9968
21
-81.534
0
LINE
8
BLACK
6
CONTINUOUS
10
64.3759
20
-80.4036
11
64.457
21
-80.4578
0
LINE
8
BLACK
6
CONTINUOUS
10
64.457
20
-80.4578
11
64.5112
21
-80.5389
0
LINE
8
BLACK
6
CONTINUOUS
10
64.5112
20
-80.5389
11
64.5302
21
-80.6346
0
LINE
8
BLACK
6
CONTINUOUS
10
64.5302
20
-80.6346
11
64.5302
21
-81.1596
0
LINE
8
BLACK
6
CONTINUOUS
10
64.5302
20
-81.1596
11
64.5112
21
-81.2553
0
LINE
8
BLACK
6
CONTINUOUS
10
64.5112
20
-81.2553
11
64.457
21
-81.3364
0
LINE
8
BLACK
6
CONTINUOUS
10
64.457
20
-81.3364
11
64.3759
21
-81.3906
0
LINE
8
BLACK
6
CONTINUOUS
10
64.3759
20
-81.3906
11
64.2802
21
-81.4096
0
LINE
8
BLACK
6
CONTINUOUS
10
64.2802
20
-81.4096
11
63.3802
21
-81.4096
0
LINE
8
BLACK
6
CONTINUOUS
10
63.3802
20
-81.4096
11
63.2845
21
-81.3906
0
LINE
8
BLACK
6
CONTINUOUS
10
63.2845
20
-81.3906
11
63.2034
21
-81.3364
0
LINE
8
BLACK
6
CONTINUOUS
10
63.2034
20
-81.3364
11
63.1492
21
-81.2553
0
LINE
8
BLACK
6
CONTINUOUS
10
63.1492
20
-81.2553
11
63.1302
21
-81.1596
0
LINE
8
BLACK
6
CONTINUOUS
10
63.1302
20
-81.1596
11
63.1302
21
-80.6346
0
LINE
8
BLACK
6
CONTINUOUS
10
63.1302
20
-80.6346
11
63.1492
21
-80.5389
0
LINE
8
BLACK
6
CONTINUOUS
10
63.1492
20
-80.5389
11
63.2034
21
-80.4578
0
LINE
8
BLACK
6
CONTINUOUS
10
63.2034
20
-80.4578
11
63.2845
21
-80.4036
0
LINE
8
BLACK
6
CONTINUOUS
10
63.2845
20
-80.4036
11
63.3802
21
-80.3846
0
LINE
8
BLACK
6
CONTINUOUS
10
63.3802
20
-80.3846
11
64.2802
21
-80.3846
0
LINE
8
BLACK
6
CONTINUOUS
10
64.2802
20
-80.3846
11
64.3759
21
-80.4036
0
LINE
8
BLACK
6
CONTINUOUS
10
61.9375
20
-80.3782
11
62.0186
21
-80.4324
0
LINE
8
BLACK
6
CONTINUOUS
10
62.0186
20
-80.4324
11
62.0728
21
-80.5135
0
LINE
8
BLACK
6
CONTINUOUS
10
62.0728
20
-80.5135
11
62.0918
21
-80.6092
0
LINE
8
BLACK
6
CONTINUOUS
10
62.0918
20
-80.6092
11
62.0918
21
-81.1342
0
LINE
8
BLACK
6
CONTINUOUS
10
62.0918
20
-81.1342
11
62.0728
21
-81.2299
0
LINE
8
BLACK
6
CONTINUOUS
10
62.0728
20
-81.2299
11
62.0186
21
-81.311
0
LINE
8
BLACK
6
CONTINUOUS
10
62.0186
20
-81.311
11
61.9375
21
-81.3652
0
LINE
8
BLACK
6
CONTINUOUS
10
61.9375
20
-81.3652
11
61.8418
21
-81.3842
0
LINE
8
BLACK
6
CONTINUOUS
10
61.8418
20
-81.3842
11
60.9418
21
-81.3842
0
LINE
8
BLACK
6
CONTINUOUS
10
60.9418
20
-81.3842
11
60.8461
21
-81.3652
0
LINE
8
BLACK
6
CONTINUOUS
10
60.8461
20
-81.3652
11
60.765
21
-81.311
0
LINE
8
BLACK
6
CONTINUOUS
10
60.765
20
-81.311
11
60.7108
21
-81.2299
0
LINE
8
BLACK
6
CONTINUOUS
10
60.7108
20
-81.2299
11
60.6918
21
-81.1342
0
LINE
8
BLACK
6
CONTINUOUS
10
60.6918
20
-81.1342
11
60.6918
21
-80.6092
0
LINE
8
BLACK
6
CONTINUOUS
10
60.6918
20
-80.6092
11
60.7108
21
-80.5135
0
LINE
8
BLACK
6
CONTINUOUS
10
60.7108
20
-80.5135
11
60.765
21
-80.4324
0
LINE
8
BLACK
6
CONTINUOUS
10
60.765
20
-80.4324
11
60.8461
21
-80.3782
0
LINE
8
BLACK
6
CONTINUOUS
10
60.8461
20
-80.3782
11
60.9418
21
-80.3592
0
LINE
8
BLACK
6
CONTINUOUS
10
60.9418
20
-80.3592
11
61.8418
21
-80.3592
0
LINE
8
BLACK
6
CONTINUOUS
10
61.8418
20
-80.3592
11
61.9375
21
-80.3782
0
LINE
8
BLACK
6
CONTINUOUS
10
71.8947
20
-81.2422
11
71.3407
21
-81.2422
0
LINE
8
BLACK
6
CONTINUOUS
10
71.3407
20
-81.2422
11
71.3407
21
-81.0382
0
LINE
8
BLACK
6
CONTINUOUS
10
71.3407
20
-81.0382
11
71.8947
21
-81.0382
0
LINE
8
BLACK
6
CONTINUOUS
10
71.8947
20
-81.0382
11
71.8947
21
-81.2422
0
LINE
8
BLACK
6
CONTINUOUS
10
77.0461
20
-81.2422
11
76.4921
21
-81.2422
0
LINE
8
BLACK
6
CONTINUOUS
10
76.4921
20
-81.2422
11
76.4921
21
-81.0382
0
LINE
8
BLACK
6
CONTINUOUS
10
76.4921
20
-81.0382
11
77.0461
21
-81.0382
0
LINE
8
BLACK
6
CONTINUOUS
10
77.0461
20
-81.0382
11
77.0461
21
-81.2422
0
LINE
8
BLACK
6
CONTINUOUS
10
71.8947
20
-80.8422
11
71.3407
21
-80.8422
0
LINE
8
BLACK
6
CONTINUOUS
10
71.3407
20
-80.8422
11
71.3407
21
-80.6382
0
LINE
8
BLACK
6
CONTINUOUS
10
71.3407
20
-80.6382
11
71.8947
21
-80.6382
0
LINE
8
BLACK
6
CONTINUOUS
10
71.8947
20
-80.6382
11
71.8947
21
-80.8422
0
LINE
8
BLACK
6
CONTINUOUS
10
77.0461
20
-80.8422
11
76.4921
21
-80.8422
0
LINE
8
BLACK
6
CONTINUOUS
10
76.4921
20
-80.8422
11
76.4921
21
-80.6382
0
LINE
8
BLACK
6
CONTINUOUS
10
76.4921
20
-80.6382
11
77.0461
21
-80.6382
0
LINE
8
BLACK
6
CONTINUOUS
10
77.0461
20
-80.6382
11
77.0461
21
-80.8422
0
LINE
8
BLACK
6
CONTINUOUS
10
71.8947
20
-80.4422
11
71.3407
21
-80.4422
0
LINE
8
BLACK
6
CONTINUOUS
10
71.3407
20
-80.4422
11
71.3407
21
-80.2382
0
LINE
8
BLACK
6
CONTINUOUS
10
71.3407
20
-80.2382
11
71.8947
21
-80.2382
0
LINE
8
BLACK
6
CONTINUOUS
10
71.8947
20
-80.2382
11
71.8947
21
-80.4422
0
LINE
8
BLACK
6
CONTINUOUS
10
77.0461
20
-80.4422
11
76.4921
21
-80.4422
0
LINE
8
BLACK
6
CONTINUOUS
10
76.4921
20
-80.4422
11
76.4921
21
-80.2382
0
LINE
8
BLACK
6
CONTINUOUS
10
76.4921
20
-80.2382
11
77.0461
21
-80.2382
0
LINE
8
BLACK
6
CONTINUOUS
10
77.0461
20
-80.2382
11
77.0461
21
-80.4422
0
LINE
8
BLACK
6
CONTINUOUS
10
85.3447
20
-78.9226
11
85.4258
21
-78.9768
0
LINE
8
BLACK
6
CONTINUOUS
10
85.4258
20
-78.9768
11
85.48
21
-79.0579
0
LINE
8
BLACK
6
CONTINUOUS
10
85.48
20
-79.0579
11
85.499
21
-79.1536
0
LINE
8
BLACK
6
CONTINUOUS
10
85.499
20
-79.1536
11
85.499
21
-80.0536
0
LINE
8
BLACK
6
CONTINUOUS
10
85.499
20
-80.0536
11
85.48
21
-80.1493
0
LINE
8
BLACK
6
CONTINUOUS
10
85.48
20
-80.1493
11
85.4258
21
-80.2304
0
LINE
8
BLACK
6
CONTINUOUS
10
85.4258
20
-80.2304
11
85.3447
21
-80.2846
0
LINE
8
BLACK
6
CONTINUOUS
10
85.3447
20
-80.2846
11
85.249
21
-80.3036
0
LINE
8
BLACK
6
CONTINUOUS
10
85.249
20
-80.3036
11
84.724
21
-80.3036
0
LINE
8
BLACK
6
CONTINUOUS
10
84.724
20
-80.3036
11
84.6283
21
-80.2846
0
LINE
8
BLACK
6
CONTINUOUS
10
84.6283
20
-80.2846
11
84.5472
21
-80.2304
0
LINE
8
BLACK
6
CONTINUOUS
10
84.5472
20
-80.2304
11
84.493
21
-80.1493
0
LINE
8
BLACK
6
CONTINUOUS
10
84.493
20
-80.1493
11
84.474
21
-80.0536
0
LINE
8
BLACK
6
CONTINUOUS
10
84.474
20
-80.0536
11
84.474
21
-79.1536
0
LINE
8
BLACK
6
CONTINUOUS
10
84.474
20
-79.1536
11
84.493
21
-79.0579
0
LINE
8
BLACK
6
CONTINUOUS
10
84.493
20
-79.0579
11
84.5472
21
-78.9768
0
LINE
8
BLACK
6
CONTINUOUS
10
84.5472
20
-78.9768
11
84.6283
21
-78.9226
0
LINE
8
BLACK
6
CONTINUOUS
10
84.6283
20
-78.9226
11
84.724
21
-78.9036
0
LINE
8
BLACK
6
CONTINUOUS
10
84.724
20
-78.9036
11
85.249
21
-78.9036
0
LINE
8
BLACK
6
CONTINUOUS
10
85.249
20
-78.9036
11
85.3447
21
-78.9226
0
LINE
8
BLACK
6
CONTINUOUS
10
83.5197
20
-78.9226
11
83.6008
21
-78.9768
0
LINE
8
BLACK
6
CONTINUOUS
10
83.6008
20
-78.9768
11
83.655
21
-79.0579
0
LINE
8
BLACK
6
CONTINUOUS
10
83.655
20
-79.0579
11
83.674
21
-79.1536
0
LINE
8
BLACK
6
CONTINUOUS
10
83.674
20
-79.1536
11
83.674
21
-80.0536
0
LINE
8
BLACK
6
CONTINUOUS
10
83.674
20
-80.0536
11
83.655
21
-80.1493
0
LINE
8
BLACK
6
CONTINUOUS
10
83.655
20
-80.1493
11
83.6008
21
-80.2304
0
LINE
8
BLACK
6
CONTINUOUS
10
83.6008
20
-80.2304
11
83.5197
21
-80.2846
0
LINE
8
BLACK
6
CONTINUOUS
10
83.5197
20
-80.2846
11
83.424
21
-80.3036
0
LINE
8
BLACK
6
CONTINUOUS
10
83.424
20
-80.3036
11
82.899
21
-80.3036
0
LINE
8
BLACK
6
CONTINUOUS
10
82.899
20
-80.3036
11
82.8033
21
-80.2846
0
LINE
8
BLACK
6
CONTINUOUS
10
82.8033
20
-80.2846
11
82.7222
21
-80.2304
0
LINE
8
BLACK
6
CONTINUOUS
10
82.7222
20
-80.2304
11
82.668
21
-80.1493
0
LINE
8
BLACK
6
CONTINUOUS
10
82.668
20
-80.1493
11
82.649
21
-80.0536
0
LINE
8
BLACK
6
CONTINUOUS
10
82.649
20
-80.0536
11
82.649
21
-79.1536
0
LINE
8
BLACK
6
CONTINUOUS
10
82.649
20
-79.1536
11
82.668
21
-79.0579
0
LINE
8
BLACK
6
CONTINUOUS
10
82.668
20
-79.0579
11
82.7222
21
-78.9768
0
LINE
8
BLACK
6
CONTINUOUS
10
82.7222
20
-78.9768
11
82.8033
21
-78.9226
0
LINE
8
BLACK
6
CONTINUOUS
10
82.8033
20
-78.9226
11
82.899
21
-78.9036
0
LINE
8
BLACK
6
CONTINUOUS
10
82.899
20
-78.9036
11
83.424
21
-78.9036
0
LINE
8
BLACK
6
CONTINUOUS
10
83.424
20
-78.9036
11
83.5197
21
-78.9226
0
LINE
8
BLACK
6
CONTINUOUS
10
71.8947
20
-80.0422
11
71.3407
21
-80.0422
0
LINE
8
BLACK
6
CONTINUOUS
10
71.3407
20
-80.0422
11
71.3407
21
-79.8382
0
LINE
8
BLACK
6
CONTINUOUS
10
71.3407
20
-79.8382
11
71.8947
21
-79.8382
0
LINE
8
BLACK
6
CONTINUOUS
10
71.8947
20
-79.8382
11
71.8947
21
-80.0422
0
LINE
8
BLACK
6
CONTINUOUS
10
77.0461
20
-80.0422
11
76.4921
21
-80.0422
0
LINE
8
BLACK
6
CONTINUOUS
10
76.4921
20
-80.0422
11
76.4921
21
-79.8382
0
LINE
8
BLACK
6
CONTINUOUS
10
76.4921
20
-79.8382
11
77.0461
21
-79.8382
0
LINE
8
BLACK
6
CONTINUOUS
10
77.0461
20
-79.8382
11
77.0461
21
-80.0422
0
LINE
8
BLACK
6
CONTINUOUS
10
71.8947
20
-79.6422
11
71.3407
21
-79.6422
0
LINE
8
BLACK
6
CONTINUOUS
10
71.3407
20
-79.6422
11
71.3407
21
-79.4382
0
LINE
8
BLACK
6
CONTINUOUS
10
71.3407
20
-79.4382
11
71.8947
21
-79.4382
0
LINE
8
BLACK
6
CONTINUOUS
10
71.8947
20
-79.4382
11
71.8947
21
-79.6422
0
LINE
8
BLACK
6
CONTINUOUS
10
77.0461
20
-79.6422
11
76.4921
21
-79.6422
0
LINE
8
BLACK
6
CONTINUOUS
10
76.4921
20
-79.6422
11
76.4921
21
-79.4382
0
LINE
8
BLACK
6
CONTINUOUS
10
76.4921
20
-79.4382
11
77.0461
21
-79.4382
0
LINE
8
BLACK
6
CONTINUOUS
10
77.0461
20
-79.4382
11
77.0461
21
-79.6422
0
LINE
8
BLACK
6
CONTINUOUS
10
64.3759
20
-78.5786
11
64.457
21
-78.6328
0
LINE
8
BLACK
6
CONTINUOUS
10
64.457
20
-78.6328
11
64.5112
21
-78.7139
0
LINE
8
BLACK
6
CONTINUOUS
10
64.5112
20
-78.7139
11
64.5302
21
-78.8096
0
LINE
8
BLACK
6
CONTINUOUS
10
64.5302
20
-78.8096
11
64.5302
21
-79.3346
0
LINE
8
BLACK
6
CONTINUOUS
10
64.5302
20
-79.3346
11
64.5112
21
-79.4303
0
LINE
8
BLACK
6
CONTINUOUS
10
64.5112
20
-79.4303
11
64.457
21
-79.5114
0
LINE
8
BLACK
6
CONTINUOUS
10
64.457
20
-79.5114
11
64.3759
21
-79.5656
0
LINE
8
BLACK
6
CONTINUOUS
10
64.3759
20
-79.5656
11
64.2802
21
-79.5846
0
LINE
8
BLACK
6
CONTINUOUS
10
64.2802
20
-79.5846
11
63.3802
21
-79.5846
0
LINE
8
BLACK
6
CONTINUOUS
10
63.3802
20
-79.5846
11
63.2845
21
-79.5656
0
LINE
8
BLACK
6
CONTINUOUS
10
63.2845
20
-79.5656
11
63.2034
21
-79.5114
0
LINE
8
BLACK
6
CONTINUOUS
10
63.2034
20
-79.5114
11
63.1492
21
-79.4303
0
LINE
8
BLACK
6
CONTINUOUS
10
63.1492
20
-79.4303
11
63.1302
21
-79.3346
0
LINE
8
BLACK
6
CONTINUOUS
10
63.1302
20
-79.3346
11
63.1302
21
-78.8096
0
LINE
8
BLACK
6
CONTINUOUS
10
63.1302
20
-78.8096
11
63.1492
21
-78.7139
0
LINE
8
BLACK
6
CONTINUOUS
10
63.1492
20
-78.7139
11
63.2034
21
-78.6328
0
LINE
8
BLACK
6
CONTINUOUS
10
63.2034
20
-78.6328
11
63.2845
21
-78.5786
0
LINE
8
BLACK
6
CONTINUOUS
10
63.2845
20
-78.5786
11
63.3802
21
-78.5596
0
LINE
8
BLACK
6
CONTINUOUS
10
63.3802
20
-78.5596
11
64.2802
21
-78.5596
0
LINE
8
BLACK
6
CONTINUOUS
10
64.2802
20
-78.5596
11
64.3759
21
-78.5786
0
LINE
8
BLACK
6
CONTINUOUS
10
61.9375
20
-78.5532
11
62.0186
21
-78.6074
0
LINE
8
BLACK
6
CONTINUOUS
10
62.0186
20
-78.6074
11
62.0728
21
-78.6885
0
LINE
8
BLACK
6
CONTINUOUS
10
62.0728
20
-78.6885
11
62.0918
21
-78.7842
0
LINE
8
BLACK
6
CONTINUOUS
10
62.0918
20
-78.7842
11
62.0918
21
-79.3092
0
LINE
8
BLACK
6
CONTINUOUS
10
62.0918
20
-79.3092
11
62.0728
21
-79.4049
0
LINE
8
BLACK
6
CONTINUOUS
10
62.0728
20
-79.4049
11
62.0186
21
-79.486
0
LINE
8
BLACK
6
CONTINUOUS
10
62.0186
20
-79.486
11
61.9375
21
-79.5402
0
LINE
8
BLACK
6
CONTINUOUS
10
61.9375
20
-79.5402
11
61.8418
21
-79.5592
0
LINE
8
BLACK
6
CONTINUOUS
10
61.8418
20
-79.5592
11
60.9418
21
-79.5592
0
LINE
8
BLACK
6
CONTINUOUS
10
60.9418
20
-79.5592
11
60.8461
21
-79.5402
0
LINE
8
BLACK
6
CONTINUOUS
10
60.8461
20
-79.5402
11
60.765
21
-79.486
0
LINE
8
BLACK
6
CONTINUOUS
10
60.765
20
-79.486
11
60.7108
21
-79.4049
0
LINE
8
BLACK
6
CONTINUOUS
10
60.7108
20
-79.4049
11
60.6918
21
-79.3092
0
LINE
8
BLACK
6
CONTINUOUS
10
60.6918
20
-79.3092
11
60.6918
21
-78.7842
0
LINE
8
BLACK
6
CONTINUOUS
10
60.6918
20
-78.7842
11
60.7108
21
-78.6885
0
LINE
8
BLACK
6
CONTINUOUS
10
60.7108
20
-78.6885
11
60.765
21
-78.6074
0
LINE
8
BLACK
6
CONTINUOUS
10
60.765
20
-78.6074
11
60.8461
21
-78.5532
0
LINE
8
BLACK
6
CONTINUOUS
10
60.8461
20
-78.5532
11
60.9418
21
-78.5342
0
LINE
8
BLACK
6
CONTINUOUS
10
60.9418
20
-78.5342
11
61.8418
21
-78.5342
0
LINE
8
BLACK
6
CONTINUOUS
10
61.8418
20
-78.5342
11
61.9375
21
-78.5532
0
LINE
8
BLACK
6
CONTINUOUS
10
89.1362
20
-78.68
11
89.1849
21
-78.7125
0
LINE
8
BLACK
6
CONTINUOUS
10
89.1849
20
-78.7125
11
89.2174
21
-78.7612
0
LINE
8
BLACK
6
CONTINUOUS
10
89.2174
20
-78.7612
11
89.2288
21
-78.8186
0
LINE
8
BLACK
6
CONTINUOUS
10
89.2288
20
-78.8186
11
89.2288
21
-79.1186
0
LINE
8
BLACK
6
CONTINUOUS
10
89.2288
20
-79.1186
11
89.2174
21
-79.176
0
LINE
8
BLACK
6
CONTINUOUS
10
89.2174
20
-79.176
11
89.1849
21
-79.2247
0
LINE
8
BLACK
6
CONTINUOUS
10
89.1849
20
-79.2247
11
89.1362
21
-79.2572
0
LINE
8
BLACK
6
CONTINUOUS
10
89.1362
20
-79.2572
11
89.0788
21
-79.2686
0
LINE
8
BLACK
6
CONTINUOUS
10
89.0788
20
-79.2686
11
87.4288
21
-79.2686
0
LINE
8
BLACK
6
CONTINUOUS
10
87.4288
20
-79.2686
11
87.3714
21
-79.2572
0
LINE
8
BLACK
6
CONTINUOUS
10
87.3714
20
-79.2572
11
87.3227
21
-79.2247
0
LINE
8
BLACK
6
CONTINUOUS
10
87.3227
20
-79.2247
11
87.2902
21
-79.176
0
LINE
8
BLACK
6
CONTINUOUS
10
87.2902
20
-79.176
11
87.2788
21
-79.1186
0
LINE
8
BLACK
6
CONTINUOUS
10
87.2788
20
-79.1186
11
87.2788
21
-78.8186
0
LINE
8
BLACK
6
CONTINUOUS
10
87.2788
20
-78.8186
11
87.2902
21
-78.7612
0
LINE
8
BLACK
6
CONTINUOUS
10
87.2902
20
-78.7612
11
87.3227
21
-78.7125
0
LINE
8
BLACK
6
CONTINUOUS
10
87.3227
20
-78.7125
11
87.3714
21
-78.68
0
LINE
8
BLACK
6
CONTINUOUS
10
87.3714
20
-78.68
11
87.4288
21
-78.6686
0
LINE
8
BLACK
6
CONTINUOUS
10
87.4288
20
-78.6686
11
89.0788
21
-78.6686
0
LINE
8
BLACK
6
CONTINUOUS
10
89.0788
20
-78.6686
11
89.1362
21
-78.68
0
LINE
8
BLACK
6
CONTINUOUS
10
94.0862
20
-78.68
11
94.1349
21
-78.7125
0
LINE
8
BLACK
6
CONTINUOUS
10
94.1349
20
-78.7125
11
94.1674
21
-78.7612
0
LINE
8
BLACK
6
CONTINUOUS
10
94.1674
20
-78.7612
11
94.1788
21
-78.8186
0
LINE
8
BLACK
6
CONTINUOUS
10
94.1788
20
-78.8186
11
94.1788
21
-79.1186
0
LINE
8
BLACK
6
CONTINUOUS
10
94.1788
20
-79.1186
11
94.1674
21
-79.176
0
LINE
8
BLACK
6
CONTINUOUS
10
94.1674
20
-79.176
11
94.1349
21
-79.2247
0
LINE
8
BLACK
6
CONTINUOUS
10
94.1349
20
-79.2247
11
94.0862
21
-79.2572
0
LINE
8
BLACK
6
CONTINUOUS
10
94.0862
20
-79.2572
11
94.0288
21
-79.2686
0
LINE
8
BLACK
6
CONTINUOUS
10
94.0288
20
-79.2686
11
92.3788
21
-79.2686
0
LINE
8
BLACK
6
CONTINUOUS
10
92.3788
20
-79.2686
11
92.3214
21
-79.2572
0
LINE
8
BLACK
6
CONTINUOUS
10
92.3214
20
-79.2572
11
92.2727
21
-79.2247
0
LINE
8
BLACK
6
CONTINUOUS
10
92.2727
20
-79.2247
11
92.2402
21
-79.176
0
LINE
8
BLACK
6
CONTINUOUS
10
92.2402
20
-79.176
11
92.2288
21
-79.1186
0
LINE
8
BLACK
6
CONTINUOUS
10
92.2288
20
-79.1186
11
92.2288
21
-78.8186
0
LINE
8
BLACK
6
CONTINUOUS
10
92.2288
20
-78.8186
11
92.2402
21
-78.7612
0
LINE
8
BLACK
6
CONTINUOUS
10
92.2402
20
-78.7612
11
92.2727
21
-78.7125
0
LINE
8
BLACK
6
CONTINUOUS
10
92.2727
20
-78.7125
11
92.3214
21
-78.68
0
LINE
8
BLACK
6
CONTINUOUS
10
92.3214
20
-78.68
11
92.3788
21
-78.6686
0
LINE
8
BLACK
6
CONTINUOUS
10
92.3788
20
-78.6686
11
94.0288
21
-78.6686
0
LINE
8
BLACK
6
CONTINUOUS
10
94.0288
20
-78.6686
11
94.0862
21
-78.68
0
LINE
8
BLACK
6
CONTINUOUS
10
71.8947
20
-79.2422
11
71.3407
21
-79.2422
0
LINE
8
BLACK
6
CONTINUOUS
10
71.3407
20
-79.2422
11
71.3407
21
-79.0382
0
LINE
8
BLACK
6
CONTINUOUS
10
71.3407
20
-79.0382
11
71.8947
21
-79.0382
0
LINE
8
BLACK
6
CONTINUOUS
10
71.8947
20
-79.0382
11
71.8947
21
-79.2422
0
LINE
8
BLACK
6
CONTINUOUS
10
77.0461
20
-79.2422
11
76.4921
21
-79.2422
0
LINE
8
BLACK
6
CONTINUOUS
10
76.4921
20
-79.2422
11
76.4921
21
-79.0382
0
LINE
8
BLACK
6
CONTINUOUS
10
76.4921
20
-79.0382
11
77.0461
21
-79.0382
0
LINE
8
BLACK
6
CONTINUOUS
10
77.0461
20
-79.0382
11
77.0461
21
-79.2422
0
LINE
8
BLACK
6
CONTINUOUS
10
85.3447
20
-76.8906
11
85.4258
21
-76.9448
0
LINE
8
BLACK
6
CONTINUOUS
10
85.4258
20
-76.9448
11
85.48
21
-77.0259
0
LINE
8
BLACK
6
CONTINUOUS
10
85.48
20
-77.0259
11
85.499
21
-77.1216
0
LINE
8
BLACK
6
CONTINUOUS
10
85.499
20
-77.1216
11
85.499
21
-78.0216
0
LINE
8
BLACK
6
CONTINUOUS
10
85.499
20
-78.0216
11
85.48
21
-78.1173
0
LINE
8
BLACK
6
CONTINUOUS
10
85.48
20
-78.1173
11
85.4258
21
-78.1984
0
LINE
8
BLACK
6
CONTINUOUS
10
85.4258
20
-78.1984
11
85.3447
21
-78.2526
0
LINE
8
BLACK
6
CONTINUOUS
10
85.3447
20
-78.2526
11
85.249
21
-78.2716
0
LINE
8
BLACK
6
CONTINUOUS
10
85.249
20
-78.2716
11
84.724
21
-78.2716
0
LINE
8
BLACK
6
CONTINUOUS
10
84.724
20
-78.2716
11
84.6283
21
-78.2526
0
LINE
8
BLACK
6
CONTINUOUS
10
84.6283
20
-78.2526
11
84.5472
21
-78.1984
0
LINE
8
BLACK
6
CONTINUOUS
10
84.5472
20
-78.1984
11
84.493
21
-78.1173
0
LINE
8
BLACK
6
CONTINUOUS
10
84.493
20
-78.1173
11
84.474
21
-78.0216
0
LINE
8
BLACK
6
CONTINUOUS
10
84.474
20
-78.0216
11
84.474
21
-77.1216
0
LINE
8
BLACK
6
CONTINUOUS
10
84.474
20
-77.1216
11
84.493
21
-77.0259
0
LINE
8
BLACK
6
CONTINUOUS
10
84.493
20
-77.0259
11
84.5472
21
-76.9448
0
LINE
8
BLACK
6
CONTINUOUS
10
84.5472
20
-76.9448
11
84.6283
21
-76.8906
0
LINE
8
BLACK
6
CONTINUOUS
10
84.6283
20
-76.8906
11
84.724
21
-76.8716
0
LINE
8
BLACK
6
CONTINUOUS
10
84.724
20
-76.8716
11
85.249
21
-76.8716
0
LINE
8
BLACK
6
CONTINUOUS
10
85.249
20
-76.8716
11
85.3447
21
-76.8906
0
LINE
8
BLACK
6
CONTINUOUS
10
83.5197
20
-76.8906
11
83.6008
21
-76.9448
0
LINE
8
BLACK
6
CONTINUOUS
10
83.6008
20
-76.9448
11
83.655
21
-77.0259
0
LINE
8
BLACK
6
CONTINUOUS
10
83.655
20
-77.0259
11
83.674
21
-77.1216
0
LINE
8
BLACK
6
CONTINUOUS
10
83.674
20
-77.1216
11
83.674
21
-78.0216
0
LINE
8
BLACK
6
CONTINUOUS
10
83.674
20
-78.0216
11
83.655
21
-78.1173
0
LINE
8
BLACK
6
CONTINUOUS
10
83.655
20
-78.1173
11
83.6008
21
-78.1984
0
LINE
8
BLACK
6
CONTINUOUS
10
83.6008
20
-78.1984
11
83.5197
21
-78.2526
0
LINE
8
BLACK
6
CONTINUOUS
10
83.5197
20
-78.2526
11
83.424
21
-78.2716
0
LINE
8
BLACK
6
CONTINUOUS
10
83.424
20
-78.2716
11
82.899
21
-78.2716
0
LINE
8
BLACK
6
CONTINUOUS
10
82.899
20
-78.2716
11
82.8033
21
-78.2526
0
LINE
8
BLACK
6
CONTINUOUS
10
82.8033
20
-78.2526
11
82.7222
21
-78.1984
0
LINE
8
BLACK
6
CONTINUOUS
10
82.7222
20
-78.1984
11
82.668
21
-78.1173
0
LINE
8
BLACK
6
CONTINUOUS
10
82.668
20
-78.1173
11
82.649
21
-78.0216
0
LINE
8
BLACK
6
CONTINUOUS
10
82.649
20
-78.0216
11
82.649
21
-77.1216
0
LINE
8
BLACK
6
CONTINUOUS
10
82.649
20
-77.1216
11
82.668
21
-77.0259
0
LINE
8
BLACK
6
CONTINUOUS
10
82.668
20
-77.0259
11
82.7222
21
-76.9448
0
LINE
8
BLACK
6
CONTINUOUS
10
82.7222
20
-76.9448
11
82.8033
21
-76.8906
0
LINE
8
BLACK
6
CONTINUOUS
10
82.8033
20
-76.8906
11
82.899
21
-76.8716
0
LINE
8
BLACK
6
CONTINUOUS
10
82.899
20
-76.8716
11
83.424
21
-76.8716
0
LINE
8
BLACK
6
CONTINUOUS
10
83.424
20
-76.8716
11
83.5197
21
-76.8906
0
LINE
8
BLACK
6
CONTINUOUS
10
89.1362
20
-77.41
11
89.1849
21
-77.4425
0
LINE
8
BLACK
6
CONTINUOUS
10
89.1849
20
-77.4425
11
89.2174
21
-77.4912
0
LINE
8
BLACK
6
CONTINUOUS
10
89.2174
20
-77.4912
11
89.2288
21
-77.5486
0
LINE
8
BLACK
6
CONTINUOUS
10
89.2288
20
-77.5486
11
89.2288
21
-77.8486
0
LINE
8
BLACK
6
CONTINUOUS
10
89.2288
20
-77.8486
11
89.2174
21
-77.906
0
LINE
8
BLACK
6
CONTINUOUS
10
89.2174
20
-77.906
11
89.1849
21
-77.9547
0
LINE
8
BLACK
6
CONTINUOUS
10
89.1849
20
-77.9547
11
89.1362
21
-77.9872
0
LINE
8
BLACK
6
CONTINUOUS
10
89.1362
20
-77.9872
11
89.0788
21
-77.9986
0
LINE
8
BLACK
6
CONTINUOUS
10
89.0788
20
-77.9986
11
87.4288
21
-77.9986
0
LINE
8
BLACK
6
CONTINUOUS
10
87.4288
20
-77.9986
11
87.3714
21
-77.9872
0
LINE
8
BLACK
6
CONTINUOUS
10
87.3714
20
-77.9872
11
87.3227
21
-77.9547
0
LINE
8
BLACK
6
CONTINUOUS
10
87.3227
20
-77.9547
11
87.2902
21
-77.906
0
LINE
8
BLACK
6
CONTINUOUS
10
87.2902
20
-77.906
11
87.2788
21
-77.8486
0
LINE
8
BLACK
6
CONTINUOUS
10
87.2788
20
-77.8486
11
87.2788
21
-77.5486
0
LINE
8
BLACK
6
CONTINUOUS
10
87.2788
20
-77.5486
11
87.2902
21
-77.4912
0
LINE
8
BLACK
6
CONTINUOUS
10
87.2902
20
-77.4912
11
87.3227
21
-77.4425
0
LINE
8
BLACK
6
CONTINUOUS
10
87.3227
20
-77.4425
11
87.3714
21
-77.41
0
LINE
8
BLACK
6
CONTINUOUS
10
87.3714
20
-77.41
11
87.4288
21
-77.3986
0
LINE
8
BLACK
6
CONTINUOUS
10
87.4288
20
-77.3986
11
89.0788
21
-77.3986
0
LINE
8
BLACK
6
CONTINUOUS
10
89.0788
20
-77.3986
11
89.1362
21
-77.41
0
LINE
8
BLACK
6
CONTINUOUS
10
94.0862
20
-77.41
11
94.1349
21
-77.4425
0
LINE
8
BLACK
6
CONTINUOUS
10
94.1349
20
-77.4425
11
94.1674
21
-77.4912
0
LINE
8
BLACK
6
CONTINUOUS
10
94.1674
20
-77.4912
11
94.1788
21
-77.5486
0
LINE
8
BLACK
6
CONTINUOUS
10
94.1788
20
-77.5486
11
94.1788
21
-77.8486
0
LINE
8
BLACK
6
CONTINUOUS
10
94.1788
20
-77.8486
11
94.1674
21
-77.906
0
LINE
8
BLACK
6
CONTINUOUS
10
94.1674
20
-77.906
11
94.1349
21
-77.9547
0
LINE
8
BLACK
6
CONTINUOUS
10
94.1349
20
-77.9547
11
94.0862
21
-77.9872
0
LINE
8
BLACK
6
CONTINUOUS
10
94.0862
20
-77.9872
11
94.0288
21
-77.9986
0
LINE
8
BLACK
6
CONTINUOUS
10
94.0288
20
-77.9986
11
92.3788
21
-77.9986
0
LINE
8
BLACK
6
CONTINUOUS
10
92.3788
20
-77.9986
11
92.3214
21
-77.9872
0
LINE
8
BLACK
6
CONTINUOUS
10
92.3214
20
-77.9872
11
92.2727
21
-77.9547
0
LINE
8
BLACK
6
CONTINUOUS
10
92.2727
20
-77.9547
11
92.2402
21
-77.906
0
LINE
8
BLACK
6
CONTINUOUS
10
92.2402
20
-77.906
11
92.2288
21
-77.8486
0
LINE
8
BLACK
6
CONTINUOUS
10
92.2288
20
-77.8486
11
92.2288
21
-77.5486
0
LINE
8
BLACK
6
CONTINUOUS
10
92.2288
20
-77.5486
11
92.2402
21
-77.4912
0
LINE
8
BLACK
6
CONTINUOUS
10
92.2402
20
-77.4912
11
92.2727
21
-77.4425
0
LINE
8
BLACK
6
CONTINUOUS
10
92.2727
20
-77.4425
11
92.3214
21
-77.41
0
LINE
8
BLACK
6
CONTINUOUS
10
92.3214
20
-77.41
11
92.3788
21
-77.3986
0
LINE
8
BLACK
6
CONTINUOUS
10
92.3788
20
-77.3986
11
94.0288
21
-77.3986
0
LINE
8
BLACK
6
CONTINUOUS
10
94.0288
20
-77.3986
11
94.0862
21
-77.41
0
LINE
8
BLACK
6
CONTINUOUS
10
63.9368
20
-77.894
11
63.2868
21
-77.894
0
LINE
8
BLACK
6
CONTINUOUS
10
63.2868
20
-77.894
11
63.2868
21
-75.894
0
LINE
8
BLACK
6
CONTINUOUS
10
63.2868
20
-75.894
11
63.9368
21
-75.894
0
LINE
8
BLACK
6
CONTINUOUS
10
63.9368
20
-75.894
11
63.9368
21
-77.894
0
LINE
8
BLACK
6
CONTINUOUS
10
62.0368
20
-77.894
11
61.3868
21
-77.894
0
LINE
8
BLACK
6
CONTINUOUS
10
61.3868
20
-77.894
11
61.3868
21
-75.894
0
LINE
8
BLACK
6
CONTINUOUS
10
61.3868
20
-75.894
11
62.0368
21
-75.894
0
LINE
8
BLACK
6
CONTINUOUS
10
62.0368
20
-75.894
11
62.0368
21
-77.894
0
LINE
8
BLACK
6
CONTINUOUS
10
68.6648
20
-77.6776
11
66.5648
21
-77.6776
0
LINE
8
BLACK
6
CONTINUOUS
10
66.5648
20
-77.6776
11
66.5648
21
-76.2776
0
LINE
8
BLACK
6
CONTINUOUS
10
66.5648
20
-76.2776
11
68.6648
21
-76.2776
0
LINE
8
BLACK
6
CONTINUOUS
10
68.6648
20
-76.2776
11
68.6648
21
-77.6776
0
LINE
8
BLACK
6
CONTINUOUS
10
70.6957
20
-75.184
11
70.7768
21
-75.2382
0
LINE
8
BLACK
6
CONTINUOUS
10
70.7768
20
-75.2382
11
70.831
21
-75.3193
0
LINE
8
BLACK
6
CONTINUOUS
10
70.831
20
-75.3193
11
70.85
21
-75.415
0
LINE
8
BLACK
6
CONTINUOUS
10
70.85
20
-75.415
11
70.85
21
-76.665
0
LINE
8
BLACK
6
CONTINUOUS
10
70.85
20
-76.665
11
70.831
21
-76.7607
0
LINE
8
BLACK
6
CONTINUOUS
10
70.831
20
-76.7607
11
70.7768
21
-76.8418
0
LINE
8
BLACK
6
CONTINUOUS
10
70.7768
20
-76.8418
11
70.6957
21
-76.896
0
LINE
8
BLACK
6
CONTINUOUS
10
70.6957
20
-76.896
11
70.6
21
-76.915
0
LINE
8
BLACK
6
CONTINUOUS
10
70.6
20
-76.915
11
69.8
21
-76.915
0
LINE
8
BLACK
6
CONTINUOUS
10
69.8
20
-76.915
11
69.7043
21
-76.896
0
LINE
8
BLACK
6
CONTINUOUS
10
69.7043
20
-76.896
11
69.6232
21
-76.8418
0
LINE
8
BLACK
6
CONTINUOUS
10
69.6232
20
-76.8418
11
69.569
21
-76.7607
0
LINE
8
BLACK
6
CONTINUOUS
10
69.569
20
-76.7607
11
69.55
21
-76.665
0
LINE
8
BLACK
6
CONTINUOUS
10
69.55
20
-76.665
11
69.55
21
-75.415
0
LINE
8
BLACK
6
CONTINUOUS
10
69.55
20
-75.415
11
69.569
21
-75.3193
0
LINE
8
BLACK
6
CONTINUOUS
10
69.569
20
-75.3193
11
69.6232
21
-75.2382
0
LINE
8
BLACK
6
CONTINUOUS
10
69.6232
20
-75.2382
11
69.7043
21
-75.184
0
LINE
8
BLACK
6
CONTINUOUS
10
69.7043
20
-75.184
11
69.8
21
-75.165
0
LINE
8
BLACK
6
CONTINUOUS
10
69.8
20
-75.165
11
70.6
21
-75.165
0
LINE
8
BLACK
6
CONTINUOUS
10
70.6
20
-75.165
11
70.6957
21
-75.184
0
LINE
8
BLACK
6
CONTINUOUS
10
73.7957
20
-75.184
11
73.8768
21
-75.2382
0
LINE
8
BLACK
6
CONTINUOUS
10
73.8768
20
-75.2382
11
73.931
21
-75.3193
0
LINE
8
BLACK
6
CONTINUOUS
10
73.931
20
-75.3193
11
73.95
21
-75.415
0
LINE
8
BLACK
6
CONTINUOUS
10
73.95
20
-75.415
11
73.95
21
-76.665
0
LINE
8
BLACK
6
CONTINUOUS
10
73.95
20
-76.665
11
73.931
21
-76.7607
0
LINE
8
BLACK
6
CONTINUOUS
10
73.931
20
-76.7607
11
73.8768
21
-76.8418
0
LINE
8
BLACK
6
CONTINUOUS
10
73.8768
20
-76.8418
11
73.7957
21
-76.896
0
LINE
8
BLACK
6
CONTINUOUS
10
73.7957
20
-76.896
11
73.7
21
-76.915
0
LINE
8
BLACK
6
CONTINUOUS
10
73.7
20
-76.915
11
72.9
21
-76.915
0
LINE
8
BLACK
6
CONTINUOUS
10
72.9
20
-76.915
11
72.8043
21
-76.896
0
LINE
8
BLACK
6
CONTINUOUS
10
72.8043
20
-76.896
11
72.7232
21
-76.8418
0
LINE
8
BLACK
6
CONTINUOUS
10
72.7232
20
-76.8418
11
72.669
21
-76.7607
0
LINE
8
BLACK
6
CONTINUOUS
10
72.669
20
-76.7607
11
72.65
21
-76.665
0
LINE
8
BLACK
6
CONTINUOUS
10
72.65
20
-76.665
11
72.65
21
-75.415
0
LINE
8
BLACK
6
CONTINUOUS
10
72.65
20
-75.415
11
72.669
21
-75.3193
0
LINE
8
BLACK
6
CONTINUOUS
10
72.669
20
-75.3193
11
72.7232
21
-75.2382
0
LINE
8
BLACK
6
CONTINUOUS
10
72.7232
20
-75.2382
11
72.8043
21
-75.184
0
LINE
8
BLACK
6
CONTINUOUS
10
72.8043
20
-75.184
11
72.9
21
-75.165
0
LINE
8
BLACK
6
CONTINUOUS
10
72.9
20
-75.165
11
73.7
21
-75.165
0
LINE
8
BLACK
6
CONTINUOUS
10
73.7
20
-75.165
11
73.7957
21
-75.184
0
LINE
8
BLACK
6
CONTINUOUS
10
94.0862
20
-76.14
11
94.1349
21
-76.1725
0
LINE
8
BLACK
6
CONTINUOUS
10
94.1349
20
-76.1725
11
94.1674
21
-76.2212
0
LINE
8
BLACK
6
CONTINUOUS
10
94.1674
20
-76.2212
11
94.1788
21
-76.2786
0
LINE
8
BLACK
6
CONTINUOUS
10
94.1788
20
-76.2786
11
94.1788
21
-76.5786
0
LINE
8
BLACK
6
CONTINUOUS
10
94.1788
20
-76.5786
11
94.1674
21
-76.636
0
LINE
8
BLACK
6
CONTINUOUS
10
94.1674
20
-76.636
11
94.1349
21
-76.6847
0
LINE
8
BLACK
6
CONTINUOUS
10
94.1349
20
-76.6847
11
94.0862
21
-76.7172
0
LINE
8
BLACK
6
CONTINUOUS
10
94.0862
20
-76.7172
11
94.0288
21
-76.7286
0
LINE
8
BLACK
6
CONTINUOUS
10
94.0288
20
-76.7286
11
92.3788
21
-76.7286
0
LINE
8
BLACK
6
CONTINUOUS
10
92.3788
20
-76.7286
11
92.3214
21
-76.7172
0
LINE
8
BLACK
6
CONTINUOUS
10
92.3214
20
-76.7172
11
92.2727
21
-76.6847
0
LINE
8
BLACK
6
CONTINUOUS
10
92.2727
20
-76.6847
11
92.2402
21
-76.636
0
LINE
8
BLACK
6
CONTINUOUS
10
92.2402
20
-76.636
11
92.2288
21
-76.5786
0
LINE
8
BLACK
6
CONTINUOUS
10
92.2288
20
-76.5786
11
92.2288
21
-76.2786
0
LINE
8
BLACK
6
CONTINUOUS
10
92.2288
20
-76.2786
11
92.2402
21
-76.2212
0
LINE
8
BLACK
6
CONTINUOUS
10
92.2402
20
-76.2212
11
92.2727
21
-76.1725
0
LINE
8
BLACK
6
CONTINUOUS
10
92.2727
20
-76.1725
11
92.3214
21
-76.14
0
LINE
8
BLACK
6
CONTINUOUS
10
92.3214
20
-76.14
11
92.3788
21
-76.1286
0
LINE
8
BLACK
6
CONTINUOUS
10
92.3788
20
-76.1286
11
94.0288
21
-76.1286
0
LINE
8
BLACK
6
CONTINUOUS
10
94.0288
20
-76.1286
11
94.0862
21
-76.14
0
LINE
8
BLACK
6
CONTINUOUS
10
89.1362
20
-76.14
11
89.1849
21
-76.1725
0
LINE
8
BLACK
6
CONTINUOUS
10
89.1849
20
-76.1725
11
89.2174
21
-76.2212
0
LINE
8
BLACK
6
CONTINUOUS
10
89.2174
20
-76.2212
11
89.2288
21
-76.2786
0
LINE
8
BLACK
6
CONTINUOUS
10
89.2288
20
-76.2786
11
89.2288
21
-76.5786
0
LINE
8
BLACK
6
CONTINUOUS
10
89.2288
20
-76.5786
11
89.2174
21
-76.636
0
LINE
8
BLACK
6
CONTINUOUS
10
89.2174
20
-76.636
11
89.1849
21
-76.6847
0
LINE
8
BLACK
6
CONTINUOUS
10
89.1849
20
-76.6847
11
89.1362
21
-76.7172
0
LINE
8
BLACK
6
CONTINUOUS
10
89.1362
20
-76.7172
11
89.0788
21
-76.7286
0
LINE
8
BLACK
6
CONTINUOUS
10
89.0788
20
-76.7286
11
87.4288
21
-76.7286
0
LINE
8
BLACK
6
CONTINUOUS
10
87.4288
20
-76.7286
11
87.3714
21
-76.7172
0
LINE
8
BLACK
6
CONTINUOUS
10
87.3714
20
-76.7172
11
87.3227
21
-76.6847
0
LINE
8
BLACK
6
CONTINUOUS
10
87.3227
20
-76.6847
11
87.2902
21
-76.636
0
LINE
8
BLACK
6
CONTINUOUS
10
87.2902
20
-76.636
11
87.2788
21
-76.5786
0
LINE
8
BLACK
6
CONTINUOUS
10
87.2788
20
-76.5786
11
87.2788
21
-76.2786
0
LINE
8
BLACK
6
CONTINUOUS
10
87.2788
20
-76.2786
11
87.2902
21
-76.2212
0
LINE
8
BLACK
6
CONTINUOUS
10
87.2902
20
-76.2212
11
87.3227
21
-76.1725
0
LINE
8
BLACK
6
CONTINUOUS
10
87.3227
20
-76.1725
11
87.3714
21
-76.14
0
LINE
8
BLACK
6
CONTINUOUS
10
87.3714
20
-76.14
11
87.4288
21
-76.1286
0
LINE
8
BLACK
6
CONTINUOUS
10
87.4288
20
-76.1286
11
89.0788
21
-76.1286
0
LINE
8
BLACK
6
CONTINUOUS
10
89.0788
20
-76.1286
11
89.1362
21
-76.14
0
LINE
8
BLACK
6
CONTINUOUS
10
85.3447
20
-74.8586
11
85.4258
21
-74.9128
0
LINE
8
BLACK
6
CONTINUOUS
10
85.4258
20
-74.9128
11
85.48
21
-74.9939
0
LINE
8
BLACK
6
CONTINUOUS
10
85.48
20
-74.9939
11
85.499
21
-75.0896
0
LINE
8
BLACK
6
CONTINUOUS
10
85.499
20
-75.0896
11
85.499
21
-75.9896
0
LINE
8
BLACK
6
CONTINUOUS
10
85.499
20
-75.9896
11
85.48
21
-76.0853
0
LINE
8
BLACK
6
CONTINUOUS
10
85.48
20
-76.0853
11
85.4258
21
-76.1664
0
LINE
8
BLACK
6
CONTINUOUS
10
85.4258
20
-76.1664
11
85.3447
21
-76.2206
0
LINE
8
BLACK
6
CONTINUOUS
10
85.3447
20
-76.2206
11
85.249
21
-76.2396
0
LINE
8
BLACK
6
CONTINUOUS
10
85.249
20
-76.2396
11
84.724
21
-76.2396
0
LINE
8
BLACK
6
CONTINUOUS
10
84.724
20
-76.2396
11
84.6283
21
-76.2206
0
LINE
8
BLACK
6
CONTINUOUS
10
84.6283
20
-76.2206
11
84.5472
21
-76.1664
0
LINE
8
BLACK
6
CONTINUOUS
10
84.5472
20
-76.1664
11
84.493
21
-76.0853
0
LINE
8
BLACK
6
CONTINUOUS
10
84.493
20
-76.0853
11
84.474
21
-75.9896
0
LINE
8
BLACK
6
CONTINUOUS
10
84.474
20
-75.9896
11
84.474
21
-75.0896
0
LINE
8
BLACK
6
CONTINUOUS
10
84.474
20
-75.0896
11
84.493
21
-74.9939
0
LINE
8
BLACK
6
CONTINUOUS
10
84.493
20
-74.9939
11
84.5472
21
-74.9128
0
LINE
8
BLACK
6
CONTINUOUS
10
84.5472
20
-74.9128
11
84.6283
21
-74.8586
0
LINE
8
BLACK
6
CONTINUOUS
10
84.6283
20
-74.8586
11
84.724
21
-74.8396
0
LINE
8
BLACK
6
CONTINUOUS
10
84.724
20
-74.8396
11
85.249
21
-74.8396
0
LINE
8
BLACK
6
CONTINUOUS
10
85.249
20
-74.8396
11
85.3447
21
-74.8586
0
LINE
8
BLACK
6
CONTINUOUS
10
83.5197
20
-74.8586
11
83.6008
21
-74.9128
0
LINE
8
BLACK
6
CONTINUOUS
10
83.6008
20
-74.9128
11
83.655
21
-74.9939
0
LINE
8
BLACK
6
CONTINUOUS
10
83.655
20
-74.9939
11
83.674
21
-75.0896
0
LINE
8
BLACK
6
CONTINUOUS
10
83.674
20
-75.0896
11
83.674
21
-75.9896
0
LINE
8
BLACK
6
CONTINUOUS
10
83.674
20
-75.9896
11
83.655
21
-76.0853
0
LINE
8
BLACK
6
CONTINUOUS
10
83.655
20
-76.0853
11
83.6008
21
-76.1664
0
LINE
8
BLACK
6
CONTINUOUS
10
83.6008
20
-76.1664
11
83.5197
21
-76.2206
0
LINE
8
BLACK
6
CONTINUOUS
10
83.5197
20
-76.2206
11
83.424
21
-76.2396
0
LINE
8
BLACK
6
CONTINUOUS
10
83.424
20
-76.2396
11
82.899
21
-76.2396
0
LINE
8
BLACK
6
CONTINUOUS
10
82.899
20
-76.2396
11
82.8033
21
-76.2206
0
LINE
8
BLACK
6
CONTINUOUS
10
82.8033
20
-76.2206
11
82.7222
21
-76.1664
0
LINE
8
BLACK
6
CONTINUOUS
10
82.7222
20
-76.1664
11
82.668
21
-76.0853
0
LINE
8
BLACK
6
CONTINUOUS
10
82.668
20
-76.0853
11
82.649
21
-75.9896
0
LINE
8
BLACK
6
CONTINUOUS
10
82.649
20
-75.9896
11
82.649
21
-75.0896
0
LINE
8
BLACK
6
CONTINUOUS
10
82.649
20
-75.0896
11
82.668
21
-74.9939
0
LINE
8
BLACK
6
CONTINUOUS
10
82.668
20
-74.9939
11
82.7222
21
-74.9128
0
LINE
8
BLACK
6
CONTINUOUS
10
82.7222
20
-74.9128
11
82.8033
21
-74.8586
0
LINE
8
BLACK
6
CONTINUOUS
10
82.8033
20
-74.8586
11
82.899
21
-74.8396
0
LINE
8
BLACK
6
CONTINUOUS
10
82.899
20
-74.8396
11
83.424
21
-74.8396
0
LINE
8
BLACK
6
CONTINUOUS
10
83.424
20
-74.8396
11
83.5197
21
-74.8586
0
LINE
8
BLACK
6
CONTINUOUS
10
89.1362
20
-74.87
11
89.1849
21
-74.9025
0
LINE
8
BLACK
6
CONTINUOUS
10
89.1849
20
-74.9025
11
89.2174
21
-74.9512
0
LINE
8
BLACK
6
CONTINUOUS
10
89.2174
20
-74.9512
11
89.2288
21
-75.0086
0
LINE
8
BLACK
6
CONTINUOUS
10
89.2288
20
-75.0086
11
89.2288
21
-75.3086
0
LINE
8
BLACK
6
CONTINUOUS
10
89.2288
20
-75.3086
11
89.2174
21
-75.366
0
LINE
8
BLACK
6
CONTINUOUS
10
89.2174
20
-75.366
11
89.1849
21
-75.4147
0
LINE
8
BLACK
6
CONTINUOUS
10
89.1849
20
-75.4147
11
89.1362
21
-75.4472
0
LINE
8
BLACK
6
CONTINUOUS
10
89.1362
20
-75.4472
11
89.0788
21
-75.4586
0
LINE
8
BLACK
6
CONTINUOUS
10
89.0788
20
-75.4586
11
87.4288
21
-75.4586
0
LINE
8
BLACK
6
CONTINUOUS
10
87.4288
20
-75.4586
11
87.3714
21
-75.4472
0
LINE
8
BLACK
6
CONTINUOUS
10
87.3714
20
-75.4472
11
87.3227
21
-75.4147
0
LINE
8
BLACK
6
CONTINUOUS
10
87.3227
20
-75.4147
11
87.2902
21
-75.366
0
LINE
8
BLACK
6
CONTINUOUS
10
87.2902
20
-75.366
11
87.2788
21
-75.3086
0
LINE
8
BLACK
6
CONTINUOUS
10
87.2788
20
-75.3086
11
87.2788
21
-75.0086
0
LINE
8
BLACK
6
CONTINUOUS
10
87.2788
20
-75.0086
11
87.2902
21
-74.9512
0
LINE
8
BLACK
6
CONTINUOUS
10
87.2902
20
-74.9512
11
87.3227
21
-74.9025
0
LINE
8
BLACK
6
CONTINUOUS
10
87.3227
20
-74.9025
11
87.3714
21
-74.87
0
LINE
8
BLACK
6
CONTINUOUS
10
87.3714
20
-74.87
11
87.4288
21
-74.8586
0
LINE
8
BLACK
6
CONTINUOUS
10
87.4288
20
-74.8586
11
89.0788
21
-74.8586
0
LINE
8
BLACK
6
CONTINUOUS
10
89.0788
20
-74.8586
11
89.1362
21
-74.87
0
LINE
8
BLACK
6
CONTINUOUS
10
94.0862
20
-74.87
11
94.1349
21
-74.9025
0
LINE
8
BLACK
6
CONTINUOUS
10
94.1349
20
-74.9025
11
94.1674
21
-74.9512
0
LINE
8
BLACK
6
CONTINUOUS
10
94.1674
20
-74.9512
11
94.1788
21
-75.0086
0
LINE
8
BLACK
6
CONTINUOUS
10
94.1788
20
-75.0086
11
94.1788
21
-75.3086
0
LINE
8
BLACK
6
CONTINUOUS
10
94.1788
20
-75.3086
11
94.1674
21
-75.366
0
LINE
8
BLACK
6
CONTINUOUS
10
94.1674
20
-75.366
11
94.1349
21
-75.4147
0
LINE
8
BLACK
6
CONTINUOUS
10
94.1349
20
-75.4147
11
94.0862
21
-75.4472
0
LINE
8
BLACK
6
CONTINUOUS
10
94.0862
20
-75.4472
11
94.0288
21
-75.4586
0
LINE
8
BLACK
6
CONTINUOUS
10
94.0288
20
-75.4586
11
92.3788
21
-75.4586
0
LINE
8
BLACK
6
CONTINUOUS
10
92.3788
20
-75.4586
11
92.3214
21
-75.4472
0
LINE
8
BLACK
6
CONTINUOUS
10
92.3214
20
-75.4472
11
92.2727
21
-75.4147
0
LINE
8
BLACK
6
CONTINUOUS
10
92.2727
20
-75.4147
11
92.2402
21
-75.366
0
LINE
8
BLACK
6
CONTINUOUS
10
92.2402
20
-75.366
11
92.2288
21
-75.3086
0
LINE
8
BLACK
6
CONTINUOUS
10
92.2288
20
-75.3086
11
92.2288
21
-75.0086
0
LINE
8
BLACK
6
CONTINUOUS
10
92.2288
20
-75.0086
11
92.2402
21
-74.9512
0
LINE
8
BLACK
6
CONTINUOUS
10
92.2402
20
-74.9512
11
92.2727
21
-74.9025
0
LINE
8
BLACK
6
CONTINUOUS
10
92.2727
20
-74.9025
11
92.3214
21
-74.87
0
LINE
8
BLACK
6
CONTINUOUS
10
92.3214
20
-74.87
11
92.3788
21
-74.8586
0
LINE
8
BLACK
6
CONTINUOUS
10
92.3788
20
-74.8586
11
94.0288
21
-74.8586
0
LINE
8
BLACK
6
CONTINUOUS
10
94.0288
20
-74.8586
11
94.0862
21
-74.87
0
LINE
8
BLACK
6
CONTINUOUS
10
62.9868
20
-74.474
11
62.3368
21
-74.474
0
LINE
8
BLACK
6
CONTINUOUS
10
62.3368
20
-74.474
11
62.3368
21
-72.474
0
LINE
8
BLACK
6
CONTINUOUS
10
62.3368
20
-72.474
11
62.9868
21
-72.474
0
LINE
8
BLACK
6
CONTINUOUS
10
62.9868
20
-72.474
11
62.9868
21
-74.474
0
LINE
8
BLACK
6
CONTINUOUS
10
68.6648
20
-73.2776
11
66.5648
21
-73.2776
0
LINE
8
BLACK
6
CONTINUOUS
10
66.5648
20
-73.2776
11
66.5648
21
-71.8776
0
LINE
8
BLACK
6
CONTINUOUS
10
66.5648
20
-71.8776
11
68.6648
21
-71.8776
0
LINE
8
BLACK
6
CONTINUOUS
10
68.6648
20
-71.8776
11
68.6648
21
-73.2776
0
LINE
8
BLACK
6
CONTINUOUS
10
80.1743
20
-71.4874
11
80.2554
21
-71.5416
0
LINE
8
BLACK
6
CONTINUOUS
10
80.2554
20
-71.5416
11
80.3096
21
-71.6227
0
LINE
8
BLACK
6
CONTINUOUS
10
80.3096
20
-71.6227
11
80.3286
21
-71.7184
0
LINE
8
BLACK
6
CONTINUOUS
10
80.3286
20
-71.7184
11
80.3286
21
-72.2184
0
LINE
8
BLACK
6
CONTINUOUS
10
80.3286
20
-72.2184
11
80.3096
21
-72.3141
0
LINE
8
BLACK
6
CONTINUOUS
10
80.3096
20
-72.3141
11
80.2554
21
-72.3952
0
LINE
8
BLACK
6
CONTINUOUS
10
80.2554
20
-72.3952
11
80.1743
21
-72.4494
0
LINE
8
BLACK
6
CONTINUOUS
10
80.1743
20
-72.4494
11
80.0786
21
-72.4684
0
LINE
8
BLACK
6
CONTINUOUS
10
80.0786
20
-72.4684
11
79.1286
21
-72.4684
0
LINE
8
BLACK
6
CONTINUOUS
10
79.1286
20
-72.4684
11
79.0329
21
-72.4494
0
LINE
8
BLACK
6
CONTINUOUS
10
79.0329
20
-72.4494
11
78.9518
21
-72.3952
0
LINE
8
BLACK
6
CONTINUOUS
10
78.9518
20
-72.3952
11
78.8976
21
-72.3141
0
LINE
8
BLACK
6
CONTINUOUS
10
78.8976
20
-72.3141
11
78.8786
21
-72.2184
0
LINE
8
BLACK
6
CONTINUOUS
10
78.8786
20
-72.2184
11
78.8786
21
-71.7184
0
LINE
8
BLACK
6
CONTINUOUS
10
78.8786
20
-71.7184
11
78.8976
21
-71.6227
0
LINE
8
BLACK
6
CONTINUOUS
10
78.8976
20
-71.6227
11
78.9518
21
-71.5416
0
LINE
8
BLACK
6
CONTINUOUS
10
78.9518
20
-71.5416
11
79.0329
21
-71.4874
0
LINE
8
BLACK
6
CONTINUOUS
10
79.0329
20
-71.4874
11
79.1286
21
-71.4684
0
LINE
8
BLACK
6
CONTINUOUS
10
79.1286
20
-71.4684
11
80.0786
21
-71.4684
0
LINE
8
BLACK
6
CONTINUOUS
10
80.0786
20
-71.4684
11
80.1743
21
-71.4874
0
LINE
8
BLACK
6
CONTINUOUS
10
75.9071
20
-71.4874
11
75.9882
21
-71.5416
0
LINE
8
BLACK
6
CONTINUOUS
10
75.9882
20
-71.5416
11
76.0424
21
-71.6227
0
LINE
8
BLACK
6
CONTINUOUS
10
76.0424
20
-71.6227
11
76.0614
21
-71.7184
0
LINE
8
BLACK
6
CONTINUOUS
10
76.0614
20
-71.7184
11
76.0614
21
-72.2184
0
LINE
8
BLACK
6
CONTINUOUS
10
76.0614
20
-72.2184
11
76.0424
21
-72.3141
0
LINE
8
BLACK
6
CONTINUOUS
10
76.0424
20
-72.3141
11
75.9882
21
-72.3952
0
LINE
8
BLACK
6
CONTINUOUS
10
75.9882
20
-72.3952
11
75.9071
21
-72.4494
0
LINE
8
BLACK
6
CONTINUOUS
10
75.9071
20
-72.4494
11
75.8114
21
-72.4684
0
LINE
8
BLACK
6
CONTINUOUS
10
75.8114
20
-72.4684
11
74.8614
21
-72.4684
0
LINE
8
BLACK
6
CONTINUOUS
10
74.8614
20
-72.4684
11
74.7657
21
-72.4494
0
LINE
8
BLACK
6
CONTINUOUS
10
74.7657
20
-72.4494
11
74.6846
21
-72.3952
0
LINE
8
BLACK
6
CONTINUOUS
10
74.6846
20
-72.3952
11
74.6304
21
-72.3141
0
LINE
8
BLACK
6
CONTINUOUS
10
74.6304
20
-72.3141
11
74.6114
21
-72.2184
0
LINE
8
BLACK
6
CONTINUOUS
10
74.6114
20
-72.2184
11
74.6114
21
-71.7184
0
LINE
8
BLACK
6
CONTINUOUS
10
74.6114
20
-71.7184
11
74.6304
21
-71.6227
0
LINE
8
BLACK
6
CONTINUOUS
10
74.6304
20
-71.6227
11
74.6846
21
-71.5416
0
LINE
8
BLACK
6
CONTINUOUS
10
74.6846
20
-71.5416
11
74.7657
21
-71.4874
0
LINE
8
BLACK
6
CONTINUOUS
10
74.7657
20
-71.4874
11
74.8614
21
-71.4684
0
LINE
8
BLACK
6
CONTINUOUS
10
74.8614
20
-71.4684
11
75.8114
21
-71.4684
0
LINE
8
BLACK
6
CONTINUOUS
10
75.8114
20
-71.4684
11
75.9071
21
-71.4874
0
LINE
8
BLACK
6
CONTINUOUS
10
78.0157
20
-71.4374
11
78.0968
21
-71.4916
0
LINE
8
BLACK
6
CONTINUOUS
10
78.0968
20
-71.4916
11
78.151
21
-71.5727
0
LINE
8
BLACK
6
CONTINUOUS
10
78.151
20
-71.5727
11
78.17
21
-71.6684
0
LINE
8
BLACK
6
CONTINUOUS
10
78.17
20
-71.6684
11
78.17
21
-72.1934
0
LINE
8
BLACK
6
CONTINUOUS
10
78.17
20
-72.1934
11
78.151
21
-72.2891
0
LINE
8
BLACK
6
CONTINUOUS
10
78.151
20
-72.2891
11
78.0968
21
-72.3702
0
LINE
8
BLACK
6
CONTINUOUS
10
78.0968
20
-72.3702
11
78.0157
21
-72.4244
0
LINE
8
BLACK
6
CONTINUOUS
10
78.0157
20
-72.4244
11
77.92
21
-72.4434
0
LINE
8
BLACK
6
CONTINUOUS
10
77.92
20
-72.4434
11
77.02
21
-72.4434
0
LINE
8
BLACK
6
CONTINUOUS
10
77.02
20
-72.4434
11
76.9243
21
-72.4244
0
LINE
8
BLACK
6
CONTINUOUS
10
76.9243
20
-72.4244
11
76.8432
21
-72.3702
0
LINE
8
BLACK
6
CONTINUOUS
10
76.8432
20
-72.3702
11
76.789
21
-72.2891
0
LINE
8
BLACK
6
CONTINUOUS
10
76.789
20
-72.2891
11
76.77
21
-72.1934
0
LINE
8
BLACK
6
CONTINUOUS
10
76.77
20
-72.1934
11
76.77
21
-71.6684
0
LINE
8
BLACK
6
CONTINUOUS
10
76.77
20
-71.6684
11
76.789
21
-71.5727
0
LINE
8
BLACK
6
CONTINUOUS
10
76.789
20
-71.5727
11
76.8432
21
-71.4916
0
LINE
8
BLACK
6
CONTINUOUS
10
76.8432
20
-71.4916
11
76.9243
21
-71.4374
0
LINE
8
BLACK
6
CONTINUOUS
10
76.9243
20
-71.4374
11
77.02
21
-71.4184
0
LINE
8
BLACK
6
CONTINUOUS
10
77.02
20
-71.4184
11
77.92
21
-71.4184
0
LINE
8
BLACK
6
CONTINUOUS
10
77.92
20
-71.4184
11
78.0157
21
-71.4374
0
LINE
8
BLACK
6
CONTINUOUS
10
82.7401
20
-71.4374
11
82.8212
21
-71.4916
0
LINE
8
BLACK
6
CONTINUOUS
10
82.8212
20
-71.4916
11
82.8754
21
-71.5727
0
LINE
8
BLACK
6
CONTINUOUS
10
82.8754
20
-71.5727
11
82.8944
21
-71.6684
0
LINE
8
BLACK
6
CONTINUOUS
10
82.8944
20
-71.6684
11
82.8944
21
-72.1934
0
LINE
8
BLACK
6
CONTINUOUS
10
82.8944
20
-72.1934
11
82.8754
21
-72.2891
0
LINE
8
BLACK
6
CONTINUOUS
10
82.8754
20
-72.2891
11
82.8212
21
-72.3702
0
LINE
8
BLACK
6
CONTINUOUS
10
82.8212
20
-72.3702
11
82.7401
21
-72.4244
0
LINE
8
BLACK
6
CONTINUOUS
10
82.7401
20
-72.4244
11
82.6444
21
-72.4434
0
LINE
8
BLACK
6
CONTINUOUS
10
82.6444
20
-72.4434
11
81.7444
21
-72.4434
0
LINE
8
BLACK
6
CONTINUOUS
10
81.7444
20
-72.4434
11
81.6487
21
-72.4244
0
LINE
8
BLACK
6
CONTINUOUS
10
81.6487
20
-72.4244
11
81.5676
21
-72.3702
0
LINE
8
BLACK
6
CONTINUOUS
10
81.5676
20
-72.3702
11
81.5134
21
-72.2891
0
LINE
8
BLACK
6
CONTINUOUS
10
81.5134
20
-72.2891
11
81.4944
21
-72.1934
0
LINE
8
BLACK
6
CONTINUOUS
10
81.4944
20
-72.1934
11
81.4944
21
-71.6684
0
LINE
8
BLACK
6
CONTINUOUS
10
81.4944
20
-71.6684
11
81.5134
21
-71.5727
0
LINE
8
BLACK
6
CONTINUOUS
10
81.5134
20
-71.5727
11
81.5676
21
-71.4916
0
LINE
8
BLACK
6
CONTINUOUS
10
81.5676
20
-71.4916
11
81.6487
21
-71.4374
0
LINE
8
BLACK
6
CONTINUOUS
10
81.6487
20
-71.4374
11
81.7444
21
-71.4184
0
LINE
8
BLACK
6
CONTINUOUS
10
81.7444
20
-71.4184
11
82.6444
21
-71.4184
0
LINE
8
BLACK
6
CONTINUOUS
10
82.6444
20
-71.4184
11
82.7401
21
-71.4374
0
LINE
8
BLACK
6
CONTINUOUS
10
78.0157
20
-69.6124
11
78.0968
21
-69.6666
0
LINE
8
BLACK
6
CONTINUOUS
10
78.0968
20
-69.6666
11
78.151
21
-69.7477
0
LINE
8
BLACK
6
CONTINUOUS
10
78.151
20
-69.7477
11
78.17
21
-69.8434
0
LINE
8
BLACK
6
CONTINUOUS
10
78.17
20
-69.8434
11
78.17
21
-70.3684
0
LINE
8
BLACK
6
CONTINUOUS
10
78.17
20
-70.3684
11
78.151
21
-70.4641
0
LINE
8
BLACK
6
CONTINUOUS
10
78.151
20
-70.4641
11
78.0968
21
-70.5452
0
LINE
8
BLACK
6
CONTINUOUS
10
78.0968
20
-70.5452
11
78.0157
21
-70.5994
0
LINE
8
BLACK
6
CONTINUOUS
10
78.0157
20
-70.5994
11
77.92
21
-70.6184
0
LINE
8
BLACK
6
CONTINUOUS
10
77.92
20
-70.6184
11
77.02
21
-70.6184
0
LINE
8
BLACK
6
CONTINUOUS
10
77.02
20
-70.6184
11
76.9243
21
-70.5994
0
LINE
8
BLACK
6
CONTINUOUS
10
76.9243
20
-70.5994
11
76.8432
21
-70.5452
0
LINE
8
BLACK
6
CONTINUOUS
10
76.8432
20
-70.5452
11
76.789
21
-70.4641
0
LINE
8
BLACK
6
CONTINUOUS
10
76.789
20
-70.4641
11
76.77
21
-70.3684
0
LINE
8
BLACK
6
CONTINUOUS
10
76.77
20
-70.3684
11
76.77
21
-69.8434
0
LINE
8
BLACK
6
CONTINUOUS
10
76.77
20
-69.8434
11
76.789
21
-69.7477
0
LINE
8
BLACK
6
CONTINUOUS
10
76.789
20
-69.7477
11
76.8432
21
-69.6666
0
LINE
8
BLACK
6
CONTINUOUS
10
76.8432
20
-69.6666
11
76.9243
21
-69.6124
0
LINE
8
BLACK
6
CONTINUOUS
10
76.9243
20
-69.6124
11
77.02
21
-69.5934
0
LINE
8
BLACK
6
CONTINUOUS
10
77.02
20
-69.5934
11
77.92
21
-69.5934
0
LINE
8
BLACK
6
CONTINUOUS
10
77.92
20
-69.5934
11
78.0157
21
-69.6124
0
LINE
8
BLACK
6
CONTINUOUS
10
82.7401
20
-69.6124
11
82.8212
21
-69.6666
0
LINE
8
BLACK
6
CONTINUOUS
10
82.8212
20
-69.6666
11
82.8754
21
-69.7477
0
LINE
8
BLACK
6
CONTINUOUS
10
82.8754
20
-69.7477
11
82.8944
21
-69.8434
0
LINE
8
BLACK
6
CONTINUOUS
10
82.8944
20
-69.8434
11
82.8944
21
-70.3684
0
LINE
8
BLACK
6
CONTINUOUS
10
82.8944
20
-70.3684
11
82.8754
21
-70.4641
0
LINE
8
BLACK
6
CONTINUOUS
10
82.8754
20
-70.4641
11
82.8212
21
-70.5452
0
LINE
8
BLACK
6
CONTINUOUS
10
82.8212
20
-70.5452
11
82.7401
21
-70.5994
0
LINE
8
BLACK
6
CONTINUOUS
10
82.7401
20
-70.5994
11
82.6444
21
-70.6184
0
LINE
8
BLACK
6
CONTINUOUS
10
82.6444
20
-70.6184
11
81.7444
21
-70.6184
0
LINE
8
BLACK
6
CONTINUOUS
10
81.7444
20
-70.6184
11
81.6487
21
-70.5994
0
LINE
8
BLACK
6
CONTINUOUS
10
81.6487
20
-70.5994
11
81.5676
21
-70.5452
0
LINE
8
BLACK
6
CONTINUOUS
10
81.5676
20
-70.5452
11
81.5134
21
-70.4641
0
LINE
8
BLACK
6
CONTINUOUS
10
81.5134
20
-70.4641
11
81.4944
21
-70.3684
0
LINE
8
BLACK
6
CONTINUOUS
10
81.4944
20
-70.3684
11
81.4944
21
-69.8434
0
LINE
8
BLACK
6
CONTINUOUS
10
81.4944
20
-69.8434
11
81.5134
21
-69.7477
0
LINE
8
BLACK
6
CONTINUOUS
10
81.5134
20
-69.7477
11
81.5676
21
-69.6666
0
LINE
8
BLACK
6
CONTINUOUS
10
81.5676
20
-69.6666
11
81.6487
21
-69.6124
0
LINE
8
BLACK
6
CONTINUOUS
10
81.6487
20
-69.6124
11
81.7444
21
-69.5934
0
LINE
8
BLACK
6
CONTINUOUS
10
81.7444
20
-69.5934
11
82.6444
21
-69.5934
0
LINE
8
BLACK
6
CONTINUOUS
10
82.6444
20
-69.5934
11
82.7401
21
-69.6124
0
LINE
8
BLACK
6
CONTINUOUS
10
80.1743
20
-69.5874
11
80.2554
21
-69.6416
0
LINE
8
BLACK
6
CONTINUOUS
10
80.2554
20
-69.6416
11
80.3096
21
-69.7227
0
LINE
8
BLACK
6
CONTINUOUS
10
80.3096
20
-69.7227
11
80.3286
21
-69.8184
0
LINE
8
BLACK
6
CONTINUOUS
10
80.3286
20
-69.8184
11
80.3286
21
-70.3184
0
LINE
8
BLACK
6
CONTINUOUS
10
80.3286
20
-70.3184
11
80.3096
21
-70.4141
0
LINE
8
BLACK
6
CONTINUOUS
10
80.3096
20
-70.4141
11
80.2554
21
-70.4952
0
LINE
8
BLACK
6
CONTINUOUS
10
80.2554
20
-70.4952
11
80.1743
21
-70.5494
0
LINE
8
BLACK
6
CONTINUOUS
10
80.1743
20
-70.5494
11
80.0786
21
-70.5684
0
LINE
8
BLACK
6
CONTINUOUS
10
80.0786
20
-70.5684
11
79.1286
21
-70.5684
0
LINE
8
BLACK
6
CONTINUOUS
10
79.1286
20
-70.5684
11
79.0329
21
-70.5494
0
LINE
8
BLACK
6
CONTINUOUS
10
79.0329
20
-70.5494
11
78.9518
21
-70.4952
0
LINE
8
BLACK
6
CONTINUOUS
10
78.9518
20
-70.4952
11
78.8976
21
-70.4141
0
LINE
8
BLACK
6
CONTINUOUS
10
78.8976
20
-70.4141
11
78.8786
21
-70.3184
0
LINE
8
BLACK
6
CONTINUOUS
10
78.8786
20
-70.3184
11
78.8786
21
-69.8184
0
LINE
8
BLACK
6
CONTINUOUS
10
78.8786
20
-69.8184
11
78.8976
21
-69.7227
0
LINE
8
BLACK
6
CONTINUOUS
10
78.8976
20
-69.7227
11
78.9518
21
-69.6416
0
LINE
8
BLACK
6
CONTINUOUS
10
78.9518
20
-69.6416
11
79.0329
21
-69.5874
0
LINE
8
BLACK
6
CONTINUOUS
10
79.0329
20
-69.5874
11
79.1286
21
-69.5684
0
LINE
8
BLACK
6
CONTINUOUS
10
79.1286
20
-69.5684
11
80.0786
21
-69.5684
0
LINE
8
BLACK
6
CONTINUOUS
10
80.0786
20
-69.5684
11
80.1743
21
-69.5874
0
LINE
8
BLACK
6
CONTINUOUS
10
75.9071
20
-69.5874
11
75.9882
21
-69.6416
0
LINE
8
BLACK
6
CONTINUOUS
10
75.9882
20
-69.6416
11
76.0424
21
-69.7227
0
LINE
8
BLACK
6
CONTINUOUS
10
76.0424
20
-69.7227
11
76.0614
21
-69.8184
0
LINE
8
BLACK
6
CONTINUOUS
10
76.0614
20
-69.8184
11
76.0614
21
-70.3184
0
LINE
8
BLACK
6
CONTINUOUS
10
76.0614
20
-70.3184
11
76.0424
21
-70.4141
0
LINE
8
BLACK
6
CONTINUOUS
10
76.0424
20
-70.4141
11
75.9882
21
-70.4952
0
LINE
8
BLACK
6
CONTINUOUS
10
75.9882
20
-70.4952
11
75.9071
21
-70.5494
0
LINE
8
BLACK
6
CONTINUOUS
10
75.9071
20
-70.5494
11
75.8114
21
-70.5684
0
LINE
8
BLACK
6
CONTINUOUS
10
75.8114
20
-70.5684
11
74.8614
21
-70.5684
0
LINE
8
BLACK
6
CONTINUOUS
10
74.8614
20
-70.5684
11
74.7657
21
-70.5494
0
LINE
8
BLACK
6
CONTINUOUS
10
74.7657
20
-70.5494
11
74.6846
21
-70.4952
0
LINE
8
BLACK
6
CONTINUOUS
10
74.6846
20
-70.4952
11
74.6304
21
-70.4141
0
LINE
8
BLACK
6
CONTINUOUS
10
74.6304
20
-70.4141
11
74.6114
21
-70.3184
0
LINE
8
BLACK
6
CONTINUOUS
10
74.6114
20
-70.3184
11
74.6114
21
-69.8184
0
LINE
8
BLACK
6
CONTINUOUS
10
74.6114
20
-69.8184
11
74.6304
21
-69.7227
0
LINE
8
BLACK
6
CONTINUOUS
10
74.6304
20
-69.7227
11
74.6846
21
-69.6416
0
LINE
8
BLACK
6
CONTINUOUS
10
74.6846
20
-69.6416
11
74.7657
21
-69.5874
0
LINE
8
BLACK
6
CONTINUOUS
10
74.7657
20
-69.5874
11
74.8614
21
-69.5684
0
LINE
8
BLACK
6
CONTINUOUS
10
74.8614
20
-69.5684
11
75.8114
21
-69.5684
0
LINE
8
BLACK
6
CONTINUOUS
10
75.8114
20
-69.5684
11
75.9071
21
-69.5874
0
LINE
8
BLACK
6
CONTINUOUS
10
96.9952
20
-67.1628
11
97.0763
21
-67.217
0
LINE
8
BLACK
6
CONTINUOUS
10
97.0763
20
-67.217
11
97.1305
21
-67.2981
0
LINE
8
BLACK
6
CONTINUOUS
10
97.1305
20
-67.2981
11
97.1495
21
-67.3938
0
LINE
8
BLACK
6
CONTINUOUS
10
97.1495
20
-67.3938
11
97.1495
21
-68.3438
0
LINE
8
BLACK
6
CONTINUOUS
10
97.1495
20
-68.3438
11
97.1305
21
-68.4395
0
LINE
8
BLACK
6
CONTINUOUS
10
97.1305
20
-68.4395
11
97.0763
21
-68.5206
0
LINE
8
BLACK
6
CONTINUOUS
10
97.0763
20
-68.5206
11
96.9952
21
-68.5748
0
LINE
8
BLACK
6
CONTINUOUS
10
96.9952
20
-68.5748
11
96.8995
21
-68.5938
0
LINE
8
BLACK
6
CONTINUOUS
10
96.8995
20
-68.5938
11
96.3995
21
-68.5938
0
LINE
8
BLACK
6
CONTINUOUS
10
96.3995
20
-68.5938
11
96.3038
21
-68.5748
0
LINE
8
BLACK
6
CONTINUOUS
10
96.3038
20
-68.5748
11
96.2227
21
-68.5206
0
LINE
8
BLACK
6
CONTINUOUS
10
96.2227
20
-68.5206
11
96.1685
21
-68.4395
0
LINE
8
BLACK
6
CONTINUOUS
10
96.1685
20
-68.4395
11
96.1495
21
-68.3438
0
LINE
8
BLACK
6
CONTINUOUS
10
96.1495
20
-68.3438
11
96.1495
21
-67.3938
0
LINE
8
BLACK
6
CONTINUOUS
10
96.1495
20
-67.3938
11
96.1685
21
-67.2981
0
LINE
8
BLACK
6
CONTINUOUS
10
96.1685
20
-67.2981
11
96.2227
21
-67.217
0
LINE
8
BLACK
6
CONTINUOUS
10
96.2227
20
-67.217
11
96.3038
21
-67.1628
0
LINE
8
BLACK
6
CONTINUOUS
10
96.3038
20
-67.1628
11
96.3995
21
-67.1438
0
LINE
8
BLACK
6
CONTINUOUS
10
96.3995
20
-67.1438
11
96.8995
21
-67.1438
0
LINE
8
BLACK
6
CONTINUOUS
10
96.8995
20
-67.1438
11
96.9952
21
-67.1628
0
LINE
8
BLACK
6
CONTINUOUS
10
98.8952
20
-67.1628
11
98.9763
21
-67.217
0
LINE
8
BLACK
6
CONTINUOUS
10
98.9763
20
-67.217
11
99.0305
21
-67.2981
0
LINE
8
BLACK
6
CONTINUOUS
10
99.0305
20
-67.2981
11
99.0495
21
-67.3938
0
LINE
8
BLACK
6
CONTINUOUS
10
99.0495
20
-67.3938
11
99.0495
21
-68.3438
0
LINE
8
BLACK
6
CONTINUOUS
10
99.0495
20
-68.3438
11
99.0305
21
-68.4395
0
LINE
8
BLACK
6
CONTINUOUS
10
99.0305
20
-68.4395
11
98.9763
21
-68.5206
0
LINE
8
BLACK
6
CONTINUOUS
10
98.9763
20
-68.5206
11
98.8952
21
-68.5748
0
LINE
8
BLACK
6
CONTINUOUS
10
98.8952
20
-68.5748
11
98.7995
21
-68.5938
0
LINE
8
BLACK
6
CONTINUOUS
10
98.7995
20
-68.5938
11
98.2995
21
-68.5938
0
LINE
8
BLACK
6
CONTINUOUS
10
98.2995
20
-68.5938
11
98.2038
21
-68.5748
0
LINE
8
BLACK
6
CONTINUOUS
10
98.2038
20
-68.5748
11
98.1227
21
-68.5206
0
LINE
8
BLACK
6
CONTINUOUS
10
98.1227
20
-68.5206
11
98.0685
21
-68.4395
0
LINE
8
BLACK
6
CONTINUOUS
10
98.0685
20
-68.4395
11
98.0495
21
-68.3438
0
LINE
8
BLACK
6
CONTINUOUS
10
98.0495
20
-68.3438
11
98.0495
21
-67.3938
0
LINE
8
BLACK
6
CONTINUOUS
10
98.0495
20
-67.3938
11
98.0685
21
-67.2981
0
LINE
8
BLACK
6
CONTINUOUS
10
98.0685
20
-67.2981
11
98.1227
21
-67.217
0
LINE
8
BLACK
6
CONTINUOUS
10
98.1227
20
-67.217
11
98.2038
21
-67.1628
0
LINE
8
BLACK
6
CONTINUOUS
10
98.2038
20
-67.1628
11
98.2995
21
-67.1438
0
LINE
8
BLACK
6
CONTINUOUS
10
98.2995
20
-67.1438
11
98.7995
21
-67.1438
0
LINE
8
BLACK
6
CONTINUOUS
10
98.7995
20
-67.1438
11
98.8952
21
-67.1628
0
LINE
8
BLACK
6
CONTINUOUS
10
98.874
20
-64.4569
11
98.9531
21
-64.5097
0
LINE
8
BLACK
6
CONTINUOUS
10
98.9531
20
-64.5097
11
99.0059
21
-64.5888
0
LINE
8
BLACK
6
CONTINUOUS
10
99.0059
20
-64.5888
11
99.0245
21
-64.6821
0
LINE
8
BLACK
6
CONTINUOUS
10
99.0245
20
-64.6821
11
99.0245
21
-65.5945
0
LINE
8
BLACK
6
CONTINUOUS
10
99.0245
20
-65.5945
11
99.0059
21
-65.6878
0
LINE
8
BLACK
6
CONTINUOUS
10
99.0059
20
-65.6878
11
98.9531
21
-65.7669
0
LINE
8
BLACK
6
CONTINUOUS
10
98.9531
20
-65.7669
11
98.874
21
-65.8197
0
LINE
8
BLACK
6
CONTINUOUS
10
98.874
20
-65.8197
11
98.7807
21
-65.8383
0
LINE
8
BLACK
6
CONTINUOUS
10
98.7807
20
-65.8383
11
98.2933
21
-65.8383
0
LINE
8
BLACK
6
CONTINUOUS
10
98.2933
20
-65.8383
11
98.2
21
-65.8197
0
LINE
8
BLACK
6
CONTINUOUS
10
98.2
20
-65.8197
11
98.1209
21
-65.7669
0
LINE
8
BLACK
6
CONTINUOUS
10
98.1209
20
-65.7669
11
98.0681
21
-65.6878
0
LINE
8
BLACK
6
CONTINUOUS
10
98.0681
20
-65.6878
11
98.0495
21
-65.5945
0
LINE
8
BLACK
6
CONTINUOUS
10
98.0495
20
-65.5945
11
98.0495
21
-64.6821
0
LINE
8
BLACK
6
CONTINUOUS
10
98.0495
20
-64.6821
11
98.0681
21
-64.5888
0
LINE
8
BLACK
6
CONTINUOUS
10
98.0681
20
-64.5888
11
98.1209
21
-64.5097
0
LINE
8
BLACK
6
CONTINUOUS
10
98.1209
20
-64.5097
11
98.2
21
-64.4569
0
LINE
8
BLACK
6
CONTINUOUS
10
98.2
20
-64.4569
11
98.2933
21
-64.4383
0
LINE
8
BLACK
6
CONTINUOUS
10
98.2933
20
-64.4383
11
98.7807
21
-64.4383
0
LINE
8
BLACK
6
CONTINUOUS
10
98.7807
20
-64.4383
11
98.874
21
-64.4569
0
LINE
8
BLACK
6
CONTINUOUS
10
96.999
20
-64.4569
11
97.0781
21
-64.5097
0
LINE
8
BLACK
6
CONTINUOUS
10
97.0781
20
-64.5097
11
97.1309
21
-64.5888
0
LINE
8
BLACK
6
CONTINUOUS
10
97.1309
20
-64.5888
11
97.1495
21
-64.6821
0
LINE
8
BLACK
6
CONTINUOUS
10
97.1495
20
-64.6821
11
97.1495
21
-65.5945
0
LINE
8
BLACK
6
CONTINUOUS
10
97.1495
20
-65.5945
11
97.1309
21
-65.6878
0
LINE
8
BLACK
6
CONTINUOUS
10
97.1309
20
-65.6878
11
97.0781
21
-65.7669
0
LINE
8
BLACK
6
CONTINUOUS
10
97.0781
20
-65.7669
11
96.999
21
-65.8197
0
LINE
8
BLACK
6
CONTINUOUS
10
96.999
20
-65.8197
11
96.9057
21
-65.8383
0
LINE
8
BLACK
6
CONTINUOUS
10
96.9057
20
-65.8383
11
96.4183
21
-65.8383
0
LINE
8
BLACK
6
CONTINUOUS
10
96.4183
20
-65.8383
11
96.325
21
-65.8197
0
LINE
8
BLACK
6
CONTINUOUS
10
96.325
20
-65.8197
11
96.2459
21
-65.7669
0
LINE
8
BLACK
6
CONTINUOUS
10
96.2459
20
-65.7669
11
96.1931
21
-65.6878
0
LINE
8
BLACK
6
CONTINUOUS
10
96.1931
20
-65.6878
11
96.1745
21
-65.5945
0
LINE
8
BLACK
6
CONTINUOUS
10
96.1745
20
-65.5945
11
96.1745
21
-64.6821
0
LINE
8
BLACK
6
CONTINUOUS
10
96.1745
20
-64.6821
11
96.1931
21
-64.5888
0
LINE
8
BLACK
6
CONTINUOUS
10
96.1931
20
-64.5888
11
96.2459
21
-64.5097
0
LINE
8
BLACK
6
CONTINUOUS
10
96.2459
20
-64.5097
11
96.325
21
-64.4569
0
LINE
8
BLACK
6
CONTINUOUS
10
96.325
20
-64.4569
11
96.4183
21
-64.4383
0
LINE
8
BLACK
6
CONTINUOUS
10
96.4183
20
-64.4383
11
96.9057
21
-64.4383
0
LINE
8
BLACK
6
CONTINUOUS
10
96.9057
20
-64.4383
11
96.999
21
-64.4569
0
LINE
8
BLACK
6
CONTINUOUS
10
73.3351
20
-62.5908
11
73.4162
21
-62.645
0
LINE
8
BLACK
6
CONTINUOUS
10
73.4162
20
-62.645
11
73.4704
21
-62.7261
0
LINE
8
BLACK
6
CONTINUOUS
10
73.4704
20
-62.7261
11
73.4894
21
-62.8218
0
LINE
8
BLACK
6
CONTINUOUS
10
73.4894
20
-62.8218
11
73.4894
21
-63.7718
0
LINE
8
BLACK
6
CONTINUOUS
10
73.4894
20
-63.7718
11
73.4704
21
-63.8675
0
LINE
8
BLACK
6
CONTINUOUS
10
73.4704
20
-63.8675
11
73.4162
21
-63.9486
0
LINE
8
BLACK
6
CONTINUOUS
10
73.4162
20
-63.9486
11
73.3351
21
-64.0028
0
LINE
8
BLACK
6
CONTINUOUS
10
73.3351
20
-64.0028
11
73.2394
21
-64.0218
0
LINE
8
BLACK
6
CONTINUOUS
10
73.2394
20
-64.0218
11
72.7394
21
-64.0218
0
LINE
8
BLACK
6
CONTINUOUS
10
72.7394
20
-64.0218
11
72.6437
21
-64.0028
0
LINE
8
BLACK
6
CONTINUOUS
10
72.6437
20
-64.0028
11
72.5626
21
-63.9486
0
LINE
8
BLACK
6
CONTINUOUS
10
72.5626
20
-63.9486
11
72.5084
21
-63.8675
0
LINE
8
BLACK
6
CONTINUOUS
10
72.5084
20
-63.8675
11
72.4894
21
-63.7718
0
LINE
8
BLACK
6
CONTINUOUS
10
72.4894
20
-63.7718
11
72.4894
21
-62.8218
0
LINE
8
BLACK
6
CONTINUOUS
10
72.4894
20
-62.8218
11
72.5084
21
-62.7261
0
LINE
8
BLACK
6
CONTINUOUS
10
72.5084
20
-62.7261
11
72.5626
21
-62.645
0
LINE
8
BLACK
6
CONTINUOUS
10
72.5626
20
-62.645
11
72.6437
21
-62.5908
0
LINE
8
BLACK
6
CONTINUOUS
10
72.6437
20
-62.5908
11
72.7394
21
-62.5718
0
LINE
8
BLACK
6
CONTINUOUS
10
72.7394
20
-62.5718
11
73.2394
21
-62.5718
0
LINE
8
BLACK
6
CONTINUOUS
10
73.2394
20
-62.5718
11
73.3351
21
-62.5908
0
LINE
8
BLACK
6
CONTINUOUS
10
75.2351
20
-62.5908
11
75.3162
21
-62.645
0
LINE
8
BLACK
6
CONTINUOUS
10
75.3162
20
-62.645
11
75.3704
21
-62.7261
0
LINE
8
BLACK
6
CONTINUOUS
10
75.3704
20
-62.7261
11
75.3894
21
-62.8218
0
LINE
8
BLACK
6
CONTINUOUS
10
75.3894
20
-62.8218
11
75.3894
21
-63.7718
0
LINE
8
BLACK
6
CONTINUOUS
10
75.3894
20
-63.7718
11
75.3704
21
-63.8675
0
LINE
8
BLACK
6
CONTINUOUS
10
75.3704
20
-63.8675
11
75.3162
21
-63.9486
0
LINE
8
BLACK
6
CONTINUOUS
10
75.3162
20
-63.9486
11
75.2351
21
-64.0028
0
LINE
8
BLACK
6
CONTINUOUS
10
75.2351
20
-64.0028
11
75.1394
21
-64.0218
0
LINE
8
BLACK
6
CONTINUOUS
10
75.1394
20
-64.0218
11
74.6394
21
-64.0218
0
LINE
8
BLACK
6
CONTINUOUS
10
74.6394
20
-64.0218
11
74.5437
21
-64.0028
0
LINE
8
BLACK
6
CONTINUOUS
10
74.5437
20
-64.0028
11
74.4626
21
-63.9486
0
LINE
8
BLACK
6
CONTINUOUS
10
74.4626
20
-63.9486
11
74.4084
21
-63.8675
0
LINE
8
BLACK
6
CONTINUOUS
10
74.4084
20
-63.8675
11
74.3894
21
-63.7718
0
LINE
8
BLACK
6
CONTINUOUS
10
74.3894
20
-63.7718
11
74.3894
21
-62.8218
0
LINE
8
BLACK
6
CONTINUOUS
10
74.3894
20
-62.8218
11
74.4084
21
-62.7261
0
LINE
8
BLACK
6
CONTINUOUS
10
74.4084
20
-62.7261
11
74.4626
21
-62.645
0
LINE
8
BLACK
6
CONTINUOUS
10
74.4626
20
-62.645
11
74.5437
21
-62.5908
0
LINE
8
BLACK
6
CONTINUOUS
10
74.5437
20
-62.5908
11
74.6394
21
-62.5718
0
LINE
8
BLACK
6
CONTINUOUS
10
74.6394
20
-62.5718
11
75.1394
21
-62.5718
0
LINE
8
BLACK
6
CONTINUOUS
10
75.1394
20
-62.5718
11
75.2351
21
-62.5908
0
LINE
8
BLACK
6
CONTINUOUS
10
97.0325
20
-62.057
11
97.1136
21
-62.1112
0
LINE
8
BLACK
6
CONTINUOUS
10
97.1136
20
-62.1112
11
97.1678
21
-62.1923
0
LINE
8
BLACK
6
CONTINUOUS
10
97.1678
20
-62.1923
11
97.1868
21
-62.288
0
LINE
8
BLACK
6
CONTINUOUS
10
97.1868
20
-62.288
11
97.1868
21
-63.188
0
LINE
8
BLACK
6
CONTINUOUS
10
97.1868
20
-63.188
11
97.1678
21
-63.2837
0
LINE
8
BLACK
6
CONTINUOUS
10
97.1678
20
-63.2837
11
97.1136
21
-63.3648
0
LINE
8
BLACK
6
CONTINUOUS
10
97.1136
20
-63.3648
11
97.0325
21
-63.419
0
LINE
8
BLACK
6
CONTINUOUS
10
97.0325
20
-63.419
11
96.9368
21
-63.438
0
LINE
8
BLACK
6
CONTINUOUS
10
96.9368
20
-63.438
11
96.4118
21
-63.438
0
LINE
8
BLACK
6
CONTINUOUS
10
96.4118
20
-63.438
11
96.3161
21
-63.419
0
LINE
8
BLACK
6
CONTINUOUS
10
96.3161
20
-63.419
11
96.235
21
-63.3648
0
LINE
8
BLACK
6
CONTINUOUS
10
96.235
20
-63.3648
11
96.1808
21
-63.2837
0
LINE
8
BLACK
6
CONTINUOUS
10
96.1808
20
-63.2837
11
96.1618
21
-63.188
0
LINE
8
BLACK
6
CONTINUOUS
10
96.1618
20
-63.188
11
96.1618
21
-62.288
0
LINE
8
BLACK
6
CONTINUOUS
10
96.1618
20
-62.288
11
96.1808
21
-62.1923
0
LINE
8
BLACK
6
CONTINUOUS
10
96.1808
20
-62.1923
11
96.235
21
-62.1112
0
LINE
8
BLACK
6
CONTINUOUS
10
96.235
20
-62.1112
11
96.3161
21
-62.057
0
LINE
8
BLACK
6
CONTINUOUS
10
96.3161
20
-62.057
11
96.4118
21
-62.038
0
LINE
8
BLACK
6
CONTINUOUS
10
96.4118
20
-62.038
11
96.9368
21
-62.038
0
LINE
8
BLACK
6
CONTINUOUS
10
96.9368
20
-62.038
11
97.0325
21
-62.057
0
LINE
8
BLACK
6
CONTINUOUS
10
98.8575
20
-62.057
11
98.9386
21
-62.1112
0
LINE
8
BLACK
6
CONTINUOUS
10
98.9386
20
-62.1112
11
98.9928
21
-62.1923
0
LINE
8
BLACK
6
CONTINUOUS
10
98.9928
20
-62.1923
11
99.0118
21
-62.288
0
LINE
8
BLACK
6
CONTINUOUS
10
99.0118
20
-62.288
11
99.0118
21
-63.188
0
LINE
8
BLACK
6
CONTINUOUS
10
99.0118
20
-63.188
11
98.9928
21
-63.2837
0
LINE
8
BLACK
6
CONTINUOUS
10
98.9928
20
-63.2837
11
98.9386
21
-63.3648
0
LINE
8
BLACK
6
CONTINUOUS
10
98.9386
20
-63.3648
11
98.8575
21
-63.419
0
LINE
8
BLACK
6
CONTINUOUS
10
98.8575
20
-63.419
11
98.7618
21
-63.438
0
LINE
8
BLACK
6
CONTINUOUS
10
98.7618
20
-63.438
11
98.2368
21
-63.438
0
LINE
8
BLACK
6
CONTINUOUS
10
98.2368
20
-63.438
11
98.1411
21
-63.419
0
LINE
8
BLACK
6
CONTINUOUS
10
98.1411
20
-63.419
11
98.06
21
-63.3648
0
LINE
8
BLACK
6
CONTINUOUS
10
98.06
20
-63.3648
11
98.0058
21
-63.2837
0
LINE
8
BLACK
6
CONTINUOUS
10
98.0058
20
-63.2837
11
97.9868
21
-63.188
0
LINE
8
BLACK
6
CONTINUOUS
10
97.9868
20
-63.188
11
97.9868
21
-62.288
0
LINE
8
BLACK
6
CONTINUOUS
10
97.9868
20
-62.288
11
98.0058
21
-62.1923
0
LINE
8
BLACK
6
CONTINUOUS
10
98.0058
20
-62.1923
11
98.06
21
-62.1112
0
LINE
8
BLACK
6
CONTINUOUS
10
98.06
20
-62.1112
11
98.1411
21
-62.057
0
LINE
8
BLACK
6
CONTINUOUS
10
98.1411
20
-62.057
11
98.2368
21
-62.038
0
LINE
8
BLACK
6
CONTINUOUS
10
98.2368
20
-62.038
11
98.7618
21
-62.038
0
LINE
8
BLACK
6
CONTINUOUS
10
98.7618
20
-62.038
11
98.8575
21
-62.057
0
LINE
8
BLACK
6
CONTINUOUS
10
71.8928
20
-60.8492
11
71.9415
21
-60.8817
0
LINE
8
BLACK
6
CONTINUOUS
10
71.9415
20
-60.8817
11
71.974
21
-60.9304
0
LINE
8
BLACK
6
CONTINUOUS
10
71.974
20
-60.9304
11
71.9854
21
-60.9878
0
LINE
8
BLACK
6
CONTINUOUS
10
71.9854
20
-60.9878
11
71.9854
21
-61.2878
0
LINE
8
BLACK
6
CONTINUOUS
10
71.9854
20
-61.2878
11
71.974
21
-61.3452
0
LINE
8
BLACK
6
CONTINUOUS
10
71.974
20
-61.3452
11
71.9415
21
-61.3939
0
LINE
8
BLACK
6
CONTINUOUS
10
71.9415
20
-61.3939
11
71.8928
21
-61.4264
0
LINE
8
BLACK
6
CONTINUOUS
10
71.8928
20
-61.4264
11
71.8354
21
-61.4378
0
LINE
8
BLACK
6
CONTINUOUS
10
71.8354
20
-61.4378
11
70.3854
21
-61.4378
0
LINE
8
BLACK
6
CONTINUOUS
10
70.3854
20
-61.4378
11
70.328
21
-61.4264
0
LINE
8
BLACK
6
CONTINUOUS
10
70.328
20
-61.4264
11
70.2793
21
-61.3939
0
LINE
8
BLACK
6
CONTINUOUS
10
70.2793
20
-61.3939
11
70.2468
21
-61.3452
0
LINE
8
BLACK
6
CONTINUOUS
10
70.2468
20
-61.3452
11
70.2354
21
-61.2878
0
LINE
8
BLACK
6
CONTINUOUS
10
70.2354
20
-61.2878
11
70.2354
21
-60.9878
0
LINE
8
BLACK
6
CONTINUOUS
10
70.2354
20
-60.9878
11
70.2468
21
-60.9304
0
LINE
8
BLACK
6
CONTINUOUS
10
70.2468
20
-60.9304
11
70.2793
21
-60.8817
0
LINE
8
BLACK
6
CONTINUOUS
10
70.2793
20
-60.8817
11
70.328
21
-60.8492
0
LINE
8
BLACK
6
CONTINUOUS
10
70.328
20
-60.8492
11
70.3854
21
-60.8378
0
LINE
8
BLACK
6
CONTINUOUS
10
70.3854
20
-60.8378
11
71.8354
21
-60.8378
0
LINE
8
BLACK
6
CONTINUOUS
10
71.8354
20
-60.8378
11
71.8928
21
-60.8492
0
LINE
8
BLACK
6
CONTINUOUS
10
77.0428
20
-60.8492
11
77.0915
21
-60.8817
0
LINE
8
BLACK
6
CONTINUOUS
10
77.0915
20
-60.8817
11
77.124
21
-60.9304
0
LINE
8
BLACK
6
CONTINUOUS
10
77.124
20
-60.9304
11
77.1354
21
-60.9878
0
LINE
8
BLACK
6
CONTINUOUS
10
77.1354
20
-60.9878
11
77.1354
21
-61.2878
0
LINE
8
BLACK
6
CONTINUOUS
10
77.1354
20
-61.2878
11
77.124
21
-61.3452
0
LINE
8
BLACK
6
CONTINUOUS
10
77.124
20
-61.3452
11
77.0915
21
-61.3939
0
LINE
8
BLACK
6
CONTINUOUS
10
77.0915
20
-61.3939
11
77.0428
21
-61.4264
0
LINE
8
BLACK
6
CONTINUOUS
10
77.0428
20
-61.4264
11
76.9854
21
-61.4378
0
LINE
8
BLACK
6
CONTINUOUS
10
76.9854
20
-61.4378
11
75.5354
21
-61.4378
0
LINE
8
BLACK
6
CONTINUOUS
10
75.5354
20
-61.4378
11
75.478
21
-61.4264
0
LINE
8
BLACK
6
CONTINUOUS
10
75.478
20
-61.4264
11
75.4293
21
-61.3939
0
LINE
8
BLACK
6
CONTINUOUS
10
75.4293
20
-61.3939
11
75.3968
21
-61.3452
0
LINE
8
BLACK
6
CONTINUOUS
10
75.3968
20
-61.3452
11
75.3854
21
-61.2878
0
LINE
8
BLACK
6
CONTINUOUS
10
75.3854
20
-61.2878
11
75.3854
21
-60.9878
0
LINE
8
BLACK
6
CONTINUOUS
10
75.3854
20
-60.9878
11
75.3968
21
-60.9304
0
LINE
8
BLACK
6
CONTINUOUS
10
75.3968
20
-60.9304
11
75.4293
21
-60.8817
0
LINE
8
BLACK
6
CONTINUOUS
10
75.4293
20
-60.8817
11
75.478
21
-60.8492
0
LINE
8
BLACK
6
CONTINUOUS
10
75.478
20
-60.8492
11
75.5354
21
-60.8378
0
LINE
8
BLACK
6
CONTINUOUS
10
75.5354
20
-60.8378
11
76.9854
21
-60.8378
0
LINE
8
BLACK
6
CONTINUOUS
10
76.9854
20
-60.8378
11
77.0428
21
-60.8492
0
LINE
8
BLACK
6
CONTINUOUS
10
71.8928
20
-59.5792
11
71.9415
21
-59.6117
0
LINE
8
BLACK
6
CONTINUOUS
10
71.9415
20
-59.6117
11
71.974
21
-59.6604
0
LINE
8
BLACK
6
CONTINUOUS
10
71.974
20
-59.6604
11
71.9854
21
-59.7178
0
LINE
8
BLACK
6
CONTINUOUS
10
71.9854
20
-59.7178
11
71.9854
21
-60.0178
0
LINE
8
BLACK
6
CONTINUOUS
10
71.9854
20
-60.0178
11
71.974
21
-60.0752
0
LINE
8
BLACK
6
CONTINUOUS
10
71.974
20
-60.0752
11
71.9415
21
-60.1239
0
LINE
8
BLACK
6
CONTINUOUS
10
71.9415
20
-60.1239
11
71.8928
21
-60.1564
0
LINE
8
BLACK
6
CONTINUOUS
10
71.8928
20
-60.1564
11
71.8354
21
-60.1678
0
LINE
8
BLACK
6
CONTINUOUS
10
71.8354
20
-60.1678
11
70.3854
21
-60.1678
0
LINE
8
BLACK
6
CONTINUOUS
10
70.3854
20
-60.1678
11
70.328
21
-60.1564
0
LINE
8
BLACK
6
CONTINUOUS
10
70.328
20
-60.1564
11
70.2793
21
-60.1239
0
LINE
8
BLACK
6
CONTINUOUS
10
70.2793
20
-60.1239
11
70.2468
21
-60.0752
0
LINE
8
BLACK
6
CONTINUOUS
10
70.2468
20
-60.0752
11
70.2354
21
-60.0178
0
LINE
8
BLACK
6
CONTINUOUS
10
70.2354
20
-60.0178
11
70.2354
21
-59.7178
0
LINE
8
BLACK
6
CONTINUOUS
10
70.2354
20
-59.7178
11
70.2468
21
-59.6604
0
LINE
8
BLACK
6
CONTINUOUS
10
70.2468
20
-59.6604
11
70.2793
21
-59.6117
0
LINE
8
BLACK
6
CONTINUOUS
10
70.2793
20
-59.6117
11
70.328
21
-59.5792
0
LINE
8
BLACK
6
CONTINUOUS
10
70.328
20
-59.5792
11
70.3854
21
-59.5678
0
LINE
8
BLACK
6
CONTINUOUS
10
70.3854
20
-59.5678
11
71.8354
21
-59.5678
0
LINE
8
BLACK
6
CONTINUOUS
10
71.8354
20
-59.5678
11
71.8928
21
-59.5792
0
LINE
8
BLACK
6
CONTINUOUS
10
77.0428
20
-59.5792
11
77.0915
21
-59.6117
0
LINE
8
BLACK
6
CONTINUOUS
10
77.0915
20
-59.6117
11
77.124
21
-59.6604
0
LINE
8
BLACK
6
CONTINUOUS
10
77.124
20
-59.6604
11
77.1354
21
-59.7178
0
LINE
8
BLACK
6
CONTINUOUS
10
77.1354
20
-59.7178
11
77.1354
21
-60.0178
0
LINE
8
BLACK
6
CONTINUOUS
10
77.1354
20
-60.0178
11
77.124
21
-60.0752
0
LINE
8
BLACK
6
CONTINUOUS
10
77.124
20
-60.0752
11
77.0915
21
-60.1239
0
LINE
8
BLACK
6
CONTINUOUS
10
77.0915
20
-60.1239
11
77.0428
21
-60.1564
0
LINE
8
BLACK
6
CONTINUOUS
10
77.0428
20
-60.1564
11
76.9854
21
-60.1678
0
LINE
8
BLACK
6
CONTINUOUS
10
76.9854
20
-60.1678
11
75.5354
21
-60.1678
0
LINE
8
BLACK
6
CONTINUOUS
10
75.5354
20
-60.1678
11
75.478
21
-60.1564
0
LINE
8
BLACK
6
CONTINUOUS
10
75.478
20
-60.1564
11
75.4293
21
-60.1239
0
LINE
8
BLACK
6
CONTINUOUS
10
75.4293
20
-60.1239
11
75.3968
21
-60.0752
0
LINE
8
BLACK
6
CONTINUOUS
10
75.3968
20
-60.0752
11
75.3854
21
-60.0178
0
LINE
8
BLACK
6
CONTINUOUS
10
75.3854
20
-60.0178
11
75.3854
21
-59.7178
0
LINE
8
BLACK
6
CONTINUOUS
10
75.3854
20
-59.7178
11
75.3968
21
-59.6604
0
LINE
8
BLACK
6
CONTINUOUS
10
75.3968
20
-59.6604
11
75.4293
21
-59.6117
0
LINE
8
BLACK
6
CONTINUOUS
10
75.4293
20
-59.6117
11
75.478
21
-59.5792
0
LINE
8
BLACK
6
CONTINUOUS
10
75.478
20
-59.5792
11
75.5354
21
-59.5678
0
LINE
8
BLACK
6
CONTINUOUS
10
75.5354
20
-59.5678
11
76.9854
21
-59.5678
0
LINE
8
BLACK
6
CONTINUOUS
10
76.9854
20
-59.5678
11
77.0428
21
-59.5792
0
LINE
8
BLACK
6
CONTINUOUS
10
71.8928
20
-58.3092
11
71.9415
21
-58.3417
0
LINE
8
BLACK
6
CONTINUOUS
10
71.9415
20
-58.3417
11
71.974
21
-58.3904
0
LINE
8
BLACK
6
CONTINUOUS
10
71.974
20
-58.3904
11
71.9854
21
-58.4478
0
LINE
8
BLACK
6
CONTINUOUS
10
71.9854
20
-58.4478
11
71.9854
21
-58.7478
0
LINE
8
BLACK
6
CONTINUOUS
10
71.9854
20
-58.7478
11
71.974
21
-58.8052
0
LINE
8
BLACK
6
CONTINUOUS
10
71.974
20
-58.8052
11
71.9415
21
-58.8539
0
LINE
8
BLACK
6
CONTINUOUS
10
71.9415
20
-58.8539
11
71.8928
21
-58.8864
0
LINE
8
BLACK
6
CONTINUOUS
10
71.8928
20
-58.8864
11
71.8354
21
-58.8978
0
LINE
8
BLACK
6
CONTINUOUS
10
71.8354
20
-58.8978
11
70.3854
21
-58.8978
0
LINE
8
BLACK
6
CONTINUOUS
10
70.3854
20
-58.8978
11
70.328
21
-58.8864
0
LINE
8
BLACK
6
CONTINUOUS
10
70.328
20
-58.8864
11
70.2793
21
-58.8539
0
LINE
8
BLACK
6
CONTINUOUS
10
70.2793
20
-58.8539
11
70.2468
21
-58.8052
0
LINE
8
BLACK
6
CONTINUOUS
10
70.2468
20
-58.8052
11
70.2354
21
-58.7478
0
LINE
8
BLACK
6
CONTINUOUS
10
70.2354
20
-58.7478
11
70.2354
21
-58.4478
0
LINE
8
BLACK
6
CONTINUOUS
10
70.2354
20
-58.4478
11
70.2468
21
-58.3904
0
LINE
8
BLACK
6
CONTINUOUS
10
70.2468
20
-58.3904
11
70.2793
21
-58.3417
0
LINE
8
BLACK
6
CONTINUOUS
10
70.2793
20
-58.3417
11
70.328
21
-58.3092
0
LINE
8
BLACK
6
CONTINUOUS
10
70.328
20
-58.3092
11
70.3854
21
-58.2978
0
LINE
8
BLACK
6
CONTINUOUS
10
70.3854
20
-58.2978
11
71.8354
21
-58.2978
0
LINE
8
BLACK
6
CONTINUOUS
10
71.8354
20
-58.2978
11
71.8928
21
-58.3092
0
LINE
8
BLACK
6
CONTINUOUS
10
77.0428
20
-58.3092
11
77.0915
21
-58.3417
0
LINE
8
BLACK
6
CONTINUOUS
10
77.0915
20
-58.3417
11
77.124
21
-58.3904
0
LINE
8
BLACK
6
CONTINUOUS
10
77.124
20
-58.3904
11
77.1354
21
-58.4478
0
LINE
8
BLACK
6
CONTINUOUS
10
77.1354
20
-58.4478
11
77.1354
21
-58.7478
0
LINE
8
BLACK
6
CONTINUOUS
10
77.1354
20
-58.7478
11
77.124
21
-58.8052
0
LINE
8
BLACK
6
CONTINUOUS
10
77.124
20
-58.8052
11
77.0915
21
-58.8539
0
LINE
8
BLACK
6
CONTINUOUS
10
77.0915
20
-58.8539
11
77.0428
21
-58.8864
0
LINE
8
BLACK
6
CONTINUOUS
10
77.0428
20
-58.8864
11
76.9854
21
-58.8978
0
LINE
8
BLACK
6
CONTINUOUS
10
76.9854
20
-58.8978
11
75.5354
21
-58.8978
0
LINE
8
BLACK
6
CONTINUOUS
10
75.5354
20
-58.8978
11
75.478
21
-58.8864
0
LINE
8
BLACK
6
CONTINUOUS
10
75.478
20
-58.8864
11
75.4293
21
-58.8539
0
LINE
8
BLACK
6
CONTINUOUS
10
75.4293
20
-58.8539
11
75.3968
21
-58.8052
0
LINE
8
BLACK
6
CONTINUOUS
10
75.3968
20
-58.8052
11
75.3854
21
-58.7478
0
LINE
8
BLACK
6
CONTINUOUS
10
75.3854
20
-58.7478
11
75.3854
21
-58.4478
0
LINE
8
BLACK
6
CONTINUOUS
10
75.3854
20
-58.4478
11
75.3968
21
-58.3904
0
LINE
8
BLACK
6
CONTINUOUS
10
75.3968
20
-58.3904
11
75.4293
21
-58.3417
0
LINE
8
BLACK
6
CONTINUOUS
10
75.4293
20
-58.3417
11
75.478
21
-58.3092
0
LINE
8
BLACK
6
CONTINUOUS
10
75.478
20
-58.3092
11
75.5354
21
-58.2978
0
LINE
8
BLACK
6
CONTINUOUS
10
75.5354
20
-58.2978
11
76.9854
21
-58.2978
0
LINE
8
BLACK
6
CONTINUOUS
10
76.9854
20
-58.2978
11
77.0428
21
-58.3092
0
LINE
8
BLACK
6
CONTINUOUS
10
71.8928
20
-57.0392
11
71.9415
21
-57.0717
0
LINE
8
BLACK
6
CONTINUOUS
10
71.9415
20
-57.0717
11
71.974
21
-57.1204
0
LINE
8
BLACK
6
CONTINUOUS
10
71.974
20
-57.1204
11
71.9854
21
-57.1778
0
LINE
8
BLACK
6
CONTINUOUS
10
71.9854
20
-57.1778
11
71.9854
21
-57.4778
0
LINE
8
BLACK
6
CONTINUOUS
10
71.9854
20
-57.4778
11
71.974
21
-57.5352
0
LINE
8
BLACK
6
CONTINUOUS
10
71.974
20
-57.5352
11
71.9415
21
-57.5839
0
LINE
8
BLACK
6
CONTINUOUS
10
71.9415
20
-57.5839
11
71.8928
21
-57.6164
0
LINE
8
BLACK
6
CONTINUOUS
10
71.8928
20
-57.6164
11
71.8354
21
-57.6278
0
LINE
8
BLACK
6
CONTINUOUS
10
71.8354
20
-57.6278
11
70.3854
21
-57.6278
0
LINE
8
BLACK
6
CONTINUOUS
10
70.3854
20
-57.6278
11
70.328
21
-57.6164
0
LINE
8
BLACK
6
CONTINUOUS
10
70.328
20
-57.6164
11
70.2793
21
-57.5839
0
LINE
8
BLACK
6
CONTINUOUS
10
70.2793
20
-57.5839
11
70.2468
21
-57.5352
0
LINE
8
BLACK
6
CONTINUOUS
10
70.2468
20
-57.5352
11
70.2354
21
-57.4778
0
LINE
8
BLACK
6
CONTINUOUS
10
70.2354
20
-57.4778
11
70.2354
21
-57.1778
0
LINE
8
BLACK
6
CONTINUOUS
10
70.2354
20
-57.1778
11
70.2468
21
-57.1204
0
LINE
8
BLACK
6
CONTINUOUS
10
70.2468
20
-57.1204
11
70.2793
21
-57.0717
0
LINE
8
BLACK
6
CONTINUOUS
10
70.2793
20
-57.0717
11
70.328
21
-57.0392
0
LINE
8
BLACK
6
CONTINUOUS
10
70.328
20
-57.0392
11
70.3854
21
-57.0278
0
LINE
8
BLACK
6
CONTINUOUS
10
70.3854
20
-57.0278
11
71.8354
21
-57.0278
0
LINE
8
BLACK
6
CONTINUOUS
10
71.8354
20
-57.0278
11
71.8928
21
-57.0392
0
LINE
8
BLACK
6
CONTINUOUS
10
77.0428
20
-57.0392
11
77.0915
21
-57.0717
0
LINE
8
BLACK
6
CONTINUOUS
10
77.0915
20
-57.0717
11
77.124
21
-57.1204
0
LINE
8
BLACK
6
CONTINUOUS
10
77.124
20
-57.1204
11
77.1354
21
-57.1778
0
LINE
8
BLACK
6
CONTINUOUS
10
77.1354
20
-57.1778
11
77.1354
21
-57.4778
0
LINE
8
BLACK
6
CONTINUOUS
10
77.1354
20
-57.4778
11
77.124
21
-57.5352
0
LINE
8
BLACK
6
CONTINUOUS
10
77.124
20
-57.5352
11
77.0915
21
-57.5839
0
LINE
8
BLACK
6
CONTINUOUS
10
77.0915
20
-57.5839
11
77.0428
21
-57.6164
0
LINE
8
BLACK
6
CONTINUOUS
10
77.0428
20
-57.6164
11
76.9854
21
-57.6278
0
LINE
8
BLACK
6
CONTINUOUS
10
76.9854
20
-57.6278
11
75.5354
21
-57.6278
0
LINE
8
BLACK
6
CONTINUOUS
10
75.5354
20
-57.6278
11
75.478
21
-57.6164
0
LINE
8
BLACK
6
CONTINUOUS
10
75.478
20
-57.6164
11
75.4293
21
-57.5839
0
LINE
8
BLACK
6
CONTINUOUS
10
75.4293
20
-57.5839
11
75.3968
21
-57.5352
0
LINE
8
BLACK
6
CONTINUOUS
10
75.3968
20
-57.5352
11
75.3854
21
-57.4778
0
LINE
8
BLACK
6
CONTINUOUS
10
75.3854
20
-57.4778
11
75.3854
21
-57.1778
0
LINE
8
BLACK
6
CONTINUOUS
10
75.3854
20
-57.1778
11
75.3968
21
-57.1204
0
LINE
8
BLACK
6
CONTINUOUS
10
75.3968
20
-57.1204
11
75.4293
21
-57.0717
0
LINE
8
BLACK
6
CONTINUOUS
10
75.4293
20
-57.0717
11
75.478
21
-57.0392
0
LINE
8
BLACK
6
CONTINUOUS
10
75.478
20
-57.0392
11
75.5354
21
-57.0278
0
LINE
8
BLACK
6
CONTINUOUS
10
75.5354
20
-57.0278
11
76.9854
21
-57.0278
0
LINE
8
BLACK
6
CONTINUOUS
10
76.9854
20
-57.0278
11
77.0428
21
-57.0392
0
LINE
8
BLACK
6
CONTINUOUS
10
93.7546
20
-57.4656
11
91.2546
21
-57.4656
0
LINE
8
BLACK
6
CONTINUOUS
10
91.2546
20
-57.4656
11
91.2546
21
-52.4656
0
LINE
8
BLACK
6
CONTINUOUS
10
91.2546
20
-52.4656
11
93.7546
21
-52.4656
0
LINE
8
BLACK
6
CONTINUOUS
10
93.7546
20
-52.4656
11
93.7546
21
-57.4656
0
LINE
8
BLACK
6
CONTINUOUS
10
83.9546
20
-57.4656
11
81.4546
21
-57.4656
0
LINE
8
BLACK
6
CONTINUOUS
10
81.4546
20
-57.4656
11
81.4546
21
-52.4656
0
LINE
8
BLACK
6
CONTINUOUS
10
81.4546
20
-52.4656
11
83.9546
21
-52.4656
0
LINE
8
BLACK
6
CONTINUOUS
10
83.9546
20
-52.4656
11
83.9546
21
-57.4656
0
LINE
8
BLACK
6
CONTINUOUS
10
77.4786
20
-54.208
11
75.3786
21
-54.208
0
LINE
8
BLACK
6
CONTINUOUS
10
75.3786
20
-54.208
11
75.3786
21
-52.808
0
LINE
8
BLACK
6
CONTINUOUS
10
75.3786
20
-52.808
11
77.4786
21
-52.808
0
LINE
8
BLACK
6
CONTINUOUS
10
77.4786
20
-52.808
11
77.4786
21
-54.208
0
LINE
8
BLACK
6
CONTINUOUS
10
77.4786
20
-49.808
11
75.3786
21
-49.808
0
LINE
8
BLACK
6
CONTINUOUS
10
75.3786
20
-49.808
11
75.3786
21
-48.408
0
LINE
8
BLACK
6
CONTINUOUS
10
75.3786
20
-48.408
11
77.4786
21
-48.408
0
LINE
8
BLACK
6
CONTINUOUS
10
77.4786
20
-48.408
11
77.4786
21
-49.808
  0
ENDSEC
  0
EOF
