G04 #@! TF.GenerationSoftware,KiCad,Pcbnew,(6.0.0)*
G04 #@! TF.CreationDate,2022-01-15T11:07:55-08:00*
G04 #@! TF.ProjectId,5V Buck Converter,35562042-7563-46b2-9043-6f6e76657274,rev?*
G04 #@! TF.SameCoordinates,Original*
G04 #@! TF.FileFunction,Legend,Bot*
G04 #@! TF.FilePolarity,Positive*
%FSLAX46Y46*%
G04 Gerber Fmt 4.6, Leading zero omitted, Abs format (unit mm)*
G04 Created by KiCad (PCBNEW (6.0.0)) date 2022-01-15 11:07:55*
%MOMM*%
%LPD*%
G01*
G04 APERTURE LIST*
%ADD10C,0.150000*%
%ADD11C,0.120000*%
G04 APERTURE END LIST*
D10*
X62647295Y-80573571D02*
X62504438Y-80621190D01*
X62456819Y-80668809D01*
X62409200Y-80764047D01*
X62409200Y-80906904D01*
X62456819Y-81002142D01*
X62504438Y-81049761D01*
X62599676Y-81097380D01*
X62980628Y-81097380D01*
X62980628Y-80097380D01*
X62647295Y-80097380D01*
X62552057Y-80145000D01*
X62504438Y-80192619D01*
X62456819Y-80287857D01*
X62456819Y-80383095D01*
X62504438Y-80478333D01*
X62552057Y-80525952D01*
X62647295Y-80573571D01*
X62980628Y-80573571D01*
X62123485Y-80097380D02*
X61552057Y-80097380D01*
X61837771Y-81097380D02*
X61837771Y-80097380D01*
X60790152Y-80430714D02*
X60790152Y-81097380D01*
X61028247Y-80049761D02*
X61266342Y-80764047D01*
X60647295Y-80764047D01*
X60075866Y-80097380D02*
X59980628Y-80097380D01*
X59885390Y-80145000D01*
X59837771Y-80192619D01*
X59790152Y-80287857D01*
X59742533Y-80478333D01*
X59742533Y-80716428D01*
X59790152Y-80906904D01*
X59837771Y-81002142D01*
X59885390Y-81049761D01*
X59980628Y-81097380D01*
X60075866Y-81097380D01*
X60171104Y-81049761D01*
X60218723Y-81002142D01*
X60266342Y-80906904D01*
X60313961Y-80716428D01*
X60313961Y-80478333D01*
X60266342Y-80287857D01*
X60218723Y-80192619D01*
X60171104Y-80145000D01*
X60075866Y-80097380D01*
X58790152Y-81097380D02*
X59361580Y-81097380D01*
X59075866Y-81097380D02*
X59075866Y-80097380D01*
X59171104Y-80240238D01*
X59266342Y-80335476D01*
X59361580Y-80383095D01*
X62520295Y-57992971D02*
X62377438Y-58040590D01*
X62329819Y-58088209D01*
X62282200Y-58183447D01*
X62282200Y-58326304D01*
X62329819Y-58421542D01*
X62377438Y-58469161D01*
X62472676Y-58516780D01*
X62853628Y-58516780D01*
X62853628Y-57516780D01*
X62520295Y-57516780D01*
X62425057Y-57564400D01*
X62377438Y-57612019D01*
X62329819Y-57707257D01*
X62329819Y-57802495D01*
X62377438Y-57897733D01*
X62425057Y-57945352D01*
X62520295Y-57992971D01*
X62853628Y-57992971D01*
X61996485Y-57516780D02*
X61425057Y-57516780D01*
X61710771Y-58516780D02*
X61710771Y-57516780D01*
X60663152Y-57850114D02*
X60663152Y-58516780D01*
X60901247Y-57469161D02*
X61139342Y-58183447D01*
X60520295Y-58183447D01*
X59948866Y-57516780D02*
X59853628Y-57516780D01*
X59758390Y-57564400D01*
X59710771Y-57612019D01*
X59663152Y-57707257D01*
X59615533Y-57897733D01*
X59615533Y-58135828D01*
X59663152Y-58326304D01*
X59710771Y-58421542D01*
X59758390Y-58469161D01*
X59853628Y-58516780D01*
X59948866Y-58516780D01*
X60044104Y-58469161D01*
X60091723Y-58421542D01*
X60139342Y-58326304D01*
X60186961Y-58135828D01*
X60186961Y-57897733D01*
X60139342Y-57707257D01*
X60091723Y-57612019D01*
X60044104Y-57564400D01*
X59948866Y-57516780D01*
X59234580Y-57612019D02*
X59186961Y-57564400D01*
X59091723Y-57516780D01*
X58853628Y-57516780D01*
X58758390Y-57564400D01*
X58710771Y-57612019D01*
X58663152Y-57707257D01*
X58663152Y-57802495D01*
X58710771Y-57945352D01*
X59282200Y-58516780D01*
X58663152Y-58516780D01*
D11*
X17083000Y-74772000D02*
X19583000Y-74772000D01*
X22193000Y-91212000D02*
X99473000Y-91212000D01*
X22193000Y-84212000D02*
X22193000Y-91212000D01*
X104583000Y-74772000D02*
X102083000Y-74772000D01*
X99473000Y-91212000D02*
X99473000Y-84212000D01*
X103333000Y-76022000D02*
X103333000Y-73522000D01*
X22193000Y-70332000D02*
X99473000Y-70332000D01*
X22193000Y-77332000D02*
X22193000Y-70352000D01*
X99473000Y-70332000D02*
X99473000Y-77332000D01*
X99473000Y-77332000D02*
X103833000Y-77332000D01*
X104583000Y-64062000D02*
X102083000Y-64062000D01*
X18333000Y-62812000D02*
X18333000Y-65312000D01*
X22193000Y-68502000D02*
X22193000Y-61502000D01*
X99473000Y-47622000D02*
X22193000Y-47622000D01*
X99473000Y-68502000D02*
X22193000Y-68502000D01*
X99473000Y-54622000D02*
X99473000Y-47622000D01*
X99473000Y-61502000D02*
X99473000Y-68482000D01*
X17083000Y-64062000D02*
X19583000Y-64062000D01*
X22193000Y-47622000D02*
X22193000Y-54622000D01*
X22193000Y-61502000D02*
X17833000Y-61502000D01*
M02*
