G04 #@! TF.GenerationSoftware,KiCad,Pcbnew,(6.0.0)*
G04 #@! TF.CreationDate,2022-01-14T11:59:59-08:00*
G04 #@! TF.ProjectId,5V Buck Converter,35562042-7563-46b2-9043-6f6e76657274,rev?*
G04 #@! TF.SameCoordinates,Original*
G04 #@! TF.FileFunction,Paste,Top*
G04 #@! TF.FilePolarity,Positive*
%FSLAX46Y46*%
G04 Gerber Fmt 4.6, Leading zero omitted, Abs format (unit mm)*
G04 Created by KiCad (PCBNEW (6.0.0)) date 2022-01-14 11:59:59*
%MOMM*%
%LPD*%
G01*
G04 APERTURE LIST*
G04 Aperture macros list*
%AMRoundRect*
0 Rectangle with rounded corners*
0 $1 Rounding radius*
0 $2 $3 $4 $5 $6 $7 $8 $9 X,Y pos of 4 corners*
0 Add a 4 corners polygon primitive as box body*
4,1,4,$2,$3,$4,$5,$6,$7,$8,$9,$2,$3,0*
0 Add four circle primitives for the rounded corners*
1,1,$1+$1,$2,$3*
1,1,$1+$1,$4,$5*
1,1,$1+$1,$6,$7*
1,1,$1+$1,$8,$9*
0 Add four rect primitives between the rounded corners*
20,1,$1+$1,$2,$3,$4,$5,0*
20,1,$1+$1,$4,$5,$6,$7,0*
20,1,$1+$1,$6,$7,$8,$9,0*
20,1,$1+$1,$8,$9,$2,$3,0*%
G04 Aperture macros list end*
%ADD10RoundRect,0.250000X0.250000X0.475000X-0.250000X0.475000X-0.250000X-0.475000X0.250000X-0.475000X0*%
%ADD11R,2.100000X1.400000*%
%ADD12RoundRect,0.243750X-0.243750X-0.456250X0.243750X-0.456250X0.243750X0.456250X-0.243750X0.456250X0*%
%ADD13R,2.500000X5.000000*%
%ADD14RoundRect,0.250000X0.262500X0.450000X-0.262500X0.450000X-0.262500X-0.450000X0.262500X-0.450000X0*%
%ADD15RoundRect,0.150000X0.725000X0.150000X-0.725000X0.150000X-0.725000X-0.150000X0.725000X-0.150000X0*%
%ADD16RoundRect,0.150000X-0.825000X-0.150000X0.825000X-0.150000X0.825000X0.150000X-0.825000X0.150000X0*%
%ADD17RoundRect,0.250000X0.475000X-0.250000X0.475000X0.250000X-0.475000X0.250000X-0.475000X-0.250000X0*%
%ADD18RoundRect,0.250000X-0.450000X0.262500X-0.450000X-0.262500X0.450000X-0.262500X0.450000X0.262500X0*%
%ADD19R,0.650000X2.000000*%
%ADD20R,0.553999X0.204000*%
%ADD21R,3.606800X2.387600*%
%ADD22RoundRect,0.250000X0.450000X-0.262500X0.450000X0.262500X-0.450000X0.262500X-0.450000X-0.262500X0*%
G04 APERTURE END LIST*
D10*
X98549500Y-67868800D03*
X96649500Y-67868800D03*
D11*
X76428600Y-53508000D03*
X76428600Y-49108000D03*
D12*
X96662000Y-65138300D03*
X98537000Y-65138300D03*
D13*
X82704600Y-54965600D03*
X92504600Y-54965600D03*
D14*
X98499300Y-62738000D03*
X96674300Y-62738000D03*
D15*
X76260400Y-61137800D03*
X76260400Y-59867800D03*
X76260400Y-58597800D03*
X76260400Y-57327800D03*
X71110400Y-57327800D03*
X71110400Y-58597800D03*
X71110400Y-59867800D03*
X71110400Y-61137800D03*
D10*
X74889400Y-63296800D03*
X72989400Y-63296800D03*
X80909200Y-83707000D03*
X79009200Y-83707000D03*
D16*
X88253800Y-75158600D03*
X88253800Y-76428600D03*
X88253800Y-77698600D03*
X88253800Y-78968600D03*
X93203800Y-78968600D03*
X93203800Y-77698600D03*
X93203800Y-76428600D03*
X93203800Y-75158600D03*
D17*
X79603600Y-71968400D03*
X79603600Y-70068400D03*
D14*
X84986500Y-77571600D03*
X83161500Y-77571600D03*
D18*
X63830200Y-79072100D03*
X63830200Y-80897100D03*
D19*
X61711800Y-76894000D03*
X63611800Y-76894000D03*
X62661800Y-73474000D03*
D11*
X67614800Y-76977600D03*
X67614800Y-72577600D03*
D20*
X76769100Y-81540200D03*
X76769100Y-81140201D03*
X76769100Y-80740199D03*
X76769100Y-80340200D03*
X76769100Y-79940201D03*
X76769100Y-79540199D03*
X76769100Y-79140200D03*
X71617700Y-79140200D03*
X71617700Y-79540199D03*
X71617700Y-79940201D03*
X71617700Y-80340200D03*
X71617700Y-80740199D03*
X71617700Y-81140201D03*
X71617700Y-81540200D03*
D21*
X74193400Y-80340200D03*
D18*
X61391800Y-79046700D03*
X61391800Y-80871700D03*
D14*
X84986500Y-79603600D03*
X83161500Y-79603600D03*
X84991500Y-83667600D03*
X83166500Y-83667600D03*
X84986500Y-75539600D03*
X83161500Y-75539600D03*
X84986500Y-81635600D03*
X83161500Y-81635600D03*
D18*
X77470000Y-70105900D03*
X77470000Y-71930900D03*
D22*
X82194400Y-71930900D03*
X82194400Y-70105900D03*
D17*
X75336400Y-71968400D03*
X75336400Y-70068400D03*
M02*
