M48
; DRILL file {KiCad (6.0.0)} date Sat Jan 15 11:08:03 2022
; FORMAT={-:-/ absolute / metric / decimal}
; #@! TF.CreationDate,2022-01-15T11:08:03-08:00
; #@! TF.GenerationSoftware,Kicad,Pcbnew,(6.0.0)
; #@! TF.FileFunction,MixedPlating,1,2
FMAT,2
METRIC
; #@! TA.AperFunction,Plated,PTH,ViaDrill
T1C0.400
; #@! TA.AperFunction,Plated,PTH,ComponentDrill
T2C0.750
; #@! TA.AperFunction,Plated,PTH,ComponentDrill
T3C0.800
; #@! TA.AperFunction,NonPlated,NPTH,ComponentDrill
T4C2.390
; #@! TA.AperFunction,NonPlated,NPTH,ComponentDrill
T5C3.450
%
G90
G05
T1
X17.653Y-46.99
X17.653Y-86.99
X20.153Y-51.99
X20.153Y-91.99
X22.653Y-46.99
X22.653Y-86.99
X25.153Y-51.99
X25.153Y-91.99
X27.653Y-46.99
X27.653Y-56.99
X27.653Y-66.99
X27.653Y-76.99
X27.653Y-86.99
X30.153Y-51.99
X30.153Y-61.99
X30.153Y-81.99
X30.153Y-91.99
X32.653Y-46.99
X32.653Y-56.99
X32.653Y-66.99
X32.653Y-76.99
X32.653Y-86.99
X35.153Y-51.99
X35.153Y-61.99
X35.153Y-81.99
X35.153Y-91.99
X37.653Y-46.99
X37.653Y-56.99
X37.653Y-66.99
X37.653Y-76.99
X37.653Y-86.99
X40.153Y-51.99
X40.153Y-61.99
X40.153Y-71.99
X40.153Y-81.99
X40.153Y-91.99
X42.653Y-46.99
X42.653Y-56.99
X42.653Y-66.99
X42.653Y-76.99
X42.653Y-86.99
X45.153Y-51.99
X45.153Y-61.99
X45.153Y-71.99
X45.153Y-81.99
X45.153Y-91.99
X47.653Y-46.99
X47.653Y-56.99
X47.653Y-66.99
X47.653Y-76.99
X47.653Y-86.99
X50.153Y-51.99
X50.153Y-61.99
X50.153Y-71.99
X50.153Y-81.99
X50.153Y-91.99
X52.653Y-46.99
X52.653Y-56.99
X52.653Y-66.99
X52.653Y-76.99
X52.653Y-86.99
X55.153Y-51.99
X55.153Y-61.99
X55.153Y-71.99
X55.153Y-81.99
X55.153Y-91.99
X57.653Y-46.99
X57.653Y-56.99
X57.653Y-66.99
X57.653Y-76.99
X57.653Y-86.99
X59.131Y-77.013
X59.131Y-81.991
X60.147Y-73.508
X60.153Y-51.99
X60.153Y-61.99
X60.153Y-71.99
X60.153Y-91.99
X62.636Y-85.446
X62.653Y-46.99
X62.653Y-56.99
X62.653Y-66.99
X62.653Y-86.99
X65.153Y-51.99
X65.153Y-61.99
X65.153Y-71.99
X65.153Y-91.99
X65.176Y-73.508
X67.564Y-74.803
X67.636Y-85.446
X67.653Y-46.99
X67.653Y-56.99
X67.653Y-66.99
X67.653Y-86.99
X68.555Y-80.975
X69.495Y-81.779
X70.153Y-51.99
X70.153Y-91.99
X70.16Y-72.0
X70.993Y-63.348
X72.636Y-85.446
X72.653Y-46.99
X72.653Y-86.99
X74.371Y-58.598
X75.013Y-75.235
X75.013Y-77.235
X75.153Y-91.99
X76.302Y-68.224
X77.013Y-75.235
X77.636Y-85.446
X77.653Y-46.99
X77.653Y-86.99
X77.978Y-67.056
X78.638Y-82.067
X79.604Y-48.489
X79.604Y-52.045
X79.65Y-75.19
X80.01Y-57.175
X80.01Y-60.731
X80.153Y-91.99
X80.29Y-77.58
X81.27Y-68.39
X82.327Y-63.094
X82.636Y-85.446
X82.653Y-46.99
X82.653Y-86.99
X83.16Y-73.812
X83.21Y-64.516
X85.153Y-91.99
X87.327Y-63.094
X87.636Y-85.446
X87.653Y-46.99
X90.153Y-91.99
X92.653Y-46.99
X92.653Y-86.99
X95.153Y-91.99
X95.733Y-52.756
X95.758Y-49.251
X96.647Y-69.723
X96.965Y-83.502
X97.028Y-78.105
X97.653Y-46.99
X97.653Y-86.99
X100.127Y-80.772
X100.153Y-51.99
X100.153Y-91.99
X102.653Y-46.99
X103.314Y-78.105
X103.378Y-83.439
X105.153Y-91.99
T2
X104.927Y-66.599
X104.927Y-68.599
X104.927Y-70.599
X104.927Y-72.599
T3
X103.835Y-49.722
X103.835Y-52.222
X103.835Y-86.766
X103.835Y-89.266
T4
X24.903Y-66.062
X96.763Y-72.772
T5
X33.233Y-50.062
X33.233Y-72.772
X88.433Y-66.062
X88.433Y-88.772
T0
M30
