M48
; DRILL file {KiCad (6.0.0)} date Fri Jan 14 12:00:02 2022
; FORMAT={-:-/ absolute / inch / decimal}
; #@! TF.CreationDate,2022-01-14T12:00:02-08:00
; #@! TF.GenerationSoftware,Kicad,Pcbnew,(6.0.0)
; #@! TF.FileFunction,MixedPlating,1,2
FMAT,2
INCH
; #@! TA.AperFunction,Plated,PTH,ViaDrill
T1C0.0157
; #@! TA.AperFunction,Plated,PTH,ComponentDrill
T2C0.0295
; #@! TA.AperFunction,Plated,PTH,ComponentDrill
T3C0.0315
; #@! TA.AperFunction,Plated,PTH,ComponentDrill
T4C0.0394
; #@! TA.AperFunction,NonPlated,NPTH,ComponentDrill
T5C0.0941
; #@! TA.AperFunction,NonPlated,NPTH,ComponentDrill
T6C0.1358
%
G90
G05
T1
X0.695Y-1.85
X0.695Y-3.4248
X0.7934Y-2.0469
X0.7934Y-3.6217
X0.8919Y-1.85
X0.8919Y-3.4248
X0.9903Y-2.0469
X0.9903Y-3.6217
X1.0887Y-1.85
X1.0887Y-2.2437
X1.0887Y-2.6374
X1.0887Y-3.0311
X1.0887Y-3.4248
X1.1871Y-2.0469
X1.1871Y-2.4406
X1.1871Y-3.228
X1.1871Y-3.6217
X1.2856Y-1.85
X1.2856Y-2.2437
X1.2856Y-2.6374
X1.2856Y-3.0311
X1.2856Y-3.4248
X1.384Y-2.0469
X1.384Y-2.4406
X1.384Y-3.228
X1.384Y-3.6217
X1.4824Y-1.85
X1.4824Y-2.2437
X1.4824Y-2.6374
X1.4824Y-3.0311
X1.4824Y-3.4248
X1.5808Y-2.0469
X1.5808Y-2.4406
X1.5808Y-2.8343
X1.5808Y-3.228
X1.5808Y-3.6217
X1.6793Y-1.85
X1.6793Y-2.2437
X1.6793Y-2.6374
X1.6793Y-3.0311
X1.6793Y-3.4248
X1.7777Y-2.0469
X1.7777Y-2.4406
X1.7777Y-2.8343
X1.7777Y-3.228
X1.7777Y-3.6217
X1.8761Y-1.85
X1.8761Y-2.2437
X1.8761Y-2.6374
X1.8761Y-3.0311
X1.8761Y-3.4248
X1.9745Y-2.0469
X1.9745Y-2.4406
X1.9745Y-2.8343
X1.9745Y-3.228
X1.9745Y-3.6217
X2.073Y-1.85
X2.073Y-2.2437
X2.073Y-2.6374
X2.073Y-3.0311
X2.073Y-3.4248
X2.1714Y-2.0469
X2.1714Y-2.4406
X2.1714Y-2.8343
X2.1714Y-3.228
X2.1714Y-3.6217
X2.2698Y-1.85
X2.2698Y-2.2437
X2.2698Y-2.6374
X2.2698Y-3.0311
X2.2698Y-3.4248
X2.328Y-3.032
X2.328Y-3.228
X2.368Y-2.894
X2.3682Y-2.0469
X2.3682Y-2.4406
X2.3682Y-2.8343
X2.3682Y-3.6217
X2.466Y-3.364
X2.4667Y-1.85
X2.4667Y-2.2437
X2.4667Y-2.6374
X2.4667Y-3.4248
X2.5651Y-2.0469
X2.5651Y-2.4406
X2.5651Y-2.8343
X2.5651Y-3.6217
X2.566Y-2.894
X2.66Y-2.945
X2.6629Y-3.364
X2.6635Y-1.85
X2.6635Y-2.2437
X2.6635Y-2.6374
X2.6635Y-3.4248
X2.699Y-3.188
X2.736Y-3.2197
X2.7619Y-2.0469
X2.7619Y-2.8343
X2.7619Y-3.6217
X2.795Y-2.494
X2.8597Y-3.364
X2.8604Y-1.85
X2.8604Y-3.4248
X2.928Y-2.307
X2.9533Y-2.962
X2.9533Y-3.0407
X2.9588Y-3.6217
X3.004Y-2.686
X3.032Y-2.962
X3.0566Y-3.364
X3.0572Y-1.85
X3.0572Y-3.4248
X3.07Y-2.64
X3.096Y-3.231
X3.134Y-1.909
X3.134Y-2.049
X3.1358Y-2.9602
X3.146Y-3.042
X3.15Y-2.251
X3.15Y-2.391
X3.1556Y-3.6217
X3.1996Y-2.6925
X3.2412Y-2.484
X3.2534Y-3.364
X3.2541Y-1.85
X3.2541Y-3.4248
X3.274Y-2.906
X3.276Y-2.54
X3.3525Y-3.6217
X3.4381Y-2.484
X3.4503Y-3.364
X3.4509Y-1.85
X3.5493Y-3.6217
X3.6478Y-1.85
X3.6478Y-3.4248
X3.7462Y-3.6217
X3.769Y-2.077
X3.77Y-1.939
X3.805Y-2.745
X3.8175Y-3.2875
X3.82Y-3.075
X3.8446Y-1.85
X3.8446Y-3.4248
X3.942Y-3.18
X3.943Y-2.0469
X3.943Y-3.6217
X4.0415Y-1.85
X4.0675Y-3.075
X4.07Y-3.285
X4.1399Y-3.6217
T2
X4.131Y-2.622
X4.131Y-2.7007
X4.131Y-2.7795
X4.131Y-2.8582
T3
X4.088Y-1.9576
X4.088Y-2.056
X4.088Y-3.416
X4.088Y-3.5144
T4
X2.826Y-2.6398
X2.826Y-2.9942
T5
X0.9804Y-2.6009
X3.8096Y-2.865
T6
X1.3084Y-1.9709
X1.3084Y-2.865
X3.4816Y-2.6009
X3.4816Y-3.495
T0
M30
