G04 #@! TF.GenerationSoftware,KiCad,Pcbnew,(6.0.0)*
G04 #@! TF.CreationDate,2022-01-15T11:07:55-08:00*
G04 #@! TF.ProjectId,5V Buck Converter,35562042-7563-46b2-9043-6f6e76657274,rev?*
G04 #@! TF.SameCoordinates,Original*
G04 #@! TF.FileFunction,Copper,L1,Top*
G04 #@! TF.FilePolarity,Positive*
%FSLAX46Y46*%
G04 Gerber Fmt 4.6, Leading zero omitted, Abs format (unit mm)*
G04 Created by KiCad (PCBNEW (6.0.0)) date 2022-01-15 11:07:55*
%MOMM*%
%LPD*%
G01*
G04 APERTURE LIST*
G04 Aperture macros list*
%AMRoundRect*
0 Rectangle with rounded corners*
0 $1 Rounding radius*
0 $2 $3 $4 $5 $6 $7 $8 $9 X,Y pos of 4 corners*
0 Add a 4 corners polygon primitive as box body*
4,1,4,$2,$3,$4,$5,$6,$7,$8,$9,$2,$3,0*
0 Add four circle primitives for the rounded corners*
1,1,$1+$1,$2,$3*
1,1,$1+$1,$4,$5*
1,1,$1+$1,$6,$7*
1,1,$1+$1,$8,$9*
0 Add four rect primitives between the rounded corners*
20,1,$1+$1,$2,$3,$4,$5,0*
20,1,$1+$1,$4,$5,$6,$7,0*
20,1,$1+$1,$6,$7,$8,$9,0*
20,1,$1+$1,$8,$9,$2,$3,0*%
G04 Aperture macros list end*
G04 #@! TA.AperFunction,ComponentPad*
%ADD10RoundRect,0.250000X-0.625000X0.350000X-0.625000X-0.350000X0.625000X-0.350000X0.625000X0.350000X0*%
G04 #@! TD*
G04 #@! TA.AperFunction,ComponentPad*
%ADD11O,1.750000X1.200000*%
G04 #@! TD*
G04 #@! TA.AperFunction,SMDPad,CuDef*
%ADD12RoundRect,0.250000X0.250000X0.475000X-0.250000X0.475000X-0.250000X-0.475000X0.250000X-0.475000X0*%
G04 #@! TD*
G04 #@! TA.AperFunction,SMDPad,CuDef*
%ADD13R,2.100000X1.400000*%
G04 #@! TD*
G04 #@! TA.AperFunction,SMDPad,CuDef*
%ADD14RoundRect,0.243750X-0.243750X-0.456250X0.243750X-0.456250X0.243750X0.456250X-0.243750X0.456250X0*%
G04 #@! TD*
G04 #@! TA.AperFunction,SMDPad,CuDef*
%ADD15R,2.500000X5.000000*%
G04 #@! TD*
G04 #@! TA.AperFunction,SMDPad,CuDef*
%ADD16RoundRect,0.250000X0.262500X0.450000X-0.262500X0.450000X-0.262500X-0.450000X0.262500X-0.450000X0*%
G04 #@! TD*
G04 #@! TA.AperFunction,SMDPad,CuDef*
%ADD17RoundRect,0.150000X0.725000X0.150000X-0.725000X0.150000X-0.725000X-0.150000X0.725000X-0.150000X0*%
G04 #@! TD*
G04 #@! TA.AperFunction,ComponentPad*
%ADD18R,1.600000X1.600000*%
G04 #@! TD*
G04 #@! TA.AperFunction,ComponentPad*
%ADD19C,1.600000*%
G04 #@! TD*
G04 #@! TA.AperFunction,SMDPad,CuDef*
%ADD20RoundRect,0.150000X-0.825000X-0.150000X0.825000X-0.150000X0.825000X0.150000X-0.825000X0.150000X0*%
G04 #@! TD*
G04 #@! TA.AperFunction,SMDPad,CuDef*
%ADD21RoundRect,0.250000X0.475000X-0.250000X0.475000X0.250000X-0.475000X0.250000X-0.475000X-0.250000X0*%
G04 #@! TD*
G04 #@! TA.AperFunction,SMDPad,CuDef*
%ADD22RoundRect,0.250000X-0.450000X0.262500X-0.450000X-0.262500X0.450000X-0.262500X0.450000X0.262500X0*%
G04 #@! TD*
G04 #@! TA.AperFunction,SMDPad,CuDef*
%ADD23R,1.500000X1.500000*%
G04 #@! TD*
G04 #@! TA.AperFunction,SMDPad,CuDef*
%ADD24RoundRect,0.250000X0.400000X0.625000X-0.400000X0.625000X-0.400000X-0.625000X0.400000X-0.625000X0*%
G04 #@! TD*
G04 #@! TA.AperFunction,SMDPad,CuDef*
%ADD25R,0.650000X2.000000*%
G04 #@! TD*
G04 #@! TA.AperFunction,SMDPad,CuDef*
%ADD26R,0.553999X0.204000*%
G04 #@! TD*
G04 #@! TA.AperFunction,SMDPad,CuDef*
%ADD27R,3.606800X2.387600*%
G04 #@! TD*
G04 #@! TA.AperFunction,SMDPad,CuDef*
%ADD28C,1.500000*%
G04 #@! TD*
G04 #@! TA.AperFunction,SMDPad,CuDef*
%ADD29RoundRect,0.250000X0.450000X-0.262500X0.450000X0.262500X-0.450000X0.262500X-0.450000X-0.262500X0*%
G04 #@! TD*
G04 #@! TA.AperFunction,ViaPad*
%ADD30C,0.800000*%
G04 #@! TD*
G04 #@! TA.AperFunction,Conductor*
%ADD31C,0.500000*%
G04 #@! TD*
G04 #@! TA.AperFunction,Conductor*
%ADD32C,0.152400*%
G04 #@! TD*
G04 #@! TA.AperFunction,Conductor*
%ADD33C,1.500000*%
G04 #@! TD*
G04 #@! TA.AperFunction,Conductor*
%ADD34C,0.250000*%
G04 #@! TD*
G04 #@! TA.AperFunction,Conductor*
%ADD35C,0.897604*%
G04 #@! TD*
G04 APERTURE END LIST*
D10*
X104927400Y-66598800D03*
D11*
X104927400Y-68598800D03*
X104927400Y-70598800D03*
X104927400Y-72598800D03*
D12*
X98549500Y-67868800D03*
X96649500Y-67868800D03*
D13*
X76428600Y-53508000D03*
X76428600Y-49108000D03*
D14*
X96662000Y-65138300D03*
X98537000Y-65138300D03*
D15*
X82704600Y-54965600D03*
X92504600Y-54965600D03*
D16*
X98499300Y-62738000D03*
X96674300Y-62738000D03*
D17*
X76260400Y-61137800D03*
X76260400Y-59867800D03*
X76260400Y-58597800D03*
X76260400Y-57327800D03*
X71110400Y-57327800D03*
X71110400Y-58597800D03*
X71110400Y-59867800D03*
X71110400Y-61137800D03*
D12*
X74889400Y-63296800D03*
X72989400Y-63296800D03*
D18*
X103835200Y-86766400D03*
D19*
X103835200Y-89266400D03*
D18*
X103835200Y-52222400D03*
D19*
X103835200Y-49722400D03*
D12*
X80909200Y-83707000D03*
X79009200Y-83707000D03*
D20*
X88253800Y-75158600D03*
X88253800Y-76428600D03*
X88253800Y-77698600D03*
X88253800Y-78968600D03*
X93203800Y-78968600D03*
X93203800Y-77698600D03*
X93203800Y-76428600D03*
X93203800Y-75158600D03*
D21*
X79603600Y-71968400D03*
X79603600Y-70068400D03*
D16*
X84986500Y-77571600D03*
X83161500Y-77571600D03*
D22*
X63830200Y-79072100D03*
X63830200Y-80897100D03*
D23*
X63957200Y-83642200D03*
D24*
X73300000Y-76040000D03*
X70200000Y-76040000D03*
D25*
X61711800Y-76894000D03*
X63611800Y-76894000D03*
X62661800Y-73474000D03*
D13*
X67614800Y-76977600D03*
X67614800Y-72577600D03*
D26*
X76769100Y-81540200D03*
X76769100Y-81140201D03*
X76769100Y-80740199D03*
X76769100Y-80340200D03*
X76769100Y-79940201D03*
X76769100Y-79540199D03*
X76769100Y-79140200D03*
X71617700Y-79140200D03*
X71617700Y-79540199D03*
X71617700Y-79940201D03*
X71617700Y-80340200D03*
X71617700Y-80740199D03*
X71617700Y-81140201D03*
X71617700Y-81540200D03*
D27*
X74193400Y-80340200D03*
D28*
X61061600Y-83667600D03*
D22*
X61391800Y-79046700D03*
X61391800Y-80871700D03*
D16*
X84986500Y-79603600D03*
X83161500Y-79603600D03*
X84991500Y-83667600D03*
X83166500Y-83667600D03*
X84986500Y-75539600D03*
X83161500Y-75539600D03*
X84986500Y-81635600D03*
X83161500Y-81635600D03*
D22*
X77470000Y-70105900D03*
X77470000Y-71930900D03*
D29*
X82194400Y-71930900D03*
X82194400Y-70105900D03*
D21*
X75336400Y-71968400D03*
X75336400Y-70068400D03*
D30*
X22653000Y-46990000D03*
X27653000Y-46990000D03*
X32653000Y-46990000D03*
X37653000Y-46990000D03*
X42653000Y-46990000D03*
X47653000Y-46990000D03*
X52653000Y-46990000D03*
X57653000Y-46990000D03*
X62653000Y-46990000D03*
X67653000Y-46990000D03*
X72653000Y-46990000D03*
X77653000Y-46990000D03*
X82653000Y-46990000D03*
X87653000Y-46990000D03*
X92653000Y-46990000D03*
X97653000Y-46990000D03*
X102653000Y-46990000D03*
X20153000Y-51990000D03*
X25153000Y-51990000D03*
X30153000Y-51990000D03*
X35153000Y-51990000D03*
X40153000Y-51990000D03*
X45153000Y-51990000D03*
X50153000Y-51990000D03*
X55153000Y-51990000D03*
X60153000Y-51990000D03*
X65153000Y-51990000D03*
X70153000Y-51990000D03*
X100153000Y-51990000D03*
X27653000Y-56990000D03*
X32653000Y-56990000D03*
X37653000Y-56990000D03*
X42653000Y-56990000D03*
X47653000Y-56990000D03*
X52653000Y-56990000D03*
X57653000Y-56990000D03*
X62653000Y-56990000D03*
X30153000Y-61990000D03*
X35153000Y-61990000D03*
X40153000Y-61990000D03*
X45153000Y-61990000D03*
X50153000Y-61990000D03*
X55153000Y-61990000D03*
X60153000Y-61990000D03*
X27653000Y-66990000D03*
X32653000Y-66990000D03*
X37653000Y-66990000D03*
X42653000Y-66990000D03*
X47653000Y-66990000D03*
X52653000Y-66990000D03*
X57653000Y-66990000D03*
X62653000Y-66990000D03*
X40153000Y-71990000D03*
X45153000Y-71990000D03*
X50153000Y-71990000D03*
X55153000Y-71990000D03*
X60153000Y-71990000D03*
X27653000Y-76990000D03*
X32653000Y-76990000D03*
X37653000Y-76990000D03*
X42653000Y-76990000D03*
X47653000Y-76990000D03*
X52653000Y-76990000D03*
X57653000Y-76990000D03*
X30153000Y-81990000D03*
X35153000Y-81990000D03*
X40153000Y-81990000D03*
X45153000Y-81990000D03*
X50153000Y-81990000D03*
X55153000Y-81990000D03*
X17653000Y-86990000D03*
X22653000Y-86990000D03*
X27653000Y-86990000D03*
X32653000Y-86990000D03*
X37653000Y-86990000D03*
X42653000Y-86990000D03*
X47653000Y-86990000D03*
X52653000Y-86990000D03*
X57653000Y-86990000D03*
X62653000Y-86990000D03*
X67653000Y-86990000D03*
X72653000Y-86990000D03*
X77653000Y-86990000D03*
X82653000Y-86990000D03*
X92653000Y-86990000D03*
X97653000Y-86990000D03*
X20153000Y-91990000D03*
X25153000Y-91990000D03*
X30153000Y-91990000D03*
X35153000Y-91990000D03*
X40153000Y-91990000D03*
X45153000Y-91990000D03*
X50153000Y-91990000D03*
X55153000Y-91990000D03*
X60153000Y-91990000D03*
X65153000Y-91990000D03*
X70153000Y-91990000D03*
X75153000Y-91990000D03*
X80153000Y-91990000D03*
X85153000Y-91990000D03*
X90153000Y-91990000D03*
X95153000Y-91990000D03*
X100153000Y-91990000D03*
X105153000Y-91990000D03*
X79603600Y-48488600D03*
X95732600Y-52755800D03*
X82326600Y-63093600D03*
X87326600Y-63093600D03*
X65153000Y-61990000D03*
X67653000Y-66990000D03*
X77978000Y-67056000D03*
X70160000Y-72000000D03*
X65153000Y-71990000D03*
X80010000Y-60731400D03*
X80010000Y-57175400D03*
X95758000Y-49250600D03*
X79603600Y-52044600D03*
X70993000Y-63347600D03*
X17653000Y-46990000D03*
X67653000Y-56990000D03*
X96647000Y-69723000D03*
X83210400Y-64516000D03*
X74371200Y-58597800D03*
X76301600Y-68224400D03*
X67564000Y-74803000D03*
X81270000Y-68390000D03*
X103314500Y-78105000D03*
X96964500Y-83502500D03*
X100126800Y-80772000D03*
X97028000Y-78105000D03*
X103378000Y-83439000D03*
X77636400Y-85445600D03*
X82636400Y-85445600D03*
X72636400Y-85445600D03*
X87636400Y-85445600D03*
X59131200Y-77012800D03*
X60147200Y-73507600D03*
X77012800Y-75234800D03*
X75012800Y-75234800D03*
X67636400Y-85445600D03*
X59131200Y-81991200D03*
X75012800Y-77234800D03*
X62636400Y-85445600D03*
X65176400Y-73507600D03*
X79650000Y-75190000D03*
X69495294Y-81779444D03*
X80290000Y-77580000D03*
X68554600Y-80975200D03*
X78638400Y-82067400D03*
X83159600Y-73812400D03*
D31*
X71069200Y-78943200D02*
X70200000Y-78074000D01*
D32*
X71266200Y-79140200D02*
X71617700Y-79140200D01*
D31*
X70200000Y-78074000D02*
X70200000Y-76040000D01*
D33*
X70153000Y-71990000D02*
X70153000Y-75993000D01*
D32*
X71069200Y-78943200D02*
X71266200Y-79140200D01*
D31*
X70153000Y-75993000D02*
X70200000Y-76040000D01*
X99834700Y-65138300D02*
X101295200Y-66598800D01*
D34*
X74371200Y-58597800D02*
X76260400Y-58597800D01*
D31*
X87196270Y-68478400D02*
X93827600Y-68478400D01*
D35*
X101295200Y-66598800D02*
X104927400Y-66598800D01*
D33*
X101930200Y-54991000D02*
X101930200Y-54127400D01*
D31*
X83210400Y-64516000D02*
X86599911Y-67905511D01*
X86623381Y-67905511D02*
X87196270Y-68478400D01*
X97434400Y-66497200D02*
X98549500Y-67612300D01*
D35*
X98549500Y-67868800D02*
X100025200Y-67868800D01*
D33*
X104927400Y-59230841D02*
X104927400Y-66598800D01*
D35*
X100025200Y-67868800D02*
X101295200Y-66598800D01*
D33*
X101930200Y-54127400D02*
X103835200Y-52222400D01*
D31*
X95808800Y-66497200D02*
X97434400Y-66497200D01*
X93827600Y-68478400D02*
X95808800Y-66497200D01*
D33*
X101930200Y-54991000D02*
X104048721Y-57109521D01*
D31*
X98537000Y-65138300D02*
X99834700Y-65138300D01*
D33*
X92530000Y-54991000D02*
X101930200Y-54991000D01*
D31*
X86599911Y-67905511D02*
X86623381Y-67905511D01*
D33*
X92504600Y-54965600D02*
X92530000Y-54991000D01*
D31*
X98549500Y-67612300D02*
X98549500Y-67868800D01*
D33*
X104048721Y-57109521D02*
G75*
G02*
X104927400Y-59230841I-2121319J-2121319D01*
G01*
D31*
X89662000Y-73660000D02*
X91705200Y-73660000D01*
D33*
X76301600Y-63296800D02*
X79197200Y-63296800D01*
X93203800Y-75158600D02*
X93788000Y-75742800D01*
X79197200Y-63296800D02*
X89458800Y-73558400D01*
D31*
X87932900Y-71930900D02*
X89662000Y-73660000D01*
D35*
X82194400Y-71930900D02*
X87932900Y-71930900D01*
D33*
X97942400Y-75742800D02*
X100685600Y-72999600D01*
X105308400Y-85293200D02*
X103835200Y-86766400D01*
D31*
X91705200Y-73660000D02*
X93203800Y-75158600D01*
D33*
X100685600Y-72999600D02*
X101447600Y-72999600D01*
X76301600Y-63296800D02*
X74889400Y-63296800D01*
X101447600Y-72999600D02*
X105308400Y-76860400D01*
X76301600Y-61544200D02*
X76301600Y-63296800D01*
X103086400Y-70598800D02*
X104927400Y-70598800D01*
X105308400Y-76860400D02*
X105308400Y-85293200D01*
X89458800Y-73558400D02*
X91603600Y-73558400D01*
X91603600Y-73558400D02*
X93203800Y-75158600D01*
X100685600Y-72999600D02*
X103086400Y-70598800D01*
X93788000Y-75742800D02*
X97942400Y-75742800D01*
D31*
X77470000Y-69392800D02*
X76301600Y-68224400D01*
X77470000Y-70105900D02*
X77470000Y-69392800D01*
X67614800Y-74853800D02*
X67614800Y-76977600D01*
X82194400Y-69314400D02*
X82194400Y-70105900D01*
D32*
X67630400Y-76977600D02*
X67614800Y-76977600D01*
X70593001Y-79940201D02*
X67630400Y-76977600D01*
X71617700Y-79940201D02*
X70593001Y-79940201D01*
D31*
X67564000Y-74803000D02*
X67614800Y-74853800D01*
X81270000Y-68390000D02*
X82194400Y-69314400D01*
D33*
X76784200Y-54991000D02*
X76428600Y-54635400D01*
X82679200Y-54991000D02*
X78232000Y-54991000D01*
X76428600Y-54635400D02*
X76428600Y-53508000D01*
X78206600Y-55016400D02*
X78206600Y-59791600D01*
X82704600Y-54965600D02*
X82679200Y-54991000D01*
D35*
X76260400Y-59867800D02*
X78130400Y-59867800D01*
D33*
X78232000Y-54991000D02*
X78206600Y-55016400D01*
D35*
X78130400Y-59867800D02*
X78206600Y-59791600D01*
D33*
X78232000Y-54991000D02*
X76784200Y-54991000D01*
D31*
X84986500Y-81635600D02*
X84986500Y-83662600D01*
X92202000Y-81635600D02*
X94036400Y-79801200D01*
D33*
X93203800Y-78968600D02*
X94036400Y-79801200D01*
D31*
X84986500Y-81635600D02*
X92202000Y-81635600D01*
X84986500Y-83662600D02*
X84991500Y-83667600D01*
D33*
X94036400Y-79801200D02*
X95007200Y-80772000D01*
X95007200Y-80772000D02*
X100163000Y-80772000D01*
D31*
X75336400Y-70068400D02*
X73797200Y-70068400D01*
X77012800Y-78943200D02*
X76967312Y-78988688D01*
X76967312Y-78988688D02*
X76769100Y-78988688D01*
X73304400Y-73560300D02*
X73304400Y-70561200D01*
X77012800Y-75234800D02*
X77012800Y-78943200D01*
X73797200Y-70068400D02*
X73304400Y-70561200D01*
X83166500Y-83667600D02*
X80948600Y-83667600D01*
D32*
X79149402Y-81140201D02*
X80909200Y-82899999D01*
X76769100Y-81140201D02*
X79149402Y-81140201D01*
D31*
X80948600Y-83667600D02*
X80909200Y-83707000D01*
D32*
X80909200Y-82899999D02*
X80909200Y-83707000D01*
D34*
X79603600Y-71968400D02*
X79603600Y-75143600D01*
D32*
X71617700Y-81540200D02*
X69734538Y-81540200D01*
X79603600Y-75143600D02*
X79650000Y-75190000D01*
X69734538Y-81540200D02*
X69495294Y-81779444D01*
D34*
X80290000Y-77580000D02*
X80298400Y-77571600D01*
X80909089Y-77571600D02*
X83161500Y-77571600D01*
D32*
X71617700Y-81140201D02*
X69770201Y-81140201D01*
D34*
X80298400Y-77571600D02*
X83161500Y-77571600D01*
D32*
X69605200Y-80975200D02*
X68554600Y-80975200D01*
D34*
X80909089Y-71373889D02*
X80909089Y-77571600D01*
D32*
X69770201Y-81140201D02*
X69605200Y-80975200D01*
D34*
X79603600Y-70068400D02*
X80909089Y-71373889D01*
D32*
X75336400Y-72491600D02*
X75844400Y-72999600D01*
X77444600Y-72999600D02*
X78105000Y-73660000D01*
X75336400Y-71968400D02*
X75336400Y-72491600D01*
X75844400Y-72999600D02*
X77444600Y-72999600D01*
X78105000Y-79146400D02*
X77711201Y-79540199D01*
X78105000Y-73660000D02*
X78105000Y-79146400D01*
X77711201Y-79540199D02*
X76769100Y-79540199D01*
D34*
X96662000Y-65138300D02*
X96662000Y-64221600D01*
X96977200Y-63906400D02*
X98272600Y-63906400D01*
X98272600Y-63906400D02*
X98499300Y-63679700D01*
X96662000Y-64221600D02*
X96977200Y-63906400D01*
X98499300Y-63679700D02*
X98499300Y-62738000D01*
D32*
X78638400Y-73099300D02*
X77470000Y-71930900D01*
X78022399Y-79940201D02*
X78638400Y-79324200D01*
X76769100Y-79940201D02*
X78022399Y-79940201D01*
X78638400Y-79324200D02*
X78638400Y-73099300D01*
X76769100Y-80340200D02*
X80416400Y-80340200D01*
X84074000Y-78892400D02*
X84074000Y-80723100D01*
X80416400Y-80340200D02*
X82169000Y-78587600D01*
X84074000Y-80723100D02*
X83161500Y-81635600D01*
X83769200Y-78587600D02*
X84074000Y-78892400D01*
X82169000Y-78587600D02*
X83769200Y-78587600D01*
D31*
X84986500Y-79603600D02*
X86055200Y-79603600D01*
X86055200Y-79603600D02*
X86690200Y-78968600D01*
X86690200Y-78968600D02*
X88253800Y-78968600D01*
D32*
X81991200Y-79603600D02*
X80854601Y-80740199D01*
X80854601Y-80740199D02*
X76769100Y-80740199D01*
X83161500Y-79603600D02*
X81991200Y-79603600D01*
D31*
X84986500Y-75539600D02*
X85902800Y-75539600D01*
X86791800Y-76428600D02*
X88253800Y-76428600D01*
X85902800Y-75539600D02*
X86791800Y-76428600D01*
X83161500Y-75539600D02*
X83161500Y-73814300D01*
D32*
X83161500Y-73814300D02*
X83159600Y-73812400D01*
X77997200Y-81540200D02*
X76769100Y-81540200D01*
X78524400Y-82067400D02*
X77997200Y-81540200D01*
X78638400Y-82067400D02*
X78524400Y-82067400D01*
X69990199Y-80740199D02*
X71617700Y-80740199D01*
X61391800Y-79046700D02*
X62304300Y-79959200D01*
X69209200Y-79959200D02*
X69990199Y-80740199D01*
D31*
X61711800Y-76894000D02*
X61711800Y-78726700D01*
D32*
X62304300Y-79959200D02*
X69209200Y-79959200D01*
D31*
X61711800Y-78726700D02*
X61391800Y-79046700D01*
X61391800Y-80871700D02*
X61391800Y-83337400D01*
X61391800Y-83337400D02*
X61061600Y-83667600D01*
D32*
X70220690Y-80340200D02*
X68940490Y-79060000D01*
X66520000Y-79060000D02*
X64354000Y-76894000D01*
D31*
X63601600Y-78843500D02*
X63601600Y-76904200D01*
X63830200Y-79072100D02*
X63601600Y-78843500D01*
D32*
X64354000Y-76894000D02*
X63611800Y-76894000D01*
X71617700Y-80340200D02*
X70220690Y-80340200D01*
X68940490Y-79060000D02*
X66520000Y-79060000D01*
D31*
X63601600Y-76904200D02*
X63611800Y-76894000D01*
X63957200Y-83642200D02*
X63957200Y-81024100D01*
X63957200Y-81024100D02*
X63830200Y-80897100D01*
X88253800Y-77698600D02*
X85113500Y-77698600D01*
X85113500Y-77698600D02*
X84986500Y-77571600D01*
G04 #@! TA.AperFunction,Conductor*
G36*
X94379321Y-77388402D02*
G01*
X94425814Y-77442058D01*
X94437200Y-77494400D01*
X94437200Y-79579200D01*
X94417198Y-79647321D01*
X94363542Y-79693814D01*
X94311200Y-79705200D01*
X92124800Y-79705200D01*
X92056679Y-79685198D01*
X92010186Y-79631542D01*
X91998800Y-79579200D01*
X91998800Y-77494400D01*
X92018802Y-77426279D01*
X92072458Y-77379786D01*
X92124800Y-77368400D01*
X94311200Y-77368400D01*
X94379321Y-77388402D01*
G37*
G04 #@! TD.AperFunction*
G04 #@! TA.AperFunction,Conductor*
G36*
X108019121Y-44978002D02*
G01*
X108065614Y-45031658D01*
X108077000Y-45084000D01*
X108077000Y-94235000D01*
X108056998Y-94303121D01*
X108003342Y-94349614D01*
X107951000Y-94361000D01*
X15747000Y-94361000D01*
X15678879Y-94340998D01*
X15632386Y-94287342D01*
X15621000Y-94235000D01*
X15621000Y-84901410D01*
X58064400Y-84901410D01*
X58067310Y-84955704D01*
X58070189Y-84982487D01*
X58078890Y-85036183D01*
X58129421Y-85171657D01*
X58163447Y-85233969D01*
X58166142Y-85237569D01*
X58247398Y-85346113D01*
X58247402Y-85346117D01*
X58250095Y-85349715D01*
X59176285Y-86275905D01*
X59216728Y-86312235D01*
X59237702Y-86329138D01*
X59239076Y-86330129D01*
X59239092Y-86330141D01*
X59259292Y-86344707D01*
X59281824Y-86360955D01*
X59287450Y-86363525D01*
X59287453Y-86363526D01*
X59356445Y-86395033D01*
X59413350Y-86421021D01*
X59437104Y-86427996D01*
X59477148Y-86439754D01*
X59477152Y-86439755D01*
X59481471Y-86441023D01*
X59485919Y-86441663D01*
X59485926Y-86441664D01*
X59620142Y-86460961D01*
X59620149Y-86460962D01*
X59624590Y-86461600D01*
X87529391Y-86461600D01*
X87597512Y-86481602D01*
X87644005Y-86535258D01*
X87654109Y-86605532D01*
X87624615Y-86670112D01*
X87573128Y-86704900D01*
X87573351Y-86705431D01*
X87570681Y-86706553D01*
X87570412Y-86706735D01*
X87565547Y-86708410D01*
X87561804Y-86710284D01*
X87561800Y-86710286D01*
X87387179Y-86797730D01*
X87300244Y-86841264D01*
X87054842Y-87008039D01*
X86833654Y-87205804D01*
X86640564Y-87431086D01*
X86638290Y-87434588D01*
X86638289Y-87434589D01*
X86519226Y-87617931D01*
X86478965Y-87679927D01*
X86351696Y-87947954D01*
X86350417Y-87951937D01*
X86350416Y-87951940D01*
X86273074Y-88192834D01*
X86260994Y-88230458D01*
X86260253Y-88234577D01*
X86225174Y-88429541D01*
X86208452Y-88522477D01*
X86208263Y-88526644D01*
X86208262Y-88526651D01*
X86195181Y-88814710D01*
X86194992Y-88818880D01*
X86195355Y-88823028D01*
X86195355Y-88823032D01*
X86220487Y-89110293D01*
X86220488Y-89110301D01*
X86220852Y-89114459D01*
X86285577Y-89404021D01*
X86287019Y-89407941D01*
X86287021Y-89407947D01*
X86371819Y-89638422D01*
X86388029Y-89682480D01*
X86389980Y-89686180D01*
X86389982Y-89686185D01*
X86408050Y-89720453D01*
X86526410Y-89944942D01*
X86698288Y-90186797D01*
X86900642Y-90403796D01*
X87129918Y-90592125D01*
X87382088Y-90748477D01*
X87652722Y-90870105D01*
X87825390Y-90921580D01*
X87933065Y-90953679D01*
X87933067Y-90953679D01*
X87937064Y-90954871D01*
X87941184Y-90955524D01*
X87941186Y-90955524D01*
X88060106Y-90974359D01*
X88230119Y-91001286D01*
X88275146Y-91003331D01*
X88321497Y-91005436D01*
X88321516Y-91005436D01*
X88322916Y-91005500D01*
X88508264Y-91005500D01*
X88729056Y-90990835D01*
X89019910Y-90932188D01*
X89300453Y-90835590D01*
X89304196Y-90833716D01*
X89304200Y-90833714D01*
X89562012Y-90704611D01*
X89562014Y-90704610D01*
X89565756Y-90702736D01*
X89811158Y-90535961D01*
X90016390Y-90352462D01*
X103113693Y-90352462D01*
X103122989Y-90364477D01*
X103174194Y-90400331D01*
X103183689Y-90405814D01*
X103381147Y-90497890D01*
X103391439Y-90501636D01*
X103601888Y-90558025D01*
X103612681Y-90559928D01*
X103829725Y-90578917D01*
X103840675Y-90578917D01*
X104057719Y-90559928D01*
X104068512Y-90558025D01*
X104278961Y-90501636D01*
X104289253Y-90497890D01*
X104486711Y-90405814D01*
X104496206Y-90400331D01*
X104548248Y-90363891D01*
X104556624Y-90353412D01*
X104549556Y-90339966D01*
X103848012Y-89638422D01*
X103834068Y-89630808D01*
X103832235Y-89630939D01*
X103825620Y-89635190D01*
X103120123Y-90340687D01*
X103113693Y-90352462D01*
X90016390Y-90352462D01*
X90032346Y-90338196D01*
X90225436Y-90112914D01*
X90227711Y-90109411D01*
X90384763Y-89867572D01*
X90384765Y-89867569D01*
X90387035Y-89864073D01*
X90514304Y-89596046D01*
X90515584Y-89592060D01*
X90603726Y-89317530D01*
X90603727Y-89317524D01*
X90605006Y-89313542D01*
X90612503Y-89271875D01*
X102522683Y-89271875D01*
X102541672Y-89488919D01*
X102543575Y-89499712D01*
X102599964Y-89710161D01*
X102603710Y-89720453D01*
X102695786Y-89917911D01*
X102701269Y-89927406D01*
X102737709Y-89979448D01*
X102748188Y-89987824D01*
X102761634Y-89980756D01*
X103463178Y-89279212D01*
X103469556Y-89267532D01*
X104199608Y-89267532D01*
X104199739Y-89269365D01*
X104203990Y-89275980D01*
X104909487Y-89981477D01*
X104921262Y-89987907D01*
X104933277Y-89978611D01*
X104969131Y-89927406D01*
X104974614Y-89917911D01*
X105066690Y-89720453D01*
X105070436Y-89710161D01*
X105126825Y-89499712D01*
X105128728Y-89488919D01*
X105147717Y-89271875D01*
X105147717Y-89260925D01*
X105128728Y-89043881D01*
X105126825Y-89033088D01*
X105070436Y-88822639D01*
X105066690Y-88812347D01*
X104974614Y-88614889D01*
X104969131Y-88605394D01*
X104932691Y-88553352D01*
X104922212Y-88544976D01*
X104908766Y-88552044D01*
X104207222Y-89253588D01*
X104199608Y-89267532D01*
X103469556Y-89267532D01*
X103470792Y-89265268D01*
X103470661Y-89263435D01*
X103466410Y-89256820D01*
X102760913Y-88551323D01*
X102749138Y-88544893D01*
X102737123Y-88554189D01*
X102701269Y-88605394D01*
X102695786Y-88614889D01*
X102603710Y-88812347D01*
X102599964Y-88822639D01*
X102543575Y-89033088D01*
X102541672Y-89043881D01*
X102522683Y-89260925D01*
X102522683Y-89271875D01*
X90612503Y-89271875D01*
X90640091Y-89118548D01*
X90656809Y-89025632D01*
X90656810Y-89025627D01*
X90657548Y-89021523D01*
X90666751Y-88818880D01*
X90670819Y-88729290D01*
X90670819Y-88729285D01*
X90671008Y-88725120D01*
X90661364Y-88614889D01*
X90645513Y-88433707D01*
X90645512Y-88433699D01*
X90645148Y-88429541D01*
X90583701Y-88154645D01*
X90581336Y-88144063D01*
X90581336Y-88144061D01*
X90580423Y-88139979D01*
X90565182Y-88098553D01*
X90479418Y-87865452D01*
X90479416Y-87865448D01*
X90477971Y-87861520D01*
X90456234Y-87820291D01*
X90341543Y-87602762D01*
X90341542Y-87602761D01*
X90339590Y-87599058D01*
X90167712Y-87357203D01*
X89965358Y-87140204D01*
X89736082Y-86951875D01*
X89483912Y-86795523D01*
X89213278Y-86673895D01*
X88983959Y-86605532D01*
X88932935Y-86590321D01*
X88932933Y-86590321D01*
X88928936Y-86589129D01*
X88649259Y-86544833D01*
X88585105Y-86514421D01*
X88547578Y-86454153D01*
X88548592Y-86383163D01*
X88593459Y-86319517D01*
X88648104Y-86278609D01*
X88648111Y-86278603D01*
X88651715Y-86275905D01*
X89577905Y-85349715D01*
X89614235Y-85309272D01*
X89631138Y-85288298D01*
X89632129Y-85286924D01*
X89632141Y-85286908D01*
X89646707Y-85266708D01*
X89662955Y-85244176D01*
X89665973Y-85237569D01*
X89721152Y-85116742D01*
X89723021Y-85112650D01*
X89743023Y-85044529D01*
X89751705Y-84984145D01*
X89762961Y-84905858D01*
X89762962Y-84905851D01*
X89763600Y-84901410D01*
X89763600Y-82520100D01*
X89783602Y-82451979D01*
X89837258Y-82405486D01*
X89889600Y-82394100D01*
X92134930Y-82394100D01*
X92153880Y-82395533D01*
X92168115Y-82397699D01*
X92168119Y-82397699D01*
X92175349Y-82398799D01*
X92182641Y-82398206D01*
X92182644Y-82398206D01*
X92228018Y-82394515D01*
X92238233Y-82394100D01*
X92246293Y-82394100D01*
X92259583Y-82392551D01*
X92274507Y-82390811D01*
X92278882Y-82390378D01*
X92344339Y-82385054D01*
X92344342Y-82385053D01*
X92351637Y-82384460D01*
X92358601Y-82382204D01*
X92364560Y-82381013D01*
X92370415Y-82379629D01*
X92377681Y-82378782D01*
X92446327Y-82353865D01*
X92450455Y-82352448D01*
X92512936Y-82332207D01*
X92512938Y-82332206D01*
X92519899Y-82329951D01*
X92526154Y-82326155D01*
X92531628Y-82323649D01*
X92537058Y-82320930D01*
X92543937Y-82318433D01*
X92604976Y-82278414D01*
X92608680Y-82276077D01*
X92671107Y-82238195D01*
X92679484Y-82230797D01*
X92679508Y-82230824D01*
X92682500Y-82228171D01*
X92685733Y-82225468D01*
X92691852Y-82221456D01*
X92745128Y-82165217D01*
X92747506Y-82162775D01*
X93593751Y-81316530D01*
X93656063Y-81282504D01*
X93726878Y-81287569D01*
X93771941Y-81316530D01*
X94052678Y-81597267D01*
X94063546Y-81609658D01*
X94077077Y-81627292D01*
X94081223Y-81631065D01*
X94081228Y-81631070D01*
X94137364Y-81682149D01*
X94141659Y-81686247D01*
X94157611Y-81702199D01*
X94159758Y-81703994D01*
X94159760Y-81703996D01*
X94177624Y-81718933D01*
X94181599Y-81722401D01*
X94239088Y-81774712D01*
X94239097Y-81774719D01*
X94243236Y-81778485D01*
X94247982Y-81781462D01*
X94247983Y-81781463D01*
X94258425Y-81788013D01*
X94272293Y-81798089D01*
X94281749Y-81805996D01*
X94281759Y-81806003D01*
X94286054Y-81809594D01*
X94358440Y-81850882D01*
X94362968Y-81853592D01*
X94428796Y-81894886D01*
X94428799Y-81894888D01*
X94433544Y-81897864D01*
X94438749Y-81899957D01*
X94438752Y-81899958D01*
X94450179Y-81904552D01*
X94465611Y-81912012D01*
X94476319Y-81918120D01*
X94476328Y-81918124D01*
X94481193Y-81920899D01*
X94486470Y-81922768D01*
X94486475Y-81922770D01*
X94559742Y-81948715D01*
X94564678Y-81950580D01*
X94641983Y-81981656D01*
X94647470Y-81982792D01*
X94647472Y-81982793D01*
X94659549Y-81985294D01*
X94676044Y-81989899D01*
X94692959Y-81995889D01*
X94698496Y-81996796D01*
X94698497Y-81996796D01*
X94775191Y-82009355D01*
X94780381Y-82010317D01*
X94857446Y-82026277D01*
X94857450Y-82026278D01*
X94861967Y-82027213D01*
X94866576Y-82027479D01*
X94866578Y-82027479D01*
X94889748Y-82028815D01*
X94902853Y-82030262D01*
X94909110Y-82031286D01*
X94909117Y-82031286D01*
X94914658Y-82032194D01*
X94920271Y-82032106D01*
X94920273Y-82032106D01*
X95021494Y-82030516D01*
X95023473Y-82030500D01*
X95860600Y-82030500D01*
X95928721Y-82050502D01*
X95975214Y-82104158D01*
X95986600Y-82156500D01*
X95986600Y-83821000D01*
X95998209Y-83928980D01*
X96009595Y-83981322D01*
X96043893Y-84084372D01*
X96122065Y-84206010D01*
X96168558Y-84259666D01*
X96277834Y-84354355D01*
X96409360Y-84414421D01*
X96433114Y-84421396D01*
X96473158Y-84433154D01*
X96473162Y-84433155D01*
X96477481Y-84434423D01*
X96481929Y-84435063D01*
X96481936Y-84435064D01*
X96616152Y-84454361D01*
X96616159Y-84454362D01*
X96620600Y-84455000D01*
X103709200Y-84455000D01*
X103817180Y-84443391D01*
X103820464Y-84442677D01*
X103820468Y-84442676D01*
X103845539Y-84437222D01*
X103869522Y-84432005D01*
X103884112Y-84427149D01*
X103955063Y-84424617D01*
X104016121Y-84460845D01*
X104047898Y-84524333D01*
X104049900Y-84546702D01*
X104049900Y-84719722D01*
X104029898Y-84787843D01*
X104012995Y-84808817D01*
X103400817Y-85420995D01*
X103338505Y-85455021D01*
X103311722Y-85457900D01*
X102987066Y-85457900D01*
X102924884Y-85464655D01*
X102788495Y-85515785D01*
X102671939Y-85603139D01*
X102584585Y-85719695D01*
X102533455Y-85856084D01*
X102526700Y-85918266D01*
X102526700Y-87614534D01*
X102533455Y-87676716D01*
X102584585Y-87813105D01*
X102671939Y-87929661D01*
X102788495Y-88017015D01*
X102924884Y-88068145D01*
X102968452Y-88072878D01*
X102983686Y-88074533D01*
X102983689Y-88074533D01*
X102987066Y-88074900D01*
X102990385Y-88074900D01*
X103057310Y-88098553D01*
X103093004Y-88144556D01*
X103094934Y-88143541D01*
X103100642Y-88154400D01*
X103100832Y-88154645D01*
X103100853Y-88154803D01*
X103120844Y-88192834D01*
X103822388Y-88894378D01*
X103836332Y-88901992D01*
X103838165Y-88901861D01*
X103844780Y-88897610D01*
X104550277Y-88192113D01*
X104573071Y-88150371D01*
X104575247Y-88140371D01*
X104625453Y-88090173D01*
X104679014Y-88074949D01*
X104679919Y-88074900D01*
X104683334Y-88074900D01*
X104686730Y-88074531D01*
X104686732Y-88074531D01*
X104699079Y-88073190D01*
X104745516Y-88068145D01*
X104881905Y-88017015D01*
X104998461Y-87929661D01*
X105085815Y-87813105D01*
X105136945Y-87676716D01*
X105143700Y-87614534D01*
X105143700Y-87289877D01*
X105163702Y-87221756D01*
X105180601Y-87200786D01*
X106133671Y-86247717D01*
X106146054Y-86236857D01*
X106159241Y-86226738D01*
X106163692Y-86223323D01*
X106167465Y-86219177D01*
X106167470Y-86219172D01*
X106218549Y-86163036D01*
X106222647Y-86158741D01*
X106238598Y-86142790D01*
X106255342Y-86122764D01*
X106258801Y-86118799D01*
X106311108Y-86061315D01*
X106311109Y-86061314D01*
X106314885Y-86057164D01*
X106324416Y-86041970D01*
X106334485Y-86028110D01*
X106345993Y-86014347D01*
X106387269Y-85941982D01*
X106389979Y-85937453D01*
X106431285Y-85871605D01*
X106434264Y-85866856D01*
X106440953Y-85850217D01*
X106448412Y-85834787D01*
X106454519Y-85824081D01*
X106454523Y-85824072D01*
X106457298Y-85819207D01*
X106485112Y-85740662D01*
X106486973Y-85735737D01*
X106515961Y-85663628D01*
X106518056Y-85658417D01*
X106521696Y-85640839D01*
X106526302Y-85624346D01*
X106532288Y-85607441D01*
X106545752Y-85525221D01*
X106546714Y-85520033D01*
X106548247Y-85512633D01*
X106563613Y-85438433D01*
X106565216Y-85410637D01*
X106566663Y-85397531D01*
X106567686Y-85391286D01*
X106567687Y-85391279D01*
X106568593Y-85385743D01*
X106566916Y-85278969D01*
X106566900Y-85276991D01*
X106566900Y-76951796D01*
X106567978Y-76935349D01*
X106569059Y-76927137D01*
X106570879Y-76913314D01*
X106567040Y-76831904D01*
X106566900Y-76825969D01*
X106566900Y-76803401D01*
X106566652Y-76800618D01*
X106566651Y-76800604D01*
X106564582Y-76777423D01*
X106564223Y-76772160D01*
X106561506Y-76714553D01*
X106560297Y-76688912D01*
X106556292Y-76671423D01*
X106553612Y-76654504D01*
X106552515Y-76642221D01*
X106552017Y-76636638D01*
X106547776Y-76621136D01*
X106530031Y-76556270D01*
X106528745Y-76551152D01*
X106511394Y-76475397D01*
X106510142Y-76469930D01*
X106503107Y-76453437D01*
X106497472Y-76437255D01*
X106494220Y-76425367D01*
X106494217Y-76425358D01*
X106492737Y-76419949D01*
X106490322Y-76414886D01*
X106490318Y-76414875D01*
X106456866Y-76344743D01*
X106454693Y-76339932D01*
X106443913Y-76314657D01*
X106422004Y-76263292D01*
X106416689Y-76255200D01*
X106412156Y-76248300D01*
X106403744Y-76233371D01*
X106396022Y-76217182D01*
X106347396Y-76149511D01*
X106344413Y-76145171D01*
X106301205Y-76079392D01*
X106301201Y-76079387D01*
X106298665Y-76075526D01*
X106280151Y-76054746D01*
X106271906Y-76044455D01*
X106268207Y-76039307D01*
X106268203Y-76039303D01*
X106264929Y-76034746D01*
X106188177Y-75960368D01*
X106186767Y-75958979D01*
X104032022Y-73804234D01*
X103997996Y-73741922D01*
X104003061Y-73671107D01*
X104045608Y-73614271D01*
X104112128Y-73589460D01*
X104168215Y-73598273D01*
X104330711Y-73663761D01*
X104342170Y-73667155D01*
X104539328Y-73705657D01*
X104548191Y-73706734D01*
X104550900Y-73706800D01*
X104655285Y-73706800D01*
X104670524Y-73702325D01*
X104671729Y-73700935D01*
X104673400Y-73693252D01*
X104673400Y-73688685D01*
X105181400Y-73688685D01*
X105185875Y-73703924D01*
X105187265Y-73705129D01*
X105194948Y-73706800D01*
X105252232Y-73706800D01*
X105258208Y-73706515D01*
X105406894Y-73692329D01*
X105418628Y-73690070D01*
X105609999Y-73633928D01*
X105621075Y-73629498D01*
X105798378Y-73538181D01*
X105808424Y-73531731D01*
X105965257Y-73408538D01*
X105973906Y-73400301D01*
X106104612Y-73249677D01*
X106111547Y-73239953D01*
X106211410Y-73067333D01*
X106216384Y-73056469D01*
X106281807Y-72868073D01*
X106282048Y-72867084D01*
X106280580Y-72856792D01*
X106267015Y-72852800D01*
X105199515Y-72852800D01*
X105184276Y-72857275D01*
X105183071Y-72858665D01*
X105181400Y-72866348D01*
X105181400Y-73688685D01*
X104673400Y-73688685D01*
X104673400Y-72870915D01*
X104668925Y-72855676D01*
X104667535Y-72854471D01*
X104659852Y-72852800D01*
X103591998Y-72852800D01*
X103578467Y-72856773D01*
X103577112Y-72866199D01*
X103598594Y-72955337D01*
X103602483Y-72966632D01*
X103655028Y-73082198D01*
X103665014Y-73152489D01*
X103635414Y-73217020D01*
X103575624Y-73255304D01*
X103504627Y-73255186D01*
X103451232Y-73223444D01*
X102935483Y-72707695D01*
X102901457Y-72645383D01*
X102906522Y-72574568D01*
X102935481Y-72529506D01*
X103222725Y-72242263D01*
X103417529Y-72047459D01*
X103479841Y-72013434D01*
X103550657Y-72018499D01*
X103607492Y-72061046D01*
X103632303Y-72127566D01*
X103625651Y-72177889D01*
X103572995Y-72329521D01*
X103572752Y-72330516D01*
X103574220Y-72340808D01*
X103587785Y-72344800D01*
X106262802Y-72344800D01*
X106276333Y-72340827D01*
X106277688Y-72331401D01*
X106256206Y-72242263D01*
X106252317Y-72230968D01*
X106169771Y-72049418D01*
X106163824Y-72039076D01*
X106048432Y-71876403D01*
X106040639Y-71867375D01*
X105896569Y-71729458D01*
X105887200Y-71722059D01*
X105859823Y-71704382D01*
X105813445Y-71650628D01*
X105803491Y-71580332D01*
X105833122Y-71515815D01*
X105850337Y-71499444D01*
X105965602Y-71408902D01*
X105970320Y-71405196D01*
X105974252Y-71400665D01*
X105974255Y-71400662D01*
X106105021Y-71249967D01*
X106108952Y-71245437D01*
X106111952Y-71240251D01*
X106111955Y-71240247D01*
X106211867Y-71067542D01*
X106214873Y-71062346D01*
X106284261Y-70862529D01*
X106292668Y-70804548D01*
X106313752Y-70659136D01*
X106313752Y-70659133D01*
X106314613Y-70653196D01*
X106304833Y-70441901D01*
X106255275Y-70236266D01*
X106251533Y-70228034D01*
X106185068Y-70081855D01*
X106167726Y-70043713D01*
X106045346Y-69871189D01*
X105892550Y-69724919D01*
X105887519Y-69721670D01*
X105887512Y-69721665D01*
X105859793Y-69703767D01*
X105813416Y-69650011D01*
X105803463Y-69579715D01*
X105833096Y-69515198D01*
X105850309Y-69498830D01*
X105965257Y-69408538D01*
X105973906Y-69400301D01*
X106104612Y-69249677D01*
X106111547Y-69239953D01*
X106211410Y-69067333D01*
X106216384Y-69056469D01*
X106281807Y-68868073D01*
X106282048Y-68867084D01*
X106280580Y-68856792D01*
X106267015Y-68852800D01*
X103591998Y-68852800D01*
X103578467Y-68856773D01*
X103577112Y-68866199D01*
X103598594Y-68955337D01*
X103602483Y-68966632D01*
X103685026Y-69148177D01*
X103686930Y-69151487D01*
X103687379Y-69153350D01*
X103687509Y-69153637D01*
X103687454Y-69153662D01*
X103703550Y-69220511D01*
X103680214Y-69287563D01*
X103624332Y-69331354D01*
X103577703Y-69340300D01*
X103177796Y-69340300D01*
X103161349Y-69339222D01*
X103160670Y-69339133D01*
X103139314Y-69336321D01*
X103133714Y-69336585D01*
X103133713Y-69336585D01*
X103057904Y-69340160D01*
X103051969Y-69340300D01*
X103029401Y-69340300D01*
X103026618Y-69340548D01*
X103026604Y-69340549D01*
X103003423Y-69342618D01*
X102998160Y-69342977D01*
X102968742Y-69344364D01*
X102914912Y-69346903D01*
X102897423Y-69350908D01*
X102880504Y-69353588D01*
X102876018Y-69353989D01*
X102862638Y-69355183D01*
X102857230Y-69356662D01*
X102857227Y-69356663D01*
X102782270Y-69377169D01*
X102777152Y-69378455D01*
X102701400Y-69395805D01*
X102701398Y-69395806D01*
X102695930Y-69397058D01*
X102688327Y-69400301D01*
X102679433Y-69404094D01*
X102663258Y-69409727D01*
X102657206Y-69411383D01*
X102645949Y-69414463D01*
X102640894Y-69416874D01*
X102640889Y-69416876D01*
X102570717Y-69450346D01*
X102565908Y-69452517D01*
X102494453Y-69482995D01*
X102494447Y-69482998D01*
X102489292Y-69485197D01*
X102474302Y-69495044D01*
X102459374Y-69503455D01*
X102443182Y-69511178D01*
X102438629Y-69514450D01*
X102438625Y-69514452D01*
X102375503Y-69559810D01*
X102371153Y-69562799D01*
X102357035Y-69572073D01*
X102301526Y-69608535D01*
X102280738Y-69627057D01*
X102270461Y-69635290D01*
X102260746Y-69642271D01*
X102223510Y-69680696D01*
X102186338Y-69719054D01*
X102184949Y-69720464D01*
X99875707Y-72029705D01*
X99868496Y-72035832D01*
X99868752Y-72036129D01*
X99864505Y-72039795D01*
X99859946Y-72043071D01*
X99842527Y-72061046D01*
X99785568Y-72119823D01*
X99784179Y-72121233D01*
X98639407Y-73266005D01*
X98577095Y-73300031D01*
X98506280Y-73294966D01*
X98449444Y-73252419D01*
X98424633Y-73185899D01*
X98429223Y-73142074D01*
X98434694Y-73123058D01*
X98434695Y-73123053D01*
X98436015Y-73118465D01*
X98437070Y-73110293D01*
X98468561Y-72866154D01*
X98469172Y-72861417D01*
X98465549Y-72707695D01*
X98463178Y-72607091D01*
X98463178Y-72607087D01*
X98463065Y-72602311D01*
X98438517Y-72463795D01*
X98418671Y-72351814D01*
X98418670Y-72351810D01*
X98417837Y-72347110D01*
X98405258Y-72310052D01*
X98336064Y-72106215D01*
X98334527Y-72101687D01*
X98332326Y-72097451D01*
X98332324Y-72097445D01*
X98251104Y-71941090D01*
X98215053Y-71871689D01*
X98211902Y-71867375D01*
X98064986Y-71666274D01*
X98064985Y-71666273D01*
X98062163Y-71662410D01*
X98002827Y-71602762D01*
X97882752Y-71482055D01*
X97882747Y-71482051D01*
X97879378Y-71478664D01*
X97784928Y-71408902D01*
X97674754Y-71327527D01*
X97670901Y-71324681D01*
X97666661Y-71322450D01*
X97445768Y-71206232D01*
X97445761Y-71206229D01*
X97441532Y-71204004D01*
X97437016Y-71202445D01*
X97437010Y-71202442D01*
X97266148Y-71143443D01*
X97196549Y-71119410D01*
X97078807Y-71097907D01*
X96945559Y-71073571D01*
X96945555Y-71073571D01*
X96941588Y-71072846D01*
X96858658Y-71068500D01*
X96697097Y-71068500D01*
X96694718Y-71068681D01*
X96694717Y-71068681D01*
X96509336Y-71082782D01*
X96509331Y-71082783D01*
X96504569Y-71083145D01*
X96499916Y-71084224D01*
X96499913Y-71084224D01*
X96398990Y-71107617D01*
X96252085Y-71141668D01*
X96011358Y-71237708D01*
X95787928Y-71369056D01*
X95784217Y-71372077D01*
X95784213Y-71372080D01*
X95711736Y-71431086D01*
X95586937Y-71532688D01*
X95583728Y-71536233D01*
X95583723Y-71536238D01*
X95466021Y-71666274D01*
X95413010Y-71724840D01*
X95270149Y-71941090D01*
X95268148Y-71945430D01*
X95268146Y-71945434D01*
X95194256Y-72105715D01*
X95161642Y-72176460D01*
X95160318Y-72181062D01*
X95092446Y-72416982D01*
X95089985Y-72425535D01*
X95089374Y-72430270D01*
X95089373Y-72430276D01*
X95061786Y-72644143D01*
X95056828Y-72682583D01*
X95057733Y-72720968D01*
X95062294Y-72914478D01*
X95062935Y-72941689D01*
X95063769Y-72946394D01*
X95086526Y-73074800D01*
X95108163Y-73196890D01*
X95191473Y-73442313D01*
X95193674Y-73446549D01*
X95193676Y-73446555D01*
X95251210Y-73557312D01*
X95310947Y-73672311D01*
X95313762Y-73676165D01*
X95313765Y-73676169D01*
X95451040Y-73864073D01*
X95463837Y-73881590D01*
X95467209Y-73884980D01*
X95467211Y-73884982D01*
X95643248Y-74061945D01*
X95643253Y-74061949D01*
X95646622Y-74065336D01*
X95855099Y-74219319D01*
X95907320Y-74246794D01*
X95958290Y-74296211D01*
X95974453Y-74365343D01*
X95950674Y-74432239D01*
X95894504Y-74475660D01*
X95848650Y-74484300D01*
X94954441Y-74484300D01*
X94886320Y-74464298D01*
X94848443Y-74426421D01*
X94809735Y-74366190D01*
X94787892Y-74340981D01*
X94766182Y-74315927D01*
X94763242Y-74312534D01*
X94653966Y-74217845D01*
X94522440Y-74157779D01*
X94498686Y-74150804D01*
X94458642Y-74139046D01*
X94458638Y-74139045D01*
X94454319Y-74137777D01*
X94449871Y-74137137D01*
X94449864Y-74137136D01*
X94315648Y-74117839D01*
X94315641Y-74117838D01*
X94311200Y-74117200D01*
X93994378Y-74117200D01*
X93926257Y-74097198D01*
X93905283Y-74080295D01*
X92558125Y-72733137D01*
X92547257Y-72720746D01*
X92537133Y-72707552D01*
X92533723Y-72703108D01*
X92473426Y-72648242D01*
X92469131Y-72644143D01*
X92453190Y-72628202D01*
X92451040Y-72626404D01*
X92433177Y-72611468D01*
X92429202Y-72608000D01*
X92371712Y-72555688D01*
X92371703Y-72555681D01*
X92367564Y-72551915D01*
X92352373Y-72542386D01*
X92338507Y-72532311D01*
X92329051Y-72524404D01*
X92329041Y-72524397D01*
X92324746Y-72520806D01*
X92252352Y-72479513D01*
X92247832Y-72476808D01*
X92182004Y-72435514D01*
X92182001Y-72435512D01*
X92177256Y-72432536D01*
X92172051Y-72430443D01*
X92172048Y-72430442D01*
X92160621Y-72425848D01*
X92145189Y-72418388D01*
X92134481Y-72412280D01*
X92134472Y-72412276D01*
X92129607Y-72409501D01*
X92124330Y-72407632D01*
X92124325Y-72407630D01*
X92051058Y-72381685D01*
X92046122Y-72379820D01*
X91974016Y-72350834D01*
X91968817Y-72348744D01*
X91963330Y-72347608D01*
X91963328Y-72347607D01*
X91951251Y-72345106D01*
X91934756Y-72340501D01*
X91917841Y-72334511D01*
X91835590Y-72321041D01*
X91830420Y-72320083D01*
X91748833Y-72303187D01*
X91744221Y-72302921D01*
X91744220Y-72302921D01*
X91721052Y-72301585D01*
X91707947Y-72300138D01*
X91701690Y-72299114D01*
X91701686Y-72299114D01*
X91696143Y-72298206D01*
X91690530Y-72298294D01*
X91690528Y-72298294D01*
X91589336Y-72299884D01*
X91587357Y-72299900D01*
X90032277Y-72299900D01*
X89964156Y-72279898D01*
X89943182Y-72262995D01*
X87132183Y-69451995D01*
X87098157Y-69389683D01*
X87103222Y-69318867D01*
X87145769Y-69262032D01*
X87212289Y-69237221D01*
X87221278Y-69236900D01*
X93760530Y-69236900D01*
X93779480Y-69238333D01*
X93793715Y-69240499D01*
X93793719Y-69240499D01*
X93800949Y-69241599D01*
X93808241Y-69241006D01*
X93808244Y-69241006D01*
X93853618Y-69237315D01*
X93863833Y-69236900D01*
X93871893Y-69236900D01*
X93885183Y-69235351D01*
X93900107Y-69233611D01*
X93904482Y-69233178D01*
X93969939Y-69227854D01*
X93969942Y-69227853D01*
X93977237Y-69227260D01*
X93984201Y-69225004D01*
X93990160Y-69223813D01*
X93996015Y-69222429D01*
X94003281Y-69221582D01*
X94071927Y-69196665D01*
X94076055Y-69195248D01*
X94138536Y-69175007D01*
X94138538Y-69175006D01*
X94145499Y-69172751D01*
X94151754Y-69168955D01*
X94157228Y-69166449D01*
X94162658Y-69163730D01*
X94169537Y-69161233D01*
X94181123Y-69153637D01*
X94230576Y-69121214D01*
X94234280Y-69118877D01*
X94296707Y-69080995D01*
X94305084Y-69073597D01*
X94305108Y-69073624D01*
X94308100Y-69070971D01*
X94311333Y-69068268D01*
X94317452Y-69064256D01*
X94370728Y-69008017D01*
X94373106Y-69005575D01*
X95426405Y-67952276D01*
X95488717Y-67918250D01*
X95559532Y-67923315D01*
X95616368Y-67965862D01*
X95641179Y-68032382D01*
X95641500Y-68041371D01*
X95641501Y-68390895D01*
X95641838Y-68397414D01*
X95651757Y-68493006D01*
X95654649Y-68506400D01*
X95706088Y-68660584D01*
X95712261Y-68673762D01*
X95797563Y-68811607D01*
X95806599Y-68823008D01*
X95921329Y-68937539D01*
X95932740Y-68946551D01*
X96070743Y-69031616D01*
X96083924Y-69037763D01*
X96238210Y-69088938D01*
X96251586Y-69091805D01*
X96345938Y-69101472D01*
X96352354Y-69101800D01*
X96377385Y-69101800D01*
X96392624Y-69097325D01*
X96393829Y-69095935D01*
X96395500Y-69088252D01*
X96395500Y-67740800D01*
X96415502Y-67672679D01*
X96469158Y-67626186D01*
X96521500Y-67614800D01*
X96777500Y-67614800D01*
X96845621Y-67634802D01*
X96892114Y-67688458D01*
X96903500Y-67740800D01*
X96903500Y-69083684D01*
X96907975Y-69098923D01*
X96909365Y-69100128D01*
X96917048Y-69101799D01*
X96946595Y-69101799D01*
X96953114Y-69101462D01*
X97048706Y-69091543D01*
X97062100Y-69088651D01*
X97216284Y-69037212D01*
X97229462Y-69031039D01*
X97367307Y-68945737D01*
X97378708Y-68936701D01*
X97493238Y-68821972D01*
X97500294Y-68813038D01*
X97558212Y-68771977D01*
X97629135Y-68768747D01*
X97690546Y-68804374D01*
X97697346Y-68812207D01*
X97701022Y-68818148D01*
X97706204Y-68823321D01*
X97719823Y-68836916D01*
X97826197Y-68943105D01*
X97832427Y-68946945D01*
X97832428Y-68946946D01*
X97969788Y-69031616D01*
X97976762Y-69035915D01*
X97984803Y-69038582D01*
X98138111Y-69089432D01*
X98138113Y-69089432D01*
X98144639Y-69091597D01*
X98151475Y-69092297D01*
X98151478Y-69092298D01*
X98194531Y-69096709D01*
X98249100Y-69102300D01*
X98849900Y-69102300D01*
X98853146Y-69101963D01*
X98853150Y-69101963D01*
X98948808Y-69092038D01*
X98948812Y-69092037D01*
X98955666Y-69091326D01*
X98962202Y-69089145D01*
X98962204Y-69089145D01*
X99095295Y-69044742D01*
X99123446Y-69035350D01*
X99273848Y-68942278D01*
X99352905Y-68863084D01*
X99415186Y-68829005D01*
X99442077Y-68826102D01*
X100009681Y-68826102D01*
X100013200Y-68826151D01*
X100089290Y-68828277D01*
X100089293Y-68828277D01*
X100095672Y-68828455D01*
X100132438Y-68821972D01*
X100152317Y-68818467D01*
X100161464Y-68817198D01*
X100195845Y-68813706D01*
X100218685Y-68811386D01*
X100224775Y-68809477D01*
X100224782Y-68809476D01*
X100244628Y-68803256D01*
X100260434Y-68799403D01*
X100280911Y-68795793D01*
X100280914Y-68795792D01*
X100287199Y-68794684D01*
X100320524Y-68781490D01*
X100340683Y-68773508D01*
X100349387Y-68770426D01*
X100404266Y-68753228D01*
X100428051Y-68740044D01*
X100442737Y-68733101D01*
X100468022Y-68723090D01*
X100516147Y-68691598D01*
X100524046Y-68686833D01*
X100574363Y-68658942D01*
X100595011Y-68641245D01*
X100608006Y-68631488D01*
X100630757Y-68616600D01*
X100635500Y-68612330D01*
X100672583Y-68575247D01*
X100679680Y-68568674D01*
X100717183Y-68536530D01*
X100722026Y-68532379D01*
X100739910Y-68509324D01*
X100750368Y-68497462D01*
X101654823Y-67593007D01*
X101717135Y-67558981D01*
X101743918Y-67556102D01*
X103806356Y-67556102D01*
X103872474Y-67574844D01*
X103874299Y-67575968D01*
X103881093Y-67580156D01*
X103928584Y-67632930D01*
X103940005Y-67703002D01*
X103911729Y-67768125D01*
X103892803Y-67786502D01*
X103889544Y-67789062D01*
X103880894Y-67797299D01*
X103750188Y-67947923D01*
X103743253Y-67957647D01*
X103643390Y-68130267D01*
X103638416Y-68141131D01*
X103572993Y-68329527D01*
X103572752Y-68330516D01*
X103574220Y-68340808D01*
X103587785Y-68344800D01*
X106262802Y-68344800D01*
X106276333Y-68340827D01*
X106277688Y-68331401D01*
X106256206Y-68242263D01*
X106252317Y-68230968D01*
X106169771Y-68049418D01*
X106163824Y-68039076D01*
X106048432Y-67876403D01*
X106040639Y-67867375D01*
X105949643Y-67780265D01*
X105914267Y-67718710D01*
X105917786Y-67647800D01*
X105959083Y-67590050D01*
X105970453Y-67582115D01*
X106026748Y-67547278D01*
X106151705Y-67422103D01*
X106165693Y-67399411D01*
X106240675Y-67277768D01*
X106240676Y-67277766D01*
X106244515Y-67271538D01*
X106300197Y-67103661D01*
X106310900Y-66999200D01*
X106310900Y-66198400D01*
X106309327Y-66183237D01*
X106300638Y-66099492D01*
X106300637Y-66099488D01*
X106299926Y-66092634D01*
X106292086Y-66069133D01*
X106246268Y-65931802D01*
X106243950Y-65924854D01*
X106204755Y-65861517D01*
X106185900Y-65795215D01*
X106185900Y-59291293D01*
X106186379Y-59280312D01*
X106190228Y-59236316D01*
X106190707Y-59230841D01*
X106190228Y-59225362D01*
X106189449Y-59216455D01*
X106189090Y-59210973D01*
X106173858Y-58862095D01*
X106173857Y-58862084D01*
X106173737Y-58859335D01*
X106135937Y-58572217D01*
X106125558Y-58493381D01*
X106125557Y-58493376D01*
X106125199Y-58490656D01*
X106044714Y-58127611D01*
X105932894Y-57772961D01*
X105790589Y-57429407D01*
X105618883Y-57099563D01*
X105591389Y-57056405D01*
X105420557Y-56788253D01*
X105419083Y-56785939D01*
X105417419Y-56783771D01*
X105417411Y-56783759D01*
X105194391Y-56493115D01*
X105192709Y-56490923D01*
X105190851Y-56488895D01*
X105190844Y-56488887D01*
X104971501Y-56249516D01*
X104954910Y-56231409D01*
X104951287Y-56227279D01*
X104945545Y-56220436D01*
X104942014Y-56216228D01*
X104903965Y-56184301D01*
X104895862Y-56176875D01*
X103367282Y-54648295D01*
X103333256Y-54585983D01*
X103338321Y-54515168D01*
X103367282Y-54470105D01*
X104269582Y-53567805D01*
X104331894Y-53533779D01*
X104358677Y-53530900D01*
X104683334Y-53530900D01*
X104745516Y-53524145D01*
X104881905Y-53473015D01*
X104998461Y-53385661D01*
X105085815Y-53269105D01*
X105136945Y-53132716D01*
X105143700Y-53070534D01*
X105143700Y-51374266D01*
X105136945Y-51312084D01*
X105085815Y-51175695D01*
X104998461Y-51059139D01*
X104881905Y-50971785D01*
X104745516Y-50920655D01*
X104701948Y-50915922D01*
X104686714Y-50914267D01*
X104686711Y-50914267D01*
X104683334Y-50913900D01*
X104680015Y-50913900D01*
X104613090Y-50890247D01*
X104577396Y-50844244D01*
X104575466Y-50845259D01*
X104569758Y-50834400D01*
X104569568Y-50834155D01*
X104569547Y-50833997D01*
X104549556Y-50795966D01*
X103848012Y-50094422D01*
X103834068Y-50086808D01*
X103832235Y-50086939D01*
X103825620Y-50091190D01*
X103120123Y-50796687D01*
X103097329Y-50838429D01*
X103095153Y-50848429D01*
X103044947Y-50898627D01*
X102991386Y-50913851D01*
X102990481Y-50913900D01*
X102987066Y-50913900D01*
X102983670Y-50914269D01*
X102983668Y-50914269D01*
X102971321Y-50915610D01*
X102924884Y-50920655D01*
X102788495Y-50971785D01*
X102671939Y-51059139D01*
X102584585Y-51175695D01*
X102533455Y-51312084D01*
X102526700Y-51374266D01*
X102526700Y-51698923D01*
X102506698Y-51767044D01*
X102489795Y-51788018D01*
X101104937Y-53172875D01*
X101092547Y-53183742D01*
X101074908Y-53197277D01*
X101020388Y-53257194D01*
X101020042Y-53257574D01*
X101015943Y-53261869D01*
X101000002Y-53277810D01*
X100998207Y-53279957D01*
X100998205Y-53279959D01*
X100983268Y-53297823D01*
X100979800Y-53301798D01*
X100927488Y-53359288D01*
X100927481Y-53359297D01*
X100923715Y-53363436D01*
X100920738Y-53368182D01*
X100920737Y-53368183D01*
X100914187Y-53378625D01*
X100904111Y-53392493D01*
X100896204Y-53401949D01*
X100896197Y-53401959D01*
X100892606Y-53406254D01*
X100851318Y-53478640D01*
X100848613Y-53483159D01*
X100804336Y-53553744D01*
X100802243Y-53558949D01*
X100802242Y-53558952D01*
X100797648Y-53570379D01*
X100790188Y-53585811D01*
X100784080Y-53596519D01*
X100784076Y-53596528D01*
X100781301Y-53601393D01*
X100779432Y-53606670D01*
X100779430Y-53606675D01*
X100764598Y-53648560D01*
X100723003Y-53706097D01*
X100656906Y-53732012D01*
X100645825Y-53732500D01*
X94817200Y-53732500D01*
X94749079Y-53712498D01*
X94702586Y-53658842D01*
X94691200Y-53606500D01*
X94691200Y-49727875D01*
X102522683Y-49727875D01*
X102541672Y-49944919D01*
X102543575Y-49955712D01*
X102599964Y-50166161D01*
X102603710Y-50176453D01*
X102695786Y-50373911D01*
X102701269Y-50383406D01*
X102737709Y-50435448D01*
X102748188Y-50443824D01*
X102761634Y-50436756D01*
X103463178Y-49735212D01*
X103469556Y-49723532D01*
X104199608Y-49723532D01*
X104199739Y-49725365D01*
X104203990Y-49731980D01*
X104909487Y-50437477D01*
X104921262Y-50443907D01*
X104933277Y-50434611D01*
X104969131Y-50383406D01*
X104974614Y-50373911D01*
X105066690Y-50176453D01*
X105070436Y-50166161D01*
X105126825Y-49955712D01*
X105128728Y-49944919D01*
X105147717Y-49727875D01*
X105147717Y-49716925D01*
X105128728Y-49499881D01*
X105126825Y-49489088D01*
X105070436Y-49278639D01*
X105066690Y-49268347D01*
X104974614Y-49070889D01*
X104969131Y-49061394D01*
X104932691Y-49009352D01*
X104922212Y-49000976D01*
X104908766Y-49008044D01*
X104207222Y-49709588D01*
X104199608Y-49723532D01*
X103469556Y-49723532D01*
X103470792Y-49721268D01*
X103470661Y-49719435D01*
X103466410Y-49712820D01*
X102760913Y-49007323D01*
X102749138Y-49000893D01*
X102737123Y-49010189D01*
X102701269Y-49061394D01*
X102695786Y-49070889D01*
X102603710Y-49268347D01*
X102599964Y-49278639D01*
X102543575Y-49489088D01*
X102541672Y-49499881D01*
X102522683Y-49716925D01*
X102522683Y-49727875D01*
X94691200Y-49727875D01*
X94691200Y-48635388D01*
X103113776Y-48635388D01*
X103120844Y-48648834D01*
X103822388Y-49350378D01*
X103836332Y-49357992D01*
X103838165Y-49357861D01*
X103844780Y-49353610D01*
X104550277Y-48648113D01*
X104556707Y-48636338D01*
X104547411Y-48624323D01*
X104496206Y-48588469D01*
X104486711Y-48582986D01*
X104289253Y-48490910D01*
X104278961Y-48487164D01*
X104068512Y-48430775D01*
X104057719Y-48428872D01*
X103840675Y-48409883D01*
X103829725Y-48409883D01*
X103612681Y-48428872D01*
X103601888Y-48430775D01*
X103391439Y-48487164D01*
X103381147Y-48490910D01*
X103183689Y-48582986D01*
X103174194Y-48588469D01*
X103122152Y-48624909D01*
X103113776Y-48635388D01*
X94691200Y-48635388D01*
X94691200Y-47980600D01*
X80619600Y-47980600D01*
X80619600Y-53606500D01*
X80599598Y-53674621D01*
X80545942Y-53721114D01*
X80493600Y-53732500D01*
X78323395Y-53732500D01*
X78306948Y-53731422D01*
X78290483Y-53729254D01*
X78290479Y-53729254D01*
X78284913Y-53728521D01*
X78203512Y-53732360D01*
X78197576Y-53732500D01*
X78113100Y-53732500D01*
X78044979Y-53712498D01*
X77998486Y-53658842D01*
X77987100Y-53606500D01*
X77987100Y-52759866D01*
X77980345Y-52697684D01*
X77929215Y-52561295D01*
X77841861Y-52444739D01*
X77725305Y-52357385D01*
X77588916Y-52306255D01*
X77526734Y-52299500D01*
X76801096Y-52299500D01*
X76771682Y-52296019D01*
X76618646Y-52259278D01*
X76618645Y-52259278D01*
X76613189Y-52257968D01*
X76529125Y-52253121D01*
X76394517Y-52245360D01*
X76394514Y-52245360D01*
X76388910Y-52245037D01*
X76165885Y-52272025D01*
X76136348Y-52281112D01*
X76094682Y-52293930D01*
X76057633Y-52299500D01*
X75330466Y-52299500D01*
X75268284Y-52306255D01*
X75131895Y-52357385D01*
X75015339Y-52444739D01*
X74927985Y-52561295D01*
X74876855Y-52697684D01*
X74870100Y-52759866D01*
X74870100Y-54256134D01*
X74876855Y-54318316D01*
X74927985Y-54454705D01*
X75015339Y-54571261D01*
X75022519Y-54576642D01*
X75022520Y-54576643D01*
X75123598Y-54652397D01*
X75166113Y-54709256D01*
X75173893Y-54747286D01*
X75176704Y-54806888D01*
X75177954Y-54812347D01*
X75177955Y-54812352D01*
X75180708Y-54824370D01*
X75183389Y-54841299D01*
X75184983Y-54859162D01*
X75186465Y-54864578D01*
X75186465Y-54864580D01*
X75206970Y-54939533D01*
X75208256Y-54944651D01*
X75226858Y-55025870D01*
X75229060Y-55031032D01*
X75233894Y-55042367D01*
X75239527Y-55058542D01*
X75244263Y-55075851D01*
X75246679Y-55080916D01*
X75280139Y-55151067D01*
X75282310Y-55155876D01*
X75314997Y-55232509D01*
X75324851Y-55247510D01*
X75333254Y-55262425D01*
X75340978Y-55278618D01*
X75344248Y-55283169D01*
X75344250Y-55283172D01*
X75389599Y-55346281D01*
X75392589Y-55350632D01*
X75435796Y-55416410D01*
X75435802Y-55416418D01*
X75438335Y-55420274D01*
X75456857Y-55441062D01*
X75465090Y-55451339D01*
X75472071Y-55461054D01*
X75476098Y-55464956D01*
X75548818Y-55535427D01*
X75550229Y-55536816D01*
X75829682Y-55816270D01*
X75840543Y-55828654D01*
X75854077Y-55846292D01*
X75858222Y-55850063D01*
X75858225Y-55850067D01*
X75914364Y-55901149D01*
X75918659Y-55905247D01*
X75934610Y-55921198D01*
X75954636Y-55937942D01*
X75958591Y-55941392D01*
X76020236Y-55997485D01*
X76024990Y-56000467D01*
X76035430Y-56007016D01*
X76049290Y-56017085D01*
X76063053Y-56028593D01*
X76067934Y-56031377D01*
X76135418Y-56069869D01*
X76139948Y-56072579D01*
X76210544Y-56116864D01*
X76215748Y-56118956D01*
X76227183Y-56123553D01*
X76242613Y-56131012D01*
X76253319Y-56137119D01*
X76253328Y-56137123D01*
X76258193Y-56139898D01*
X76336738Y-56167712D01*
X76341650Y-56169568D01*
X76418983Y-56200656D01*
X76436561Y-56204296D01*
X76453054Y-56208902D01*
X76462201Y-56212141D01*
X76463772Y-56212697D01*
X76469959Y-56214888D01*
X76475493Y-56215794D01*
X76475496Y-56215795D01*
X76541470Y-56226599D01*
X76545625Y-56227279D01*
X76552177Y-56228352D01*
X76557349Y-56229311D01*
X76638967Y-56246213D01*
X76654598Y-56247114D01*
X76666763Y-56247816D01*
X76679869Y-56249263D01*
X76686114Y-56250286D01*
X76686121Y-56250287D01*
X76691657Y-56251193D01*
X76697271Y-56251105D01*
X76697273Y-56251105D01*
X76798430Y-56249516D01*
X76800409Y-56249500D01*
X76822100Y-56249500D01*
X76890221Y-56269502D01*
X76936714Y-56323158D01*
X76948100Y-56375500D01*
X76948100Y-56393800D01*
X76928098Y-56461921D01*
X76874442Y-56508414D01*
X76822100Y-56519800D01*
X76532515Y-56519800D01*
X76517276Y-56524275D01*
X76516071Y-56525665D01*
X76514400Y-56533348D01*
X76514400Y-57455800D01*
X76494398Y-57523921D01*
X76440742Y-57570414D01*
X76388400Y-57581800D01*
X74898522Y-57581800D01*
X74884991Y-57585773D01*
X74883856Y-57593672D01*
X74887510Y-57606251D01*
X74887307Y-57677247D01*
X74848753Y-57736863D01*
X74784088Y-57766171D01*
X74715265Y-57756510D01*
X74659523Y-57731692D01*
X74659515Y-57731689D01*
X74653488Y-57729006D01*
X74560087Y-57709153D01*
X74473144Y-57690672D01*
X74473139Y-57690672D01*
X74466687Y-57689300D01*
X74275713Y-57689300D01*
X74269261Y-57690672D01*
X74269256Y-57690672D01*
X74182313Y-57709153D01*
X74088912Y-57729006D01*
X74082882Y-57731691D01*
X74082881Y-57731691D01*
X73920478Y-57803997D01*
X73920476Y-57803998D01*
X73914448Y-57806682D01*
X73759947Y-57918934D01*
X73755526Y-57923844D01*
X73755525Y-57923845D01*
X73659648Y-58030328D01*
X73632160Y-58060856D01*
X73536673Y-58226244D01*
X73477658Y-58407872D01*
X73476968Y-58414433D01*
X73476968Y-58414435D01*
X73468957Y-58490656D01*
X73457696Y-58597800D01*
X73477658Y-58787728D01*
X73536673Y-58969356D01*
X73632160Y-59134744D01*
X73636578Y-59139651D01*
X73636579Y-59139652D01*
X73718686Y-59230841D01*
X73759947Y-59276666D01*
X73914448Y-59388918D01*
X73920476Y-59391602D01*
X73920478Y-59391603D01*
X74082881Y-59463909D01*
X74088912Y-59466594D01*
X74182312Y-59486447D01*
X74269256Y-59504928D01*
X74269261Y-59504928D01*
X74275713Y-59506300D01*
X74466687Y-59506300D01*
X74473139Y-59504928D01*
X74473144Y-59504928D01*
X74560088Y-59486447D01*
X74653488Y-59466594D01*
X74659521Y-59463908D01*
X74659527Y-59463906D01*
X74714667Y-59439356D01*
X74785034Y-59429921D01*
X74849331Y-59460027D01*
X74887144Y-59520116D01*
X74886914Y-59589613D01*
X74879838Y-59613969D01*
X74876900Y-59651298D01*
X74876900Y-60084302D01*
X74879838Y-60121631D01*
X74891575Y-60162031D01*
X74923986Y-60273590D01*
X74926255Y-60281401D01*
X75010947Y-60424607D01*
X75013629Y-60427289D01*
X75038902Y-60491661D01*
X75025000Y-60561284D01*
X75014828Y-60577112D01*
X75010947Y-60580993D01*
X74926255Y-60724199D01*
X74924044Y-60731810D01*
X74924043Y-60731812D01*
X74908872Y-60784031D01*
X74879838Y-60883969D01*
X74876900Y-60921298D01*
X74876900Y-61354302D01*
X74879838Y-61391631D01*
X74884941Y-61409195D01*
X74923986Y-61543590D01*
X74926255Y-61551401D01*
X75010947Y-61694607D01*
X75016556Y-61700216D01*
X75016660Y-61700350D01*
X75042607Y-61766435D01*
X75043100Y-61777576D01*
X75043100Y-61912300D01*
X75023098Y-61980421D01*
X74969442Y-62026914D01*
X74917100Y-62038300D01*
X74832401Y-62038300D01*
X74829614Y-62038549D01*
X74829608Y-62038549D01*
X74759471Y-62044809D01*
X74665638Y-62053183D01*
X74644980Y-62058834D01*
X74611734Y-62063300D01*
X74589000Y-62063300D01*
X74585754Y-62063637D01*
X74585750Y-62063637D01*
X74490092Y-62073562D01*
X74490088Y-62073563D01*
X74483234Y-62074274D01*
X74476698Y-62076455D01*
X74476696Y-62076455D01*
X74351512Y-62118220D01*
X74315454Y-62130250D01*
X74165052Y-62223322D01*
X74040095Y-62348497D01*
X74037298Y-62353035D01*
X73980047Y-62393624D01*
X73909124Y-62396854D01*
X73847713Y-62361228D01*
X73840338Y-62352732D01*
X73832302Y-62342593D01*
X73717571Y-62228061D01*
X73706160Y-62219049D01*
X73568157Y-62133984D01*
X73554976Y-62127837D01*
X73400690Y-62076662D01*
X73387314Y-62073795D01*
X73292962Y-62064128D01*
X73286545Y-62063800D01*
X73261515Y-62063800D01*
X73246276Y-62068275D01*
X73245071Y-62069665D01*
X73243400Y-62077348D01*
X73243400Y-64511684D01*
X73247875Y-64526923D01*
X73249265Y-64528128D01*
X73256948Y-64529799D01*
X73286495Y-64529799D01*
X73293014Y-64529462D01*
X73388606Y-64519543D01*
X73402000Y-64516651D01*
X73556184Y-64465212D01*
X73569362Y-64459039D01*
X73707207Y-64373737D01*
X73718608Y-64364701D01*
X73833141Y-64249969D01*
X73840190Y-64241043D01*
X73898106Y-64199979D01*
X73969029Y-64196746D01*
X74030441Y-64232370D01*
X74037247Y-64240210D01*
X74040922Y-64246148D01*
X74166097Y-64371105D01*
X74172327Y-64374945D01*
X74172328Y-64374946D01*
X74309688Y-64459616D01*
X74316662Y-64463915D01*
X74381652Y-64485471D01*
X74478011Y-64517432D01*
X74478013Y-64517432D01*
X74484539Y-64519597D01*
X74491375Y-64520297D01*
X74491378Y-64520298D01*
X74534431Y-64524709D01*
X74589000Y-64530300D01*
X74626411Y-64530300D01*
X74651960Y-64532918D01*
X74744167Y-64552013D01*
X74748778Y-64552279D01*
X74748779Y-64552279D01*
X74799352Y-64555195D01*
X74799356Y-64555195D01*
X74801175Y-64555300D01*
X76260254Y-64555300D01*
X76267507Y-64555509D01*
X76341290Y-64559763D01*
X76346857Y-64559089D01*
X76346868Y-64559089D01*
X76370635Y-64556213D01*
X76385772Y-64555300D01*
X78623723Y-64555300D01*
X78691844Y-64575302D01*
X78712818Y-64592205D01*
X81387018Y-67266405D01*
X81421044Y-67328717D01*
X81415979Y-67399532D01*
X81373432Y-67456368D01*
X81306912Y-67481179D01*
X81297923Y-67481500D01*
X81174513Y-67481500D01*
X81168061Y-67482872D01*
X81168056Y-67482872D01*
X81081113Y-67501353D01*
X80987712Y-67521206D01*
X80981682Y-67523891D01*
X80981681Y-67523891D01*
X80819278Y-67596197D01*
X80819276Y-67596198D01*
X80813248Y-67598882D01*
X80807907Y-67602762D01*
X80807906Y-67602763D01*
X80766385Y-67632930D01*
X80658747Y-67711134D01*
X80654326Y-67716044D01*
X80654325Y-67716045D01*
X80614362Y-67760429D01*
X80530960Y-67853056D01*
X80435473Y-68018444D01*
X80376458Y-68200072D01*
X80375768Y-68206633D01*
X80375768Y-68206635D01*
X80362852Y-68329527D01*
X80356496Y-68390000D01*
X80357186Y-68396565D01*
X80375606Y-68571817D01*
X80376458Y-68579928D01*
X80435473Y-68761556D01*
X80438776Y-68767278D01*
X80438777Y-68767279D01*
X80486347Y-68849672D01*
X80530960Y-68926944D01*
X80533983Y-68930302D01*
X80557583Y-68996442D01*
X80541502Y-69065594D01*
X80490588Y-69115074D01*
X80421005Y-69129173D01*
X80392121Y-69123228D01*
X80367538Y-69115074D01*
X80298086Y-69092038D01*
X80239989Y-69072768D01*
X80239987Y-69072768D01*
X80233461Y-69070603D01*
X80226625Y-69069903D01*
X80226622Y-69069902D01*
X80171514Y-69064256D01*
X80129000Y-69059900D01*
X79078200Y-69059900D01*
X79074954Y-69060237D01*
X79074950Y-69060237D01*
X78979292Y-69070162D01*
X78979288Y-69070163D01*
X78972434Y-69070874D01*
X78965898Y-69073055D01*
X78965896Y-69073055D01*
X78878239Y-69102300D01*
X78804654Y-69126850D01*
X78654252Y-69219922D01*
X78649079Y-69225104D01*
X78600936Y-69273331D01*
X78538654Y-69307410D01*
X78467833Y-69302407D01*
X78422745Y-69273486D01*
X78398483Y-69249266D01*
X78393303Y-69244095D01*
X78387072Y-69240254D01*
X78248968Y-69155125D01*
X78248966Y-69155124D01*
X78242738Y-69151285D01*
X78235791Y-69148981D01*
X78229156Y-69145887D01*
X78230540Y-69142920D01*
X78184140Y-69110764D01*
X78167615Y-69084069D01*
X78166609Y-69081873D01*
X78164351Y-69074901D01*
X78160550Y-69068637D01*
X78158036Y-69063146D01*
X78155330Y-69057742D01*
X78152833Y-69050863D01*
X78123141Y-69005575D01*
X78112814Y-68989824D01*
X78110467Y-68986105D01*
X78102189Y-68972463D01*
X78072595Y-68923693D01*
X78065197Y-68915316D01*
X78065224Y-68915292D01*
X78062571Y-68912300D01*
X78059868Y-68909067D01*
X78055856Y-68902948D01*
X77999617Y-68849672D01*
X77997175Y-68847294D01*
X77221725Y-68071844D01*
X77190987Y-68021685D01*
X77188075Y-68012721D01*
X77136127Y-67852844D01*
X77040640Y-67687456D01*
X76998735Y-67640915D01*
X76917275Y-67550445D01*
X76917274Y-67550444D01*
X76912853Y-67545534D01*
X76758352Y-67433282D01*
X76752324Y-67430598D01*
X76752322Y-67430597D01*
X76589919Y-67358291D01*
X76589918Y-67358291D01*
X76583888Y-67355606D01*
X76490488Y-67335753D01*
X76403544Y-67317272D01*
X76403539Y-67317272D01*
X76397087Y-67315900D01*
X76206113Y-67315900D01*
X76199661Y-67317272D01*
X76199656Y-67317272D01*
X76112712Y-67335753D01*
X76019312Y-67355606D01*
X76013282Y-67358291D01*
X76013281Y-67358291D01*
X75850878Y-67430597D01*
X75850876Y-67430598D01*
X75844848Y-67433282D01*
X75690347Y-67545534D01*
X75685926Y-67550444D01*
X75685925Y-67550445D01*
X75604466Y-67640915D01*
X75562560Y-67687456D01*
X75467073Y-67852844D01*
X75408058Y-68034472D01*
X75388096Y-68224400D01*
X75408058Y-68414328D01*
X75467073Y-68595956D01*
X75470376Y-68601678D01*
X75470377Y-68601679D01*
X75477132Y-68613379D01*
X75562560Y-68761344D01*
X75566978Y-68766251D01*
X75566979Y-68766252D01*
X75642017Y-68849590D01*
X75672735Y-68913597D01*
X75663970Y-68984051D01*
X75618507Y-69038582D01*
X75548381Y-69059900D01*
X74811000Y-69059900D01*
X74807754Y-69060237D01*
X74807750Y-69060237D01*
X74712092Y-69070162D01*
X74712088Y-69070163D01*
X74705234Y-69070874D01*
X74698698Y-69073055D01*
X74698696Y-69073055D01*
X74611039Y-69102300D01*
X74537454Y-69126850D01*
X74387052Y-69219922D01*
X74381879Y-69225104D01*
X74334148Y-69272918D01*
X74271865Y-69306997D01*
X74244975Y-69309900D01*
X73864263Y-69309900D01*
X73845314Y-69308467D01*
X73845107Y-69308436D01*
X73823851Y-69305202D01*
X73816559Y-69305795D01*
X73816556Y-69305795D01*
X73771191Y-69309485D01*
X73760977Y-69309900D01*
X73752907Y-69309900D01*
X73749287Y-69310322D01*
X73749269Y-69310323D01*
X73724661Y-69313192D01*
X73720300Y-69313624D01*
X73695181Y-69315667D01*
X73654861Y-69318946D01*
X73654858Y-69318947D01*
X73647563Y-69319540D01*
X73640599Y-69321796D01*
X73634640Y-69322987D01*
X73628785Y-69324371D01*
X73621519Y-69325218D01*
X73552873Y-69350135D01*
X73548745Y-69351552D01*
X73486264Y-69371793D01*
X73486262Y-69371794D01*
X73479301Y-69374049D01*
X73473046Y-69377845D01*
X73467572Y-69380351D01*
X73462142Y-69383070D01*
X73455263Y-69385567D01*
X73394216Y-69425591D01*
X73390527Y-69427918D01*
X73385762Y-69430810D01*
X73332893Y-69462891D01*
X73332888Y-69462895D01*
X73328092Y-69465805D01*
X73319716Y-69473203D01*
X73319693Y-69473177D01*
X73316703Y-69475826D01*
X73313464Y-69478534D01*
X73307348Y-69482544D01*
X73302321Y-69487851D01*
X73302317Y-69487854D01*
X73254072Y-69538783D01*
X73251694Y-69541225D01*
X72815489Y-69977430D01*
X72801077Y-69989816D01*
X72789482Y-69998349D01*
X72789477Y-69998354D01*
X72783582Y-70002692D01*
X72778843Y-70008270D01*
X72778840Y-70008273D01*
X72749365Y-70042968D01*
X72742435Y-70050484D01*
X72736740Y-70056179D01*
X72734460Y-70059061D01*
X72719119Y-70078451D01*
X72716328Y-70081855D01*
X72673809Y-70131903D01*
X72669067Y-70137485D01*
X72665739Y-70144001D01*
X72662372Y-70149050D01*
X72659205Y-70154179D01*
X72654666Y-70159916D01*
X72623745Y-70226075D01*
X72621842Y-70229969D01*
X72588631Y-70295008D01*
X72586892Y-70302116D01*
X72584793Y-70307759D01*
X72582876Y-70313522D01*
X72579778Y-70320150D01*
X72578288Y-70327312D01*
X72578288Y-70327313D01*
X72564914Y-70391612D01*
X72563944Y-70395896D01*
X72546592Y-70466810D01*
X72545900Y-70477964D01*
X72545864Y-70477962D01*
X72545625Y-70481955D01*
X72545251Y-70486147D01*
X72543760Y-70493315D01*
X72543958Y-70500632D01*
X72545854Y-70570721D01*
X72545900Y-70574128D01*
X72545900Y-72314800D01*
X72525898Y-72382921D01*
X72472242Y-72429414D01*
X72419900Y-72440800D01*
X71537500Y-72440800D01*
X71534152Y-72441160D01*
X71534151Y-72441160D01*
X71529296Y-72441682D01*
X71429520Y-72452409D01*
X71426236Y-72453123D01*
X71426232Y-72453124D01*
X71406323Y-72457455D01*
X71377178Y-72463795D01*
X71274128Y-72498093D01*
X71152490Y-72576265D01*
X71098834Y-72622758D01*
X71095893Y-72626152D01*
X71080304Y-72644143D01*
X71004145Y-72732034D01*
X70944079Y-72863560D01*
X70937104Y-72887314D01*
X70936844Y-72888202D01*
X70924077Y-72931681D01*
X70923437Y-72936129D01*
X70923436Y-72936136D01*
X70904139Y-73070352D01*
X70904138Y-73070359D01*
X70903500Y-73074800D01*
X70903500Y-74544474D01*
X70883498Y-74612595D01*
X70829842Y-74659088D01*
X70759568Y-74669192D01*
X70751090Y-74667675D01*
X70747919Y-74666995D01*
X70653562Y-74657328D01*
X70647145Y-74657000D01*
X70472115Y-74657000D01*
X70456876Y-74661475D01*
X70455671Y-74662865D01*
X70454000Y-74670548D01*
X70454000Y-77372011D01*
X70452718Y-77389942D01*
X70451139Y-77400921D01*
X70451138Y-77400928D01*
X70450500Y-77405369D01*
X70450500Y-77707629D01*
X70453410Y-77761923D01*
X70456289Y-77788706D01*
X70464990Y-77842402D01*
X70515521Y-77977876D01*
X70517674Y-77981819D01*
X70517675Y-77981821D01*
X70547391Y-78036240D01*
X70549547Y-78040188D01*
X70552242Y-78043788D01*
X70633498Y-78152332D01*
X70633502Y-78152336D01*
X70636195Y-78155934D01*
X70978481Y-78498220D01*
X71012507Y-78560532D01*
X71007442Y-78631347D01*
X70978485Y-78676407D01*
X70972414Y-78682478D01*
X70895915Y-78784551D01*
X70887377Y-78800146D01*
X70842223Y-78920594D01*
X70838596Y-78935849D01*
X70833070Y-78986714D01*
X70832701Y-78993528D01*
X70832701Y-79048820D01*
X70812699Y-79116941D01*
X70759043Y-79163434D01*
X70688769Y-79173538D01*
X70624189Y-79144044D01*
X70617618Y-79137927D01*
X69760603Y-78280913D01*
X69726579Y-78218602D01*
X69731643Y-78147787D01*
X69754475Y-78109306D01*
X69842953Y-78007198D01*
X69842955Y-78007195D01*
X69848855Y-78000386D01*
X69861060Y-77973662D01*
X69907052Y-77872952D01*
X69908921Y-77868860D01*
X69928923Y-77800739D01*
X69930415Y-77790364D01*
X69948861Y-77662068D01*
X69948862Y-77662061D01*
X69949500Y-77657620D01*
X69949500Y-77405418D01*
X69946787Y-77381250D01*
X69946000Y-77367195D01*
X69946000Y-74675116D01*
X69941525Y-74659877D01*
X69940135Y-74658672D01*
X69932452Y-74657001D01*
X69752905Y-74657001D01*
X69746386Y-74657338D01*
X69650794Y-74667257D01*
X69637400Y-74670149D01*
X69568376Y-74693177D01*
X69497426Y-74695761D01*
X69436343Y-74659577D01*
X69404518Y-74596113D01*
X69402500Y-74573653D01*
X69402500Y-73906805D01*
X69384324Y-73772133D01*
X69366614Y-73707719D01*
X69358512Y-73688685D01*
X69319076Y-73596046D01*
X69313392Y-73582694D01*
X69222541Y-73470208D01*
X69209433Y-73458031D01*
X69173140Y-73397011D01*
X69169930Y-73352114D01*
X69172431Y-73329091D01*
X69172800Y-73322272D01*
X69172800Y-72849715D01*
X69168325Y-72834476D01*
X69166935Y-72833271D01*
X69159252Y-72831600D01*
X67486800Y-72831600D01*
X67418679Y-72811598D01*
X67372186Y-72757942D01*
X67360800Y-72705600D01*
X67360800Y-72305485D01*
X67868800Y-72305485D01*
X67873275Y-72320724D01*
X67874665Y-72321929D01*
X67882348Y-72323600D01*
X69154684Y-72323600D01*
X69169923Y-72319125D01*
X69171128Y-72317735D01*
X69172799Y-72310052D01*
X69172799Y-71832931D01*
X69172429Y-71826110D01*
X69166905Y-71775248D01*
X69163279Y-71759996D01*
X69118124Y-71639546D01*
X69109586Y-71623951D01*
X69033085Y-71521876D01*
X69020524Y-71509315D01*
X68918449Y-71432814D01*
X68902854Y-71424276D01*
X68782406Y-71379122D01*
X68767151Y-71375495D01*
X68716286Y-71369969D01*
X68709472Y-71369600D01*
X67886915Y-71369600D01*
X67871676Y-71374075D01*
X67870471Y-71375465D01*
X67868800Y-71383148D01*
X67868800Y-72305485D01*
X67360800Y-72305485D01*
X67360800Y-71387716D01*
X67356325Y-71372477D01*
X67354935Y-71371272D01*
X67347252Y-71369601D01*
X66520131Y-71369601D01*
X66513310Y-71369971D01*
X66462448Y-71375495D01*
X66447196Y-71379121D01*
X66326746Y-71424276D01*
X66311151Y-71432814D01*
X66209076Y-71509315D01*
X66196515Y-71521876D01*
X66120014Y-71623951D01*
X66111476Y-71639546D01*
X66066322Y-71759994D01*
X66062695Y-71775249D01*
X66057169Y-71826114D01*
X66056800Y-71832928D01*
X66056800Y-72314836D01*
X66036798Y-72382957D01*
X65983142Y-72429450D01*
X65930300Y-72438971D01*
X65930300Y-72440800D01*
X63621300Y-72440800D01*
X63617952Y-72441160D01*
X63614575Y-72441341D01*
X63614530Y-72440498D01*
X63548236Y-72428531D01*
X63496279Y-72380147D01*
X63486665Y-72360093D01*
X63440125Y-72235948D01*
X63431586Y-72220351D01*
X63355085Y-72118276D01*
X63342524Y-72105715D01*
X63240449Y-72029214D01*
X63224854Y-72020676D01*
X63104406Y-71975522D01*
X63089151Y-71971895D01*
X63038286Y-71966369D01*
X63031472Y-71966000D01*
X62933915Y-71966000D01*
X62918676Y-71970475D01*
X62917471Y-71971865D01*
X62915800Y-71979548D01*
X62915800Y-73602000D01*
X62895798Y-73670121D01*
X62842142Y-73716614D01*
X62789800Y-73728000D01*
X62533800Y-73728000D01*
X62465679Y-73707998D01*
X62419186Y-73654342D01*
X62407800Y-73602000D01*
X62407800Y-71984116D01*
X62403325Y-71968877D01*
X62401935Y-71967672D01*
X62394252Y-71966001D01*
X62292131Y-71966001D01*
X62285310Y-71966371D01*
X62234448Y-71971895D01*
X62219196Y-71975521D01*
X62098746Y-72020676D01*
X62083151Y-72029214D01*
X61981076Y-72105715D01*
X61968515Y-72118276D01*
X61892014Y-72220351D01*
X61883476Y-72235946D01*
X61836888Y-72360218D01*
X61794246Y-72416982D01*
X61727685Y-72441682D01*
X61709915Y-72441667D01*
X61706761Y-72441441D01*
X61702300Y-72440800D01*
X59624590Y-72440800D01*
X59570296Y-72443710D01*
X59568625Y-72443890D01*
X59568608Y-72443891D01*
X59545193Y-72446408D01*
X59545178Y-72446410D01*
X59543513Y-72446589D01*
X59521968Y-72450080D01*
X59495930Y-72454299D01*
X59495926Y-72454300D01*
X59489817Y-72455290D01*
X59467015Y-72463795D01*
X59358557Y-72504249D01*
X59358555Y-72504250D01*
X59354343Y-72505821D01*
X59350400Y-72507974D01*
X59350398Y-72507975D01*
X59295979Y-72537691D01*
X59292031Y-72539847D01*
X59288431Y-72542542D01*
X59179887Y-72623798D01*
X59179883Y-72623802D01*
X59176285Y-72626495D01*
X58250095Y-73552685D01*
X58213765Y-73593128D01*
X58196862Y-73614102D01*
X58195871Y-73615476D01*
X58195859Y-73615492D01*
X58185760Y-73629498D01*
X58165045Y-73658224D01*
X58162475Y-73663850D01*
X58162474Y-73663853D01*
X58144905Y-73702325D01*
X58104979Y-73789750D01*
X58084977Y-73857871D01*
X58084337Y-73862319D01*
X58084336Y-73862326D01*
X58065039Y-73996542D01*
X58065038Y-73996549D01*
X58064400Y-74000990D01*
X58064400Y-84901410D01*
X15621000Y-84901410D01*
X15621000Y-72818880D01*
X30994992Y-72818880D01*
X30995355Y-72823028D01*
X30995355Y-72823032D01*
X31020487Y-73110293D01*
X31020488Y-73110301D01*
X31020852Y-73114459D01*
X31021766Y-73118548D01*
X31077423Y-73367540D01*
X31085577Y-73404021D01*
X31087019Y-73407941D01*
X31087021Y-73407947D01*
X31185707Y-73676169D01*
X31188029Y-73682480D01*
X31189980Y-73686180D01*
X31189982Y-73686185D01*
X31308533Y-73911036D01*
X31326410Y-73944942D01*
X31498288Y-74186797D01*
X31700642Y-74403796D01*
X31929918Y-74592125D01*
X32182088Y-74748477D01*
X32452722Y-74870105D01*
X32625390Y-74921580D01*
X32733065Y-74953679D01*
X32733067Y-74953679D01*
X32737064Y-74954871D01*
X32741184Y-74955524D01*
X32741186Y-74955524D01*
X32860106Y-74974359D01*
X33030119Y-75001286D01*
X33075146Y-75003331D01*
X33121497Y-75005436D01*
X33121516Y-75005436D01*
X33122916Y-75005500D01*
X33308264Y-75005500D01*
X33529056Y-74990835D01*
X33819910Y-74932188D01*
X34100453Y-74835590D01*
X34104196Y-74833716D01*
X34104200Y-74833714D01*
X34362012Y-74704611D01*
X34362014Y-74704610D01*
X34365756Y-74702736D01*
X34468135Y-74633159D01*
X34607699Y-74538312D01*
X34607702Y-74538310D01*
X34611158Y-74535961D01*
X34832346Y-74338196D01*
X34868332Y-74296211D01*
X35022718Y-74116085D01*
X35025436Y-74112914D01*
X35054485Y-74068182D01*
X35184763Y-73867572D01*
X35184765Y-73867569D01*
X35187035Y-73864073D01*
X35220276Y-73794069D01*
X35261145Y-73707998D01*
X35314304Y-73596046D01*
X35315584Y-73592060D01*
X35403726Y-73317530D01*
X35403727Y-73317524D01*
X35405006Y-73313542D01*
X35440106Y-73118465D01*
X35456809Y-73025632D01*
X35456810Y-73025627D01*
X35457548Y-73021523D01*
X35460033Y-72966820D01*
X35470819Y-72729290D01*
X35470819Y-72729285D01*
X35471008Y-72725120D01*
X35470645Y-72720968D01*
X35445513Y-72433707D01*
X35445512Y-72433699D01*
X35445148Y-72429541D01*
X35429652Y-72360218D01*
X35381336Y-72144063D01*
X35381336Y-72144061D01*
X35380423Y-72139979D01*
X35373008Y-72119823D01*
X35279418Y-71865452D01*
X35279416Y-71865448D01*
X35277971Y-71861520D01*
X35267900Y-71842417D01*
X35141543Y-71602762D01*
X35141542Y-71602761D01*
X35139590Y-71599058D01*
X34967712Y-71357203D01*
X34765358Y-71140204D01*
X34536082Y-70951875D01*
X34283912Y-70795523D01*
X34013278Y-70673895D01*
X33840610Y-70622420D01*
X33732935Y-70590321D01*
X33732933Y-70590321D01*
X33728936Y-70589129D01*
X33724816Y-70588476D01*
X33724814Y-70588476D01*
X33605894Y-70569641D01*
X33435881Y-70542714D01*
X33390854Y-70540669D01*
X33344503Y-70538564D01*
X33344484Y-70538564D01*
X33343084Y-70538500D01*
X33157736Y-70538500D01*
X32936944Y-70553165D01*
X32646090Y-70611812D01*
X32543318Y-70647199D01*
X32397616Y-70697368D01*
X32365547Y-70708410D01*
X32361804Y-70710284D01*
X32361800Y-70710286D01*
X32106191Y-70838286D01*
X32100244Y-70841264D01*
X32067191Y-70863727D01*
X31883671Y-70988447D01*
X31854842Y-71008039D01*
X31633654Y-71205804D01*
X31440564Y-71431086D01*
X31438290Y-71434588D01*
X31438289Y-71434589D01*
X31290341Y-71662410D01*
X31278965Y-71679927D01*
X31277177Y-71683693D01*
X31277174Y-71683698D01*
X31255740Y-71728839D01*
X31151696Y-71947954D01*
X31150417Y-71951937D01*
X31150416Y-71951940D01*
X31078331Y-72176460D01*
X31060994Y-72230458D01*
X31048641Y-72299114D01*
X31011732Y-72504249D01*
X31008452Y-72522477D01*
X31008263Y-72526644D01*
X31008262Y-72526651D01*
X30995181Y-72814710D01*
X30994992Y-72818880D01*
X15621000Y-72818880D01*
X15621000Y-65972583D01*
X23196828Y-65972583D01*
X23199658Y-66092634D01*
X23202817Y-66226671D01*
X23202935Y-66231689D01*
X23203769Y-66236394D01*
X23223336Y-66346800D01*
X23248163Y-66486890D01*
X23331473Y-66732313D01*
X23333674Y-66736549D01*
X23333676Y-66736555D01*
X23363774Y-66794495D01*
X23450947Y-66962311D01*
X23453762Y-66966165D01*
X23453765Y-66966169D01*
X23549215Y-67096822D01*
X23603837Y-67171590D01*
X23607209Y-67174980D01*
X23607211Y-67174982D01*
X23783248Y-67351945D01*
X23783253Y-67351949D01*
X23786622Y-67355336D01*
X23995099Y-67509319D01*
X23999337Y-67511549D01*
X23999339Y-67511550D01*
X24220232Y-67627768D01*
X24220239Y-67627771D01*
X24224468Y-67629996D01*
X24228984Y-67631555D01*
X24228990Y-67631558D01*
X24348077Y-67672679D01*
X24469451Y-67714590D01*
X24587193Y-67736093D01*
X24720441Y-67760429D01*
X24720445Y-67760429D01*
X24724412Y-67761154D01*
X24807342Y-67765500D01*
X24968903Y-67765500D01*
X24971282Y-67765319D01*
X24971283Y-67765319D01*
X25156664Y-67751218D01*
X25156669Y-67751217D01*
X25161431Y-67750855D01*
X25166084Y-67749776D01*
X25166087Y-67749776D01*
X25381273Y-67699898D01*
X25413915Y-67692332D01*
X25654642Y-67596292D01*
X25878072Y-67464944D01*
X25881783Y-67461923D01*
X25881787Y-67461920D01*
X26075351Y-67304334D01*
X26079063Y-67301312D01*
X26082272Y-67297767D01*
X26082277Y-67297762D01*
X26249774Y-67112713D01*
X26252990Y-67109160D01*
X26395851Y-66892910D01*
X26399016Y-66886046D01*
X26502352Y-66661892D01*
X26502353Y-66661889D01*
X26504358Y-66657540D01*
X26531875Y-66561894D01*
X26574694Y-66413058D01*
X26574695Y-66413053D01*
X26576015Y-66408465D01*
X26583970Y-66346800D01*
X26608561Y-66156154D01*
X26609172Y-66151417D01*
X26603832Y-65924854D01*
X26603178Y-65897091D01*
X26603178Y-65897087D01*
X26603065Y-65892311D01*
X26557837Y-65637110D01*
X26555462Y-65630112D01*
X26476064Y-65396215D01*
X26474527Y-65391687D01*
X26472326Y-65387451D01*
X26472324Y-65387445D01*
X26391104Y-65231090D01*
X26355053Y-65161689D01*
X26344918Y-65147815D01*
X26204986Y-64956274D01*
X26204985Y-64956273D01*
X26202163Y-64952410D01*
X26142827Y-64892762D01*
X26022752Y-64772055D01*
X26022747Y-64772051D01*
X26019378Y-64768664D01*
X25810901Y-64614681D01*
X25806661Y-64612450D01*
X25585768Y-64496232D01*
X25585761Y-64496229D01*
X25581532Y-64494004D01*
X25577016Y-64492445D01*
X25577010Y-64492442D01*
X25406148Y-64433443D01*
X25336549Y-64409410D01*
X25218807Y-64387907D01*
X25085559Y-64363571D01*
X25085555Y-64363571D01*
X25081588Y-64362846D01*
X24998658Y-64358500D01*
X24837097Y-64358500D01*
X24834718Y-64358681D01*
X24834717Y-64358681D01*
X24649336Y-64372782D01*
X24649331Y-64372783D01*
X24644569Y-64373145D01*
X24639916Y-64374224D01*
X24639913Y-64374224D01*
X24533826Y-64398814D01*
X24392085Y-64431668D01*
X24151358Y-64527708D01*
X23927928Y-64659056D01*
X23924217Y-64662077D01*
X23924213Y-64662080D01*
X23851736Y-64721086D01*
X23726937Y-64822688D01*
X23723728Y-64826233D01*
X23723723Y-64826238D01*
X23606021Y-64956274D01*
X23553010Y-65014840D01*
X23410149Y-65231090D01*
X23408148Y-65235430D01*
X23408146Y-65235434D01*
X23334025Y-65396215D01*
X23301642Y-65466460D01*
X23300318Y-65471062D01*
X23250413Y-65644530D01*
X23229985Y-65715535D01*
X23229374Y-65720270D01*
X23229373Y-65720276D01*
X23204042Y-65916656D01*
X23196828Y-65972583D01*
X15621000Y-65972583D01*
X15621000Y-63818895D01*
X71981401Y-63818895D01*
X71981738Y-63825414D01*
X71991657Y-63921006D01*
X71994549Y-63934400D01*
X72045988Y-64088584D01*
X72052161Y-64101762D01*
X72137463Y-64239607D01*
X72146499Y-64251008D01*
X72261229Y-64365539D01*
X72272640Y-64374551D01*
X72410643Y-64459616D01*
X72423824Y-64465763D01*
X72578110Y-64516938D01*
X72591486Y-64519805D01*
X72685838Y-64529472D01*
X72692254Y-64529800D01*
X72717285Y-64529800D01*
X72732524Y-64525325D01*
X72733729Y-64523935D01*
X72735400Y-64516252D01*
X72735400Y-63568915D01*
X72730925Y-63553676D01*
X72729535Y-63552471D01*
X72721852Y-63550800D01*
X71999516Y-63550800D01*
X71984277Y-63555275D01*
X71983072Y-63556665D01*
X71981401Y-63564348D01*
X71981401Y-63818895D01*
X15621000Y-63818895D01*
X15621000Y-63024685D01*
X71981400Y-63024685D01*
X71985875Y-63039924D01*
X71987265Y-63041129D01*
X71994948Y-63042800D01*
X72717285Y-63042800D01*
X72732524Y-63038325D01*
X72733729Y-63036935D01*
X72735400Y-63029252D01*
X72735400Y-62081916D01*
X72730925Y-62066677D01*
X72729535Y-62065472D01*
X72721852Y-62063801D01*
X72692305Y-62063801D01*
X72685786Y-62064138D01*
X72590194Y-62074057D01*
X72576800Y-62076949D01*
X72422616Y-62128388D01*
X72409438Y-62134561D01*
X72271593Y-62219863D01*
X72260192Y-62228899D01*
X72145661Y-62343629D01*
X72136649Y-62355040D01*
X72051584Y-62493043D01*
X72045437Y-62506224D01*
X71994262Y-62660510D01*
X71991395Y-62673886D01*
X71981728Y-62768238D01*
X71981400Y-62774655D01*
X71981400Y-63024685D01*
X15621000Y-63024685D01*
X15621000Y-61403671D01*
X69733856Y-61403671D01*
X69774507Y-61543590D01*
X69780752Y-61558021D01*
X69857311Y-61687478D01*
X69866951Y-61699904D01*
X69973296Y-61806249D01*
X69985722Y-61815889D01*
X70115179Y-61892448D01*
X70129610Y-61898693D01*
X70275465Y-61941069D01*
X70288067Y-61943370D01*
X70316484Y-61945607D01*
X70321414Y-61945800D01*
X70838285Y-61945800D01*
X70853524Y-61941325D01*
X70854729Y-61939935D01*
X70856400Y-61932252D01*
X70856400Y-61927684D01*
X71364400Y-61927684D01*
X71368875Y-61942923D01*
X71370265Y-61944128D01*
X71377948Y-61945799D01*
X71899384Y-61945799D01*
X71904320Y-61945605D01*
X71932736Y-61943370D01*
X71945331Y-61941070D01*
X72091190Y-61898693D01*
X72105621Y-61892448D01*
X72235078Y-61815889D01*
X72247504Y-61806249D01*
X72353849Y-61699904D01*
X72363489Y-61687478D01*
X72440048Y-61558021D01*
X72446293Y-61543590D01*
X72485339Y-61409195D01*
X72485299Y-61395094D01*
X72478030Y-61391800D01*
X71382515Y-61391800D01*
X71367276Y-61396275D01*
X71366071Y-61397665D01*
X71364400Y-61405348D01*
X71364400Y-61927684D01*
X70856400Y-61927684D01*
X70856400Y-61409915D01*
X70851925Y-61394676D01*
X70850535Y-61393471D01*
X70842852Y-61391800D01*
X69748522Y-61391800D01*
X69734991Y-61395773D01*
X69733856Y-61403671D01*
X15621000Y-61403671D01*
X15621000Y-60133671D01*
X69733856Y-60133671D01*
X69774507Y-60273590D01*
X69780752Y-60288021D01*
X69857312Y-60417478D01*
X69863589Y-60425570D01*
X69889539Y-60491654D01*
X69875641Y-60561277D01*
X69863589Y-60580030D01*
X69857312Y-60588122D01*
X69780752Y-60717579D01*
X69774507Y-60732010D01*
X69735461Y-60866405D01*
X69735501Y-60880506D01*
X69742770Y-60883800D01*
X70838285Y-60883800D01*
X70853524Y-60879325D01*
X70854729Y-60877935D01*
X70856400Y-60870252D01*
X70856400Y-60865685D01*
X71364400Y-60865685D01*
X71368875Y-60880924D01*
X71370265Y-60882129D01*
X71377948Y-60883800D01*
X72472278Y-60883800D01*
X72485809Y-60879827D01*
X72486944Y-60871929D01*
X72446293Y-60732010D01*
X72440048Y-60717579D01*
X72363488Y-60588122D01*
X72357211Y-60580030D01*
X72331261Y-60513946D01*
X72345159Y-60444323D01*
X72357211Y-60425570D01*
X72363488Y-60417478D01*
X72440048Y-60288021D01*
X72446293Y-60273590D01*
X72485339Y-60139195D01*
X72485299Y-60125094D01*
X72478030Y-60121800D01*
X71382515Y-60121800D01*
X71367276Y-60126275D01*
X71366071Y-60127665D01*
X71364400Y-60135348D01*
X71364400Y-60865685D01*
X70856400Y-60865685D01*
X70856400Y-60139915D01*
X70851925Y-60124676D01*
X70850535Y-60123471D01*
X70842852Y-60121800D01*
X69748522Y-60121800D01*
X69734991Y-60125773D01*
X69733856Y-60133671D01*
X15621000Y-60133671D01*
X15621000Y-58863671D01*
X69733856Y-58863671D01*
X69774507Y-59003590D01*
X69780752Y-59018021D01*
X69857312Y-59147478D01*
X69863589Y-59155570D01*
X69889539Y-59221654D01*
X69875641Y-59291277D01*
X69863589Y-59310030D01*
X69857312Y-59318122D01*
X69780752Y-59447579D01*
X69774507Y-59462010D01*
X69735461Y-59596405D01*
X69735501Y-59610506D01*
X69742770Y-59613800D01*
X70838285Y-59613800D01*
X70853524Y-59609325D01*
X70854729Y-59607935D01*
X70856400Y-59600252D01*
X70856400Y-59595685D01*
X71364400Y-59595685D01*
X71368875Y-59610924D01*
X71370265Y-59612129D01*
X71377948Y-59613800D01*
X72472278Y-59613800D01*
X72485809Y-59609827D01*
X72486944Y-59601929D01*
X72446293Y-59462010D01*
X72440048Y-59447579D01*
X72363488Y-59318122D01*
X72357211Y-59310030D01*
X72331261Y-59243946D01*
X72345159Y-59174323D01*
X72357211Y-59155570D01*
X72363488Y-59147478D01*
X72440048Y-59018021D01*
X72446293Y-59003590D01*
X72485339Y-58869195D01*
X72485299Y-58855094D01*
X72478030Y-58851800D01*
X71382515Y-58851800D01*
X71367276Y-58856275D01*
X71366071Y-58857665D01*
X71364400Y-58865348D01*
X71364400Y-59595685D01*
X70856400Y-59595685D01*
X70856400Y-58869915D01*
X70851925Y-58854676D01*
X70850535Y-58853471D01*
X70842852Y-58851800D01*
X69748522Y-58851800D01*
X69734991Y-58855773D01*
X69733856Y-58863671D01*
X15621000Y-58863671D01*
X15621000Y-57593671D01*
X69733856Y-57593671D01*
X69774507Y-57733590D01*
X69780752Y-57748021D01*
X69857312Y-57877478D01*
X69863589Y-57885570D01*
X69889539Y-57951654D01*
X69875641Y-58021277D01*
X69863589Y-58040030D01*
X69857312Y-58048122D01*
X69780752Y-58177579D01*
X69774507Y-58192010D01*
X69735461Y-58326405D01*
X69735501Y-58340506D01*
X69742770Y-58343800D01*
X70838285Y-58343800D01*
X70853524Y-58339325D01*
X70854729Y-58337935D01*
X70856400Y-58330252D01*
X70856400Y-58325685D01*
X71364400Y-58325685D01*
X71368875Y-58340924D01*
X71370265Y-58342129D01*
X71377948Y-58343800D01*
X72472278Y-58343800D01*
X72485809Y-58339827D01*
X72486944Y-58331929D01*
X72446293Y-58192010D01*
X72440048Y-58177579D01*
X72363488Y-58048122D01*
X72357211Y-58040030D01*
X72331261Y-57973946D01*
X72345159Y-57904323D01*
X72357211Y-57885570D01*
X72363488Y-57877478D01*
X72440048Y-57748021D01*
X72446293Y-57733590D01*
X72485339Y-57599195D01*
X72485299Y-57585094D01*
X72478030Y-57581800D01*
X71382515Y-57581800D01*
X71367276Y-57586275D01*
X71366071Y-57587665D01*
X71364400Y-57595348D01*
X71364400Y-58325685D01*
X70856400Y-58325685D01*
X70856400Y-57599915D01*
X70851925Y-57584676D01*
X70850535Y-57583471D01*
X70842852Y-57581800D01*
X69748522Y-57581800D01*
X69734991Y-57585773D01*
X69733856Y-57593671D01*
X15621000Y-57593671D01*
X15621000Y-57056405D01*
X69735461Y-57056405D01*
X69735501Y-57070506D01*
X69742770Y-57073800D01*
X70838285Y-57073800D01*
X70853524Y-57069325D01*
X70854729Y-57067935D01*
X70856400Y-57060252D01*
X70856400Y-57055685D01*
X71364400Y-57055685D01*
X71368875Y-57070924D01*
X71370265Y-57072129D01*
X71377948Y-57073800D01*
X72472278Y-57073800D01*
X72485809Y-57069827D01*
X72486944Y-57061929D01*
X72485339Y-57056405D01*
X74885461Y-57056405D01*
X74885501Y-57070506D01*
X74892770Y-57073800D01*
X75988285Y-57073800D01*
X76003524Y-57069325D01*
X76004729Y-57067935D01*
X76006400Y-57060252D01*
X76006400Y-56537916D01*
X76001925Y-56522677D01*
X76000535Y-56521472D01*
X75992852Y-56519801D01*
X75471417Y-56519801D01*
X75466480Y-56519995D01*
X75438064Y-56522230D01*
X75425469Y-56524530D01*
X75279610Y-56566907D01*
X75265179Y-56573152D01*
X75135722Y-56649711D01*
X75123296Y-56659351D01*
X75016951Y-56765696D01*
X75007311Y-56778122D01*
X74930752Y-56907579D01*
X74924507Y-56922010D01*
X74885461Y-57056405D01*
X72485339Y-57056405D01*
X72446293Y-56922010D01*
X72440048Y-56907579D01*
X72363489Y-56778122D01*
X72353849Y-56765696D01*
X72247504Y-56659351D01*
X72235078Y-56649711D01*
X72105621Y-56573152D01*
X72091190Y-56566907D01*
X71945335Y-56524531D01*
X71932733Y-56522230D01*
X71904316Y-56519993D01*
X71899386Y-56519800D01*
X71382515Y-56519800D01*
X71367276Y-56524275D01*
X71366071Y-56525665D01*
X71364400Y-56533348D01*
X71364400Y-57055685D01*
X70856400Y-57055685D01*
X70856400Y-56537916D01*
X70851925Y-56522677D01*
X70850535Y-56521472D01*
X70842852Y-56519801D01*
X70321417Y-56519801D01*
X70316480Y-56519995D01*
X70288064Y-56522230D01*
X70275469Y-56524530D01*
X70129610Y-56566907D01*
X70115179Y-56573152D01*
X69985722Y-56649711D01*
X69973296Y-56659351D01*
X69866951Y-56765696D01*
X69857311Y-56778122D01*
X69780752Y-56907579D01*
X69774507Y-56922010D01*
X69735461Y-57056405D01*
X15621000Y-57056405D01*
X15621000Y-50108880D01*
X30994992Y-50108880D01*
X30995355Y-50113028D01*
X30995355Y-50113032D01*
X31020487Y-50400293D01*
X31020488Y-50400301D01*
X31020852Y-50404459D01*
X31085577Y-50694021D01*
X31087019Y-50697941D01*
X31087021Y-50697947D01*
X31168647Y-50919802D01*
X31188029Y-50972480D01*
X31189980Y-50976180D01*
X31189982Y-50976185D01*
X31324457Y-51231238D01*
X31326410Y-51234942D01*
X31498288Y-51476797D01*
X31700642Y-51693796D01*
X31929918Y-51882125D01*
X32182088Y-52038477D01*
X32452722Y-52160105D01*
X32625390Y-52211580D01*
X32733065Y-52243679D01*
X32733067Y-52243679D01*
X32737064Y-52244871D01*
X32741184Y-52245524D01*
X32741186Y-52245524D01*
X32817716Y-52257645D01*
X33030119Y-52291286D01*
X33075146Y-52293331D01*
X33121497Y-52295436D01*
X33121516Y-52295436D01*
X33122916Y-52295500D01*
X33308264Y-52295500D01*
X33529056Y-52280835D01*
X33819910Y-52222188D01*
X34100453Y-52125590D01*
X34104196Y-52123716D01*
X34104200Y-52123714D01*
X34362012Y-51994611D01*
X34362014Y-51994610D01*
X34365756Y-51992736D01*
X34611158Y-51825961D01*
X34832346Y-51628196D01*
X35025436Y-51402914D01*
X35089227Y-51304685D01*
X35184763Y-51157572D01*
X35184765Y-51157569D01*
X35187035Y-51154073D01*
X35314304Y-50886046D01*
X35315584Y-50882060D01*
X35403726Y-50607530D01*
X35403727Y-50607524D01*
X35405006Y-50603542D01*
X35440091Y-50408548D01*
X35456809Y-50315632D01*
X35456810Y-50315627D01*
X35457548Y-50311523D01*
X35457778Y-50306479D01*
X35470819Y-50019290D01*
X35470819Y-50019285D01*
X35471008Y-50015120D01*
X35470645Y-50010968D01*
X35456796Y-49852669D01*
X74870601Y-49852669D01*
X74870971Y-49859490D01*
X74876495Y-49910352D01*
X74880121Y-49925604D01*
X74925276Y-50046054D01*
X74933814Y-50061649D01*
X75010315Y-50163724D01*
X75022876Y-50176285D01*
X75124951Y-50252786D01*
X75140546Y-50261324D01*
X75260994Y-50306478D01*
X75276249Y-50310105D01*
X75327114Y-50315631D01*
X75333928Y-50316000D01*
X76156485Y-50316000D01*
X76171724Y-50311525D01*
X76172929Y-50310135D01*
X76174600Y-50302452D01*
X76174600Y-50297884D01*
X76682600Y-50297884D01*
X76687075Y-50313123D01*
X76688465Y-50314328D01*
X76696148Y-50315999D01*
X77523269Y-50315999D01*
X77530090Y-50315629D01*
X77580952Y-50310105D01*
X77596204Y-50306479D01*
X77716654Y-50261324D01*
X77732249Y-50252786D01*
X77834324Y-50176285D01*
X77846885Y-50163724D01*
X77923386Y-50061649D01*
X77931924Y-50046054D01*
X77977078Y-49925606D01*
X77980705Y-49910351D01*
X77986231Y-49859486D01*
X77986600Y-49852672D01*
X77986600Y-49380115D01*
X77982125Y-49364876D01*
X77980735Y-49363671D01*
X77973052Y-49362000D01*
X76700715Y-49362000D01*
X76685476Y-49366475D01*
X76684271Y-49367865D01*
X76682600Y-49375548D01*
X76682600Y-50297884D01*
X76174600Y-50297884D01*
X76174600Y-49380115D01*
X76170125Y-49364876D01*
X76168735Y-49363671D01*
X76161052Y-49362000D01*
X74888716Y-49362000D01*
X74873477Y-49366475D01*
X74872272Y-49367865D01*
X74870601Y-49375548D01*
X74870601Y-49852669D01*
X35456796Y-49852669D01*
X35445513Y-49723707D01*
X35445512Y-49723699D01*
X35445148Y-49719541D01*
X35396048Y-49499881D01*
X35381336Y-49434063D01*
X35381336Y-49434061D01*
X35380423Y-49429979D01*
X35360397Y-49375548D01*
X35279418Y-49155452D01*
X35279416Y-49155448D01*
X35277971Y-49151520D01*
X35203456Y-49010189D01*
X35141543Y-48892762D01*
X35141542Y-48892761D01*
X35139590Y-48889058D01*
X35101802Y-48835885D01*
X74870600Y-48835885D01*
X74875075Y-48851124D01*
X74876465Y-48852329D01*
X74884148Y-48854000D01*
X76156485Y-48854000D01*
X76171724Y-48849525D01*
X76172929Y-48848135D01*
X76174600Y-48840452D01*
X76174600Y-48835885D01*
X76682600Y-48835885D01*
X76687075Y-48851124D01*
X76688465Y-48852329D01*
X76696148Y-48854000D01*
X77968484Y-48854000D01*
X77983723Y-48849525D01*
X77984928Y-48848135D01*
X77986599Y-48840452D01*
X77986599Y-48363331D01*
X77986229Y-48356510D01*
X77980705Y-48305648D01*
X77977079Y-48290396D01*
X77931924Y-48169946D01*
X77923386Y-48154351D01*
X77846885Y-48052276D01*
X77834324Y-48039715D01*
X77732249Y-47963214D01*
X77716654Y-47954676D01*
X77596206Y-47909522D01*
X77580951Y-47905895D01*
X77530086Y-47900369D01*
X77523272Y-47900000D01*
X76700715Y-47900000D01*
X76685476Y-47904475D01*
X76684271Y-47905865D01*
X76682600Y-47913548D01*
X76682600Y-48835885D01*
X76174600Y-48835885D01*
X76174600Y-47918116D01*
X76170125Y-47902877D01*
X76168735Y-47901672D01*
X76161052Y-47900001D01*
X75333931Y-47900001D01*
X75327110Y-47900371D01*
X75276248Y-47905895D01*
X75260996Y-47909521D01*
X75140546Y-47954676D01*
X75124951Y-47963214D01*
X75022876Y-48039715D01*
X75010315Y-48052276D01*
X74933814Y-48154351D01*
X74925276Y-48169946D01*
X74880122Y-48290394D01*
X74876495Y-48305649D01*
X74870969Y-48356514D01*
X74870600Y-48363328D01*
X74870600Y-48835885D01*
X35101802Y-48835885D01*
X34967712Y-48647203D01*
X34765358Y-48430204D01*
X34536082Y-48241875D01*
X34283912Y-48085523D01*
X34013278Y-47963895D01*
X33818620Y-47905865D01*
X33732935Y-47880321D01*
X33732933Y-47880321D01*
X33728936Y-47879129D01*
X33724816Y-47878476D01*
X33724814Y-47878476D01*
X33605894Y-47859641D01*
X33435881Y-47832714D01*
X33390854Y-47830669D01*
X33344503Y-47828564D01*
X33344484Y-47828564D01*
X33343084Y-47828500D01*
X33157736Y-47828500D01*
X32936944Y-47843165D01*
X32646090Y-47901812D01*
X32365547Y-47998410D01*
X32361804Y-48000284D01*
X32361800Y-48000286D01*
X32187179Y-48087730D01*
X32100244Y-48131264D01*
X31854842Y-48298039D01*
X31633654Y-48495804D01*
X31630937Y-48498974D01*
X31630936Y-48498975D01*
X31537109Y-48608445D01*
X31440564Y-48721086D01*
X31438290Y-48724588D01*
X31438289Y-48724589D01*
X31333698Y-48885646D01*
X31278965Y-48969927D01*
X31277177Y-48973693D01*
X31277174Y-48973698D01*
X31259847Y-49010189D01*
X31151696Y-49237954D01*
X31150417Y-49241937D01*
X31150416Y-49241940D01*
X31067601Y-49499881D01*
X31060994Y-49520458D01*
X31060253Y-49524577D01*
X31022936Y-49731980D01*
X31008452Y-49812477D01*
X31008263Y-49816644D01*
X31008262Y-49816651D01*
X30995181Y-50104710D01*
X30994992Y-50108880D01*
X15621000Y-50108880D01*
X15621000Y-45084000D01*
X15641002Y-45015879D01*
X15694658Y-44969386D01*
X15747000Y-44958000D01*
X107951000Y-44958000D01*
X108019121Y-44978002D01*
G37*
G04 #@! TD.AperFunction*
G04 #@! TA.AperFunction,Conductor*
G36*
X80561721Y-56269502D02*
G01*
X80608214Y-56323158D01*
X80619600Y-56375500D01*
X80619600Y-61950600D01*
X94691200Y-61950600D01*
X94691200Y-56375500D01*
X94711202Y-56307379D01*
X94764858Y-56260886D01*
X94817200Y-56249500D01*
X101356723Y-56249500D01*
X101424844Y-56269502D01*
X101445818Y-56286405D01*
X103116080Y-57956668D01*
X103123506Y-57964771D01*
X103155428Y-58002814D01*
X103172198Y-58016886D01*
X103185936Y-58030328D01*
X103303582Y-58164478D01*
X103313615Y-58177553D01*
X103430996Y-58353225D01*
X103439237Y-58367499D01*
X103532683Y-58556990D01*
X103538990Y-58572217D01*
X103606905Y-58772288D01*
X103611171Y-58788208D01*
X103652390Y-58995431D01*
X103654541Y-59011771D01*
X103666210Y-59189806D01*
X103666001Y-59209026D01*
X103664572Y-59225362D01*
X103664093Y-59230841D01*
X103664572Y-59236316D01*
X103668421Y-59280312D01*
X103668900Y-59291293D01*
X103668900Y-65515498D01*
X103648898Y-65583619D01*
X103595242Y-65630112D01*
X103542900Y-65641498D01*
X101462769Y-65641498D01*
X101394648Y-65621496D01*
X101373674Y-65604593D01*
X100418470Y-64649389D01*
X100406084Y-64634977D01*
X100397551Y-64623382D01*
X100397546Y-64623377D01*
X100393208Y-64617482D01*
X100387630Y-64612743D01*
X100387627Y-64612740D01*
X100352932Y-64583265D01*
X100345416Y-64576335D01*
X100339721Y-64570640D01*
X100325973Y-64559763D01*
X100317449Y-64553019D01*
X100314045Y-64550228D01*
X100263997Y-64507709D01*
X100263995Y-64507708D01*
X100258415Y-64502967D01*
X100251899Y-64499639D01*
X100246850Y-64496272D01*
X100241721Y-64493105D01*
X100235984Y-64488566D01*
X100169825Y-64457645D01*
X100165925Y-64455739D01*
X100100892Y-64422531D01*
X100093784Y-64420792D01*
X100088141Y-64418693D01*
X100082378Y-64416776D01*
X100075750Y-64413678D01*
X100004283Y-64398813D01*
X99999999Y-64397843D01*
X99929090Y-64380492D01*
X99923488Y-64380144D01*
X99923485Y-64380144D01*
X99917936Y-64379800D01*
X99917938Y-64379764D01*
X99913945Y-64379525D01*
X99909753Y-64379151D01*
X99902585Y-64377660D01*
X99836375Y-64379451D01*
X99825179Y-64379754D01*
X99821772Y-64379800D01*
X99548578Y-64379800D01*
X99480457Y-64359798D01*
X99441434Y-64320103D01*
X99378151Y-64217839D01*
X99374297Y-64211611D01*
X99250153Y-64087683D01*
X99172959Y-64040100D01*
X99125466Y-63987328D01*
X99114042Y-63917256D01*
X99142316Y-63852132D01*
X99172767Y-63825700D01*
X99236148Y-63786478D01*
X99361105Y-63661303D01*
X99364946Y-63655072D01*
X99450075Y-63516968D01*
X99450076Y-63516966D01*
X99453915Y-63510738D01*
X99509597Y-63342861D01*
X99520300Y-63238400D01*
X99520300Y-62237600D01*
X99513166Y-62168842D01*
X99510038Y-62138692D01*
X99510037Y-62138688D01*
X99509326Y-62131834D01*
X99495114Y-62089234D01*
X99455668Y-61971002D01*
X99453350Y-61964054D01*
X99360278Y-61813652D01*
X99235103Y-61688695D01*
X99162778Y-61644113D01*
X99090768Y-61599725D01*
X99090766Y-61599724D01*
X99084538Y-61595885D01*
X98970381Y-61558021D01*
X98923189Y-61542368D01*
X98923187Y-61542368D01*
X98916661Y-61540203D01*
X98909825Y-61539503D01*
X98909822Y-61539502D01*
X98866769Y-61535091D01*
X98812200Y-61529500D01*
X98186400Y-61529500D01*
X98183154Y-61529837D01*
X98183150Y-61529837D01*
X98087492Y-61539762D01*
X98087488Y-61539763D01*
X98080634Y-61540474D01*
X98074098Y-61542655D01*
X98074096Y-61542655D01*
X97962238Y-61579974D01*
X97912854Y-61596450D01*
X97762452Y-61689522D01*
X97757279Y-61694704D01*
X97675662Y-61776463D01*
X97613379Y-61810542D01*
X97542559Y-61805539D01*
X97497471Y-61776618D01*
X97414971Y-61694261D01*
X97403560Y-61685249D01*
X97265557Y-61600184D01*
X97252376Y-61594037D01*
X97098090Y-61542862D01*
X97084714Y-61539995D01*
X96990362Y-61530328D01*
X96983945Y-61530000D01*
X96946415Y-61530000D01*
X96931176Y-61534475D01*
X96929971Y-61535865D01*
X96928300Y-61543548D01*
X96928300Y-62866000D01*
X96908298Y-62934121D01*
X96854642Y-62980614D01*
X96802300Y-62992000D01*
X95671916Y-62992000D01*
X95656677Y-62996475D01*
X95655472Y-62997865D01*
X95653801Y-63005548D01*
X95653801Y-63235095D01*
X95654138Y-63241614D01*
X95664057Y-63337206D01*
X95666949Y-63350600D01*
X95718388Y-63504784D01*
X95724561Y-63517962D01*
X95809863Y-63655807D01*
X95818899Y-63667208D01*
X95933629Y-63781739D01*
X95945043Y-63790753D01*
X96013810Y-63833141D01*
X96061304Y-63885912D01*
X96072728Y-63955984D01*
X96044455Y-64021108D01*
X96013998Y-64047545D01*
X95947811Y-64088503D01*
X95823883Y-64212647D01*
X95731839Y-64361971D01*
X95729534Y-64368919D01*
X95729534Y-64368920D01*
X95680275Y-64517432D01*
X95676615Y-64528465D01*
X95666000Y-64632069D01*
X95666001Y-65644530D01*
X95666277Y-65647191D01*
X95649851Y-65716151D01*
X95598672Y-65765357D01*
X95583461Y-65772043D01*
X95564501Y-65778925D01*
X95560342Y-65780353D01*
X95497864Y-65800593D01*
X95497862Y-65800594D01*
X95490901Y-65802849D01*
X95484646Y-65806645D01*
X95479172Y-65809151D01*
X95473742Y-65811870D01*
X95466863Y-65814367D01*
X95460743Y-65818380D01*
X95460742Y-65818380D01*
X95405824Y-65854386D01*
X95402120Y-65856723D01*
X95339693Y-65894605D01*
X95331316Y-65902003D01*
X95331292Y-65901976D01*
X95328300Y-65904629D01*
X95325067Y-65907332D01*
X95318948Y-65911344D01*
X95313916Y-65916656D01*
X95265672Y-65967583D01*
X95263294Y-65970025D01*
X93550324Y-67682995D01*
X93488012Y-67717021D01*
X93461229Y-67719900D01*
X90227690Y-67719900D01*
X90159569Y-67699898D01*
X90113076Y-67646242D01*
X90102972Y-67575968D01*
X90132022Y-67511902D01*
X90222718Y-67406085D01*
X90225436Y-67402914D01*
X90227711Y-67399411D01*
X90384763Y-67157572D01*
X90384765Y-67157569D01*
X90387035Y-67154073D01*
X90408362Y-67109160D01*
X90462102Y-66995983D01*
X90514304Y-66886046D01*
X90544931Y-66790654D01*
X90603726Y-66607530D01*
X90603727Y-66607524D01*
X90605006Y-66603542D01*
X90631152Y-66458226D01*
X90656809Y-66315632D01*
X90656810Y-66315627D01*
X90657548Y-66311523D01*
X90658962Y-66280402D01*
X90670819Y-66019290D01*
X90670819Y-66019285D01*
X90671008Y-66015120D01*
X90670235Y-66006282D01*
X90645513Y-65723707D01*
X90645512Y-65723699D01*
X90645148Y-65719541D01*
X90589606Y-65471062D01*
X90581336Y-65434063D01*
X90581336Y-65434061D01*
X90580423Y-65429979D01*
X90568001Y-65396215D01*
X90479418Y-65155452D01*
X90479416Y-65155448D01*
X90477971Y-65151520D01*
X90404035Y-65011287D01*
X90341543Y-64892762D01*
X90341542Y-64892761D01*
X90339590Y-64889058D01*
X90167712Y-64647203D01*
X89965358Y-64430204D01*
X89736082Y-64241875D01*
X89483912Y-64085523D01*
X89213278Y-63963895D01*
X89040610Y-63912420D01*
X88932935Y-63880321D01*
X88932933Y-63880321D01*
X88928936Y-63879129D01*
X88924816Y-63878476D01*
X88924814Y-63878476D01*
X88758482Y-63852132D01*
X88635881Y-63832714D01*
X88590854Y-63830669D01*
X88544503Y-63828564D01*
X88544484Y-63828564D01*
X88543084Y-63828500D01*
X88357736Y-63828500D01*
X88136944Y-63843165D01*
X87846090Y-63901812D01*
X87751447Y-63934400D01*
X87573595Y-63995639D01*
X87565547Y-63998410D01*
X87561804Y-64000284D01*
X87561800Y-64000286D01*
X87376947Y-64092854D01*
X87300244Y-64131264D01*
X87280850Y-64144444D01*
X87138970Y-64240866D01*
X87054842Y-64298039D01*
X86833654Y-64495804D01*
X86830937Y-64498974D01*
X86830936Y-64498975D01*
X86771466Y-64568360D01*
X86640564Y-64721086D01*
X86638290Y-64724588D01*
X86638289Y-64724589D01*
X86490341Y-64952410D01*
X86478965Y-64969927D01*
X86477177Y-64973693D01*
X86477174Y-64973698D01*
X86455740Y-65018839D01*
X86351696Y-65237954D01*
X86350417Y-65241937D01*
X86350416Y-65241940D01*
X86278331Y-65466460D01*
X86260994Y-65520458D01*
X86260253Y-65524577D01*
X86225174Y-65719541D01*
X86208452Y-65812477D01*
X86208263Y-65816644D01*
X86208262Y-65816651D01*
X86195418Y-66099492D01*
X86194992Y-66108880D01*
X86195356Y-66113039D01*
X86195356Y-66113044D01*
X86195407Y-66113632D01*
X86195372Y-66113809D01*
X86195443Y-66117229D01*
X86194681Y-66117245D01*
X86181420Y-66183237D01*
X86132021Y-66234231D01*
X86062895Y-66250422D01*
X85995990Y-66226671D01*
X85980792Y-66213711D01*
X84130525Y-64363444D01*
X84099787Y-64313285D01*
X84095739Y-64300825D01*
X84044927Y-64144444D01*
X84020285Y-64101762D01*
X83973719Y-64021108D01*
X83949440Y-63979056D01*
X83875160Y-63896559D01*
X83826075Y-63842045D01*
X83826074Y-63842044D01*
X83821653Y-63837134D01*
X83667152Y-63724882D01*
X83661124Y-63722198D01*
X83661122Y-63722197D01*
X83498719Y-63649891D01*
X83498718Y-63649891D01*
X83492688Y-63647206D01*
X83399287Y-63627353D01*
X83312344Y-63608872D01*
X83312339Y-63608872D01*
X83305887Y-63607500D01*
X83114913Y-63607500D01*
X83108461Y-63608872D01*
X83108456Y-63608872D01*
X83021513Y-63627353D01*
X82928112Y-63647206D01*
X82922082Y-63649891D01*
X82922081Y-63649891D01*
X82759678Y-63722197D01*
X82759676Y-63722198D01*
X82753648Y-63724882D01*
X82599147Y-63837134D01*
X82594726Y-63842044D01*
X82594725Y-63842045D01*
X82545641Y-63896559D01*
X82471360Y-63979056D01*
X82447081Y-64021108D01*
X82400516Y-64101762D01*
X82375873Y-64144444D01*
X82316858Y-64326072D01*
X82316168Y-64332640D01*
X82316167Y-64332643D01*
X82314929Y-64344415D01*
X82287915Y-64410071D01*
X82229693Y-64450700D01*
X82158747Y-64453401D01*
X82100525Y-64420337D01*
X80151725Y-62471537D01*
X80146768Y-62465885D01*
X95653800Y-62465885D01*
X95658275Y-62481124D01*
X95659665Y-62482329D01*
X95667348Y-62484000D01*
X96402185Y-62484000D01*
X96417424Y-62479525D01*
X96418629Y-62478135D01*
X96420300Y-62470452D01*
X96420300Y-61548116D01*
X96415825Y-61532877D01*
X96414435Y-61531672D01*
X96406752Y-61530001D01*
X96364705Y-61530001D01*
X96358186Y-61530338D01*
X96262594Y-61540257D01*
X96249200Y-61543149D01*
X96095016Y-61594588D01*
X96081838Y-61600761D01*
X95943993Y-61686063D01*
X95932592Y-61695099D01*
X95818061Y-61809829D01*
X95809049Y-61821240D01*
X95723984Y-61959243D01*
X95717837Y-61972424D01*
X95666662Y-62126710D01*
X95663795Y-62140086D01*
X95654128Y-62234438D01*
X95653800Y-62240855D01*
X95653800Y-62465885D01*
X80146768Y-62465885D01*
X80140857Y-62459146D01*
X80130733Y-62445952D01*
X80127323Y-62441508D01*
X80067026Y-62386642D01*
X80062731Y-62382543D01*
X80046790Y-62366602D01*
X80040363Y-62361228D01*
X80026777Y-62349868D01*
X80022802Y-62346400D01*
X79965312Y-62294088D01*
X79965303Y-62294081D01*
X79961164Y-62290315D01*
X79945973Y-62280786D01*
X79932107Y-62270711D01*
X79922651Y-62262804D01*
X79922641Y-62262797D01*
X79918346Y-62259206D01*
X79845952Y-62217913D01*
X79841432Y-62215208D01*
X79775604Y-62173914D01*
X79775601Y-62173912D01*
X79770856Y-62170936D01*
X79765651Y-62168843D01*
X79765648Y-62168842D01*
X79754221Y-62164248D01*
X79738789Y-62156788D01*
X79728081Y-62150680D01*
X79728072Y-62150676D01*
X79723207Y-62147901D01*
X79717930Y-62146032D01*
X79717925Y-62146030D01*
X79644658Y-62120085D01*
X79639722Y-62118220D01*
X79567616Y-62089234D01*
X79562417Y-62087144D01*
X79556930Y-62086008D01*
X79556928Y-62086007D01*
X79544851Y-62083506D01*
X79528356Y-62078901D01*
X79511441Y-62072911D01*
X79429190Y-62059441D01*
X79424020Y-62058483D01*
X79342433Y-62041587D01*
X79337821Y-62041321D01*
X79337820Y-62041321D01*
X79314652Y-62039985D01*
X79301547Y-62038538D01*
X79295290Y-62037514D01*
X79295286Y-62037514D01*
X79289743Y-62036606D01*
X79284130Y-62036694D01*
X79284128Y-62036694D01*
X79182936Y-62038284D01*
X79180957Y-62038300D01*
X77686100Y-62038300D01*
X77617979Y-62018298D01*
X77571486Y-61964642D01*
X77560100Y-61912300D01*
X77560100Y-61644113D01*
X77577645Y-61579977D01*
X77594545Y-61551401D01*
X77596815Y-61543590D01*
X77635859Y-61409195D01*
X77640962Y-61391631D01*
X77643900Y-61354302D01*
X77643900Y-61110276D01*
X77663902Y-61042155D01*
X77717558Y-60995662D01*
X77787832Y-60985558D01*
X77803541Y-60989298D01*
X77803567Y-60989188D01*
X77963460Y-61027575D01*
X78022011Y-61041632D01*
X78106075Y-61046479D01*
X78240683Y-61054240D01*
X78240686Y-61054240D01*
X78246290Y-61054563D01*
X78469315Y-61027575D01*
X78684035Y-60961518D01*
X78689015Y-60958948D01*
X78689019Y-60958946D01*
X78878681Y-60861054D01*
X78878682Y-60861054D01*
X78883664Y-60858482D01*
X79061892Y-60721723D01*
X79213085Y-60555564D01*
X79253176Y-60491654D01*
X79329485Y-60370005D01*
X79332464Y-60365256D01*
X79416256Y-60156817D01*
X79461813Y-59936833D01*
X79465100Y-59879825D01*
X79465100Y-56375500D01*
X79485102Y-56307379D01*
X79538758Y-56260886D01*
X79591100Y-56249500D01*
X80493600Y-56249500D01*
X80561721Y-56269502D01*
G37*
G04 #@! TD.AperFunction*
G04 #@! TA.AperFunction,Conductor*
G36*
X94379321Y-74645202D02*
G01*
X94425814Y-74698858D01*
X94437200Y-74751200D01*
X94437200Y-76632800D01*
X94417198Y-76700921D01*
X94363542Y-76747414D01*
X94311200Y-76758800D01*
X92124800Y-76758800D01*
X92056679Y-76738798D01*
X92010186Y-76685142D01*
X91998800Y-76632800D01*
X91998800Y-74751200D01*
X92018802Y-74683079D01*
X92072458Y-74636586D01*
X92124800Y-74625200D01*
X94311200Y-74625200D01*
X94379321Y-74645202D01*
G37*
G04 #@! TD.AperFunction*
G04 #@! TA.AperFunction,Conductor*
G36*
X103777321Y-77617002D02*
G01*
X103823814Y-77670658D01*
X103835200Y-77723000D01*
X103835200Y-83821000D01*
X103815198Y-83889121D01*
X103761542Y-83935614D01*
X103709200Y-83947000D01*
X96620600Y-83947000D01*
X96552479Y-83926998D01*
X96505986Y-83873342D01*
X96494600Y-83821000D01*
X96494600Y-77723000D01*
X96514602Y-77654879D01*
X96568258Y-77608386D01*
X96620600Y-77597000D01*
X103709200Y-77597000D01*
X103777321Y-77617002D01*
G37*
G04 #@! TD.AperFunction*
G04 #@! TA.AperFunction,Conductor*
G36*
X91109744Y-74848402D02*
G01*
X91130718Y-74865305D01*
X91453895Y-75188482D01*
X91487921Y-75250794D01*
X91490800Y-75277577D01*
X91490800Y-78106000D01*
X91470798Y-78174121D01*
X91417142Y-78220614D01*
X91364800Y-78232000D01*
X89414992Y-78232000D01*
X89356748Y-78216066D01*
X89356500Y-78216639D01*
X89352474Y-78214897D01*
X89350852Y-78214453D01*
X89349225Y-78213491D01*
X89342401Y-78209455D01*
X89334790Y-78207244D01*
X89334788Y-78207243D01*
X89282569Y-78192072D01*
X89182631Y-78163038D01*
X89176226Y-78162534D01*
X89176221Y-78162533D01*
X89147758Y-78160293D01*
X89147750Y-78160293D01*
X89145302Y-78160100D01*
X87362298Y-78160100D01*
X87359834Y-78160294D01*
X87359832Y-78160294D01*
X87359472Y-78160322D01*
X87359415Y-78160310D01*
X87357353Y-78160391D01*
X87357333Y-78159872D01*
X87289994Y-78145718D01*
X87239440Y-78095870D01*
X87223600Y-78034709D01*
X87223600Y-77362491D01*
X87243602Y-77294370D01*
X87297258Y-77247877D01*
X87357335Y-77237256D01*
X87357353Y-77236809D01*
X87359406Y-77236890D01*
X87359472Y-77236878D01*
X87359832Y-77236906D01*
X87359834Y-77236906D01*
X87362298Y-77237100D01*
X89145302Y-77237100D01*
X89147750Y-77236907D01*
X89147758Y-77236907D01*
X89176221Y-77234667D01*
X89176226Y-77234666D01*
X89182631Y-77234162D01*
X89282569Y-77205128D01*
X89334788Y-77189957D01*
X89334790Y-77189956D01*
X89342401Y-77187745D01*
X89415746Y-77144369D01*
X89478780Y-77107091D01*
X89478783Y-77107089D01*
X89485607Y-77103053D01*
X89603253Y-76985407D01*
X89607289Y-76978583D01*
X89607291Y-76978580D01*
X89683908Y-76849027D01*
X89687945Y-76842201D01*
X89734362Y-76682431D01*
X89737300Y-76645102D01*
X89737300Y-76212098D01*
X89737107Y-76209642D01*
X89734867Y-76181179D01*
X89734866Y-76181174D01*
X89734362Y-76174769D01*
X89705328Y-76074831D01*
X89690157Y-76022612D01*
X89690156Y-76022610D01*
X89687945Y-76014999D01*
X89670907Y-75986189D01*
X89607291Y-75878620D01*
X89607289Y-75878617D01*
X89603253Y-75871793D01*
X89485607Y-75754147D01*
X89478783Y-75750111D01*
X89478780Y-75750109D01*
X89349227Y-75673492D01*
X89349228Y-75673492D01*
X89342401Y-75669455D01*
X89334790Y-75667244D01*
X89334788Y-75667243D01*
X89282569Y-75652072D01*
X89182631Y-75623038D01*
X89176226Y-75622534D01*
X89176221Y-75622533D01*
X89147758Y-75620293D01*
X89147750Y-75620293D01*
X89145302Y-75620100D01*
X87362298Y-75620100D01*
X87359834Y-75620294D01*
X87359832Y-75620294D01*
X87359472Y-75620322D01*
X87359415Y-75620310D01*
X87357353Y-75620391D01*
X87357333Y-75619872D01*
X87289994Y-75605718D01*
X87239440Y-75555870D01*
X87223600Y-75494709D01*
X87223600Y-74954400D01*
X87243602Y-74886279D01*
X87297258Y-74839786D01*
X87349600Y-74828400D01*
X91041623Y-74828400D01*
X91109744Y-74848402D01*
G37*
G04 #@! TD.AperFunction*
G04 #@! TA.AperFunction,Conductor*
G36*
X61770421Y-72968802D02*
G01*
X61816914Y-73022458D01*
X61828300Y-73074800D01*
X61828300Y-74522134D01*
X61835055Y-74584316D01*
X61886185Y-74720705D01*
X61973539Y-74837261D01*
X62090095Y-74924615D01*
X62226484Y-74975745D01*
X62288666Y-74982500D01*
X63034934Y-74982500D01*
X63097116Y-74975745D01*
X63233505Y-74924615D01*
X63350061Y-74837261D01*
X63437415Y-74720705D01*
X63488545Y-74584316D01*
X63495300Y-74522134D01*
X63495300Y-73074800D01*
X63515302Y-73006679D01*
X63568958Y-72960186D01*
X63621300Y-72948800D01*
X65930300Y-72948800D01*
X65998421Y-72968802D01*
X66044914Y-73022458D01*
X66056300Y-73074800D01*
X66056300Y-73325734D01*
X66063055Y-73387916D01*
X66114185Y-73524305D01*
X66201539Y-73640861D01*
X66318095Y-73728215D01*
X66454484Y-73779345D01*
X66516666Y-73786100D01*
X67030222Y-73786100D01*
X67098343Y-73806102D01*
X67144836Y-73859758D01*
X67154940Y-73930032D01*
X67125446Y-73994612D01*
X67104283Y-74014036D01*
X66952747Y-74124134D01*
X66824960Y-74266056D01*
X66793377Y-74320760D01*
X66758046Y-74381955D01*
X66729473Y-74431444D01*
X66670458Y-74613072D01*
X66669768Y-74619633D01*
X66669768Y-74619635D01*
X66659053Y-74721588D01*
X66650496Y-74803000D01*
X66651186Y-74809565D01*
X66668851Y-74977635D01*
X66670458Y-74992928D01*
X66729473Y-75174556D01*
X66732776Y-75180278D01*
X66732777Y-75180279D01*
X66775173Y-75253710D01*
X66824960Y-75339944D01*
X66829379Y-75344852D01*
X66832238Y-75348787D01*
X66856300Y-75422846D01*
X66856300Y-75643100D01*
X66836298Y-75711221D01*
X66782642Y-75757714D01*
X66730300Y-75769100D01*
X66516666Y-75769100D01*
X66454484Y-75775855D01*
X66318095Y-75826985D01*
X66201539Y-75914339D01*
X66114185Y-76030895D01*
X66063055Y-76167284D01*
X66056300Y-76229466D01*
X66056300Y-77465219D01*
X66036298Y-77533340D01*
X65982642Y-77579833D01*
X65912368Y-77589937D01*
X65847788Y-77560443D01*
X65841205Y-77554314D01*
X64800387Y-76513497D01*
X64789519Y-76501105D01*
X64776039Y-76483537D01*
X64771013Y-76476987D01*
X64689379Y-76414348D01*
X64648873Y-76383266D01*
X64600187Y-76363100D01*
X64523081Y-76331162D01*
X64467801Y-76286614D01*
X64445300Y-76214753D01*
X64445300Y-75845866D01*
X64438545Y-75783684D01*
X64387415Y-75647295D01*
X64300061Y-75530739D01*
X64183505Y-75443385D01*
X64047116Y-75392255D01*
X63984934Y-75385500D01*
X63238666Y-75385500D01*
X63176484Y-75392255D01*
X63040095Y-75443385D01*
X62923539Y-75530739D01*
X62836185Y-75647295D01*
X62785055Y-75783684D01*
X62784261Y-75790990D01*
X62749165Y-75852424D01*
X62686210Y-75885244D01*
X62615505Y-75878818D01*
X62559498Y-75835186D01*
X62539346Y-75791060D01*
X62538545Y-75783684D01*
X62487415Y-75647295D01*
X62400061Y-75530739D01*
X62283505Y-75443385D01*
X62147116Y-75392255D01*
X62084934Y-75385500D01*
X61338666Y-75385500D01*
X61276484Y-75392255D01*
X61140095Y-75443385D01*
X61023539Y-75530739D01*
X60936185Y-75647295D01*
X60885055Y-75783684D01*
X60878300Y-75845866D01*
X60878300Y-77915737D01*
X60858298Y-77983858D01*
X60804642Y-78030351D01*
X60785630Y-78036663D01*
X60785634Y-78036674D01*
X60617854Y-78092650D01*
X60467452Y-78185722D01*
X60342495Y-78310897D01*
X60338655Y-78317127D01*
X60338654Y-78317128D01*
X60257494Y-78448794D01*
X60249685Y-78461462D01*
X60247381Y-78468409D01*
X60196626Y-78621432D01*
X60194003Y-78629339D01*
X60193303Y-78636175D01*
X60193302Y-78636178D01*
X60190843Y-78660181D01*
X60183300Y-78733800D01*
X60183300Y-79359600D01*
X60183637Y-79362846D01*
X60183637Y-79362850D01*
X60184813Y-79374179D01*
X60194274Y-79465366D01*
X60250250Y-79633146D01*
X60343322Y-79783548D01*
X60348504Y-79788721D01*
X60429909Y-79869984D01*
X60463988Y-79932266D01*
X60458985Y-80003086D01*
X60430064Y-80048175D01*
X60342495Y-80135897D01*
X60338655Y-80142127D01*
X60338654Y-80142128D01*
X60269021Y-80255094D01*
X60249685Y-80286462D01*
X60238188Y-80321126D01*
X60211110Y-80402764D01*
X60194003Y-80454339D01*
X60183300Y-80558800D01*
X60183300Y-81184600D01*
X60183637Y-81187846D01*
X60183637Y-81187850D01*
X60190837Y-81257236D01*
X60194274Y-81290366D01*
X60196455Y-81296902D01*
X60196455Y-81296904D01*
X60233142Y-81406867D01*
X60250250Y-81458146D01*
X60343322Y-81608548D01*
X60468497Y-81733505D01*
X60515935Y-81762746D01*
X60573416Y-81798178D01*
X60620909Y-81850950D01*
X60633300Y-81905438D01*
X60633300Y-82398448D01*
X60613298Y-82466569D01*
X60560550Y-82512643D01*
X60434934Y-82571218D01*
X60434929Y-82571221D01*
X60429947Y-82573544D01*
X60425440Y-82576700D01*
X60425438Y-82576701D01*
X60254073Y-82696692D01*
X60254070Y-82696694D01*
X60249562Y-82699851D01*
X60093851Y-82855562D01*
X60090694Y-82860070D01*
X60090692Y-82860073D01*
X60037392Y-82936194D01*
X59967544Y-83035947D01*
X59965221Y-83040929D01*
X59965218Y-83040934D01*
X59948336Y-83077139D01*
X59874480Y-83235524D01*
X59817485Y-83448229D01*
X59798293Y-83667600D01*
X59817485Y-83886971D01*
X59874480Y-84099676D01*
X59876805Y-84104661D01*
X59965218Y-84294266D01*
X59965221Y-84294271D01*
X59967544Y-84299253D01*
X59970700Y-84303760D01*
X59970701Y-84303762D01*
X60070369Y-84446102D01*
X60093851Y-84479638D01*
X60249562Y-84635349D01*
X60254071Y-84638506D01*
X60254073Y-84638508D01*
X60285457Y-84660483D01*
X60429946Y-84761656D01*
X60629524Y-84854720D01*
X60842229Y-84911715D01*
X61061600Y-84930907D01*
X61280971Y-84911715D01*
X61493676Y-84854720D01*
X61693254Y-84761656D01*
X61837743Y-84660483D01*
X61869127Y-84638508D01*
X61869129Y-84638506D01*
X61873638Y-84635349D01*
X62029349Y-84479638D01*
X62052832Y-84446102D01*
X62152499Y-84303762D01*
X62152500Y-84303760D01*
X62155656Y-84299253D01*
X62157979Y-84294271D01*
X62157982Y-84294266D01*
X62246395Y-84104661D01*
X62248720Y-84099676D01*
X62305715Y-83886971D01*
X62324907Y-83667600D01*
X62305715Y-83448229D01*
X62248720Y-83235524D01*
X62162105Y-83049777D01*
X62150300Y-82996527D01*
X62150300Y-81905511D01*
X62170302Y-81837390D01*
X62209996Y-81798367D01*
X62316148Y-81732678D01*
X62441105Y-81607503D01*
X62495864Y-81518668D01*
X62548637Y-81471175D01*
X62618708Y-81459751D01*
X62683832Y-81488025D01*
X62710268Y-81518480D01*
X62781722Y-81633948D01*
X62906897Y-81758905D01*
X62913127Y-81762745D01*
X62913128Y-81762746D01*
X63034223Y-81837390D01*
X63057462Y-81851715D01*
X63104095Y-81867182D01*
X63112367Y-81869926D01*
X63170727Y-81910356D01*
X63197964Y-81975920D01*
X63198700Y-81989519D01*
X63198700Y-82267707D01*
X63178698Y-82335828D01*
X63125042Y-82382321D01*
X63103437Y-82389743D01*
X63096884Y-82390455D01*
X63089489Y-82393227D01*
X63089486Y-82393228D01*
X63029340Y-82415776D01*
X62960495Y-82441585D01*
X62843939Y-82528939D01*
X62756585Y-82645495D01*
X62705455Y-82781884D01*
X62698700Y-82844066D01*
X62698700Y-84440334D01*
X62705455Y-84502516D01*
X62756585Y-84638905D01*
X62843939Y-84755461D01*
X62960495Y-84842815D01*
X63096884Y-84893945D01*
X63159066Y-84900700D01*
X64755334Y-84900700D01*
X64817516Y-84893945D01*
X64953905Y-84842815D01*
X65070461Y-84755461D01*
X65157815Y-84638905D01*
X65208945Y-84502516D01*
X65215700Y-84440334D01*
X65215700Y-84229095D01*
X78001201Y-84229095D01*
X78001538Y-84235614D01*
X78011457Y-84331206D01*
X78014349Y-84344600D01*
X78065788Y-84498784D01*
X78071961Y-84511962D01*
X78157263Y-84649807D01*
X78166299Y-84661208D01*
X78281029Y-84775739D01*
X78292440Y-84784751D01*
X78430443Y-84869816D01*
X78443624Y-84875963D01*
X78597910Y-84927138D01*
X78611286Y-84930005D01*
X78705638Y-84939672D01*
X78712054Y-84940000D01*
X78737085Y-84940000D01*
X78752324Y-84935525D01*
X78753529Y-84934135D01*
X78755200Y-84926452D01*
X78755200Y-83979115D01*
X78750725Y-83963876D01*
X78749335Y-83962671D01*
X78741652Y-83961000D01*
X78019316Y-83961000D01*
X78004077Y-83965475D01*
X78002872Y-83966865D01*
X78001201Y-83974548D01*
X78001201Y-84229095D01*
X65215700Y-84229095D01*
X65215700Y-82844066D01*
X65208945Y-82781884D01*
X65157815Y-82645495D01*
X65070461Y-82528939D01*
X64953905Y-82441585D01*
X64885060Y-82415776D01*
X64824914Y-82393228D01*
X64824911Y-82393227D01*
X64817516Y-82390455D01*
X64811747Y-82389828D01*
X64750909Y-82355074D01*
X64718087Y-82292119D01*
X64715700Y-82267707D01*
X64715700Y-81848698D01*
X64735702Y-81780577D01*
X64755351Y-81758879D01*
X64754548Y-81758078D01*
X64874334Y-81638083D01*
X64879505Y-81632903D01*
X64972315Y-81482338D01*
X65023219Y-81328866D01*
X65025832Y-81320989D01*
X65025832Y-81320987D01*
X65027997Y-81314461D01*
X65028794Y-81306689D01*
X65038372Y-81213198D01*
X65038700Y-81210000D01*
X65038700Y-80669900D01*
X65058702Y-80601779D01*
X65112358Y-80555286D01*
X65164700Y-80543900D01*
X67566061Y-80543900D01*
X67634182Y-80563902D01*
X67680675Y-80617558D01*
X67690779Y-80687832D01*
X67685895Y-80708831D01*
X67661058Y-80785272D01*
X67660368Y-80791833D01*
X67660368Y-80791835D01*
X67651334Y-80877792D01*
X67641096Y-80975200D01*
X67641786Y-80981765D01*
X67658251Y-81138417D01*
X67661058Y-81165128D01*
X67720073Y-81346756D01*
X67815560Y-81512144D01*
X67819978Y-81517051D01*
X67819979Y-81517052D01*
X67907020Y-81613721D01*
X67943347Y-81654066D01*
X68042443Y-81726064D01*
X68086507Y-81758078D01*
X68097848Y-81766318D01*
X68103876Y-81769002D01*
X68103878Y-81769003D01*
X68231335Y-81825750D01*
X68272312Y-81843994D01*
X68365712Y-81863847D01*
X68452656Y-81882328D01*
X68452661Y-81882328D01*
X68459113Y-81883700D01*
X68482371Y-81883700D01*
X68550492Y-81903702D01*
X68596985Y-81957358D01*
X68602204Y-81970762D01*
X68660767Y-82151000D01*
X68756254Y-82316388D01*
X68760672Y-82321295D01*
X68760673Y-82321296D01*
X68873831Y-82446971D01*
X68884041Y-82458310D01*
X69038542Y-82570562D01*
X69044570Y-82573246D01*
X69044572Y-82573247D01*
X69189710Y-82637866D01*
X69213006Y-82648238D01*
X69306407Y-82668091D01*
X69393350Y-82686572D01*
X69393355Y-82686572D01*
X69399807Y-82687944D01*
X69590781Y-82687944D01*
X69597233Y-82686572D01*
X69597238Y-82686572D01*
X69684181Y-82668091D01*
X69777582Y-82648238D01*
X69800878Y-82637866D01*
X69946016Y-82573247D01*
X69946018Y-82573246D01*
X69952046Y-82570562D01*
X70106547Y-82458310D01*
X70116757Y-82446971D01*
X70229915Y-82321296D01*
X70229916Y-82321295D01*
X70234334Y-82316388D01*
X70289143Y-82221456D01*
X70308517Y-82187900D01*
X70359900Y-82138907D01*
X70417636Y-82124900D01*
X71156741Y-82124900D01*
X71200971Y-82132918D01*
X71230385Y-82143945D01*
X71292567Y-82150700D01*
X71942833Y-82150700D01*
X72005015Y-82143945D01*
X72141404Y-82092815D01*
X72148589Y-82087430D01*
X72148591Y-82087429D01*
X72186285Y-82059178D01*
X72252791Y-82034329D01*
X72279602Y-82036500D01*
X72279684Y-82035745D01*
X72341866Y-82042500D01*
X76044934Y-82042500D01*
X76107116Y-82035745D01*
X76107364Y-82038026D01*
X76166691Y-82041118D01*
X76200515Y-82059178D01*
X76238209Y-82087429D01*
X76238211Y-82087430D01*
X76245396Y-82092815D01*
X76381785Y-82143945D01*
X76443967Y-82150700D01*
X77094233Y-82150700D01*
X77156415Y-82143945D01*
X77185829Y-82132918D01*
X77230059Y-82124900D01*
X77617488Y-82124900D01*
X77685609Y-82144902D01*
X77732102Y-82198558D01*
X77742798Y-82237729D01*
X77743910Y-82248304D01*
X77744858Y-82257328D01*
X77803873Y-82438956D01*
X77899360Y-82604344D01*
X77903778Y-82609251D01*
X77903779Y-82609252D01*
X78014447Y-82732161D01*
X78027147Y-82746266D01*
X78032491Y-82750149D01*
X78037398Y-82754567D01*
X78036199Y-82755899D01*
X78074193Y-82805179D01*
X78080262Y-82875916D01*
X78070968Y-82904133D01*
X78065239Y-82916420D01*
X78014062Y-83070710D01*
X78011195Y-83084086D01*
X78001528Y-83178438D01*
X78001200Y-83184855D01*
X78001200Y-83434885D01*
X78005675Y-83450124D01*
X78007065Y-83451329D01*
X78014748Y-83453000D01*
X79137200Y-83453000D01*
X79205321Y-83473002D01*
X79251814Y-83526658D01*
X79263200Y-83579000D01*
X79263200Y-84921884D01*
X79267675Y-84937123D01*
X79269065Y-84938328D01*
X79276748Y-84939999D01*
X79306295Y-84939999D01*
X79312814Y-84939662D01*
X79408406Y-84929743D01*
X79421800Y-84926851D01*
X79575984Y-84875412D01*
X79589162Y-84869239D01*
X79727007Y-84783937D01*
X79738408Y-84774901D01*
X79852938Y-84660172D01*
X79859994Y-84651238D01*
X79917912Y-84610177D01*
X79988835Y-84606947D01*
X80050246Y-84642574D01*
X80057046Y-84650407D01*
X80060722Y-84656348D01*
X80185897Y-84781305D01*
X80192127Y-84785145D01*
X80192128Y-84785146D01*
X80329488Y-84869816D01*
X80336462Y-84874115D01*
X80387885Y-84891171D01*
X80497811Y-84927632D01*
X80497813Y-84927632D01*
X80504339Y-84929797D01*
X80511175Y-84930497D01*
X80511178Y-84930498D01*
X80554231Y-84934909D01*
X80608800Y-84940500D01*
X81209600Y-84940500D01*
X81212846Y-84940163D01*
X81212850Y-84940163D01*
X81308508Y-84930238D01*
X81308512Y-84930237D01*
X81315366Y-84929526D01*
X81321902Y-84927345D01*
X81321904Y-84927345D01*
X81454006Y-84883272D01*
X81483146Y-84873550D01*
X81633548Y-84780478D01*
X81758505Y-84655303D01*
X81764184Y-84646091D01*
X81795009Y-84596083D01*
X81851315Y-84504738D01*
X81853354Y-84498591D01*
X81900042Y-84445565D01*
X81967320Y-84426100D01*
X82132689Y-84426100D01*
X82200810Y-84446102D01*
X82239833Y-84485796D01*
X82305522Y-84591948D01*
X82430697Y-84716905D01*
X82436927Y-84720745D01*
X82436928Y-84720746D01*
X82574090Y-84805294D01*
X82581262Y-84809715D01*
X82661005Y-84836164D01*
X82742611Y-84863232D01*
X82742613Y-84863232D01*
X82749139Y-84865397D01*
X82755975Y-84866097D01*
X82755978Y-84866098D01*
X82792268Y-84869816D01*
X82853600Y-84876100D01*
X83479400Y-84876100D01*
X83482646Y-84875763D01*
X83482650Y-84875763D01*
X83578308Y-84865838D01*
X83578312Y-84865837D01*
X83585166Y-84865126D01*
X83591702Y-84862945D01*
X83591704Y-84862945D01*
X83723806Y-84818872D01*
X83752946Y-84809150D01*
X83903348Y-84716078D01*
X83989784Y-84629491D01*
X84052066Y-84595412D01*
X84122886Y-84600415D01*
X84167975Y-84629336D01*
X84199903Y-84661208D01*
X84255697Y-84716905D01*
X84261927Y-84720745D01*
X84261928Y-84720746D01*
X84399090Y-84805294D01*
X84406262Y-84809715D01*
X84486005Y-84836164D01*
X84567611Y-84863232D01*
X84567613Y-84863232D01*
X84574139Y-84865397D01*
X84580975Y-84866097D01*
X84580978Y-84866098D01*
X84617268Y-84869816D01*
X84678600Y-84876100D01*
X85304400Y-84876100D01*
X85307646Y-84875763D01*
X85307650Y-84875763D01*
X85403308Y-84865838D01*
X85403312Y-84865837D01*
X85410166Y-84865126D01*
X85416702Y-84862945D01*
X85416704Y-84862945D01*
X85548806Y-84818872D01*
X85577946Y-84809150D01*
X85728348Y-84716078D01*
X85853305Y-84590903D01*
X85901965Y-84511962D01*
X85942275Y-84446568D01*
X85942276Y-84446566D01*
X85946115Y-84440338D01*
X86001797Y-84272461D01*
X86012500Y-84168000D01*
X86012500Y-83167200D01*
X86012163Y-83163950D01*
X86002238Y-83068292D01*
X86002237Y-83068288D01*
X86001526Y-83061434D01*
X85945550Y-82893654D01*
X85852478Y-82743252D01*
X85847296Y-82738079D01*
X85842749Y-82732342D01*
X85843760Y-82731541D01*
X85813307Y-82675888D01*
X85818309Y-82605068D01*
X85840134Y-82571039D01*
X85838598Y-82569826D01*
X85843132Y-82564085D01*
X85848305Y-82558903D01*
X85912979Y-82453983D01*
X85965750Y-82406491D01*
X86020238Y-82394100D01*
X89129600Y-82394100D01*
X89197721Y-82414102D01*
X89244214Y-82467758D01*
X89255600Y-82520100D01*
X89255600Y-84901410D01*
X89235598Y-84969531D01*
X89218695Y-84990505D01*
X88292505Y-85916695D01*
X88230193Y-85950721D01*
X88203410Y-85953600D01*
X59624590Y-85953600D01*
X59556469Y-85933598D01*
X59535495Y-85916695D01*
X58609305Y-84990505D01*
X58575279Y-84928193D01*
X58572400Y-84901410D01*
X58572400Y-74000990D01*
X58592402Y-73932869D01*
X58609305Y-73911895D01*
X59535495Y-72985705D01*
X59597807Y-72951679D01*
X59624590Y-72948800D01*
X61702300Y-72948800D01*
X61770421Y-72968802D01*
G37*
G04 #@! TD.AperFunction*
G04 #@! TA.AperFunction,Conductor*
G36*
X74673405Y-72955207D02*
G01*
X74700011Y-72964032D01*
X74700013Y-72964032D01*
X74706539Y-72966197D01*
X74713375Y-72966897D01*
X74713378Y-72966898D01*
X74756431Y-72971309D01*
X74811000Y-72976900D01*
X74942620Y-72976900D01*
X75010741Y-72996902D01*
X75031715Y-73013805D01*
X75398014Y-73380104D01*
X75408883Y-73392497D01*
X75427387Y-73416613D01*
X75458051Y-73440142D01*
X75549527Y-73510334D01*
X75584372Y-73524767D01*
X75649486Y-73551738D01*
X75684136Y-73566091D01*
X75684138Y-73566091D01*
X75691763Y-73569250D01*
X75699951Y-73570328D01*
X75806076Y-73584300D01*
X75806081Y-73584300D01*
X75844400Y-73589345D01*
X75852588Y-73588267D01*
X75852589Y-73588267D01*
X75874533Y-73585378D01*
X75890979Y-73584300D01*
X77150219Y-73584300D01*
X77218340Y-73604302D01*
X77239315Y-73621205D01*
X77483396Y-73865287D01*
X77517421Y-73927599D01*
X77520300Y-73954382D01*
X77520300Y-78506818D01*
X77500298Y-78574939D01*
X77446642Y-78621432D01*
X77376368Y-78631536D01*
X77318736Y-78607645D01*
X77299747Y-78593414D01*
X77284153Y-78584876D01*
X77163705Y-78539722D01*
X77148450Y-78536095D01*
X77097585Y-78530569D01*
X77090771Y-78530200D01*
X76447432Y-78530201D01*
X76440611Y-78530571D01*
X76389749Y-78536095D01*
X76374497Y-78539721D01*
X76254042Y-78584878D01*
X76238455Y-78593411D01*
X76201144Y-78621374D01*
X76134638Y-78646221D01*
X76107187Y-78643998D01*
X76107116Y-78644655D01*
X76048331Y-78638269D01*
X76044934Y-78637900D01*
X72341866Y-78637900D01*
X72279684Y-78644655D01*
X72279436Y-78642374D01*
X72220109Y-78639282D01*
X72186285Y-78621222D01*
X72148591Y-78592971D01*
X72148589Y-78592970D01*
X72141404Y-78587585D01*
X72005015Y-78536455D01*
X71942833Y-78529700D01*
X71775815Y-78529700D01*
X71707694Y-78509698D01*
X71674488Y-78478530D01*
X71671795Y-78474092D01*
X71664397Y-78465716D01*
X70995405Y-77796724D01*
X70961379Y-77734412D01*
X70958500Y-77707629D01*
X70958500Y-77405369D01*
X70978502Y-77337248D01*
X71018193Y-77298228D01*
X71074348Y-77263478D01*
X71199305Y-77138303D01*
X71254492Y-77048774D01*
X71288275Y-76993968D01*
X71288276Y-76993966D01*
X71292115Y-76987738D01*
X71347797Y-76819861D01*
X71350574Y-76792763D01*
X71356950Y-76730525D01*
X71358500Y-76715400D01*
X71358500Y-76712095D01*
X72142001Y-76712095D01*
X72142338Y-76718614D01*
X72152257Y-76814206D01*
X72155149Y-76827600D01*
X72206588Y-76981784D01*
X72212761Y-76994962D01*
X72298063Y-77132807D01*
X72307099Y-77144208D01*
X72421829Y-77258739D01*
X72433240Y-77267751D01*
X72571243Y-77352816D01*
X72584424Y-77358963D01*
X72738710Y-77410138D01*
X72752086Y-77413005D01*
X72846438Y-77422672D01*
X72852854Y-77423000D01*
X73027885Y-77423000D01*
X73043124Y-77418525D01*
X73044329Y-77417135D01*
X73046000Y-77409452D01*
X73046000Y-77404884D01*
X73554000Y-77404884D01*
X73558475Y-77420123D01*
X73559865Y-77421328D01*
X73567548Y-77422999D01*
X73747095Y-77422999D01*
X73753614Y-77422662D01*
X73849206Y-77412743D01*
X73862600Y-77409851D01*
X74016784Y-77358412D01*
X74029962Y-77352239D01*
X74167807Y-77266937D01*
X74179208Y-77257901D01*
X74293739Y-77143171D01*
X74302751Y-77131760D01*
X74387816Y-76993757D01*
X74393963Y-76980576D01*
X74445138Y-76826290D01*
X74448005Y-76812914D01*
X74457672Y-76718562D01*
X74458000Y-76712146D01*
X74458000Y-76312115D01*
X74453525Y-76296876D01*
X74452135Y-76295671D01*
X74444452Y-76294000D01*
X73572115Y-76294000D01*
X73556876Y-76298475D01*
X73555671Y-76299865D01*
X73554000Y-76307548D01*
X73554000Y-77404884D01*
X73046000Y-77404884D01*
X73046000Y-76312115D01*
X73041525Y-76296876D01*
X73040135Y-76295671D01*
X73032452Y-76294000D01*
X72160116Y-76294000D01*
X72144877Y-76298475D01*
X72143672Y-76299865D01*
X72142001Y-76307548D01*
X72142001Y-76712095D01*
X71358500Y-76712095D01*
X71358500Y-76388862D01*
X71363014Y-76358291D01*
X71362656Y-76358217D01*
X71407276Y-76142757D01*
X71408213Y-76138233D01*
X71411500Y-76081225D01*
X71411500Y-75767885D01*
X72142000Y-75767885D01*
X72146475Y-75783124D01*
X72147865Y-75784329D01*
X72155548Y-75786000D01*
X73027885Y-75786000D01*
X73043124Y-75781525D01*
X73044329Y-75780135D01*
X73046000Y-75772452D01*
X73046000Y-75767885D01*
X73554000Y-75767885D01*
X73558475Y-75783124D01*
X73559865Y-75784329D01*
X73567548Y-75786000D01*
X74439884Y-75786000D01*
X74455123Y-75781525D01*
X74456328Y-75780135D01*
X74457999Y-75772452D01*
X74457999Y-75367905D01*
X74457662Y-75361386D01*
X74447743Y-75265794D01*
X74444851Y-75252400D01*
X74393412Y-75098216D01*
X74387239Y-75085038D01*
X74301937Y-74947193D01*
X74292901Y-74935792D01*
X74178171Y-74821261D01*
X74166760Y-74812249D01*
X74028757Y-74727184D01*
X74015576Y-74721037D01*
X73861290Y-74669862D01*
X73847914Y-74666995D01*
X73753562Y-74657328D01*
X73747145Y-74657000D01*
X73572115Y-74657000D01*
X73556876Y-74661475D01*
X73555671Y-74662865D01*
X73554000Y-74670548D01*
X73554000Y-75767885D01*
X73046000Y-75767885D01*
X73046000Y-74675116D01*
X73041525Y-74659877D01*
X73040135Y-74658672D01*
X73032452Y-74657001D01*
X72852905Y-74657001D01*
X72846386Y-74657338D01*
X72750794Y-74667257D01*
X72737400Y-74670149D01*
X72583216Y-74721588D01*
X72570038Y-74727761D01*
X72432193Y-74813063D01*
X72420792Y-74822099D01*
X72306261Y-74936829D01*
X72297249Y-74948240D01*
X72212184Y-75086243D01*
X72206037Y-75099424D01*
X72154862Y-75253710D01*
X72151995Y-75267086D01*
X72142328Y-75361438D01*
X72142000Y-75367855D01*
X72142000Y-75767885D01*
X71411500Y-75767885D01*
X71411500Y-73074800D01*
X71431502Y-73006679D01*
X71485158Y-72960186D01*
X71537500Y-72948800D01*
X74633738Y-72948800D01*
X74673405Y-72955207D01*
G37*
G04 #@! TD.AperFunction*
M02*
