%TF.GenerationSoftware,KiCad,Pcbnew,(5.1.10)-1*%
%TF.CreationDate,2021-10-28T16:28:33-07:00*%
%TF.ProjectId,AtlasPD,41746c61-7350-4442-9e6b-696361645f70,1.0*%
%TF.SameCoordinates,Original*%
%TF.FileFunction,Copper,L1,Top*%
%TF.FilePolarity,Positive*%
%FSLAX46Y46*%
G04 Gerber Fmt 4.6, Leading zero omitted, Abs format (unit mm)*
G04 Created by KiCad (PCBNEW (5.1.10)-1) date 2021-10-28 16:28:33*
%MOMM*%
%LPD*%
G01*
G04 APERTURE LIST*
%TA.AperFunction,SMDPad,CuDef*%
%ADD10C,1.000000*%
%TD*%
%TA.AperFunction,ComponentPad*%
%ADD11O,1.750000X1.200000*%
%TD*%
%TA.AperFunction,SMDPad,CuDef*%
%ADD12R,0.250000X0.500000*%
%TD*%
%TA.AperFunction,SMDPad,CuDef*%
%ADD13R,1.600000X0.900000*%
%TD*%
%TA.AperFunction,ComponentPad*%
%ADD14O,1.200000X1.750000*%
%TD*%
%TA.AperFunction,SMDPad,CuDef*%
%ADD15R,1.300000X1.550000*%
%TD*%
%TA.AperFunction,SMDPad,CuDef*%
%ADD16C,0.100000*%
%TD*%
%TA.AperFunction,SMDPad,CuDef*%
%ADD17R,2.000000X1.500000*%
%TD*%
%TA.AperFunction,SMDPad,CuDef*%
%ADD18R,2.000000X3.800000*%
%TD*%
%TA.AperFunction,SMDPad,CuDef*%
%ADD19R,2.600000X2.600000*%
%TD*%
%TA.AperFunction,SMDPad,CuDef*%
%ADD20R,1.450000X0.600000*%
%TD*%
%TA.AperFunction,SMDPad,CuDef*%
%ADD21R,1.450000X0.300000*%
%TD*%
%TA.AperFunction,ComponentPad*%
%ADD22O,2.100000X1.000000*%
%TD*%
%TA.AperFunction,ComponentPad*%
%ADD23O,1.600000X1.000000*%
%TD*%
%TA.AperFunction,ViaPad*%
%ADD24C,0.800000*%
%TD*%
%TA.AperFunction,Conductor*%
%ADD25C,0.500000*%
%TD*%
%TA.AperFunction,Conductor*%
%ADD26C,0.250000*%
%TD*%
%TA.AperFunction,Conductor*%
%ADD27C,0.897604*%
%TD*%
%TA.AperFunction,Conductor*%
%ADD28C,0.254000*%
%TD*%
%TA.AperFunction,Conductor*%
%ADD29C,0.100000*%
%TD*%
G04 APERTURE END LIST*
D10*
%TO.P,TP212,1*%
%TO.N,VCC*%
X255168400Y-49098200D03*
%TD*%
%TO.P,TP211,1*%
%TO.N,/Motor Driver/S4*%
X255193800Y-57150000D03*
%TD*%
%TO.P,TP210,1*%
%TO.N,/Sheet60A2E58A/IO12_MISO*%
X255168400Y-55143400D03*
%TD*%
%TO.P,TP209,1*%
%TO.N,/Motor Driver/EN*%
X255168400Y-51104800D03*
%TD*%
%TO.P,TP208,1*%
%TO.N,/Sheet60A2E58A/RESET*%
X255168400Y-53111400D03*
%TD*%
%TO.P,TP207,1*%
%TO.N,GND*%
X255168400Y-59207400D03*
%TD*%
%TO.P,TP206,1*%
%TO.N,/Sheet60A2E58A/AD0*%
X246253000Y-31394400D03*
%TD*%
%TO.P,TP205,1*%
%TO.N,/Sheet60A2E58A/AD1*%
X245110000Y-33324800D03*
%TD*%
%TO.P,TP204,1*%
%TO.N,/Sheet60A2E58A/AD2*%
X244017800Y-31419800D03*
%TD*%
%TO.P,TP203,1*%
%TO.N,/Sheet60A2E58A/AD3*%
X242925600Y-33274000D03*
%TD*%
%TO.P,TP202,1*%
%TO.N,/Sheet60A2E58A/AD4_SDA*%
X240538000Y-29946600D03*
%TD*%
%TO.P,TP201,1*%
%TO.N,/Sheet60A2E58A/AD5_SCL*%
X238150400Y-29946600D03*
%TD*%
%TO.P,C205,2*%
%TO.N,/Sheet60A2E58A/RESET*%
%TA.AperFunction,SMDPad,CuDef*%
G36*
G01*
X238560800Y-36494600D02*
X239060800Y-36494600D01*
G75*
G02*
X239285800Y-36719600I0J-225000D01*
G01*
X239285800Y-37169600D01*
G75*
G02*
X239060800Y-37394600I-225000J0D01*
G01*
X238560800Y-37394600D01*
G75*
G02*
X238335800Y-37169600I0J225000D01*
G01*
X238335800Y-36719600D01*
G75*
G02*
X238560800Y-36494600I225000J0D01*
G01*
G37*
%TD.AperFunction*%
%TO.P,C205,1*%
%TO.N,/Sheet60A2E58A/DTR*%
%TA.AperFunction,SMDPad,CuDef*%
G36*
G01*
X238560800Y-34944600D02*
X239060800Y-34944600D01*
G75*
G02*
X239285800Y-35169600I0J-225000D01*
G01*
X239285800Y-35619600D01*
G75*
G02*
X239060800Y-35844600I-225000J0D01*
G01*
X238560800Y-35844600D01*
G75*
G02*
X238335800Y-35619600I0J225000D01*
G01*
X238335800Y-35169600D01*
G75*
G02*
X238560800Y-34944600I225000J0D01*
G01*
G37*
%TD.AperFunction*%
%TD*%
D11*
%TO.P,J202,4*%
%TO.N,GND*%
X208407000Y-59467000D03*
%TO.P,J202,3*%
%TO.N,+BATT*%
X208407000Y-57467000D03*
%TO.P,J202,2*%
%TO.N,GND*%
X208407000Y-55467000D03*
%TO.P,J202,1*%
%TO.N,+5V*%
%TA.AperFunction,ComponentPad*%
G36*
G01*
X207781999Y-52867000D02*
X209032001Y-52867000D01*
G75*
G02*
X209282000Y-53116999I0J-249999D01*
G01*
X209282000Y-53817001D01*
G75*
G02*
X209032001Y-54067000I-249999J0D01*
G01*
X207781999Y-54067000D01*
G75*
G02*
X207532000Y-53817001I0J249999D01*
G01*
X207532000Y-53116999D01*
G75*
G02*
X207781999Y-52867000I249999J0D01*
G01*
G37*
%TD.AperFunction*%
%TD*%
%TO.P,C403,2*%
%TO.N,GND*%
%TA.AperFunction,SMDPad,CuDef*%
G36*
G01*
X214863800Y-41736200D02*
X214863800Y-42236200D01*
G75*
G02*
X214638800Y-42461200I-225000J0D01*
G01*
X214188800Y-42461200D01*
G75*
G02*
X213963800Y-42236200I0J225000D01*
G01*
X213963800Y-41736200D01*
G75*
G02*
X214188800Y-41511200I225000J0D01*
G01*
X214638800Y-41511200D01*
G75*
G02*
X214863800Y-41736200I0J-225000D01*
G01*
G37*
%TD.AperFunction*%
%TO.P,C403,1*%
%TO.N,+3V3*%
%TA.AperFunction,SMDPad,CuDef*%
G36*
G01*
X216413800Y-41736200D02*
X216413800Y-42236200D01*
G75*
G02*
X216188800Y-42461200I-225000J0D01*
G01*
X215738800Y-42461200D01*
G75*
G02*
X215513800Y-42236200I0J225000D01*
G01*
X215513800Y-41736200D01*
G75*
G02*
X215738800Y-41511200I225000J0D01*
G01*
X216188800Y-41511200D01*
G75*
G02*
X216413800Y-41736200I0J-225000D01*
G01*
G37*
%TD.AperFunction*%
%TD*%
D12*
%TO.P,U302,6*%
%TO.N,/Motor Driver/OUT1*%
X245379000Y-58320900D03*
%TO.P,U302,5*%
%TO.N,/Motor Driver/OUT2*%
X245879000Y-58320900D03*
%TO.P,U302,4*%
%TO.N,GND*%
X245879000Y-60220900D03*
%TO.P,U302,2*%
%TO.N,/Motor Driver/+M1*%
X244879000Y-60220900D03*
%TO.P,U302,1*%
%TO.N,+BATT*%
X244379000Y-60220900D03*
D13*
%TO.P,U302,9*%
%TO.N,GND*%
X245129000Y-59270900D03*
D12*
%TO.P,U302,8*%
%TO.N,VCC*%
X244379000Y-58320900D03*
%TO.P,U302,7*%
%TO.N,/Motor Driver/EN*%
X244879000Y-58320900D03*
%TO.P,U302,3*%
%TO.N,/Motor Driver/-M1*%
X245379000Y-60220900D03*
%TD*%
%TO.P,U303,6*%
%TO.N,/Motor Driver/OUT3*%
X229389800Y-57495400D03*
%TO.P,U303,5*%
%TO.N,/Motor Driver/OUT4*%
X229889800Y-57495400D03*
%TO.P,U303,4*%
%TO.N,GND*%
X229889800Y-59395400D03*
%TO.P,U303,2*%
%TO.N,/Motor Driver/+M2*%
X228889800Y-59395400D03*
%TO.P,U303,1*%
%TO.N,+BATT*%
X228389800Y-59395400D03*
D13*
%TO.P,U303,9*%
%TO.N,GND*%
X229139800Y-58445400D03*
D12*
%TO.P,U303,8*%
%TO.N,VCC*%
X228389800Y-57495400D03*
%TO.P,U303,7*%
%TO.N,/Motor Driver/EN*%
X228889800Y-57495400D03*
%TO.P,U303,3*%
%TO.N,/Motor Driver/-M2*%
X229389800Y-59395400D03*
%TD*%
%TO.P,U301,14*%
%TO.N,VCC*%
%TA.AperFunction,SMDPad,CuDef*%
G36*
G01*
X221004000Y-53190000D02*
X221004000Y-53490000D01*
G75*
G02*
X220854000Y-53640000I-150000J0D01*
G01*
X219204000Y-53640000D01*
G75*
G02*
X219054000Y-53490000I0J150000D01*
G01*
X219054000Y-53190000D01*
G75*
G02*
X219204000Y-53040000I150000J0D01*
G01*
X220854000Y-53040000D01*
G75*
G02*
X221004000Y-53190000I0J-150000D01*
G01*
G37*
%TD.AperFunction*%
%TO.P,U301,13*%
%TO.N,/Motor Driver/IN4*%
%TA.AperFunction,SMDPad,CuDef*%
G36*
G01*
X221004000Y-51920000D02*
X221004000Y-52220000D01*
G75*
G02*
X220854000Y-52370000I-150000J0D01*
G01*
X219204000Y-52370000D01*
G75*
G02*
X219054000Y-52220000I0J150000D01*
G01*
X219054000Y-51920000D01*
G75*
G02*
X219204000Y-51770000I150000J0D01*
G01*
X220854000Y-51770000D01*
G75*
G02*
X221004000Y-51920000I0J-150000D01*
G01*
G37*
%TD.AperFunction*%
%TO.P,U301,12*%
%TO.N,/Motor Driver/PWM_B*%
%TA.AperFunction,SMDPad,CuDef*%
G36*
G01*
X221004000Y-50650000D02*
X221004000Y-50950000D01*
G75*
G02*
X220854000Y-51100000I-150000J0D01*
G01*
X219204000Y-51100000D01*
G75*
G02*
X219054000Y-50950000I0J150000D01*
G01*
X219054000Y-50650000D01*
G75*
G02*
X219204000Y-50500000I150000J0D01*
G01*
X220854000Y-50500000D01*
G75*
G02*
X221004000Y-50650000I0J-150000D01*
G01*
G37*
%TD.AperFunction*%
%TO.P,U301,11*%
%TO.N,/Motor Driver/OUT4*%
%TA.AperFunction,SMDPad,CuDef*%
G36*
G01*
X221004000Y-49380000D02*
X221004000Y-49680000D01*
G75*
G02*
X220854000Y-49830000I-150000J0D01*
G01*
X219204000Y-49830000D01*
G75*
G02*
X219054000Y-49680000I0J150000D01*
G01*
X219054000Y-49380000D01*
G75*
G02*
X219204000Y-49230000I150000J0D01*
G01*
X220854000Y-49230000D01*
G75*
G02*
X221004000Y-49380000I0J-150000D01*
G01*
G37*
%TD.AperFunction*%
%TO.P,U301,10*%
%TO.N,/Motor Driver/PWM_B*%
%TA.AperFunction,SMDPad,CuDef*%
G36*
G01*
X221004000Y-48110000D02*
X221004000Y-48410000D01*
G75*
G02*
X220854000Y-48560000I-150000J0D01*
G01*
X219204000Y-48560000D01*
G75*
G02*
X219054000Y-48410000I0J150000D01*
G01*
X219054000Y-48110000D01*
G75*
G02*
X219204000Y-47960000I150000J0D01*
G01*
X220854000Y-47960000D01*
G75*
G02*
X221004000Y-48110000I0J-150000D01*
G01*
G37*
%TD.AperFunction*%
%TO.P,U301,9*%
%TO.N,/Motor Driver/IN3*%
%TA.AperFunction,SMDPad,CuDef*%
G36*
G01*
X221004000Y-46840000D02*
X221004000Y-47140000D01*
G75*
G02*
X220854000Y-47290000I-150000J0D01*
G01*
X219204000Y-47290000D01*
G75*
G02*
X219054000Y-47140000I0J150000D01*
G01*
X219054000Y-46840000D01*
G75*
G02*
X219204000Y-46690000I150000J0D01*
G01*
X220854000Y-46690000D01*
G75*
G02*
X221004000Y-46840000I0J-150000D01*
G01*
G37*
%TD.AperFunction*%
%TO.P,U301,8*%
%TO.N,/Motor Driver/OUT3*%
%TA.AperFunction,SMDPad,CuDef*%
G36*
G01*
X221004000Y-45570000D02*
X221004000Y-45870000D01*
G75*
G02*
X220854000Y-46020000I-150000J0D01*
G01*
X219204000Y-46020000D01*
G75*
G02*
X219054000Y-45870000I0J150000D01*
G01*
X219054000Y-45570000D01*
G75*
G02*
X219204000Y-45420000I150000J0D01*
G01*
X220854000Y-45420000D01*
G75*
G02*
X221004000Y-45570000I0J-150000D01*
G01*
G37*
%TD.AperFunction*%
%TO.P,U301,7*%
%TO.N,GND*%
%TA.AperFunction,SMDPad,CuDef*%
G36*
G01*
X225954000Y-45570000D02*
X225954000Y-45870000D01*
G75*
G02*
X225804000Y-46020000I-150000J0D01*
G01*
X224154000Y-46020000D01*
G75*
G02*
X224004000Y-45870000I0J150000D01*
G01*
X224004000Y-45570000D01*
G75*
G02*
X224154000Y-45420000I150000J0D01*
G01*
X225804000Y-45420000D01*
G75*
G02*
X225954000Y-45570000I0J-150000D01*
G01*
G37*
%TD.AperFunction*%
%TO.P,U301,6*%
%TO.N,/Motor Driver/OUT2*%
%TA.AperFunction,SMDPad,CuDef*%
G36*
G01*
X225954000Y-46840000D02*
X225954000Y-47140000D01*
G75*
G02*
X225804000Y-47290000I-150000J0D01*
G01*
X224154000Y-47290000D01*
G75*
G02*
X224004000Y-47140000I0J150000D01*
G01*
X224004000Y-46840000D01*
G75*
G02*
X224154000Y-46690000I150000J0D01*
G01*
X225804000Y-46690000D01*
G75*
G02*
X225954000Y-46840000I0J-150000D01*
G01*
G37*
%TD.AperFunction*%
%TO.P,U301,5*%
%TO.N,/Motor Driver/IN1*%
%TA.AperFunction,SMDPad,CuDef*%
G36*
G01*
X225954000Y-48110000D02*
X225954000Y-48410000D01*
G75*
G02*
X225804000Y-48560000I-150000J0D01*
G01*
X224154000Y-48560000D01*
G75*
G02*
X224004000Y-48410000I0J150000D01*
G01*
X224004000Y-48110000D01*
G75*
G02*
X224154000Y-47960000I150000J0D01*
G01*
X225804000Y-47960000D01*
G75*
G02*
X225954000Y-48110000I0J-150000D01*
G01*
G37*
%TD.AperFunction*%
%TO.P,U301,4*%
%TO.N,/Motor Driver/PWM_A*%
%TA.AperFunction,SMDPad,CuDef*%
G36*
G01*
X225954000Y-49380000D02*
X225954000Y-49680000D01*
G75*
G02*
X225804000Y-49830000I-150000J0D01*
G01*
X224154000Y-49830000D01*
G75*
G02*
X224004000Y-49680000I0J150000D01*
G01*
X224004000Y-49380000D01*
G75*
G02*
X224154000Y-49230000I150000J0D01*
G01*
X225804000Y-49230000D01*
G75*
G02*
X225954000Y-49380000I0J-150000D01*
G01*
G37*
%TD.AperFunction*%
%TO.P,U301,3*%
%TO.N,/Motor Driver/OUT1*%
%TA.AperFunction,SMDPad,CuDef*%
G36*
G01*
X225954000Y-50650000D02*
X225954000Y-50950000D01*
G75*
G02*
X225804000Y-51100000I-150000J0D01*
G01*
X224154000Y-51100000D01*
G75*
G02*
X224004000Y-50950000I0J150000D01*
G01*
X224004000Y-50650000D01*
G75*
G02*
X224154000Y-50500000I150000J0D01*
G01*
X225804000Y-50500000D01*
G75*
G02*
X225954000Y-50650000I0J-150000D01*
G01*
G37*
%TD.AperFunction*%
%TO.P,U301,2*%
%TO.N,/Motor Driver/PWM_A*%
%TA.AperFunction,SMDPad,CuDef*%
G36*
G01*
X225954000Y-51920000D02*
X225954000Y-52220000D01*
G75*
G02*
X225804000Y-52370000I-150000J0D01*
G01*
X224154000Y-52370000D01*
G75*
G02*
X224004000Y-52220000I0J150000D01*
G01*
X224004000Y-51920000D01*
G75*
G02*
X224154000Y-51770000I150000J0D01*
G01*
X225804000Y-51770000D01*
G75*
G02*
X225954000Y-51920000I0J-150000D01*
G01*
G37*
%TD.AperFunction*%
%TO.P,U301,1*%
%TO.N,/Motor Driver/IN2*%
%TA.AperFunction,SMDPad,CuDef*%
G36*
G01*
X225954000Y-53190000D02*
X225954000Y-53490000D01*
G75*
G02*
X225804000Y-53640000I-150000J0D01*
G01*
X224154000Y-53640000D01*
G75*
G02*
X224004000Y-53490000I0J150000D01*
G01*
X224004000Y-53190000D01*
G75*
G02*
X224154000Y-53040000I150000J0D01*
G01*
X225804000Y-53040000D01*
G75*
G02*
X225954000Y-53190000I0J-150000D01*
G01*
G37*
%TD.AperFunction*%
%TD*%
D14*
%TO.P,J302,6*%
%TO.N,/Motor Driver/S4*%
X221870000Y-64389000D03*
%TO.P,J302,5*%
%TO.N,/Motor Driver/S3*%
X223870000Y-64389000D03*
%TO.P,J302,4*%
%TO.N,GND*%
X225870000Y-64389000D03*
%TO.P,J302,3*%
%TO.N,+5V*%
X227870000Y-64389000D03*
%TO.P,J302,2*%
%TO.N,/Motor Driver/+M2*%
X229870000Y-64389000D03*
%TO.P,J302,1*%
%TO.N,/Motor Driver/-M2*%
%TA.AperFunction,ComponentPad*%
G36*
G01*
X232470000Y-63763999D02*
X232470000Y-65014001D01*
G75*
G02*
X232220001Y-65264000I-249999J0D01*
G01*
X231519999Y-65264000D01*
G75*
G02*
X231270000Y-65014001I0J249999D01*
G01*
X231270000Y-63763999D01*
G75*
G02*
X231519999Y-63514000I249999J0D01*
G01*
X232220001Y-63514000D01*
G75*
G02*
X232470000Y-63763999I0J-249999D01*
G01*
G37*
%TD.AperFunction*%
%TD*%
%TO.P,J301,6*%
%TO.N,/Motor Driver/S2*%
X236887000Y-64389000D03*
%TO.P,J301,5*%
%TO.N,/Motor Driver/S1*%
X238887000Y-64389000D03*
%TO.P,J301,4*%
%TO.N,GND*%
X240887000Y-64389000D03*
%TO.P,J301,3*%
%TO.N,+5V*%
X242887000Y-64389000D03*
%TO.P,J301,2*%
%TO.N,/Motor Driver/+M1*%
X244887000Y-64389000D03*
%TO.P,J301,1*%
%TO.N,/Motor Driver/-M1*%
%TA.AperFunction,ComponentPad*%
G36*
G01*
X247487000Y-63763999D02*
X247487000Y-65014001D01*
G75*
G02*
X247237001Y-65264000I-249999J0D01*
G01*
X246536999Y-65264000D01*
G75*
G02*
X246287000Y-65014001I0J249999D01*
G01*
X246287000Y-63763999D01*
G75*
G02*
X246536999Y-63514000I249999J0D01*
G01*
X247237001Y-63514000D01*
G75*
G02*
X247487000Y-63763999I0J-249999D01*
G01*
G37*
%TD.AperFunction*%
%TD*%
%TO.P,D204,2*%
%TO.N,+5V*%
%TA.AperFunction,SMDPad,CuDef*%
G36*
G01*
X229889800Y-36451250D02*
X229889800Y-35938750D01*
G75*
G02*
X230108550Y-35720000I218750J0D01*
G01*
X230546050Y-35720000D01*
G75*
G02*
X230764800Y-35938750I0J-218750D01*
G01*
X230764800Y-36451250D01*
G75*
G02*
X230546050Y-36670000I-218750J0D01*
G01*
X230108550Y-36670000D01*
G75*
G02*
X229889800Y-36451250I0J218750D01*
G01*
G37*
%TD.AperFunction*%
%TO.P,D204,1*%
%TO.N,Net-(D204-Pad1)*%
%TA.AperFunction,SMDPad,CuDef*%
G36*
G01*
X228314800Y-36451250D02*
X228314800Y-35938750D01*
G75*
G02*
X228533550Y-35720000I218750J0D01*
G01*
X228971050Y-35720000D01*
G75*
G02*
X229189800Y-35938750I0J-218750D01*
G01*
X229189800Y-36451250D01*
G75*
G02*
X228971050Y-36670000I-218750J0D01*
G01*
X228533550Y-36670000D01*
G75*
G02*
X228314800Y-36451250I0J218750D01*
G01*
G37*
%TD.AperFunction*%
%TD*%
%TO.P,D201,2*%
%TO.N,/Motor Driver/EN*%
%TA.AperFunction,SMDPad,CuDef*%
G36*
G01*
X229889800Y-34876450D02*
X229889800Y-34363950D01*
G75*
G02*
X230108550Y-34145200I218750J0D01*
G01*
X230546050Y-34145200D01*
G75*
G02*
X230764800Y-34363950I0J-218750D01*
G01*
X230764800Y-34876450D01*
G75*
G02*
X230546050Y-35095200I-218750J0D01*
G01*
X230108550Y-35095200D01*
G75*
G02*
X229889800Y-34876450I0J218750D01*
G01*
G37*
%TD.AperFunction*%
%TO.P,D201,1*%
%TO.N,Net-(D201-Pad1)*%
%TA.AperFunction,SMDPad,CuDef*%
G36*
G01*
X228314800Y-34876450D02*
X228314800Y-34363950D01*
G75*
G02*
X228533550Y-34145200I218750J0D01*
G01*
X228971050Y-34145200D01*
G75*
G02*
X229189800Y-34363950I0J-218750D01*
G01*
X229189800Y-34876450D01*
G75*
G02*
X228971050Y-35095200I-218750J0D01*
G01*
X228533550Y-35095200D01*
G75*
G02*
X228314800Y-34876450I0J218750D01*
G01*
G37*
%TD.AperFunction*%
%TD*%
%TO.P,D203,2*%
%TO.N,+5V*%
%TA.AperFunction,SMDPad,CuDef*%
G36*
G01*
X229889800Y-38076850D02*
X229889800Y-37564350D01*
G75*
G02*
X230108550Y-37345600I218750J0D01*
G01*
X230546050Y-37345600D01*
G75*
G02*
X230764800Y-37564350I0J-218750D01*
G01*
X230764800Y-38076850D01*
G75*
G02*
X230546050Y-38295600I-218750J0D01*
G01*
X230108550Y-38295600D01*
G75*
G02*
X229889800Y-38076850I0J218750D01*
G01*
G37*
%TD.AperFunction*%
%TO.P,D203,1*%
%TO.N,Net-(D203-Pad1)*%
%TA.AperFunction,SMDPad,CuDef*%
G36*
G01*
X228314800Y-38076850D02*
X228314800Y-37564350D01*
G75*
G02*
X228533550Y-37345600I218750J0D01*
G01*
X228971050Y-37345600D01*
G75*
G02*
X229189800Y-37564350I0J-218750D01*
G01*
X229189800Y-38076850D01*
G75*
G02*
X228971050Y-38295600I-218750J0D01*
G01*
X228533550Y-38295600D01*
G75*
G02*
X228314800Y-38076850I0J218750D01*
G01*
G37*
%TD.AperFunction*%
%TD*%
%TO.P,D202,2*%
%TO.N,+5V*%
%TA.AperFunction,SMDPad,CuDef*%
G36*
G01*
X229889800Y-39626250D02*
X229889800Y-39113750D01*
G75*
G02*
X230108550Y-38895000I218750J0D01*
G01*
X230546050Y-38895000D01*
G75*
G02*
X230764800Y-39113750I0J-218750D01*
G01*
X230764800Y-39626250D01*
G75*
G02*
X230546050Y-39845000I-218750J0D01*
G01*
X230108550Y-39845000D01*
G75*
G02*
X229889800Y-39626250I0J218750D01*
G01*
G37*
%TD.AperFunction*%
%TO.P,D202,1*%
%TO.N,Net-(D202-Pad1)*%
%TA.AperFunction,SMDPad,CuDef*%
G36*
G01*
X228314800Y-39626250D02*
X228314800Y-39113750D01*
G75*
G02*
X228533550Y-38895000I218750J0D01*
G01*
X228971050Y-38895000D01*
G75*
G02*
X229189800Y-39113750I0J-218750D01*
G01*
X229189800Y-39626250D01*
G75*
G02*
X228971050Y-39845000I-218750J0D01*
G01*
X228533550Y-39845000D01*
G75*
G02*
X228314800Y-39626250I0J218750D01*
G01*
G37*
%TD.AperFunction*%
%TD*%
%TO.P,R201,2*%
%TO.N,Net-(J201-PadB7)*%
%TA.AperFunction,SMDPad,CuDef*%
G36*
G01*
X213330200Y-36024000D02*
X212780200Y-36024000D01*
G75*
G02*
X212580200Y-35824000I0J200000D01*
G01*
X212580200Y-35424000D01*
G75*
G02*
X212780200Y-35224000I200000J0D01*
G01*
X213330200Y-35224000D01*
G75*
G02*
X213530200Y-35424000I0J-200000D01*
G01*
X213530200Y-35824000D01*
G75*
G02*
X213330200Y-36024000I-200000J0D01*
G01*
G37*
%TD.AperFunction*%
%TO.P,R201,1*%
%TO.N,/Sheet60A2E58A/USB_DN*%
%TA.AperFunction,SMDPad,CuDef*%
G36*
G01*
X213330200Y-37674000D02*
X212780200Y-37674000D01*
G75*
G02*
X212580200Y-37474000I0J200000D01*
G01*
X212580200Y-37074000D01*
G75*
G02*
X212780200Y-36874000I200000J0D01*
G01*
X213330200Y-36874000D01*
G75*
G02*
X213530200Y-37074000I0J-200000D01*
G01*
X213530200Y-37474000D01*
G75*
G02*
X213330200Y-37674000I-200000J0D01*
G01*
G37*
%TD.AperFunction*%
%TD*%
D15*
%TO.P,SW201,2*%
%TO.N,GND*%
X248879800Y-37071200D03*
%TO.P,SW201,1*%
%TO.N,/Sheet60A2E58A/RESET*%
X253379800Y-37071200D03*
X253379800Y-29121200D03*
%TO.P,SW201,2*%
%TO.N,GND*%
X248879800Y-29121200D03*
%TD*%
%TA.AperFunction,SMDPad,CuDef*%
D16*
%TO.P,Y201,3*%
%TO.N,Net-(U202-Pad7)*%
G36*
X243814973Y-50726870D02*
G01*
X242471470Y-52070373D01*
X242188627Y-51787530D01*
X243532130Y-50444027D01*
X243814973Y-50726870D01*
G37*
%TD.AperFunction*%
%TA.AperFunction,SMDPad,CuDef*%
%TO.P,Y201,2*%
%TO.N,GND*%
G36*
X244663502Y-51575398D02*
G01*
X243319999Y-52918901D01*
X243037156Y-52636058D01*
X244380659Y-51292555D01*
X244663502Y-51575398D01*
G37*
%TD.AperFunction*%
%TA.AperFunction,SMDPad,CuDef*%
%TO.P,Y201,1*%
%TO.N,Net-(U202-Pad8)*%
G36*
X245512030Y-52423927D02*
G01*
X244168527Y-53767430D01*
X243885684Y-53484587D01*
X245229187Y-52141084D01*
X245512030Y-52423927D01*
G37*
%TD.AperFunction*%
%TD*%
D17*
%TO.P,U401,1*%
%TO.N,GND*%
X209600400Y-44258200D03*
%TO.P,U401,3*%
%TO.N,+5V*%
X209600400Y-48858200D03*
%TO.P,U401,2*%
%TO.N,+3V3*%
X209600400Y-46558200D03*
D18*
X215900400Y-46558200D03*
%TD*%
D19*
%TO.P,U201,25*%
%TO.N,GND*%
X218160600Y-36703000D03*
%TO.P,U201,24*%
%TO.N,Net-(U201-Pad24)*%
%TA.AperFunction,SMDPad,CuDef*%
G36*
G01*
X216785600Y-35115500D02*
X216785600Y-34415500D01*
G75*
G02*
X216848100Y-34353000I62500J0D01*
G01*
X216973100Y-34353000D01*
G75*
G02*
X217035600Y-34415500I0J-62500D01*
G01*
X217035600Y-35115500D01*
G75*
G02*
X216973100Y-35178000I-62500J0D01*
G01*
X216848100Y-35178000D01*
G75*
G02*
X216785600Y-35115500I0J62500D01*
G01*
G37*
%TD.AperFunction*%
%TO.P,U201,23*%
%TO.N,/Sheet60A2E58A/DTR*%
%TA.AperFunction,SMDPad,CuDef*%
G36*
G01*
X217285600Y-35115500D02*
X217285600Y-34415500D01*
G75*
G02*
X217348100Y-34353000I62500J0D01*
G01*
X217473100Y-34353000D01*
G75*
G02*
X217535600Y-34415500I0J-62500D01*
G01*
X217535600Y-35115500D01*
G75*
G02*
X217473100Y-35178000I-62500J0D01*
G01*
X217348100Y-35178000D01*
G75*
G02*
X217285600Y-35115500I0J62500D01*
G01*
G37*
%TD.AperFunction*%
%TO.P,U201,22*%
%TO.N,Net-(U201-Pad22)*%
%TA.AperFunction,SMDPad,CuDef*%
G36*
G01*
X217785600Y-35115500D02*
X217785600Y-34415500D01*
G75*
G02*
X217848100Y-34353000I62500J0D01*
G01*
X217973100Y-34353000D01*
G75*
G02*
X218035600Y-34415500I0J-62500D01*
G01*
X218035600Y-35115500D01*
G75*
G02*
X217973100Y-35178000I-62500J0D01*
G01*
X217848100Y-35178000D01*
G75*
G02*
X217785600Y-35115500I0J62500D01*
G01*
G37*
%TD.AperFunction*%
%TO.P,U201,21*%
%TO.N,/Sheet60A2E58A/RXD*%
%TA.AperFunction,SMDPad,CuDef*%
G36*
G01*
X218285600Y-35115500D02*
X218285600Y-34415500D01*
G75*
G02*
X218348100Y-34353000I62500J0D01*
G01*
X218473100Y-34353000D01*
G75*
G02*
X218535600Y-34415500I0J-62500D01*
G01*
X218535600Y-35115500D01*
G75*
G02*
X218473100Y-35178000I-62500J0D01*
G01*
X218348100Y-35178000D01*
G75*
G02*
X218285600Y-35115500I0J62500D01*
G01*
G37*
%TD.AperFunction*%
%TO.P,U201,20*%
%TO.N,/Sheet60A2E58A/IO1*%
%TA.AperFunction,SMDPad,CuDef*%
G36*
G01*
X218785600Y-35115500D02*
X218785600Y-34415500D01*
G75*
G02*
X218848100Y-34353000I62500J0D01*
G01*
X218973100Y-34353000D01*
G75*
G02*
X219035600Y-34415500I0J-62500D01*
G01*
X219035600Y-35115500D01*
G75*
G02*
X218973100Y-35178000I-62500J0D01*
G01*
X218848100Y-35178000D01*
G75*
G02*
X218785600Y-35115500I0J62500D01*
G01*
G37*
%TD.AperFunction*%
%TO.P,U201,19*%
%TO.N,Net-(U201-Pad19)*%
%TA.AperFunction,SMDPad,CuDef*%
G36*
G01*
X219285600Y-35115500D02*
X219285600Y-34415500D01*
G75*
G02*
X219348100Y-34353000I62500J0D01*
G01*
X219473100Y-34353000D01*
G75*
G02*
X219535600Y-34415500I0J-62500D01*
G01*
X219535600Y-35115500D01*
G75*
G02*
X219473100Y-35178000I-62500J0D01*
G01*
X219348100Y-35178000D01*
G75*
G02*
X219285600Y-35115500I0J62500D01*
G01*
G37*
%TD.AperFunction*%
%TO.P,U201,18*%
%TO.N,Net-(U201-Pad18)*%
%TA.AperFunction,SMDPad,CuDef*%
G36*
G01*
X219685600Y-35515500D02*
X219685600Y-35390500D01*
G75*
G02*
X219748100Y-35328000I62500J0D01*
G01*
X220448100Y-35328000D01*
G75*
G02*
X220510600Y-35390500I0J-62500D01*
G01*
X220510600Y-35515500D01*
G75*
G02*
X220448100Y-35578000I-62500J0D01*
G01*
X219748100Y-35578000D01*
G75*
G02*
X219685600Y-35515500I0J62500D01*
G01*
G37*
%TD.AperFunction*%
%TO.P,U201,17*%
%TO.N,Net-(U201-Pad17)*%
%TA.AperFunction,SMDPad,CuDef*%
G36*
G01*
X219685600Y-36015500D02*
X219685600Y-35890500D01*
G75*
G02*
X219748100Y-35828000I62500J0D01*
G01*
X220448100Y-35828000D01*
G75*
G02*
X220510600Y-35890500I0J-62500D01*
G01*
X220510600Y-36015500D01*
G75*
G02*
X220448100Y-36078000I-62500J0D01*
G01*
X219748100Y-36078000D01*
G75*
G02*
X219685600Y-36015500I0J62500D01*
G01*
G37*
%TD.AperFunction*%
%TO.P,U201,16*%
%TO.N,Net-(C202-Pad2)*%
%TA.AperFunction,SMDPad,CuDef*%
G36*
G01*
X219685600Y-36515500D02*
X219685600Y-36390500D01*
G75*
G02*
X219748100Y-36328000I62500J0D01*
G01*
X220448100Y-36328000D01*
G75*
G02*
X220510600Y-36390500I0J-62500D01*
G01*
X220510600Y-36515500D01*
G75*
G02*
X220448100Y-36578000I-62500J0D01*
G01*
X219748100Y-36578000D01*
G75*
G02*
X219685600Y-36515500I0J62500D01*
G01*
G37*
%TD.AperFunction*%
%TO.P,U201,15*%
%TO.N,Net-(U201-Pad15)*%
%TA.AperFunction,SMDPad,CuDef*%
G36*
G01*
X219685600Y-37015500D02*
X219685600Y-36890500D01*
G75*
G02*
X219748100Y-36828000I62500J0D01*
G01*
X220448100Y-36828000D01*
G75*
G02*
X220510600Y-36890500I0J-62500D01*
G01*
X220510600Y-37015500D01*
G75*
G02*
X220448100Y-37078000I-62500J0D01*
G01*
X219748100Y-37078000D01*
G75*
G02*
X219685600Y-37015500I0J62500D01*
G01*
G37*
%TD.AperFunction*%
%TO.P,U201,14*%
%TO.N,Net-(R206-Pad1)*%
%TA.AperFunction,SMDPad,CuDef*%
G36*
G01*
X219685600Y-37515500D02*
X219685600Y-37390500D01*
G75*
G02*
X219748100Y-37328000I62500J0D01*
G01*
X220448100Y-37328000D01*
G75*
G02*
X220510600Y-37390500I0J-62500D01*
G01*
X220510600Y-37515500D01*
G75*
G02*
X220448100Y-37578000I-62500J0D01*
G01*
X219748100Y-37578000D01*
G75*
G02*
X219685600Y-37515500I0J62500D01*
G01*
G37*
%TD.AperFunction*%
%TO.P,U201,13*%
%TO.N,Net-(R205-Pad1)*%
%TA.AperFunction,SMDPad,CuDef*%
G36*
G01*
X219685600Y-38015500D02*
X219685600Y-37890500D01*
G75*
G02*
X219748100Y-37828000I62500J0D01*
G01*
X220448100Y-37828000D01*
G75*
G02*
X220510600Y-37890500I0J-62500D01*
G01*
X220510600Y-38015500D01*
G75*
G02*
X220448100Y-38078000I-62500J0D01*
G01*
X219748100Y-38078000D01*
G75*
G02*
X219685600Y-38015500I0J62500D01*
G01*
G37*
%TD.AperFunction*%
%TO.P,U201,12*%
%TO.N,Net-(U201-Pad12)*%
%TA.AperFunction,SMDPad,CuDef*%
G36*
G01*
X219285600Y-38990500D02*
X219285600Y-38290500D01*
G75*
G02*
X219348100Y-38228000I62500J0D01*
G01*
X219473100Y-38228000D01*
G75*
G02*
X219535600Y-38290500I0J-62500D01*
G01*
X219535600Y-38990500D01*
G75*
G02*
X219473100Y-39053000I-62500J0D01*
G01*
X219348100Y-39053000D01*
G75*
G02*
X219285600Y-38990500I0J62500D01*
G01*
G37*
%TD.AperFunction*%
%TO.P,U201,11*%
%TO.N,Net-(U201-Pad11)*%
%TA.AperFunction,SMDPad,CuDef*%
G36*
G01*
X218785600Y-38990500D02*
X218785600Y-38290500D01*
G75*
G02*
X218848100Y-38228000I62500J0D01*
G01*
X218973100Y-38228000D01*
G75*
G02*
X219035600Y-38290500I0J-62500D01*
G01*
X219035600Y-38990500D01*
G75*
G02*
X218973100Y-39053000I-62500J0D01*
G01*
X218848100Y-39053000D01*
G75*
G02*
X218785600Y-38990500I0J62500D01*
G01*
G37*
%TD.AperFunction*%
%TO.P,U201,10*%
%TO.N,Net-(U201-Pad10)*%
%TA.AperFunction,SMDPad,CuDef*%
G36*
G01*
X218285600Y-38990500D02*
X218285600Y-38290500D01*
G75*
G02*
X218348100Y-38228000I62500J0D01*
G01*
X218473100Y-38228000D01*
G75*
G02*
X218535600Y-38290500I0J-62500D01*
G01*
X218535600Y-38990500D01*
G75*
G02*
X218473100Y-39053000I-62500J0D01*
G01*
X218348100Y-39053000D01*
G75*
G02*
X218285600Y-38990500I0J62500D01*
G01*
G37*
%TD.AperFunction*%
%TO.P,U201,9*%
%TO.N,Net-(U201-Pad9)*%
%TA.AperFunction,SMDPad,CuDef*%
G36*
G01*
X217785600Y-38990500D02*
X217785600Y-38290500D01*
G75*
G02*
X217848100Y-38228000I62500J0D01*
G01*
X217973100Y-38228000D01*
G75*
G02*
X218035600Y-38290500I0J-62500D01*
G01*
X218035600Y-38990500D01*
G75*
G02*
X217973100Y-39053000I-62500J0D01*
G01*
X217848100Y-39053000D01*
G75*
G02*
X217785600Y-38990500I0J62500D01*
G01*
G37*
%TD.AperFunction*%
%TO.P,U201,8*%
%TO.N,+5V*%
%TA.AperFunction,SMDPad,CuDef*%
G36*
G01*
X217285600Y-38990500D02*
X217285600Y-38290500D01*
G75*
G02*
X217348100Y-38228000I62500J0D01*
G01*
X217473100Y-38228000D01*
G75*
G02*
X217535600Y-38290500I0J-62500D01*
G01*
X217535600Y-38990500D01*
G75*
G02*
X217473100Y-39053000I-62500J0D01*
G01*
X217348100Y-39053000D01*
G75*
G02*
X217285600Y-38990500I0J62500D01*
G01*
G37*
%TD.AperFunction*%
%TO.P,U201,7*%
%TO.N,+3V3*%
%TA.AperFunction,SMDPad,CuDef*%
G36*
G01*
X216785600Y-38990500D02*
X216785600Y-38290500D01*
G75*
G02*
X216848100Y-38228000I62500J0D01*
G01*
X216973100Y-38228000D01*
G75*
G02*
X217035600Y-38290500I0J-62500D01*
G01*
X217035600Y-38990500D01*
G75*
G02*
X216973100Y-39053000I-62500J0D01*
G01*
X216848100Y-39053000D01*
G75*
G02*
X216785600Y-38990500I0J62500D01*
G01*
G37*
%TD.AperFunction*%
%TO.P,U201,6*%
%TA.AperFunction,SMDPad,CuDef*%
G36*
G01*
X215810600Y-38015500D02*
X215810600Y-37890500D01*
G75*
G02*
X215873100Y-37828000I62500J0D01*
G01*
X216573100Y-37828000D01*
G75*
G02*
X216635600Y-37890500I0J-62500D01*
G01*
X216635600Y-38015500D01*
G75*
G02*
X216573100Y-38078000I-62500J0D01*
G01*
X215873100Y-38078000D01*
G75*
G02*
X215810600Y-38015500I0J62500D01*
G01*
G37*
%TD.AperFunction*%
%TO.P,U201,5*%
%TA.AperFunction,SMDPad,CuDef*%
G36*
G01*
X215810600Y-37515500D02*
X215810600Y-37390500D01*
G75*
G02*
X215873100Y-37328000I62500J0D01*
G01*
X216573100Y-37328000D01*
G75*
G02*
X216635600Y-37390500I0J-62500D01*
G01*
X216635600Y-37515500D01*
G75*
G02*
X216573100Y-37578000I-62500J0D01*
G01*
X215873100Y-37578000D01*
G75*
G02*
X215810600Y-37515500I0J62500D01*
G01*
G37*
%TD.AperFunction*%
%TO.P,U201,4*%
%TO.N,/Sheet60A2E58A/USB_DN*%
%TA.AperFunction,SMDPad,CuDef*%
G36*
G01*
X215810600Y-37015500D02*
X215810600Y-36890500D01*
G75*
G02*
X215873100Y-36828000I62500J0D01*
G01*
X216573100Y-36828000D01*
G75*
G02*
X216635600Y-36890500I0J-62500D01*
G01*
X216635600Y-37015500D01*
G75*
G02*
X216573100Y-37078000I-62500J0D01*
G01*
X215873100Y-37078000D01*
G75*
G02*
X215810600Y-37015500I0J62500D01*
G01*
G37*
%TD.AperFunction*%
%TO.P,U201,3*%
%TO.N,/Sheet60A2E58A/USB_DP*%
%TA.AperFunction,SMDPad,CuDef*%
G36*
G01*
X215810600Y-36515500D02*
X215810600Y-36390500D01*
G75*
G02*
X215873100Y-36328000I62500J0D01*
G01*
X216573100Y-36328000D01*
G75*
G02*
X216635600Y-36390500I0J-62500D01*
G01*
X216635600Y-36515500D01*
G75*
G02*
X216573100Y-36578000I-62500J0D01*
G01*
X215873100Y-36578000D01*
G75*
G02*
X215810600Y-36515500I0J62500D01*
G01*
G37*
%TD.AperFunction*%
%TO.P,U201,2*%
%TO.N,GND*%
%TA.AperFunction,SMDPad,CuDef*%
G36*
G01*
X215810600Y-36015500D02*
X215810600Y-35890500D01*
G75*
G02*
X215873100Y-35828000I62500J0D01*
G01*
X216573100Y-35828000D01*
G75*
G02*
X216635600Y-35890500I0J-62500D01*
G01*
X216635600Y-36015500D01*
G75*
G02*
X216573100Y-36078000I-62500J0D01*
G01*
X215873100Y-36078000D01*
G75*
G02*
X215810600Y-36015500I0J62500D01*
G01*
G37*
%TD.AperFunction*%
%TO.P,U201,1*%
%TO.N,Net-(U201-Pad1)*%
%TA.AperFunction,SMDPad,CuDef*%
G36*
G01*
X215810600Y-35515500D02*
X215810600Y-35390500D01*
G75*
G02*
X215873100Y-35328000I62500J0D01*
G01*
X216573100Y-35328000D01*
G75*
G02*
X216635600Y-35390500I0J-62500D01*
G01*
X216635600Y-35515500D01*
G75*
G02*
X216573100Y-35578000I-62500J0D01*
G01*
X215873100Y-35578000D01*
G75*
G02*
X215810600Y-35515500I0J62500D01*
G01*
G37*
%TD.AperFunction*%
%TD*%
%TA.AperFunction,SMDPad,CuDef*%
D16*
%TO.P,U202,32*%
%TO.N,/Motor Driver/IN1*%
G36*
X242612237Y-44735726D02*
G01*
X242223328Y-45124635D01*
X241091957Y-43993264D01*
X241480866Y-43604355D01*
X242612237Y-44735726D01*
G37*
%TD.AperFunction*%
%TA.AperFunction,SMDPad,CuDef*%
%TO.P,U202,31*%
%TO.N,/Sheet60A2E58A/IO1*%
G36*
X243177923Y-44170041D02*
G01*
X242789014Y-44558950D01*
X241657643Y-43427579D01*
X242046552Y-43038670D01*
X243177923Y-44170041D01*
G37*
%TD.AperFunction*%
%TA.AperFunction,SMDPad,CuDef*%
%TO.P,U202,30*%
%TO.N,/Sheet60A2E58A/IO0*%
G36*
X243743608Y-43604355D02*
G01*
X243354699Y-43993264D01*
X242223328Y-42861893D01*
X242612237Y-42472984D01*
X243743608Y-43604355D01*
G37*
%TD.AperFunction*%
%TA.AperFunction,SMDPad,CuDef*%
%TO.P,U202,29*%
%TO.N,/Sheet60A2E58A/RESET*%
G36*
X244309293Y-43038670D02*
G01*
X243920384Y-43427579D01*
X242789013Y-42296208D01*
X243177922Y-41907299D01*
X244309293Y-43038670D01*
G37*
%TD.AperFunction*%
%TA.AperFunction,SMDPad,CuDef*%
%TO.P,U202,28*%
%TO.N,/Sheet60A2E58A/AD5_SCL*%
G36*
X244874979Y-42472984D02*
G01*
X244486070Y-42861893D01*
X243354699Y-41730522D01*
X243743608Y-41341613D01*
X244874979Y-42472984D01*
G37*
%TD.AperFunction*%
%TA.AperFunction,SMDPad,CuDef*%
%TO.P,U202,27*%
%TO.N,/Sheet60A2E58A/AD4_SDA*%
G36*
X245440664Y-41907299D02*
G01*
X245051755Y-42296208D01*
X243920384Y-41164837D01*
X244309293Y-40775928D01*
X245440664Y-41907299D01*
G37*
%TD.AperFunction*%
%TA.AperFunction,SMDPad,CuDef*%
%TO.P,U202,26*%
%TO.N,/Sheet60A2E58A/AD3*%
G36*
X246006350Y-41341614D02*
G01*
X245617441Y-41730523D01*
X244486070Y-40599152D01*
X244874979Y-40210243D01*
X246006350Y-41341614D01*
G37*
%TD.AperFunction*%
%TA.AperFunction,SMDPad,CuDef*%
%TO.P,U202,25*%
%TO.N,/Sheet60A2E58A/AD2*%
G36*
X246572035Y-40775928D02*
G01*
X246183126Y-41164837D01*
X245051755Y-40033466D01*
X245440664Y-39644557D01*
X246572035Y-40775928D01*
G37*
%TD.AperFunction*%
%TA.AperFunction,SMDPad,CuDef*%
%TO.P,U202,24*%
%TO.N,/Sheet60A2E58A/AD1*%
G36*
X247491274Y-41164837D02*
G01*
X247102365Y-40775928D01*
X248233736Y-39644557D01*
X248622645Y-40033466D01*
X247491274Y-41164837D01*
G37*
%TD.AperFunction*%
%TA.AperFunction,SMDPad,CuDef*%
%TO.P,U202,23*%
%TO.N,/Sheet60A2E58A/AD0*%
G36*
X248056959Y-41730523D02*
G01*
X247668050Y-41341614D01*
X248799421Y-40210243D01*
X249188330Y-40599152D01*
X248056959Y-41730523D01*
G37*
%TD.AperFunction*%
%TA.AperFunction,SMDPad,CuDef*%
%TO.P,U202,22*%
%TO.N,Net-(U202-Pad22)*%
G36*
X248622645Y-42296208D02*
G01*
X248233736Y-41907299D01*
X249365107Y-40775928D01*
X249754016Y-41164837D01*
X248622645Y-42296208D01*
G37*
%TD.AperFunction*%
%TA.AperFunction,SMDPad,CuDef*%
%TO.P,U202,21*%
%TO.N,GND*%
G36*
X249188330Y-42861893D02*
G01*
X248799421Y-42472984D01*
X249930792Y-41341613D01*
X250319701Y-41730522D01*
X249188330Y-42861893D01*
G37*
%TD.AperFunction*%
%TA.AperFunction,SMDPad,CuDef*%
%TO.P,U202,20*%
%TO.N,VCC*%
G36*
X249754016Y-43427579D02*
G01*
X249365107Y-43038670D01*
X250496478Y-41907299D01*
X250885387Y-42296208D01*
X249754016Y-43427579D01*
G37*
%TD.AperFunction*%
%TA.AperFunction,SMDPad,CuDef*%
%TO.P,U202,19*%
%TO.N,Net-(U202-Pad19)*%
G36*
X250319701Y-43993264D02*
G01*
X249930792Y-43604355D01*
X251062163Y-42472984D01*
X251451072Y-42861893D01*
X250319701Y-43993264D01*
G37*
%TD.AperFunction*%
%TA.AperFunction,SMDPad,CuDef*%
%TO.P,U202,18*%
%TO.N,VCC*%
G36*
X250885386Y-44558950D02*
G01*
X250496477Y-44170041D01*
X251627848Y-43038670D01*
X252016757Y-43427579D01*
X250885386Y-44558950D01*
G37*
%TD.AperFunction*%
%TA.AperFunction,SMDPad,CuDef*%
%TO.P,U202,17*%
%TO.N,/Motor Driver/EN*%
G36*
X251451072Y-45124635D02*
G01*
X251062163Y-44735726D01*
X252193534Y-43604355D01*
X252582443Y-43993264D01*
X251451072Y-45124635D01*
G37*
%TD.AperFunction*%
%TA.AperFunction,SMDPad,CuDef*%
%TO.P,U202,16*%
%TO.N,/Sheet60A2E58A/IO12_MISO*%
G36*
X252582443Y-46786336D02*
G01*
X252193534Y-47175245D01*
X251062163Y-46043874D01*
X251451072Y-45654965D01*
X252582443Y-46786336D01*
G37*
%TD.AperFunction*%
%TA.AperFunction,SMDPad,CuDef*%
%TO.P,U202,15*%
%TO.N,/Motor Driver/S4*%
G36*
X252016757Y-47352021D02*
G01*
X251627848Y-47740930D01*
X250496477Y-46609559D01*
X250885386Y-46220650D01*
X252016757Y-47352021D01*
G37*
%TD.AperFunction*%
%TA.AperFunction,SMDPad,CuDef*%
%TO.P,U202,14*%
%TO.N,/Motor Driver/S3*%
G36*
X251451072Y-47917707D02*
G01*
X251062163Y-48306616D01*
X249930792Y-47175245D01*
X250319701Y-46786336D01*
X251451072Y-47917707D01*
G37*
%TD.AperFunction*%
%TA.AperFunction,SMDPad,CuDef*%
%TO.P,U202,13*%
%TO.N,/Motor Driver/S2*%
G36*
X250885387Y-48483392D02*
G01*
X250496478Y-48872301D01*
X249365107Y-47740930D01*
X249754016Y-47352021D01*
X250885387Y-48483392D01*
G37*
%TD.AperFunction*%
%TA.AperFunction,SMDPad,CuDef*%
%TO.P,U202,12*%
%TO.N,/Motor Driver/S1*%
G36*
X250319701Y-49049078D02*
G01*
X249930792Y-49437987D01*
X248799421Y-48306616D01*
X249188330Y-47917707D01*
X250319701Y-49049078D01*
G37*
%TD.AperFunction*%
%TA.AperFunction,SMDPad,CuDef*%
%TO.P,U202,11*%
%TO.N,/Motor Driver/PWM_B*%
G36*
X249754016Y-49614763D02*
G01*
X249365107Y-50003672D01*
X248233736Y-48872301D01*
X248622645Y-48483392D01*
X249754016Y-49614763D01*
G37*
%TD.AperFunction*%
%TA.AperFunction,SMDPad,CuDef*%
%TO.P,U202,10*%
%TO.N,/Motor Driver/IN4*%
G36*
X249188330Y-50180448D02*
G01*
X248799421Y-50569357D01*
X247668050Y-49437986D01*
X248056959Y-49049077D01*
X249188330Y-50180448D01*
G37*
%TD.AperFunction*%
%TA.AperFunction,SMDPad,CuDef*%
%TO.P,U202,9*%
%TO.N,/Motor Driver/IN3*%
G36*
X248622645Y-50746134D02*
G01*
X248233736Y-51135043D01*
X247102365Y-50003672D01*
X247491274Y-49614763D01*
X248622645Y-50746134D01*
G37*
%TD.AperFunction*%
%TA.AperFunction,SMDPad,CuDef*%
%TO.P,U202,8*%
%TO.N,Net-(U202-Pad8)*%
G36*
X245440664Y-51135043D02*
G01*
X245051755Y-50746134D01*
X246183126Y-49614763D01*
X246572035Y-50003672D01*
X245440664Y-51135043D01*
G37*
%TD.AperFunction*%
%TA.AperFunction,SMDPad,CuDef*%
%TO.P,U202,7*%
%TO.N,Net-(U202-Pad7)*%
G36*
X244874979Y-50569357D02*
G01*
X244486070Y-50180448D01*
X245617441Y-49049077D01*
X246006350Y-49437986D01*
X244874979Y-50569357D01*
G37*
%TD.AperFunction*%
%TA.AperFunction,SMDPad,CuDef*%
%TO.P,U202,6*%
%TO.N,VCC*%
G36*
X244309293Y-50003672D02*
G01*
X243920384Y-49614763D01*
X245051755Y-48483392D01*
X245440664Y-48872301D01*
X244309293Y-50003672D01*
G37*
%TD.AperFunction*%
%TA.AperFunction,SMDPad,CuDef*%
%TO.P,U202,5*%
%TO.N,GND*%
G36*
X243743608Y-49437987D02*
G01*
X243354699Y-49049078D01*
X244486070Y-47917707D01*
X244874979Y-48306616D01*
X243743608Y-49437987D01*
G37*
%TD.AperFunction*%
%TA.AperFunction,SMDPad,CuDef*%
%TO.P,U202,4*%
%TO.N,VCC*%
G36*
X243177922Y-48872301D02*
G01*
X242789013Y-48483392D01*
X243920384Y-47352021D01*
X244309293Y-47740930D01*
X243177922Y-48872301D01*
G37*
%TD.AperFunction*%
%TA.AperFunction,SMDPad,CuDef*%
%TO.P,U202,3*%
%TO.N,GND*%
G36*
X242612237Y-48306616D02*
G01*
X242223328Y-47917707D01*
X243354699Y-46786336D01*
X243743608Y-47175245D01*
X242612237Y-48306616D01*
G37*
%TD.AperFunction*%
%TA.AperFunction,SMDPad,CuDef*%
%TO.P,U202,2*%
%TO.N,/Motor Driver/PWM_A*%
G36*
X242046552Y-47740930D02*
G01*
X241657643Y-47352021D01*
X242789014Y-46220650D01*
X243177923Y-46609559D01*
X242046552Y-47740930D01*
G37*
%TD.AperFunction*%
%TA.AperFunction,SMDPad,CuDef*%
%TO.P,U202,1*%
%TO.N,/Motor Driver/IN2*%
G36*
X241480866Y-47175245D02*
G01*
X241091957Y-46786336D01*
X242223328Y-45654965D01*
X242612237Y-46043874D01*
X241480866Y-47175245D01*
G37*
%TD.AperFunction*%
%TD*%
%TO.P,R209,2*%
%TO.N,VCC*%
%TA.AperFunction,SMDPad,CuDef*%
G36*
G01*
X251676225Y-40415866D02*
X252065134Y-40804775D01*
G75*
G02*
X252065134Y-41087617I-141421J-141421D01*
G01*
X251782291Y-41370460D01*
G75*
G02*
X251499449Y-41370460I-141421J141421D01*
G01*
X251110540Y-40981551D01*
G75*
G02*
X251110540Y-40698709I141421J141421D01*
G01*
X251393383Y-40415866D01*
G75*
G02*
X251676225Y-40415866I141421J-141421D01*
G01*
G37*
%TD.AperFunction*%
%TO.P,R209,1*%
%TO.N,/Sheet60A2E58A/RESET*%
%TA.AperFunction,SMDPad,CuDef*%
G36*
G01*
X252842951Y-39249140D02*
X253231860Y-39638049D01*
G75*
G02*
X253231860Y-39920891I-141421J-141421D01*
G01*
X252949017Y-40203734D01*
G75*
G02*
X252666175Y-40203734I-141421J141421D01*
G01*
X252277266Y-39814825D01*
G75*
G02*
X252277266Y-39531983I141421J141421D01*
G01*
X252560109Y-39249140D01*
G75*
G02*
X252842951Y-39249140I141421J-141421D01*
G01*
G37*
%TD.AperFunction*%
%TD*%
%TO.P,R208,2*%
%TO.N,/Sheet60A2E58A/IO0*%
%TA.AperFunction,SMDPad,CuDef*%
G36*
G01*
X237011800Y-36594600D02*
X237561800Y-36594600D01*
G75*
G02*
X237761800Y-36794600I0J-200000D01*
G01*
X237761800Y-37194600D01*
G75*
G02*
X237561800Y-37394600I-200000J0D01*
G01*
X237011800Y-37394600D01*
G75*
G02*
X236811800Y-37194600I0J200000D01*
G01*
X236811800Y-36794600D01*
G75*
G02*
X237011800Y-36594600I200000J0D01*
G01*
G37*
%TD.AperFunction*%
%TO.P,R208,1*%
%TO.N,/Sheet60A2E58A/RXD*%
%TA.AperFunction,SMDPad,CuDef*%
G36*
G01*
X237011800Y-34944600D02*
X237561800Y-34944600D01*
G75*
G02*
X237761800Y-35144600I0J-200000D01*
G01*
X237761800Y-35544600D01*
G75*
G02*
X237561800Y-35744600I-200000J0D01*
G01*
X237011800Y-35744600D01*
G75*
G02*
X236811800Y-35544600I0J200000D01*
G01*
X236811800Y-35144600D01*
G75*
G02*
X237011800Y-34944600I200000J0D01*
G01*
G37*
%TD.AperFunction*%
%TD*%
%TO.P,R207,2*%
%TO.N,GND*%
%TA.AperFunction,SMDPad,CuDef*%
G36*
G01*
X225927600Y-35920000D02*
X225927600Y-36470000D01*
G75*
G02*
X225727600Y-36670000I-200000J0D01*
G01*
X225327600Y-36670000D01*
G75*
G02*
X225127600Y-36470000I0J200000D01*
G01*
X225127600Y-35920000D01*
G75*
G02*
X225327600Y-35720000I200000J0D01*
G01*
X225727600Y-35720000D01*
G75*
G02*
X225927600Y-35920000I0J-200000D01*
G01*
G37*
%TD.AperFunction*%
%TO.P,R207,1*%
%TO.N,Net-(D204-Pad1)*%
%TA.AperFunction,SMDPad,CuDef*%
G36*
G01*
X227577600Y-35920000D02*
X227577600Y-36470000D01*
G75*
G02*
X227377600Y-36670000I-200000J0D01*
G01*
X226977600Y-36670000D01*
G75*
G02*
X226777600Y-36470000I0J200000D01*
G01*
X226777600Y-35920000D01*
G75*
G02*
X226977600Y-35720000I200000J0D01*
G01*
X227377600Y-35720000D01*
G75*
G02*
X227577600Y-35920000I0J-200000D01*
G01*
G37*
%TD.AperFunction*%
%TD*%
%TO.P,R204,2*%
%TO.N,GND*%
%TA.AperFunction,SMDPad,CuDef*%
G36*
G01*
X225926600Y-34345200D02*
X225926600Y-34895200D01*
G75*
G02*
X225726600Y-35095200I-200000J0D01*
G01*
X225326600Y-35095200D01*
G75*
G02*
X225126600Y-34895200I0J200000D01*
G01*
X225126600Y-34345200D01*
G75*
G02*
X225326600Y-34145200I200000J0D01*
G01*
X225726600Y-34145200D01*
G75*
G02*
X225926600Y-34345200I0J-200000D01*
G01*
G37*
%TD.AperFunction*%
%TO.P,R204,1*%
%TO.N,Net-(D201-Pad1)*%
%TA.AperFunction,SMDPad,CuDef*%
G36*
G01*
X227576600Y-34345200D02*
X227576600Y-34895200D01*
G75*
G02*
X227376600Y-35095200I-200000J0D01*
G01*
X226976600Y-35095200D01*
G75*
G02*
X226776600Y-34895200I0J200000D01*
G01*
X226776600Y-34345200D01*
G75*
G02*
X226976600Y-34145200I200000J0D01*
G01*
X227376600Y-34145200D01*
G75*
G02*
X227576600Y-34345200I0J-200000D01*
G01*
G37*
%TD.AperFunction*%
%TD*%
%TO.P,R206,2*%
%TO.N,Net-(D203-Pad1)*%
%TA.AperFunction,SMDPad,CuDef*%
G36*
G01*
X226789800Y-38095600D02*
X226789800Y-37545600D01*
G75*
G02*
X226989800Y-37345600I200000J0D01*
G01*
X227389800Y-37345600D01*
G75*
G02*
X227589800Y-37545600I0J-200000D01*
G01*
X227589800Y-38095600D01*
G75*
G02*
X227389800Y-38295600I-200000J0D01*
G01*
X226989800Y-38295600D01*
G75*
G02*
X226789800Y-38095600I0J200000D01*
G01*
G37*
%TD.AperFunction*%
%TO.P,R206,1*%
%TO.N,Net-(R206-Pad1)*%
%TA.AperFunction,SMDPad,CuDef*%
G36*
G01*
X225139800Y-38095600D02*
X225139800Y-37545600D01*
G75*
G02*
X225339800Y-37345600I200000J0D01*
G01*
X225739800Y-37345600D01*
G75*
G02*
X225939800Y-37545600I0J-200000D01*
G01*
X225939800Y-38095600D01*
G75*
G02*
X225739800Y-38295600I-200000J0D01*
G01*
X225339800Y-38295600D01*
G75*
G02*
X225139800Y-38095600I0J200000D01*
G01*
G37*
%TD.AperFunction*%
%TD*%
%TO.P,R205,2*%
%TO.N,Net-(D202-Pad1)*%
%TA.AperFunction,SMDPad,CuDef*%
G36*
G01*
X226789800Y-39645000D02*
X226789800Y-39095000D01*
G75*
G02*
X226989800Y-38895000I200000J0D01*
G01*
X227389800Y-38895000D01*
G75*
G02*
X227589800Y-39095000I0J-200000D01*
G01*
X227589800Y-39645000D01*
G75*
G02*
X227389800Y-39845000I-200000J0D01*
G01*
X226989800Y-39845000D01*
G75*
G02*
X226789800Y-39645000I0J200000D01*
G01*
G37*
%TD.AperFunction*%
%TO.P,R205,1*%
%TO.N,Net-(R205-Pad1)*%
%TA.AperFunction,SMDPad,CuDef*%
G36*
G01*
X225139800Y-39645000D02*
X225139800Y-39095000D01*
G75*
G02*
X225339800Y-38895000I200000J0D01*
G01*
X225739800Y-38895000D01*
G75*
G02*
X225939800Y-39095000I0J-200000D01*
G01*
X225939800Y-39645000D01*
G75*
G02*
X225739800Y-39845000I-200000J0D01*
G01*
X225339800Y-39845000D01*
G75*
G02*
X225139800Y-39645000I0J200000D01*
G01*
G37*
%TD.AperFunction*%
%TD*%
%TO.P,R203,2*%
%TO.N,Net-(J201-PadB5)*%
%TA.AperFunction,SMDPad,CuDef*%
G36*
G01*
X213330200Y-39211200D02*
X212780200Y-39211200D01*
G75*
G02*
X212580200Y-39011200I0J200000D01*
G01*
X212580200Y-38611200D01*
G75*
G02*
X212780200Y-38411200I200000J0D01*
G01*
X213330200Y-38411200D01*
G75*
G02*
X213530200Y-38611200I0J-200000D01*
G01*
X213530200Y-39011200D01*
G75*
G02*
X213330200Y-39211200I-200000J0D01*
G01*
G37*
%TD.AperFunction*%
%TO.P,R203,1*%
%TO.N,GND*%
%TA.AperFunction,SMDPad,CuDef*%
G36*
G01*
X213330200Y-40861200D02*
X212780200Y-40861200D01*
G75*
G02*
X212580200Y-40661200I0J200000D01*
G01*
X212580200Y-40261200D01*
G75*
G02*
X212780200Y-40061200I200000J0D01*
G01*
X213330200Y-40061200D01*
G75*
G02*
X213530200Y-40261200I0J-200000D01*
G01*
X213530200Y-40661200D01*
G75*
G02*
X213330200Y-40861200I-200000J0D01*
G01*
G37*
%TD.AperFunction*%
%TD*%
%TO.P,R202,2*%
%TO.N,Net-(J201-PadA5)*%
%TA.AperFunction,SMDPad,CuDef*%
G36*
G01*
X212780200Y-33673600D02*
X213330200Y-33673600D01*
G75*
G02*
X213530200Y-33873600I0J-200000D01*
G01*
X213530200Y-34273600D01*
G75*
G02*
X213330200Y-34473600I-200000J0D01*
G01*
X212780200Y-34473600D01*
G75*
G02*
X212580200Y-34273600I0J200000D01*
G01*
X212580200Y-33873600D01*
G75*
G02*
X212780200Y-33673600I200000J0D01*
G01*
G37*
%TD.AperFunction*%
%TO.P,R202,1*%
%TO.N,GND*%
%TA.AperFunction,SMDPad,CuDef*%
G36*
G01*
X212780200Y-32023600D02*
X213330200Y-32023600D01*
G75*
G02*
X213530200Y-32223600I0J-200000D01*
G01*
X213530200Y-32623600D01*
G75*
G02*
X213330200Y-32823600I-200000J0D01*
G01*
X212780200Y-32823600D01*
G75*
G02*
X212580200Y-32623600I0J200000D01*
G01*
X212580200Y-32223600D01*
G75*
G02*
X212780200Y-32023600I200000J0D01*
G01*
G37*
%TD.AperFunction*%
%TD*%
%TA.AperFunction,SMDPad,CuDef*%
%TO.P,JP201,3*%
%TO.N,+5V*%
G36*
X229066600Y-41503600D02*
G01*
X229566600Y-40753600D01*
X230566600Y-40753600D01*
X230566600Y-42253600D01*
X229566600Y-42253600D01*
X229066600Y-41503600D01*
G37*
%TD.AperFunction*%
%TA.AperFunction,SMDPad,CuDef*%
%TO.P,JP201,2*%
%TO.N,VCC*%
G36*
X228766600Y-41503600D02*
G01*
X229266600Y-42253600D01*
X226866600Y-42253600D01*
X227366600Y-41503600D01*
X226866600Y-40753600D01*
X229266600Y-40753600D01*
X228766600Y-41503600D01*
G37*
%TD.AperFunction*%
%TA.AperFunction,SMDPad,CuDef*%
%TO.P,JP201,1*%
%TO.N,+3V3*%
G36*
X227066600Y-41503600D02*
G01*
X226566600Y-42253600D01*
X225566600Y-42253600D01*
X225566600Y-40753600D01*
X226566600Y-40753600D01*
X227066600Y-41503600D01*
G37*
%TD.AperFunction*%
%TD*%
D20*
%TO.P,J201,B1*%
%TO.N,GND*%
X210343800Y-39953000D03*
%TO.P,J201,A9*%
%TO.N,+5V*%
X210343800Y-39153000D03*
%TO.P,J201,B9*%
X210343800Y-34253000D03*
%TO.P,J201,B12*%
%TO.N,GND*%
X210343800Y-33453000D03*
%TO.P,J201,A1*%
X210343800Y-33453000D03*
%TO.P,J201,A4*%
%TO.N,+5V*%
X210343800Y-34253000D03*
%TO.P,J201,B4*%
X210343800Y-39153000D03*
%TO.P,J201,A12*%
%TO.N,GND*%
X210343800Y-39953000D03*
D21*
%TO.P,J201,B8*%
%TO.N,Net-(J201-PadB8)*%
X210343800Y-34953000D03*
%TO.P,J201,A5*%
%TO.N,Net-(J201-PadA5)*%
X210343800Y-35453000D03*
%TO.P,J201,B7*%
%TO.N,Net-(J201-PadB7)*%
X210343800Y-35953000D03*
%TO.P,J201,A7*%
%TO.N,/Sheet60A2E58A/USB_DN*%
X210343800Y-36953000D03*
%TO.P,J201,B6*%
%TO.N,/Sheet60A2E58A/USB_DP*%
X210343800Y-37453000D03*
%TO.P,J201,A8*%
%TO.N,Net-(J201-PadA8)*%
X210343800Y-37953000D03*
%TO.P,J201,B5*%
%TO.N,Net-(J201-PadB5)*%
X210343800Y-38453000D03*
%TO.P,J201,A6*%
%TO.N,/Sheet60A2E58A/USB_DP*%
X210343800Y-36453000D03*
D22*
%TO.P,J201,S1*%
%TO.N,Net-(J201-PadS1)*%
X209428800Y-41023000D03*
X209428800Y-32383000D03*
D23*
X205248800Y-32383000D03*
X205248800Y-41023000D03*
%TD*%
%TO.P,C204,2*%
%TO.N,VCC*%
%TA.AperFunction,SMDPad,CuDef*%
G36*
G01*
X253009213Y-41632833D02*
X253362767Y-41986387D01*
G75*
G02*
X253362767Y-42304585I-159099J-159099D01*
G01*
X253044569Y-42622783D01*
G75*
G02*
X252726371Y-42622783I-159099J159099D01*
G01*
X252372817Y-42269229D01*
G75*
G02*
X252372817Y-41951031I159099J159099D01*
G01*
X252691015Y-41632833D01*
G75*
G02*
X253009213Y-41632833I159099J-159099D01*
G01*
G37*
%TD.AperFunction*%
%TO.P,C204,1*%
%TO.N,GND*%
%TA.AperFunction,SMDPad,CuDef*%
G36*
G01*
X254105229Y-40536817D02*
X254458783Y-40890371D01*
G75*
G02*
X254458783Y-41208569I-159099J-159099D01*
G01*
X254140585Y-41526767D01*
G75*
G02*
X253822387Y-41526767I-159099J159099D01*
G01*
X253468833Y-41173213D01*
G75*
G02*
X253468833Y-40855015I159099J159099D01*
G01*
X253787031Y-40536817D01*
G75*
G02*
X254105229Y-40536817I159099J-159099D01*
G01*
G37*
%TD.AperFunction*%
%TD*%
%TO.P,C203,2*%
%TO.N,VCC*%
%TA.AperFunction,SMDPad,CuDef*%
G36*
G01*
X240969987Y-50492967D02*
X240616433Y-50139413D01*
G75*
G02*
X240616433Y-49821215I159099J159099D01*
G01*
X240934631Y-49503017D01*
G75*
G02*
X241252829Y-49503017I159099J-159099D01*
G01*
X241606383Y-49856571D01*
G75*
G02*
X241606383Y-50174769I-159099J-159099D01*
G01*
X241288185Y-50492967D01*
G75*
G02*
X240969987Y-50492967I-159099J159099D01*
G01*
G37*
%TD.AperFunction*%
%TO.P,C203,1*%
%TO.N,GND*%
%TA.AperFunction,SMDPad,CuDef*%
G36*
G01*
X239873971Y-51588983D02*
X239520417Y-51235429D01*
G75*
G02*
X239520417Y-50917231I159099J159099D01*
G01*
X239838615Y-50599033D01*
G75*
G02*
X240156813Y-50599033I159099J-159099D01*
G01*
X240510367Y-50952587D01*
G75*
G02*
X240510367Y-51270785I-159099J-159099D01*
G01*
X240192169Y-51588983D01*
G75*
G02*
X239873971Y-51588983I-159099J159099D01*
G01*
G37*
%TD.AperFunction*%
%TD*%
%TO.P,C201,2*%
%TO.N,+3V3*%
%TA.AperFunction,SMDPad,CuDef*%
G36*
G01*
X214930800Y-39312000D02*
X214430800Y-39312000D01*
G75*
G02*
X214205800Y-39087000I0J225000D01*
G01*
X214205800Y-38637000D01*
G75*
G02*
X214430800Y-38412000I225000J0D01*
G01*
X214930800Y-38412000D01*
G75*
G02*
X215155800Y-38637000I0J-225000D01*
G01*
X215155800Y-39087000D01*
G75*
G02*
X214930800Y-39312000I-225000J0D01*
G01*
G37*
%TD.AperFunction*%
%TO.P,C201,1*%
%TO.N,GND*%
%TA.AperFunction,SMDPad,CuDef*%
G36*
G01*
X214930800Y-40862000D02*
X214430800Y-40862000D01*
G75*
G02*
X214205800Y-40637000I0J225000D01*
G01*
X214205800Y-40187000D01*
G75*
G02*
X214430800Y-39962000I225000J0D01*
G01*
X214930800Y-39962000D01*
G75*
G02*
X215155800Y-40187000I0J-225000D01*
G01*
X215155800Y-40637000D01*
G75*
G02*
X214930800Y-40862000I-225000J0D01*
G01*
G37*
%TD.AperFunction*%
%TD*%
%TO.P,C202,2*%
%TO.N,Net-(C202-Pad2)*%
%TA.AperFunction,SMDPad,CuDef*%
G36*
G01*
X221568200Y-36025000D02*
X222068200Y-36025000D01*
G75*
G02*
X222293200Y-36250000I0J-225000D01*
G01*
X222293200Y-36700000D01*
G75*
G02*
X222068200Y-36925000I-225000J0D01*
G01*
X221568200Y-36925000D01*
G75*
G02*
X221343200Y-36700000I0J225000D01*
G01*
X221343200Y-36250000D01*
G75*
G02*
X221568200Y-36025000I225000J0D01*
G01*
G37*
%TD.AperFunction*%
%TO.P,C202,1*%
%TO.N,GND*%
%TA.AperFunction,SMDPad,CuDef*%
G36*
G01*
X221568200Y-34475000D02*
X222068200Y-34475000D01*
G75*
G02*
X222293200Y-34700000I0J-225000D01*
G01*
X222293200Y-35150000D01*
G75*
G02*
X222068200Y-35375000I-225000J0D01*
G01*
X221568200Y-35375000D01*
G75*
G02*
X221343200Y-35150000I0J225000D01*
G01*
X221343200Y-34700000D01*
G75*
G02*
X221568200Y-34475000I225000J0D01*
G01*
G37*
%TD.AperFunction*%
%TD*%
D24*
%TO.N,GND*%
X248856500Y-30632400D03*
X248869200Y-35534600D03*
X218160600Y-36703000D03*
X219049600Y-37592000D03*
X217271600Y-37592000D03*
X219049600Y-35814000D03*
X217271600Y-35814000D03*
X213080600Y-31064200D03*
X223621600Y-34366200D03*
X223647000Y-35382200D03*
X223647000Y-36372800D03*
X226796600Y-45745400D03*
X211582000Y-41656000D03*
X231089200Y-59156600D03*
X232613200Y-59156600D03*
X234137200Y-59156600D03*
X247091200Y-59982100D03*
X248615200Y-59982100D03*
X249897900Y-60007500D03*
X205181200Y-35331400D03*
X205181200Y-36601400D03*
X205206600Y-37846000D03*
X255066800Y-39903400D03*
X245287800Y-46355000D03*
X248361200Y-43307000D03*
X253263400Y-59309000D03*
X212191600Y-44196000D03*
X203073000Y-44196000D03*
X204647800Y-44196000D03*
X206324200Y-44196000D03*
X239763300Y-53047900D03*
X237121700Y-59156600D03*
X235597700Y-59156600D03*
X249034300Y-58496200D03*
X249034300Y-56781700D03*
%TO.N,+5V*%
X207924400Y-35382200D03*
X207949800Y-37820600D03*
X207924400Y-36601400D03*
X211799347Y-34304147D03*
X221335600Y-39591198D03*
X231927400Y-40995600D03*
X231952800Y-42519600D03*
X231851200Y-36195000D03*
X231876600Y-37820600D03*
X231902000Y-39395400D03*
X211836000Y-39192200D03*
X231927400Y-43942000D03*
X233324400Y-39395400D03*
X233375200Y-42519600D03*
X233299000Y-37820600D03*
X233273600Y-36195000D03*
X233349800Y-40995600D03*
X233349800Y-43942000D03*
%TO.N,VCC*%
X229870000Y-46558200D03*
X231825800Y-46558200D03*
X233807000Y-46558200D03*
X234797600Y-47548800D03*
X232791000Y-47548800D03*
X230860600Y-47548800D03*
X228904800Y-47548800D03*
X227914200Y-48539400D03*
X229870000Y-48539400D03*
X231825800Y-48539400D03*
X233807000Y-48539400D03*
X234797600Y-49530000D03*
X232791000Y-49530000D03*
X230860600Y-49530000D03*
X228904800Y-49530000D03*
X227914200Y-46558200D03*
X236016800Y-48539400D03*
X236016800Y-46558200D03*
X240665000Y-52501800D03*
X220726000Y-54305769D03*
X253847600Y-43129200D03*
X250647200Y-39979600D03*
X226974400Y-56819800D03*
X241795300Y-57048409D03*
%TO.N,/Motor Driver/OUT4*%
X217754200Y-50088800D03*
X231343200Y-57835800D03*
%TO.N,/Motor Driver/OUT3*%
X219583000Y-44500800D03*
X230962200Y-56718200D03*
%TO.N,/Motor Driver/OUT2*%
X226796600Y-47218600D03*
X247077231Y-58441594D03*
%TO.N,/Motor Driver/OUT1*%
X226999800Y-51333400D03*
X247091210Y-57162700D03*
%TO.N,/Motor Driver/EN*%
X239471196Y-42037000D03*
X240182400Y-56286398D03*
X249542300Y-46316900D03*
%TO.N,+BATT*%
X226923600Y-58826400D03*
X225323400Y-58851800D03*
X223647000Y-58851800D03*
X241312700Y-59372500D03*
X239636300Y-59372500D03*
X242912900Y-59347100D03*
X225323400Y-60223400D03*
X223647000Y-60223400D03*
X226923600Y-60223400D03*
X241312700Y-60693300D03*
X239636300Y-60693300D03*
X242912900Y-60667900D03*
%TO.N,/Sheet60A2E58A/RESET*%
X245770400Y-43180000D03*
X250164600Y-38836600D03*
%TD*%
D25*
%TO.N,GND*%
X212025800Y-33453000D02*
X213055200Y-32423600D01*
X210343800Y-33453000D02*
X212025800Y-33453000D01*
X213055200Y-31089600D02*
X213080600Y-31064200D01*
X213055200Y-32423600D02*
X213055200Y-31089600D01*
D26*
X217081800Y-35953000D02*
X217246200Y-35788600D01*
X216223100Y-35953000D02*
X217081800Y-35953000D01*
X225870000Y-64389000D02*
X225870000Y-63994800D01*
X225870000Y-64389000D02*
X225870000Y-63690000D01*
X226771200Y-45720000D02*
X226796600Y-45745400D01*
X224979000Y-45720000D02*
X226771200Y-45720000D01*
D25*
X211860400Y-40461200D02*
X213055200Y-40461200D01*
X211352200Y-39953000D02*
X211860400Y-40461200D01*
X210343800Y-39953000D02*
X211352200Y-39953000D01*
D26*
X229889800Y-58935398D02*
X229889800Y-59395400D01*
X229399802Y-58445400D02*
X229889800Y-58935398D01*
X229139800Y-58445400D02*
X229399802Y-58445400D01*
D25*
X253963808Y-41006392D02*
X255066800Y-39903400D01*
X253963808Y-41031792D02*
X253963808Y-41006392D01*
X244759303Y-48033383D02*
X244114839Y-48677847D01*
X243733983Y-46902011D02*
X244106785Y-46902011D01*
X244759303Y-47554529D02*
X244759303Y-48033383D01*
X243089518Y-47546476D02*
X243733983Y-46902011D01*
X242983468Y-47546476D02*
X243089518Y-47546476D01*
X244449187Y-47244413D02*
X244449187Y-47193613D01*
X244106785Y-46902011D02*
X244449187Y-47244413D01*
X244449187Y-47193613D02*
X245287800Y-46355000D01*
X244449187Y-47244413D02*
X244759303Y-47554529D01*
X249559561Y-42108639D02*
X248361200Y-43307000D01*
X249559561Y-42101753D02*
X249559561Y-42108639D01*
D27*
X214413800Y-40679000D02*
X214680800Y-40412000D01*
X214413800Y-41986200D02*
X214413800Y-40679000D01*
X213104400Y-40412000D02*
X213055200Y-40461200D01*
X214680800Y-40412000D02*
X213104400Y-40412000D01*
X211912200Y-41986200D02*
X211582000Y-41656000D01*
X214413800Y-41986200D02*
X211912200Y-41986200D01*
D25*
X240163299Y-53447899D02*
X239763300Y-53047900D01*
X242508158Y-53447899D02*
X240163299Y-53447899D01*
X243850329Y-52105728D02*
X242508158Y-53447899D01*
X239763300Y-51346100D02*
X239763300Y-53047900D01*
X240015392Y-51094008D02*
X239763300Y-51346100D01*
D27*
X253365000Y-59207400D02*
X253263400Y-59309000D01*
X255168400Y-59207400D02*
X253365000Y-59207400D01*
X248856500Y-29144500D02*
X248879800Y-29121200D01*
X248856500Y-30632400D02*
X248856500Y-29144500D01*
X248869200Y-37060600D02*
X248879800Y-37071200D01*
X248869200Y-35534600D02*
X248869200Y-37060600D01*
D26*
%TO.N,+5V*%
X209583798Y-39153000D02*
X210343800Y-39153000D01*
X208843789Y-38412991D02*
X209583798Y-39153000D01*
X209373797Y-34463001D02*
X208843789Y-34993009D01*
X210133799Y-34463001D02*
X209373797Y-34463001D01*
X210343800Y-34253000D02*
X210133799Y-34463001D01*
X207980189Y-35326411D02*
X207924400Y-35382200D01*
D25*
X208843789Y-35326411D02*
X207980189Y-35326411D01*
D26*
X207980189Y-37850989D02*
X207949800Y-37820600D01*
X208843789Y-37850989D02*
X208843789Y-38412991D01*
X207929389Y-36606389D02*
X207924400Y-36601400D01*
X208843789Y-35326411D02*
X208843789Y-36606389D01*
X208843789Y-36606389D02*
X208843789Y-37850989D01*
D25*
X208718789Y-38287991D02*
X208843789Y-38412991D01*
X208718789Y-36304823D02*
X208718789Y-38287991D01*
X208843789Y-36179823D02*
X208718789Y-36304823D01*
X208843789Y-34993009D02*
X208843789Y-36179823D01*
X211748200Y-34253000D02*
X211799347Y-34304147D01*
X210343800Y-34253000D02*
X211748200Y-34253000D01*
D26*
X217410600Y-39101022D02*
X217900776Y-39591198D01*
X217410600Y-38640500D02*
X217410600Y-39101022D01*
D25*
X211796800Y-39153000D02*
X211836000Y-39192200D01*
X210343800Y-39153000D02*
X211796800Y-39153000D01*
X221335600Y-39591198D02*
X217900776Y-39591198D01*
X208417223Y-36606389D02*
X207929389Y-36606389D01*
X208843789Y-36179823D02*
X208417223Y-36606389D01*
X208630611Y-37850989D02*
X207980189Y-37850989D01*
X208718789Y-37762811D02*
X208630611Y-37850989D01*
D27*
X208407000Y-50051600D02*
X209600400Y-48858200D01*
X208407000Y-53467000D02*
X208407000Y-50051600D01*
D26*
%TO.N,+3V3*%
X216223100Y-37953000D02*
X216910600Y-38640500D01*
X216223100Y-37453000D02*
X216223100Y-37953000D01*
D27*
X215950800Y-41999200D02*
X215963800Y-41986200D01*
D26*
X216910600Y-38640500D02*
X216910600Y-39821800D01*
X216910600Y-39821800D02*
X216763600Y-39674800D01*
X216763600Y-39674800D02*
X216763600Y-38684200D01*
X216160300Y-37515800D02*
X216223100Y-37453000D01*
D27*
X215900400Y-42049600D02*
X215963800Y-41986200D01*
X215900400Y-46558200D02*
X215900400Y-42049600D01*
X215900400Y-46558200D02*
X209600400Y-46558200D01*
D25*
%TO.N,VCC*%
X251587837Y-41204849D02*
X251587837Y-40893163D01*
X250125247Y-42667439D02*
X251587837Y-41204849D01*
X251256617Y-43738983D02*
X252867792Y-42127808D01*
X251256617Y-43798810D02*
X251256617Y-43738983D01*
X251633147Y-40893163D02*
X252867792Y-42127808D01*
X251587837Y-40893163D02*
X251633147Y-40893163D01*
X243549153Y-48112161D02*
X242604657Y-49056657D01*
D26*
X220726000Y-54037000D02*
X220726000Y-54305769D01*
D25*
X250526926Y-44443274D02*
X251171390Y-43798810D01*
X251171390Y-43798810D02*
X251256617Y-43798810D01*
X249374732Y-44443274D02*
X250526926Y-44443274D01*
X244680524Y-49137482D02*
X249374732Y-44443274D01*
X244680524Y-49243532D02*
X244680524Y-49137482D01*
X252867792Y-42127808D02*
X253847600Y-43107616D01*
X253847600Y-43107616D02*
X253847600Y-43129200D01*
X251560763Y-40893163D02*
X250647200Y-39979600D01*
X251587837Y-40893163D02*
X251560763Y-40893163D01*
X241350800Y-50237384D02*
X241111408Y-49997992D01*
X241350800Y-51816000D02*
X241350800Y-50237384D01*
X240665000Y-52501800D02*
X241350800Y-51816000D01*
X241213008Y-49997992D02*
X241111408Y-49997992D01*
X242154343Y-49056657D02*
X241213008Y-49997992D01*
X242604657Y-49056657D02*
X242154343Y-49056657D01*
D26*
X244013056Y-49911000D02*
X243027200Y-49911000D01*
X244680524Y-49243532D02*
X244013056Y-49911000D01*
D25*
X242604657Y-49285257D02*
X242604657Y-49056657D01*
X243230400Y-49911000D02*
X242604657Y-49285257D01*
D26*
X243042400Y-58320900D02*
X244379000Y-58320900D01*
D25*
X226974400Y-56819800D02*
X227584000Y-57429400D01*
D26*
X227650000Y-57495400D02*
X227584000Y-57429400D01*
X228389800Y-57495400D02*
X227650000Y-57495400D01*
D25*
X255168400Y-44450000D02*
X255168400Y-49098200D01*
X253847600Y-43129200D02*
X255168400Y-44450000D01*
D27*
X220320169Y-54305769D02*
X220726000Y-54305769D01*
D25*
X220029000Y-54014600D02*
X220320169Y-54305769D01*
X220029000Y-53340000D02*
X220029000Y-54014600D01*
X241795300Y-57073800D02*
X241795300Y-57048409D01*
X243042400Y-58320900D02*
X241795300Y-57073800D01*
D26*
%TO.N,/Sheet60A2E58A/DTR*%
X219456000Y-31064200D02*
X217410600Y-33109600D01*
X235586411Y-31064200D02*
X219456000Y-31064200D01*
X217410600Y-33109600D02*
X217410600Y-34765500D01*
X238810800Y-34288589D02*
X235586411Y-31064200D01*
X238810800Y-35267600D02*
X238810800Y-34288589D01*
X238683800Y-35394600D02*
X238810800Y-35267600D01*
%TO.N,/Sheet60A2E58A/USB_DN*%
X212759199Y-36977999D02*
X213055200Y-37274000D01*
X210358800Y-36953000D02*
X210383799Y-36977999D01*
X210343800Y-36953000D02*
X210358800Y-36953000D01*
X210383799Y-36977999D02*
X212759199Y-36977999D01*
X213376200Y-36953000D02*
X213055200Y-37274000D01*
X216223100Y-36953000D02*
X213376200Y-36953000D01*
%TO.N,/Sheet60A2E58A/USB_DP*%
X210722400Y-36453000D02*
X210747399Y-36477999D01*
X210343800Y-36453000D02*
X210722400Y-36453000D01*
X209383798Y-36453000D02*
X210343800Y-36453000D01*
X209293799Y-36542999D02*
X209383798Y-36453000D01*
X209293799Y-37363001D02*
X209293799Y-36542999D01*
X209383798Y-37453000D02*
X209293799Y-37363001D01*
X210343800Y-37453000D02*
X209383798Y-37453000D01*
X210343800Y-36453000D02*
X210925600Y-36453000D01*
X216223100Y-36453000D02*
X210343800Y-36453000D01*
%TO.N,/Sheet60A2E58A/IO0*%
X237286800Y-39446200D02*
X237286800Y-36994600D01*
X238048800Y-40208200D02*
X237286800Y-39446200D01*
X239958544Y-40208200D02*
X238048800Y-40208200D01*
X242983468Y-43233124D02*
X239958544Y-40208200D01*
%TO.N,/Sheet60A2E58A/RXD*%
X219786200Y-31623000D02*
X218410600Y-32998600D01*
X234899200Y-31623000D02*
X219786200Y-31623000D01*
X237286800Y-34010600D02*
X234899200Y-31623000D01*
X218410600Y-32998600D02*
X218410600Y-34765500D01*
X237286800Y-35344600D02*
X237286800Y-34010600D01*
%TO.N,/Motor Driver/IN1*%
X237286800Y-48929792D02*
X241852097Y-44364495D01*
X237286800Y-50393600D02*
X237286800Y-48929792D01*
X226669600Y-49961800D02*
X228053900Y-51346100D01*
X236334300Y-51346100D02*
X237286800Y-50393600D01*
X228053900Y-51346100D02*
X236334300Y-51346100D01*
X226669600Y-48590200D02*
X226669600Y-49961800D01*
X226339400Y-48260000D02*
X226669600Y-48590200D01*
X224979000Y-48260000D02*
X226339400Y-48260000D01*
%TO.N,/Sheet60A2E58A/IO1*%
X236042200Y-33985200D02*
X236042200Y-39776400D01*
X234340400Y-32283400D02*
X236042200Y-33985200D01*
X236042200Y-39776400D02*
X237210600Y-40944800D01*
X220065600Y-32283400D02*
X234340400Y-32283400D01*
X218910600Y-33438400D02*
X220065600Y-32283400D01*
X218910600Y-34765500D02*
X218910600Y-33438400D01*
X239563773Y-40944800D02*
X242417783Y-43798810D01*
X237210600Y-40944800D02*
X239563773Y-40944800D01*
%TO.N,/Sheet60A2E58A/AD5_SCL*%
X240334800Y-34061400D02*
X238150400Y-31877000D01*
X240334800Y-38303200D02*
X240334800Y-34061400D01*
X238150400Y-31877000D02*
X238150400Y-29946600D01*
X244114839Y-42083239D02*
X240334800Y-38303200D01*
X244114839Y-42101753D02*
X244114839Y-42083239D01*
%TO.N,/Sheet60A2E58A/AD4_SDA*%
X244680524Y-41536068D02*
X243840000Y-40695544D01*
X243840000Y-40695544D02*
X243840000Y-39319200D01*
X243840000Y-39319200D02*
X241604800Y-37084000D01*
X241604800Y-31013400D02*
X240538000Y-29946600D01*
X241604800Y-37084000D02*
X241604800Y-31013400D01*
%TO.N,/Sheet60A2E58A/AD3*%
X242925600Y-37490400D02*
X242925600Y-33274000D01*
X244475000Y-39039800D02*
X242925600Y-37490400D01*
X244475000Y-40157400D02*
X244475000Y-39039800D01*
X245246210Y-40928610D02*
X244475000Y-40157400D01*
X245246210Y-40970383D02*
X245246210Y-40928610D01*
%TO.N,/Sheet60A2E58A/AD2*%
X244017800Y-31496000D02*
X244094000Y-31419800D01*
X245592600Y-38531800D02*
X244017800Y-36957000D01*
X245592600Y-40185402D02*
X245592600Y-38531800D01*
X244017800Y-36957000D02*
X244017800Y-31496000D01*
X245811895Y-40404697D02*
X245592600Y-40185402D01*
%TO.N,/Sheet60A2E58A/AD1*%
X245110000Y-35890200D02*
X245110000Y-33324800D01*
X246659400Y-37439600D02*
X245110000Y-35890200D01*
X246659400Y-39201592D02*
X246659400Y-37439600D01*
X247862505Y-40404697D02*
X246659400Y-39201592D01*
%TO.N,/Sheet60A2E58A/AD0*%
X248947655Y-39149057D02*
X247370600Y-37572002D01*
X248947655Y-40450918D02*
X248947655Y-39149057D01*
X248428190Y-40970383D02*
X248947655Y-40450918D01*
X247370600Y-32512000D02*
X246253000Y-31394400D01*
X247370600Y-37572002D02*
X247370600Y-32512000D01*
%TO.N,/Sheet60A2E58A/IO12_MISO*%
X253949200Y-55143400D02*
X255168400Y-55143400D01*
X252907800Y-54102000D02*
X253949200Y-55143400D01*
X252907800Y-47472600D02*
X252907800Y-54102000D01*
X251850305Y-46415105D02*
X252907800Y-47472600D01*
X251822303Y-46415105D02*
X251850305Y-46415105D01*
%TO.N,/Motor Driver/S4*%
X252239629Y-47963802D02*
X251256617Y-46980790D01*
X248259600Y-67233800D02*
X252239629Y-63253771D01*
X224714800Y-67233800D02*
X248259600Y-67233800D01*
X221870000Y-64389000D02*
X224714800Y-67233800D01*
X252239629Y-51986029D02*
X252239629Y-47963802D01*
X252247400Y-51993800D02*
X252239629Y-51986029D01*
X252374400Y-57150000D02*
X252239629Y-57284771D01*
X255193800Y-57150000D02*
X252374400Y-57150000D01*
X252239629Y-57284771D02*
X252239629Y-51986029D01*
X252239629Y-63253771D02*
X252239629Y-57284771D01*
%TO.N,/Motor Driver/S3*%
X226206800Y-66725800D02*
X223870000Y-64389000D01*
X251789621Y-63043379D02*
X248107200Y-66725800D01*
X248107200Y-66725800D02*
X226206800Y-66725800D01*
X251789621Y-48640421D02*
X251789621Y-63043379D01*
X250695676Y-47546476D02*
X251789621Y-48640421D01*
X250690932Y-47546476D02*
X250695676Y-47546476D01*
%TO.N,/Motor Driver/S2*%
X251339611Y-49326525D02*
X250125247Y-48112161D01*
X251339611Y-62832989D02*
X251339611Y-49326525D01*
X247904000Y-66268600D02*
X251339611Y-62832989D01*
X238766600Y-66268600D02*
X247904000Y-66268600D01*
X236887000Y-64389000D02*
X238766600Y-66268600D01*
%TO.N,/Motor Driver/S1*%
X240309400Y-65811400D02*
X238887000Y-64389000D01*
X247700800Y-65811400D02*
X240309400Y-65811400D01*
X250889601Y-62622599D02*
X247700800Y-65811400D01*
X250889601Y-50001001D02*
X250889601Y-62622599D01*
X249566447Y-48677847D02*
X250889601Y-50001001D01*
X249559561Y-48677847D02*
X249566447Y-48677847D01*
%TO.N,/Motor Driver/PWM_B*%
X221004000Y-50800000D02*
X220029000Y-50800000D01*
X221329010Y-50474990D02*
X221004000Y-50800000D01*
X221329010Y-48585010D02*
X221329010Y-50474990D01*
X221004000Y-48260000D02*
X221329010Y-48585010D01*
X220029000Y-48260000D02*
X221004000Y-48260000D01*
X219054000Y-50800000D02*
X220029000Y-50800000D01*
X218135200Y-51718800D02*
X219054000Y-50800000D01*
X218135200Y-54533800D02*
X218135200Y-51718800D01*
X219633800Y-56032400D02*
X218135200Y-54533800D01*
X248993876Y-49243532D02*
X248993876Y-49248276D01*
X243282610Y-56515000D02*
X242248400Y-55480790D01*
X229108000Y-55118000D02*
X228193600Y-56032400D01*
X248993876Y-49248276D02*
X249885200Y-50139600D01*
X249885200Y-50139600D02*
X249885200Y-52374800D01*
X239242600Y-55956200D02*
X232791000Y-55956200D01*
X249885200Y-52374800D02*
X245745000Y-56515000D01*
X245745000Y-56515000D02*
X243282610Y-56515000D01*
X232791000Y-55956200D02*
X231952800Y-55118000D01*
X242248400Y-55480790D02*
X239718010Y-55480790D01*
X239718010Y-55480790D02*
X239242600Y-55956200D01*
X231952800Y-55118000D02*
X229108000Y-55118000D01*
X228193600Y-56032400D02*
X219633800Y-56032400D01*
%TO.N,/Motor Driver/IN4*%
X221843600Y-52909600D02*
X221004000Y-52070000D01*
X248428190Y-49809217D02*
X248428190Y-49825590D01*
X249123200Y-52120800D02*
X245313200Y-55930800D01*
X221004000Y-52070000D02*
X220029000Y-52070000D01*
X245313200Y-55930800D02*
X243560600Y-55930800D01*
X221843600Y-54330600D02*
X221843600Y-52909600D01*
X249123200Y-50520600D02*
X249123200Y-52120800D01*
X243560600Y-55930800D02*
X242493800Y-54864000D01*
X236258100Y-54864000D02*
X235826300Y-54432200D01*
X235826300Y-54432200D02*
X228447600Y-54432200D01*
X242493800Y-54864000D02*
X236258100Y-54864000D01*
X228447600Y-54432200D02*
X227495100Y-55384700D01*
X248428190Y-49825590D02*
X249123200Y-50520600D01*
X227495100Y-55384700D02*
X222897700Y-55384700D01*
X222897700Y-55384700D02*
X221843600Y-54330600D01*
%TO.N,/Motor Driver/IN3*%
X248386600Y-50898998D02*
X247862505Y-50374903D01*
X220029000Y-46990000D02*
X221742000Y-46990000D01*
X221742000Y-46990000D02*
X222554800Y-47802800D01*
X222554800Y-47802800D02*
X222554800Y-53924200D01*
X222554800Y-53924200D02*
X223431100Y-54800500D01*
X223431100Y-54800500D02*
X227012500Y-54800500D01*
X227012500Y-54800500D02*
X228066600Y-53746400D01*
X244957600Y-55321200D02*
X248386600Y-51892200D01*
X228066600Y-53746400D02*
X239102900Y-53746400D01*
X248386600Y-51892200D02*
X248386600Y-50898998D01*
X239102900Y-53746400D02*
X239610900Y-54254400D01*
X239610900Y-54254400D02*
X242646200Y-54254400D01*
X242646200Y-54254400D02*
X243713000Y-55321200D01*
X243713000Y-55321200D02*
X244957600Y-55321200D01*
%TO.N,/Motor Driver/PWM_A*%
X224004000Y-49530000D02*
X224979000Y-49530000D01*
X223678990Y-49855010D02*
X224004000Y-49530000D01*
X223678990Y-51744990D02*
X223678990Y-49855010D01*
X224004000Y-52070000D02*
X223678990Y-51744990D01*
X224979000Y-52070000D02*
X224004000Y-52070000D01*
X223812100Y-54216300D02*
X223291400Y-53695600D01*
X226682300Y-54216300D02*
X223812100Y-54216300D01*
X227863400Y-53035200D02*
X226682300Y-54216300D01*
X223291400Y-53695600D02*
X223291400Y-52132580D01*
X238658400Y-52298600D02*
X237921800Y-53035200D01*
X223291400Y-52132580D02*
X223678990Y-51744990D01*
X237921800Y-53035200D02*
X227863400Y-53035200D01*
X238658400Y-50740173D02*
X238658400Y-52298600D01*
X242417783Y-46980790D02*
X238658400Y-50740173D01*
%TO.N,/Motor Driver/IN2*%
X226466400Y-53340000D02*
X224979000Y-53340000D01*
X227609400Y-52197000D02*
X226466400Y-53340000D01*
X237312200Y-52197000D02*
X227609400Y-52197000D01*
X237921800Y-51587400D02*
X237312200Y-52197000D01*
X237921800Y-50345402D02*
X237921800Y-51587400D01*
X241852097Y-46415105D02*
X237921800Y-50345402D01*
%TO.N,/Motor Driver/-M1*%
X245379000Y-60695600D02*
X245745000Y-61061600D01*
X245379000Y-60220900D02*
X245379000Y-61038500D01*
D27*
X246887000Y-62546500D02*
X245681500Y-61341000D01*
X246887000Y-64389000D02*
X246887000Y-62546500D01*
%TO.N,/Motor Driver/+M1*%
X244589300Y-62471300D02*
X244589300Y-61734700D01*
X244887000Y-62769000D02*
X244589300Y-62471300D01*
X244887000Y-64389000D02*
X244887000Y-62769000D01*
D26*
X244589300Y-61023500D02*
X244589300Y-61734700D01*
X244879000Y-60733800D02*
X244589300Y-61023500D01*
X244879000Y-61102100D02*
X244589300Y-61391800D01*
X244879000Y-60220900D02*
X244879000Y-61102100D01*
%TO.N,/Motor Driver/-M2*%
X229389800Y-60702986D02*
X229697614Y-61010800D01*
X229389800Y-59395400D02*
X229389800Y-60702986D01*
D27*
X231870000Y-62718700D02*
X230162100Y-61010800D01*
X230162100Y-61010800D02*
X229697614Y-61010800D01*
X231870000Y-64389000D02*
X231870000Y-62718700D01*
%TO.N,/Motor Driver/+M2*%
X229870000Y-64389000D02*
X229870000Y-63728600D01*
X229870000Y-63728600D02*
X228574600Y-62433200D01*
X228574600Y-62433200D02*
X228574600Y-60909200D01*
D26*
X228889800Y-60594000D02*
X228574600Y-60909200D01*
X228889800Y-59395400D02*
X228889800Y-60594000D01*
%TO.N,/Motor Driver/OUT4*%
X218313000Y-49530000D02*
X217754200Y-50088800D01*
X220029000Y-49530000D02*
X218313000Y-49530000D01*
X231002800Y-57495400D02*
X229889800Y-57495400D01*
X231343200Y-57835800D02*
X231002800Y-57495400D01*
%TO.N,/Motor Driver/OUT3*%
X220029000Y-44946800D02*
X219583000Y-44500800D01*
X220029000Y-45720000D02*
X220029000Y-44946800D01*
X229389800Y-56893600D02*
X229389800Y-57495400D01*
X229565200Y-56718200D02*
X229389800Y-56893600D01*
X230962200Y-56718200D02*
X229565200Y-56718200D01*
%TO.N,/Motor Driver/OUT2*%
X224979000Y-46990000D02*
X226568000Y-46990000D01*
X226568000Y-46990000D02*
X226796600Y-47218600D01*
X246956537Y-58320900D02*
X247077231Y-58441594D01*
X245879000Y-58320900D02*
X246956537Y-58320900D01*
%TO.N,/Motor Driver/OUT1*%
X226466400Y-50800000D02*
X226999800Y-51333400D01*
X224979000Y-50800000D02*
X226466400Y-50800000D01*
X246076611Y-56819800D02*
X247091210Y-56819800D01*
X245379000Y-57517411D02*
X246076611Y-56819800D01*
X245379000Y-58320900D02*
X245379000Y-57517411D01*
%TO.N,/Motor Driver/EN*%
X236855000Y-42037000D02*
X239471196Y-42037000D01*
X235051600Y-40233600D02*
X236855000Y-42037000D01*
X235051600Y-35229800D02*
X235051600Y-40233600D01*
X234442000Y-34620200D02*
X235051600Y-35229800D01*
X230327300Y-34620200D02*
X234442000Y-34620200D01*
X253593600Y-49530000D02*
X255168400Y-51104800D01*
X253593600Y-46135792D02*
X253593600Y-49530000D01*
X251822303Y-44364495D02*
X253593600Y-46135792D01*
X228889800Y-56415700D02*
X228889800Y-57495400D01*
X229539800Y-55765700D02*
X228889800Y-56415700D01*
X231432100Y-55765700D02*
X229539800Y-55765700D01*
X232689400Y-57023000D02*
X231432100Y-55765700D01*
X239445800Y-57023000D02*
X232689400Y-57023000D01*
X240182400Y-56286400D02*
X239445800Y-57023000D01*
X240182400Y-56286398D02*
X240182400Y-56286400D01*
X244879000Y-57401600D02*
X244879000Y-58320900D01*
X244525800Y-57048400D02*
X244879000Y-57401600D01*
X240182400Y-56286398D02*
X240219401Y-56323399D01*
X242454599Y-56323399D02*
X243179600Y-57048400D01*
X240219401Y-56323399D02*
X242454599Y-56323399D01*
X243179600Y-57048400D02*
X244525800Y-57048400D01*
X249555000Y-46316900D02*
X249542300Y-46316900D01*
X250151900Y-45720000D02*
X249555000Y-46316900D01*
X250466798Y-45720000D02*
X250151900Y-45720000D01*
X251822303Y-44364495D02*
X250466798Y-45720000D01*
%TO.N,Net-(C202-Pad2)*%
X221796200Y-36453000D02*
X221818200Y-36475000D01*
X220098100Y-36453000D02*
X221796200Y-36453000D01*
D25*
%TO.N,/Sheet60A2E58A/RESET*%
X243549153Y-42773489D02*
X244463664Y-43688000D01*
X243549153Y-42667439D02*
X243549153Y-42773489D01*
X245262400Y-43688000D02*
X245770400Y-43180000D01*
X244463664Y-43688000D02*
X245262400Y-43688000D01*
X251864726Y-38836600D02*
X252754563Y-39726437D01*
X250164600Y-38836600D02*
X251864726Y-38836600D01*
X252754563Y-39726437D02*
X253593600Y-38887400D01*
X253593600Y-37285000D02*
X253379800Y-37071200D01*
X253593600Y-38887400D02*
X253593600Y-37285000D01*
X253379800Y-37071200D02*
X253379800Y-29121200D01*
D26*
X238861600Y-37122400D02*
X238683800Y-36944600D01*
X238810800Y-38811200D02*
X238810800Y-36944600D01*
X239166400Y-39166800D02*
X238810800Y-38811200D01*
X240048514Y-39166800D02*
X239166400Y-39166800D01*
X243549153Y-42667439D02*
X240048514Y-39166800D01*
X256489200Y-51790600D02*
X255168400Y-53111400D01*
X256489200Y-39776400D02*
X256489200Y-51790600D01*
X255600200Y-38887400D02*
X256489200Y-39776400D01*
X253593600Y-38887400D02*
X255600200Y-38887400D01*
D25*
%TO.N,Net-(D201-Pad1)*%
X227176600Y-34620200D02*
X228752300Y-34620200D01*
%TO.N,Net-(D202-Pad1)*%
X227189800Y-39370000D02*
X228752300Y-39370000D01*
%TO.N,Net-(D203-Pad1)*%
X227189800Y-37820600D02*
X228752300Y-37820600D01*
%TO.N,Net-(D204-Pad1)*%
X227177600Y-36195000D02*
X228752300Y-36195000D01*
D26*
%TO.N,Net-(J201-PadA5)*%
X211675800Y-35453000D02*
X213055200Y-34073600D01*
X210343800Y-35453000D02*
X211675800Y-35453000D01*
%TO.N,Net-(J201-PadB7)*%
X212726200Y-35953000D02*
X213055200Y-35624000D01*
X210343800Y-35953000D02*
X212726200Y-35953000D01*
%TO.N,Net-(J201-PadB5)*%
X212697000Y-38453000D02*
X213055200Y-38811200D01*
X210343800Y-38453000D02*
X212697000Y-38453000D01*
%TO.N,Net-(R205-Pad1)*%
X222854200Y-39370000D02*
X221437200Y-37953000D01*
X225539800Y-39370000D02*
X222854200Y-39370000D01*
X220098100Y-37953000D02*
X221437200Y-37953000D01*
%TO.N,Net-(R206-Pad1)*%
X225539800Y-37820600D02*
X222123000Y-37820600D01*
X221755400Y-37453000D02*
X220098100Y-37453000D01*
X222123000Y-37820600D02*
X221755400Y-37453000D01*
D25*
%TO.N,Net-(U202-Pad8)*%
X245811895Y-51841219D02*
X244698857Y-52954257D01*
X245811895Y-50374903D02*
X245811895Y-51841219D01*
%TO.N,Net-(U202-Pad7)*%
X244495694Y-50559733D02*
X245246210Y-49809217D01*
X243699267Y-50559733D02*
X244495694Y-50559733D01*
X243001800Y-51257200D02*
X243699267Y-50559733D01*
%TD*%
D28*
%TO.N,+3V3*%
X215873100Y-37716072D02*
X216222528Y-37716072D01*
X216222528Y-38003000D01*
X216234788Y-38127482D01*
X216271098Y-38247180D01*
X216330063Y-38357494D01*
X216409415Y-38454185D01*
X216506106Y-38533537D01*
X216616420Y-38592502D01*
X216647528Y-38601939D01*
X216647528Y-38990500D01*
X216650600Y-39021691D01*
X216650600Y-39063700D01*
X216646924Y-39101022D01*
X216650600Y-39138344D01*
X216650600Y-39138355D01*
X216661597Y-39250008D01*
X216705054Y-39393269D01*
X216775626Y-39525298D01*
X216870600Y-39641023D01*
X216899598Y-39664821D01*
X217041259Y-39806482D01*
X217079187Y-39931511D01*
X217161365Y-40085257D01*
X217271959Y-40220015D01*
X217406717Y-40330609D01*
X217560463Y-40412787D01*
X217727286Y-40463393D01*
X217857299Y-40476198D01*
X218317192Y-40476198D01*
X218519997Y-40679003D01*
X218539243Y-40694797D01*
X218561199Y-40706533D01*
X218585024Y-40713760D01*
X218609800Y-40716200D01*
X226193194Y-40716200D01*
X226228655Y-40751661D01*
X226228528Y-40752933D01*
X226240659Y-40877427D01*
X226276843Y-40997163D01*
X226335692Y-41107539D01*
X226599733Y-41503600D01*
X226335692Y-41899661D01*
X226277098Y-42009420D01*
X226240788Y-42129118D01*
X226228528Y-42253600D01*
X226240788Y-42378082D01*
X226277098Y-42497780D01*
X226336063Y-42608094D01*
X226415415Y-42704785D01*
X226512106Y-42784137D01*
X226578805Y-42819789D01*
X226193194Y-43205400D01*
X218609800Y-43205400D01*
X218585024Y-43207840D01*
X218561199Y-43215067D01*
X218539243Y-43226803D01*
X218519997Y-43242597D01*
X218019997Y-43742597D01*
X218004203Y-43761843D01*
X217992467Y-43783799D01*
X217985240Y-43807624D01*
X217982800Y-43832400D01*
X217982800Y-48100516D01*
X217556913Y-48527750D01*
X214420215Y-48537656D01*
X213993438Y-48113425D01*
X213979191Y-43070181D01*
X214020423Y-43082688D01*
X214188800Y-43099272D01*
X214638800Y-43099272D01*
X214807177Y-43082688D01*
X214969083Y-43033575D01*
X215118297Y-42953818D01*
X215249084Y-42846484D01*
X215356418Y-42715697D01*
X215436175Y-42566483D01*
X215485288Y-42404577D01*
X215501872Y-42236200D01*
X215501872Y-41996089D01*
X215502846Y-41986200D01*
X215501872Y-41976311D01*
X215501872Y-41736200D01*
X215497602Y-41692847D01*
X215497602Y-41282969D01*
X215541084Y-41247284D01*
X215648418Y-41116497D01*
X215728175Y-40967283D01*
X215777288Y-40805377D01*
X215793872Y-40637000D01*
X215793872Y-40187000D01*
X215777288Y-40018623D01*
X215728175Y-39856717D01*
X215648418Y-39707503D01*
X215541084Y-39576716D01*
X215410297Y-39469382D01*
X215261083Y-39389625D01*
X215099177Y-39340512D01*
X214930800Y-39323928D01*
X214690688Y-39323928D01*
X214680799Y-39322954D01*
X214670910Y-39323928D01*
X214430800Y-39323928D01*
X214387447Y-39328198D01*
X214105606Y-39328198D01*
X214152169Y-39174700D01*
X214168272Y-39011200D01*
X214168272Y-38611200D01*
X214152169Y-38447700D01*
X214104478Y-38290484D01*
X214027031Y-38145592D01*
X213969600Y-38075613D01*
X213969600Y-38009587D01*
X214027031Y-37939608D01*
X214104478Y-37794716D01*
X214129266Y-37713000D01*
X215841909Y-37713000D01*
X215873100Y-37716072D01*
%TA.AperFunction,Conductor*%
D29*
G36*
X215873100Y-37716072D02*
G01*
X216222528Y-37716072D01*
X216222528Y-38003000D01*
X216234788Y-38127482D01*
X216271098Y-38247180D01*
X216330063Y-38357494D01*
X216409415Y-38454185D01*
X216506106Y-38533537D01*
X216616420Y-38592502D01*
X216647528Y-38601939D01*
X216647528Y-38990500D01*
X216650600Y-39021691D01*
X216650600Y-39063700D01*
X216646924Y-39101022D01*
X216650600Y-39138344D01*
X216650600Y-39138355D01*
X216661597Y-39250008D01*
X216705054Y-39393269D01*
X216775626Y-39525298D01*
X216870600Y-39641023D01*
X216899598Y-39664821D01*
X217041259Y-39806482D01*
X217079187Y-39931511D01*
X217161365Y-40085257D01*
X217271959Y-40220015D01*
X217406717Y-40330609D01*
X217560463Y-40412787D01*
X217727286Y-40463393D01*
X217857299Y-40476198D01*
X218317192Y-40476198D01*
X218519997Y-40679003D01*
X218539243Y-40694797D01*
X218561199Y-40706533D01*
X218585024Y-40713760D01*
X218609800Y-40716200D01*
X226193194Y-40716200D01*
X226228655Y-40751661D01*
X226228528Y-40752933D01*
X226240659Y-40877427D01*
X226276843Y-40997163D01*
X226335692Y-41107539D01*
X226599733Y-41503600D01*
X226335692Y-41899661D01*
X226277098Y-42009420D01*
X226240788Y-42129118D01*
X226228528Y-42253600D01*
X226240788Y-42378082D01*
X226277098Y-42497780D01*
X226336063Y-42608094D01*
X226415415Y-42704785D01*
X226512106Y-42784137D01*
X226578805Y-42819789D01*
X226193194Y-43205400D01*
X218609800Y-43205400D01*
X218585024Y-43207840D01*
X218561199Y-43215067D01*
X218539243Y-43226803D01*
X218519997Y-43242597D01*
X218019997Y-43742597D01*
X218004203Y-43761843D01*
X217992467Y-43783799D01*
X217985240Y-43807624D01*
X217982800Y-43832400D01*
X217982800Y-48100516D01*
X217556913Y-48527750D01*
X214420215Y-48537656D01*
X213993438Y-48113425D01*
X213979191Y-43070181D01*
X214020423Y-43082688D01*
X214188800Y-43099272D01*
X214638800Y-43099272D01*
X214807177Y-43082688D01*
X214969083Y-43033575D01*
X215118297Y-42953818D01*
X215249084Y-42846484D01*
X215356418Y-42715697D01*
X215436175Y-42566483D01*
X215485288Y-42404577D01*
X215501872Y-42236200D01*
X215501872Y-41996089D01*
X215502846Y-41986200D01*
X215501872Y-41976311D01*
X215501872Y-41736200D01*
X215497602Y-41692847D01*
X215497602Y-41282969D01*
X215541084Y-41247284D01*
X215648418Y-41116497D01*
X215728175Y-40967283D01*
X215777288Y-40805377D01*
X215793872Y-40637000D01*
X215793872Y-40187000D01*
X215777288Y-40018623D01*
X215728175Y-39856717D01*
X215648418Y-39707503D01*
X215541084Y-39576716D01*
X215410297Y-39469382D01*
X215261083Y-39389625D01*
X215099177Y-39340512D01*
X214930800Y-39323928D01*
X214690688Y-39323928D01*
X214680799Y-39322954D01*
X214670910Y-39323928D01*
X214430800Y-39323928D01*
X214387447Y-39328198D01*
X214105606Y-39328198D01*
X214152169Y-39174700D01*
X214168272Y-39011200D01*
X214168272Y-38611200D01*
X214152169Y-38447700D01*
X214104478Y-38290484D01*
X214027031Y-38145592D01*
X213969600Y-38075613D01*
X213969600Y-38009587D01*
X214027031Y-37939608D01*
X214104478Y-37794716D01*
X214129266Y-37713000D01*
X215841909Y-37713000D01*
X215873100Y-37716072D01*
G37*
%TD.AperFunction*%
%TD*%
D28*
%TO.N,VCC*%
X228680460Y-40932509D02*
X228535692Y-41149661D01*
X228477354Y-41258804D01*
X228440919Y-41378464D01*
X228428528Y-41502933D01*
X228440659Y-41627427D01*
X228476843Y-41747163D01*
X228535692Y-41857539D01*
X228862523Y-42347785D01*
X228859486Y-43644904D01*
X228859486Y-43644912D01*
X228857212Y-44644910D01*
X228857212Y-44644919D01*
X228855103Y-45600721D01*
X228857489Y-45625503D01*
X228864663Y-45649343D01*
X228876351Y-45671325D01*
X228892201Y-45690704D01*
X229391098Y-46190703D01*
X229410326Y-46206519D01*
X229432270Y-46218279D01*
X229456086Y-46225532D01*
X229481000Y-46228000D01*
X236073794Y-46228000D01*
X236499400Y-46653606D01*
X236499400Y-49688594D01*
X236073794Y-50114200D01*
X227896801Y-50114200D01*
X227457000Y-49674399D01*
X227457000Y-48021911D01*
X227600537Y-47878374D01*
X227713805Y-47708856D01*
X227791826Y-47520498D01*
X227831600Y-47320539D01*
X227831600Y-47116661D01*
X227791826Y-46916702D01*
X227713805Y-46728344D01*
X227600537Y-46558826D01*
X227523711Y-46482000D01*
X227600537Y-46405174D01*
X227713805Y-46235656D01*
X227791826Y-46047298D01*
X227831600Y-45847339D01*
X227831600Y-45643461D01*
X227791826Y-45443502D01*
X227713805Y-45255144D01*
X227600537Y-45085626D01*
X227457000Y-44942089D01*
X227457000Y-42068301D01*
X227597508Y-41857539D01*
X227655846Y-41748396D01*
X227692281Y-41628736D01*
X227704672Y-41504267D01*
X227692541Y-41379773D01*
X227656357Y-41260037D01*
X227597508Y-41149661D01*
X227532737Y-41052505D01*
X227883275Y-40699280D01*
X228441709Y-40695017D01*
X228680460Y-40932509D01*
%TA.AperFunction,Conductor*%
D29*
G36*
X228680460Y-40932509D02*
G01*
X228535692Y-41149661D01*
X228477354Y-41258804D01*
X228440919Y-41378464D01*
X228428528Y-41502933D01*
X228440659Y-41627427D01*
X228476843Y-41747163D01*
X228535692Y-41857539D01*
X228862523Y-42347785D01*
X228859486Y-43644904D01*
X228859486Y-43644912D01*
X228857212Y-44644910D01*
X228857212Y-44644919D01*
X228855103Y-45600721D01*
X228857489Y-45625503D01*
X228864663Y-45649343D01*
X228876351Y-45671325D01*
X228892201Y-45690704D01*
X229391098Y-46190703D01*
X229410326Y-46206519D01*
X229432270Y-46218279D01*
X229456086Y-46225532D01*
X229481000Y-46228000D01*
X236073794Y-46228000D01*
X236499400Y-46653606D01*
X236499400Y-49688594D01*
X236073794Y-50114200D01*
X227896801Y-50114200D01*
X227457000Y-49674399D01*
X227457000Y-48021911D01*
X227600537Y-47878374D01*
X227713805Y-47708856D01*
X227791826Y-47520498D01*
X227831600Y-47320539D01*
X227831600Y-47116661D01*
X227791826Y-46916702D01*
X227713805Y-46728344D01*
X227600537Y-46558826D01*
X227523711Y-46482000D01*
X227600537Y-46405174D01*
X227713805Y-46235656D01*
X227791826Y-46047298D01*
X227831600Y-45847339D01*
X227831600Y-45643461D01*
X227791826Y-45443502D01*
X227713805Y-45255144D01*
X227600537Y-45085626D01*
X227457000Y-44942089D01*
X227457000Y-42068301D01*
X227597508Y-41857539D01*
X227655846Y-41748396D01*
X227692281Y-41628736D01*
X227704672Y-41504267D01*
X227692541Y-41379773D01*
X227656357Y-41260037D01*
X227597508Y-41149661D01*
X227532737Y-41052505D01*
X227883275Y-40699280D01*
X228441709Y-40695017D01*
X228680460Y-40932509D01*
G37*
%TD.AperFunction*%
%TD*%
D28*
%TO.N,+5V*%
X234261518Y-35885853D02*
X234252070Y-45034555D01*
X233825716Y-45461516D01*
X231997253Y-45466000D01*
X230163886Y-45466000D01*
X229743000Y-45046144D01*
X229743000Y-42674024D01*
X229796766Y-42608649D01*
X229855846Y-42498396D01*
X229892281Y-42378736D01*
X229904672Y-42254267D01*
X229892541Y-42129773D01*
X229856357Y-42010037D01*
X229797508Y-41899661D01*
X229743000Y-41817899D01*
X229743000Y-41189301D01*
X229797508Y-41107539D01*
X229856102Y-40997780D01*
X229892412Y-40878082D01*
X229904672Y-40753600D01*
X229892412Y-40629118D01*
X229856102Y-40509420D01*
X229839363Y-40478105D01*
X229889800Y-40483072D01*
X230041550Y-40480000D01*
X230200300Y-40321250D01*
X230200300Y-39497000D01*
X230454300Y-39497000D01*
X230454300Y-40321250D01*
X230613050Y-40480000D01*
X230764800Y-40483072D01*
X230889282Y-40470812D01*
X231008980Y-40434502D01*
X231119294Y-40375537D01*
X231215985Y-40296185D01*
X231295337Y-40199494D01*
X231354302Y-40089180D01*
X231390612Y-39969482D01*
X231402872Y-39845000D01*
X231399800Y-39655750D01*
X231241050Y-39497000D01*
X230454300Y-39497000D01*
X230200300Y-39497000D01*
X230180300Y-39497000D01*
X230180300Y-39243000D01*
X230200300Y-39243000D01*
X230200300Y-37947600D01*
X230454300Y-37947600D01*
X230454300Y-39243000D01*
X231241050Y-39243000D01*
X231399800Y-39084250D01*
X231402872Y-38895000D01*
X231390612Y-38770518D01*
X231354302Y-38650820D01*
X231324625Y-38595300D01*
X231354302Y-38539780D01*
X231390612Y-38420082D01*
X231402872Y-38295600D01*
X231399800Y-38106350D01*
X231241050Y-37947600D01*
X230454300Y-37947600D01*
X230200300Y-37947600D01*
X230180300Y-37947600D01*
X230180300Y-37693600D01*
X230200300Y-37693600D01*
X230200300Y-36322000D01*
X230454300Y-36322000D01*
X230454300Y-37693600D01*
X231241050Y-37693600D01*
X231399800Y-37534850D01*
X231402872Y-37345600D01*
X231390612Y-37221118D01*
X231354302Y-37101420D01*
X231304260Y-37007800D01*
X231354302Y-36914180D01*
X231390612Y-36794482D01*
X231402872Y-36670000D01*
X231399800Y-36480750D01*
X231241050Y-36322000D01*
X230454300Y-36322000D01*
X230200300Y-36322000D01*
X230180300Y-36322000D01*
X230180300Y-36068000D01*
X230200300Y-36068000D01*
X230200300Y-36048000D01*
X230454300Y-36048000D01*
X230454300Y-36068000D01*
X231241050Y-36068000D01*
X231399800Y-35909250D01*
X231402872Y-35720000D01*
X231390612Y-35595518D01*
X231363824Y-35507209D01*
X233837920Y-35468415D01*
X234261518Y-35885853D01*
%TA.AperFunction,Conductor*%
D29*
G36*
X234261518Y-35885853D02*
G01*
X234252070Y-45034555D01*
X233825716Y-45461516D01*
X231997253Y-45466000D01*
X230163886Y-45466000D01*
X229743000Y-45046144D01*
X229743000Y-42674024D01*
X229796766Y-42608649D01*
X229855846Y-42498396D01*
X229892281Y-42378736D01*
X229904672Y-42254267D01*
X229892541Y-42129773D01*
X229856357Y-42010037D01*
X229797508Y-41899661D01*
X229743000Y-41817899D01*
X229743000Y-41189301D01*
X229797508Y-41107539D01*
X229856102Y-40997780D01*
X229892412Y-40878082D01*
X229904672Y-40753600D01*
X229892412Y-40629118D01*
X229856102Y-40509420D01*
X229839363Y-40478105D01*
X229889800Y-40483072D01*
X230041550Y-40480000D01*
X230200300Y-40321250D01*
X230200300Y-39497000D01*
X230454300Y-39497000D01*
X230454300Y-40321250D01*
X230613050Y-40480000D01*
X230764800Y-40483072D01*
X230889282Y-40470812D01*
X231008980Y-40434502D01*
X231119294Y-40375537D01*
X231215985Y-40296185D01*
X231295337Y-40199494D01*
X231354302Y-40089180D01*
X231390612Y-39969482D01*
X231402872Y-39845000D01*
X231399800Y-39655750D01*
X231241050Y-39497000D01*
X230454300Y-39497000D01*
X230200300Y-39497000D01*
X230180300Y-39497000D01*
X230180300Y-39243000D01*
X230200300Y-39243000D01*
X230200300Y-37947600D01*
X230454300Y-37947600D01*
X230454300Y-39243000D01*
X231241050Y-39243000D01*
X231399800Y-39084250D01*
X231402872Y-38895000D01*
X231390612Y-38770518D01*
X231354302Y-38650820D01*
X231324625Y-38595300D01*
X231354302Y-38539780D01*
X231390612Y-38420082D01*
X231402872Y-38295600D01*
X231399800Y-38106350D01*
X231241050Y-37947600D01*
X230454300Y-37947600D01*
X230200300Y-37947600D01*
X230180300Y-37947600D01*
X230180300Y-37693600D01*
X230200300Y-37693600D01*
X230200300Y-36322000D01*
X230454300Y-36322000D01*
X230454300Y-37693600D01*
X231241050Y-37693600D01*
X231399800Y-37534850D01*
X231402872Y-37345600D01*
X231390612Y-37221118D01*
X231354302Y-37101420D01*
X231304260Y-37007800D01*
X231354302Y-36914180D01*
X231390612Y-36794482D01*
X231402872Y-36670000D01*
X231399800Y-36480750D01*
X231241050Y-36322000D01*
X230454300Y-36322000D01*
X230200300Y-36322000D01*
X230180300Y-36322000D01*
X230180300Y-36068000D01*
X230200300Y-36068000D01*
X230200300Y-36048000D01*
X230454300Y-36048000D01*
X230454300Y-36068000D01*
X231241050Y-36068000D01*
X231399800Y-35909250D01*
X231402872Y-35720000D01*
X231390612Y-35595518D01*
X231363824Y-35507209D01*
X233837920Y-35468415D01*
X234261518Y-35885853D01*
G37*
%TD.AperFunction*%
%TD*%
D28*
%TO.N,GND*%
X224500788Y-34020718D02*
X224488528Y-34145200D01*
X224491600Y-34334450D01*
X224650350Y-34493200D01*
X225399600Y-34493200D01*
X225399600Y-34473200D01*
X225653600Y-34473200D01*
X225653600Y-34493200D01*
X225673600Y-34493200D01*
X225673600Y-34747200D01*
X225653600Y-34747200D01*
X225653600Y-35571450D01*
X225654600Y-35572450D01*
X225654600Y-36068000D01*
X225674600Y-36068000D01*
X225674600Y-36322000D01*
X225654600Y-36322000D01*
X225654600Y-36342000D01*
X225400600Y-36342000D01*
X225400600Y-36322000D01*
X224651350Y-36322000D01*
X224492600Y-36480750D01*
X224489528Y-36670000D01*
X224497781Y-36753800D01*
X223183606Y-36753800D01*
X222931272Y-36501466D01*
X222931272Y-36250000D01*
X222914688Y-36081623D01*
X222865575Y-35919717D01*
X222787500Y-35773649D01*
X222823737Y-35729494D01*
X222882702Y-35619180D01*
X222919012Y-35499482D01*
X222931272Y-35375000D01*
X222928200Y-35210750D01*
X222812650Y-35095200D01*
X224488528Y-35095200D01*
X224500788Y-35219682D01*
X224537098Y-35339380D01*
X224574063Y-35408535D01*
X224538098Y-35475820D01*
X224501788Y-35595518D01*
X224489528Y-35720000D01*
X224492600Y-35909250D01*
X224651350Y-36068000D01*
X225400600Y-36068000D01*
X225400600Y-35243750D01*
X225399600Y-35242750D01*
X225399600Y-34747200D01*
X224650350Y-34747200D01*
X224491600Y-34905950D01*
X224488528Y-35095200D01*
X222812650Y-35095200D01*
X222769450Y-35052000D01*
X221945200Y-35052000D01*
X221945200Y-35072000D01*
X221691200Y-35072000D01*
X221691200Y-35052000D01*
X221671200Y-35052000D01*
X221671200Y-34798000D01*
X221691200Y-34798000D01*
X221691200Y-34778000D01*
X221945200Y-34778000D01*
X221945200Y-34798000D01*
X222769450Y-34798000D01*
X222928200Y-34639250D01*
X222931272Y-34475000D01*
X222919012Y-34350518D01*
X222882702Y-34230820D01*
X222823737Y-34120506D01*
X222744385Y-34023815D01*
X222728282Y-34010600D01*
X224503857Y-34010600D01*
X224500788Y-34020718D01*
%TA.AperFunction,Conductor*%
D29*
G36*
X224500788Y-34020718D02*
G01*
X224488528Y-34145200D01*
X224491600Y-34334450D01*
X224650350Y-34493200D01*
X225399600Y-34493200D01*
X225399600Y-34473200D01*
X225653600Y-34473200D01*
X225653600Y-34493200D01*
X225673600Y-34493200D01*
X225673600Y-34747200D01*
X225653600Y-34747200D01*
X225653600Y-35571450D01*
X225654600Y-35572450D01*
X225654600Y-36068000D01*
X225674600Y-36068000D01*
X225674600Y-36322000D01*
X225654600Y-36322000D01*
X225654600Y-36342000D01*
X225400600Y-36342000D01*
X225400600Y-36322000D01*
X224651350Y-36322000D01*
X224492600Y-36480750D01*
X224489528Y-36670000D01*
X224497781Y-36753800D01*
X223183606Y-36753800D01*
X222931272Y-36501466D01*
X222931272Y-36250000D01*
X222914688Y-36081623D01*
X222865575Y-35919717D01*
X222787500Y-35773649D01*
X222823737Y-35729494D01*
X222882702Y-35619180D01*
X222919012Y-35499482D01*
X222931272Y-35375000D01*
X222928200Y-35210750D01*
X222812650Y-35095200D01*
X224488528Y-35095200D01*
X224500788Y-35219682D01*
X224537098Y-35339380D01*
X224574063Y-35408535D01*
X224538098Y-35475820D01*
X224501788Y-35595518D01*
X224489528Y-35720000D01*
X224492600Y-35909250D01*
X224651350Y-36068000D01*
X225400600Y-36068000D01*
X225400600Y-35243750D01*
X225399600Y-35242750D01*
X225399600Y-34747200D01*
X224650350Y-34747200D01*
X224491600Y-34905950D01*
X224488528Y-35095200D01*
X222812650Y-35095200D01*
X222769450Y-35052000D01*
X221945200Y-35052000D01*
X221945200Y-35072000D01*
X221691200Y-35072000D01*
X221691200Y-35052000D01*
X221671200Y-35052000D01*
X221671200Y-34798000D01*
X221691200Y-34798000D01*
X221691200Y-34778000D01*
X221945200Y-34778000D01*
X221945200Y-34798000D01*
X222769450Y-34798000D01*
X222928200Y-34639250D01*
X222931272Y-34475000D01*
X222919012Y-34350518D01*
X222882702Y-34230820D01*
X222823737Y-34120506D01*
X222744385Y-34023815D01*
X222728282Y-34010600D01*
X224503857Y-34010600D01*
X224500788Y-34020718D01*
G37*
%TD.AperFunction*%
%TD*%
D28*
%TO.N,/Motor Driver/+M2*%
X228887001Y-60678284D02*
X228884568Y-60702986D01*
X228894276Y-60801551D01*
X228895785Y-60806524D01*
X228882973Y-60848758D01*
X228867013Y-61010800D01*
X228879522Y-61137800D01*
X228269800Y-61137800D01*
X228269800Y-60199806D01*
X228444578Y-60025028D01*
X228514800Y-60025028D01*
X228588862Y-60017734D01*
X228660077Y-59996131D01*
X228725710Y-59961049D01*
X228783238Y-59913838D01*
X228830449Y-59856310D01*
X228865531Y-59790677D01*
X228887000Y-59719903D01*
X228887001Y-60678284D01*
%TA.AperFunction,Conductor*%
D29*
G36*
X228887001Y-60678284D02*
G01*
X228884568Y-60702986D01*
X228894276Y-60801551D01*
X228895785Y-60806524D01*
X228882973Y-60848758D01*
X228867013Y-61010800D01*
X228879522Y-61137800D01*
X228269800Y-61137800D01*
X228269800Y-60199806D01*
X228444578Y-60025028D01*
X228514800Y-60025028D01*
X228588862Y-60017734D01*
X228660077Y-59996131D01*
X228725710Y-59961049D01*
X228783238Y-59913838D01*
X228830449Y-59856310D01*
X228865531Y-59790677D01*
X228887000Y-59719903D01*
X228887001Y-60678284D01*
G37*
%TD.AperFunction*%
%TD*%
D28*
%TO.N,/Motor Driver/-M2*%
X229414069Y-59790677D02*
X229449151Y-59856310D01*
X229496362Y-59913838D01*
X229553890Y-59961049D01*
X229619523Y-59996131D01*
X229690738Y-60017734D01*
X229764800Y-60025028D01*
X229859202Y-60025028D01*
X230073200Y-60206103D01*
X230073200Y-61138368D01*
X229401202Y-61137939D01*
X229401202Y-60868598D01*
X229389241Y-60747158D01*
X229379002Y-60713406D01*
X229385324Y-60692566D01*
X229392600Y-60618692D01*
X229392600Y-60618685D01*
X229395031Y-60594001D01*
X229392600Y-60569316D01*
X229392600Y-59719904D01*
X229414069Y-59790677D01*
%TA.AperFunction,Conductor*%
D29*
G36*
X229414069Y-59790677D02*
G01*
X229449151Y-59856310D01*
X229496362Y-59913838D01*
X229553890Y-59961049D01*
X229619523Y-59996131D01*
X229690738Y-60017734D01*
X229764800Y-60025028D01*
X229859202Y-60025028D01*
X230073200Y-60206103D01*
X230073200Y-61138368D01*
X229401202Y-61137939D01*
X229401202Y-60868598D01*
X229389241Y-60747158D01*
X229379002Y-60713406D01*
X229385324Y-60692566D01*
X229392600Y-60618692D01*
X229392600Y-60618685D01*
X229395031Y-60594001D01*
X229392600Y-60569316D01*
X229392600Y-59719904D01*
X229414069Y-59790677D01*
G37*
%TD.AperFunction*%
%TD*%
D28*
%TO.N,+BATT*%
X227998770Y-59058826D02*
X228024151Y-59106310D01*
X228071362Y-59163838D01*
X228128890Y-59211049D01*
X228194523Y-59246131D01*
X228265738Y-59267734D01*
X228321078Y-59273184D01*
X228385172Y-59337278D01*
X228385172Y-59407722D01*
X228204494Y-59588400D01*
X228180900Y-59588400D01*
X228156124Y-59590840D01*
X228132299Y-59598067D01*
X228110343Y-59609803D01*
X228091097Y-59625597D01*
X227671997Y-60044697D01*
X227656203Y-60063943D01*
X227644467Y-60085899D01*
X227637240Y-60109724D01*
X227634800Y-60134500D01*
X227634800Y-60242294D01*
X227209194Y-60667900D01*
X223484904Y-60667900D01*
X223060020Y-60242421D01*
X223062027Y-58807630D01*
X223488353Y-58381900D01*
X227321844Y-58381900D01*
X227998770Y-59058826D01*
%TA.AperFunction,Conductor*%
D29*
G36*
X227998770Y-59058826D02*
G01*
X228024151Y-59106310D01*
X228071362Y-59163838D01*
X228128890Y-59211049D01*
X228194523Y-59246131D01*
X228265738Y-59267734D01*
X228321078Y-59273184D01*
X228385172Y-59337278D01*
X228385172Y-59407722D01*
X228204494Y-59588400D01*
X228180900Y-59588400D01*
X228156124Y-59590840D01*
X228132299Y-59598067D01*
X228110343Y-59609803D01*
X228091097Y-59625597D01*
X227671997Y-60044697D01*
X227656203Y-60063943D01*
X227644467Y-60085899D01*
X227637240Y-60109724D01*
X227634800Y-60134500D01*
X227634800Y-60242294D01*
X227209194Y-60667900D01*
X223484904Y-60667900D01*
X223060020Y-60242421D01*
X223062027Y-58807630D01*
X223488353Y-58381900D01*
X227321844Y-58381900D01*
X227998770Y-59058826D01*
G37*
%TD.AperFunction*%
%TD*%
D28*
%TO.N,+BATT*%
X242919329Y-58939615D02*
X243042400Y-58951737D01*
X243165470Y-58939615D01*
X243212052Y-58925484D01*
X243627474Y-59340906D01*
X243627474Y-59486800D01*
X243629914Y-59511576D01*
X243637141Y-59535401D01*
X243648877Y-59557357D01*
X243664671Y-59576603D01*
X244005856Y-59917788D01*
X244013351Y-59931810D01*
X244060562Y-59989338D01*
X244118090Y-60036549D01*
X244183723Y-60071631D01*
X244254938Y-60093234D01*
X244257782Y-60093514D01*
X244374372Y-60210104D01*
X244374372Y-60287496D01*
X244197168Y-60464700D01*
X243871751Y-60464700D01*
X243846975Y-60467140D01*
X243823150Y-60474367D01*
X243801194Y-60486103D01*
X243782029Y-60501817D01*
X242966781Y-61315600D01*
X239482589Y-61315600D01*
X239056687Y-60889943D01*
X239055792Y-59340853D01*
X239481100Y-58915300D01*
X242839173Y-58915300D01*
X242919329Y-58939615D01*
%TA.AperFunction,Conductor*%
D29*
G36*
X242919329Y-58939615D02*
G01*
X243042400Y-58951737D01*
X243165470Y-58939615D01*
X243212052Y-58925484D01*
X243627474Y-59340906D01*
X243627474Y-59486800D01*
X243629914Y-59511576D01*
X243637141Y-59535401D01*
X243648877Y-59557357D01*
X243664671Y-59576603D01*
X244005856Y-59917788D01*
X244013351Y-59931810D01*
X244060562Y-59989338D01*
X244118090Y-60036549D01*
X244183723Y-60071631D01*
X244254938Y-60093234D01*
X244257782Y-60093514D01*
X244374372Y-60210104D01*
X244374372Y-60287496D01*
X244197168Y-60464700D01*
X243871751Y-60464700D01*
X243846975Y-60467140D01*
X243823150Y-60474367D01*
X243801194Y-60486103D01*
X243782029Y-60501817D01*
X242966781Y-61315600D01*
X239482589Y-61315600D01*
X239056687Y-60889943D01*
X239055792Y-59340853D01*
X239481100Y-58915300D01*
X242839173Y-58915300D01*
X242919329Y-58939615D01*
G37*
%TD.AperFunction*%
%TD*%
D28*
%TO.N,/Motor Driver/-M1*%
X245403269Y-60616177D02*
X245438351Y-60681810D01*
X245485562Y-60739338D01*
X245543090Y-60786549D01*
X245608723Y-60821631D01*
X245679938Y-60843234D01*
X245754000Y-60850528D01*
X245861202Y-60850528D01*
X246075200Y-61031603D01*
X246075200Y-61531744D01*
X245391397Y-61531307D01*
X245356675Y-61416843D01*
X245318780Y-61345946D01*
X245345774Y-61295444D01*
X245374524Y-61200666D01*
X245381800Y-61126792D01*
X245384232Y-61102100D01*
X245381800Y-61077408D01*
X245381800Y-60758492D01*
X245384232Y-60733800D01*
X245381800Y-60709108D01*
X245381800Y-60545404D01*
X245403269Y-60616177D01*
%TA.AperFunction,Conductor*%
D29*
G36*
X245403269Y-60616177D02*
G01*
X245438351Y-60681810D01*
X245485562Y-60739338D01*
X245543090Y-60786549D01*
X245608723Y-60821631D01*
X245679938Y-60843234D01*
X245754000Y-60850528D01*
X245861202Y-60850528D01*
X246075200Y-61031603D01*
X246075200Y-61531744D01*
X245391397Y-61531307D01*
X245356675Y-61416843D01*
X245318780Y-61345946D01*
X245345774Y-61295444D01*
X245374524Y-61200666D01*
X245381800Y-61126792D01*
X245384232Y-61102100D01*
X245381800Y-61077408D01*
X245381800Y-60758492D01*
X245384232Y-60733800D01*
X245381800Y-60709108D01*
X245381800Y-60545404D01*
X245403269Y-60616177D01*
G37*
%TD.AperFunction*%
%TD*%
D28*
%TO.N,/Motor Driver/+M1*%
X244876201Y-60670902D02*
X244873768Y-60695600D01*
X244876201Y-60720298D01*
X244876201Y-61063192D01*
X244882519Y-61127338D01*
X244866860Y-61178958D01*
X244850899Y-61341000D01*
X244866860Y-61503042D01*
X244906800Y-61634706D01*
X244906800Y-61963300D01*
X244271800Y-61963300D01*
X244271800Y-61025306D01*
X244446578Y-60850528D01*
X244504000Y-60850528D01*
X244578062Y-60843234D01*
X244649277Y-60821631D01*
X244714910Y-60786549D01*
X244772438Y-60739338D01*
X244819649Y-60681810D01*
X244854731Y-60616177D01*
X244876200Y-60545402D01*
X244876201Y-60670902D01*
%TA.AperFunction,Conductor*%
D29*
G36*
X244876201Y-60670902D02*
G01*
X244873768Y-60695600D01*
X244876201Y-60720298D01*
X244876201Y-61063192D01*
X244882519Y-61127338D01*
X244866860Y-61178958D01*
X244850899Y-61341000D01*
X244866860Y-61503042D01*
X244906800Y-61634706D01*
X244906800Y-61963300D01*
X244271800Y-61963300D01*
X244271800Y-61025306D01*
X244446578Y-60850528D01*
X244504000Y-60850528D01*
X244578062Y-60843234D01*
X244649277Y-60821631D01*
X244714910Y-60786549D01*
X244772438Y-60739338D01*
X244819649Y-60681810D01*
X244854731Y-60616177D01*
X244876200Y-60545402D01*
X244876201Y-60670902D01*
G37*
%TD.AperFunction*%
%TD*%
D28*
%TO.N,GND*%
X250386801Y-56324607D02*
X250386802Y-60356109D01*
X250094313Y-60649526D01*
X246418916Y-60661175D01*
X245919600Y-60238677D01*
X245919600Y-59956700D01*
X245912341Y-59882995D01*
X245890842Y-59812122D01*
X245855929Y-59746806D01*
X245808945Y-59689555D01*
X245751694Y-59642571D01*
X245686378Y-59607658D01*
X245615505Y-59586159D01*
X245541800Y-59578900D01*
X245186200Y-59578900D01*
X245112495Y-59586159D01*
X245110000Y-59586916D01*
X245107505Y-59586159D01*
X245033800Y-59578900D01*
X244703600Y-59578900D01*
X244629895Y-59586159D01*
X244583528Y-59600224D01*
X244578062Y-59598566D01*
X244504000Y-59591272D01*
X244458734Y-59591272D01*
X244424200Y-59572813D01*
X244424200Y-59340906D01*
X244814578Y-58950528D01*
X245004000Y-58950528D01*
X245078062Y-58943234D01*
X245129000Y-58927782D01*
X245179938Y-58943234D01*
X245254000Y-58950528D01*
X245504000Y-58950528D01*
X245578062Y-58943234D01*
X245629000Y-58927782D01*
X245679938Y-58943234D01*
X245754000Y-58950528D01*
X246004000Y-58950528D01*
X246078062Y-58943234D01*
X246149277Y-58921631D01*
X246161121Y-58915300D01*
X246458300Y-58915300D01*
X246473075Y-58937412D01*
X246581413Y-59045750D01*
X246708805Y-59130871D01*
X246850355Y-59189503D01*
X247000624Y-59219394D01*
X247153838Y-59219394D01*
X247304107Y-59189503D01*
X247445657Y-59130871D01*
X247573049Y-59045750D01*
X247681387Y-58937412D01*
X247766508Y-58810020D01*
X247821395Y-58677511D01*
X248120803Y-58378103D01*
X248136597Y-58358857D01*
X248148333Y-58336901D01*
X248155560Y-58313076D01*
X248158000Y-58288300D01*
X248158000Y-56458006D01*
X248583606Y-56032400D01*
X250094594Y-56032400D01*
X250386801Y-56324607D01*
%TA.AperFunction,Conductor*%
D29*
G36*
X250386801Y-56324607D02*
G01*
X250386802Y-60356109D01*
X250094313Y-60649526D01*
X246418916Y-60661175D01*
X245919600Y-60238677D01*
X245919600Y-59956700D01*
X245912341Y-59882995D01*
X245890842Y-59812122D01*
X245855929Y-59746806D01*
X245808945Y-59689555D01*
X245751694Y-59642571D01*
X245686378Y-59607658D01*
X245615505Y-59586159D01*
X245541800Y-59578900D01*
X245186200Y-59578900D01*
X245112495Y-59586159D01*
X245110000Y-59586916D01*
X245107505Y-59586159D01*
X245033800Y-59578900D01*
X244703600Y-59578900D01*
X244629895Y-59586159D01*
X244583528Y-59600224D01*
X244578062Y-59598566D01*
X244504000Y-59591272D01*
X244458734Y-59591272D01*
X244424200Y-59572813D01*
X244424200Y-59340906D01*
X244814578Y-58950528D01*
X245004000Y-58950528D01*
X245078062Y-58943234D01*
X245129000Y-58927782D01*
X245179938Y-58943234D01*
X245254000Y-58950528D01*
X245504000Y-58950528D01*
X245578062Y-58943234D01*
X245629000Y-58927782D01*
X245679938Y-58943234D01*
X245754000Y-58950528D01*
X246004000Y-58950528D01*
X246078062Y-58943234D01*
X246149277Y-58921631D01*
X246161121Y-58915300D01*
X246458300Y-58915300D01*
X246473075Y-58937412D01*
X246581413Y-59045750D01*
X246708805Y-59130871D01*
X246850355Y-59189503D01*
X247000624Y-59219394D01*
X247153838Y-59219394D01*
X247304107Y-59189503D01*
X247445657Y-59130871D01*
X247573049Y-59045750D01*
X247681387Y-58937412D01*
X247766508Y-58810020D01*
X247821395Y-58677511D01*
X248120803Y-58378103D01*
X248136597Y-58358857D01*
X248148333Y-58336901D01*
X248155560Y-58313076D01*
X248158000Y-58288300D01*
X248158000Y-56458006D01*
X248583606Y-56032400D01*
X250094594Y-56032400D01*
X250386801Y-56324607D01*
G37*
%TD.AperFunction*%
%TD*%
D28*
%TO.N,GND*%
X204512353Y-31329324D02*
X204315177Y-31434716D01*
X204142351Y-31576551D01*
X204000516Y-31749377D01*
X203895124Y-31946553D01*
X203830223Y-32160501D01*
X203808309Y-32383000D01*
X203830223Y-32605499D01*
X203895124Y-32819447D01*
X204000516Y-33016623D01*
X204142351Y-33189449D01*
X204315177Y-33331284D01*
X204512353Y-33436676D01*
X204726301Y-33501577D01*
X204893048Y-33518000D01*
X205604552Y-33518000D01*
X205771299Y-33501577D01*
X205985247Y-33436676D01*
X206182423Y-33331284D01*
X206355249Y-33189449D01*
X206497084Y-33016623D01*
X206602476Y-32819447D01*
X206667377Y-32605499D01*
X206689291Y-32383000D01*
X206667377Y-32160501D01*
X206602476Y-31946553D01*
X206497084Y-31749377D01*
X206355249Y-31576551D01*
X206182423Y-31434716D01*
X205985247Y-31329324D01*
X205781113Y-31267400D01*
X208646487Y-31267400D01*
X208442353Y-31329324D01*
X208245177Y-31434716D01*
X208072351Y-31576551D01*
X207930516Y-31749377D01*
X207825124Y-31946553D01*
X207760223Y-32160501D01*
X207738309Y-32383000D01*
X207760223Y-32605499D01*
X207825124Y-32819447D01*
X207930516Y-33016623D01*
X208072351Y-33189449D01*
X208129515Y-33236362D01*
X208048059Y-33358269D01*
X207975692Y-33532978D01*
X207938800Y-33718448D01*
X207938800Y-33907552D01*
X207975692Y-34093022D01*
X208048059Y-34267731D01*
X208112627Y-34364364D01*
X208026339Y-34347200D01*
X207822461Y-34347200D01*
X207622502Y-34386974D01*
X207434144Y-34464995D01*
X207264626Y-34578263D01*
X207120463Y-34722426D01*
X207007195Y-34891944D01*
X206929174Y-35080302D01*
X206889400Y-35280261D01*
X206889400Y-35484139D01*
X206929174Y-35684098D01*
X207007195Y-35872456D01*
X207086938Y-35991800D01*
X207007195Y-36111144D01*
X206929174Y-36299502D01*
X206889400Y-36499461D01*
X206889400Y-36703339D01*
X206929174Y-36903298D01*
X207007195Y-37091656D01*
X207099638Y-37230007D01*
X207032595Y-37330344D01*
X206954574Y-37518702D01*
X206914800Y-37718661D01*
X206914800Y-37922539D01*
X206954574Y-38122498D01*
X207032595Y-38310856D01*
X207145863Y-38480374D01*
X207290026Y-38624537D01*
X207459544Y-38737805D01*
X207647902Y-38815826D01*
X207847861Y-38855600D01*
X208039740Y-38855600D01*
X208062257Y-38883037D01*
X208062260Y-38883040D01*
X208089973Y-38916808D01*
X208123741Y-38944521D01*
X208156688Y-38977468D01*
X208153119Y-38981036D01*
X208048059Y-39138269D01*
X207975692Y-39312978D01*
X207938800Y-39498448D01*
X207938800Y-39687552D01*
X207975692Y-39873022D01*
X208048059Y-40047731D01*
X208129515Y-40169638D01*
X208072351Y-40216551D01*
X207930516Y-40389377D01*
X207825124Y-40586553D01*
X207760223Y-40800501D01*
X207738309Y-41023000D01*
X207760223Y-41245499D01*
X207825124Y-41459447D01*
X207930516Y-41656623D01*
X208072351Y-41829449D01*
X208245177Y-41971284D01*
X208442353Y-42076676D01*
X208656301Y-42141577D01*
X208823048Y-42158000D01*
X210034552Y-42158000D01*
X210201299Y-42141577D01*
X210415247Y-42076676D01*
X210612423Y-41971284D01*
X210785249Y-41829449D01*
X210927084Y-41656623D01*
X211032476Y-41459447D01*
X211097377Y-41245499D01*
X211119291Y-41023000D01*
X211105937Y-40887414D01*
X211193282Y-40878812D01*
X211251340Y-40861200D01*
X211942128Y-40861200D01*
X211954388Y-40985682D01*
X211990698Y-41105380D01*
X212049663Y-41215694D01*
X212129015Y-41312385D01*
X212225706Y-41391737D01*
X212336020Y-41450702D01*
X212455718Y-41487012D01*
X212580200Y-41499272D01*
X212769450Y-41496200D01*
X212928200Y-41337450D01*
X212928200Y-40588200D01*
X212103950Y-40588200D01*
X211945200Y-40746950D01*
X211942128Y-40861200D01*
X211251340Y-40861200D01*
X211312980Y-40842502D01*
X211423294Y-40783537D01*
X211519985Y-40704185D01*
X211599337Y-40607494D01*
X211658302Y-40497180D01*
X211694612Y-40377482D01*
X211706872Y-40253000D01*
X211703800Y-40238750D01*
X211681868Y-40216818D01*
X211734061Y-40227200D01*
X211937939Y-40227200D01*
X211987160Y-40217410D01*
X212103950Y-40334200D01*
X212928200Y-40334200D01*
X212928200Y-40314200D01*
X213182200Y-40314200D01*
X213182200Y-40334200D01*
X213202200Y-40334200D01*
X213202200Y-40588200D01*
X213182200Y-40588200D01*
X213182200Y-41337450D01*
X213212380Y-41367630D01*
X213223384Y-45262800D01*
X211184332Y-45262800D01*
X211189902Y-45252380D01*
X211226212Y-45132682D01*
X211238472Y-45008200D01*
X211235400Y-44543950D01*
X211076650Y-44385200D01*
X209727400Y-44385200D01*
X209727400Y-44405200D01*
X209473400Y-44405200D01*
X209473400Y-44385200D01*
X208124150Y-44385200D01*
X207965400Y-44543950D01*
X207962328Y-45008200D01*
X207974588Y-45132682D01*
X208010898Y-45252380D01*
X208016468Y-45262800D01*
X202685803Y-45262800D01*
X202462600Y-45039611D01*
X202462600Y-43508200D01*
X207962328Y-43508200D01*
X207965400Y-43972450D01*
X208124150Y-44131200D01*
X209473400Y-44131200D01*
X209473400Y-43031950D01*
X209727400Y-43031950D01*
X209727400Y-44131200D01*
X211076650Y-44131200D01*
X211235400Y-43972450D01*
X211238472Y-43508200D01*
X211226212Y-43383718D01*
X211189902Y-43264020D01*
X211130937Y-43153706D01*
X211051585Y-43057015D01*
X210954894Y-42977663D01*
X210844580Y-42918698D01*
X210724882Y-42882388D01*
X210600400Y-42870128D01*
X209886150Y-42873200D01*
X209727400Y-43031950D01*
X209473400Y-43031950D01*
X209314650Y-42873200D01*
X208600400Y-42870128D01*
X208475918Y-42882388D01*
X208356220Y-42918698D01*
X208245906Y-42977663D01*
X208149215Y-43057015D01*
X208069863Y-43153706D01*
X208010898Y-43264020D01*
X207974588Y-43383718D01*
X207962328Y-43508200D01*
X202462600Y-43508200D01*
X202462600Y-41023000D01*
X203808309Y-41023000D01*
X203830223Y-41245499D01*
X203895124Y-41459447D01*
X204000516Y-41656623D01*
X204142351Y-41829449D01*
X204315177Y-41971284D01*
X204512353Y-42076676D01*
X204726301Y-42141577D01*
X204893048Y-42158000D01*
X205604552Y-42158000D01*
X205771299Y-42141577D01*
X205985247Y-42076676D01*
X206182423Y-41971284D01*
X206355249Y-41829449D01*
X206497084Y-41656623D01*
X206602476Y-41459447D01*
X206667377Y-41245499D01*
X206689291Y-41023000D01*
X206667377Y-40800501D01*
X206602476Y-40586553D01*
X206497084Y-40389377D01*
X206355249Y-40216551D01*
X206182423Y-40074716D01*
X205985247Y-39969324D01*
X205771299Y-39904423D01*
X205604552Y-39888000D01*
X204893048Y-39888000D01*
X204726301Y-39904423D01*
X204512353Y-39969324D01*
X204315177Y-40074716D01*
X204142351Y-40216551D01*
X204000516Y-40389377D01*
X203895124Y-40586553D01*
X203830223Y-40800501D01*
X203808309Y-41023000D01*
X202462600Y-41023000D01*
X202462600Y-31489701D01*
X202684887Y-31267400D01*
X204716487Y-31267400D01*
X204512353Y-31329324D01*
%TA.AperFunction,Conductor*%
D29*
G36*
X204512353Y-31329324D02*
G01*
X204315177Y-31434716D01*
X204142351Y-31576551D01*
X204000516Y-31749377D01*
X203895124Y-31946553D01*
X203830223Y-32160501D01*
X203808309Y-32383000D01*
X203830223Y-32605499D01*
X203895124Y-32819447D01*
X204000516Y-33016623D01*
X204142351Y-33189449D01*
X204315177Y-33331284D01*
X204512353Y-33436676D01*
X204726301Y-33501577D01*
X204893048Y-33518000D01*
X205604552Y-33518000D01*
X205771299Y-33501577D01*
X205985247Y-33436676D01*
X206182423Y-33331284D01*
X206355249Y-33189449D01*
X206497084Y-33016623D01*
X206602476Y-32819447D01*
X206667377Y-32605499D01*
X206689291Y-32383000D01*
X206667377Y-32160501D01*
X206602476Y-31946553D01*
X206497084Y-31749377D01*
X206355249Y-31576551D01*
X206182423Y-31434716D01*
X205985247Y-31329324D01*
X205781113Y-31267400D01*
X208646487Y-31267400D01*
X208442353Y-31329324D01*
X208245177Y-31434716D01*
X208072351Y-31576551D01*
X207930516Y-31749377D01*
X207825124Y-31946553D01*
X207760223Y-32160501D01*
X207738309Y-32383000D01*
X207760223Y-32605499D01*
X207825124Y-32819447D01*
X207930516Y-33016623D01*
X208072351Y-33189449D01*
X208129515Y-33236362D01*
X208048059Y-33358269D01*
X207975692Y-33532978D01*
X207938800Y-33718448D01*
X207938800Y-33907552D01*
X207975692Y-34093022D01*
X208048059Y-34267731D01*
X208112627Y-34364364D01*
X208026339Y-34347200D01*
X207822461Y-34347200D01*
X207622502Y-34386974D01*
X207434144Y-34464995D01*
X207264626Y-34578263D01*
X207120463Y-34722426D01*
X207007195Y-34891944D01*
X206929174Y-35080302D01*
X206889400Y-35280261D01*
X206889400Y-35484139D01*
X206929174Y-35684098D01*
X207007195Y-35872456D01*
X207086938Y-35991800D01*
X207007195Y-36111144D01*
X206929174Y-36299502D01*
X206889400Y-36499461D01*
X206889400Y-36703339D01*
X206929174Y-36903298D01*
X207007195Y-37091656D01*
X207099638Y-37230007D01*
X207032595Y-37330344D01*
X206954574Y-37518702D01*
X206914800Y-37718661D01*
X206914800Y-37922539D01*
X206954574Y-38122498D01*
X207032595Y-38310856D01*
X207145863Y-38480374D01*
X207290026Y-38624537D01*
X207459544Y-38737805D01*
X207647902Y-38815826D01*
X207847861Y-38855600D01*
X208039740Y-38855600D01*
X208062257Y-38883037D01*
X208062260Y-38883040D01*
X208089973Y-38916808D01*
X208123741Y-38944521D01*
X208156688Y-38977468D01*
X208153119Y-38981036D01*
X208048059Y-39138269D01*
X207975692Y-39312978D01*
X207938800Y-39498448D01*
X207938800Y-39687552D01*
X207975692Y-39873022D01*
X208048059Y-40047731D01*
X208129515Y-40169638D01*
X208072351Y-40216551D01*
X207930516Y-40389377D01*
X207825124Y-40586553D01*
X207760223Y-40800501D01*
X207738309Y-41023000D01*
X207760223Y-41245499D01*
X207825124Y-41459447D01*
X207930516Y-41656623D01*
X208072351Y-41829449D01*
X208245177Y-41971284D01*
X208442353Y-42076676D01*
X208656301Y-42141577D01*
X208823048Y-42158000D01*
X210034552Y-42158000D01*
X210201299Y-42141577D01*
X210415247Y-42076676D01*
X210612423Y-41971284D01*
X210785249Y-41829449D01*
X210927084Y-41656623D01*
X211032476Y-41459447D01*
X211097377Y-41245499D01*
X211119291Y-41023000D01*
X211105937Y-40887414D01*
X211193282Y-40878812D01*
X211251340Y-40861200D01*
X211942128Y-40861200D01*
X211954388Y-40985682D01*
X211990698Y-41105380D01*
X212049663Y-41215694D01*
X212129015Y-41312385D01*
X212225706Y-41391737D01*
X212336020Y-41450702D01*
X212455718Y-41487012D01*
X212580200Y-41499272D01*
X212769450Y-41496200D01*
X212928200Y-41337450D01*
X212928200Y-40588200D01*
X212103950Y-40588200D01*
X211945200Y-40746950D01*
X211942128Y-40861200D01*
X211251340Y-40861200D01*
X211312980Y-40842502D01*
X211423294Y-40783537D01*
X211519985Y-40704185D01*
X211599337Y-40607494D01*
X211658302Y-40497180D01*
X211694612Y-40377482D01*
X211706872Y-40253000D01*
X211703800Y-40238750D01*
X211681868Y-40216818D01*
X211734061Y-40227200D01*
X211937939Y-40227200D01*
X211987160Y-40217410D01*
X212103950Y-40334200D01*
X212928200Y-40334200D01*
X212928200Y-40314200D01*
X213182200Y-40314200D01*
X213182200Y-40334200D01*
X213202200Y-40334200D01*
X213202200Y-40588200D01*
X213182200Y-40588200D01*
X213182200Y-41337450D01*
X213212380Y-41367630D01*
X213223384Y-45262800D01*
X211184332Y-45262800D01*
X211189902Y-45252380D01*
X211226212Y-45132682D01*
X211238472Y-45008200D01*
X211235400Y-44543950D01*
X211076650Y-44385200D01*
X209727400Y-44385200D01*
X209727400Y-44405200D01*
X209473400Y-44405200D01*
X209473400Y-44385200D01*
X208124150Y-44385200D01*
X207965400Y-44543950D01*
X207962328Y-45008200D01*
X207974588Y-45132682D01*
X208010898Y-45252380D01*
X208016468Y-45262800D01*
X202685803Y-45262800D01*
X202462600Y-45039611D01*
X202462600Y-43508200D01*
X207962328Y-43508200D01*
X207965400Y-43972450D01*
X208124150Y-44131200D01*
X209473400Y-44131200D01*
X209473400Y-43031950D01*
X209727400Y-43031950D01*
X209727400Y-44131200D01*
X211076650Y-44131200D01*
X211235400Y-43972450D01*
X211238472Y-43508200D01*
X211226212Y-43383718D01*
X211189902Y-43264020D01*
X211130937Y-43153706D01*
X211051585Y-43057015D01*
X210954894Y-42977663D01*
X210844580Y-42918698D01*
X210724882Y-42882388D01*
X210600400Y-42870128D01*
X209886150Y-42873200D01*
X209727400Y-43031950D01*
X209473400Y-43031950D01*
X209314650Y-42873200D01*
X208600400Y-42870128D01*
X208475918Y-42882388D01*
X208356220Y-42918698D01*
X208245906Y-42977663D01*
X208149215Y-43057015D01*
X208069863Y-43153706D01*
X208010898Y-43264020D01*
X207974588Y-43383718D01*
X207962328Y-43508200D01*
X202462600Y-43508200D01*
X202462600Y-41023000D01*
X203808309Y-41023000D01*
X203830223Y-41245499D01*
X203895124Y-41459447D01*
X204000516Y-41656623D01*
X204142351Y-41829449D01*
X204315177Y-41971284D01*
X204512353Y-42076676D01*
X204726301Y-42141577D01*
X204893048Y-42158000D01*
X205604552Y-42158000D01*
X205771299Y-42141577D01*
X205985247Y-42076676D01*
X206182423Y-41971284D01*
X206355249Y-41829449D01*
X206497084Y-41656623D01*
X206602476Y-41459447D01*
X206667377Y-41245499D01*
X206689291Y-41023000D01*
X206667377Y-40800501D01*
X206602476Y-40586553D01*
X206497084Y-40389377D01*
X206355249Y-40216551D01*
X206182423Y-40074716D01*
X205985247Y-39969324D01*
X205771299Y-39904423D01*
X205604552Y-39888000D01*
X204893048Y-39888000D01*
X204726301Y-39904423D01*
X204512353Y-39969324D01*
X204315177Y-40074716D01*
X204142351Y-40216551D01*
X204000516Y-40389377D01*
X203895124Y-40586553D01*
X203830223Y-40800501D01*
X203808309Y-41023000D01*
X202462600Y-41023000D01*
X202462600Y-31489701D01*
X202684887Y-31267400D01*
X204716487Y-31267400D01*
X204512353Y-31329324D01*
G37*
%TD.AperFunction*%
%TD*%
D28*
%TO.N,GND*%
X230653923Y-58204226D02*
X230739044Y-58331618D01*
X230847382Y-58439956D01*
X230974774Y-58525077D01*
X231116324Y-58583709D01*
X231266593Y-58613600D01*
X231419807Y-58613600D01*
X231570076Y-58583709D01*
X231711626Y-58525077D01*
X231839018Y-58439956D01*
X231947356Y-58331618D01*
X232032477Y-58204226D01*
X232079874Y-58089800D01*
X237982474Y-58089800D01*
X238406116Y-58515058D01*
X238402685Y-59416458D01*
X237975117Y-59842400D01*
X230424863Y-59842400D01*
X229917600Y-59413177D01*
X229917600Y-59131200D01*
X229910341Y-59057495D01*
X229888842Y-58986622D01*
X229853929Y-58921306D01*
X229806945Y-58864055D01*
X229749694Y-58817071D01*
X229684378Y-58782158D01*
X229613505Y-58760659D01*
X229539800Y-58753400D01*
X229184200Y-58753400D01*
X229110495Y-58760659D01*
X229108000Y-58761416D01*
X229105505Y-58760659D01*
X229031800Y-58753400D01*
X228701600Y-58753400D01*
X228627895Y-58760659D01*
X228587452Y-58772927D01*
X228528956Y-58767166D01*
X228524245Y-58762455D01*
X228466994Y-58715471D01*
X228422200Y-58691528D01*
X228422200Y-58515406D01*
X228812578Y-58125028D01*
X229014800Y-58125028D01*
X229088862Y-58117734D01*
X229139800Y-58102282D01*
X229190738Y-58117734D01*
X229264800Y-58125028D01*
X229514800Y-58125028D01*
X229588862Y-58117734D01*
X229639800Y-58102282D01*
X229690738Y-58117734D01*
X229764800Y-58125028D01*
X230014800Y-58125028D01*
X230088862Y-58117734D01*
X230160077Y-58096131D01*
X230171921Y-58089800D01*
X230606526Y-58089800D01*
X230653923Y-58204226D01*
%TA.AperFunction,Conductor*%
D29*
G36*
X230653923Y-58204226D02*
G01*
X230739044Y-58331618D01*
X230847382Y-58439956D01*
X230974774Y-58525077D01*
X231116324Y-58583709D01*
X231266593Y-58613600D01*
X231419807Y-58613600D01*
X231570076Y-58583709D01*
X231711626Y-58525077D01*
X231839018Y-58439956D01*
X231947356Y-58331618D01*
X232032477Y-58204226D01*
X232079874Y-58089800D01*
X237982474Y-58089800D01*
X238406116Y-58515058D01*
X238402685Y-59416458D01*
X237975117Y-59842400D01*
X230424863Y-59842400D01*
X229917600Y-59413177D01*
X229917600Y-59131200D01*
X229910341Y-59057495D01*
X229888842Y-58986622D01*
X229853929Y-58921306D01*
X229806945Y-58864055D01*
X229749694Y-58817071D01*
X229684378Y-58782158D01*
X229613505Y-58760659D01*
X229539800Y-58753400D01*
X229184200Y-58753400D01*
X229110495Y-58760659D01*
X229108000Y-58761416D01*
X229105505Y-58760659D01*
X229031800Y-58753400D01*
X228701600Y-58753400D01*
X228627895Y-58760659D01*
X228587452Y-58772927D01*
X228528956Y-58767166D01*
X228524245Y-58762455D01*
X228466994Y-58715471D01*
X228422200Y-58691528D01*
X228422200Y-58515406D01*
X228812578Y-58125028D01*
X229014800Y-58125028D01*
X229088862Y-58117734D01*
X229139800Y-58102282D01*
X229190738Y-58117734D01*
X229264800Y-58125028D01*
X229514800Y-58125028D01*
X229588862Y-58117734D01*
X229639800Y-58102282D01*
X229690738Y-58117734D01*
X229764800Y-58125028D01*
X230014800Y-58125028D01*
X230088862Y-58117734D01*
X230160077Y-58096131D01*
X230171921Y-58089800D01*
X230606526Y-58089800D01*
X230653923Y-58204226D01*
G37*
%TD.AperFunction*%
%TD*%
M02*
