%TF.GenerationSoftware,KiCad,Pcbnew,(5.1.10)-1*%
%TF.CreationDate,2021-10-28T16:28:33-07:00*%
%TF.ProjectId,AtlasPD,41746c61-7350-4442-9e6b-696361645f70,1.0*%
%TF.SameCoordinates,Original*%
%TF.FileFunction,Copper,L3,Inr*%
%TF.FilePolarity,Positive*%
%FSLAX46Y46*%
G04 Gerber Fmt 4.6, Leading zero omitted, Abs format (unit mm)*
G04 Created by KiCad (PCBNEW (5.1.10)-1) date 2021-10-28 16:28:33*
%MOMM*%
%LPD*%
G01*
G04 APERTURE LIST*
%TA.AperFunction,ComponentPad*%
%ADD10O,1.750000X1.200000*%
%TD*%
%TA.AperFunction,ComponentPad*%
%ADD11O,1.200000X1.750000*%
%TD*%
%TA.AperFunction,ComponentPad*%
%ADD12O,2.100000X1.000000*%
%TD*%
%TA.AperFunction,ComponentPad*%
%ADD13O,1.600000X1.000000*%
%TD*%
%TA.AperFunction,ViaPad*%
%ADD14C,0.800000*%
%TD*%
%TA.AperFunction,Conductor*%
%ADD15C,0.897604*%
%TD*%
%TA.AperFunction,Conductor*%
%ADD16C,0.254000*%
%TD*%
%TA.AperFunction,Conductor*%
%ADD17C,0.100000*%
%TD*%
G04 APERTURE END LIST*
D10*
%TO.N,GND*%
%TO.C,J202*%
X208407000Y-59467000D03*
%TO.N,+BATT*%
X208407000Y-57467000D03*
%TO.N,GND*%
X208407000Y-55467000D03*
%TO.N,+5V*%
%TA.AperFunction,ComponentPad*%
G36*
G01*
X207781999Y-52867000D02*
X209032001Y-52867000D01*
G75*
G02*
X209282000Y-53116999I0J-249999D01*
G01*
X209282000Y-53817001D01*
G75*
G02*
X209032001Y-54067000I-249999J0D01*
G01*
X207781999Y-54067000D01*
G75*
G02*
X207532000Y-53817001I0J249999D01*
G01*
X207532000Y-53116999D01*
G75*
G02*
X207781999Y-52867000I249999J0D01*
G01*
G37*
%TD.AperFunction*%
%TD*%
D11*
%TO.N,/Motor Driver/S4*%
%TO.C,J302*%
X221870000Y-64389000D03*
%TO.N,/Motor Driver/S3*%
X223870000Y-64389000D03*
%TO.N,GND*%
X225870000Y-64389000D03*
%TO.N,+5V*%
X227870000Y-64389000D03*
%TO.N,/Motor Driver/+M2*%
X229870000Y-64389000D03*
%TO.N,/Motor Driver/-M2*%
%TA.AperFunction,ComponentPad*%
G36*
G01*
X232470000Y-63763999D02*
X232470000Y-65014001D01*
G75*
G02*
X232220001Y-65264000I-249999J0D01*
G01*
X231519999Y-65264000D01*
G75*
G02*
X231270000Y-65014001I0J249999D01*
G01*
X231270000Y-63763999D01*
G75*
G02*
X231519999Y-63514000I249999J0D01*
G01*
X232220001Y-63514000D01*
G75*
G02*
X232470000Y-63763999I0J-249999D01*
G01*
G37*
%TD.AperFunction*%
%TD*%
%TO.N,/Motor Driver/S2*%
%TO.C,J301*%
X236887000Y-64389000D03*
%TO.N,/Motor Driver/S1*%
X238887000Y-64389000D03*
%TO.N,GND*%
X240887000Y-64389000D03*
%TO.N,+5V*%
X242887000Y-64389000D03*
%TO.N,/Motor Driver/+M1*%
X244887000Y-64389000D03*
%TO.N,/Motor Driver/-M1*%
%TA.AperFunction,ComponentPad*%
G36*
G01*
X247487000Y-63763999D02*
X247487000Y-65014001D01*
G75*
G02*
X247237001Y-65264000I-249999J0D01*
G01*
X246536999Y-65264000D01*
G75*
G02*
X246287000Y-65014001I0J249999D01*
G01*
X246287000Y-63763999D01*
G75*
G02*
X246536999Y-63514000I249999J0D01*
G01*
X247237001Y-63514000D01*
G75*
G02*
X247487000Y-63763999I0J-249999D01*
G01*
G37*
%TD.AperFunction*%
%TD*%
D12*
%TO.N,Net-(J201-PadS1)*%
%TO.C,J201*%
X209428800Y-41023000D03*
X209428800Y-32383000D03*
D13*
X205248800Y-32383000D03*
X205248800Y-41023000D03*
%TD*%
D14*
%TO.N,GND*%
X248856500Y-30632400D03*
X248869200Y-35534600D03*
X218160600Y-36703000D03*
X219049600Y-37592000D03*
X217271600Y-37592000D03*
X219049600Y-35814000D03*
X217271600Y-35814000D03*
X213080600Y-31064200D03*
X223621600Y-34366200D03*
X223647000Y-35382200D03*
X223647000Y-36372800D03*
X226796600Y-45745400D03*
X211582000Y-41656000D03*
X231089200Y-59156600D03*
X232613200Y-59156600D03*
X234137200Y-59156600D03*
X247091200Y-59982100D03*
X248615200Y-59982100D03*
X249897900Y-60007500D03*
X205181200Y-35331400D03*
X205181200Y-36601400D03*
X205206600Y-37846000D03*
X255066800Y-39903400D03*
X245287800Y-46355000D03*
X248361200Y-43307000D03*
X253263400Y-59309000D03*
X212191600Y-44196000D03*
X203073000Y-44196000D03*
X204647800Y-44196000D03*
X206324200Y-44196000D03*
X239763300Y-53047900D03*
X237121700Y-59156600D03*
X235597700Y-59156600D03*
X249034300Y-58496200D03*
X249034300Y-56781700D03*
%TO.N,+5V*%
X207924400Y-35382200D03*
X207949800Y-37820600D03*
X207924400Y-36601400D03*
X211799347Y-34304147D03*
X221335600Y-39591198D03*
X231927400Y-40995600D03*
X231952800Y-42519600D03*
X231851200Y-36195000D03*
X231876600Y-37820600D03*
X231902000Y-39395400D03*
X211836000Y-39192200D03*
X231927400Y-43942000D03*
X233324400Y-39395400D03*
X233375200Y-42519600D03*
X233299000Y-37820600D03*
X233273600Y-36195000D03*
X233349800Y-40995600D03*
X233349800Y-43942000D03*
%TO.N,VCC*%
X229870000Y-46558200D03*
X231825800Y-46558200D03*
X233807000Y-46558200D03*
X234797600Y-47548800D03*
X232791000Y-47548800D03*
X230860600Y-47548800D03*
X228904800Y-47548800D03*
X227914200Y-48539400D03*
X229870000Y-48539400D03*
X231825800Y-48539400D03*
X233807000Y-48539400D03*
X234797600Y-49530000D03*
X232791000Y-49530000D03*
X230860600Y-49530000D03*
X228904800Y-49530000D03*
X227914200Y-46558200D03*
X236016800Y-48539400D03*
X236016800Y-46558200D03*
X240665000Y-52501800D03*
X220726000Y-54305769D03*
X253847600Y-43129200D03*
X250647200Y-39979600D03*
X226974400Y-56819800D03*
X241795300Y-57048409D03*
%TO.N,/Motor Driver/OUT4*%
X217754200Y-50088800D03*
X231343200Y-57835800D03*
%TO.N,/Motor Driver/OUT3*%
X219583000Y-44500800D03*
X230962200Y-56718200D03*
%TO.N,/Motor Driver/OUT2*%
X226796600Y-47218600D03*
X247077231Y-58441594D03*
%TO.N,/Motor Driver/OUT1*%
X226999800Y-51333400D03*
X247091210Y-57162700D03*
%TO.N,/Motor Driver/EN*%
X239471196Y-42037000D03*
X240182400Y-56286398D03*
X249542300Y-46316900D03*
%TO.N,+BATT*%
X226923600Y-58826400D03*
X225323400Y-58851800D03*
X223647000Y-58851800D03*
X241312700Y-59372500D03*
X239636300Y-59372500D03*
X242912900Y-59347100D03*
X225323400Y-60223400D03*
X223647000Y-60223400D03*
X226923600Y-60223400D03*
X241312700Y-60693300D03*
X239636300Y-60693300D03*
X242912900Y-60667900D03*
%TO.N,/Sheet60A2E58A/RESET*%
X245770400Y-43180000D03*
X250164600Y-38836600D03*
%TD*%
D15*
%TO.N,+5V*%
X227870000Y-64389000D02*
X227870000Y-64347914D01*
X227870000Y-64077600D02*
X229082412Y-62865188D01*
X227870000Y-64347914D02*
X227870000Y-64077600D01*
X242887000Y-63944000D02*
X242887000Y-64389000D01*
X241579400Y-62636400D02*
X242887000Y-63944000D01*
X225450400Y-62636400D02*
X241579400Y-62636400D01*
X204965300Y-61214000D02*
X204965300Y-55740300D01*
X204965300Y-55740300D02*
X207238600Y-53467000D01*
X206387700Y-62636400D02*
X204965300Y-61214000D01*
X226364800Y-62636400D02*
X206387700Y-62636400D01*
X227870000Y-64141600D02*
X226364800Y-62636400D01*
X207238600Y-53467000D02*
X208407000Y-53467000D01*
X227870000Y-64347914D02*
X227870000Y-64141600D01*
%TD*%
D16*
%TO.N,VCC*%
X255845169Y-28104263D02*
X255561002Y-28294137D01*
X255319337Y-28535802D01*
X255129463Y-28819969D01*
X254998675Y-29135719D01*
X254932000Y-29470917D01*
X254932000Y-29812683D01*
X254998675Y-30147881D01*
X255129463Y-30463631D01*
X255319337Y-30747798D01*
X255561002Y-30989463D01*
X255845169Y-31179337D01*
X256160919Y-31310125D01*
X256496117Y-31376800D01*
X256837883Y-31376800D01*
X257173081Y-31310125D01*
X257488831Y-31179337D01*
X257772998Y-30989463D01*
X258014663Y-30747798D01*
X258204537Y-30463631D01*
X258217200Y-30433060D01*
X258217201Y-54552669D01*
X257793627Y-54975799D01*
X237178940Y-54990603D01*
X236753400Y-54565368D01*
X236753400Y-52945961D01*
X238728300Y-52945961D01*
X238728300Y-53149839D01*
X238768074Y-53349798D01*
X238846095Y-53538156D01*
X238959363Y-53707674D01*
X239103526Y-53851837D01*
X239273044Y-53965105D01*
X239461402Y-54043126D01*
X239661361Y-54082900D01*
X239865239Y-54082900D01*
X240065198Y-54043126D01*
X240253556Y-53965105D01*
X240423074Y-53851837D01*
X240567237Y-53707674D01*
X240680505Y-53538156D01*
X240758526Y-53349798D01*
X240798300Y-53149839D01*
X240798300Y-52945961D01*
X240758526Y-52746002D01*
X240680505Y-52557644D01*
X240567237Y-52388126D01*
X240423074Y-52243963D01*
X240253556Y-52130695D01*
X240065198Y-52052674D01*
X239865239Y-52012900D01*
X239661361Y-52012900D01*
X239461402Y-52052674D01*
X239273044Y-52130695D01*
X239103526Y-52243963D01*
X238959363Y-52388126D01*
X238846095Y-52557644D01*
X238768074Y-52746002D01*
X238728300Y-52945961D01*
X236753400Y-52945961D01*
X236753400Y-50741200D01*
X236750960Y-50716424D01*
X236743733Y-50692599D01*
X236731997Y-50670643D01*
X236716203Y-50651397D01*
X236216203Y-50151397D01*
X236196957Y-50135603D01*
X236175001Y-50123867D01*
X236151176Y-50116640D01*
X236126400Y-50114200D01*
X227958806Y-50114200D01*
X227533200Y-49688594D01*
X227533200Y-47945711D01*
X227600537Y-47878374D01*
X227713805Y-47708856D01*
X227791826Y-47520498D01*
X227831600Y-47320539D01*
X227831600Y-47116661D01*
X227791826Y-46916702D01*
X227713805Y-46728344D01*
X227611529Y-46575277D01*
X227933745Y-46253061D01*
X244252800Y-46253061D01*
X244252800Y-46456939D01*
X244292574Y-46656898D01*
X244370595Y-46845256D01*
X244483863Y-47014774D01*
X244628026Y-47158937D01*
X244797544Y-47272205D01*
X244985902Y-47350226D01*
X245185861Y-47390000D01*
X245389739Y-47390000D01*
X245589698Y-47350226D01*
X245778056Y-47272205D01*
X245947574Y-47158937D01*
X246091737Y-47014774D01*
X246205005Y-46845256D01*
X246283026Y-46656898D01*
X246322800Y-46456939D01*
X246322800Y-46253061D01*
X246315222Y-46214961D01*
X248507300Y-46214961D01*
X248507300Y-46418839D01*
X248547074Y-46618798D01*
X248625095Y-46807156D01*
X248738363Y-46976674D01*
X248882526Y-47120837D01*
X249052044Y-47234105D01*
X249240402Y-47312126D01*
X249440361Y-47351900D01*
X249644239Y-47351900D01*
X249844198Y-47312126D01*
X250032556Y-47234105D01*
X250202074Y-47120837D01*
X250346237Y-46976674D01*
X250459505Y-46807156D01*
X250537526Y-46618798D01*
X250577300Y-46418839D01*
X250577300Y-46214961D01*
X250537526Y-46015002D01*
X250459505Y-45826644D01*
X250346237Y-45657126D01*
X250202074Y-45512963D01*
X250032556Y-45399695D01*
X249844198Y-45321674D01*
X249644239Y-45281900D01*
X249440361Y-45281900D01*
X249240402Y-45321674D01*
X249052044Y-45399695D01*
X248882526Y-45512963D01*
X248738363Y-45657126D01*
X248625095Y-45826644D01*
X248547074Y-46015002D01*
X248507300Y-46214961D01*
X246315222Y-46214961D01*
X246283026Y-46053102D01*
X246205005Y-45864744D01*
X246091737Y-45695226D01*
X245947574Y-45551063D01*
X245778056Y-45437795D01*
X245589698Y-45359774D01*
X245389739Y-45320000D01*
X245185861Y-45320000D01*
X244985902Y-45359774D01*
X244797544Y-45437795D01*
X244628026Y-45551063D01*
X244483863Y-45695226D01*
X244370595Y-45864744D01*
X244292574Y-46053102D01*
X244252800Y-46253061D01*
X227933745Y-46253061D01*
X227958806Y-46228000D01*
X236126400Y-46228000D01*
X236151176Y-46225560D01*
X236175001Y-46218333D01*
X236196957Y-46206597D01*
X236216218Y-46190787D01*
X236716046Y-45690787D01*
X236731837Y-45671539D01*
X236743569Y-45649581D01*
X236750792Y-45625755D01*
X236753228Y-45600956D01*
X236752359Y-43078061D01*
X244735400Y-43078061D01*
X244735400Y-43281939D01*
X244775174Y-43481898D01*
X244853195Y-43670256D01*
X244966463Y-43839774D01*
X245110626Y-43983937D01*
X245280144Y-44097205D01*
X245468502Y-44175226D01*
X245668461Y-44215000D01*
X245872339Y-44215000D01*
X246072298Y-44175226D01*
X246260656Y-44097205D01*
X246430174Y-43983937D01*
X246574337Y-43839774D01*
X246687605Y-43670256D01*
X246765626Y-43481898D01*
X246805400Y-43281939D01*
X246805400Y-43205061D01*
X247326200Y-43205061D01*
X247326200Y-43408939D01*
X247365974Y-43608898D01*
X247443995Y-43797256D01*
X247557263Y-43966774D01*
X247701426Y-44110937D01*
X247870944Y-44224205D01*
X248059302Y-44302226D01*
X248259261Y-44342000D01*
X248463139Y-44342000D01*
X248663098Y-44302226D01*
X248851456Y-44224205D01*
X249020974Y-44110937D01*
X249165137Y-43966774D01*
X249278405Y-43797256D01*
X249356426Y-43608898D01*
X249396200Y-43408939D01*
X249396200Y-43205061D01*
X249356426Y-43005102D01*
X249278405Y-42816744D01*
X249165137Y-42647226D01*
X249020974Y-42503063D01*
X248851456Y-42389795D01*
X248663098Y-42311774D01*
X248463139Y-42272000D01*
X248259261Y-42272000D01*
X248059302Y-42311774D01*
X247870944Y-42389795D01*
X247701426Y-42503063D01*
X247557263Y-42647226D01*
X247443995Y-42816744D01*
X247365974Y-43005102D01*
X247326200Y-43205061D01*
X246805400Y-43205061D01*
X246805400Y-43078061D01*
X246765626Y-42878102D01*
X246687605Y-42689744D01*
X246574337Y-42520226D01*
X246430174Y-42376063D01*
X246260656Y-42262795D01*
X246072298Y-42184774D01*
X245872339Y-42145000D01*
X245668461Y-42145000D01*
X245468502Y-42184774D01*
X245280144Y-42262795D01*
X245110626Y-42376063D01*
X244966463Y-42520226D01*
X244853195Y-42689744D01*
X244775174Y-42878102D01*
X244735400Y-43078061D01*
X236752359Y-43078061D01*
X236751965Y-41935061D01*
X238436196Y-41935061D01*
X238436196Y-42138939D01*
X238475970Y-42338898D01*
X238553991Y-42527256D01*
X238667259Y-42696774D01*
X238811422Y-42840937D01*
X238980940Y-42954205D01*
X239169298Y-43032226D01*
X239369257Y-43072000D01*
X239573135Y-43072000D01*
X239773094Y-43032226D01*
X239961452Y-42954205D01*
X240130970Y-42840937D01*
X240275133Y-42696774D01*
X240388401Y-42527256D01*
X240466422Y-42338898D01*
X240506196Y-42138939D01*
X240506196Y-41935061D01*
X240466422Y-41735102D01*
X240388401Y-41546744D01*
X240275133Y-41377226D01*
X240130970Y-41233063D01*
X239961452Y-41119795D01*
X239773094Y-41041774D01*
X239573135Y-41002000D01*
X239369257Y-41002000D01*
X239169298Y-41041774D01*
X238980940Y-41119795D01*
X238811422Y-41233063D01*
X238667259Y-41377226D01*
X238553991Y-41546744D01*
X238475970Y-41735102D01*
X238436196Y-41935061D01*
X236751965Y-41935061D01*
X236750863Y-38734661D01*
X249129600Y-38734661D01*
X249129600Y-38938539D01*
X249169374Y-39138498D01*
X249247395Y-39326856D01*
X249360663Y-39496374D01*
X249504826Y-39640537D01*
X249674344Y-39753805D01*
X249862702Y-39831826D01*
X250062661Y-39871600D01*
X250266539Y-39871600D01*
X250466498Y-39831826D01*
X250539805Y-39801461D01*
X254031800Y-39801461D01*
X254031800Y-40005339D01*
X254071574Y-40205298D01*
X254149595Y-40393656D01*
X254262863Y-40563174D01*
X254407026Y-40707337D01*
X254576544Y-40820605D01*
X254764902Y-40898626D01*
X254964861Y-40938400D01*
X255168739Y-40938400D01*
X255368698Y-40898626D01*
X255557056Y-40820605D01*
X255726574Y-40707337D01*
X255870737Y-40563174D01*
X255984005Y-40393656D01*
X256062026Y-40205298D01*
X256101800Y-40005339D01*
X256101800Y-39801461D01*
X256062026Y-39601502D01*
X255984005Y-39413144D01*
X255870737Y-39243626D01*
X255726574Y-39099463D01*
X255557056Y-38986195D01*
X255368698Y-38908174D01*
X255168739Y-38868400D01*
X254964861Y-38868400D01*
X254764902Y-38908174D01*
X254576544Y-38986195D01*
X254407026Y-39099463D01*
X254262863Y-39243626D01*
X254149595Y-39413144D01*
X254071574Y-39601502D01*
X254031800Y-39801461D01*
X250539805Y-39801461D01*
X250654856Y-39753805D01*
X250824374Y-39640537D01*
X250968537Y-39496374D01*
X251081805Y-39326856D01*
X251159826Y-39138498D01*
X251199600Y-38938539D01*
X251199600Y-38734661D01*
X251159826Y-38534702D01*
X251081805Y-38346344D01*
X250968537Y-38176826D01*
X250824374Y-38032663D01*
X250654856Y-37919395D01*
X250466498Y-37841374D01*
X250266539Y-37801600D01*
X250062661Y-37801600D01*
X249862702Y-37841374D01*
X249674344Y-37919395D01*
X249504826Y-38032663D01*
X249360663Y-38176826D01*
X249247395Y-38346344D01*
X249169374Y-38534702D01*
X249129600Y-38734661D01*
X236750863Y-38734661D01*
X236749725Y-35432661D01*
X247834200Y-35432661D01*
X247834200Y-35636539D01*
X247873974Y-35836498D01*
X247951995Y-36024856D01*
X248065263Y-36194374D01*
X248209426Y-36338537D01*
X248378944Y-36451805D01*
X248567302Y-36529826D01*
X248767261Y-36569600D01*
X248971139Y-36569600D01*
X249171098Y-36529826D01*
X249359456Y-36451805D01*
X249528974Y-36338537D01*
X249673137Y-36194374D01*
X249786405Y-36024856D01*
X249864426Y-35836498D01*
X249904200Y-35636539D01*
X249904200Y-35432661D01*
X249864426Y-35232702D01*
X249786405Y-35044344D01*
X249673137Y-34874826D01*
X249528974Y-34730663D01*
X249359456Y-34617395D01*
X249171098Y-34539374D01*
X248971139Y-34499600D01*
X248767261Y-34499600D01*
X248567302Y-34539374D01*
X248378944Y-34617395D01*
X248209426Y-34730663D01*
X248065263Y-34874826D01*
X247951995Y-35044344D01*
X247873974Y-35232702D01*
X247834200Y-35432661D01*
X236749725Y-35432661D01*
X236748036Y-30530461D01*
X247821500Y-30530461D01*
X247821500Y-30734339D01*
X247861274Y-30934298D01*
X247939295Y-31122656D01*
X248052563Y-31292174D01*
X248196726Y-31436337D01*
X248366244Y-31549605D01*
X248554602Y-31627626D01*
X248754561Y-31667400D01*
X248958439Y-31667400D01*
X249158398Y-31627626D01*
X249346756Y-31549605D01*
X249516274Y-31436337D01*
X249660437Y-31292174D01*
X249773705Y-31122656D01*
X249851726Y-30934298D01*
X249891500Y-30734339D01*
X249891500Y-30530461D01*
X249851726Y-30330502D01*
X249773705Y-30142144D01*
X249660437Y-29972626D01*
X249516274Y-29828463D01*
X249346756Y-29715195D01*
X249158398Y-29637174D01*
X248958439Y-29597400D01*
X248754561Y-29597400D01*
X248554602Y-29637174D01*
X248366244Y-29715195D01*
X248196726Y-29828463D01*
X248052563Y-29972626D01*
X247939295Y-30142144D01*
X247861274Y-30330502D01*
X247821500Y-30530461D01*
X236748036Y-30530461D01*
X236747344Y-28524292D01*
X237172850Y-28098267D01*
X244792768Y-28091600D01*
X255875740Y-28091600D01*
X255845169Y-28104263D01*
%TA.AperFunction,Conductor*%
D17*
G36*
X255845169Y-28104263D02*
G01*
X255561002Y-28294137D01*
X255319337Y-28535802D01*
X255129463Y-28819969D01*
X254998675Y-29135719D01*
X254932000Y-29470917D01*
X254932000Y-29812683D01*
X254998675Y-30147881D01*
X255129463Y-30463631D01*
X255319337Y-30747798D01*
X255561002Y-30989463D01*
X255845169Y-31179337D01*
X256160919Y-31310125D01*
X256496117Y-31376800D01*
X256837883Y-31376800D01*
X257173081Y-31310125D01*
X257488831Y-31179337D01*
X257772998Y-30989463D01*
X258014663Y-30747798D01*
X258204537Y-30463631D01*
X258217200Y-30433060D01*
X258217201Y-54552669D01*
X257793627Y-54975799D01*
X237178940Y-54990603D01*
X236753400Y-54565368D01*
X236753400Y-52945961D01*
X238728300Y-52945961D01*
X238728300Y-53149839D01*
X238768074Y-53349798D01*
X238846095Y-53538156D01*
X238959363Y-53707674D01*
X239103526Y-53851837D01*
X239273044Y-53965105D01*
X239461402Y-54043126D01*
X239661361Y-54082900D01*
X239865239Y-54082900D01*
X240065198Y-54043126D01*
X240253556Y-53965105D01*
X240423074Y-53851837D01*
X240567237Y-53707674D01*
X240680505Y-53538156D01*
X240758526Y-53349798D01*
X240798300Y-53149839D01*
X240798300Y-52945961D01*
X240758526Y-52746002D01*
X240680505Y-52557644D01*
X240567237Y-52388126D01*
X240423074Y-52243963D01*
X240253556Y-52130695D01*
X240065198Y-52052674D01*
X239865239Y-52012900D01*
X239661361Y-52012900D01*
X239461402Y-52052674D01*
X239273044Y-52130695D01*
X239103526Y-52243963D01*
X238959363Y-52388126D01*
X238846095Y-52557644D01*
X238768074Y-52746002D01*
X238728300Y-52945961D01*
X236753400Y-52945961D01*
X236753400Y-50741200D01*
X236750960Y-50716424D01*
X236743733Y-50692599D01*
X236731997Y-50670643D01*
X236716203Y-50651397D01*
X236216203Y-50151397D01*
X236196957Y-50135603D01*
X236175001Y-50123867D01*
X236151176Y-50116640D01*
X236126400Y-50114200D01*
X227958806Y-50114200D01*
X227533200Y-49688594D01*
X227533200Y-47945711D01*
X227600537Y-47878374D01*
X227713805Y-47708856D01*
X227791826Y-47520498D01*
X227831600Y-47320539D01*
X227831600Y-47116661D01*
X227791826Y-46916702D01*
X227713805Y-46728344D01*
X227611529Y-46575277D01*
X227933745Y-46253061D01*
X244252800Y-46253061D01*
X244252800Y-46456939D01*
X244292574Y-46656898D01*
X244370595Y-46845256D01*
X244483863Y-47014774D01*
X244628026Y-47158937D01*
X244797544Y-47272205D01*
X244985902Y-47350226D01*
X245185861Y-47390000D01*
X245389739Y-47390000D01*
X245589698Y-47350226D01*
X245778056Y-47272205D01*
X245947574Y-47158937D01*
X246091737Y-47014774D01*
X246205005Y-46845256D01*
X246283026Y-46656898D01*
X246322800Y-46456939D01*
X246322800Y-46253061D01*
X246315222Y-46214961D01*
X248507300Y-46214961D01*
X248507300Y-46418839D01*
X248547074Y-46618798D01*
X248625095Y-46807156D01*
X248738363Y-46976674D01*
X248882526Y-47120837D01*
X249052044Y-47234105D01*
X249240402Y-47312126D01*
X249440361Y-47351900D01*
X249644239Y-47351900D01*
X249844198Y-47312126D01*
X250032556Y-47234105D01*
X250202074Y-47120837D01*
X250346237Y-46976674D01*
X250459505Y-46807156D01*
X250537526Y-46618798D01*
X250577300Y-46418839D01*
X250577300Y-46214961D01*
X250537526Y-46015002D01*
X250459505Y-45826644D01*
X250346237Y-45657126D01*
X250202074Y-45512963D01*
X250032556Y-45399695D01*
X249844198Y-45321674D01*
X249644239Y-45281900D01*
X249440361Y-45281900D01*
X249240402Y-45321674D01*
X249052044Y-45399695D01*
X248882526Y-45512963D01*
X248738363Y-45657126D01*
X248625095Y-45826644D01*
X248547074Y-46015002D01*
X248507300Y-46214961D01*
X246315222Y-46214961D01*
X246283026Y-46053102D01*
X246205005Y-45864744D01*
X246091737Y-45695226D01*
X245947574Y-45551063D01*
X245778056Y-45437795D01*
X245589698Y-45359774D01*
X245389739Y-45320000D01*
X245185861Y-45320000D01*
X244985902Y-45359774D01*
X244797544Y-45437795D01*
X244628026Y-45551063D01*
X244483863Y-45695226D01*
X244370595Y-45864744D01*
X244292574Y-46053102D01*
X244252800Y-46253061D01*
X227933745Y-46253061D01*
X227958806Y-46228000D01*
X236126400Y-46228000D01*
X236151176Y-46225560D01*
X236175001Y-46218333D01*
X236196957Y-46206597D01*
X236216218Y-46190787D01*
X236716046Y-45690787D01*
X236731837Y-45671539D01*
X236743569Y-45649581D01*
X236750792Y-45625755D01*
X236753228Y-45600956D01*
X236752359Y-43078061D01*
X244735400Y-43078061D01*
X244735400Y-43281939D01*
X244775174Y-43481898D01*
X244853195Y-43670256D01*
X244966463Y-43839774D01*
X245110626Y-43983937D01*
X245280144Y-44097205D01*
X245468502Y-44175226D01*
X245668461Y-44215000D01*
X245872339Y-44215000D01*
X246072298Y-44175226D01*
X246260656Y-44097205D01*
X246430174Y-43983937D01*
X246574337Y-43839774D01*
X246687605Y-43670256D01*
X246765626Y-43481898D01*
X246805400Y-43281939D01*
X246805400Y-43205061D01*
X247326200Y-43205061D01*
X247326200Y-43408939D01*
X247365974Y-43608898D01*
X247443995Y-43797256D01*
X247557263Y-43966774D01*
X247701426Y-44110937D01*
X247870944Y-44224205D01*
X248059302Y-44302226D01*
X248259261Y-44342000D01*
X248463139Y-44342000D01*
X248663098Y-44302226D01*
X248851456Y-44224205D01*
X249020974Y-44110937D01*
X249165137Y-43966774D01*
X249278405Y-43797256D01*
X249356426Y-43608898D01*
X249396200Y-43408939D01*
X249396200Y-43205061D01*
X249356426Y-43005102D01*
X249278405Y-42816744D01*
X249165137Y-42647226D01*
X249020974Y-42503063D01*
X248851456Y-42389795D01*
X248663098Y-42311774D01*
X248463139Y-42272000D01*
X248259261Y-42272000D01*
X248059302Y-42311774D01*
X247870944Y-42389795D01*
X247701426Y-42503063D01*
X247557263Y-42647226D01*
X247443995Y-42816744D01*
X247365974Y-43005102D01*
X247326200Y-43205061D01*
X246805400Y-43205061D01*
X246805400Y-43078061D01*
X246765626Y-42878102D01*
X246687605Y-42689744D01*
X246574337Y-42520226D01*
X246430174Y-42376063D01*
X246260656Y-42262795D01*
X246072298Y-42184774D01*
X245872339Y-42145000D01*
X245668461Y-42145000D01*
X245468502Y-42184774D01*
X245280144Y-42262795D01*
X245110626Y-42376063D01*
X244966463Y-42520226D01*
X244853195Y-42689744D01*
X244775174Y-42878102D01*
X244735400Y-43078061D01*
X236752359Y-43078061D01*
X236751965Y-41935061D01*
X238436196Y-41935061D01*
X238436196Y-42138939D01*
X238475970Y-42338898D01*
X238553991Y-42527256D01*
X238667259Y-42696774D01*
X238811422Y-42840937D01*
X238980940Y-42954205D01*
X239169298Y-43032226D01*
X239369257Y-43072000D01*
X239573135Y-43072000D01*
X239773094Y-43032226D01*
X239961452Y-42954205D01*
X240130970Y-42840937D01*
X240275133Y-42696774D01*
X240388401Y-42527256D01*
X240466422Y-42338898D01*
X240506196Y-42138939D01*
X240506196Y-41935061D01*
X240466422Y-41735102D01*
X240388401Y-41546744D01*
X240275133Y-41377226D01*
X240130970Y-41233063D01*
X239961452Y-41119795D01*
X239773094Y-41041774D01*
X239573135Y-41002000D01*
X239369257Y-41002000D01*
X239169298Y-41041774D01*
X238980940Y-41119795D01*
X238811422Y-41233063D01*
X238667259Y-41377226D01*
X238553991Y-41546744D01*
X238475970Y-41735102D01*
X238436196Y-41935061D01*
X236751965Y-41935061D01*
X236750863Y-38734661D01*
X249129600Y-38734661D01*
X249129600Y-38938539D01*
X249169374Y-39138498D01*
X249247395Y-39326856D01*
X249360663Y-39496374D01*
X249504826Y-39640537D01*
X249674344Y-39753805D01*
X249862702Y-39831826D01*
X250062661Y-39871600D01*
X250266539Y-39871600D01*
X250466498Y-39831826D01*
X250539805Y-39801461D01*
X254031800Y-39801461D01*
X254031800Y-40005339D01*
X254071574Y-40205298D01*
X254149595Y-40393656D01*
X254262863Y-40563174D01*
X254407026Y-40707337D01*
X254576544Y-40820605D01*
X254764902Y-40898626D01*
X254964861Y-40938400D01*
X255168739Y-40938400D01*
X255368698Y-40898626D01*
X255557056Y-40820605D01*
X255726574Y-40707337D01*
X255870737Y-40563174D01*
X255984005Y-40393656D01*
X256062026Y-40205298D01*
X256101800Y-40005339D01*
X256101800Y-39801461D01*
X256062026Y-39601502D01*
X255984005Y-39413144D01*
X255870737Y-39243626D01*
X255726574Y-39099463D01*
X255557056Y-38986195D01*
X255368698Y-38908174D01*
X255168739Y-38868400D01*
X254964861Y-38868400D01*
X254764902Y-38908174D01*
X254576544Y-38986195D01*
X254407026Y-39099463D01*
X254262863Y-39243626D01*
X254149595Y-39413144D01*
X254071574Y-39601502D01*
X254031800Y-39801461D01*
X250539805Y-39801461D01*
X250654856Y-39753805D01*
X250824374Y-39640537D01*
X250968537Y-39496374D01*
X251081805Y-39326856D01*
X251159826Y-39138498D01*
X251199600Y-38938539D01*
X251199600Y-38734661D01*
X251159826Y-38534702D01*
X251081805Y-38346344D01*
X250968537Y-38176826D01*
X250824374Y-38032663D01*
X250654856Y-37919395D01*
X250466498Y-37841374D01*
X250266539Y-37801600D01*
X250062661Y-37801600D01*
X249862702Y-37841374D01*
X249674344Y-37919395D01*
X249504826Y-38032663D01*
X249360663Y-38176826D01*
X249247395Y-38346344D01*
X249169374Y-38534702D01*
X249129600Y-38734661D01*
X236750863Y-38734661D01*
X236749725Y-35432661D01*
X247834200Y-35432661D01*
X247834200Y-35636539D01*
X247873974Y-35836498D01*
X247951995Y-36024856D01*
X248065263Y-36194374D01*
X248209426Y-36338537D01*
X248378944Y-36451805D01*
X248567302Y-36529826D01*
X248767261Y-36569600D01*
X248971139Y-36569600D01*
X249171098Y-36529826D01*
X249359456Y-36451805D01*
X249528974Y-36338537D01*
X249673137Y-36194374D01*
X249786405Y-36024856D01*
X249864426Y-35836498D01*
X249904200Y-35636539D01*
X249904200Y-35432661D01*
X249864426Y-35232702D01*
X249786405Y-35044344D01*
X249673137Y-34874826D01*
X249528974Y-34730663D01*
X249359456Y-34617395D01*
X249171098Y-34539374D01*
X248971139Y-34499600D01*
X248767261Y-34499600D01*
X248567302Y-34539374D01*
X248378944Y-34617395D01*
X248209426Y-34730663D01*
X248065263Y-34874826D01*
X247951995Y-35044344D01*
X247873974Y-35232702D01*
X247834200Y-35432661D01*
X236749725Y-35432661D01*
X236748036Y-30530461D01*
X247821500Y-30530461D01*
X247821500Y-30734339D01*
X247861274Y-30934298D01*
X247939295Y-31122656D01*
X248052563Y-31292174D01*
X248196726Y-31436337D01*
X248366244Y-31549605D01*
X248554602Y-31627626D01*
X248754561Y-31667400D01*
X248958439Y-31667400D01*
X249158398Y-31627626D01*
X249346756Y-31549605D01*
X249516274Y-31436337D01*
X249660437Y-31292174D01*
X249773705Y-31122656D01*
X249851726Y-30934298D01*
X249891500Y-30734339D01*
X249891500Y-30530461D01*
X249851726Y-30330502D01*
X249773705Y-30142144D01*
X249660437Y-29972626D01*
X249516274Y-29828463D01*
X249346756Y-29715195D01*
X249158398Y-29637174D01*
X248958439Y-29597400D01*
X248754561Y-29597400D01*
X248554602Y-29637174D01*
X248366244Y-29715195D01*
X248196726Y-29828463D01*
X248052563Y-29972626D01*
X247939295Y-30142144D01*
X247861274Y-30330502D01*
X247821500Y-30530461D01*
X236748036Y-30530461D01*
X236747344Y-28524292D01*
X237172850Y-28098267D01*
X244792768Y-28091600D01*
X255875740Y-28091600D01*
X255845169Y-28104263D01*
G37*
%TD.AperFunction*%
%TD*%
D16*
%TO.N,+5V*%
X215200402Y-28294137D02*
X214958737Y-28535802D01*
X214768863Y-28819969D01*
X214638075Y-29135719D01*
X214571400Y-29470917D01*
X214571400Y-29812683D01*
X214638075Y-30147881D01*
X214768863Y-30463631D01*
X214958737Y-30747798D01*
X215200402Y-30989463D01*
X215484569Y-31179337D01*
X215800319Y-31310125D01*
X216135517Y-31376800D01*
X216477283Y-31376800D01*
X216812481Y-31310125D01*
X217128231Y-31179337D01*
X217412398Y-30989463D01*
X217654063Y-30747798D01*
X217843937Y-30463631D01*
X217974725Y-30147881D01*
X218041400Y-29812683D01*
X218041400Y-29470917D01*
X217974725Y-29135719D01*
X217843937Y-28819969D01*
X217654063Y-28535802D01*
X217412398Y-28294137D01*
X217129484Y-28105100D01*
X233775148Y-28105100D01*
X234201495Y-28530833D01*
X234225862Y-45466000D01*
X227906200Y-45466000D01*
X227798413Y-45476616D01*
X227791826Y-45443502D01*
X227713805Y-45255144D01*
X227600537Y-45085626D01*
X227456374Y-44941463D01*
X227286856Y-44828195D01*
X227098498Y-44750174D01*
X226898539Y-44710400D01*
X226694661Y-44710400D01*
X226494702Y-44750174D01*
X226306344Y-44828195D01*
X226136826Y-44941463D01*
X225992663Y-45085626D01*
X225879395Y-45255144D01*
X225801374Y-45443502D01*
X225761600Y-45643461D01*
X225761600Y-45847339D01*
X225801374Y-46047298D01*
X225879395Y-46235656D01*
X225992663Y-46405174D01*
X226069489Y-46482000D01*
X225992663Y-46558826D01*
X225879395Y-46728344D01*
X225801374Y-46916702D01*
X225761600Y-47116661D01*
X225761600Y-47320539D01*
X225801374Y-47520498D01*
X225879395Y-47708856D01*
X225992663Y-47878374D01*
X226136826Y-48022537D01*
X226306344Y-48135805D01*
X226494702Y-48213826D01*
X226694661Y-48253600D01*
X226771200Y-48253600D01*
X226771200Y-49741200D01*
X226783401Y-49865082D01*
X226819536Y-49984204D01*
X226878217Y-50093987D01*
X226957187Y-50190213D01*
X227065374Y-50298400D01*
X226897861Y-50298400D01*
X226697902Y-50338174D01*
X226509544Y-50416195D01*
X226340026Y-50529463D01*
X226195863Y-50673626D01*
X226082595Y-50843144D01*
X226004574Y-51031502D01*
X225964800Y-51231461D01*
X225964800Y-51435339D01*
X226004574Y-51635298D01*
X226082595Y-51823656D01*
X226195863Y-51993174D01*
X226340026Y-52137337D01*
X226509544Y-52250605D01*
X226697902Y-52328626D01*
X226897861Y-52368400D01*
X227101739Y-52368400D01*
X227301698Y-52328626D01*
X227490056Y-52250605D01*
X227659574Y-52137337D01*
X227803737Y-51993174D01*
X227917005Y-51823656D01*
X227995026Y-51635298D01*
X228034800Y-51435339D01*
X228034800Y-51231461D01*
X227995026Y-51031502D01*
X227930697Y-50876200D01*
X234233647Y-50876200D01*
X234238005Y-53905125D01*
X233813141Y-54330600D01*
X221761000Y-54330600D01*
X221761000Y-54203830D01*
X221721226Y-54003871D01*
X221643205Y-53815513D01*
X221529937Y-53645995D01*
X221385774Y-53501832D01*
X221216256Y-53388564D01*
X221027898Y-53310543D01*
X220827939Y-53270769D01*
X220624061Y-53270769D01*
X220424102Y-53310543D01*
X220235744Y-53388564D01*
X220066226Y-53501832D01*
X219922063Y-53645995D01*
X219808795Y-53815513D01*
X219730774Y-54003871D01*
X219691000Y-54203830D01*
X219691000Y-54330600D01*
X209861122Y-54330600D01*
X209871502Y-54311180D01*
X209907812Y-54191482D01*
X209920072Y-54067000D01*
X209917000Y-53752750D01*
X209758250Y-53594000D01*
X208534000Y-53594000D01*
X208534000Y-53614000D01*
X208280000Y-53614000D01*
X208280000Y-53594000D01*
X207055750Y-53594000D01*
X206897000Y-53752750D01*
X206893928Y-54067000D01*
X206906188Y-54191482D01*
X206942498Y-54311180D01*
X206952878Y-54330600D01*
X204235152Y-54330600D01*
X203808805Y-53904867D01*
X203807312Y-52867000D01*
X206893928Y-52867000D01*
X206897000Y-53181250D01*
X207055750Y-53340000D01*
X208280000Y-53340000D01*
X208280000Y-52390750D01*
X208534000Y-52390750D01*
X208534000Y-53340000D01*
X209758250Y-53340000D01*
X209917000Y-53181250D01*
X209920072Y-52867000D01*
X209907812Y-52742518D01*
X209871502Y-52622820D01*
X209812537Y-52512506D01*
X209733185Y-52415815D01*
X209636494Y-52336463D01*
X209526180Y-52277498D01*
X209406482Y-52241188D01*
X209282000Y-52228928D01*
X208692750Y-52232000D01*
X208534000Y-52390750D01*
X208280000Y-52390750D01*
X208121250Y-52232000D01*
X207532000Y-52228928D01*
X207407518Y-52241188D01*
X207287820Y-52277498D01*
X207177506Y-52336463D01*
X207080815Y-52415815D01*
X207001463Y-52512506D01*
X206942498Y-52622820D01*
X206906188Y-52742518D01*
X206893928Y-52867000D01*
X203807312Y-52867000D01*
X203803168Y-49986861D01*
X216719200Y-49986861D01*
X216719200Y-50190739D01*
X216758974Y-50390698D01*
X216836995Y-50579056D01*
X216950263Y-50748574D01*
X217094426Y-50892737D01*
X217263944Y-51006005D01*
X217452302Y-51084026D01*
X217652261Y-51123800D01*
X217856139Y-51123800D01*
X218056098Y-51084026D01*
X218244456Y-51006005D01*
X218413974Y-50892737D01*
X218558137Y-50748574D01*
X218671405Y-50579056D01*
X218749426Y-50390698D01*
X218789200Y-50190739D01*
X218789200Y-49986861D01*
X218749426Y-49786902D01*
X218671405Y-49598544D01*
X218558137Y-49429026D01*
X218413974Y-49284863D01*
X218244456Y-49171595D01*
X218056098Y-49093574D01*
X217856139Y-49053800D01*
X217652261Y-49053800D01*
X217452302Y-49093574D01*
X217263944Y-49171595D01*
X217094426Y-49284863D01*
X216950263Y-49429026D01*
X216836995Y-49598544D01*
X216758974Y-49786902D01*
X216719200Y-49986861D01*
X203803168Y-49986861D01*
X203795901Y-44936810D01*
X203860400Y-44872311D01*
X203988026Y-44999937D01*
X204157544Y-45113205D01*
X204345902Y-45191226D01*
X204545861Y-45231000D01*
X204749739Y-45231000D01*
X204949698Y-45191226D01*
X205138056Y-45113205D01*
X205307574Y-44999937D01*
X205451737Y-44855774D01*
X205486000Y-44804496D01*
X205520263Y-44855774D01*
X205664426Y-44999937D01*
X205833944Y-45113205D01*
X206022302Y-45191226D01*
X206222261Y-45231000D01*
X206426139Y-45231000D01*
X206626098Y-45191226D01*
X206814456Y-45113205D01*
X206983974Y-44999937D01*
X207128137Y-44855774D01*
X207241405Y-44686256D01*
X207319426Y-44497898D01*
X207359200Y-44297939D01*
X207359200Y-44094061D01*
X211156600Y-44094061D01*
X211156600Y-44297939D01*
X211196374Y-44497898D01*
X211274395Y-44686256D01*
X211387663Y-44855774D01*
X211531826Y-44999937D01*
X211701344Y-45113205D01*
X211889702Y-45191226D01*
X212089661Y-45231000D01*
X212293539Y-45231000D01*
X212493498Y-45191226D01*
X212681856Y-45113205D01*
X212851374Y-44999937D01*
X212995537Y-44855774D01*
X213108805Y-44686256D01*
X213186826Y-44497898D01*
X213206525Y-44398861D01*
X218548000Y-44398861D01*
X218548000Y-44602739D01*
X218587774Y-44802698D01*
X218665795Y-44991056D01*
X218779063Y-45160574D01*
X218923226Y-45304737D01*
X219092744Y-45418005D01*
X219281102Y-45496026D01*
X219481061Y-45535800D01*
X219684939Y-45535800D01*
X219884898Y-45496026D01*
X220073256Y-45418005D01*
X220242774Y-45304737D01*
X220386937Y-45160574D01*
X220500205Y-44991056D01*
X220578226Y-44802698D01*
X220618000Y-44602739D01*
X220618000Y-44398861D01*
X220578226Y-44198902D01*
X220500205Y-44010544D01*
X220386937Y-43841026D01*
X220242774Y-43696863D01*
X220073256Y-43583595D01*
X219884898Y-43505574D01*
X219684939Y-43465800D01*
X219481061Y-43465800D01*
X219281102Y-43505574D01*
X219092744Y-43583595D01*
X218923226Y-43696863D01*
X218779063Y-43841026D01*
X218665795Y-44010544D01*
X218587774Y-44198902D01*
X218548000Y-44398861D01*
X213206525Y-44398861D01*
X213226600Y-44297939D01*
X213226600Y-44094061D01*
X213186826Y-43894102D01*
X213108805Y-43705744D01*
X212995537Y-43536226D01*
X212851374Y-43392063D01*
X212681856Y-43278795D01*
X212493498Y-43200774D01*
X212293539Y-43161000D01*
X212089661Y-43161000D01*
X211889702Y-43200774D01*
X211701344Y-43278795D01*
X211531826Y-43392063D01*
X211387663Y-43536226D01*
X211274395Y-43705744D01*
X211196374Y-43894102D01*
X211156600Y-44094061D01*
X207359200Y-44094061D01*
X207319426Y-43894102D01*
X207241405Y-43705744D01*
X207128137Y-43536226D01*
X206983974Y-43392063D01*
X206814456Y-43278795D01*
X206626098Y-43200774D01*
X206426139Y-43161000D01*
X206222261Y-43161000D01*
X206022302Y-43200774D01*
X205833944Y-43278795D01*
X205664426Y-43392063D01*
X205520263Y-43536226D01*
X205486000Y-43587504D01*
X205451737Y-43536226D01*
X205307574Y-43392063D01*
X205138056Y-43278795D01*
X204949698Y-43200774D01*
X204749739Y-43161000D01*
X204545861Y-43161000D01*
X204345902Y-43200774D01*
X204157544Y-43278795D01*
X203988026Y-43392063D01*
X203860400Y-43519689D01*
X203793766Y-43453055D01*
X203790270Y-41023000D01*
X203808309Y-41023000D01*
X203830223Y-41245499D01*
X203895124Y-41459447D01*
X204000516Y-41656623D01*
X204142351Y-41829449D01*
X204315177Y-41971284D01*
X204512353Y-42076676D01*
X204726301Y-42141577D01*
X204893048Y-42158000D01*
X205604552Y-42158000D01*
X205771299Y-42141577D01*
X205985247Y-42076676D01*
X206182423Y-41971284D01*
X206355249Y-41829449D01*
X206497084Y-41656623D01*
X206602476Y-41459447D01*
X206667377Y-41245499D01*
X206689291Y-41023000D01*
X207738309Y-41023000D01*
X207760223Y-41245499D01*
X207825124Y-41459447D01*
X207930516Y-41656623D01*
X208072351Y-41829449D01*
X208245177Y-41971284D01*
X208442353Y-42076676D01*
X208656301Y-42141577D01*
X208823048Y-42158000D01*
X210034552Y-42158000D01*
X210201299Y-42141577D01*
X210415247Y-42076676D01*
X210595963Y-41980082D01*
X210664795Y-42146256D01*
X210778063Y-42315774D01*
X210922226Y-42459937D01*
X211091744Y-42573205D01*
X211280102Y-42651226D01*
X211480061Y-42691000D01*
X211683939Y-42691000D01*
X211883898Y-42651226D01*
X212072256Y-42573205D01*
X212241774Y-42459937D01*
X212385937Y-42315774D01*
X212499205Y-42146256D01*
X212577226Y-41957898D01*
X212617000Y-41757939D01*
X212617000Y-41554061D01*
X212577226Y-41354102D01*
X212499205Y-41165744D01*
X212385937Y-40996226D01*
X212241774Y-40852063D01*
X212072256Y-40738795D01*
X211883898Y-40660774D01*
X211683939Y-40621000D01*
X211480061Y-40621000D01*
X211280102Y-40660774D01*
X211091744Y-40738795D01*
X211080864Y-40746065D01*
X211032476Y-40586553D01*
X210927084Y-40389377D01*
X210785249Y-40216551D01*
X210612423Y-40074716D01*
X210415247Y-39969324D01*
X210201299Y-39904423D01*
X210034552Y-39888000D01*
X209815704Y-39888000D01*
X209821908Y-39873022D01*
X209858800Y-39687552D01*
X209858800Y-39498448D01*
X209821908Y-39312978D01*
X209749541Y-39138269D01*
X209644481Y-38981036D01*
X209510764Y-38847319D01*
X209353531Y-38742259D01*
X209178822Y-38669892D01*
X208993352Y-38633000D01*
X208804248Y-38633000D01*
X208618778Y-38669892D01*
X208444069Y-38742259D01*
X208286836Y-38847319D01*
X208153119Y-38981036D01*
X208048059Y-39138269D01*
X207975692Y-39312978D01*
X207938800Y-39498448D01*
X207938800Y-39687552D01*
X207975692Y-39873022D01*
X208048059Y-40047731D01*
X208129515Y-40169638D01*
X208072351Y-40216551D01*
X207930516Y-40389377D01*
X207825124Y-40586553D01*
X207760223Y-40800501D01*
X207738309Y-41023000D01*
X206689291Y-41023000D01*
X206667377Y-40800501D01*
X206602476Y-40586553D01*
X206497084Y-40389377D01*
X206355249Y-40216551D01*
X206182423Y-40074716D01*
X205985247Y-39969324D01*
X205771299Y-39904423D01*
X205604552Y-39888000D01*
X204893048Y-39888000D01*
X204726301Y-39904423D01*
X204512353Y-39969324D01*
X204315177Y-40074716D01*
X204142351Y-40216551D01*
X204000516Y-40389377D01*
X203895124Y-40586553D01*
X203830223Y-40800501D01*
X203808309Y-41023000D01*
X203790270Y-41023000D01*
X203781935Y-35229461D01*
X204146200Y-35229461D01*
X204146200Y-35433339D01*
X204185974Y-35633298D01*
X204263995Y-35821656D01*
X204360710Y-35966400D01*
X204263995Y-36111144D01*
X204185974Y-36299502D01*
X204146200Y-36499461D01*
X204146200Y-36703339D01*
X204185974Y-36903298D01*
X204263995Y-37091656D01*
X204364924Y-37242707D01*
X204289395Y-37355744D01*
X204211374Y-37544102D01*
X204171600Y-37744061D01*
X204171600Y-37947939D01*
X204211374Y-38147898D01*
X204289395Y-38336256D01*
X204402663Y-38505774D01*
X204546826Y-38649937D01*
X204716344Y-38763205D01*
X204904702Y-38841226D01*
X205104661Y-38881000D01*
X205308539Y-38881000D01*
X205508498Y-38841226D01*
X205696856Y-38763205D01*
X205866374Y-38649937D01*
X206010537Y-38505774D01*
X206123805Y-38336256D01*
X206201826Y-38147898D01*
X206241600Y-37947939D01*
X206241600Y-37744061D01*
X206201826Y-37544102D01*
X206123805Y-37355744D01*
X206022876Y-37204693D01*
X206098405Y-37091656D01*
X206176426Y-36903298D01*
X206216200Y-36703339D01*
X206216200Y-36499461D01*
X206176426Y-36299502D01*
X206098405Y-36111144D01*
X206001690Y-35966400D01*
X206098405Y-35821656D01*
X206143801Y-35712061D01*
X216236600Y-35712061D01*
X216236600Y-35915939D01*
X216276374Y-36115898D01*
X216354395Y-36304256D01*
X216467663Y-36473774D01*
X216611826Y-36617937D01*
X216739132Y-36703000D01*
X216611826Y-36788063D01*
X216467663Y-36932226D01*
X216354395Y-37101744D01*
X216276374Y-37290102D01*
X216236600Y-37490061D01*
X216236600Y-37693939D01*
X216276374Y-37893898D01*
X216354395Y-38082256D01*
X216467663Y-38251774D01*
X216611826Y-38395937D01*
X216781344Y-38509205D01*
X216969702Y-38587226D01*
X217169661Y-38627000D01*
X217373539Y-38627000D01*
X217573498Y-38587226D01*
X217761856Y-38509205D01*
X217931374Y-38395937D01*
X218075537Y-38251774D01*
X218160600Y-38124468D01*
X218245663Y-38251774D01*
X218389826Y-38395937D01*
X218559344Y-38509205D01*
X218747702Y-38587226D01*
X218947661Y-38627000D01*
X219151539Y-38627000D01*
X219351498Y-38587226D01*
X219539856Y-38509205D01*
X219709374Y-38395937D01*
X219853537Y-38251774D01*
X219966805Y-38082256D01*
X220044826Y-37893898D01*
X220084600Y-37693939D01*
X220084600Y-37490061D01*
X220044826Y-37290102D01*
X219966805Y-37101744D01*
X219853537Y-36932226D01*
X219709374Y-36788063D01*
X219582068Y-36703000D01*
X219709374Y-36617937D01*
X219853537Y-36473774D01*
X219966805Y-36304256D01*
X220044826Y-36115898D01*
X220084600Y-35915939D01*
X220084600Y-35712061D01*
X220044826Y-35512102D01*
X219966805Y-35323744D01*
X219853537Y-35154226D01*
X219709374Y-35010063D01*
X219539856Y-34896795D01*
X219351498Y-34818774D01*
X219151539Y-34779000D01*
X218947661Y-34779000D01*
X218747702Y-34818774D01*
X218559344Y-34896795D01*
X218389826Y-35010063D01*
X218245663Y-35154226D01*
X218160600Y-35281532D01*
X218075537Y-35154226D01*
X217931374Y-35010063D01*
X217761856Y-34896795D01*
X217573498Y-34818774D01*
X217373539Y-34779000D01*
X217169661Y-34779000D01*
X216969702Y-34818774D01*
X216781344Y-34896795D01*
X216611826Y-35010063D01*
X216467663Y-35154226D01*
X216354395Y-35323744D01*
X216276374Y-35512102D01*
X216236600Y-35712061D01*
X206143801Y-35712061D01*
X206176426Y-35633298D01*
X206216200Y-35433339D01*
X206216200Y-35229461D01*
X206176426Y-35029502D01*
X206098405Y-34841144D01*
X205985137Y-34671626D01*
X205840974Y-34527463D01*
X205671456Y-34414195D01*
X205483098Y-34336174D01*
X205283139Y-34296400D01*
X205079261Y-34296400D01*
X204879302Y-34336174D01*
X204690944Y-34414195D01*
X204521426Y-34527463D01*
X204377263Y-34671626D01*
X204263995Y-34841144D01*
X204185974Y-35029502D01*
X204146200Y-35229461D01*
X203781935Y-35229461D01*
X203777839Y-32383000D01*
X203808309Y-32383000D01*
X203830223Y-32605499D01*
X203895124Y-32819447D01*
X204000516Y-33016623D01*
X204142351Y-33189449D01*
X204315177Y-33331284D01*
X204512353Y-33436676D01*
X204726301Y-33501577D01*
X204893048Y-33518000D01*
X205604552Y-33518000D01*
X205771299Y-33501577D01*
X205985247Y-33436676D01*
X206182423Y-33331284D01*
X206355249Y-33189449D01*
X206497084Y-33016623D01*
X206602476Y-32819447D01*
X206667377Y-32605499D01*
X206689291Y-32383000D01*
X207738309Y-32383000D01*
X207760223Y-32605499D01*
X207825124Y-32819447D01*
X207930516Y-33016623D01*
X208072351Y-33189449D01*
X208129515Y-33236362D01*
X208048059Y-33358269D01*
X207975692Y-33532978D01*
X207938800Y-33718448D01*
X207938800Y-33907552D01*
X207975692Y-34093022D01*
X208048059Y-34267731D01*
X208153119Y-34424964D01*
X208286836Y-34558681D01*
X208444069Y-34663741D01*
X208618778Y-34736108D01*
X208804248Y-34773000D01*
X208993352Y-34773000D01*
X209178822Y-34736108D01*
X209353531Y-34663741D01*
X209510764Y-34558681D01*
X209644481Y-34424964D01*
X209749541Y-34267731D01*
X209750978Y-34264261D01*
X222586600Y-34264261D01*
X222586600Y-34468139D01*
X222626374Y-34668098D01*
X222704395Y-34856456D01*
X222729149Y-34893503D01*
X222651774Y-35080302D01*
X222612000Y-35280261D01*
X222612000Y-35484139D01*
X222651774Y-35684098D01*
X222729795Y-35872456D01*
X222733165Y-35877500D01*
X222729795Y-35882544D01*
X222651774Y-36070902D01*
X222612000Y-36270861D01*
X222612000Y-36474739D01*
X222651774Y-36674698D01*
X222729795Y-36863056D01*
X222843063Y-37032574D01*
X222987226Y-37176737D01*
X223156744Y-37290005D01*
X223345102Y-37368026D01*
X223545061Y-37407800D01*
X223748939Y-37407800D01*
X223948898Y-37368026D01*
X224137256Y-37290005D01*
X224306774Y-37176737D01*
X224450937Y-37032574D01*
X224564205Y-36863056D01*
X224642226Y-36674698D01*
X224682000Y-36474739D01*
X224682000Y-36270861D01*
X224642226Y-36070902D01*
X224564205Y-35882544D01*
X224560835Y-35877500D01*
X224564205Y-35872456D01*
X224642226Y-35684098D01*
X224682000Y-35484139D01*
X224682000Y-35280261D01*
X224642226Y-35080302D01*
X224564205Y-34891944D01*
X224539451Y-34854897D01*
X224616826Y-34668098D01*
X224656600Y-34468139D01*
X224656600Y-34264261D01*
X224616826Y-34064302D01*
X224538805Y-33875944D01*
X224425537Y-33706426D01*
X224281374Y-33562263D01*
X224111856Y-33448995D01*
X223923498Y-33370974D01*
X223723539Y-33331200D01*
X223519661Y-33331200D01*
X223319702Y-33370974D01*
X223131344Y-33448995D01*
X222961826Y-33562263D01*
X222817663Y-33706426D01*
X222704395Y-33875944D01*
X222626374Y-34064302D01*
X222586600Y-34264261D01*
X209750978Y-34264261D01*
X209821908Y-34093022D01*
X209858800Y-33907552D01*
X209858800Y-33718448D01*
X209821908Y-33532978D01*
X209815704Y-33518000D01*
X210034552Y-33518000D01*
X210201299Y-33501577D01*
X210415247Y-33436676D01*
X210612423Y-33331284D01*
X210785249Y-33189449D01*
X210927084Y-33016623D01*
X211032476Y-32819447D01*
X211097377Y-32605499D01*
X211119291Y-32383000D01*
X211097377Y-32160501D01*
X211032476Y-31946553D01*
X210927084Y-31749377D01*
X210785249Y-31576551D01*
X210612423Y-31434716D01*
X210415247Y-31329324D01*
X210201299Y-31264423D01*
X210034552Y-31248000D01*
X208823048Y-31248000D01*
X208656301Y-31264423D01*
X208442353Y-31329324D01*
X208245177Y-31434716D01*
X208072351Y-31576551D01*
X207930516Y-31749377D01*
X207825124Y-31946553D01*
X207760223Y-32160501D01*
X207738309Y-32383000D01*
X206689291Y-32383000D01*
X206667377Y-32160501D01*
X206602476Y-31946553D01*
X206497084Y-31749377D01*
X206355249Y-31576551D01*
X206182423Y-31434716D01*
X205985247Y-31329324D01*
X205771299Y-31264423D01*
X205604552Y-31248000D01*
X204893048Y-31248000D01*
X204726301Y-31264423D01*
X204512353Y-31329324D01*
X204315177Y-31434716D01*
X204142351Y-31576551D01*
X204000516Y-31749377D01*
X203895124Y-31946553D01*
X203830223Y-32160501D01*
X203808309Y-32383000D01*
X203777839Y-32383000D01*
X203775795Y-30962261D01*
X212045600Y-30962261D01*
X212045600Y-31166139D01*
X212085374Y-31366098D01*
X212163395Y-31554456D01*
X212276663Y-31723974D01*
X212420826Y-31868137D01*
X212590344Y-31981405D01*
X212778702Y-32059426D01*
X212978661Y-32099200D01*
X213182539Y-32099200D01*
X213382498Y-32059426D01*
X213570856Y-31981405D01*
X213740374Y-31868137D01*
X213884537Y-31723974D01*
X213997805Y-31554456D01*
X214075826Y-31366098D01*
X214115600Y-31166139D01*
X214115600Y-30962261D01*
X214075826Y-30762302D01*
X213997805Y-30573944D01*
X213884537Y-30404426D01*
X213740374Y-30260263D01*
X213570856Y-30146995D01*
X213382498Y-30068974D01*
X213182539Y-30029200D01*
X212978661Y-30029200D01*
X212778702Y-30068974D01*
X212590344Y-30146995D01*
X212420826Y-30260263D01*
X212276663Y-30404426D01*
X212163395Y-30573944D01*
X212085374Y-30762302D01*
X212045600Y-30962261D01*
X203775795Y-30962261D01*
X203772295Y-28530575D01*
X204197159Y-28105100D01*
X215483316Y-28105100D01*
X215200402Y-28294137D01*
%TA.AperFunction,Conductor*%
D17*
G36*
X215200402Y-28294137D02*
G01*
X214958737Y-28535802D01*
X214768863Y-28819969D01*
X214638075Y-29135719D01*
X214571400Y-29470917D01*
X214571400Y-29812683D01*
X214638075Y-30147881D01*
X214768863Y-30463631D01*
X214958737Y-30747798D01*
X215200402Y-30989463D01*
X215484569Y-31179337D01*
X215800319Y-31310125D01*
X216135517Y-31376800D01*
X216477283Y-31376800D01*
X216812481Y-31310125D01*
X217128231Y-31179337D01*
X217412398Y-30989463D01*
X217654063Y-30747798D01*
X217843937Y-30463631D01*
X217974725Y-30147881D01*
X218041400Y-29812683D01*
X218041400Y-29470917D01*
X217974725Y-29135719D01*
X217843937Y-28819969D01*
X217654063Y-28535802D01*
X217412398Y-28294137D01*
X217129484Y-28105100D01*
X233775148Y-28105100D01*
X234201495Y-28530833D01*
X234225862Y-45466000D01*
X227906200Y-45466000D01*
X227798413Y-45476616D01*
X227791826Y-45443502D01*
X227713805Y-45255144D01*
X227600537Y-45085626D01*
X227456374Y-44941463D01*
X227286856Y-44828195D01*
X227098498Y-44750174D01*
X226898539Y-44710400D01*
X226694661Y-44710400D01*
X226494702Y-44750174D01*
X226306344Y-44828195D01*
X226136826Y-44941463D01*
X225992663Y-45085626D01*
X225879395Y-45255144D01*
X225801374Y-45443502D01*
X225761600Y-45643461D01*
X225761600Y-45847339D01*
X225801374Y-46047298D01*
X225879395Y-46235656D01*
X225992663Y-46405174D01*
X226069489Y-46482000D01*
X225992663Y-46558826D01*
X225879395Y-46728344D01*
X225801374Y-46916702D01*
X225761600Y-47116661D01*
X225761600Y-47320539D01*
X225801374Y-47520498D01*
X225879395Y-47708856D01*
X225992663Y-47878374D01*
X226136826Y-48022537D01*
X226306344Y-48135805D01*
X226494702Y-48213826D01*
X226694661Y-48253600D01*
X226771200Y-48253600D01*
X226771200Y-49741200D01*
X226783401Y-49865082D01*
X226819536Y-49984204D01*
X226878217Y-50093987D01*
X226957187Y-50190213D01*
X227065374Y-50298400D01*
X226897861Y-50298400D01*
X226697902Y-50338174D01*
X226509544Y-50416195D01*
X226340026Y-50529463D01*
X226195863Y-50673626D01*
X226082595Y-50843144D01*
X226004574Y-51031502D01*
X225964800Y-51231461D01*
X225964800Y-51435339D01*
X226004574Y-51635298D01*
X226082595Y-51823656D01*
X226195863Y-51993174D01*
X226340026Y-52137337D01*
X226509544Y-52250605D01*
X226697902Y-52328626D01*
X226897861Y-52368400D01*
X227101739Y-52368400D01*
X227301698Y-52328626D01*
X227490056Y-52250605D01*
X227659574Y-52137337D01*
X227803737Y-51993174D01*
X227917005Y-51823656D01*
X227995026Y-51635298D01*
X228034800Y-51435339D01*
X228034800Y-51231461D01*
X227995026Y-51031502D01*
X227930697Y-50876200D01*
X234233647Y-50876200D01*
X234238005Y-53905125D01*
X233813141Y-54330600D01*
X221761000Y-54330600D01*
X221761000Y-54203830D01*
X221721226Y-54003871D01*
X221643205Y-53815513D01*
X221529937Y-53645995D01*
X221385774Y-53501832D01*
X221216256Y-53388564D01*
X221027898Y-53310543D01*
X220827939Y-53270769D01*
X220624061Y-53270769D01*
X220424102Y-53310543D01*
X220235744Y-53388564D01*
X220066226Y-53501832D01*
X219922063Y-53645995D01*
X219808795Y-53815513D01*
X219730774Y-54003871D01*
X219691000Y-54203830D01*
X219691000Y-54330600D01*
X209861122Y-54330600D01*
X209871502Y-54311180D01*
X209907812Y-54191482D01*
X209920072Y-54067000D01*
X209917000Y-53752750D01*
X209758250Y-53594000D01*
X208534000Y-53594000D01*
X208534000Y-53614000D01*
X208280000Y-53614000D01*
X208280000Y-53594000D01*
X207055750Y-53594000D01*
X206897000Y-53752750D01*
X206893928Y-54067000D01*
X206906188Y-54191482D01*
X206942498Y-54311180D01*
X206952878Y-54330600D01*
X204235152Y-54330600D01*
X203808805Y-53904867D01*
X203807312Y-52867000D01*
X206893928Y-52867000D01*
X206897000Y-53181250D01*
X207055750Y-53340000D01*
X208280000Y-53340000D01*
X208280000Y-52390750D01*
X208534000Y-52390750D01*
X208534000Y-53340000D01*
X209758250Y-53340000D01*
X209917000Y-53181250D01*
X209920072Y-52867000D01*
X209907812Y-52742518D01*
X209871502Y-52622820D01*
X209812537Y-52512506D01*
X209733185Y-52415815D01*
X209636494Y-52336463D01*
X209526180Y-52277498D01*
X209406482Y-52241188D01*
X209282000Y-52228928D01*
X208692750Y-52232000D01*
X208534000Y-52390750D01*
X208280000Y-52390750D01*
X208121250Y-52232000D01*
X207532000Y-52228928D01*
X207407518Y-52241188D01*
X207287820Y-52277498D01*
X207177506Y-52336463D01*
X207080815Y-52415815D01*
X207001463Y-52512506D01*
X206942498Y-52622820D01*
X206906188Y-52742518D01*
X206893928Y-52867000D01*
X203807312Y-52867000D01*
X203803168Y-49986861D01*
X216719200Y-49986861D01*
X216719200Y-50190739D01*
X216758974Y-50390698D01*
X216836995Y-50579056D01*
X216950263Y-50748574D01*
X217094426Y-50892737D01*
X217263944Y-51006005D01*
X217452302Y-51084026D01*
X217652261Y-51123800D01*
X217856139Y-51123800D01*
X218056098Y-51084026D01*
X218244456Y-51006005D01*
X218413974Y-50892737D01*
X218558137Y-50748574D01*
X218671405Y-50579056D01*
X218749426Y-50390698D01*
X218789200Y-50190739D01*
X218789200Y-49986861D01*
X218749426Y-49786902D01*
X218671405Y-49598544D01*
X218558137Y-49429026D01*
X218413974Y-49284863D01*
X218244456Y-49171595D01*
X218056098Y-49093574D01*
X217856139Y-49053800D01*
X217652261Y-49053800D01*
X217452302Y-49093574D01*
X217263944Y-49171595D01*
X217094426Y-49284863D01*
X216950263Y-49429026D01*
X216836995Y-49598544D01*
X216758974Y-49786902D01*
X216719200Y-49986861D01*
X203803168Y-49986861D01*
X203795901Y-44936810D01*
X203860400Y-44872311D01*
X203988026Y-44999937D01*
X204157544Y-45113205D01*
X204345902Y-45191226D01*
X204545861Y-45231000D01*
X204749739Y-45231000D01*
X204949698Y-45191226D01*
X205138056Y-45113205D01*
X205307574Y-44999937D01*
X205451737Y-44855774D01*
X205486000Y-44804496D01*
X205520263Y-44855774D01*
X205664426Y-44999937D01*
X205833944Y-45113205D01*
X206022302Y-45191226D01*
X206222261Y-45231000D01*
X206426139Y-45231000D01*
X206626098Y-45191226D01*
X206814456Y-45113205D01*
X206983974Y-44999937D01*
X207128137Y-44855774D01*
X207241405Y-44686256D01*
X207319426Y-44497898D01*
X207359200Y-44297939D01*
X207359200Y-44094061D01*
X211156600Y-44094061D01*
X211156600Y-44297939D01*
X211196374Y-44497898D01*
X211274395Y-44686256D01*
X211387663Y-44855774D01*
X211531826Y-44999937D01*
X211701344Y-45113205D01*
X211889702Y-45191226D01*
X212089661Y-45231000D01*
X212293539Y-45231000D01*
X212493498Y-45191226D01*
X212681856Y-45113205D01*
X212851374Y-44999937D01*
X212995537Y-44855774D01*
X213108805Y-44686256D01*
X213186826Y-44497898D01*
X213206525Y-44398861D01*
X218548000Y-44398861D01*
X218548000Y-44602739D01*
X218587774Y-44802698D01*
X218665795Y-44991056D01*
X218779063Y-45160574D01*
X218923226Y-45304737D01*
X219092744Y-45418005D01*
X219281102Y-45496026D01*
X219481061Y-45535800D01*
X219684939Y-45535800D01*
X219884898Y-45496026D01*
X220073256Y-45418005D01*
X220242774Y-45304737D01*
X220386937Y-45160574D01*
X220500205Y-44991056D01*
X220578226Y-44802698D01*
X220618000Y-44602739D01*
X220618000Y-44398861D01*
X220578226Y-44198902D01*
X220500205Y-44010544D01*
X220386937Y-43841026D01*
X220242774Y-43696863D01*
X220073256Y-43583595D01*
X219884898Y-43505574D01*
X219684939Y-43465800D01*
X219481061Y-43465800D01*
X219281102Y-43505574D01*
X219092744Y-43583595D01*
X218923226Y-43696863D01*
X218779063Y-43841026D01*
X218665795Y-44010544D01*
X218587774Y-44198902D01*
X218548000Y-44398861D01*
X213206525Y-44398861D01*
X213226600Y-44297939D01*
X213226600Y-44094061D01*
X213186826Y-43894102D01*
X213108805Y-43705744D01*
X212995537Y-43536226D01*
X212851374Y-43392063D01*
X212681856Y-43278795D01*
X212493498Y-43200774D01*
X212293539Y-43161000D01*
X212089661Y-43161000D01*
X211889702Y-43200774D01*
X211701344Y-43278795D01*
X211531826Y-43392063D01*
X211387663Y-43536226D01*
X211274395Y-43705744D01*
X211196374Y-43894102D01*
X211156600Y-44094061D01*
X207359200Y-44094061D01*
X207319426Y-43894102D01*
X207241405Y-43705744D01*
X207128137Y-43536226D01*
X206983974Y-43392063D01*
X206814456Y-43278795D01*
X206626098Y-43200774D01*
X206426139Y-43161000D01*
X206222261Y-43161000D01*
X206022302Y-43200774D01*
X205833944Y-43278795D01*
X205664426Y-43392063D01*
X205520263Y-43536226D01*
X205486000Y-43587504D01*
X205451737Y-43536226D01*
X205307574Y-43392063D01*
X205138056Y-43278795D01*
X204949698Y-43200774D01*
X204749739Y-43161000D01*
X204545861Y-43161000D01*
X204345902Y-43200774D01*
X204157544Y-43278795D01*
X203988026Y-43392063D01*
X203860400Y-43519689D01*
X203793766Y-43453055D01*
X203790270Y-41023000D01*
X203808309Y-41023000D01*
X203830223Y-41245499D01*
X203895124Y-41459447D01*
X204000516Y-41656623D01*
X204142351Y-41829449D01*
X204315177Y-41971284D01*
X204512353Y-42076676D01*
X204726301Y-42141577D01*
X204893048Y-42158000D01*
X205604552Y-42158000D01*
X205771299Y-42141577D01*
X205985247Y-42076676D01*
X206182423Y-41971284D01*
X206355249Y-41829449D01*
X206497084Y-41656623D01*
X206602476Y-41459447D01*
X206667377Y-41245499D01*
X206689291Y-41023000D01*
X207738309Y-41023000D01*
X207760223Y-41245499D01*
X207825124Y-41459447D01*
X207930516Y-41656623D01*
X208072351Y-41829449D01*
X208245177Y-41971284D01*
X208442353Y-42076676D01*
X208656301Y-42141577D01*
X208823048Y-42158000D01*
X210034552Y-42158000D01*
X210201299Y-42141577D01*
X210415247Y-42076676D01*
X210595963Y-41980082D01*
X210664795Y-42146256D01*
X210778063Y-42315774D01*
X210922226Y-42459937D01*
X211091744Y-42573205D01*
X211280102Y-42651226D01*
X211480061Y-42691000D01*
X211683939Y-42691000D01*
X211883898Y-42651226D01*
X212072256Y-42573205D01*
X212241774Y-42459937D01*
X212385937Y-42315774D01*
X212499205Y-42146256D01*
X212577226Y-41957898D01*
X212617000Y-41757939D01*
X212617000Y-41554061D01*
X212577226Y-41354102D01*
X212499205Y-41165744D01*
X212385937Y-40996226D01*
X212241774Y-40852063D01*
X212072256Y-40738795D01*
X211883898Y-40660774D01*
X211683939Y-40621000D01*
X211480061Y-40621000D01*
X211280102Y-40660774D01*
X211091744Y-40738795D01*
X211080864Y-40746065D01*
X211032476Y-40586553D01*
X210927084Y-40389377D01*
X210785249Y-40216551D01*
X210612423Y-40074716D01*
X210415247Y-39969324D01*
X210201299Y-39904423D01*
X210034552Y-39888000D01*
X209815704Y-39888000D01*
X209821908Y-39873022D01*
X209858800Y-39687552D01*
X209858800Y-39498448D01*
X209821908Y-39312978D01*
X209749541Y-39138269D01*
X209644481Y-38981036D01*
X209510764Y-38847319D01*
X209353531Y-38742259D01*
X209178822Y-38669892D01*
X208993352Y-38633000D01*
X208804248Y-38633000D01*
X208618778Y-38669892D01*
X208444069Y-38742259D01*
X208286836Y-38847319D01*
X208153119Y-38981036D01*
X208048059Y-39138269D01*
X207975692Y-39312978D01*
X207938800Y-39498448D01*
X207938800Y-39687552D01*
X207975692Y-39873022D01*
X208048059Y-40047731D01*
X208129515Y-40169638D01*
X208072351Y-40216551D01*
X207930516Y-40389377D01*
X207825124Y-40586553D01*
X207760223Y-40800501D01*
X207738309Y-41023000D01*
X206689291Y-41023000D01*
X206667377Y-40800501D01*
X206602476Y-40586553D01*
X206497084Y-40389377D01*
X206355249Y-40216551D01*
X206182423Y-40074716D01*
X205985247Y-39969324D01*
X205771299Y-39904423D01*
X205604552Y-39888000D01*
X204893048Y-39888000D01*
X204726301Y-39904423D01*
X204512353Y-39969324D01*
X204315177Y-40074716D01*
X204142351Y-40216551D01*
X204000516Y-40389377D01*
X203895124Y-40586553D01*
X203830223Y-40800501D01*
X203808309Y-41023000D01*
X203790270Y-41023000D01*
X203781935Y-35229461D01*
X204146200Y-35229461D01*
X204146200Y-35433339D01*
X204185974Y-35633298D01*
X204263995Y-35821656D01*
X204360710Y-35966400D01*
X204263995Y-36111144D01*
X204185974Y-36299502D01*
X204146200Y-36499461D01*
X204146200Y-36703339D01*
X204185974Y-36903298D01*
X204263995Y-37091656D01*
X204364924Y-37242707D01*
X204289395Y-37355744D01*
X204211374Y-37544102D01*
X204171600Y-37744061D01*
X204171600Y-37947939D01*
X204211374Y-38147898D01*
X204289395Y-38336256D01*
X204402663Y-38505774D01*
X204546826Y-38649937D01*
X204716344Y-38763205D01*
X204904702Y-38841226D01*
X205104661Y-38881000D01*
X205308539Y-38881000D01*
X205508498Y-38841226D01*
X205696856Y-38763205D01*
X205866374Y-38649937D01*
X206010537Y-38505774D01*
X206123805Y-38336256D01*
X206201826Y-38147898D01*
X206241600Y-37947939D01*
X206241600Y-37744061D01*
X206201826Y-37544102D01*
X206123805Y-37355744D01*
X206022876Y-37204693D01*
X206098405Y-37091656D01*
X206176426Y-36903298D01*
X206216200Y-36703339D01*
X206216200Y-36499461D01*
X206176426Y-36299502D01*
X206098405Y-36111144D01*
X206001690Y-35966400D01*
X206098405Y-35821656D01*
X206143801Y-35712061D01*
X216236600Y-35712061D01*
X216236600Y-35915939D01*
X216276374Y-36115898D01*
X216354395Y-36304256D01*
X216467663Y-36473774D01*
X216611826Y-36617937D01*
X216739132Y-36703000D01*
X216611826Y-36788063D01*
X216467663Y-36932226D01*
X216354395Y-37101744D01*
X216276374Y-37290102D01*
X216236600Y-37490061D01*
X216236600Y-37693939D01*
X216276374Y-37893898D01*
X216354395Y-38082256D01*
X216467663Y-38251774D01*
X216611826Y-38395937D01*
X216781344Y-38509205D01*
X216969702Y-38587226D01*
X217169661Y-38627000D01*
X217373539Y-38627000D01*
X217573498Y-38587226D01*
X217761856Y-38509205D01*
X217931374Y-38395937D01*
X218075537Y-38251774D01*
X218160600Y-38124468D01*
X218245663Y-38251774D01*
X218389826Y-38395937D01*
X218559344Y-38509205D01*
X218747702Y-38587226D01*
X218947661Y-38627000D01*
X219151539Y-38627000D01*
X219351498Y-38587226D01*
X219539856Y-38509205D01*
X219709374Y-38395937D01*
X219853537Y-38251774D01*
X219966805Y-38082256D01*
X220044826Y-37893898D01*
X220084600Y-37693939D01*
X220084600Y-37490061D01*
X220044826Y-37290102D01*
X219966805Y-37101744D01*
X219853537Y-36932226D01*
X219709374Y-36788063D01*
X219582068Y-36703000D01*
X219709374Y-36617937D01*
X219853537Y-36473774D01*
X219966805Y-36304256D01*
X220044826Y-36115898D01*
X220084600Y-35915939D01*
X220084600Y-35712061D01*
X220044826Y-35512102D01*
X219966805Y-35323744D01*
X219853537Y-35154226D01*
X219709374Y-35010063D01*
X219539856Y-34896795D01*
X219351498Y-34818774D01*
X219151539Y-34779000D01*
X218947661Y-34779000D01*
X218747702Y-34818774D01*
X218559344Y-34896795D01*
X218389826Y-35010063D01*
X218245663Y-35154226D01*
X218160600Y-35281532D01*
X218075537Y-35154226D01*
X217931374Y-35010063D01*
X217761856Y-34896795D01*
X217573498Y-34818774D01*
X217373539Y-34779000D01*
X217169661Y-34779000D01*
X216969702Y-34818774D01*
X216781344Y-34896795D01*
X216611826Y-35010063D01*
X216467663Y-35154226D01*
X216354395Y-35323744D01*
X216276374Y-35512102D01*
X216236600Y-35712061D01*
X206143801Y-35712061D01*
X206176426Y-35633298D01*
X206216200Y-35433339D01*
X206216200Y-35229461D01*
X206176426Y-35029502D01*
X206098405Y-34841144D01*
X205985137Y-34671626D01*
X205840974Y-34527463D01*
X205671456Y-34414195D01*
X205483098Y-34336174D01*
X205283139Y-34296400D01*
X205079261Y-34296400D01*
X204879302Y-34336174D01*
X204690944Y-34414195D01*
X204521426Y-34527463D01*
X204377263Y-34671626D01*
X204263995Y-34841144D01*
X204185974Y-35029502D01*
X204146200Y-35229461D01*
X203781935Y-35229461D01*
X203777839Y-32383000D01*
X203808309Y-32383000D01*
X203830223Y-32605499D01*
X203895124Y-32819447D01*
X204000516Y-33016623D01*
X204142351Y-33189449D01*
X204315177Y-33331284D01*
X204512353Y-33436676D01*
X204726301Y-33501577D01*
X204893048Y-33518000D01*
X205604552Y-33518000D01*
X205771299Y-33501577D01*
X205985247Y-33436676D01*
X206182423Y-33331284D01*
X206355249Y-33189449D01*
X206497084Y-33016623D01*
X206602476Y-32819447D01*
X206667377Y-32605499D01*
X206689291Y-32383000D01*
X207738309Y-32383000D01*
X207760223Y-32605499D01*
X207825124Y-32819447D01*
X207930516Y-33016623D01*
X208072351Y-33189449D01*
X208129515Y-33236362D01*
X208048059Y-33358269D01*
X207975692Y-33532978D01*
X207938800Y-33718448D01*
X207938800Y-33907552D01*
X207975692Y-34093022D01*
X208048059Y-34267731D01*
X208153119Y-34424964D01*
X208286836Y-34558681D01*
X208444069Y-34663741D01*
X208618778Y-34736108D01*
X208804248Y-34773000D01*
X208993352Y-34773000D01*
X209178822Y-34736108D01*
X209353531Y-34663741D01*
X209510764Y-34558681D01*
X209644481Y-34424964D01*
X209749541Y-34267731D01*
X209750978Y-34264261D01*
X222586600Y-34264261D01*
X222586600Y-34468139D01*
X222626374Y-34668098D01*
X222704395Y-34856456D01*
X222729149Y-34893503D01*
X222651774Y-35080302D01*
X222612000Y-35280261D01*
X222612000Y-35484139D01*
X222651774Y-35684098D01*
X222729795Y-35872456D01*
X222733165Y-35877500D01*
X222729795Y-35882544D01*
X222651774Y-36070902D01*
X222612000Y-36270861D01*
X222612000Y-36474739D01*
X222651774Y-36674698D01*
X222729795Y-36863056D01*
X222843063Y-37032574D01*
X222987226Y-37176737D01*
X223156744Y-37290005D01*
X223345102Y-37368026D01*
X223545061Y-37407800D01*
X223748939Y-37407800D01*
X223948898Y-37368026D01*
X224137256Y-37290005D01*
X224306774Y-37176737D01*
X224450937Y-37032574D01*
X224564205Y-36863056D01*
X224642226Y-36674698D01*
X224682000Y-36474739D01*
X224682000Y-36270861D01*
X224642226Y-36070902D01*
X224564205Y-35882544D01*
X224560835Y-35877500D01*
X224564205Y-35872456D01*
X224642226Y-35684098D01*
X224682000Y-35484139D01*
X224682000Y-35280261D01*
X224642226Y-35080302D01*
X224564205Y-34891944D01*
X224539451Y-34854897D01*
X224616826Y-34668098D01*
X224656600Y-34468139D01*
X224656600Y-34264261D01*
X224616826Y-34064302D01*
X224538805Y-33875944D01*
X224425537Y-33706426D01*
X224281374Y-33562263D01*
X224111856Y-33448995D01*
X223923498Y-33370974D01*
X223723539Y-33331200D01*
X223519661Y-33331200D01*
X223319702Y-33370974D01*
X223131344Y-33448995D01*
X222961826Y-33562263D01*
X222817663Y-33706426D01*
X222704395Y-33875944D01*
X222626374Y-34064302D01*
X222586600Y-34264261D01*
X209750978Y-34264261D01*
X209821908Y-34093022D01*
X209858800Y-33907552D01*
X209858800Y-33718448D01*
X209821908Y-33532978D01*
X209815704Y-33518000D01*
X210034552Y-33518000D01*
X210201299Y-33501577D01*
X210415247Y-33436676D01*
X210612423Y-33331284D01*
X210785249Y-33189449D01*
X210927084Y-33016623D01*
X211032476Y-32819447D01*
X211097377Y-32605499D01*
X211119291Y-32383000D01*
X211097377Y-32160501D01*
X211032476Y-31946553D01*
X210927084Y-31749377D01*
X210785249Y-31576551D01*
X210612423Y-31434716D01*
X210415247Y-31329324D01*
X210201299Y-31264423D01*
X210034552Y-31248000D01*
X208823048Y-31248000D01*
X208656301Y-31264423D01*
X208442353Y-31329324D01*
X208245177Y-31434716D01*
X208072351Y-31576551D01*
X207930516Y-31749377D01*
X207825124Y-31946553D01*
X207760223Y-32160501D01*
X207738309Y-32383000D01*
X206689291Y-32383000D01*
X206667377Y-32160501D01*
X206602476Y-31946553D01*
X206497084Y-31749377D01*
X206355249Y-31576551D01*
X206182423Y-31434716D01*
X205985247Y-31329324D01*
X205771299Y-31264423D01*
X205604552Y-31248000D01*
X204893048Y-31248000D01*
X204726301Y-31264423D01*
X204512353Y-31329324D01*
X204315177Y-31434716D01*
X204142351Y-31576551D01*
X204000516Y-31749377D01*
X203895124Y-31946553D01*
X203830223Y-32160501D01*
X203808309Y-32383000D01*
X203777839Y-32383000D01*
X203775795Y-30962261D01*
X212045600Y-30962261D01*
X212045600Y-31166139D01*
X212085374Y-31366098D01*
X212163395Y-31554456D01*
X212276663Y-31723974D01*
X212420826Y-31868137D01*
X212590344Y-31981405D01*
X212778702Y-32059426D01*
X212978661Y-32099200D01*
X213182539Y-32099200D01*
X213382498Y-32059426D01*
X213570856Y-31981405D01*
X213740374Y-31868137D01*
X213884537Y-31723974D01*
X213997805Y-31554456D01*
X214075826Y-31366098D01*
X214115600Y-31166139D01*
X214115600Y-30962261D01*
X214075826Y-30762302D01*
X213997805Y-30573944D01*
X213884537Y-30404426D01*
X213740374Y-30260263D01*
X213570856Y-30146995D01*
X213382498Y-30068974D01*
X213182539Y-30029200D01*
X212978661Y-30029200D01*
X212778702Y-30068974D01*
X212590344Y-30146995D01*
X212420826Y-30260263D01*
X212276663Y-30404426D01*
X212163395Y-30573944D01*
X212085374Y-30762302D01*
X212045600Y-30962261D01*
X203775795Y-30962261D01*
X203772295Y-28530575D01*
X204197159Y-28105100D01*
X215483316Y-28105100D01*
X215200402Y-28294137D01*
G37*
%TD.AperFunction*%
%TD*%
D16*
%TO.N,+BATT*%
X210585283Y-56564456D02*
X211010492Y-56991208D01*
X211010446Y-57029887D01*
X211012857Y-57054666D01*
X211020056Y-57078499D01*
X211031766Y-57100469D01*
X211047557Y-57119753D01*
X211546961Y-57620117D01*
X211566191Y-57635930D01*
X211588137Y-57647687D01*
X211611954Y-57654937D01*
X211636758Y-57657401D01*
X230582904Y-57671197D01*
X230565400Y-57759193D01*
X230565400Y-57912407D01*
X230595291Y-58062676D01*
X230653923Y-58204226D01*
X230739044Y-58331618D01*
X230829651Y-58422225D01*
X230720774Y-58467323D01*
X230593382Y-58552444D01*
X230485044Y-58660782D01*
X230399923Y-58788174D01*
X230341291Y-58929724D01*
X230311400Y-59079993D01*
X230311400Y-59233207D01*
X230341291Y-59383476D01*
X230399923Y-59525026D01*
X230485044Y-59652418D01*
X230593382Y-59760756D01*
X230720774Y-59845877D01*
X230862324Y-59904509D01*
X231012593Y-59934400D01*
X231165807Y-59934400D01*
X231316076Y-59904509D01*
X231457626Y-59845877D01*
X231585018Y-59760756D01*
X231693356Y-59652418D01*
X231778477Y-59525026D01*
X231837109Y-59383476D01*
X231851200Y-59312637D01*
X231865291Y-59383476D01*
X231923923Y-59525026D01*
X232009044Y-59652418D01*
X232117382Y-59760756D01*
X232244774Y-59845877D01*
X232386324Y-59904509D01*
X232536593Y-59934400D01*
X232689807Y-59934400D01*
X232840076Y-59904509D01*
X232981626Y-59845877D01*
X233109018Y-59760756D01*
X233217356Y-59652418D01*
X233302477Y-59525026D01*
X233361109Y-59383476D01*
X233375200Y-59312637D01*
X233389291Y-59383476D01*
X233447923Y-59525026D01*
X233533044Y-59652418D01*
X233641382Y-59760756D01*
X233768774Y-59845877D01*
X233910324Y-59904509D01*
X234060593Y-59934400D01*
X234213807Y-59934400D01*
X234364076Y-59904509D01*
X234505626Y-59845877D01*
X234633018Y-59760756D01*
X234741356Y-59652418D01*
X234826477Y-59525026D01*
X234867450Y-59426109D01*
X234908423Y-59525026D01*
X234993544Y-59652418D01*
X235101882Y-59760756D01*
X235229274Y-59845877D01*
X235370824Y-59904509D01*
X235521093Y-59934400D01*
X235674307Y-59934400D01*
X235824576Y-59904509D01*
X235966126Y-59845877D01*
X236093518Y-59760756D01*
X236201856Y-59652418D01*
X236286977Y-59525026D01*
X236345609Y-59383476D01*
X236359700Y-59312637D01*
X236373791Y-59383476D01*
X236432423Y-59525026D01*
X236517544Y-59652418D01*
X236625882Y-59760756D01*
X236753274Y-59845877D01*
X236894824Y-59904509D01*
X237045093Y-59934400D01*
X237198307Y-59934400D01*
X237348576Y-59904509D01*
X237490126Y-59845877D01*
X237617518Y-59760756D01*
X237725856Y-59652418D01*
X237810977Y-59525026D01*
X237869609Y-59383476D01*
X237899500Y-59233207D01*
X237899500Y-59079993D01*
X237869609Y-58929724D01*
X237810977Y-58788174D01*
X237725856Y-58660782D01*
X237617518Y-58552444D01*
X237490126Y-58467323D01*
X237348576Y-58408691D01*
X237198307Y-58378800D01*
X237045093Y-58378800D01*
X236894824Y-58408691D01*
X236753274Y-58467323D01*
X236625882Y-58552444D01*
X236517544Y-58660782D01*
X236432423Y-58788174D01*
X236373791Y-58929724D01*
X236359700Y-59000563D01*
X236345609Y-58929724D01*
X236286977Y-58788174D01*
X236201856Y-58660782D01*
X236093518Y-58552444D01*
X235966126Y-58467323D01*
X235824576Y-58408691D01*
X235674307Y-58378800D01*
X235521093Y-58378800D01*
X235370824Y-58408691D01*
X235229274Y-58467323D01*
X235101882Y-58552444D01*
X234993544Y-58660782D01*
X234908423Y-58788174D01*
X234867450Y-58887091D01*
X234826477Y-58788174D01*
X234741356Y-58660782D01*
X234633018Y-58552444D01*
X234505626Y-58467323D01*
X234364076Y-58408691D01*
X234213807Y-58378800D01*
X234060593Y-58378800D01*
X233910324Y-58408691D01*
X233768774Y-58467323D01*
X233641382Y-58552444D01*
X233533044Y-58660782D01*
X233447923Y-58788174D01*
X233389291Y-58929724D01*
X233375200Y-59000563D01*
X233361109Y-58929724D01*
X233302477Y-58788174D01*
X233217356Y-58660782D01*
X233109018Y-58552444D01*
X232981626Y-58467323D01*
X232840076Y-58408691D01*
X232689807Y-58378800D01*
X232536593Y-58378800D01*
X232386324Y-58408691D01*
X232244774Y-58467323D01*
X232117382Y-58552444D01*
X232009044Y-58660782D01*
X231923923Y-58788174D01*
X231865291Y-58929724D01*
X231851200Y-59000563D01*
X231837109Y-58929724D01*
X231778477Y-58788174D01*
X231693356Y-58660782D01*
X231602749Y-58570175D01*
X231711626Y-58525077D01*
X231839018Y-58439956D01*
X231947356Y-58331618D01*
X232032477Y-58204226D01*
X232091109Y-58062676D01*
X232121000Y-57912407D01*
X232121000Y-57759193D01*
X232103716Y-57672305D01*
X241339089Y-57679029D01*
X241426874Y-57737686D01*
X241568424Y-57796318D01*
X241718693Y-57826209D01*
X241871907Y-57826209D01*
X242022176Y-57796318D01*
X242163726Y-57737686D01*
X242250518Y-57679693D01*
X246511332Y-57682796D01*
X246595392Y-57766856D01*
X246641219Y-57797477D01*
X246581413Y-57837438D01*
X246473075Y-57945776D01*
X246387954Y-58073168D01*
X246329322Y-58214718D01*
X246299431Y-58364987D01*
X246299431Y-58518201D01*
X246329322Y-58668470D01*
X246387954Y-58810020D01*
X246473075Y-58937412D01*
X246581413Y-59045750D01*
X246708805Y-59130871D01*
X246850355Y-59189503D01*
X246969668Y-59213236D01*
X246864324Y-59234191D01*
X246722774Y-59292823D01*
X246595382Y-59377944D01*
X246487044Y-59486282D01*
X246401923Y-59613674D01*
X246343291Y-59755224D01*
X246313400Y-59905493D01*
X246313400Y-60058707D01*
X246343291Y-60208976D01*
X246401923Y-60350526D01*
X246487044Y-60477918D01*
X246595382Y-60586256D01*
X246722774Y-60671377D01*
X246864324Y-60730009D01*
X247014593Y-60759900D01*
X247167807Y-60759900D01*
X247217149Y-60750085D01*
X247217778Y-61574031D01*
X246792371Y-62000698D01*
X242120266Y-62010950D01*
X242040857Y-61945781D01*
X241897257Y-61869025D01*
X241741442Y-61821759D01*
X241620002Y-61809798D01*
X241619999Y-61809798D01*
X241579400Y-61805799D01*
X241538801Y-61809798D01*
X226405399Y-61809798D01*
X226364800Y-61805799D01*
X226324201Y-61809798D01*
X206730090Y-61809798D01*
X205859323Y-60939032D01*
X205854753Y-59467000D01*
X207149469Y-59467000D01*
X207168348Y-59658682D01*
X207224260Y-59842998D01*
X207315055Y-60012865D01*
X207437246Y-60161754D01*
X207586135Y-60283945D01*
X207756002Y-60374740D01*
X207940318Y-60430652D01*
X208083965Y-60444800D01*
X208730035Y-60444800D01*
X208873682Y-60430652D01*
X209057998Y-60374740D01*
X209227865Y-60283945D01*
X209376754Y-60161754D01*
X209498945Y-60012865D01*
X209589740Y-59842998D01*
X209645652Y-59658682D01*
X209664531Y-59467000D01*
X209645652Y-59275318D01*
X209589740Y-59091002D01*
X209498945Y-58921135D01*
X209376754Y-58772246D01*
X209227865Y-58650055D01*
X209057998Y-58559260D01*
X208873682Y-58503348D01*
X208730035Y-58489200D01*
X208083965Y-58489200D01*
X207940318Y-58503348D01*
X207756002Y-58559260D01*
X207586135Y-58650055D01*
X207437246Y-58772246D01*
X207315055Y-58921135D01*
X207224260Y-59091002D01*
X207168348Y-59275318D01*
X207149469Y-59467000D01*
X205854753Y-59467000D01*
X205847024Y-56978032D01*
X206270810Y-56553961D01*
X210585283Y-56564456D01*
%TA.AperFunction,Conductor*%
D17*
G36*
X210585283Y-56564456D02*
G01*
X211010492Y-56991208D01*
X211010446Y-57029887D01*
X211012857Y-57054666D01*
X211020056Y-57078499D01*
X211031766Y-57100469D01*
X211047557Y-57119753D01*
X211546961Y-57620117D01*
X211566191Y-57635930D01*
X211588137Y-57647687D01*
X211611954Y-57654937D01*
X211636758Y-57657401D01*
X230582904Y-57671197D01*
X230565400Y-57759193D01*
X230565400Y-57912407D01*
X230595291Y-58062676D01*
X230653923Y-58204226D01*
X230739044Y-58331618D01*
X230829651Y-58422225D01*
X230720774Y-58467323D01*
X230593382Y-58552444D01*
X230485044Y-58660782D01*
X230399923Y-58788174D01*
X230341291Y-58929724D01*
X230311400Y-59079993D01*
X230311400Y-59233207D01*
X230341291Y-59383476D01*
X230399923Y-59525026D01*
X230485044Y-59652418D01*
X230593382Y-59760756D01*
X230720774Y-59845877D01*
X230862324Y-59904509D01*
X231012593Y-59934400D01*
X231165807Y-59934400D01*
X231316076Y-59904509D01*
X231457626Y-59845877D01*
X231585018Y-59760756D01*
X231693356Y-59652418D01*
X231778477Y-59525026D01*
X231837109Y-59383476D01*
X231851200Y-59312637D01*
X231865291Y-59383476D01*
X231923923Y-59525026D01*
X232009044Y-59652418D01*
X232117382Y-59760756D01*
X232244774Y-59845877D01*
X232386324Y-59904509D01*
X232536593Y-59934400D01*
X232689807Y-59934400D01*
X232840076Y-59904509D01*
X232981626Y-59845877D01*
X233109018Y-59760756D01*
X233217356Y-59652418D01*
X233302477Y-59525026D01*
X233361109Y-59383476D01*
X233375200Y-59312637D01*
X233389291Y-59383476D01*
X233447923Y-59525026D01*
X233533044Y-59652418D01*
X233641382Y-59760756D01*
X233768774Y-59845877D01*
X233910324Y-59904509D01*
X234060593Y-59934400D01*
X234213807Y-59934400D01*
X234364076Y-59904509D01*
X234505626Y-59845877D01*
X234633018Y-59760756D01*
X234741356Y-59652418D01*
X234826477Y-59525026D01*
X234867450Y-59426109D01*
X234908423Y-59525026D01*
X234993544Y-59652418D01*
X235101882Y-59760756D01*
X235229274Y-59845877D01*
X235370824Y-59904509D01*
X235521093Y-59934400D01*
X235674307Y-59934400D01*
X235824576Y-59904509D01*
X235966126Y-59845877D01*
X236093518Y-59760756D01*
X236201856Y-59652418D01*
X236286977Y-59525026D01*
X236345609Y-59383476D01*
X236359700Y-59312637D01*
X236373791Y-59383476D01*
X236432423Y-59525026D01*
X236517544Y-59652418D01*
X236625882Y-59760756D01*
X236753274Y-59845877D01*
X236894824Y-59904509D01*
X237045093Y-59934400D01*
X237198307Y-59934400D01*
X237348576Y-59904509D01*
X237490126Y-59845877D01*
X237617518Y-59760756D01*
X237725856Y-59652418D01*
X237810977Y-59525026D01*
X237869609Y-59383476D01*
X237899500Y-59233207D01*
X237899500Y-59079993D01*
X237869609Y-58929724D01*
X237810977Y-58788174D01*
X237725856Y-58660782D01*
X237617518Y-58552444D01*
X237490126Y-58467323D01*
X237348576Y-58408691D01*
X237198307Y-58378800D01*
X237045093Y-58378800D01*
X236894824Y-58408691D01*
X236753274Y-58467323D01*
X236625882Y-58552444D01*
X236517544Y-58660782D01*
X236432423Y-58788174D01*
X236373791Y-58929724D01*
X236359700Y-59000563D01*
X236345609Y-58929724D01*
X236286977Y-58788174D01*
X236201856Y-58660782D01*
X236093518Y-58552444D01*
X235966126Y-58467323D01*
X235824576Y-58408691D01*
X235674307Y-58378800D01*
X235521093Y-58378800D01*
X235370824Y-58408691D01*
X235229274Y-58467323D01*
X235101882Y-58552444D01*
X234993544Y-58660782D01*
X234908423Y-58788174D01*
X234867450Y-58887091D01*
X234826477Y-58788174D01*
X234741356Y-58660782D01*
X234633018Y-58552444D01*
X234505626Y-58467323D01*
X234364076Y-58408691D01*
X234213807Y-58378800D01*
X234060593Y-58378800D01*
X233910324Y-58408691D01*
X233768774Y-58467323D01*
X233641382Y-58552444D01*
X233533044Y-58660782D01*
X233447923Y-58788174D01*
X233389291Y-58929724D01*
X233375200Y-59000563D01*
X233361109Y-58929724D01*
X233302477Y-58788174D01*
X233217356Y-58660782D01*
X233109018Y-58552444D01*
X232981626Y-58467323D01*
X232840076Y-58408691D01*
X232689807Y-58378800D01*
X232536593Y-58378800D01*
X232386324Y-58408691D01*
X232244774Y-58467323D01*
X232117382Y-58552444D01*
X232009044Y-58660782D01*
X231923923Y-58788174D01*
X231865291Y-58929724D01*
X231851200Y-59000563D01*
X231837109Y-58929724D01*
X231778477Y-58788174D01*
X231693356Y-58660782D01*
X231602749Y-58570175D01*
X231711626Y-58525077D01*
X231839018Y-58439956D01*
X231947356Y-58331618D01*
X232032477Y-58204226D01*
X232091109Y-58062676D01*
X232121000Y-57912407D01*
X232121000Y-57759193D01*
X232103716Y-57672305D01*
X241339089Y-57679029D01*
X241426874Y-57737686D01*
X241568424Y-57796318D01*
X241718693Y-57826209D01*
X241871907Y-57826209D01*
X242022176Y-57796318D01*
X242163726Y-57737686D01*
X242250518Y-57679693D01*
X246511332Y-57682796D01*
X246595392Y-57766856D01*
X246641219Y-57797477D01*
X246581413Y-57837438D01*
X246473075Y-57945776D01*
X246387954Y-58073168D01*
X246329322Y-58214718D01*
X246299431Y-58364987D01*
X246299431Y-58518201D01*
X246329322Y-58668470D01*
X246387954Y-58810020D01*
X246473075Y-58937412D01*
X246581413Y-59045750D01*
X246708805Y-59130871D01*
X246850355Y-59189503D01*
X246969668Y-59213236D01*
X246864324Y-59234191D01*
X246722774Y-59292823D01*
X246595382Y-59377944D01*
X246487044Y-59486282D01*
X246401923Y-59613674D01*
X246343291Y-59755224D01*
X246313400Y-59905493D01*
X246313400Y-60058707D01*
X246343291Y-60208976D01*
X246401923Y-60350526D01*
X246487044Y-60477918D01*
X246595382Y-60586256D01*
X246722774Y-60671377D01*
X246864324Y-60730009D01*
X247014593Y-60759900D01*
X247167807Y-60759900D01*
X247217149Y-60750085D01*
X247217778Y-61574031D01*
X246792371Y-62000698D01*
X242120266Y-62010950D01*
X242040857Y-61945781D01*
X241897257Y-61869025D01*
X241741442Y-61821759D01*
X241620002Y-61809798D01*
X241619999Y-61809798D01*
X241579400Y-61805799D01*
X241538801Y-61809798D01*
X226405399Y-61809798D01*
X226364800Y-61805799D01*
X226324201Y-61809798D01*
X206730090Y-61809798D01*
X205859323Y-60939032D01*
X205854753Y-59467000D01*
X207149469Y-59467000D01*
X207168348Y-59658682D01*
X207224260Y-59842998D01*
X207315055Y-60012865D01*
X207437246Y-60161754D01*
X207586135Y-60283945D01*
X207756002Y-60374740D01*
X207940318Y-60430652D01*
X208083965Y-60444800D01*
X208730035Y-60444800D01*
X208873682Y-60430652D01*
X209057998Y-60374740D01*
X209227865Y-60283945D01*
X209376754Y-60161754D01*
X209498945Y-60012865D01*
X209589740Y-59842998D01*
X209645652Y-59658682D01*
X209664531Y-59467000D01*
X209645652Y-59275318D01*
X209589740Y-59091002D01*
X209498945Y-58921135D01*
X209376754Y-58772246D01*
X209227865Y-58650055D01*
X209057998Y-58559260D01*
X208873682Y-58503348D01*
X208730035Y-58489200D01*
X208083965Y-58489200D01*
X207940318Y-58503348D01*
X207756002Y-58559260D01*
X207586135Y-58650055D01*
X207437246Y-58772246D01*
X207315055Y-58921135D01*
X207224260Y-59091002D01*
X207168348Y-59275318D01*
X207149469Y-59467000D01*
X205854753Y-59467000D01*
X205847024Y-56978032D01*
X206270810Y-56553961D01*
X210585283Y-56564456D01*
G37*
%TD.AperFunction*%
%TD*%
M02*
