G04 #@! TF.GenerationSoftware,KiCad,Pcbnew,(5.1.9)-1*
G04 #@! TF.CreationDate,2021-09-16T20:09:32-07:00*
G04 #@! TF.ProjectId,AtlasPD,41746c61-7350-4442-9e6b-696361645f70,rev?*
G04 #@! TF.SameCoordinates,Original*
G04 #@! TF.FileFunction,Legend,Bot*
G04 #@! TF.FilePolarity,Positive*
%FSLAX46Y46*%
G04 Gerber Fmt 4.6, Leading zero omitted, Abs format (unit mm)*
G04 Created by KiCad (PCBNEW (5.1.9)-1) date 2021-09-16 20:09:32*
%MOMM*%
%LPD*%
G01*
G04 APERTURE LIST*
%ADD10C,0.150000*%
G04 APERTURE END LIST*
D10*
X57959047Y-34885380D02*
X57959047Y-35599666D01*
X58006666Y-35742523D01*
X58101904Y-35837761D01*
X58244761Y-35885380D01*
X58340000Y-35885380D01*
X57006666Y-35885380D02*
X57482857Y-35885380D01*
X57482857Y-34885380D01*
X56101904Y-35790142D02*
X56149523Y-35837761D01*
X56292380Y-35885380D01*
X56387619Y-35885380D01*
X56530476Y-35837761D01*
X56625714Y-35742523D01*
X56673333Y-35647285D01*
X56720952Y-35456809D01*
X56720952Y-35313952D01*
X56673333Y-35123476D01*
X56625714Y-35028238D01*
X56530476Y-34933000D01*
X56387619Y-34885380D01*
X56292380Y-34885380D01*
X56149523Y-34933000D01*
X56101904Y-34980619D01*
X55387619Y-34885380D02*
X55387619Y-35599666D01*
X55435238Y-35742523D01*
X55530476Y-35837761D01*
X55673333Y-35885380D01*
X55768571Y-35885380D01*
X54435238Y-35885380D02*
X54911428Y-35885380D01*
X54911428Y-34885380D01*
X53530476Y-35790142D02*
X53578095Y-35837761D01*
X53720952Y-35885380D01*
X53816190Y-35885380D01*
X53959047Y-35837761D01*
X54054285Y-35742523D01*
X54101904Y-35647285D01*
X54149523Y-35456809D01*
X54149523Y-35313952D01*
X54101904Y-35123476D01*
X54054285Y-35028238D01*
X53959047Y-34933000D01*
X53816190Y-34885380D01*
X53720952Y-34885380D01*
X53578095Y-34933000D01*
X53530476Y-34980619D01*
X52816190Y-34885380D02*
X52816190Y-35599666D01*
X52863809Y-35742523D01*
X52959047Y-35837761D01*
X53101904Y-35885380D01*
X53197142Y-35885380D01*
X51863809Y-35885380D02*
X52340000Y-35885380D01*
X52340000Y-34885380D01*
X50959047Y-35790142D02*
X51006666Y-35837761D01*
X51149523Y-35885380D01*
X51244761Y-35885380D01*
X51387619Y-35837761D01*
X51482857Y-35742523D01*
X51530476Y-35647285D01*
X51578095Y-35456809D01*
X51578095Y-35313952D01*
X51530476Y-35123476D01*
X51482857Y-35028238D01*
X51387619Y-34933000D01*
X51244761Y-34885380D01*
X51149523Y-34885380D01*
X51006666Y-34933000D01*
X50959047Y-34980619D01*
X50244761Y-34885380D02*
X50244761Y-35599666D01*
X50292380Y-35742523D01*
X50387619Y-35837761D01*
X50530476Y-35885380D01*
X50625714Y-35885380D01*
X49292380Y-35885380D02*
X49768571Y-35885380D01*
X49768571Y-34885380D01*
X48387619Y-35790142D02*
X48435238Y-35837761D01*
X48578095Y-35885380D01*
X48673333Y-35885380D01*
X48816190Y-35837761D01*
X48911428Y-35742523D01*
X48959047Y-35647285D01*
X49006666Y-35456809D01*
X49006666Y-35313952D01*
X48959047Y-35123476D01*
X48911428Y-35028238D01*
X48816190Y-34933000D01*
X48673333Y-34885380D01*
X48578095Y-34885380D01*
X48435238Y-34933000D01*
X48387619Y-34980619D01*
M02*
