M48
; DRILL file {KiCad (5.1.9)-1} date 09/16/21 20:09:27
; FORMAT={-:-/ absolute / metric / decimal}
; #@! TF.CreationDate,2021-09-16T20:09:27-07:00
; #@! TF.GenerationSoftware,Kicad,Pcbnew,(5.1.9)-1
FMAT,2
METRIC
T1C0.400
T2C0.800
T3C1.000
T4C1.200
T5C2.200
%
G90
G05
T1
X23.673Y-19.05
X23.673Y-26.111
X23.673Y-29.261
X27.127Y-19.05
X30.886Y-19.05
X30.886Y-34.188
X34.544Y-19.05
X34.544Y-34.188
X34.671Y-27.114
X35.204Y-30.937
X35.623Y-22.606
X38.049Y-19.05
X38.049Y-34.188
X39.878Y-32.004
X41.656Y-19.05
X41.656Y-34.188
X43.434Y-21.336
X43.434Y-23.368
X43.434Y-25.603
X43.434Y-27.686
X43.434Y-29.921
X43.434Y-32.004
X45.212Y-19.05
X45.263Y-34.188
X47.092Y-32.004
X48.87Y-19.05
X48.87Y-34.188
X50.749Y-21.336
X50.749Y-29.261
X50.749Y-32.004
X52.476Y-19.05
X52.476Y-34.188
X54.292Y-32.004
X56.083Y-34.188
T2
X28.854Y-27.508
X28.854Y-30.008
X52.07Y-23.368
X52.07Y-25.868
T3
X26.975Y-21.311
X26.975Y-23.851
X57.15Y-27.432
X57.15Y-29.972
T4
X40.64Y-22.098
X40.64Y-24.638
X40.64Y-27.178
X40.64Y-29.718
X45.72Y-23.368
X45.72Y-25.908
X45.72Y-28.448
T5
X24.841Y-34.29
X56.896Y-20.574
T0
M30
