G04 #@! TF.GenerationSoftware,KiCad,Pcbnew,(5.1.9)-1*
G04 #@! TF.CreationDate,2021-09-16T20:09:32-07:00*
G04 #@! TF.ProjectId,AtlasPD,41746c61-7350-4442-9e6b-696361645f70,rev?*
G04 #@! TF.SameCoordinates,Original*
G04 #@! TF.FileFunction,Copper,L1,Top*
G04 #@! TF.FilePolarity,Positive*
%FSLAX46Y46*%
G04 Gerber Fmt 4.6, Leading zero omitted, Abs format (unit mm)*
G04 Created by KiCad (PCBNEW (5.1.9)-1) date 2021-09-16 20:09:32*
%MOMM*%
%LPD*%
G01*
G04 APERTURE LIST*
G04 #@! TA.AperFunction,SMDPad,CuDef*
%ADD10R,1.400000X2.100000*%
G04 #@! TD*
G04 #@! TA.AperFunction,SMDPad,CuDef*
%ADD11R,1.200000X2.000000*%
G04 #@! TD*
G04 #@! TA.AperFunction,ComponentPad*
%ADD12R,1.600000X1.600000*%
G04 #@! TD*
G04 #@! TA.AperFunction,ComponentPad*
%ADD13C,1.600000*%
G04 #@! TD*
G04 #@! TA.AperFunction,ComponentPad*
%ADD14R,1.700000X1.700000*%
G04 #@! TD*
G04 #@! TA.AperFunction,ComponentPad*
%ADD15O,1.700000X1.700000*%
G04 #@! TD*
G04 #@! TA.AperFunction,ComponentPad*
%ADD16R,1.800000X1.800000*%
G04 #@! TD*
G04 #@! TA.AperFunction,ComponentPad*
%ADD17C,1.800000*%
G04 #@! TD*
G04 #@! TA.AperFunction,ViaPad*
%ADD18C,0.800000*%
G04 #@! TD*
G04 #@! TA.AperFunction,Conductor*
%ADD19C,0.897604*%
G04 #@! TD*
G04 #@! TA.AperFunction,Conductor*
%ADD20C,0.500000*%
G04 #@! TD*
G04 #@! TA.AperFunction,Conductor*
%ADD21C,0.250000*%
G04 #@! TD*
G04 #@! TA.AperFunction,Conductor*
%ADD22C,0.254000*%
G04 #@! TD*
G04 #@! TA.AperFunction,Conductor*
%ADD23C,0.100000*%
G04 #@! TD*
G04 APERTURE END LIST*
D10*
X33436200Y-21920200D03*
X37836200Y-21920200D03*
D11*
X35509000Y-25247600D03*
X32309000Y-25247600D03*
D12*
X52070000Y-23368000D03*
D13*
X52070000Y-25868000D03*
G04 #@! TA.AperFunction,SMDPad,CuDef*
G36*
G01*
X54790000Y-28481000D02*
X54790000Y-29431000D01*
G75*
G02*
X54540000Y-29681000I-250000J0D01*
G01*
X54040000Y-29681000D01*
G75*
G02*
X53790000Y-29431000I0J250000D01*
G01*
X53790000Y-28481000D01*
G75*
G02*
X54040000Y-28231000I250000J0D01*
G01*
X54540000Y-28231000D01*
G75*
G02*
X54790000Y-28481000I0J-250000D01*
G01*
G37*
G04 #@! TD.AperFunction*
G04 #@! TA.AperFunction,SMDPad,CuDef*
G36*
G01*
X52890000Y-28481000D02*
X52890000Y-29431000D01*
G75*
G02*
X52640000Y-29681000I-250000J0D01*
G01*
X52140000Y-29681000D01*
G75*
G02*
X51890000Y-29431000I0J250000D01*
G01*
X51890000Y-28481000D01*
G75*
G02*
X52140000Y-28231000I250000J0D01*
G01*
X52640000Y-28231000D01*
G75*
G02*
X52890000Y-28481000I0J-250000D01*
G01*
G37*
G04 #@! TD.AperFunction*
G04 #@! TA.AperFunction,SMDPad,CuDef*
G36*
G01*
X37345600Y-25885600D02*
X38295600Y-25885600D01*
G75*
G02*
X38545600Y-26135600I0J-250000D01*
G01*
X38545600Y-26635600D01*
G75*
G02*
X38295600Y-26885600I-250000J0D01*
G01*
X37345600Y-26885600D01*
G75*
G02*
X37095600Y-26635600I0J250000D01*
G01*
X37095600Y-26135600D01*
G75*
G02*
X37345600Y-25885600I250000J0D01*
G01*
G37*
G04 #@! TD.AperFunction*
G04 #@! TA.AperFunction,SMDPad,CuDef*
G36*
G01*
X37345600Y-23985600D02*
X38295600Y-23985600D01*
G75*
G02*
X38545600Y-24235600I0J-250000D01*
G01*
X38545600Y-24735600D01*
G75*
G02*
X38295600Y-24985600I-250000J0D01*
G01*
X37345600Y-24985600D01*
G75*
G02*
X37095600Y-24735600I0J250000D01*
G01*
X37095600Y-24235600D01*
G75*
G02*
X37345600Y-23985600I250000J0D01*
G01*
G37*
G04 #@! TD.AperFunction*
G04 #@! TA.AperFunction,SMDPad,CuDef*
G36*
G01*
X30548600Y-21673400D02*
X29598600Y-21673400D01*
G75*
G02*
X29348600Y-21423400I0J250000D01*
G01*
X29348600Y-20923400D01*
G75*
G02*
X29598600Y-20673400I250000J0D01*
G01*
X30548600Y-20673400D01*
G75*
G02*
X30798600Y-20923400I0J-250000D01*
G01*
X30798600Y-21423400D01*
G75*
G02*
X30548600Y-21673400I-250000J0D01*
G01*
G37*
G04 #@! TD.AperFunction*
G04 #@! TA.AperFunction,SMDPad,CuDef*
G36*
G01*
X30548600Y-23573400D02*
X29598600Y-23573400D01*
G75*
G02*
X29348600Y-23323400I0J250000D01*
G01*
X29348600Y-22823400D01*
G75*
G02*
X29598600Y-22573400I250000J0D01*
G01*
X30548600Y-22573400D01*
G75*
G02*
X30798600Y-22823400I0J-250000D01*
G01*
X30798600Y-23323400D01*
G75*
G02*
X30548600Y-23573400I-250000J0D01*
G01*
G37*
G04 #@! TD.AperFunction*
X28854400Y-30008200D03*
D12*
X28854400Y-27508200D03*
D14*
X57150000Y-27432000D03*
D15*
X57150000Y-29972000D03*
X26974800Y-23850600D03*
D14*
X26974800Y-21310600D03*
G04 #@! TA.AperFunction,SMDPad,CuDef*
G36*
G01*
X33322200Y-28974201D02*
X33322200Y-28074199D01*
G75*
G02*
X33572199Y-27824200I249999J0D01*
G01*
X34097201Y-27824200D01*
G75*
G02*
X34347200Y-28074199I0J-249999D01*
G01*
X34347200Y-28974201D01*
G75*
G02*
X34097201Y-29224200I-249999J0D01*
G01*
X33572199Y-29224200D01*
G75*
G02*
X33322200Y-28974201I0J249999D01*
G01*
G37*
G04 #@! TD.AperFunction*
G04 #@! TA.AperFunction,SMDPad,CuDef*
G36*
G01*
X35147200Y-28974201D02*
X35147200Y-28074199D01*
G75*
G02*
X35397199Y-27824200I249999J0D01*
G01*
X35922201Y-27824200D01*
G75*
G02*
X36172200Y-28074199I0J-249999D01*
G01*
X36172200Y-28974201D01*
G75*
G02*
X35922201Y-29224200I-249999J0D01*
G01*
X35397199Y-29224200D01*
G75*
G02*
X35147200Y-28974201I0J249999D01*
G01*
G37*
G04 #@! TD.AperFunction*
G04 #@! TA.AperFunction,SMDPad,CuDef*
G36*
G01*
X37370599Y-29610000D02*
X38270601Y-29610000D01*
G75*
G02*
X38520600Y-29859999I0J-249999D01*
G01*
X38520600Y-30385001D01*
G75*
G02*
X38270601Y-30635000I-249999J0D01*
G01*
X37370599Y-30635000D01*
G75*
G02*
X37120600Y-30385001I0J249999D01*
G01*
X37120600Y-29859999D01*
G75*
G02*
X37370599Y-29610000I249999J0D01*
G01*
G37*
G04 #@! TD.AperFunction*
G04 #@! TA.AperFunction,SMDPad,CuDef*
G36*
G01*
X37370599Y-27785000D02*
X38270601Y-27785000D01*
G75*
G02*
X38520600Y-28034999I0J-249999D01*
G01*
X38520600Y-28560001D01*
G75*
G02*
X38270601Y-28810000I-249999J0D01*
G01*
X37370599Y-28810000D01*
G75*
G02*
X37120600Y-28560001I0J249999D01*
G01*
X37120600Y-28034999D01*
G75*
G02*
X37370599Y-27785000I249999J0D01*
G01*
G37*
G04 #@! TD.AperFunction*
D16*
X40640000Y-22098000D03*
D17*
X45720000Y-23368000D03*
X40640000Y-24638000D03*
X45720000Y-25908000D03*
X40640000Y-27178000D03*
X45720000Y-28448000D03*
X40640000Y-29718000D03*
G04 #@! TA.AperFunction,SMDPad,CuDef*
G36*
G01*
X33733800Y-31903350D02*
X33733800Y-32815850D01*
G75*
G02*
X33490050Y-33059600I-243750J0D01*
G01*
X33002550Y-33059600D01*
G75*
G02*
X32758800Y-32815850I0J243750D01*
G01*
X32758800Y-31903350D01*
G75*
G02*
X33002550Y-31659600I243750J0D01*
G01*
X33490050Y-31659600D01*
G75*
G02*
X33733800Y-31903350I0J-243750D01*
G01*
G37*
G04 #@! TD.AperFunction*
G04 #@! TA.AperFunction,SMDPad,CuDef*
G36*
G01*
X31858800Y-31903350D02*
X31858800Y-32815850D01*
G75*
G02*
X31615050Y-33059600I-243750J0D01*
G01*
X31127550Y-33059600D01*
G75*
G02*
X30883800Y-32815850I0J243750D01*
G01*
X30883800Y-31903350D01*
G75*
G02*
X31127550Y-31659600I243750J0D01*
G01*
X31615050Y-31659600D01*
G75*
G02*
X31858800Y-31903350I0J-243750D01*
G01*
G37*
G04 #@! TD.AperFunction*
G04 #@! TA.AperFunction,SMDPad,CuDef*
G36*
G01*
X34693800Y-32809601D02*
X34693800Y-31909599D01*
G75*
G02*
X34943799Y-31659600I249999J0D01*
G01*
X35468801Y-31659600D01*
G75*
G02*
X35718800Y-31909599I0J-249999D01*
G01*
X35718800Y-32809601D01*
G75*
G02*
X35468801Y-33059600I-249999J0D01*
G01*
X34943799Y-33059600D01*
G75*
G02*
X34693800Y-32809601I0J249999D01*
G01*
G37*
G04 #@! TD.AperFunction*
G04 #@! TA.AperFunction,SMDPad,CuDef*
G36*
G01*
X36518800Y-32809601D02*
X36518800Y-31909599D01*
G75*
G02*
X36768799Y-31659600I249999J0D01*
G01*
X37293801Y-31659600D01*
G75*
G02*
X37543800Y-31909599I0J-249999D01*
G01*
X37543800Y-32809601D01*
G75*
G02*
X37293801Y-33059600I-249999J0D01*
G01*
X36768799Y-33059600D01*
G75*
G02*
X36518800Y-32809601I0J249999D01*
G01*
G37*
G04 #@! TD.AperFunction*
D18*
X23672800Y-19050000D03*
X27127200Y-19050000D03*
X30886400Y-19050000D03*
X34544000Y-19050000D03*
X38049200Y-19050000D03*
X41656000Y-19050000D03*
X45212000Y-19050000D03*
X48869600Y-19050000D03*
X52476400Y-19050000D03*
X23672800Y-26111200D03*
X23672800Y-29260800D03*
X30886400Y-34188400D03*
X34544000Y-34188400D03*
X38049200Y-34188400D03*
X41656000Y-34188400D03*
X45262800Y-34188400D03*
X48869600Y-34188400D03*
X52476400Y-34188400D03*
X56083200Y-34188400D03*
X50749200Y-32004000D03*
X50749200Y-29260800D03*
X47091600Y-32004000D03*
X43434000Y-32004000D03*
X39878000Y-32004000D03*
X35204400Y-30937200D03*
X50749200Y-21336000D03*
X43434000Y-21336000D03*
X43434000Y-23368000D03*
X43434000Y-25603200D03*
X43434000Y-27686000D03*
X43434000Y-29921200D03*
X54292500Y-32004000D03*
X34671000Y-27114500D03*
X35623500Y-22606000D03*
D19*
X49530000Y-23368000D02*
X52070000Y-23368000D01*
X45720000Y-23368000D02*
X49530000Y-23368000D01*
X57150000Y-25908000D02*
X57150000Y-27432000D01*
X54610000Y-23368000D02*
X57150000Y-25908000D01*
X52070000Y-23368000D02*
X54610000Y-23368000D01*
X55814000Y-27432000D02*
X54290000Y-28956000D01*
X57150000Y-27432000D02*
X55814000Y-27432000D01*
D20*
X37031300Y-30911800D02*
X37820600Y-30122500D01*
X37031300Y-32359600D02*
X37031300Y-30911800D01*
X38892400Y-26385600D02*
X40640000Y-24638000D01*
X37820600Y-26385600D02*
X38892400Y-26385600D01*
D19*
X38014000Y-22098000D02*
X37836200Y-21920200D01*
X40640000Y-22098000D02*
X38014000Y-22098000D01*
X37836200Y-24470000D02*
X37820600Y-24485600D01*
X37836200Y-21920200D02*
X37836200Y-24470000D01*
X36271000Y-24485600D02*
X37820600Y-24485600D01*
X35509000Y-25247600D02*
X36271000Y-24485600D01*
D21*
X37971100Y-28448000D02*
X37820600Y-28297500D01*
X45720000Y-28448000D02*
X37971100Y-28448000D01*
D20*
X37593900Y-28524200D02*
X37820600Y-28297500D01*
X35659700Y-28524200D02*
X37593900Y-28524200D01*
X33246300Y-32359600D02*
X35206300Y-32359600D01*
D19*
X30073600Y-26289000D02*
X28854400Y-27508200D01*
X28371800Y-25247600D02*
X26974800Y-23850600D01*
X30022800Y-25247600D02*
X30558100Y-25247600D01*
D20*
X31371300Y-32359600D02*
X31371300Y-30987600D01*
X33135250Y-29198250D02*
X33147950Y-29210950D01*
X33135250Y-27824750D02*
X33135250Y-29198250D01*
X31371300Y-30987600D02*
X33147950Y-29210950D01*
X33147950Y-29210950D02*
X33834700Y-28524200D01*
D19*
X33135250Y-27824750D02*
X33834700Y-28524200D01*
D20*
X30226000Y-26289000D02*
X30912750Y-25602250D01*
X30073600Y-26289000D02*
X30226000Y-26289000D01*
D19*
X30912750Y-25602250D02*
X33135250Y-27824750D01*
X30558100Y-25247600D02*
X30912750Y-25602250D01*
D20*
X29032200Y-25247600D02*
X30073600Y-26289000D01*
D19*
X30022800Y-25247600D02*
X28930600Y-25247600D01*
D20*
X28930600Y-25247600D02*
X29032200Y-25247600D01*
D19*
X28930600Y-25247600D02*
X28371800Y-25247600D01*
D20*
X30073600Y-24104600D02*
X28930600Y-25247600D01*
D19*
X30073600Y-23073400D02*
X30073600Y-23901400D01*
X30073600Y-23901400D02*
X30073600Y-26289000D01*
D20*
X30073600Y-24104600D02*
X31216600Y-25247600D01*
X30073600Y-23901400D02*
X30073600Y-24104600D01*
D19*
X31216600Y-25247600D02*
X30022800Y-25247600D01*
X32309000Y-25247600D02*
X31216600Y-25247600D01*
D22*
X58776000Y-36424000D02*
X22707200Y-36424000D01*
X22707200Y-34119117D01*
X23106200Y-34119117D01*
X23106200Y-34460883D01*
X23172875Y-34796081D01*
X23303663Y-35111831D01*
X23493537Y-35395998D01*
X23735202Y-35637663D01*
X24019369Y-35827537D01*
X24335119Y-35958325D01*
X24670317Y-36025000D01*
X25012083Y-36025000D01*
X25347281Y-35958325D01*
X25663031Y-35827537D01*
X25947198Y-35637663D01*
X26188863Y-35395998D01*
X26378737Y-35111831D01*
X26509525Y-34796081D01*
X26576200Y-34460883D01*
X26576200Y-34119117D01*
X26509525Y-33783919D01*
X26378737Y-33468169D01*
X26188863Y-33184002D01*
X25947198Y-32942337D01*
X25663031Y-32752463D01*
X25347281Y-32621675D01*
X25012083Y-32555000D01*
X24670317Y-32555000D01*
X24335119Y-32621675D01*
X24019369Y-32752463D01*
X23735202Y-32942337D01*
X23493537Y-33184002D01*
X23303663Y-33468169D01*
X23172875Y-33783919D01*
X23106200Y-34119117D01*
X22707200Y-34119117D01*
X22707200Y-31000902D01*
X28041303Y-31000902D01*
X28112886Y-31244871D01*
X28368396Y-31365771D01*
X28642584Y-31434500D01*
X28924912Y-31448417D01*
X29204530Y-31406987D01*
X29470692Y-31311803D01*
X29595914Y-31244871D01*
X29667497Y-31000902D01*
X28854400Y-30187805D01*
X28041303Y-31000902D01*
X22707200Y-31000902D01*
X22707200Y-30078712D01*
X27414183Y-30078712D01*
X27455613Y-30358330D01*
X27550797Y-30624492D01*
X27617729Y-30749714D01*
X27861698Y-30821297D01*
X28674795Y-30008200D01*
X29034005Y-30008200D01*
X29847102Y-30821297D01*
X30091071Y-30749714D01*
X30211971Y-30494204D01*
X30280700Y-30220016D01*
X30294617Y-29937688D01*
X30253187Y-29658070D01*
X30158003Y-29391908D01*
X30091071Y-29266686D01*
X29847102Y-29195103D01*
X29034005Y-30008200D01*
X28674795Y-30008200D01*
X27861698Y-29195103D01*
X27617729Y-29266686D01*
X27496829Y-29522196D01*
X27428100Y-29796384D01*
X27414183Y-30078712D01*
X22707200Y-30078712D01*
X22707200Y-22160600D01*
X25486728Y-22160600D01*
X25498988Y-22285082D01*
X25535298Y-22404780D01*
X25594263Y-22515094D01*
X25673615Y-22611785D01*
X25770306Y-22691137D01*
X25880620Y-22750102D01*
X25953180Y-22772113D01*
X25821325Y-22903968D01*
X25658810Y-23147189D01*
X25546868Y-23417442D01*
X25489800Y-23704340D01*
X25489800Y-23996860D01*
X25546868Y-24283758D01*
X25658810Y-24554011D01*
X25821325Y-24797232D01*
X26028168Y-25004075D01*
X26271389Y-25166590D01*
X26541642Y-25278532D01*
X26828540Y-25335600D01*
X26927073Y-25335600D01*
X27567787Y-25976315D01*
X27601728Y-26017672D01*
X27758509Y-26146339D01*
X27699906Y-26177663D01*
X27603215Y-26257015D01*
X27523863Y-26353706D01*
X27464898Y-26464020D01*
X27428588Y-26583718D01*
X27416328Y-26708200D01*
X27416328Y-28308200D01*
X27428588Y-28432682D01*
X27464898Y-28552380D01*
X27523863Y-28662694D01*
X27603215Y-28759385D01*
X27699906Y-28838737D01*
X27810220Y-28897702D01*
X27929918Y-28934012D01*
X28054400Y-28946272D01*
X28061615Y-28946272D01*
X28041303Y-29015498D01*
X28854400Y-29828595D01*
X29667497Y-29015498D01*
X29647185Y-28946272D01*
X29654400Y-28946272D01*
X29778882Y-28934012D01*
X29898580Y-28897702D01*
X30008894Y-28838737D01*
X30105585Y-28759385D01*
X30184937Y-28662694D01*
X30243902Y-28552380D01*
X30280212Y-28432682D01*
X30292472Y-28308200D01*
X30292472Y-27602855D01*
X30802315Y-27093013D01*
X30839923Y-27062149D01*
X32250250Y-28472477D01*
X32250251Y-28857070D01*
X30776251Y-30331071D01*
X30742484Y-30358783D01*
X30714771Y-30392551D01*
X30714768Y-30392554D01*
X30631890Y-30493541D01*
X30549712Y-30647287D01*
X30499105Y-30814110D01*
X30482019Y-30987600D01*
X30486301Y-31031079D01*
X30486301Y-31301384D01*
X30394342Y-31413436D01*
X30312853Y-31565891D01*
X30262672Y-31731315D01*
X30245728Y-31903350D01*
X30245728Y-32815850D01*
X30262672Y-32987885D01*
X30312853Y-33153309D01*
X30394342Y-33305764D01*
X30504008Y-33439392D01*
X30637636Y-33549058D01*
X30790091Y-33630547D01*
X30955515Y-33680728D01*
X31127550Y-33697672D01*
X31615050Y-33697672D01*
X31787085Y-33680728D01*
X31952509Y-33630547D01*
X32104964Y-33549058D01*
X32238592Y-33439392D01*
X32308800Y-33353844D01*
X32379008Y-33439392D01*
X32512636Y-33549058D01*
X32665091Y-33630547D01*
X32830515Y-33680728D01*
X33002550Y-33697672D01*
X33490050Y-33697672D01*
X33662085Y-33680728D01*
X33827509Y-33630547D01*
X33979964Y-33549058D01*
X34113592Y-33439392D01*
X34215466Y-33315259D01*
X34315838Y-33437562D01*
X34450413Y-33548005D01*
X34603949Y-33630072D01*
X34770545Y-33680608D01*
X34943799Y-33697672D01*
X35468801Y-33697672D01*
X35642055Y-33680608D01*
X35808651Y-33630072D01*
X35962187Y-33548005D01*
X36043437Y-33481324D01*
X36067615Y-33510785D01*
X36164306Y-33590137D01*
X36274620Y-33649102D01*
X36394318Y-33685412D01*
X36518800Y-33697672D01*
X36745550Y-33694600D01*
X36904300Y-33535850D01*
X36904300Y-32486600D01*
X37158300Y-32486600D01*
X37158300Y-33535850D01*
X37317050Y-33694600D01*
X37543800Y-33697672D01*
X37668282Y-33685412D01*
X37787980Y-33649102D01*
X37898294Y-33590137D01*
X37994985Y-33510785D01*
X38074337Y-33414094D01*
X38133302Y-33303780D01*
X38169612Y-33184082D01*
X38181872Y-33059600D01*
X38178800Y-32645350D01*
X38020050Y-32486600D01*
X37158300Y-32486600D01*
X36904300Y-32486600D01*
X36884300Y-32486600D01*
X36884300Y-32232600D01*
X36904300Y-32232600D01*
X36904300Y-32212600D01*
X37158300Y-32212600D01*
X37158300Y-32232600D01*
X38020050Y-32232600D01*
X38178800Y-32073850D01*
X38181872Y-31659600D01*
X38169612Y-31535118D01*
X38133302Y-31415420D01*
X38074337Y-31305106D01*
X37994985Y-31208415D01*
X37947602Y-31169529D01*
X37947602Y-31111252D01*
X38106350Y-31270000D01*
X38520600Y-31273072D01*
X38645082Y-31260812D01*
X38764780Y-31224502D01*
X38875094Y-31165537D01*
X38971785Y-31086185D01*
X39051137Y-30989494D01*
X39110102Y-30879180D01*
X39146412Y-30759482D01*
X39158672Y-30635000D01*
X39155600Y-30408250D01*
X38996852Y-30249502D01*
X39155600Y-30249502D01*
X39155600Y-30123568D01*
X39163989Y-30165743D01*
X39279701Y-30445095D01*
X39447688Y-30696505D01*
X39661495Y-30910312D01*
X39912905Y-31078299D01*
X40192257Y-31194011D01*
X40488816Y-31253000D01*
X40791184Y-31253000D01*
X41087743Y-31194011D01*
X41367095Y-31078299D01*
X41618505Y-30910312D01*
X41832312Y-30696505D01*
X42000299Y-30445095D01*
X42048432Y-30328890D01*
X55708524Y-30328890D01*
X55753175Y-30476099D01*
X55878359Y-30738920D01*
X56052412Y-30972269D01*
X56268645Y-31167178D01*
X56518748Y-31316157D01*
X56793109Y-31413481D01*
X57023000Y-31292814D01*
X57023000Y-30099000D01*
X57277000Y-30099000D01*
X57277000Y-31292814D01*
X57506891Y-31413481D01*
X57781252Y-31316157D01*
X58031355Y-31167178D01*
X58247588Y-30972269D01*
X58421641Y-30738920D01*
X58546825Y-30476099D01*
X58591476Y-30328890D01*
X58470155Y-30099000D01*
X57277000Y-30099000D01*
X57023000Y-30099000D01*
X55829845Y-30099000D01*
X55708524Y-30328890D01*
X42048432Y-30328890D01*
X42116011Y-30165743D01*
X42175000Y-29869184D01*
X42175000Y-29566816D01*
X42116011Y-29270257D01*
X42090223Y-29208000D01*
X44381687Y-29208000D01*
X44527688Y-29426505D01*
X44741495Y-29640312D01*
X44992905Y-29808299D01*
X45272257Y-29924011D01*
X45568816Y-29983000D01*
X45871184Y-29983000D01*
X46167743Y-29924011D01*
X46447095Y-29808299D01*
X46637611Y-29681000D01*
X51251928Y-29681000D01*
X51264188Y-29805482D01*
X51300498Y-29925180D01*
X51359463Y-30035494D01*
X51438815Y-30132185D01*
X51535506Y-30211537D01*
X51645820Y-30270502D01*
X51765518Y-30306812D01*
X51890000Y-30319072D01*
X52104250Y-30316000D01*
X52263000Y-30157250D01*
X52263000Y-29083000D01*
X51413750Y-29083000D01*
X51255000Y-29241750D01*
X51251928Y-29681000D01*
X46637611Y-29681000D01*
X46698505Y-29640312D01*
X46912312Y-29426505D01*
X47080299Y-29175095D01*
X47196011Y-28895743D01*
X47255000Y-28599184D01*
X47255000Y-28296816D01*
X47241909Y-28231000D01*
X51251928Y-28231000D01*
X51255000Y-28670250D01*
X51413750Y-28829000D01*
X52263000Y-28829000D01*
X52263000Y-27754750D01*
X52104250Y-27596000D01*
X51890000Y-27592928D01*
X51765518Y-27605188D01*
X51645820Y-27641498D01*
X51535506Y-27700463D01*
X51438815Y-27779815D01*
X51359463Y-27876506D01*
X51300498Y-27986820D01*
X51264188Y-28106518D01*
X51251928Y-28231000D01*
X47241909Y-28231000D01*
X47196011Y-28000257D01*
X47080299Y-27720905D01*
X46912312Y-27469495D01*
X46698505Y-27255688D01*
X46544895Y-27153049D01*
X46604475Y-26972080D01*
X46493097Y-26860702D01*
X51256903Y-26860702D01*
X51328486Y-27104671D01*
X51583996Y-27225571D01*
X51858184Y-27294300D01*
X52140512Y-27308217D01*
X52420130Y-27266787D01*
X52686292Y-27171603D01*
X52811514Y-27104671D01*
X52883097Y-26860702D01*
X52070000Y-26047605D01*
X51256903Y-26860702D01*
X46493097Y-26860702D01*
X45720000Y-26087605D01*
X44835525Y-26972080D01*
X44895105Y-27153049D01*
X44741495Y-27255688D01*
X44527688Y-27469495D01*
X44381687Y-27688000D01*
X42090223Y-27688000D01*
X42116011Y-27625743D01*
X42175000Y-27329184D01*
X42175000Y-27026816D01*
X42116011Y-26730257D01*
X42000299Y-26450905D01*
X41832312Y-26199495D01*
X41618505Y-25985688D01*
X41601841Y-25974553D01*
X44179009Y-25974553D01*
X44221603Y-26273907D01*
X44321778Y-26559199D01*
X44401739Y-26708792D01*
X44655920Y-26792475D01*
X45540395Y-25908000D01*
X45899605Y-25908000D01*
X46784080Y-26792475D01*
X47038261Y-26708792D01*
X47169158Y-26436225D01*
X47244365Y-26143358D01*
X47255645Y-25938512D01*
X50629783Y-25938512D01*
X50671213Y-26218130D01*
X50766397Y-26484292D01*
X50833329Y-26609514D01*
X51077298Y-26681097D01*
X51890395Y-25868000D01*
X52249605Y-25868000D01*
X53062702Y-26681097D01*
X53306671Y-26609514D01*
X53427571Y-26354004D01*
X53496300Y-26079816D01*
X53510217Y-25797488D01*
X53468787Y-25517870D01*
X53373603Y-25251708D01*
X53306671Y-25126486D01*
X53062702Y-25054903D01*
X52249605Y-25868000D01*
X51890395Y-25868000D01*
X51077298Y-25054903D01*
X50833329Y-25126486D01*
X50712429Y-25381996D01*
X50643700Y-25656184D01*
X50629783Y-25938512D01*
X47255645Y-25938512D01*
X47260991Y-25841447D01*
X47218397Y-25542093D01*
X47118222Y-25256801D01*
X47038261Y-25107208D01*
X46784080Y-25023525D01*
X45899605Y-25908000D01*
X45540395Y-25908000D01*
X44655920Y-25023525D01*
X44401739Y-25107208D01*
X44270842Y-25379775D01*
X44195635Y-25672642D01*
X44179009Y-25974553D01*
X41601841Y-25974553D01*
X41502237Y-25908000D01*
X41618505Y-25830312D01*
X41832312Y-25616505D01*
X42000299Y-25365095D01*
X42116011Y-25085743D01*
X42175000Y-24789184D01*
X42175000Y-24486816D01*
X42116011Y-24190257D01*
X42000299Y-23910905D01*
X41832312Y-23659495D01*
X41765873Y-23593056D01*
X41784180Y-23587502D01*
X41894494Y-23528537D01*
X41991185Y-23449185D01*
X42070537Y-23352494D01*
X42129502Y-23242180D01*
X42137196Y-23216816D01*
X44185000Y-23216816D01*
X44185000Y-23519184D01*
X44243989Y-23815743D01*
X44359701Y-24095095D01*
X44527688Y-24346505D01*
X44741495Y-24560312D01*
X44895105Y-24662951D01*
X44835525Y-24843920D01*
X45720000Y-25728395D01*
X46604475Y-24843920D01*
X46544895Y-24662951D01*
X46698505Y-24560312D01*
X46807015Y-24451802D01*
X50701677Y-24451802D01*
X50739463Y-24522494D01*
X50818815Y-24619185D01*
X50915506Y-24698537D01*
X51025820Y-24757502D01*
X51145518Y-24793812D01*
X51270000Y-24806072D01*
X51277215Y-24806072D01*
X51256903Y-24875298D01*
X52070000Y-25688395D01*
X52883097Y-24875298D01*
X52862785Y-24806072D01*
X52870000Y-24806072D01*
X52994482Y-24793812D01*
X53114180Y-24757502D01*
X53224494Y-24698537D01*
X53321185Y-24619185D01*
X53400537Y-24522494D01*
X53438323Y-24451802D01*
X54161076Y-24451802D01*
X55844881Y-26135609D01*
X55769463Y-26227506D01*
X55710498Y-26337820D01*
X55705705Y-26353620D01*
X55623663Y-26361701D01*
X55601537Y-26363880D01*
X55553988Y-26378304D01*
X55397240Y-26425853D01*
X55208958Y-26526491D01*
X55043928Y-26661928D01*
X55009987Y-26703285D01*
X54120345Y-27592928D01*
X54040000Y-27592928D01*
X53866746Y-27609992D01*
X53700150Y-27660528D01*
X53546614Y-27742595D01*
X53412038Y-27853038D01*
X53406658Y-27859594D01*
X53341185Y-27779815D01*
X53244494Y-27700463D01*
X53134180Y-27641498D01*
X53014482Y-27605188D01*
X52890000Y-27592928D01*
X52675750Y-27596000D01*
X52517000Y-27754750D01*
X52517000Y-28829000D01*
X52537000Y-28829000D01*
X52537000Y-29083000D01*
X52517000Y-29083000D01*
X52517000Y-30157250D01*
X52675750Y-30316000D01*
X52890000Y-30319072D01*
X53014482Y-30306812D01*
X53134180Y-30270502D01*
X53244494Y-30211537D01*
X53341185Y-30132185D01*
X53406658Y-30052406D01*
X53412038Y-30058962D01*
X53546614Y-30169405D01*
X53700150Y-30251472D01*
X53866746Y-30302008D01*
X54040000Y-30319072D01*
X54540000Y-30319072D01*
X54713254Y-30302008D01*
X54879850Y-30251472D01*
X55033386Y-30169405D01*
X55167962Y-30058962D01*
X55278405Y-29924386D01*
X55360472Y-29770850D01*
X55411008Y-29604254D01*
X55428072Y-29431000D01*
X55428072Y-29350655D01*
X55958985Y-28819742D01*
X56055820Y-28871502D01*
X56136466Y-28895966D01*
X56052412Y-28971731D01*
X55878359Y-29205080D01*
X55753175Y-29467901D01*
X55708524Y-29615110D01*
X55829845Y-29845000D01*
X57023000Y-29845000D01*
X57023000Y-29825000D01*
X57277000Y-29825000D01*
X57277000Y-29845000D01*
X58470155Y-29845000D01*
X58591476Y-29615110D01*
X58546825Y-29467901D01*
X58421641Y-29205080D01*
X58247588Y-28971731D01*
X58163534Y-28895966D01*
X58244180Y-28871502D01*
X58354494Y-28812537D01*
X58451185Y-28733185D01*
X58530537Y-28636494D01*
X58589502Y-28526180D01*
X58625812Y-28406482D01*
X58638072Y-28282000D01*
X58638072Y-26582000D01*
X58625812Y-26457518D01*
X58589502Y-26337820D01*
X58530537Y-26227506D01*
X58451185Y-26130815D01*
X58354494Y-26051463D01*
X58244180Y-25992498D01*
X58233802Y-25989350D01*
X58233802Y-25961234D01*
X58239045Y-25907999D01*
X58233802Y-25854764D01*
X58233802Y-25854758D01*
X58218120Y-25695538D01*
X58217640Y-25693954D01*
X58196320Y-25623672D01*
X58156147Y-25491240D01*
X58055509Y-25302958D01*
X57920072Y-25137928D01*
X57878715Y-25103987D01*
X55414021Y-22639295D01*
X55380072Y-22597928D01*
X55215042Y-22462491D01*
X55026760Y-22361853D01*
X54822462Y-22299880D01*
X54815680Y-22299212D01*
X54610000Y-22278954D01*
X54556758Y-22284198D01*
X53438323Y-22284198D01*
X53400537Y-22213506D01*
X53321185Y-22116815D01*
X53224494Y-22037463D01*
X53114180Y-21978498D01*
X52994482Y-21942188D01*
X52870000Y-21929928D01*
X51270000Y-21929928D01*
X51145518Y-21942188D01*
X51025820Y-21978498D01*
X50915506Y-22037463D01*
X50818815Y-22116815D01*
X50739463Y-22213506D01*
X50701677Y-22284198D01*
X46807015Y-22284198D01*
X46698505Y-22175688D01*
X46447095Y-22007701D01*
X46167743Y-21891989D01*
X45871184Y-21833000D01*
X45568816Y-21833000D01*
X45272257Y-21891989D01*
X44992905Y-22007701D01*
X44741495Y-22175688D01*
X44527688Y-22389495D01*
X44359701Y-22640905D01*
X44243989Y-22920257D01*
X44185000Y-23216816D01*
X42137196Y-23216816D01*
X42165812Y-23122482D01*
X42178072Y-22998000D01*
X42178072Y-21198000D01*
X42165812Y-21073518D01*
X42129502Y-20953820D01*
X42070537Y-20843506D01*
X41991185Y-20746815D01*
X41894494Y-20667463D01*
X41784180Y-20608498D01*
X41664482Y-20572188D01*
X41540000Y-20559928D01*
X39740000Y-20559928D01*
X39615518Y-20572188D01*
X39495820Y-20608498D01*
X39385506Y-20667463D01*
X39288815Y-20746815D01*
X39209463Y-20843506D01*
X39174272Y-20909343D01*
X39174272Y-20870200D01*
X39162012Y-20745718D01*
X39125702Y-20626020D01*
X39066737Y-20515706D01*
X38987385Y-20419015D01*
X38968014Y-20403117D01*
X55161000Y-20403117D01*
X55161000Y-20744883D01*
X55227675Y-21080081D01*
X55358463Y-21395831D01*
X55548337Y-21679998D01*
X55790002Y-21921663D01*
X56074169Y-22111537D01*
X56389919Y-22242325D01*
X56725117Y-22309000D01*
X57066883Y-22309000D01*
X57402081Y-22242325D01*
X57717831Y-22111537D01*
X58001998Y-21921663D01*
X58243663Y-21679998D01*
X58433537Y-21395831D01*
X58564325Y-21080081D01*
X58631000Y-20744883D01*
X58631000Y-20403117D01*
X58564325Y-20067919D01*
X58433537Y-19752169D01*
X58243663Y-19468002D01*
X58001998Y-19226337D01*
X57717831Y-19036463D01*
X57402081Y-18905675D01*
X57066883Y-18839000D01*
X56725117Y-18839000D01*
X56389919Y-18905675D01*
X56074169Y-19036463D01*
X55790002Y-19226337D01*
X55548337Y-19468002D01*
X55358463Y-19752169D01*
X55227675Y-20067919D01*
X55161000Y-20403117D01*
X38968014Y-20403117D01*
X38890694Y-20339663D01*
X38780380Y-20280698D01*
X38660682Y-20244388D01*
X38536200Y-20232128D01*
X37136200Y-20232128D01*
X37011718Y-20244388D01*
X36892020Y-20280698D01*
X36781706Y-20339663D01*
X36685015Y-20419015D01*
X36605663Y-20515706D01*
X36546698Y-20626020D01*
X36510388Y-20745718D01*
X36498128Y-20870200D01*
X36498128Y-22970200D01*
X36510388Y-23094682D01*
X36546698Y-23214380D01*
X36605663Y-23324694D01*
X36668940Y-23401798D01*
X36324245Y-23401798D01*
X36271000Y-23396554D01*
X36058537Y-23417479D01*
X35866338Y-23475783D01*
X35854240Y-23479453D01*
X35665958Y-23580091D01*
X35630089Y-23609528D01*
X34909000Y-23609528D01*
X34784518Y-23621788D01*
X34664820Y-23658098D01*
X34554506Y-23717063D01*
X34457815Y-23796415D01*
X34378463Y-23893106D01*
X34319498Y-24003420D01*
X34283188Y-24123118D01*
X34270928Y-24247600D01*
X34270928Y-26247600D01*
X34283188Y-26372082D01*
X34319498Y-26491780D01*
X34378463Y-26602094D01*
X34457815Y-26698785D01*
X34554506Y-26778137D01*
X34664820Y-26837102D01*
X34784518Y-26873412D01*
X34909000Y-26885672D01*
X36109000Y-26885672D01*
X36233482Y-26873412D01*
X36353180Y-26837102D01*
X36463494Y-26778137D01*
X36470963Y-26772007D01*
X36474592Y-26808854D01*
X36525128Y-26975450D01*
X36607195Y-27128986D01*
X36717638Y-27263562D01*
X36817551Y-27345558D01*
X36742638Y-27407038D01*
X36632195Y-27541613D01*
X36630712Y-27544388D01*
X36550162Y-27446238D01*
X36415587Y-27335795D01*
X36262051Y-27253728D01*
X36095455Y-27203192D01*
X35922201Y-27186128D01*
X35397199Y-27186128D01*
X35223945Y-27203192D01*
X35057349Y-27253728D01*
X34903813Y-27335795D01*
X34769238Y-27446238D01*
X34747200Y-27473091D01*
X34725162Y-27446238D01*
X34590587Y-27335795D01*
X34437051Y-27253728D01*
X34270455Y-27203192D01*
X34097201Y-27186128D01*
X34029354Y-27186128D01*
X33939266Y-27096040D01*
X33939261Y-27096034D01*
X33441552Y-26598325D01*
X33498502Y-26491780D01*
X33534812Y-26372082D01*
X33547072Y-26247600D01*
X33547072Y-24247600D01*
X33534812Y-24123118D01*
X33498502Y-24003420D01*
X33439537Y-23893106D01*
X33360185Y-23796415D01*
X33263494Y-23717063D01*
X33153180Y-23658098D01*
X33033482Y-23621788D01*
X32909000Y-23609528D01*
X31709000Y-23609528D01*
X31584518Y-23621788D01*
X31464820Y-23658098D01*
X31354506Y-23717063D01*
X31329213Y-23737820D01*
X31369072Y-23663250D01*
X31419608Y-23496654D01*
X31436672Y-23323400D01*
X31436672Y-22970200D01*
X32098128Y-22970200D01*
X32110388Y-23094682D01*
X32146698Y-23214380D01*
X32205663Y-23324694D01*
X32285015Y-23421385D01*
X32381706Y-23500737D01*
X32492020Y-23559702D01*
X32611718Y-23596012D01*
X32736200Y-23608272D01*
X33150450Y-23605200D01*
X33309200Y-23446450D01*
X33309200Y-22047200D01*
X33563200Y-22047200D01*
X33563200Y-23446450D01*
X33721950Y-23605200D01*
X34136200Y-23608272D01*
X34260682Y-23596012D01*
X34380380Y-23559702D01*
X34490694Y-23500737D01*
X34587385Y-23421385D01*
X34666737Y-23324694D01*
X34725702Y-23214380D01*
X34762012Y-23094682D01*
X34774272Y-22970200D01*
X34771200Y-22205950D01*
X34612450Y-22047200D01*
X33563200Y-22047200D01*
X33309200Y-22047200D01*
X32259950Y-22047200D01*
X32101200Y-22205950D01*
X32098128Y-22970200D01*
X31436672Y-22970200D01*
X31436672Y-22823400D01*
X31419608Y-22650146D01*
X31369072Y-22483550D01*
X31287005Y-22330014D01*
X31176562Y-22195438D01*
X31170006Y-22190058D01*
X31249785Y-22124585D01*
X31329137Y-22027894D01*
X31388102Y-21917580D01*
X31424412Y-21797882D01*
X31436672Y-21673400D01*
X31433600Y-21459150D01*
X31274850Y-21300400D01*
X30200600Y-21300400D01*
X30200600Y-21320400D01*
X29946600Y-21320400D01*
X29946600Y-21300400D01*
X28872350Y-21300400D01*
X28713600Y-21459150D01*
X28710528Y-21673400D01*
X28722788Y-21797882D01*
X28759098Y-21917580D01*
X28818063Y-22027894D01*
X28897415Y-22124585D01*
X28977194Y-22190058D01*
X28970638Y-22195438D01*
X28860195Y-22330014D01*
X28778128Y-22483550D01*
X28727592Y-22650146D01*
X28710528Y-22823400D01*
X28710528Y-23323400D01*
X28727592Y-23496654D01*
X28778128Y-23663250D01*
X28860195Y-23816786D01*
X28970638Y-23951362D01*
X28973176Y-23953445D01*
X28791775Y-24134847D01*
X28459800Y-23802873D01*
X28459800Y-23704340D01*
X28402732Y-23417442D01*
X28290790Y-23147189D01*
X28128275Y-22903968D01*
X27996420Y-22772113D01*
X28068980Y-22750102D01*
X28179294Y-22691137D01*
X28275985Y-22611785D01*
X28355337Y-22515094D01*
X28414302Y-22404780D01*
X28450612Y-22285082D01*
X28462872Y-22160600D01*
X28459800Y-21596350D01*
X28301050Y-21437600D01*
X27101800Y-21437600D01*
X27101800Y-21457600D01*
X26847800Y-21457600D01*
X26847800Y-21437600D01*
X25648550Y-21437600D01*
X25489800Y-21596350D01*
X25486728Y-22160600D01*
X22707200Y-22160600D01*
X22707200Y-20460600D01*
X25486728Y-20460600D01*
X25489800Y-21024850D01*
X25648550Y-21183600D01*
X26847800Y-21183600D01*
X26847800Y-19984350D01*
X27101800Y-19984350D01*
X27101800Y-21183600D01*
X28301050Y-21183600D01*
X28459800Y-21024850D01*
X28461713Y-20673400D01*
X28710528Y-20673400D01*
X28713600Y-20887650D01*
X28872350Y-21046400D01*
X29946600Y-21046400D01*
X29946600Y-20197150D01*
X30200600Y-20197150D01*
X30200600Y-21046400D01*
X31274850Y-21046400D01*
X31433600Y-20887650D01*
X31433850Y-20870200D01*
X32098128Y-20870200D01*
X32101200Y-21634450D01*
X32259950Y-21793200D01*
X33309200Y-21793200D01*
X33309200Y-20393950D01*
X33563200Y-20393950D01*
X33563200Y-21793200D01*
X34612450Y-21793200D01*
X34771200Y-21634450D01*
X34774272Y-20870200D01*
X34762012Y-20745718D01*
X34725702Y-20626020D01*
X34666737Y-20515706D01*
X34587385Y-20419015D01*
X34490694Y-20339663D01*
X34380380Y-20280698D01*
X34260682Y-20244388D01*
X34136200Y-20232128D01*
X33721950Y-20235200D01*
X33563200Y-20393950D01*
X33309200Y-20393950D01*
X33150450Y-20235200D01*
X32736200Y-20232128D01*
X32611718Y-20244388D01*
X32492020Y-20280698D01*
X32381706Y-20339663D01*
X32285015Y-20419015D01*
X32205663Y-20515706D01*
X32146698Y-20626020D01*
X32110388Y-20745718D01*
X32098128Y-20870200D01*
X31433850Y-20870200D01*
X31436672Y-20673400D01*
X31424412Y-20548918D01*
X31388102Y-20429220D01*
X31329137Y-20318906D01*
X31249785Y-20222215D01*
X31153094Y-20142863D01*
X31042780Y-20083898D01*
X30923082Y-20047588D01*
X30798600Y-20035328D01*
X30359350Y-20038400D01*
X30200600Y-20197150D01*
X29946600Y-20197150D01*
X29787850Y-20038400D01*
X29348600Y-20035328D01*
X29224118Y-20047588D01*
X29104420Y-20083898D01*
X28994106Y-20142863D01*
X28897415Y-20222215D01*
X28818063Y-20318906D01*
X28759098Y-20429220D01*
X28722788Y-20548918D01*
X28710528Y-20673400D01*
X28461713Y-20673400D01*
X28462872Y-20460600D01*
X28450612Y-20336118D01*
X28414302Y-20216420D01*
X28355337Y-20106106D01*
X28275985Y-20009415D01*
X28179294Y-19930063D01*
X28068980Y-19871098D01*
X27949282Y-19834788D01*
X27824800Y-19822528D01*
X27260550Y-19825600D01*
X27101800Y-19984350D01*
X26847800Y-19984350D01*
X26689050Y-19825600D01*
X26124800Y-19822528D01*
X26000318Y-19834788D01*
X25880620Y-19871098D01*
X25770306Y-19930063D01*
X25673615Y-20009415D01*
X25594263Y-20106106D01*
X25535298Y-20216420D01*
X25498988Y-20336118D01*
X25486728Y-20460600D01*
X22707200Y-20460600D01*
X22707200Y-17741500D01*
X58776001Y-17741500D01*
X58776000Y-36424000D01*
G04 #@! TA.AperFunction,Conductor*
D23*
G36*
X58776000Y-36424000D02*
G01*
X22707200Y-36424000D01*
X22707200Y-34119117D01*
X23106200Y-34119117D01*
X23106200Y-34460883D01*
X23172875Y-34796081D01*
X23303663Y-35111831D01*
X23493537Y-35395998D01*
X23735202Y-35637663D01*
X24019369Y-35827537D01*
X24335119Y-35958325D01*
X24670317Y-36025000D01*
X25012083Y-36025000D01*
X25347281Y-35958325D01*
X25663031Y-35827537D01*
X25947198Y-35637663D01*
X26188863Y-35395998D01*
X26378737Y-35111831D01*
X26509525Y-34796081D01*
X26576200Y-34460883D01*
X26576200Y-34119117D01*
X26509525Y-33783919D01*
X26378737Y-33468169D01*
X26188863Y-33184002D01*
X25947198Y-32942337D01*
X25663031Y-32752463D01*
X25347281Y-32621675D01*
X25012083Y-32555000D01*
X24670317Y-32555000D01*
X24335119Y-32621675D01*
X24019369Y-32752463D01*
X23735202Y-32942337D01*
X23493537Y-33184002D01*
X23303663Y-33468169D01*
X23172875Y-33783919D01*
X23106200Y-34119117D01*
X22707200Y-34119117D01*
X22707200Y-31000902D01*
X28041303Y-31000902D01*
X28112886Y-31244871D01*
X28368396Y-31365771D01*
X28642584Y-31434500D01*
X28924912Y-31448417D01*
X29204530Y-31406987D01*
X29470692Y-31311803D01*
X29595914Y-31244871D01*
X29667497Y-31000902D01*
X28854400Y-30187805D01*
X28041303Y-31000902D01*
X22707200Y-31000902D01*
X22707200Y-30078712D01*
X27414183Y-30078712D01*
X27455613Y-30358330D01*
X27550797Y-30624492D01*
X27617729Y-30749714D01*
X27861698Y-30821297D01*
X28674795Y-30008200D01*
X29034005Y-30008200D01*
X29847102Y-30821297D01*
X30091071Y-30749714D01*
X30211971Y-30494204D01*
X30280700Y-30220016D01*
X30294617Y-29937688D01*
X30253187Y-29658070D01*
X30158003Y-29391908D01*
X30091071Y-29266686D01*
X29847102Y-29195103D01*
X29034005Y-30008200D01*
X28674795Y-30008200D01*
X27861698Y-29195103D01*
X27617729Y-29266686D01*
X27496829Y-29522196D01*
X27428100Y-29796384D01*
X27414183Y-30078712D01*
X22707200Y-30078712D01*
X22707200Y-22160600D01*
X25486728Y-22160600D01*
X25498988Y-22285082D01*
X25535298Y-22404780D01*
X25594263Y-22515094D01*
X25673615Y-22611785D01*
X25770306Y-22691137D01*
X25880620Y-22750102D01*
X25953180Y-22772113D01*
X25821325Y-22903968D01*
X25658810Y-23147189D01*
X25546868Y-23417442D01*
X25489800Y-23704340D01*
X25489800Y-23996860D01*
X25546868Y-24283758D01*
X25658810Y-24554011D01*
X25821325Y-24797232D01*
X26028168Y-25004075D01*
X26271389Y-25166590D01*
X26541642Y-25278532D01*
X26828540Y-25335600D01*
X26927073Y-25335600D01*
X27567787Y-25976315D01*
X27601728Y-26017672D01*
X27758509Y-26146339D01*
X27699906Y-26177663D01*
X27603215Y-26257015D01*
X27523863Y-26353706D01*
X27464898Y-26464020D01*
X27428588Y-26583718D01*
X27416328Y-26708200D01*
X27416328Y-28308200D01*
X27428588Y-28432682D01*
X27464898Y-28552380D01*
X27523863Y-28662694D01*
X27603215Y-28759385D01*
X27699906Y-28838737D01*
X27810220Y-28897702D01*
X27929918Y-28934012D01*
X28054400Y-28946272D01*
X28061615Y-28946272D01*
X28041303Y-29015498D01*
X28854400Y-29828595D01*
X29667497Y-29015498D01*
X29647185Y-28946272D01*
X29654400Y-28946272D01*
X29778882Y-28934012D01*
X29898580Y-28897702D01*
X30008894Y-28838737D01*
X30105585Y-28759385D01*
X30184937Y-28662694D01*
X30243902Y-28552380D01*
X30280212Y-28432682D01*
X30292472Y-28308200D01*
X30292472Y-27602855D01*
X30802315Y-27093013D01*
X30839923Y-27062149D01*
X32250250Y-28472477D01*
X32250251Y-28857070D01*
X30776251Y-30331071D01*
X30742484Y-30358783D01*
X30714771Y-30392551D01*
X30714768Y-30392554D01*
X30631890Y-30493541D01*
X30549712Y-30647287D01*
X30499105Y-30814110D01*
X30482019Y-30987600D01*
X30486301Y-31031079D01*
X30486301Y-31301384D01*
X30394342Y-31413436D01*
X30312853Y-31565891D01*
X30262672Y-31731315D01*
X30245728Y-31903350D01*
X30245728Y-32815850D01*
X30262672Y-32987885D01*
X30312853Y-33153309D01*
X30394342Y-33305764D01*
X30504008Y-33439392D01*
X30637636Y-33549058D01*
X30790091Y-33630547D01*
X30955515Y-33680728D01*
X31127550Y-33697672D01*
X31615050Y-33697672D01*
X31787085Y-33680728D01*
X31952509Y-33630547D01*
X32104964Y-33549058D01*
X32238592Y-33439392D01*
X32308800Y-33353844D01*
X32379008Y-33439392D01*
X32512636Y-33549058D01*
X32665091Y-33630547D01*
X32830515Y-33680728D01*
X33002550Y-33697672D01*
X33490050Y-33697672D01*
X33662085Y-33680728D01*
X33827509Y-33630547D01*
X33979964Y-33549058D01*
X34113592Y-33439392D01*
X34215466Y-33315259D01*
X34315838Y-33437562D01*
X34450413Y-33548005D01*
X34603949Y-33630072D01*
X34770545Y-33680608D01*
X34943799Y-33697672D01*
X35468801Y-33697672D01*
X35642055Y-33680608D01*
X35808651Y-33630072D01*
X35962187Y-33548005D01*
X36043437Y-33481324D01*
X36067615Y-33510785D01*
X36164306Y-33590137D01*
X36274620Y-33649102D01*
X36394318Y-33685412D01*
X36518800Y-33697672D01*
X36745550Y-33694600D01*
X36904300Y-33535850D01*
X36904300Y-32486600D01*
X37158300Y-32486600D01*
X37158300Y-33535850D01*
X37317050Y-33694600D01*
X37543800Y-33697672D01*
X37668282Y-33685412D01*
X37787980Y-33649102D01*
X37898294Y-33590137D01*
X37994985Y-33510785D01*
X38074337Y-33414094D01*
X38133302Y-33303780D01*
X38169612Y-33184082D01*
X38181872Y-33059600D01*
X38178800Y-32645350D01*
X38020050Y-32486600D01*
X37158300Y-32486600D01*
X36904300Y-32486600D01*
X36884300Y-32486600D01*
X36884300Y-32232600D01*
X36904300Y-32232600D01*
X36904300Y-32212600D01*
X37158300Y-32212600D01*
X37158300Y-32232600D01*
X38020050Y-32232600D01*
X38178800Y-32073850D01*
X38181872Y-31659600D01*
X38169612Y-31535118D01*
X38133302Y-31415420D01*
X38074337Y-31305106D01*
X37994985Y-31208415D01*
X37947602Y-31169529D01*
X37947602Y-31111252D01*
X38106350Y-31270000D01*
X38520600Y-31273072D01*
X38645082Y-31260812D01*
X38764780Y-31224502D01*
X38875094Y-31165537D01*
X38971785Y-31086185D01*
X39051137Y-30989494D01*
X39110102Y-30879180D01*
X39146412Y-30759482D01*
X39158672Y-30635000D01*
X39155600Y-30408250D01*
X38996852Y-30249502D01*
X39155600Y-30249502D01*
X39155600Y-30123568D01*
X39163989Y-30165743D01*
X39279701Y-30445095D01*
X39447688Y-30696505D01*
X39661495Y-30910312D01*
X39912905Y-31078299D01*
X40192257Y-31194011D01*
X40488816Y-31253000D01*
X40791184Y-31253000D01*
X41087743Y-31194011D01*
X41367095Y-31078299D01*
X41618505Y-30910312D01*
X41832312Y-30696505D01*
X42000299Y-30445095D01*
X42048432Y-30328890D01*
X55708524Y-30328890D01*
X55753175Y-30476099D01*
X55878359Y-30738920D01*
X56052412Y-30972269D01*
X56268645Y-31167178D01*
X56518748Y-31316157D01*
X56793109Y-31413481D01*
X57023000Y-31292814D01*
X57023000Y-30099000D01*
X57277000Y-30099000D01*
X57277000Y-31292814D01*
X57506891Y-31413481D01*
X57781252Y-31316157D01*
X58031355Y-31167178D01*
X58247588Y-30972269D01*
X58421641Y-30738920D01*
X58546825Y-30476099D01*
X58591476Y-30328890D01*
X58470155Y-30099000D01*
X57277000Y-30099000D01*
X57023000Y-30099000D01*
X55829845Y-30099000D01*
X55708524Y-30328890D01*
X42048432Y-30328890D01*
X42116011Y-30165743D01*
X42175000Y-29869184D01*
X42175000Y-29566816D01*
X42116011Y-29270257D01*
X42090223Y-29208000D01*
X44381687Y-29208000D01*
X44527688Y-29426505D01*
X44741495Y-29640312D01*
X44992905Y-29808299D01*
X45272257Y-29924011D01*
X45568816Y-29983000D01*
X45871184Y-29983000D01*
X46167743Y-29924011D01*
X46447095Y-29808299D01*
X46637611Y-29681000D01*
X51251928Y-29681000D01*
X51264188Y-29805482D01*
X51300498Y-29925180D01*
X51359463Y-30035494D01*
X51438815Y-30132185D01*
X51535506Y-30211537D01*
X51645820Y-30270502D01*
X51765518Y-30306812D01*
X51890000Y-30319072D01*
X52104250Y-30316000D01*
X52263000Y-30157250D01*
X52263000Y-29083000D01*
X51413750Y-29083000D01*
X51255000Y-29241750D01*
X51251928Y-29681000D01*
X46637611Y-29681000D01*
X46698505Y-29640312D01*
X46912312Y-29426505D01*
X47080299Y-29175095D01*
X47196011Y-28895743D01*
X47255000Y-28599184D01*
X47255000Y-28296816D01*
X47241909Y-28231000D01*
X51251928Y-28231000D01*
X51255000Y-28670250D01*
X51413750Y-28829000D01*
X52263000Y-28829000D01*
X52263000Y-27754750D01*
X52104250Y-27596000D01*
X51890000Y-27592928D01*
X51765518Y-27605188D01*
X51645820Y-27641498D01*
X51535506Y-27700463D01*
X51438815Y-27779815D01*
X51359463Y-27876506D01*
X51300498Y-27986820D01*
X51264188Y-28106518D01*
X51251928Y-28231000D01*
X47241909Y-28231000D01*
X47196011Y-28000257D01*
X47080299Y-27720905D01*
X46912312Y-27469495D01*
X46698505Y-27255688D01*
X46544895Y-27153049D01*
X46604475Y-26972080D01*
X46493097Y-26860702D01*
X51256903Y-26860702D01*
X51328486Y-27104671D01*
X51583996Y-27225571D01*
X51858184Y-27294300D01*
X52140512Y-27308217D01*
X52420130Y-27266787D01*
X52686292Y-27171603D01*
X52811514Y-27104671D01*
X52883097Y-26860702D01*
X52070000Y-26047605D01*
X51256903Y-26860702D01*
X46493097Y-26860702D01*
X45720000Y-26087605D01*
X44835525Y-26972080D01*
X44895105Y-27153049D01*
X44741495Y-27255688D01*
X44527688Y-27469495D01*
X44381687Y-27688000D01*
X42090223Y-27688000D01*
X42116011Y-27625743D01*
X42175000Y-27329184D01*
X42175000Y-27026816D01*
X42116011Y-26730257D01*
X42000299Y-26450905D01*
X41832312Y-26199495D01*
X41618505Y-25985688D01*
X41601841Y-25974553D01*
X44179009Y-25974553D01*
X44221603Y-26273907D01*
X44321778Y-26559199D01*
X44401739Y-26708792D01*
X44655920Y-26792475D01*
X45540395Y-25908000D01*
X45899605Y-25908000D01*
X46784080Y-26792475D01*
X47038261Y-26708792D01*
X47169158Y-26436225D01*
X47244365Y-26143358D01*
X47255645Y-25938512D01*
X50629783Y-25938512D01*
X50671213Y-26218130D01*
X50766397Y-26484292D01*
X50833329Y-26609514D01*
X51077298Y-26681097D01*
X51890395Y-25868000D01*
X52249605Y-25868000D01*
X53062702Y-26681097D01*
X53306671Y-26609514D01*
X53427571Y-26354004D01*
X53496300Y-26079816D01*
X53510217Y-25797488D01*
X53468787Y-25517870D01*
X53373603Y-25251708D01*
X53306671Y-25126486D01*
X53062702Y-25054903D01*
X52249605Y-25868000D01*
X51890395Y-25868000D01*
X51077298Y-25054903D01*
X50833329Y-25126486D01*
X50712429Y-25381996D01*
X50643700Y-25656184D01*
X50629783Y-25938512D01*
X47255645Y-25938512D01*
X47260991Y-25841447D01*
X47218397Y-25542093D01*
X47118222Y-25256801D01*
X47038261Y-25107208D01*
X46784080Y-25023525D01*
X45899605Y-25908000D01*
X45540395Y-25908000D01*
X44655920Y-25023525D01*
X44401739Y-25107208D01*
X44270842Y-25379775D01*
X44195635Y-25672642D01*
X44179009Y-25974553D01*
X41601841Y-25974553D01*
X41502237Y-25908000D01*
X41618505Y-25830312D01*
X41832312Y-25616505D01*
X42000299Y-25365095D01*
X42116011Y-25085743D01*
X42175000Y-24789184D01*
X42175000Y-24486816D01*
X42116011Y-24190257D01*
X42000299Y-23910905D01*
X41832312Y-23659495D01*
X41765873Y-23593056D01*
X41784180Y-23587502D01*
X41894494Y-23528537D01*
X41991185Y-23449185D01*
X42070537Y-23352494D01*
X42129502Y-23242180D01*
X42137196Y-23216816D01*
X44185000Y-23216816D01*
X44185000Y-23519184D01*
X44243989Y-23815743D01*
X44359701Y-24095095D01*
X44527688Y-24346505D01*
X44741495Y-24560312D01*
X44895105Y-24662951D01*
X44835525Y-24843920D01*
X45720000Y-25728395D01*
X46604475Y-24843920D01*
X46544895Y-24662951D01*
X46698505Y-24560312D01*
X46807015Y-24451802D01*
X50701677Y-24451802D01*
X50739463Y-24522494D01*
X50818815Y-24619185D01*
X50915506Y-24698537D01*
X51025820Y-24757502D01*
X51145518Y-24793812D01*
X51270000Y-24806072D01*
X51277215Y-24806072D01*
X51256903Y-24875298D01*
X52070000Y-25688395D01*
X52883097Y-24875298D01*
X52862785Y-24806072D01*
X52870000Y-24806072D01*
X52994482Y-24793812D01*
X53114180Y-24757502D01*
X53224494Y-24698537D01*
X53321185Y-24619185D01*
X53400537Y-24522494D01*
X53438323Y-24451802D01*
X54161076Y-24451802D01*
X55844881Y-26135609D01*
X55769463Y-26227506D01*
X55710498Y-26337820D01*
X55705705Y-26353620D01*
X55623663Y-26361701D01*
X55601537Y-26363880D01*
X55553988Y-26378304D01*
X55397240Y-26425853D01*
X55208958Y-26526491D01*
X55043928Y-26661928D01*
X55009987Y-26703285D01*
X54120345Y-27592928D01*
X54040000Y-27592928D01*
X53866746Y-27609992D01*
X53700150Y-27660528D01*
X53546614Y-27742595D01*
X53412038Y-27853038D01*
X53406658Y-27859594D01*
X53341185Y-27779815D01*
X53244494Y-27700463D01*
X53134180Y-27641498D01*
X53014482Y-27605188D01*
X52890000Y-27592928D01*
X52675750Y-27596000D01*
X52517000Y-27754750D01*
X52517000Y-28829000D01*
X52537000Y-28829000D01*
X52537000Y-29083000D01*
X52517000Y-29083000D01*
X52517000Y-30157250D01*
X52675750Y-30316000D01*
X52890000Y-30319072D01*
X53014482Y-30306812D01*
X53134180Y-30270502D01*
X53244494Y-30211537D01*
X53341185Y-30132185D01*
X53406658Y-30052406D01*
X53412038Y-30058962D01*
X53546614Y-30169405D01*
X53700150Y-30251472D01*
X53866746Y-30302008D01*
X54040000Y-30319072D01*
X54540000Y-30319072D01*
X54713254Y-30302008D01*
X54879850Y-30251472D01*
X55033386Y-30169405D01*
X55167962Y-30058962D01*
X55278405Y-29924386D01*
X55360472Y-29770850D01*
X55411008Y-29604254D01*
X55428072Y-29431000D01*
X55428072Y-29350655D01*
X55958985Y-28819742D01*
X56055820Y-28871502D01*
X56136466Y-28895966D01*
X56052412Y-28971731D01*
X55878359Y-29205080D01*
X55753175Y-29467901D01*
X55708524Y-29615110D01*
X55829845Y-29845000D01*
X57023000Y-29845000D01*
X57023000Y-29825000D01*
X57277000Y-29825000D01*
X57277000Y-29845000D01*
X58470155Y-29845000D01*
X58591476Y-29615110D01*
X58546825Y-29467901D01*
X58421641Y-29205080D01*
X58247588Y-28971731D01*
X58163534Y-28895966D01*
X58244180Y-28871502D01*
X58354494Y-28812537D01*
X58451185Y-28733185D01*
X58530537Y-28636494D01*
X58589502Y-28526180D01*
X58625812Y-28406482D01*
X58638072Y-28282000D01*
X58638072Y-26582000D01*
X58625812Y-26457518D01*
X58589502Y-26337820D01*
X58530537Y-26227506D01*
X58451185Y-26130815D01*
X58354494Y-26051463D01*
X58244180Y-25992498D01*
X58233802Y-25989350D01*
X58233802Y-25961234D01*
X58239045Y-25907999D01*
X58233802Y-25854764D01*
X58233802Y-25854758D01*
X58218120Y-25695538D01*
X58217640Y-25693954D01*
X58196320Y-25623672D01*
X58156147Y-25491240D01*
X58055509Y-25302958D01*
X57920072Y-25137928D01*
X57878715Y-25103987D01*
X55414021Y-22639295D01*
X55380072Y-22597928D01*
X55215042Y-22462491D01*
X55026760Y-22361853D01*
X54822462Y-22299880D01*
X54815680Y-22299212D01*
X54610000Y-22278954D01*
X54556758Y-22284198D01*
X53438323Y-22284198D01*
X53400537Y-22213506D01*
X53321185Y-22116815D01*
X53224494Y-22037463D01*
X53114180Y-21978498D01*
X52994482Y-21942188D01*
X52870000Y-21929928D01*
X51270000Y-21929928D01*
X51145518Y-21942188D01*
X51025820Y-21978498D01*
X50915506Y-22037463D01*
X50818815Y-22116815D01*
X50739463Y-22213506D01*
X50701677Y-22284198D01*
X46807015Y-22284198D01*
X46698505Y-22175688D01*
X46447095Y-22007701D01*
X46167743Y-21891989D01*
X45871184Y-21833000D01*
X45568816Y-21833000D01*
X45272257Y-21891989D01*
X44992905Y-22007701D01*
X44741495Y-22175688D01*
X44527688Y-22389495D01*
X44359701Y-22640905D01*
X44243989Y-22920257D01*
X44185000Y-23216816D01*
X42137196Y-23216816D01*
X42165812Y-23122482D01*
X42178072Y-22998000D01*
X42178072Y-21198000D01*
X42165812Y-21073518D01*
X42129502Y-20953820D01*
X42070537Y-20843506D01*
X41991185Y-20746815D01*
X41894494Y-20667463D01*
X41784180Y-20608498D01*
X41664482Y-20572188D01*
X41540000Y-20559928D01*
X39740000Y-20559928D01*
X39615518Y-20572188D01*
X39495820Y-20608498D01*
X39385506Y-20667463D01*
X39288815Y-20746815D01*
X39209463Y-20843506D01*
X39174272Y-20909343D01*
X39174272Y-20870200D01*
X39162012Y-20745718D01*
X39125702Y-20626020D01*
X39066737Y-20515706D01*
X38987385Y-20419015D01*
X38968014Y-20403117D01*
X55161000Y-20403117D01*
X55161000Y-20744883D01*
X55227675Y-21080081D01*
X55358463Y-21395831D01*
X55548337Y-21679998D01*
X55790002Y-21921663D01*
X56074169Y-22111537D01*
X56389919Y-22242325D01*
X56725117Y-22309000D01*
X57066883Y-22309000D01*
X57402081Y-22242325D01*
X57717831Y-22111537D01*
X58001998Y-21921663D01*
X58243663Y-21679998D01*
X58433537Y-21395831D01*
X58564325Y-21080081D01*
X58631000Y-20744883D01*
X58631000Y-20403117D01*
X58564325Y-20067919D01*
X58433537Y-19752169D01*
X58243663Y-19468002D01*
X58001998Y-19226337D01*
X57717831Y-19036463D01*
X57402081Y-18905675D01*
X57066883Y-18839000D01*
X56725117Y-18839000D01*
X56389919Y-18905675D01*
X56074169Y-19036463D01*
X55790002Y-19226337D01*
X55548337Y-19468002D01*
X55358463Y-19752169D01*
X55227675Y-20067919D01*
X55161000Y-20403117D01*
X38968014Y-20403117D01*
X38890694Y-20339663D01*
X38780380Y-20280698D01*
X38660682Y-20244388D01*
X38536200Y-20232128D01*
X37136200Y-20232128D01*
X37011718Y-20244388D01*
X36892020Y-20280698D01*
X36781706Y-20339663D01*
X36685015Y-20419015D01*
X36605663Y-20515706D01*
X36546698Y-20626020D01*
X36510388Y-20745718D01*
X36498128Y-20870200D01*
X36498128Y-22970200D01*
X36510388Y-23094682D01*
X36546698Y-23214380D01*
X36605663Y-23324694D01*
X36668940Y-23401798D01*
X36324245Y-23401798D01*
X36271000Y-23396554D01*
X36058537Y-23417479D01*
X35866338Y-23475783D01*
X35854240Y-23479453D01*
X35665958Y-23580091D01*
X35630089Y-23609528D01*
X34909000Y-23609528D01*
X34784518Y-23621788D01*
X34664820Y-23658098D01*
X34554506Y-23717063D01*
X34457815Y-23796415D01*
X34378463Y-23893106D01*
X34319498Y-24003420D01*
X34283188Y-24123118D01*
X34270928Y-24247600D01*
X34270928Y-26247600D01*
X34283188Y-26372082D01*
X34319498Y-26491780D01*
X34378463Y-26602094D01*
X34457815Y-26698785D01*
X34554506Y-26778137D01*
X34664820Y-26837102D01*
X34784518Y-26873412D01*
X34909000Y-26885672D01*
X36109000Y-26885672D01*
X36233482Y-26873412D01*
X36353180Y-26837102D01*
X36463494Y-26778137D01*
X36470963Y-26772007D01*
X36474592Y-26808854D01*
X36525128Y-26975450D01*
X36607195Y-27128986D01*
X36717638Y-27263562D01*
X36817551Y-27345558D01*
X36742638Y-27407038D01*
X36632195Y-27541613D01*
X36630712Y-27544388D01*
X36550162Y-27446238D01*
X36415587Y-27335795D01*
X36262051Y-27253728D01*
X36095455Y-27203192D01*
X35922201Y-27186128D01*
X35397199Y-27186128D01*
X35223945Y-27203192D01*
X35057349Y-27253728D01*
X34903813Y-27335795D01*
X34769238Y-27446238D01*
X34747200Y-27473091D01*
X34725162Y-27446238D01*
X34590587Y-27335795D01*
X34437051Y-27253728D01*
X34270455Y-27203192D01*
X34097201Y-27186128D01*
X34029354Y-27186128D01*
X33939266Y-27096040D01*
X33939261Y-27096034D01*
X33441552Y-26598325D01*
X33498502Y-26491780D01*
X33534812Y-26372082D01*
X33547072Y-26247600D01*
X33547072Y-24247600D01*
X33534812Y-24123118D01*
X33498502Y-24003420D01*
X33439537Y-23893106D01*
X33360185Y-23796415D01*
X33263494Y-23717063D01*
X33153180Y-23658098D01*
X33033482Y-23621788D01*
X32909000Y-23609528D01*
X31709000Y-23609528D01*
X31584518Y-23621788D01*
X31464820Y-23658098D01*
X31354506Y-23717063D01*
X31329213Y-23737820D01*
X31369072Y-23663250D01*
X31419608Y-23496654D01*
X31436672Y-23323400D01*
X31436672Y-22970200D01*
X32098128Y-22970200D01*
X32110388Y-23094682D01*
X32146698Y-23214380D01*
X32205663Y-23324694D01*
X32285015Y-23421385D01*
X32381706Y-23500737D01*
X32492020Y-23559702D01*
X32611718Y-23596012D01*
X32736200Y-23608272D01*
X33150450Y-23605200D01*
X33309200Y-23446450D01*
X33309200Y-22047200D01*
X33563200Y-22047200D01*
X33563200Y-23446450D01*
X33721950Y-23605200D01*
X34136200Y-23608272D01*
X34260682Y-23596012D01*
X34380380Y-23559702D01*
X34490694Y-23500737D01*
X34587385Y-23421385D01*
X34666737Y-23324694D01*
X34725702Y-23214380D01*
X34762012Y-23094682D01*
X34774272Y-22970200D01*
X34771200Y-22205950D01*
X34612450Y-22047200D01*
X33563200Y-22047200D01*
X33309200Y-22047200D01*
X32259950Y-22047200D01*
X32101200Y-22205950D01*
X32098128Y-22970200D01*
X31436672Y-22970200D01*
X31436672Y-22823400D01*
X31419608Y-22650146D01*
X31369072Y-22483550D01*
X31287005Y-22330014D01*
X31176562Y-22195438D01*
X31170006Y-22190058D01*
X31249785Y-22124585D01*
X31329137Y-22027894D01*
X31388102Y-21917580D01*
X31424412Y-21797882D01*
X31436672Y-21673400D01*
X31433600Y-21459150D01*
X31274850Y-21300400D01*
X30200600Y-21300400D01*
X30200600Y-21320400D01*
X29946600Y-21320400D01*
X29946600Y-21300400D01*
X28872350Y-21300400D01*
X28713600Y-21459150D01*
X28710528Y-21673400D01*
X28722788Y-21797882D01*
X28759098Y-21917580D01*
X28818063Y-22027894D01*
X28897415Y-22124585D01*
X28977194Y-22190058D01*
X28970638Y-22195438D01*
X28860195Y-22330014D01*
X28778128Y-22483550D01*
X28727592Y-22650146D01*
X28710528Y-22823400D01*
X28710528Y-23323400D01*
X28727592Y-23496654D01*
X28778128Y-23663250D01*
X28860195Y-23816786D01*
X28970638Y-23951362D01*
X28973176Y-23953445D01*
X28791775Y-24134847D01*
X28459800Y-23802873D01*
X28459800Y-23704340D01*
X28402732Y-23417442D01*
X28290790Y-23147189D01*
X28128275Y-22903968D01*
X27996420Y-22772113D01*
X28068980Y-22750102D01*
X28179294Y-22691137D01*
X28275985Y-22611785D01*
X28355337Y-22515094D01*
X28414302Y-22404780D01*
X28450612Y-22285082D01*
X28462872Y-22160600D01*
X28459800Y-21596350D01*
X28301050Y-21437600D01*
X27101800Y-21437600D01*
X27101800Y-21457600D01*
X26847800Y-21457600D01*
X26847800Y-21437600D01*
X25648550Y-21437600D01*
X25489800Y-21596350D01*
X25486728Y-22160600D01*
X22707200Y-22160600D01*
X22707200Y-20460600D01*
X25486728Y-20460600D01*
X25489800Y-21024850D01*
X25648550Y-21183600D01*
X26847800Y-21183600D01*
X26847800Y-19984350D01*
X27101800Y-19984350D01*
X27101800Y-21183600D01*
X28301050Y-21183600D01*
X28459800Y-21024850D01*
X28461713Y-20673400D01*
X28710528Y-20673400D01*
X28713600Y-20887650D01*
X28872350Y-21046400D01*
X29946600Y-21046400D01*
X29946600Y-20197150D01*
X30200600Y-20197150D01*
X30200600Y-21046400D01*
X31274850Y-21046400D01*
X31433600Y-20887650D01*
X31433850Y-20870200D01*
X32098128Y-20870200D01*
X32101200Y-21634450D01*
X32259950Y-21793200D01*
X33309200Y-21793200D01*
X33309200Y-20393950D01*
X33563200Y-20393950D01*
X33563200Y-21793200D01*
X34612450Y-21793200D01*
X34771200Y-21634450D01*
X34774272Y-20870200D01*
X34762012Y-20745718D01*
X34725702Y-20626020D01*
X34666737Y-20515706D01*
X34587385Y-20419015D01*
X34490694Y-20339663D01*
X34380380Y-20280698D01*
X34260682Y-20244388D01*
X34136200Y-20232128D01*
X33721950Y-20235200D01*
X33563200Y-20393950D01*
X33309200Y-20393950D01*
X33150450Y-20235200D01*
X32736200Y-20232128D01*
X32611718Y-20244388D01*
X32492020Y-20280698D01*
X32381706Y-20339663D01*
X32285015Y-20419015D01*
X32205663Y-20515706D01*
X32146698Y-20626020D01*
X32110388Y-20745718D01*
X32098128Y-20870200D01*
X31433850Y-20870200D01*
X31436672Y-20673400D01*
X31424412Y-20548918D01*
X31388102Y-20429220D01*
X31329137Y-20318906D01*
X31249785Y-20222215D01*
X31153094Y-20142863D01*
X31042780Y-20083898D01*
X30923082Y-20047588D01*
X30798600Y-20035328D01*
X30359350Y-20038400D01*
X30200600Y-20197150D01*
X29946600Y-20197150D01*
X29787850Y-20038400D01*
X29348600Y-20035328D01*
X29224118Y-20047588D01*
X29104420Y-20083898D01*
X28994106Y-20142863D01*
X28897415Y-20222215D01*
X28818063Y-20318906D01*
X28759098Y-20429220D01*
X28722788Y-20548918D01*
X28710528Y-20673400D01*
X28461713Y-20673400D01*
X28462872Y-20460600D01*
X28450612Y-20336118D01*
X28414302Y-20216420D01*
X28355337Y-20106106D01*
X28275985Y-20009415D01*
X28179294Y-19930063D01*
X28068980Y-19871098D01*
X27949282Y-19834788D01*
X27824800Y-19822528D01*
X27260550Y-19825600D01*
X27101800Y-19984350D01*
X26847800Y-19984350D01*
X26689050Y-19825600D01*
X26124800Y-19822528D01*
X26000318Y-19834788D01*
X25880620Y-19871098D01*
X25770306Y-19930063D01*
X25673615Y-20009415D01*
X25594263Y-20106106D01*
X25535298Y-20216420D01*
X25498988Y-20336118D01*
X25486728Y-20460600D01*
X22707200Y-20460600D01*
X22707200Y-17741500D01*
X58776001Y-17741500D01*
X58776000Y-36424000D01*
G37*
G04 #@! TD.AperFunction*
D22*
X34769238Y-29602162D02*
X34903813Y-29712605D01*
X35057349Y-29794672D01*
X35223945Y-29845208D01*
X35397199Y-29862272D01*
X35922201Y-29862272D01*
X36095455Y-29845208D01*
X36262051Y-29794672D01*
X36415587Y-29712605D01*
X36483167Y-29657144D01*
X36485600Y-29836750D01*
X36644350Y-29995500D01*
X37693600Y-29995500D01*
X37693600Y-29975500D01*
X37947600Y-29975500D01*
X37947600Y-29995500D01*
X37967600Y-29995500D01*
X37967600Y-30249500D01*
X37947600Y-30249500D01*
X37947600Y-30269500D01*
X37693600Y-30269500D01*
X37693600Y-30249500D01*
X36644350Y-30249500D01*
X36485600Y-30408250D01*
X36482528Y-30635000D01*
X36494788Y-30759482D01*
X36531098Y-30879180D01*
X36590063Y-30989494D01*
X36617449Y-31022864D01*
X36518800Y-31021528D01*
X36394318Y-31033788D01*
X36274620Y-31070098D01*
X36164306Y-31129063D01*
X36067615Y-31208415D01*
X36043437Y-31237876D01*
X35962187Y-31171195D01*
X35808651Y-31089128D01*
X35642055Y-31038592D01*
X35468801Y-31021528D01*
X34943799Y-31021528D01*
X34770545Y-31038592D01*
X34603949Y-31089128D01*
X34450413Y-31171195D01*
X34315838Y-31281638D01*
X34215466Y-31403941D01*
X34113592Y-31279808D01*
X33979964Y-31170142D01*
X33827509Y-31088653D01*
X33662085Y-31038472D01*
X33490050Y-31021528D01*
X33002550Y-31021528D01*
X32830515Y-31038472D01*
X32665091Y-31088653D01*
X32512636Y-31170142D01*
X32379008Y-31279808D01*
X32308800Y-31365356D01*
X32280097Y-31330381D01*
X33742999Y-29867480D01*
X33749345Y-29862272D01*
X34097201Y-29862272D01*
X34270455Y-29845208D01*
X34437051Y-29794672D01*
X34590587Y-29712605D01*
X34725162Y-29602162D01*
X34747200Y-29575309D01*
X34769238Y-29602162D01*
G04 #@! TA.AperFunction,Conductor*
D23*
G36*
X34769238Y-29602162D02*
G01*
X34903813Y-29712605D01*
X35057349Y-29794672D01*
X35223945Y-29845208D01*
X35397199Y-29862272D01*
X35922201Y-29862272D01*
X36095455Y-29845208D01*
X36262051Y-29794672D01*
X36415587Y-29712605D01*
X36483167Y-29657144D01*
X36485600Y-29836750D01*
X36644350Y-29995500D01*
X37693600Y-29995500D01*
X37693600Y-29975500D01*
X37947600Y-29975500D01*
X37947600Y-29995500D01*
X37967600Y-29995500D01*
X37967600Y-30249500D01*
X37947600Y-30249500D01*
X37947600Y-30269500D01*
X37693600Y-30269500D01*
X37693600Y-30249500D01*
X36644350Y-30249500D01*
X36485600Y-30408250D01*
X36482528Y-30635000D01*
X36494788Y-30759482D01*
X36531098Y-30879180D01*
X36590063Y-30989494D01*
X36617449Y-31022864D01*
X36518800Y-31021528D01*
X36394318Y-31033788D01*
X36274620Y-31070098D01*
X36164306Y-31129063D01*
X36067615Y-31208415D01*
X36043437Y-31237876D01*
X35962187Y-31171195D01*
X35808651Y-31089128D01*
X35642055Y-31038592D01*
X35468801Y-31021528D01*
X34943799Y-31021528D01*
X34770545Y-31038592D01*
X34603949Y-31089128D01*
X34450413Y-31171195D01*
X34315838Y-31281638D01*
X34215466Y-31403941D01*
X34113592Y-31279808D01*
X33979964Y-31170142D01*
X33827509Y-31088653D01*
X33662085Y-31038472D01*
X33490050Y-31021528D01*
X33002550Y-31021528D01*
X32830515Y-31038472D01*
X32665091Y-31088653D01*
X32512636Y-31170142D01*
X32379008Y-31279808D01*
X32308800Y-31365356D01*
X32280097Y-31330381D01*
X33742999Y-29867480D01*
X33749345Y-29862272D01*
X34097201Y-29862272D01*
X34270455Y-29845208D01*
X34437051Y-29794672D01*
X34590587Y-29712605D01*
X34725162Y-29602162D01*
X34747200Y-29575309D01*
X34769238Y-29602162D01*
G37*
G04 #@! TD.AperFunction*
M02*
