%TF.GenerationSoftware,KiCad,Pcbnew,(5.1.10)-1*%
%TF.CreationDate,2021-10-28T16:28:33-07:00*%
%TF.ProjectId,AtlasPD,41746c61-7350-4442-9e6b-696361645f70,1.0*%
%TF.SameCoordinates,Original*%
%TF.FileFunction,Paste,Top*%
%TF.FilePolarity,Positive*%
%FSLAX46Y46*%
G04 Gerber Fmt 4.6, Leading zero omitted, Abs format (unit mm)*
G04 Created by KiCad (PCBNEW (5.1.10)-1) date 2021-10-28 16:28:33*
%MOMM*%
%LPD*%
G01*
G04 APERTURE LIST*
%ADD10R,0.650000X0.750000*%
%ADD11R,0.250000X0.500000*%
%ADD12R,1.300000X1.550000*%
%ADD13C,0.100000*%
%ADD14R,2.000000X1.500000*%
%ADD15R,2.000000X3.800000*%
%ADD16R,1.450000X0.600000*%
%ADD17R,1.450000X0.300000*%
G04 APERTURE END LIST*
%TO.C,C205*%
G36*
G01*
X238560800Y-36494600D02*
X239060800Y-36494600D01*
G75*
G02*
X239285800Y-36719600I0J-225000D01*
G01*
X239285800Y-37169600D01*
G75*
G02*
X239060800Y-37394600I-225000J0D01*
G01*
X238560800Y-37394600D01*
G75*
G02*
X238335800Y-37169600I0J225000D01*
G01*
X238335800Y-36719600D01*
G75*
G02*
X238560800Y-36494600I225000J0D01*
G01*
G37*
G36*
G01*
X238560800Y-34944600D02*
X239060800Y-34944600D01*
G75*
G02*
X239285800Y-35169600I0J-225000D01*
G01*
X239285800Y-35619600D01*
G75*
G02*
X239060800Y-35844600I-225000J0D01*
G01*
X238560800Y-35844600D01*
G75*
G02*
X238335800Y-35619600I0J225000D01*
G01*
X238335800Y-35169600D01*
G75*
G02*
X238560800Y-34944600I225000J0D01*
G01*
G37*
%TD*%
%TO.C,C403*%
G36*
G01*
X214863800Y-41736200D02*
X214863800Y-42236200D01*
G75*
G02*
X214638800Y-42461200I-225000J0D01*
G01*
X214188800Y-42461200D01*
G75*
G02*
X213963800Y-42236200I0J225000D01*
G01*
X213963800Y-41736200D01*
G75*
G02*
X214188800Y-41511200I225000J0D01*
G01*
X214638800Y-41511200D01*
G75*
G02*
X214863800Y-41736200I0J-225000D01*
G01*
G37*
G36*
G01*
X216413800Y-41736200D02*
X216413800Y-42236200D01*
G75*
G02*
X216188800Y-42461200I-225000J0D01*
G01*
X215738800Y-42461200D01*
G75*
G02*
X215513800Y-42236200I0J225000D01*
G01*
X215513800Y-41736200D01*
G75*
G02*
X215738800Y-41511200I225000J0D01*
G01*
X216188800Y-41511200D01*
G75*
G02*
X216413800Y-41736200I0J-225000D01*
G01*
G37*
%TD*%
D10*
%TO.C,U302*%
X244729000Y-59270900D03*
X245529000Y-59270900D03*
D11*
X245379000Y-58320900D03*
X245879000Y-58320900D03*
X245879000Y-60220900D03*
X244879000Y-60220900D03*
X244379000Y-60220900D03*
X244379000Y-58320900D03*
X244879000Y-58320900D03*
X245379000Y-60220900D03*
%TD*%
D10*
%TO.C,U303*%
X228739800Y-58445400D03*
X229539800Y-58445400D03*
D11*
X229389800Y-57495400D03*
X229889800Y-57495400D03*
X229889800Y-59395400D03*
X228889800Y-59395400D03*
X228389800Y-59395400D03*
X228389800Y-57495400D03*
X228889800Y-57495400D03*
X229389800Y-59395400D03*
%TD*%
%TO.C,U301*%
G36*
G01*
X221004000Y-53190000D02*
X221004000Y-53490000D01*
G75*
G02*
X220854000Y-53640000I-150000J0D01*
G01*
X219204000Y-53640000D01*
G75*
G02*
X219054000Y-53490000I0J150000D01*
G01*
X219054000Y-53190000D01*
G75*
G02*
X219204000Y-53040000I150000J0D01*
G01*
X220854000Y-53040000D01*
G75*
G02*
X221004000Y-53190000I0J-150000D01*
G01*
G37*
G36*
G01*
X221004000Y-51920000D02*
X221004000Y-52220000D01*
G75*
G02*
X220854000Y-52370000I-150000J0D01*
G01*
X219204000Y-52370000D01*
G75*
G02*
X219054000Y-52220000I0J150000D01*
G01*
X219054000Y-51920000D01*
G75*
G02*
X219204000Y-51770000I150000J0D01*
G01*
X220854000Y-51770000D01*
G75*
G02*
X221004000Y-51920000I0J-150000D01*
G01*
G37*
G36*
G01*
X221004000Y-50650000D02*
X221004000Y-50950000D01*
G75*
G02*
X220854000Y-51100000I-150000J0D01*
G01*
X219204000Y-51100000D01*
G75*
G02*
X219054000Y-50950000I0J150000D01*
G01*
X219054000Y-50650000D01*
G75*
G02*
X219204000Y-50500000I150000J0D01*
G01*
X220854000Y-50500000D01*
G75*
G02*
X221004000Y-50650000I0J-150000D01*
G01*
G37*
G36*
G01*
X221004000Y-49380000D02*
X221004000Y-49680000D01*
G75*
G02*
X220854000Y-49830000I-150000J0D01*
G01*
X219204000Y-49830000D01*
G75*
G02*
X219054000Y-49680000I0J150000D01*
G01*
X219054000Y-49380000D01*
G75*
G02*
X219204000Y-49230000I150000J0D01*
G01*
X220854000Y-49230000D01*
G75*
G02*
X221004000Y-49380000I0J-150000D01*
G01*
G37*
G36*
G01*
X221004000Y-48110000D02*
X221004000Y-48410000D01*
G75*
G02*
X220854000Y-48560000I-150000J0D01*
G01*
X219204000Y-48560000D01*
G75*
G02*
X219054000Y-48410000I0J150000D01*
G01*
X219054000Y-48110000D01*
G75*
G02*
X219204000Y-47960000I150000J0D01*
G01*
X220854000Y-47960000D01*
G75*
G02*
X221004000Y-48110000I0J-150000D01*
G01*
G37*
G36*
G01*
X221004000Y-46840000D02*
X221004000Y-47140000D01*
G75*
G02*
X220854000Y-47290000I-150000J0D01*
G01*
X219204000Y-47290000D01*
G75*
G02*
X219054000Y-47140000I0J150000D01*
G01*
X219054000Y-46840000D01*
G75*
G02*
X219204000Y-46690000I150000J0D01*
G01*
X220854000Y-46690000D01*
G75*
G02*
X221004000Y-46840000I0J-150000D01*
G01*
G37*
G36*
G01*
X221004000Y-45570000D02*
X221004000Y-45870000D01*
G75*
G02*
X220854000Y-46020000I-150000J0D01*
G01*
X219204000Y-46020000D01*
G75*
G02*
X219054000Y-45870000I0J150000D01*
G01*
X219054000Y-45570000D01*
G75*
G02*
X219204000Y-45420000I150000J0D01*
G01*
X220854000Y-45420000D01*
G75*
G02*
X221004000Y-45570000I0J-150000D01*
G01*
G37*
G36*
G01*
X225954000Y-45570000D02*
X225954000Y-45870000D01*
G75*
G02*
X225804000Y-46020000I-150000J0D01*
G01*
X224154000Y-46020000D01*
G75*
G02*
X224004000Y-45870000I0J150000D01*
G01*
X224004000Y-45570000D01*
G75*
G02*
X224154000Y-45420000I150000J0D01*
G01*
X225804000Y-45420000D01*
G75*
G02*
X225954000Y-45570000I0J-150000D01*
G01*
G37*
G36*
G01*
X225954000Y-46840000D02*
X225954000Y-47140000D01*
G75*
G02*
X225804000Y-47290000I-150000J0D01*
G01*
X224154000Y-47290000D01*
G75*
G02*
X224004000Y-47140000I0J150000D01*
G01*
X224004000Y-46840000D01*
G75*
G02*
X224154000Y-46690000I150000J0D01*
G01*
X225804000Y-46690000D01*
G75*
G02*
X225954000Y-46840000I0J-150000D01*
G01*
G37*
G36*
G01*
X225954000Y-48110000D02*
X225954000Y-48410000D01*
G75*
G02*
X225804000Y-48560000I-150000J0D01*
G01*
X224154000Y-48560000D01*
G75*
G02*
X224004000Y-48410000I0J150000D01*
G01*
X224004000Y-48110000D01*
G75*
G02*
X224154000Y-47960000I150000J0D01*
G01*
X225804000Y-47960000D01*
G75*
G02*
X225954000Y-48110000I0J-150000D01*
G01*
G37*
G36*
G01*
X225954000Y-49380000D02*
X225954000Y-49680000D01*
G75*
G02*
X225804000Y-49830000I-150000J0D01*
G01*
X224154000Y-49830000D01*
G75*
G02*
X224004000Y-49680000I0J150000D01*
G01*
X224004000Y-49380000D01*
G75*
G02*
X224154000Y-49230000I150000J0D01*
G01*
X225804000Y-49230000D01*
G75*
G02*
X225954000Y-49380000I0J-150000D01*
G01*
G37*
G36*
G01*
X225954000Y-50650000D02*
X225954000Y-50950000D01*
G75*
G02*
X225804000Y-51100000I-150000J0D01*
G01*
X224154000Y-51100000D01*
G75*
G02*
X224004000Y-50950000I0J150000D01*
G01*
X224004000Y-50650000D01*
G75*
G02*
X224154000Y-50500000I150000J0D01*
G01*
X225804000Y-50500000D01*
G75*
G02*
X225954000Y-50650000I0J-150000D01*
G01*
G37*
G36*
G01*
X225954000Y-51920000D02*
X225954000Y-52220000D01*
G75*
G02*
X225804000Y-52370000I-150000J0D01*
G01*
X224154000Y-52370000D01*
G75*
G02*
X224004000Y-52220000I0J150000D01*
G01*
X224004000Y-51920000D01*
G75*
G02*
X224154000Y-51770000I150000J0D01*
G01*
X225804000Y-51770000D01*
G75*
G02*
X225954000Y-51920000I0J-150000D01*
G01*
G37*
G36*
G01*
X225954000Y-53190000D02*
X225954000Y-53490000D01*
G75*
G02*
X225804000Y-53640000I-150000J0D01*
G01*
X224154000Y-53640000D01*
G75*
G02*
X224004000Y-53490000I0J150000D01*
G01*
X224004000Y-53190000D01*
G75*
G02*
X224154000Y-53040000I150000J0D01*
G01*
X225804000Y-53040000D01*
G75*
G02*
X225954000Y-53190000I0J-150000D01*
G01*
G37*
%TD*%
%TO.C,D204*%
G36*
G01*
X229889800Y-36451250D02*
X229889800Y-35938750D01*
G75*
G02*
X230108550Y-35720000I218750J0D01*
G01*
X230546050Y-35720000D01*
G75*
G02*
X230764800Y-35938750I0J-218750D01*
G01*
X230764800Y-36451250D01*
G75*
G02*
X230546050Y-36670000I-218750J0D01*
G01*
X230108550Y-36670000D01*
G75*
G02*
X229889800Y-36451250I0J218750D01*
G01*
G37*
G36*
G01*
X228314800Y-36451250D02*
X228314800Y-35938750D01*
G75*
G02*
X228533550Y-35720000I218750J0D01*
G01*
X228971050Y-35720000D01*
G75*
G02*
X229189800Y-35938750I0J-218750D01*
G01*
X229189800Y-36451250D01*
G75*
G02*
X228971050Y-36670000I-218750J0D01*
G01*
X228533550Y-36670000D01*
G75*
G02*
X228314800Y-36451250I0J218750D01*
G01*
G37*
%TD*%
%TO.C,D201*%
G36*
G01*
X229889800Y-34876450D02*
X229889800Y-34363950D01*
G75*
G02*
X230108550Y-34145200I218750J0D01*
G01*
X230546050Y-34145200D01*
G75*
G02*
X230764800Y-34363950I0J-218750D01*
G01*
X230764800Y-34876450D01*
G75*
G02*
X230546050Y-35095200I-218750J0D01*
G01*
X230108550Y-35095200D01*
G75*
G02*
X229889800Y-34876450I0J218750D01*
G01*
G37*
G36*
G01*
X228314800Y-34876450D02*
X228314800Y-34363950D01*
G75*
G02*
X228533550Y-34145200I218750J0D01*
G01*
X228971050Y-34145200D01*
G75*
G02*
X229189800Y-34363950I0J-218750D01*
G01*
X229189800Y-34876450D01*
G75*
G02*
X228971050Y-35095200I-218750J0D01*
G01*
X228533550Y-35095200D01*
G75*
G02*
X228314800Y-34876450I0J218750D01*
G01*
G37*
%TD*%
%TO.C,D203*%
G36*
G01*
X229889800Y-38076850D02*
X229889800Y-37564350D01*
G75*
G02*
X230108550Y-37345600I218750J0D01*
G01*
X230546050Y-37345600D01*
G75*
G02*
X230764800Y-37564350I0J-218750D01*
G01*
X230764800Y-38076850D01*
G75*
G02*
X230546050Y-38295600I-218750J0D01*
G01*
X230108550Y-38295600D01*
G75*
G02*
X229889800Y-38076850I0J218750D01*
G01*
G37*
G36*
G01*
X228314800Y-38076850D02*
X228314800Y-37564350D01*
G75*
G02*
X228533550Y-37345600I218750J0D01*
G01*
X228971050Y-37345600D01*
G75*
G02*
X229189800Y-37564350I0J-218750D01*
G01*
X229189800Y-38076850D01*
G75*
G02*
X228971050Y-38295600I-218750J0D01*
G01*
X228533550Y-38295600D01*
G75*
G02*
X228314800Y-38076850I0J218750D01*
G01*
G37*
%TD*%
%TO.C,D202*%
G36*
G01*
X229889800Y-39626250D02*
X229889800Y-39113750D01*
G75*
G02*
X230108550Y-38895000I218750J0D01*
G01*
X230546050Y-38895000D01*
G75*
G02*
X230764800Y-39113750I0J-218750D01*
G01*
X230764800Y-39626250D01*
G75*
G02*
X230546050Y-39845000I-218750J0D01*
G01*
X230108550Y-39845000D01*
G75*
G02*
X229889800Y-39626250I0J218750D01*
G01*
G37*
G36*
G01*
X228314800Y-39626250D02*
X228314800Y-39113750D01*
G75*
G02*
X228533550Y-38895000I218750J0D01*
G01*
X228971050Y-38895000D01*
G75*
G02*
X229189800Y-39113750I0J-218750D01*
G01*
X229189800Y-39626250D01*
G75*
G02*
X228971050Y-39845000I-218750J0D01*
G01*
X228533550Y-39845000D01*
G75*
G02*
X228314800Y-39626250I0J218750D01*
G01*
G37*
%TD*%
%TO.C,R201*%
G36*
G01*
X213330200Y-36024000D02*
X212780200Y-36024000D01*
G75*
G02*
X212580200Y-35824000I0J200000D01*
G01*
X212580200Y-35424000D01*
G75*
G02*
X212780200Y-35224000I200000J0D01*
G01*
X213330200Y-35224000D01*
G75*
G02*
X213530200Y-35424000I0J-200000D01*
G01*
X213530200Y-35824000D01*
G75*
G02*
X213330200Y-36024000I-200000J0D01*
G01*
G37*
G36*
G01*
X213330200Y-37674000D02*
X212780200Y-37674000D01*
G75*
G02*
X212580200Y-37474000I0J200000D01*
G01*
X212580200Y-37074000D01*
G75*
G02*
X212780200Y-36874000I200000J0D01*
G01*
X213330200Y-36874000D01*
G75*
G02*
X213530200Y-37074000I0J-200000D01*
G01*
X213530200Y-37474000D01*
G75*
G02*
X213330200Y-37674000I-200000J0D01*
G01*
G37*
%TD*%
D12*
%TO.C,SW201*%
X248879800Y-37071200D03*
X253379800Y-37071200D03*
X253379800Y-29121200D03*
X248879800Y-29121200D03*
%TD*%
D13*
%TO.C,Y201*%
G36*
X243814973Y-50726870D02*
G01*
X242471470Y-52070373D01*
X242188627Y-51787530D01*
X243532130Y-50444027D01*
X243814973Y-50726870D01*
G37*
G36*
X244663502Y-51575398D02*
G01*
X243319999Y-52918901D01*
X243037156Y-52636058D01*
X244380659Y-51292555D01*
X244663502Y-51575398D01*
G37*
G36*
X245512030Y-52423927D02*
G01*
X244168527Y-53767430D01*
X243885684Y-53484587D01*
X245229187Y-52141084D01*
X245512030Y-52423927D01*
G37*
%TD*%
D14*
%TO.C,U401*%
X209600400Y-44258200D03*
X209600400Y-48858200D03*
X209600400Y-46558200D03*
D15*
X215900400Y-46558200D03*
%TD*%
%TO.C,U201*%
G36*
G01*
X218285600Y-37628001D02*
X218285600Y-37077999D01*
G75*
G02*
X218535599Y-36828000I249999J0D01*
G01*
X219085601Y-36828000D01*
G75*
G02*
X219335600Y-37077999I0J-249999D01*
G01*
X219335600Y-37628001D01*
G75*
G02*
X219085601Y-37878000I-249999J0D01*
G01*
X218535599Y-37878000D01*
G75*
G02*
X218285600Y-37628001I0J249999D01*
G01*
G37*
G36*
G01*
X218285600Y-36328001D02*
X218285600Y-35777999D01*
G75*
G02*
X218535599Y-35528000I249999J0D01*
G01*
X219085601Y-35528000D01*
G75*
G02*
X219335600Y-35777999I0J-249999D01*
G01*
X219335600Y-36328001D01*
G75*
G02*
X219085601Y-36578000I-249999J0D01*
G01*
X218535599Y-36578000D01*
G75*
G02*
X218285600Y-36328001I0J249999D01*
G01*
G37*
G36*
G01*
X216985600Y-37628001D02*
X216985600Y-37077999D01*
G75*
G02*
X217235599Y-36828000I249999J0D01*
G01*
X217785601Y-36828000D01*
G75*
G02*
X218035600Y-37077999I0J-249999D01*
G01*
X218035600Y-37628001D01*
G75*
G02*
X217785601Y-37878000I-249999J0D01*
G01*
X217235599Y-37878000D01*
G75*
G02*
X216985600Y-37628001I0J249999D01*
G01*
G37*
G36*
G01*
X216985600Y-36328001D02*
X216985600Y-35777999D01*
G75*
G02*
X217235599Y-35528000I249999J0D01*
G01*
X217785601Y-35528000D01*
G75*
G02*
X218035600Y-35777999I0J-249999D01*
G01*
X218035600Y-36328001D01*
G75*
G02*
X217785601Y-36578000I-249999J0D01*
G01*
X217235599Y-36578000D01*
G75*
G02*
X216985600Y-36328001I0J249999D01*
G01*
G37*
G36*
G01*
X216785600Y-35115500D02*
X216785600Y-34415500D01*
G75*
G02*
X216848100Y-34353000I62500J0D01*
G01*
X216973100Y-34353000D01*
G75*
G02*
X217035600Y-34415500I0J-62500D01*
G01*
X217035600Y-35115500D01*
G75*
G02*
X216973100Y-35178000I-62500J0D01*
G01*
X216848100Y-35178000D01*
G75*
G02*
X216785600Y-35115500I0J62500D01*
G01*
G37*
G36*
G01*
X217285600Y-35115500D02*
X217285600Y-34415500D01*
G75*
G02*
X217348100Y-34353000I62500J0D01*
G01*
X217473100Y-34353000D01*
G75*
G02*
X217535600Y-34415500I0J-62500D01*
G01*
X217535600Y-35115500D01*
G75*
G02*
X217473100Y-35178000I-62500J0D01*
G01*
X217348100Y-35178000D01*
G75*
G02*
X217285600Y-35115500I0J62500D01*
G01*
G37*
G36*
G01*
X217785600Y-35115500D02*
X217785600Y-34415500D01*
G75*
G02*
X217848100Y-34353000I62500J0D01*
G01*
X217973100Y-34353000D01*
G75*
G02*
X218035600Y-34415500I0J-62500D01*
G01*
X218035600Y-35115500D01*
G75*
G02*
X217973100Y-35178000I-62500J0D01*
G01*
X217848100Y-35178000D01*
G75*
G02*
X217785600Y-35115500I0J62500D01*
G01*
G37*
G36*
G01*
X218285600Y-35115500D02*
X218285600Y-34415500D01*
G75*
G02*
X218348100Y-34353000I62500J0D01*
G01*
X218473100Y-34353000D01*
G75*
G02*
X218535600Y-34415500I0J-62500D01*
G01*
X218535600Y-35115500D01*
G75*
G02*
X218473100Y-35178000I-62500J0D01*
G01*
X218348100Y-35178000D01*
G75*
G02*
X218285600Y-35115500I0J62500D01*
G01*
G37*
G36*
G01*
X218785600Y-35115500D02*
X218785600Y-34415500D01*
G75*
G02*
X218848100Y-34353000I62500J0D01*
G01*
X218973100Y-34353000D01*
G75*
G02*
X219035600Y-34415500I0J-62500D01*
G01*
X219035600Y-35115500D01*
G75*
G02*
X218973100Y-35178000I-62500J0D01*
G01*
X218848100Y-35178000D01*
G75*
G02*
X218785600Y-35115500I0J62500D01*
G01*
G37*
G36*
G01*
X219285600Y-35115500D02*
X219285600Y-34415500D01*
G75*
G02*
X219348100Y-34353000I62500J0D01*
G01*
X219473100Y-34353000D01*
G75*
G02*
X219535600Y-34415500I0J-62500D01*
G01*
X219535600Y-35115500D01*
G75*
G02*
X219473100Y-35178000I-62500J0D01*
G01*
X219348100Y-35178000D01*
G75*
G02*
X219285600Y-35115500I0J62500D01*
G01*
G37*
G36*
G01*
X219685600Y-35515500D02*
X219685600Y-35390500D01*
G75*
G02*
X219748100Y-35328000I62500J0D01*
G01*
X220448100Y-35328000D01*
G75*
G02*
X220510600Y-35390500I0J-62500D01*
G01*
X220510600Y-35515500D01*
G75*
G02*
X220448100Y-35578000I-62500J0D01*
G01*
X219748100Y-35578000D01*
G75*
G02*
X219685600Y-35515500I0J62500D01*
G01*
G37*
G36*
G01*
X219685600Y-36015500D02*
X219685600Y-35890500D01*
G75*
G02*
X219748100Y-35828000I62500J0D01*
G01*
X220448100Y-35828000D01*
G75*
G02*
X220510600Y-35890500I0J-62500D01*
G01*
X220510600Y-36015500D01*
G75*
G02*
X220448100Y-36078000I-62500J0D01*
G01*
X219748100Y-36078000D01*
G75*
G02*
X219685600Y-36015500I0J62500D01*
G01*
G37*
G36*
G01*
X219685600Y-36515500D02*
X219685600Y-36390500D01*
G75*
G02*
X219748100Y-36328000I62500J0D01*
G01*
X220448100Y-36328000D01*
G75*
G02*
X220510600Y-36390500I0J-62500D01*
G01*
X220510600Y-36515500D01*
G75*
G02*
X220448100Y-36578000I-62500J0D01*
G01*
X219748100Y-36578000D01*
G75*
G02*
X219685600Y-36515500I0J62500D01*
G01*
G37*
G36*
G01*
X219685600Y-37015500D02*
X219685600Y-36890500D01*
G75*
G02*
X219748100Y-36828000I62500J0D01*
G01*
X220448100Y-36828000D01*
G75*
G02*
X220510600Y-36890500I0J-62500D01*
G01*
X220510600Y-37015500D01*
G75*
G02*
X220448100Y-37078000I-62500J0D01*
G01*
X219748100Y-37078000D01*
G75*
G02*
X219685600Y-37015500I0J62500D01*
G01*
G37*
G36*
G01*
X219685600Y-37515500D02*
X219685600Y-37390500D01*
G75*
G02*
X219748100Y-37328000I62500J0D01*
G01*
X220448100Y-37328000D01*
G75*
G02*
X220510600Y-37390500I0J-62500D01*
G01*
X220510600Y-37515500D01*
G75*
G02*
X220448100Y-37578000I-62500J0D01*
G01*
X219748100Y-37578000D01*
G75*
G02*
X219685600Y-37515500I0J62500D01*
G01*
G37*
G36*
G01*
X219685600Y-38015500D02*
X219685600Y-37890500D01*
G75*
G02*
X219748100Y-37828000I62500J0D01*
G01*
X220448100Y-37828000D01*
G75*
G02*
X220510600Y-37890500I0J-62500D01*
G01*
X220510600Y-38015500D01*
G75*
G02*
X220448100Y-38078000I-62500J0D01*
G01*
X219748100Y-38078000D01*
G75*
G02*
X219685600Y-38015500I0J62500D01*
G01*
G37*
G36*
G01*
X219285600Y-38990500D02*
X219285600Y-38290500D01*
G75*
G02*
X219348100Y-38228000I62500J0D01*
G01*
X219473100Y-38228000D01*
G75*
G02*
X219535600Y-38290500I0J-62500D01*
G01*
X219535600Y-38990500D01*
G75*
G02*
X219473100Y-39053000I-62500J0D01*
G01*
X219348100Y-39053000D01*
G75*
G02*
X219285600Y-38990500I0J62500D01*
G01*
G37*
G36*
G01*
X218785600Y-38990500D02*
X218785600Y-38290500D01*
G75*
G02*
X218848100Y-38228000I62500J0D01*
G01*
X218973100Y-38228000D01*
G75*
G02*
X219035600Y-38290500I0J-62500D01*
G01*
X219035600Y-38990500D01*
G75*
G02*
X218973100Y-39053000I-62500J0D01*
G01*
X218848100Y-39053000D01*
G75*
G02*
X218785600Y-38990500I0J62500D01*
G01*
G37*
G36*
G01*
X218285600Y-38990500D02*
X218285600Y-38290500D01*
G75*
G02*
X218348100Y-38228000I62500J0D01*
G01*
X218473100Y-38228000D01*
G75*
G02*
X218535600Y-38290500I0J-62500D01*
G01*
X218535600Y-38990500D01*
G75*
G02*
X218473100Y-39053000I-62500J0D01*
G01*
X218348100Y-39053000D01*
G75*
G02*
X218285600Y-38990500I0J62500D01*
G01*
G37*
G36*
G01*
X217785600Y-38990500D02*
X217785600Y-38290500D01*
G75*
G02*
X217848100Y-38228000I62500J0D01*
G01*
X217973100Y-38228000D01*
G75*
G02*
X218035600Y-38290500I0J-62500D01*
G01*
X218035600Y-38990500D01*
G75*
G02*
X217973100Y-39053000I-62500J0D01*
G01*
X217848100Y-39053000D01*
G75*
G02*
X217785600Y-38990500I0J62500D01*
G01*
G37*
G36*
G01*
X217285600Y-38990500D02*
X217285600Y-38290500D01*
G75*
G02*
X217348100Y-38228000I62500J0D01*
G01*
X217473100Y-38228000D01*
G75*
G02*
X217535600Y-38290500I0J-62500D01*
G01*
X217535600Y-38990500D01*
G75*
G02*
X217473100Y-39053000I-62500J0D01*
G01*
X217348100Y-39053000D01*
G75*
G02*
X217285600Y-38990500I0J62500D01*
G01*
G37*
G36*
G01*
X216785600Y-38990500D02*
X216785600Y-38290500D01*
G75*
G02*
X216848100Y-38228000I62500J0D01*
G01*
X216973100Y-38228000D01*
G75*
G02*
X217035600Y-38290500I0J-62500D01*
G01*
X217035600Y-38990500D01*
G75*
G02*
X216973100Y-39053000I-62500J0D01*
G01*
X216848100Y-39053000D01*
G75*
G02*
X216785600Y-38990500I0J62500D01*
G01*
G37*
G36*
G01*
X215810600Y-38015500D02*
X215810600Y-37890500D01*
G75*
G02*
X215873100Y-37828000I62500J0D01*
G01*
X216573100Y-37828000D01*
G75*
G02*
X216635600Y-37890500I0J-62500D01*
G01*
X216635600Y-38015500D01*
G75*
G02*
X216573100Y-38078000I-62500J0D01*
G01*
X215873100Y-38078000D01*
G75*
G02*
X215810600Y-38015500I0J62500D01*
G01*
G37*
G36*
G01*
X215810600Y-37515500D02*
X215810600Y-37390500D01*
G75*
G02*
X215873100Y-37328000I62500J0D01*
G01*
X216573100Y-37328000D01*
G75*
G02*
X216635600Y-37390500I0J-62500D01*
G01*
X216635600Y-37515500D01*
G75*
G02*
X216573100Y-37578000I-62500J0D01*
G01*
X215873100Y-37578000D01*
G75*
G02*
X215810600Y-37515500I0J62500D01*
G01*
G37*
G36*
G01*
X215810600Y-37015500D02*
X215810600Y-36890500D01*
G75*
G02*
X215873100Y-36828000I62500J0D01*
G01*
X216573100Y-36828000D01*
G75*
G02*
X216635600Y-36890500I0J-62500D01*
G01*
X216635600Y-37015500D01*
G75*
G02*
X216573100Y-37078000I-62500J0D01*
G01*
X215873100Y-37078000D01*
G75*
G02*
X215810600Y-37015500I0J62500D01*
G01*
G37*
G36*
G01*
X215810600Y-36515500D02*
X215810600Y-36390500D01*
G75*
G02*
X215873100Y-36328000I62500J0D01*
G01*
X216573100Y-36328000D01*
G75*
G02*
X216635600Y-36390500I0J-62500D01*
G01*
X216635600Y-36515500D01*
G75*
G02*
X216573100Y-36578000I-62500J0D01*
G01*
X215873100Y-36578000D01*
G75*
G02*
X215810600Y-36515500I0J62500D01*
G01*
G37*
G36*
G01*
X215810600Y-36015500D02*
X215810600Y-35890500D01*
G75*
G02*
X215873100Y-35828000I62500J0D01*
G01*
X216573100Y-35828000D01*
G75*
G02*
X216635600Y-35890500I0J-62500D01*
G01*
X216635600Y-36015500D01*
G75*
G02*
X216573100Y-36078000I-62500J0D01*
G01*
X215873100Y-36078000D01*
G75*
G02*
X215810600Y-36015500I0J62500D01*
G01*
G37*
G36*
G01*
X215810600Y-35515500D02*
X215810600Y-35390500D01*
G75*
G02*
X215873100Y-35328000I62500J0D01*
G01*
X216573100Y-35328000D01*
G75*
G02*
X216635600Y-35390500I0J-62500D01*
G01*
X216635600Y-35515500D01*
G75*
G02*
X216573100Y-35578000I-62500J0D01*
G01*
X215873100Y-35578000D01*
G75*
G02*
X215810600Y-35515500I0J62500D01*
G01*
G37*
%TD*%
D13*
%TO.C,U202*%
G36*
X242612237Y-44735726D02*
G01*
X242223328Y-45124635D01*
X241091957Y-43993264D01*
X241480866Y-43604355D01*
X242612237Y-44735726D01*
G37*
G36*
X243177923Y-44170041D02*
G01*
X242789014Y-44558950D01*
X241657643Y-43427579D01*
X242046552Y-43038670D01*
X243177923Y-44170041D01*
G37*
G36*
X243743608Y-43604355D02*
G01*
X243354699Y-43993264D01*
X242223328Y-42861893D01*
X242612237Y-42472984D01*
X243743608Y-43604355D01*
G37*
G36*
X244309293Y-43038670D02*
G01*
X243920384Y-43427579D01*
X242789013Y-42296208D01*
X243177922Y-41907299D01*
X244309293Y-43038670D01*
G37*
G36*
X244874979Y-42472984D02*
G01*
X244486070Y-42861893D01*
X243354699Y-41730522D01*
X243743608Y-41341613D01*
X244874979Y-42472984D01*
G37*
G36*
X245440664Y-41907299D02*
G01*
X245051755Y-42296208D01*
X243920384Y-41164837D01*
X244309293Y-40775928D01*
X245440664Y-41907299D01*
G37*
G36*
X246006350Y-41341614D02*
G01*
X245617441Y-41730523D01*
X244486070Y-40599152D01*
X244874979Y-40210243D01*
X246006350Y-41341614D01*
G37*
G36*
X246572035Y-40775928D02*
G01*
X246183126Y-41164837D01*
X245051755Y-40033466D01*
X245440664Y-39644557D01*
X246572035Y-40775928D01*
G37*
G36*
X247491274Y-41164837D02*
G01*
X247102365Y-40775928D01*
X248233736Y-39644557D01*
X248622645Y-40033466D01*
X247491274Y-41164837D01*
G37*
G36*
X248056959Y-41730523D02*
G01*
X247668050Y-41341614D01*
X248799421Y-40210243D01*
X249188330Y-40599152D01*
X248056959Y-41730523D01*
G37*
G36*
X248622645Y-42296208D02*
G01*
X248233736Y-41907299D01*
X249365107Y-40775928D01*
X249754016Y-41164837D01*
X248622645Y-42296208D01*
G37*
G36*
X249188330Y-42861893D02*
G01*
X248799421Y-42472984D01*
X249930792Y-41341613D01*
X250319701Y-41730522D01*
X249188330Y-42861893D01*
G37*
G36*
X249754016Y-43427579D02*
G01*
X249365107Y-43038670D01*
X250496478Y-41907299D01*
X250885387Y-42296208D01*
X249754016Y-43427579D01*
G37*
G36*
X250319701Y-43993264D02*
G01*
X249930792Y-43604355D01*
X251062163Y-42472984D01*
X251451072Y-42861893D01*
X250319701Y-43993264D01*
G37*
G36*
X250885386Y-44558950D02*
G01*
X250496477Y-44170041D01*
X251627848Y-43038670D01*
X252016757Y-43427579D01*
X250885386Y-44558950D01*
G37*
G36*
X251451072Y-45124635D02*
G01*
X251062163Y-44735726D01*
X252193534Y-43604355D01*
X252582443Y-43993264D01*
X251451072Y-45124635D01*
G37*
G36*
X252582443Y-46786336D02*
G01*
X252193534Y-47175245D01*
X251062163Y-46043874D01*
X251451072Y-45654965D01*
X252582443Y-46786336D01*
G37*
G36*
X252016757Y-47352021D02*
G01*
X251627848Y-47740930D01*
X250496477Y-46609559D01*
X250885386Y-46220650D01*
X252016757Y-47352021D01*
G37*
G36*
X251451072Y-47917707D02*
G01*
X251062163Y-48306616D01*
X249930792Y-47175245D01*
X250319701Y-46786336D01*
X251451072Y-47917707D01*
G37*
G36*
X250885387Y-48483392D02*
G01*
X250496478Y-48872301D01*
X249365107Y-47740930D01*
X249754016Y-47352021D01*
X250885387Y-48483392D01*
G37*
G36*
X250319701Y-49049078D02*
G01*
X249930792Y-49437987D01*
X248799421Y-48306616D01*
X249188330Y-47917707D01*
X250319701Y-49049078D01*
G37*
G36*
X249754016Y-49614763D02*
G01*
X249365107Y-50003672D01*
X248233736Y-48872301D01*
X248622645Y-48483392D01*
X249754016Y-49614763D01*
G37*
G36*
X249188330Y-50180448D02*
G01*
X248799421Y-50569357D01*
X247668050Y-49437986D01*
X248056959Y-49049077D01*
X249188330Y-50180448D01*
G37*
G36*
X248622645Y-50746134D02*
G01*
X248233736Y-51135043D01*
X247102365Y-50003672D01*
X247491274Y-49614763D01*
X248622645Y-50746134D01*
G37*
G36*
X245440664Y-51135043D02*
G01*
X245051755Y-50746134D01*
X246183126Y-49614763D01*
X246572035Y-50003672D01*
X245440664Y-51135043D01*
G37*
G36*
X244874979Y-50569357D02*
G01*
X244486070Y-50180448D01*
X245617441Y-49049077D01*
X246006350Y-49437986D01*
X244874979Y-50569357D01*
G37*
G36*
X244309293Y-50003672D02*
G01*
X243920384Y-49614763D01*
X245051755Y-48483392D01*
X245440664Y-48872301D01*
X244309293Y-50003672D01*
G37*
G36*
X243743608Y-49437987D02*
G01*
X243354699Y-49049078D01*
X244486070Y-47917707D01*
X244874979Y-48306616D01*
X243743608Y-49437987D01*
G37*
G36*
X243177922Y-48872301D02*
G01*
X242789013Y-48483392D01*
X243920384Y-47352021D01*
X244309293Y-47740930D01*
X243177922Y-48872301D01*
G37*
G36*
X242612237Y-48306616D02*
G01*
X242223328Y-47917707D01*
X243354699Y-46786336D01*
X243743608Y-47175245D01*
X242612237Y-48306616D01*
G37*
G36*
X242046552Y-47740930D02*
G01*
X241657643Y-47352021D01*
X242789014Y-46220650D01*
X243177923Y-46609559D01*
X242046552Y-47740930D01*
G37*
G36*
X241480866Y-47175245D02*
G01*
X241091957Y-46786336D01*
X242223328Y-45654965D01*
X242612237Y-46043874D01*
X241480866Y-47175245D01*
G37*
%TD*%
%TO.C,R209*%
G36*
G01*
X251676225Y-40415866D02*
X252065134Y-40804775D01*
G75*
G02*
X252065134Y-41087617I-141421J-141421D01*
G01*
X251782291Y-41370460D01*
G75*
G02*
X251499449Y-41370460I-141421J141421D01*
G01*
X251110540Y-40981551D01*
G75*
G02*
X251110540Y-40698709I141421J141421D01*
G01*
X251393383Y-40415866D01*
G75*
G02*
X251676225Y-40415866I141421J-141421D01*
G01*
G37*
G36*
G01*
X252842951Y-39249140D02*
X253231860Y-39638049D01*
G75*
G02*
X253231860Y-39920891I-141421J-141421D01*
G01*
X252949017Y-40203734D01*
G75*
G02*
X252666175Y-40203734I-141421J141421D01*
G01*
X252277266Y-39814825D01*
G75*
G02*
X252277266Y-39531983I141421J141421D01*
G01*
X252560109Y-39249140D01*
G75*
G02*
X252842951Y-39249140I141421J-141421D01*
G01*
G37*
%TD*%
%TO.C,R208*%
G36*
G01*
X237011800Y-36594600D02*
X237561800Y-36594600D01*
G75*
G02*
X237761800Y-36794600I0J-200000D01*
G01*
X237761800Y-37194600D01*
G75*
G02*
X237561800Y-37394600I-200000J0D01*
G01*
X237011800Y-37394600D01*
G75*
G02*
X236811800Y-37194600I0J200000D01*
G01*
X236811800Y-36794600D01*
G75*
G02*
X237011800Y-36594600I200000J0D01*
G01*
G37*
G36*
G01*
X237011800Y-34944600D02*
X237561800Y-34944600D01*
G75*
G02*
X237761800Y-35144600I0J-200000D01*
G01*
X237761800Y-35544600D01*
G75*
G02*
X237561800Y-35744600I-200000J0D01*
G01*
X237011800Y-35744600D01*
G75*
G02*
X236811800Y-35544600I0J200000D01*
G01*
X236811800Y-35144600D01*
G75*
G02*
X237011800Y-34944600I200000J0D01*
G01*
G37*
%TD*%
%TO.C,R207*%
G36*
G01*
X225927600Y-35920000D02*
X225927600Y-36470000D01*
G75*
G02*
X225727600Y-36670000I-200000J0D01*
G01*
X225327600Y-36670000D01*
G75*
G02*
X225127600Y-36470000I0J200000D01*
G01*
X225127600Y-35920000D01*
G75*
G02*
X225327600Y-35720000I200000J0D01*
G01*
X225727600Y-35720000D01*
G75*
G02*
X225927600Y-35920000I0J-200000D01*
G01*
G37*
G36*
G01*
X227577600Y-35920000D02*
X227577600Y-36470000D01*
G75*
G02*
X227377600Y-36670000I-200000J0D01*
G01*
X226977600Y-36670000D01*
G75*
G02*
X226777600Y-36470000I0J200000D01*
G01*
X226777600Y-35920000D01*
G75*
G02*
X226977600Y-35720000I200000J0D01*
G01*
X227377600Y-35720000D01*
G75*
G02*
X227577600Y-35920000I0J-200000D01*
G01*
G37*
%TD*%
%TO.C,R204*%
G36*
G01*
X225926600Y-34345200D02*
X225926600Y-34895200D01*
G75*
G02*
X225726600Y-35095200I-200000J0D01*
G01*
X225326600Y-35095200D01*
G75*
G02*
X225126600Y-34895200I0J200000D01*
G01*
X225126600Y-34345200D01*
G75*
G02*
X225326600Y-34145200I200000J0D01*
G01*
X225726600Y-34145200D01*
G75*
G02*
X225926600Y-34345200I0J-200000D01*
G01*
G37*
G36*
G01*
X227576600Y-34345200D02*
X227576600Y-34895200D01*
G75*
G02*
X227376600Y-35095200I-200000J0D01*
G01*
X226976600Y-35095200D01*
G75*
G02*
X226776600Y-34895200I0J200000D01*
G01*
X226776600Y-34345200D01*
G75*
G02*
X226976600Y-34145200I200000J0D01*
G01*
X227376600Y-34145200D01*
G75*
G02*
X227576600Y-34345200I0J-200000D01*
G01*
G37*
%TD*%
%TO.C,R206*%
G36*
G01*
X226789800Y-38095600D02*
X226789800Y-37545600D01*
G75*
G02*
X226989800Y-37345600I200000J0D01*
G01*
X227389800Y-37345600D01*
G75*
G02*
X227589800Y-37545600I0J-200000D01*
G01*
X227589800Y-38095600D01*
G75*
G02*
X227389800Y-38295600I-200000J0D01*
G01*
X226989800Y-38295600D01*
G75*
G02*
X226789800Y-38095600I0J200000D01*
G01*
G37*
G36*
G01*
X225139800Y-38095600D02*
X225139800Y-37545600D01*
G75*
G02*
X225339800Y-37345600I200000J0D01*
G01*
X225739800Y-37345600D01*
G75*
G02*
X225939800Y-37545600I0J-200000D01*
G01*
X225939800Y-38095600D01*
G75*
G02*
X225739800Y-38295600I-200000J0D01*
G01*
X225339800Y-38295600D01*
G75*
G02*
X225139800Y-38095600I0J200000D01*
G01*
G37*
%TD*%
%TO.C,R205*%
G36*
G01*
X226789800Y-39645000D02*
X226789800Y-39095000D01*
G75*
G02*
X226989800Y-38895000I200000J0D01*
G01*
X227389800Y-38895000D01*
G75*
G02*
X227589800Y-39095000I0J-200000D01*
G01*
X227589800Y-39645000D01*
G75*
G02*
X227389800Y-39845000I-200000J0D01*
G01*
X226989800Y-39845000D01*
G75*
G02*
X226789800Y-39645000I0J200000D01*
G01*
G37*
G36*
G01*
X225139800Y-39645000D02*
X225139800Y-39095000D01*
G75*
G02*
X225339800Y-38895000I200000J0D01*
G01*
X225739800Y-38895000D01*
G75*
G02*
X225939800Y-39095000I0J-200000D01*
G01*
X225939800Y-39645000D01*
G75*
G02*
X225739800Y-39845000I-200000J0D01*
G01*
X225339800Y-39845000D01*
G75*
G02*
X225139800Y-39645000I0J200000D01*
G01*
G37*
%TD*%
%TO.C,R203*%
G36*
G01*
X213330200Y-39211200D02*
X212780200Y-39211200D01*
G75*
G02*
X212580200Y-39011200I0J200000D01*
G01*
X212580200Y-38611200D01*
G75*
G02*
X212780200Y-38411200I200000J0D01*
G01*
X213330200Y-38411200D01*
G75*
G02*
X213530200Y-38611200I0J-200000D01*
G01*
X213530200Y-39011200D01*
G75*
G02*
X213330200Y-39211200I-200000J0D01*
G01*
G37*
G36*
G01*
X213330200Y-40861200D02*
X212780200Y-40861200D01*
G75*
G02*
X212580200Y-40661200I0J200000D01*
G01*
X212580200Y-40261200D01*
G75*
G02*
X212780200Y-40061200I200000J0D01*
G01*
X213330200Y-40061200D01*
G75*
G02*
X213530200Y-40261200I0J-200000D01*
G01*
X213530200Y-40661200D01*
G75*
G02*
X213330200Y-40861200I-200000J0D01*
G01*
G37*
%TD*%
%TO.C,R202*%
G36*
G01*
X212780200Y-33673600D02*
X213330200Y-33673600D01*
G75*
G02*
X213530200Y-33873600I0J-200000D01*
G01*
X213530200Y-34273600D01*
G75*
G02*
X213330200Y-34473600I-200000J0D01*
G01*
X212780200Y-34473600D01*
G75*
G02*
X212580200Y-34273600I0J200000D01*
G01*
X212580200Y-33873600D01*
G75*
G02*
X212780200Y-33673600I200000J0D01*
G01*
G37*
G36*
G01*
X212780200Y-32023600D02*
X213330200Y-32023600D01*
G75*
G02*
X213530200Y-32223600I0J-200000D01*
G01*
X213530200Y-32623600D01*
G75*
G02*
X213330200Y-32823600I-200000J0D01*
G01*
X212780200Y-32823600D01*
G75*
G02*
X212580200Y-32623600I0J200000D01*
G01*
X212580200Y-32223600D01*
G75*
G02*
X212780200Y-32023600I200000J0D01*
G01*
G37*
%TD*%
D16*
%TO.C,J201*%
X210343800Y-39953000D03*
X210343800Y-39153000D03*
X210343800Y-34253000D03*
X210343800Y-33453000D03*
X210343800Y-33453000D03*
X210343800Y-34253000D03*
X210343800Y-39153000D03*
X210343800Y-39953000D03*
D17*
X210343800Y-34953000D03*
X210343800Y-35453000D03*
X210343800Y-35953000D03*
X210343800Y-36953000D03*
X210343800Y-37453000D03*
X210343800Y-37953000D03*
X210343800Y-38453000D03*
X210343800Y-36453000D03*
%TD*%
%TO.C,C204*%
G36*
G01*
X253009213Y-41632833D02*
X253362767Y-41986387D01*
G75*
G02*
X253362767Y-42304585I-159099J-159099D01*
G01*
X253044569Y-42622783D01*
G75*
G02*
X252726371Y-42622783I-159099J159099D01*
G01*
X252372817Y-42269229D01*
G75*
G02*
X252372817Y-41951031I159099J159099D01*
G01*
X252691015Y-41632833D01*
G75*
G02*
X253009213Y-41632833I159099J-159099D01*
G01*
G37*
G36*
G01*
X254105229Y-40536817D02*
X254458783Y-40890371D01*
G75*
G02*
X254458783Y-41208569I-159099J-159099D01*
G01*
X254140585Y-41526767D01*
G75*
G02*
X253822387Y-41526767I-159099J159099D01*
G01*
X253468833Y-41173213D01*
G75*
G02*
X253468833Y-40855015I159099J159099D01*
G01*
X253787031Y-40536817D01*
G75*
G02*
X254105229Y-40536817I159099J-159099D01*
G01*
G37*
%TD*%
%TO.C,C203*%
G36*
G01*
X240969987Y-50492967D02*
X240616433Y-50139413D01*
G75*
G02*
X240616433Y-49821215I159099J159099D01*
G01*
X240934631Y-49503017D01*
G75*
G02*
X241252829Y-49503017I159099J-159099D01*
G01*
X241606383Y-49856571D01*
G75*
G02*
X241606383Y-50174769I-159099J-159099D01*
G01*
X241288185Y-50492967D01*
G75*
G02*
X240969987Y-50492967I-159099J159099D01*
G01*
G37*
G36*
G01*
X239873971Y-51588983D02*
X239520417Y-51235429D01*
G75*
G02*
X239520417Y-50917231I159099J159099D01*
G01*
X239838615Y-50599033D01*
G75*
G02*
X240156813Y-50599033I159099J-159099D01*
G01*
X240510367Y-50952587D01*
G75*
G02*
X240510367Y-51270785I-159099J-159099D01*
G01*
X240192169Y-51588983D01*
G75*
G02*
X239873971Y-51588983I-159099J159099D01*
G01*
G37*
%TD*%
%TO.C,C201*%
G36*
G01*
X214930800Y-39312000D02*
X214430800Y-39312000D01*
G75*
G02*
X214205800Y-39087000I0J225000D01*
G01*
X214205800Y-38637000D01*
G75*
G02*
X214430800Y-38412000I225000J0D01*
G01*
X214930800Y-38412000D01*
G75*
G02*
X215155800Y-38637000I0J-225000D01*
G01*
X215155800Y-39087000D01*
G75*
G02*
X214930800Y-39312000I-225000J0D01*
G01*
G37*
G36*
G01*
X214930800Y-40862000D02*
X214430800Y-40862000D01*
G75*
G02*
X214205800Y-40637000I0J225000D01*
G01*
X214205800Y-40187000D01*
G75*
G02*
X214430800Y-39962000I225000J0D01*
G01*
X214930800Y-39962000D01*
G75*
G02*
X215155800Y-40187000I0J-225000D01*
G01*
X215155800Y-40637000D01*
G75*
G02*
X214930800Y-40862000I-225000J0D01*
G01*
G37*
%TD*%
%TO.C,C202*%
G36*
G01*
X221568200Y-36025000D02*
X222068200Y-36025000D01*
G75*
G02*
X222293200Y-36250000I0J-225000D01*
G01*
X222293200Y-36700000D01*
G75*
G02*
X222068200Y-36925000I-225000J0D01*
G01*
X221568200Y-36925000D01*
G75*
G02*
X221343200Y-36700000I0J225000D01*
G01*
X221343200Y-36250000D01*
G75*
G02*
X221568200Y-36025000I225000J0D01*
G01*
G37*
G36*
G01*
X221568200Y-34475000D02*
X222068200Y-34475000D01*
G75*
G02*
X222293200Y-34700000I0J-225000D01*
G01*
X222293200Y-35150000D01*
G75*
G02*
X222068200Y-35375000I-225000J0D01*
G01*
X221568200Y-35375000D01*
G75*
G02*
X221343200Y-35150000I0J225000D01*
G01*
X221343200Y-34700000D01*
G75*
G02*
X221568200Y-34475000I225000J0D01*
G01*
G37*
%TD*%
M02*
