%TF.GenerationSoftware,KiCad,Pcbnew,(5.1.10)-1*%
%TF.CreationDate,2021-10-28T16:28:33-07:00*%
%TF.ProjectId,AtlasPD,41746c61-7350-4442-9e6b-696361645f70,1.0*%
%TF.SameCoordinates,Original*%
%TF.FileFunction,Legend,Bot*%
%TF.FilePolarity,Positive*%
%FSLAX46Y46*%
G04 Gerber Fmt 4.6, Leading zero omitted, Abs format (unit mm)*
G04 Created by KiCad (PCBNEW (5.1.10)-1) date 2021-10-28 16:28:33*
%MOMM*%
%LPD*%
G01*
G04 APERTURE LIST*
%ADD10C,0.400000*%
%ADD11C,0.010000*%
G04 APERTURE END LIST*
D10*
X252376080Y-30078461D02*
X252376080Y-28078461D01*
X251709414Y-29507033D01*
X251042747Y-28078461D01*
X251042747Y-30078461D01*
X249233223Y-30078461D02*
X249233223Y-29030842D01*
X249328461Y-28840366D01*
X249518938Y-28745128D01*
X249899890Y-28745128D01*
X250090366Y-28840366D01*
X249233223Y-29983223D02*
X249423700Y-30078461D01*
X249899890Y-30078461D01*
X250090366Y-29983223D01*
X250185604Y-29792747D01*
X250185604Y-29602271D01*
X250090366Y-29411795D01*
X249899890Y-29316557D01*
X249423700Y-29316557D01*
X249233223Y-29221319D01*
X248280842Y-28745128D02*
X248280842Y-30078461D01*
X248280842Y-28935604D02*
X248185604Y-28840366D01*
X247995128Y-28745128D01*
X247709414Y-28745128D01*
X247518938Y-28840366D01*
X247423700Y-29030842D01*
X247423700Y-30078461D01*
X246471319Y-28745128D02*
X246471319Y-30745128D01*
X246471319Y-28840366D02*
X246280842Y-28745128D01*
X245899890Y-28745128D01*
X245709414Y-28840366D01*
X245614176Y-28935604D01*
X245518938Y-29126080D01*
X245518938Y-29697509D01*
X245614176Y-29887985D01*
X245709414Y-29983223D01*
X245899890Y-30078461D01*
X246280842Y-30078461D01*
X246471319Y-29983223D01*
X244661795Y-30078461D02*
X244661795Y-28745128D01*
X244661795Y-29126080D02*
X244566557Y-28935604D01*
X244471319Y-28840366D01*
X244280842Y-28745128D01*
X244090366Y-28745128D01*
X242661795Y-29983223D02*
X242852271Y-30078461D01*
X243233223Y-30078461D01*
X243423700Y-29983223D01*
X243518938Y-29792747D01*
X243518938Y-29030842D01*
X243423700Y-28840366D01*
X243233223Y-28745128D01*
X242852271Y-28745128D01*
X242661795Y-28840366D01*
X242566557Y-29030842D01*
X242566557Y-29221319D01*
X243518938Y-29411795D01*
X240947509Y-29983223D02*
X241137985Y-30078461D01*
X241518938Y-30078461D01*
X241709414Y-29983223D01*
X241804652Y-29792747D01*
X241804652Y-29030842D01*
X241709414Y-28840366D01*
X241518938Y-28745128D01*
X241137985Y-28745128D01*
X240947509Y-28840366D01*
X240852271Y-29030842D01*
X240852271Y-29221319D01*
X241804652Y-29411795D01*
X240280842Y-28745128D02*
X239518938Y-28745128D01*
X239995128Y-28078461D02*
X239995128Y-29792747D01*
X239899890Y-29983223D01*
X239709414Y-30078461D01*
X239518938Y-30078461D01*
X237423700Y-29983223D02*
X237137985Y-30078461D01*
X236661795Y-30078461D01*
X236471319Y-29983223D01*
X236376080Y-29887985D01*
X236280842Y-29697509D01*
X236280842Y-29507033D01*
X236376080Y-29316557D01*
X236471319Y-29221319D01*
X236661795Y-29126080D01*
X237042747Y-29030842D01*
X237233223Y-28935604D01*
X237328461Y-28840366D01*
X237423700Y-28649890D01*
X237423700Y-28459414D01*
X237328461Y-28268938D01*
X237233223Y-28173700D01*
X237042747Y-28078461D01*
X236566557Y-28078461D01*
X236280842Y-28173700D01*
X235423700Y-30078461D02*
X235423700Y-28745128D01*
X235423700Y-28078461D02*
X235518938Y-28173700D01*
X235423700Y-28268938D01*
X235328461Y-28173700D01*
X235423700Y-28078461D01*
X235423700Y-28268938D01*
X234471319Y-28745128D02*
X234471319Y-30078461D01*
X234471319Y-28935604D02*
X234376080Y-28840366D01*
X234185604Y-28745128D01*
X233899890Y-28745128D01*
X233709414Y-28840366D01*
X233614176Y-29030842D01*
X233614176Y-30078461D01*
X231804652Y-28745128D02*
X231804652Y-30364176D01*
X231899890Y-30554652D01*
X231995128Y-30649890D01*
X232185604Y-30745128D01*
X232471319Y-30745128D01*
X232661795Y-30649890D01*
X231804652Y-29983223D02*
X231995128Y-30078461D01*
X232376080Y-30078461D01*
X232566557Y-29983223D01*
X232661795Y-29887985D01*
X232757033Y-29697509D01*
X232757033Y-29126080D01*
X232661795Y-28935604D01*
X232566557Y-28840366D01*
X232376080Y-28745128D01*
X231995128Y-28745128D01*
X231804652Y-28840366D01*
X230852271Y-30078461D02*
X230852271Y-28078461D01*
X229995128Y-30078461D02*
X229995128Y-29030842D01*
X230090366Y-28840366D01*
X230280842Y-28745128D01*
X230566557Y-28745128D01*
X230757033Y-28840366D01*
X230852271Y-28935604D01*
X243852271Y-31668938D02*
X243757033Y-31573700D01*
X243566557Y-31478461D01*
X243090366Y-31478461D01*
X242899890Y-31573700D01*
X242804652Y-31668938D01*
X242709414Y-31859414D01*
X242709414Y-32049890D01*
X242804652Y-32335604D01*
X243947509Y-33478461D01*
X242709414Y-33478461D01*
X241471319Y-31478461D02*
X241280842Y-31478461D01*
X241090366Y-31573700D01*
X240995128Y-31668938D01*
X240899890Y-31859414D01*
X240804652Y-32240366D01*
X240804652Y-32716557D01*
X240899890Y-33097509D01*
X240995128Y-33287985D01*
X241090366Y-33383223D01*
X241280842Y-33478461D01*
X241471319Y-33478461D01*
X241661795Y-33383223D01*
X241757033Y-33287985D01*
X241852271Y-33097509D01*
X241947509Y-32716557D01*
X241947509Y-32240366D01*
X241852271Y-31859414D01*
X241757033Y-31668938D01*
X241661795Y-31573700D01*
X241471319Y-31478461D01*
X240042747Y-31668938D02*
X239947509Y-31573700D01*
X239757033Y-31478461D01*
X239280842Y-31478461D01*
X239090366Y-31573700D01*
X238995128Y-31668938D01*
X238899890Y-31859414D01*
X238899890Y-32049890D01*
X238995128Y-32335604D01*
X240137985Y-33478461D01*
X238899890Y-33478461D01*
X236995128Y-33478461D02*
X238137985Y-33478461D01*
X237566557Y-33478461D02*
X237566557Y-31478461D01*
X237757033Y-31764176D01*
X237947509Y-31954652D01*
X238137985Y-32049890D01*
D11*
%TO.C,REF\u002A\u002A*%
G36*
X248120863Y-42751258D02*
G01*
X248081381Y-42751659D01*
X247965692Y-42754451D01*
X247868803Y-42762742D01*
X247787411Y-42777424D01*
X247718215Y-42799385D01*
X247657912Y-42829514D01*
X247603200Y-42868702D01*
X247583659Y-42885724D01*
X247551242Y-42925555D01*
X247522012Y-42979605D01*
X247499483Y-43039515D01*
X247487171Y-43096931D01*
X247485892Y-43118148D01*
X247493909Y-43176961D01*
X247515391Y-43241205D01*
X247546491Y-43302013D01*
X247583358Y-43350522D01*
X247589346Y-43356374D01*
X247640071Y-43397513D01*
X247695617Y-43429627D01*
X247759188Y-43453557D01*
X247833986Y-43470145D01*
X247923214Y-43480233D01*
X248030074Y-43484661D01*
X248079020Y-43485037D01*
X248141254Y-43484737D01*
X248185020Y-43483484D01*
X248214423Y-43480746D01*
X248233571Y-43475993D01*
X248246569Y-43468693D01*
X248253537Y-43462459D01*
X248260118Y-43454886D01*
X248265280Y-43445116D01*
X248269195Y-43430532D01*
X248272035Y-43408518D01*
X248273972Y-43376456D01*
X248275176Y-43331728D01*
X248275820Y-43271718D01*
X248276075Y-43193809D01*
X248276114Y-43118148D01*
X248276362Y-43017233D01*
X248276309Y-42936619D01*
X248275349Y-42898014D01*
X248129359Y-42898014D01*
X248129359Y-43338281D01*
X248036226Y-43338196D01*
X247980185Y-43336588D01*
X247921491Y-43332448D01*
X247872520Y-43326656D01*
X247871030Y-43326418D01*
X247791884Y-43307282D01*
X247730494Y-43277479D01*
X247683797Y-43235070D01*
X247654127Y-43189153D01*
X247635845Y-43138218D01*
X247637263Y-43090392D01*
X247658480Y-43039125D01*
X247699981Y-42986091D01*
X247757490Y-42946792D01*
X247832242Y-42920523D01*
X247882200Y-42911227D01*
X247938908Y-42904699D01*
X247999011Y-42899974D01*
X248050131Y-42898009D01*
X248053159Y-42898000D01*
X248129359Y-42898014D01*
X248275349Y-42898014D01*
X248274752Y-42874043D01*
X248270490Y-42827247D01*
X248262322Y-42793970D01*
X248249048Y-42771951D01*
X248229466Y-42758931D01*
X248202375Y-42752649D01*
X248166574Y-42750845D01*
X248120863Y-42751258D01*
G37*
X248120863Y-42751258D02*
X248081381Y-42751659D01*
X247965692Y-42754451D01*
X247868803Y-42762742D01*
X247787411Y-42777424D01*
X247718215Y-42799385D01*
X247657912Y-42829514D01*
X247603200Y-42868702D01*
X247583659Y-42885724D01*
X247551242Y-42925555D01*
X247522012Y-42979605D01*
X247499483Y-43039515D01*
X247487171Y-43096931D01*
X247485892Y-43118148D01*
X247493909Y-43176961D01*
X247515391Y-43241205D01*
X247546491Y-43302013D01*
X247583358Y-43350522D01*
X247589346Y-43356374D01*
X247640071Y-43397513D01*
X247695617Y-43429627D01*
X247759188Y-43453557D01*
X247833986Y-43470145D01*
X247923214Y-43480233D01*
X248030074Y-43484661D01*
X248079020Y-43485037D01*
X248141254Y-43484737D01*
X248185020Y-43483484D01*
X248214423Y-43480746D01*
X248233571Y-43475993D01*
X248246569Y-43468693D01*
X248253537Y-43462459D01*
X248260118Y-43454886D01*
X248265280Y-43445116D01*
X248269195Y-43430532D01*
X248272035Y-43408518D01*
X248273972Y-43376456D01*
X248275176Y-43331728D01*
X248275820Y-43271718D01*
X248276075Y-43193809D01*
X248276114Y-43118148D01*
X248276362Y-43017233D01*
X248276309Y-42936619D01*
X248275349Y-42898014D01*
X248129359Y-42898014D01*
X248129359Y-43338281D01*
X248036226Y-43338196D01*
X247980185Y-43336588D01*
X247921491Y-43332448D01*
X247872520Y-43326656D01*
X247871030Y-43326418D01*
X247791884Y-43307282D01*
X247730494Y-43277479D01*
X247683797Y-43235070D01*
X247654127Y-43189153D01*
X247635845Y-43138218D01*
X247637263Y-43090392D01*
X247658480Y-43039125D01*
X247699981Y-42986091D01*
X247757490Y-42946792D01*
X247832242Y-42920523D01*
X247882200Y-42911227D01*
X247938908Y-42904699D01*
X247999011Y-42899974D01*
X248050131Y-42898009D01*
X248053159Y-42898000D01*
X248129359Y-42898014D01*
X248275349Y-42898014D01*
X248274752Y-42874043D01*
X248270490Y-42827247D01*
X248262322Y-42793970D01*
X248249048Y-42771951D01*
X248229466Y-42758931D01*
X248202375Y-42752649D01*
X248166574Y-42750845D01*
X248120863Y-42751258D01*
G36*
X246712286Y-42751338D02*
G01*
X246642878Y-42751710D01*
X246590489Y-42752577D01*
X246552339Y-42754138D01*
X246525651Y-42756595D01*
X246507645Y-42760149D01*
X246495541Y-42765002D01*
X246486561Y-42771353D01*
X246483310Y-42774276D01*
X246463535Y-42805334D01*
X246459974Y-42841020D01*
X246472983Y-42872702D01*
X246478998Y-42879105D01*
X246488727Y-42885313D01*
X246504393Y-42890102D01*
X246528900Y-42893706D01*
X246565153Y-42896356D01*
X246616057Y-42898287D01*
X246684518Y-42899731D01*
X246747109Y-42900610D01*
X246994826Y-42903659D01*
X246998211Y-42968570D01*
X247001597Y-43033481D01*
X246833450Y-43033481D01*
X246760451Y-43034111D01*
X246707009Y-43036745D01*
X246670120Y-43042501D01*
X246646780Y-43052496D01*
X246633986Y-43067848D01*
X246628734Y-43089674D01*
X246627937Y-43109930D01*
X246630415Y-43134784D01*
X246639769Y-43153098D01*
X246658875Y-43165829D01*
X246690610Y-43173933D01*
X246737851Y-43178368D01*
X246803475Y-43180091D01*
X246839293Y-43180237D01*
X247000470Y-43180237D01*
X247000470Y-43338281D01*
X246752114Y-43338281D01*
X246670705Y-43338394D01*
X246608834Y-43338904D01*
X246563460Y-43340062D01*
X246531546Y-43342122D01*
X246510051Y-43345338D01*
X246495935Y-43349964D01*
X246486160Y-43356251D01*
X246481181Y-43360859D01*
X246464102Y-43387752D01*
X246458603Y-43411659D01*
X246466455Y-43440859D01*
X246481181Y-43462459D01*
X246489038Y-43469258D01*
X246499180Y-43474538D01*
X246514336Y-43478490D01*
X246537233Y-43481305D01*
X246570601Y-43483174D01*
X246617167Y-43484290D01*
X246679659Y-43484843D01*
X246760806Y-43485025D01*
X246802914Y-43485037D01*
X246893090Y-43484957D01*
X246963416Y-43484590D01*
X247016621Y-43483744D01*
X247055432Y-43482228D01*
X247082579Y-43479851D01*
X247100790Y-43476421D01*
X247112792Y-43471746D01*
X247121314Y-43465636D01*
X247124648Y-43462459D01*
X247131247Y-43454862D01*
X247136419Y-43445062D01*
X247140338Y-43430431D01*
X247143176Y-43408344D01*
X247145107Y-43376174D01*
X247146304Y-43331295D01*
X247146940Y-43271081D01*
X247147189Y-43192905D01*
X247147226Y-43120115D01*
X247147192Y-43026899D01*
X247146957Y-42953623D01*
X247146322Y-42897650D01*
X247145086Y-42856343D01*
X247143048Y-42827064D01*
X247140009Y-42807176D01*
X247135769Y-42794042D01*
X247130127Y-42785024D01*
X247122883Y-42777485D01*
X247121098Y-42775804D01*
X247112437Y-42768364D01*
X247102374Y-42762601D01*
X247088117Y-42758304D01*
X247066875Y-42755256D01*
X247035856Y-42753243D01*
X246992269Y-42752052D01*
X246933323Y-42751467D01*
X246856226Y-42751275D01*
X246801493Y-42751259D01*
X246712286Y-42751338D01*
G37*
X246712286Y-42751338D02*
X246642878Y-42751710D01*
X246590489Y-42752577D01*
X246552339Y-42754138D01*
X246525651Y-42756595D01*
X246507645Y-42760149D01*
X246495541Y-42765002D01*
X246486561Y-42771353D01*
X246483310Y-42774276D01*
X246463535Y-42805334D01*
X246459974Y-42841020D01*
X246472983Y-42872702D01*
X246478998Y-42879105D01*
X246488727Y-42885313D01*
X246504393Y-42890102D01*
X246528900Y-42893706D01*
X246565153Y-42896356D01*
X246616057Y-42898287D01*
X246684518Y-42899731D01*
X246747109Y-42900610D01*
X246994826Y-42903659D01*
X246998211Y-42968570D01*
X247001597Y-43033481D01*
X246833450Y-43033481D01*
X246760451Y-43034111D01*
X246707009Y-43036745D01*
X246670120Y-43042501D01*
X246646780Y-43052496D01*
X246633986Y-43067848D01*
X246628734Y-43089674D01*
X246627937Y-43109930D01*
X246630415Y-43134784D01*
X246639769Y-43153098D01*
X246658875Y-43165829D01*
X246690610Y-43173933D01*
X246737851Y-43178368D01*
X246803475Y-43180091D01*
X246839293Y-43180237D01*
X247000470Y-43180237D01*
X247000470Y-43338281D01*
X246752114Y-43338281D01*
X246670705Y-43338394D01*
X246608834Y-43338904D01*
X246563460Y-43340062D01*
X246531546Y-43342122D01*
X246510051Y-43345338D01*
X246495935Y-43349964D01*
X246486160Y-43356251D01*
X246481181Y-43360859D01*
X246464102Y-43387752D01*
X246458603Y-43411659D01*
X246466455Y-43440859D01*
X246481181Y-43462459D01*
X246489038Y-43469258D01*
X246499180Y-43474538D01*
X246514336Y-43478490D01*
X246537233Y-43481305D01*
X246570601Y-43483174D01*
X246617167Y-43484290D01*
X246679659Y-43484843D01*
X246760806Y-43485025D01*
X246802914Y-43485037D01*
X246893090Y-43484957D01*
X246963416Y-43484590D01*
X247016621Y-43483744D01*
X247055432Y-43482228D01*
X247082579Y-43479851D01*
X247100790Y-43476421D01*
X247112792Y-43471746D01*
X247121314Y-43465636D01*
X247124648Y-43462459D01*
X247131247Y-43454862D01*
X247136419Y-43445062D01*
X247140338Y-43430431D01*
X247143176Y-43408344D01*
X247145107Y-43376174D01*
X247146304Y-43331295D01*
X247146940Y-43271081D01*
X247147189Y-43192905D01*
X247147226Y-43120115D01*
X247147192Y-43026899D01*
X247146957Y-42953623D01*
X247146322Y-42897650D01*
X247145086Y-42856343D01*
X247143048Y-42827064D01*
X247140009Y-42807176D01*
X247135769Y-42794042D01*
X247130127Y-42785024D01*
X247122883Y-42777485D01*
X247121098Y-42775804D01*
X247112437Y-42768364D01*
X247102374Y-42762601D01*
X247088117Y-42758304D01*
X247066875Y-42755256D01*
X247035856Y-42753243D01*
X246992269Y-42752052D01*
X246933323Y-42751467D01*
X246856226Y-42751275D01*
X246801493Y-42751259D01*
X246712286Y-42751338D01*
G36*
X245691195Y-42752543D02*
G01*
X245616380Y-42757773D01*
X245546798Y-42765942D01*
X245486494Y-42776742D01*
X245439512Y-42789865D01*
X245409898Y-42805005D01*
X245405352Y-42809461D01*
X245389546Y-42844042D01*
X245394339Y-42879543D01*
X245418856Y-42909917D01*
X245420026Y-42910788D01*
X245434446Y-42920146D01*
X245449500Y-42925068D01*
X245470497Y-42925665D01*
X245502749Y-42922053D01*
X245551565Y-42914346D01*
X245555492Y-42913697D01*
X245628231Y-42904761D01*
X245706709Y-42900353D01*
X245785419Y-42900311D01*
X245858853Y-42904471D01*
X245921503Y-42912671D01*
X245967862Y-42924749D01*
X245970908Y-42925963D01*
X246004540Y-42944807D01*
X246016356Y-42963877D01*
X246007106Y-42982631D01*
X245977539Y-43000529D01*
X245928403Y-43017029D01*
X245860449Y-43031588D01*
X245815137Y-43038598D01*
X245720948Y-43052081D01*
X245646036Y-43064406D01*
X245587209Y-43076641D01*
X245541277Y-43089853D01*
X245505047Y-43105109D01*
X245475330Y-43123477D01*
X245448934Y-43146023D01*
X245427722Y-43168163D01*
X245402557Y-43199011D01*
X245390173Y-43225537D01*
X245386300Y-43258218D01*
X245386159Y-43270187D01*
X245389068Y-43309904D01*
X245400694Y-43339451D01*
X245420815Y-43365678D01*
X245461708Y-43405768D01*
X245507309Y-43436341D01*
X245561005Y-43458395D01*
X245626184Y-43472927D01*
X245706236Y-43480933D01*
X245804549Y-43483410D01*
X245820781Y-43483369D01*
X245886341Y-43482010D01*
X245951358Y-43478922D01*
X246008744Y-43474548D01*
X246051414Y-43469332D01*
X246054864Y-43468733D01*
X246097288Y-43458683D01*
X246133272Y-43445988D01*
X246153642Y-43434382D01*
X246172599Y-43403764D01*
X246173919Y-43368110D01*
X246157577Y-43336336D01*
X246153921Y-43332743D01*
X246138807Y-43322068D01*
X246119907Y-43317468D01*
X246090654Y-43318251D01*
X246055143Y-43322319D01*
X246015462Y-43325954D01*
X245959837Y-43329020D01*
X245894898Y-43331245D01*
X245827277Y-43332356D01*
X245809492Y-43332429D01*
X245741620Y-43332156D01*
X245691946Y-43330838D01*
X245656102Y-43328019D01*
X245629716Y-43323242D01*
X245608418Y-43316049D01*
X245595618Y-43310059D01*
X245567492Y-43293425D01*
X245549560Y-43278360D01*
X245546939Y-43274089D01*
X245552468Y-43256455D01*
X245578752Y-43239384D01*
X245623970Y-43223650D01*
X245686300Y-43210030D01*
X245704663Y-43206996D01*
X245800582Y-43191930D01*
X245877133Y-43179338D01*
X245937272Y-43168303D01*
X245983952Y-43157912D01*
X246020129Y-43147248D01*
X246048757Y-43135397D01*
X246072790Y-43121443D01*
X246095184Y-43104473D01*
X246118894Y-43083570D01*
X246126872Y-43076241D01*
X246154845Y-43048891D01*
X246169652Y-43027221D01*
X246175444Y-43002424D01*
X246176381Y-42971175D01*
X246166067Y-42909897D01*
X246135244Y-42857832D01*
X246084087Y-42815150D01*
X246012775Y-42782017D01*
X245961892Y-42767156D01*
X245906592Y-42757558D01*
X245840345Y-42752128D01*
X245767198Y-42750559D01*
X245691195Y-42752543D01*
G37*
X245691195Y-42752543D02*
X245616380Y-42757773D01*
X245546798Y-42765942D01*
X245486494Y-42776742D01*
X245439512Y-42789865D01*
X245409898Y-42805005D01*
X245405352Y-42809461D01*
X245389546Y-42844042D01*
X245394339Y-42879543D01*
X245418856Y-42909917D01*
X245420026Y-42910788D01*
X245434446Y-42920146D01*
X245449500Y-42925068D01*
X245470497Y-42925665D01*
X245502749Y-42922053D01*
X245551565Y-42914346D01*
X245555492Y-42913697D01*
X245628231Y-42904761D01*
X245706709Y-42900353D01*
X245785419Y-42900311D01*
X245858853Y-42904471D01*
X245921503Y-42912671D01*
X245967862Y-42924749D01*
X245970908Y-42925963D01*
X246004540Y-42944807D01*
X246016356Y-42963877D01*
X246007106Y-42982631D01*
X245977539Y-43000529D01*
X245928403Y-43017029D01*
X245860449Y-43031588D01*
X245815137Y-43038598D01*
X245720948Y-43052081D01*
X245646036Y-43064406D01*
X245587209Y-43076641D01*
X245541277Y-43089853D01*
X245505047Y-43105109D01*
X245475330Y-43123477D01*
X245448934Y-43146023D01*
X245427722Y-43168163D01*
X245402557Y-43199011D01*
X245390173Y-43225537D01*
X245386300Y-43258218D01*
X245386159Y-43270187D01*
X245389068Y-43309904D01*
X245400694Y-43339451D01*
X245420815Y-43365678D01*
X245461708Y-43405768D01*
X245507309Y-43436341D01*
X245561005Y-43458395D01*
X245626184Y-43472927D01*
X245706236Y-43480933D01*
X245804549Y-43483410D01*
X245820781Y-43483369D01*
X245886341Y-43482010D01*
X245951358Y-43478922D01*
X246008744Y-43474548D01*
X246051414Y-43469332D01*
X246054864Y-43468733D01*
X246097288Y-43458683D01*
X246133272Y-43445988D01*
X246153642Y-43434382D01*
X246172599Y-43403764D01*
X246173919Y-43368110D01*
X246157577Y-43336336D01*
X246153921Y-43332743D01*
X246138807Y-43322068D01*
X246119907Y-43317468D01*
X246090654Y-43318251D01*
X246055143Y-43322319D01*
X246015462Y-43325954D01*
X245959837Y-43329020D01*
X245894898Y-43331245D01*
X245827277Y-43332356D01*
X245809492Y-43332429D01*
X245741620Y-43332156D01*
X245691946Y-43330838D01*
X245656102Y-43328019D01*
X245629716Y-43323242D01*
X245608418Y-43316049D01*
X245595618Y-43310059D01*
X245567492Y-43293425D01*
X245549560Y-43278360D01*
X245546939Y-43274089D01*
X245552468Y-43256455D01*
X245578752Y-43239384D01*
X245623970Y-43223650D01*
X245686300Y-43210030D01*
X245704663Y-43206996D01*
X245800582Y-43191930D01*
X245877133Y-43179338D01*
X245937272Y-43168303D01*
X245983952Y-43157912D01*
X246020129Y-43147248D01*
X246048757Y-43135397D01*
X246072790Y-43121443D01*
X246095184Y-43104473D01*
X246118894Y-43083570D01*
X246126872Y-43076241D01*
X246154845Y-43048891D01*
X246169652Y-43027221D01*
X246175444Y-43002424D01*
X246176381Y-42971175D01*
X246166067Y-42909897D01*
X246135244Y-42857832D01*
X246084087Y-42815150D01*
X246012775Y-42782017D01*
X245961892Y-42767156D01*
X245906592Y-42757558D01*
X245840345Y-42752128D01*
X245767198Y-42750559D01*
X245691195Y-42752543D01*
G36*
X244923314Y-42773837D02*
G01*
X244916734Y-42781410D01*
X244911571Y-42791179D01*
X244907656Y-42805763D01*
X244904816Y-42827777D01*
X244902879Y-42859840D01*
X244901675Y-42904567D01*
X244901031Y-42964577D01*
X244900776Y-43042486D01*
X244900737Y-43118148D01*
X244900806Y-43211994D01*
X244901130Y-43285881D01*
X244901878Y-43342424D01*
X244903224Y-43384241D01*
X244905338Y-43413949D01*
X244908392Y-43434165D01*
X244912558Y-43447506D01*
X244918008Y-43456590D01*
X244923314Y-43462459D01*
X244956318Y-43482139D01*
X244991483Y-43480373D01*
X245022947Y-43458909D01*
X245030176Y-43450529D01*
X245035826Y-43440806D01*
X245040091Y-43427053D01*
X245043165Y-43406581D01*
X245045244Y-43376704D01*
X245046522Y-43334733D01*
X245047193Y-43277981D01*
X245047451Y-43203759D01*
X245047492Y-43119729D01*
X245047492Y-42806677D01*
X245019783Y-42778968D01*
X244985629Y-42755655D01*
X244952498Y-42754815D01*
X244923314Y-42773837D01*
G37*
X244923314Y-42773837D02*
X244916734Y-42781410D01*
X244911571Y-42791179D01*
X244907656Y-42805763D01*
X244904816Y-42827777D01*
X244902879Y-42859840D01*
X244901675Y-42904567D01*
X244901031Y-42964577D01*
X244900776Y-43042486D01*
X244900737Y-43118148D01*
X244900806Y-43211994D01*
X244901130Y-43285881D01*
X244901878Y-43342424D01*
X244903224Y-43384241D01*
X244905338Y-43413949D01*
X244908392Y-43434165D01*
X244912558Y-43447506D01*
X244918008Y-43456590D01*
X244923314Y-43462459D01*
X244956318Y-43482139D01*
X244991483Y-43480373D01*
X245022947Y-43458909D01*
X245030176Y-43450529D01*
X245035826Y-43440806D01*
X245040091Y-43427053D01*
X245043165Y-43406581D01*
X245045244Y-43376704D01*
X245046522Y-43334733D01*
X245047193Y-43277981D01*
X245047451Y-43203759D01*
X245047492Y-43119729D01*
X245047492Y-42806677D01*
X245019783Y-42778968D01*
X244985629Y-42755655D01*
X244952498Y-42754815D01*
X244923314Y-42773837D01*
G36*
X243949573Y-42756791D02*
G01*
X243881057Y-42768287D01*
X243828435Y-42786159D01*
X243794200Y-42809691D01*
X243784871Y-42823116D01*
X243775385Y-42854340D01*
X243781769Y-42882587D01*
X243801922Y-42909374D01*
X243833237Y-42921905D01*
X243878675Y-42920888D01*
X243913818Y-42914098D01*
X243991911Y-42901163D01*
X244071718Y-42899934D01*
X244161047Y-42910433D01*
X244185721Y-42914882D01*
X244268783Y-42938300D01*
X244333765Y-42973137D01*
X244379953Y-43018796D01*
X244406637Y-43074686D01*
X244412155Y-43103580D01*
X244408543Y-43162204D01*
X244385221Y-43214071D01*
X244344316Y-43258170D01*
X244287951Y-43293491D01*
X244218252Y-43319021D01*
X244137344Y-43333751D01*
X244047352Y-43336670D01*
X243950402Y-43326767D01*
X243944928Y-43325833D01*
X243906367Y-43318651D01*
X243884986Y-43311713D01*
X243875719Y-43301419D01*
X243873498Y-43284168D01*
X243873448Y-43275033D01*
X243873448Y-43236681D01*
X243941923Y-43236681D01*
X244002392Y-43232539D01*
X244043657Y-43219339D01*
X244067667Y-43195922D01*
X244076369Y-43161128D01*
X244076475Y-43156586D01*
X244071384Y-43126846D01*
X244053925Y-43105611D01*
X244021431Y-43091558D01*
X243971235Y-43083365D01*
X243922615Y-43080353D01*
X243851948Y-43078625D01*
X243800690Y-43081262D01*
X243765731Y-43090992D01*
X243743962Y-43110545D01*
X243732272Y-43142648D01*
X243727552Y-43190030D01*
X243726692Y-43252263D01*
X243728101Y-43321727D01*
X243732340Y-43368978D01*
X243739428Y-43394204D01*
X243740803Y-43396180D01*
X243779720Y-43427700D01*
X243836778Y-43452662D01*
X243908361Y-43470532D01*
X243990850Y-43480778D01*
X244080631Y-43482865D01*
X244174084Y-43476260D01*
X244229048Y-43468148D01*
X244315258Y-43443746D01*
X244395384Y-43403854D01*
X244462469Y-43352079D01*
X244472665Y-43341731D01*
X244505794Y-43298227D01*
X244535686Y-43244310D01*
X244558849Y-43187784D01*
X244571790Y-43136451D01*
X244573350Y-43116736D01*
X244566710Y-43075611D01*
X244549060Y-43024444D01*
X244523789Y-42970586D01*
X244494281Y-42921387D01*
X244468211Y-42888526D01*
X244407257Y-42839644D01*
X244328461Y-42800737D01*
X244234649Y-42772686D01*
X244128642Y-42756371D01*
X244031492Y-42752384D01*
X243949573Y-42756791D01*
G37*
X243949573Y-42756791D02*
X243881057Y-42768287D01*
X243828435Y-42786159D01*
X243794200Y-42809691D01*
X243784871Y-42823116D01*
X243775385Y-42854340D01*
X243781769Y-42882587D01*
X243801922Y-42909374D01*
X243833237Y-42921905D01*
X243878675Y-42920888D01*
X243913818Y-42914098D01*
X243991911Y-42901163D01*
X244071718Y-42899934D01*
X244161047Y-42910433D01*
X244185721Y-42914882D01*
X244268783Y-42938300D01*
X244333765Y-42973137D01*
X244379953Y-43018796D01*
X244406637Y-43074686D01*
X244412155Y-43103580D01*
X244408543Y-43162204D01*
X244385221Y-43214071D01*
X244344316Y-43258170D01*
X244287951Y-43293491D01*
X244218252Y-43319021D01*
X244137344Y-43333751D01*
X244047352Y-43336670D01*
X243950402Y-43326767D01*
X243944928Y-43325833D01*
X243906367Y-43318651D01*
X243884986Y-43311713D01*
X243875719Y-43301419D01*
X243873498Y-43284168D01*
X243873448Y-43275033D01*
X243873448Y-43236681D01*
X243941923Y-43236681D01*
X244002392Y-43232539D01*
X244043657Y-43219339D01*
X244067667Y-43195922D01*
X244076369Y-43161128D01*
X244076475Y-43156586D01*
X244071384Y-43126846D01*
X244053925Y-43105611D01*
X244021431Y-43091558D01*
X243971235Y-43083365D01*
X243922615Y-43080353D01*
X243851948Y-43078625D01*
X243800690Y-43081262D01*
X243765731Y-43090992D01*
X243743962Y-43110545D01*
X243732272Y-43142648D01*
X243727552Y-43190030D01*
X243726692Y-43252263D01*
X243728101Y-43321727D01*
X243732340Y-43368978D01*
X243739428Y-43394204D01*
X243740803Y-43396180D01*
X243779720Y-43427700D01*
X243836778Y-43452662D01*
X243908361Y-43470532D01*
X243990850Y-43480778D01*
X244080631Y-43482865D01*
X244174084Y-43476260D01*
X244229048Y-43468148D01*
X244315258Y-43443746D01*
X244395384Y-43403854D01*
X244462469Y-43352079D01*
X244472665Y-43341731D01*
X244505794Y-43298227D01*
X244535686Y-43244310D01*
X244558849Y-43187784D01*
X244571790Y-43136451D01*
X244573350Y-43116736D01*
X244566710Y-43075611D01*
X244549060Y-43024444D01*
X244523789Y-42970586D01*
X244494281Y-42921387D01*
X244468211Y-42888526D01*
X244407257Y-42839644D01*
X244328461Y-42800737D01*
X244234649Y-42772686D01*
X244128642Y-42756371D01*
X244031492Y-42752384D01*
X243949573Y-42756791D01*
G36*
X243299606Y-42755640D02*
G01*
X243276040Y-42769465D01*
X243245227Y-42792073D01*
X243205570Y-42824530D01*
X243155472Y-42867900D01*
X243093335Y-42923250D01*
X243017564Y-42991643D01*
X242930826Y-43070276D01*
X242750203Y-43234070D01*
X242744559Y-43014221D01*
X242742521Y-42938543D01*
X242740555Y-42882186D01*
X242738226Y-42841898D01*
X242735098Y-42814427D01*
X242730737Y-42796521D01*
X242724708Y-42784929D01*
X242716576Y-42776400D01*
X242712264Y-42772815D01*
X242677733Y-42753862D01*
X242644875Y-42756633D01*
X242618810Y-42772825D01*
X242592159Y-42794391D01*
X242588844Y-43109343D01*
X242587927Y-43201971D01*
X242587460Y-43274736D01*
X242587605Y-43330353D01*
X242588524Y-43371534D01*
X242590379Y-43400995D01*
X242593331Y-43421447D01*
X242597542Y-43435605D01*
X242603174Y-43446183D01*
X242609419Y-43454666D01*
X242622931Y-43470399D01*
X242636375Y-43480828D01*
X242651616Y-43484831D01*
X242670518Y-43481286D01*
X242694947Y-43469071D01*
X242726765Y-43447063D01*
X242767840Y-43414141D01*
X242820034Y-43369183D01*
X242885214Y-43311067D01*
X242959048Y-43244291D01*
X243224337Y-43003650D01*
X243229981Y-43222781D01*
X243232023Y-43298320D01*
X243233994Y-43354546D01*
X243236331Y-43394716D01*
X243239473Y-43422088D01*
X243243856Y-43439920D01*
X243249916Y-43451471D01*
X243258092Y-43459999D01*
X243262276Y-43463474D01*
X243299257Y-43482564D01*
X243334200Y-43479685D01*
X243364628Y-43455292D01*
X243371589Y-43445478D01*
X243377015Y-43434018D01*
X243381095Y-43418160D01*
X243384021Y-43395155D01*
X243385984Y-43362254D01*
X243387175Y-43316708D01*
X243387784Y-43255765D01*
X243388003Y-43176678D01*
X243388026Y-43118148D01*
X243387952Y-43026599D01*
X243387605Y-42954879D01*
X243386793Y-42900237D01*
X243385325Y-42859924D01*
X243383011Y-42831190D01*
X243379659Y-42811285D01*
X243375080Y-42797460D01*
X243369081Y-42786964D01*
X243364628Y-42781003D01*
X243353342Y-42766883D01*
X243342793Y-42756221D01*
X243331385Y-42750084D01*
X243317522Y-42749535D01*
X243299606Y-42755640D01*
G37*
X243299606Y-42755640D02*
X243276040Y-42769465D01*
X243245227Y-42792073D01*
X243205570Y-42824530D01*
X243155472Y-42867900D01*
X243093335Y-42923250D01*
X243017564Y-42991643D01*
X242930826Y-43070276D01*
X242750203Y-43234070D01*
X242744559Y-43014221D01*
X242742521Y-42938543D01*
X242740555Y-42882186D01*
X242738226Y-42841898D01*
X242735098Y-42814427D01*
X242730737Y-42796521D01*
X242724708Y-42784929D01*
X242716576Y-42776400D01*
X242712264Y-42772815D01*
X242677733Y-42753862D01*
X242644875Y-42756633D01*
X242618810Y-42772825D01*
X242592159Y-42794391D01*
X242588844Y-43109343D01*
X242587927Y-43201971D01*
X242587460Y-43274736D01*
X242587605Y-43330353D01*
X242588524Y-43371534D01*
X242590379Y-43400995D01*
X242593331Y-43421447D01*
X242597542Y-43435605D01*
X242603174Y-43446183D01*
X242609419Y-43454666D01*
X242622931Y-43470399D01*
X242636375Y-43480828D01*
X242651616Y-43484831D01*
X242670518Y-43481286D01*
X242694947Y-43469071D01*
X242726765Y-43447063D01*
X242767840Y-43414141D01*
X242820034Y-43369183D01*
X242885214Y-43311067D01*
X242959048Y-43244291D01*
X243224337Y-43003650D01*
X243229981Y-43222781D01*
X243232023Y-43298320D01*
X243233994Y-43354546D01*
X243236331Y-43394716D01*
X243239473Y-43422088D01*
X243243856Y-43439920D01*
X243249916Y-43451471D01*
X243258092Y-43459999D01*
X243262276Y-43463474D01*
X243299257Y-43482564D01*
X243334200Y-43479685D01*
X243364628Y-43455292D01*
X243371589Y-43445478D01*
X243377015Y-43434018D01*
X243381095Y-43418160D01*
X243384021Y-43395155D01*
X243385984Y-43362254D01*
X243387175Y-43316708D01*
X243387784Y-43255765D01*
X243388003Y-43176678D01*
X243388026Y-43118148D01*
X243387952Y-43026599D01*
X243387605Y-42954879D01*
X243386793Y-42900237D01*
X243385325Y-42859924D01*
X243383011Y-42831190D01*
X243379659Y-42811285D01*
X243375080Y-42797460D01*
X243369081Y-42786964D01*
X243364628Y-42781003D01*
X243353342Y-42766883D01*
X243342793Y-42756221D01*
X243331385Y-42750084D01*
X243317522Y-42749535D01*
X243299606Y-42755640D01*
G36*
X241769149Y-42751452D02*
G01*
X241692791Y-42752366D01*
X241634275Y-42754503D01*
X241591237Y-42758367D01*
X241561309Y-42764459D01*
X241542124Y-42773282D01*
X241531316Y-42785338D01*
X241526519Y-42801131D01*
X241525365Y-42821162D01*
X241525359Y-42823527D01*
X241526361Y-42846184D01*
X241531096Y-42863695D01*
X241542159Y-42876766D01*
X241562144Y-42886105D01*
X241593646Y-42892419D01*
X241639260Y-42896414D01*
X241701579Y-42898798D01*
X241783199Y-42900278D01*
X241808215Y-42900606D01*
X242050292Y-42903659D01*
X242053678Y-42968570D01*
X242057063Y-43033481D01*
X241888916Y-43033481D01*
X241823226Y-43033723D01*
X241776320Y-43034748D01*
X241744409Y-43037003D01*
X241723701Y-43040934D01*
X241710408Y-43046990D01*
X241700737Y-43055616D01*
X241700675Y-43055685D01*
X241683136Y-43089304D01*
X241683770Y-43125640D01*
X241702178Y-43156615D01*
X241705821Y-43159799D01*
X241718751Y-43168004D01*
X241736468Y-43173713D01*
X241762922Y-43177354D01*
X241802060Y-43179359D01*
X241857830Y-43180156D01*
X241893498Y-43180237D01*
X242055937Y-43180237D01*
X242055937Y-43338281D01*
X241809331Y-43338281D01*
X241727912Y-43338423D01*
X241666082Y-43339006D01*
X241620855Y-43340260D01*
X241589244Y-43342419D01*
X241568261Y-43345715D01*
X241554919Y-43350381D01*
X241546231Y-43356649D01*
X241544042Y-43358925D01*
X241527878Y-43390472D01*
X241526695Y-43426360D01*
X241539956Y-43457477D01*
X241550449Y-43467463D01*
X241561363Y-43472961D01*
X241578275Y-43477214D01*
X241603859Y-43480372D01*
X241640791Y-43482584D01*
X241691746Y-43483998D01*
X241759398Y-43484764D01*
X241846423Y-43485030D01*
X241866098Y-43485037D01*
X241954581Y-43484979D01*
X242023265Y-43484659D01*
X242074928Y-43483859D01*
X242112347Y-43482359D01*
X242138302Y-43479941D01*
X242155570Y-43476386D01*
X242166930Y-43471474D01*
X242175160Y-43464987D01*
X242179675Y-43460330D01*
X242186471Y-43452081D01*
X242191780Y-43441861D01*
X242195786Y-43426992D01*
X242198671Y-43404794D01*
X242200618Y-43372585D01*
X242201811Y-43327688D01*
X242202431Y-43267420D01*
X242202663Y-43189103D01*
X242202692Y-43123186D01*
X242202621Y-43030820D01*
X242202284Y-42958309D01*
X242201494Y-42902929D01*
X242200066Y-42861957D01*
X242197813Y-42832670D01*
X242194549Y-42812345D01*
X242190088Y-42798258D01*
X242184244Y-42787687D01*
X242179295Y-42781003D01*
X242155898Y-42751259D01*
X241865718Y-42751259D01*
X241769149Y-42751452D01*
G37*
X241769149Y-42751452D02*
X241692791Y-42752366D01*
X241634275Y-42754503D01*
X241591237Y-42758367D01*
X241561309Y-42764459D01*
X241542124Y-42773282D01*
X241531316Y-42785338D01*
X241526519Y-42801131D01*
X241525365Y-42821162D01*
X241525359Y-42823527D01*
X241526361Y-42846184D01*
X241531096Y-42863695D01*
X241542159Y-42876766D01*
X241562144Y-42886105D01*
X241593646Y-42892419D01*
X241639260Y-42896414D01*
X241701579Y-42898798D01*
X241783199Y-42900278D01*
X241808215Y-42900606D01*
X242050292Y-42903659D01*
X242053678Y-42968570D01*
X242057063Y-43033481D01*
X241888916Y-43033481D01*
X241823226Y-43033723D01*
X241776320Y-43034748D01*
X241744409Y-43037003D01*
X241723701Y-43040934D01*
X241710408Y-43046990D01*
X241700737Y-43055616D01*
X241700675Y-43055685D01*
X241683136Y-43089304D01*
X241683770Y-43125640D01*
X241702178Y-43156615D01*
X241705821Y-43159799D01*
X241718751Y-43168004D01*
X241736468Y-43173713D01*
X241762922Y-43177354D01*
X241802060Y-43179359D01*
X241857830Y-43180156D01*
X241893498Y-43180237D01*
X242055937Y-43180237D01*
X242055937Y-43338281D01*
X241809331Y-43338281D01*
X241727912Y-43338423D01*
X241666082Y-43339006D01*
X241620855Y-43340260D01*
X241589244Y-43342419D01*
X241568261Y-43345715D01*
X241554919Y-43350381D01*
X241546231Y-43356649D01*
X241544042Y-43358925D01*
X241527878Y-43390472D01*
X241526695Y-43426360D01*
X241539956Y-43457477D01*
X241550449Y-43467463D01*
X241561363Y-43472961D01*
X241578275Y-43477214D01*
X241603859Y-43480372D01*
X241640791Y-43482584D01*
X241691746Y-43483998D01*
X241759398Y-43484764D01*
X241846423Y-43485030D01*
X241866098Y-43485037D01*
X241954581Y-43484979D01*
X242023265Y-43484659D01*
X242074928Y-43483859D01*
X242112347Y-43482359D01*
X242138302Y-43479941D01*
X242155570Y-43476386D01*
X242166930Y-43471474D01*
X242175160Y-43464987D01*
X242179675Y-43460330D01*
X242186471Y-43452081D01*
X242191780Y-43441861D01*
X242195786Y-43426992D01*
X242198671Y-43404794D01*
X242200618Y-43372585D01*
X242201811Y-43327688D01*
X242202431Y-43267420D01*
X242202663Y-43189103D01*
X242202692Y-43123186D01*
X242202621Y-43030820D01*
X242202284Y-42958309D01*
X242201494Y-42902929D01*
X242200066Y-42861957D01*
X242197813Y-42832670D01*
X242194549Y-42812345D01*
X242190088Y-42798258D01*
X242184244Y-42787687D01*
X242179295Y-42781003D01*
X242155898Y-42751259D01*
X241865718Y-42751259D01*
X241769149Y-42751452D01*
G36*
X240981183Y-42751467D02*
G01*
X240852204Y-42755828D01*
X240742501Y-42769053D01*
X240650266Y-42791933D01*
X240573690Y-42825262D01*
X240510965Y-42869830D01*
X240460280Y-42926428D01*
X240419829Y-42995850D01*
X240419033Y-42997543D01*
X240394891Y-43059675D01*
X240386289Y-43114701D01*
X240393261Y-43170079D01*
X240415838Y-43233265D01*
X240420120Y-43242881D01*
X240449320Y-43299158D01*
X240482136Y-43342643D01*
X240524490Y-43379609D01*
X240582302Y-43416327D01*
X240585661Y-43418244D01*
X240635988Y-43442419D01*
X240692871Y-43460474D01*
X240759965Y-43473031D01*
X240840927Y-43480714D01*
X240939410Y-43484145D01*
X240974206Y-43484443D01*
X241139898Y-43485037D01*
X241163295Y-43455292D01*
X241170235Y-43445511D01*
X241175650Y-43434089D01*
X241179727Y-43418287D01*
X241182655Y-43395367D01*
X241184625Y-43362588D01*
X241185267Y-43338281D01*
X241028648Y-43338281D01*
X240934766Y-43338281D01*
X240879828Y-43336675D01*
X240823432Y-43332447D01*
X240777147Y-43326484D01*
X240774353Y-43325982D01*
X240692144Y-43303928D01*
X240628378Y-43270792D01*
X240581040Y-43225039D01*
X240548110Y-43165131D01*
X240542384Y-43149253D01*
X240536771Y-43124525D01*
X240539201Y-43100094D01*
X240551025Y-43067592D01*
X240558152Y-43051626D01*
X240581492Y-43009198D01*
X240609612Y-42979432D01*
X240640552Y-42958703D01*
X240702526Y-42931729D01*
X240781841Y-42912190D01*
X240874239Y-42900938D01*
X240941159Y-42898462D01*
X241028648Y-42898014D01*
X241028648Y-43338281D01*
X241185267Y-43338281D01*
X241185824Y-43317213D01*
X241186442Y-43256503D01*
X241186667Y-43177718D01*
X241186692Y-43116112D01*
X241186692Y-42806677D01*
X241158983Y-42778968D01*
X241146686Y-42767736D01*
X241133389Y-42760045D01*
X241114820Y-42755232D01*
X241086706Y-42752638D01*
X241044775Y-42751602D01*
X240984755Y-42751462D01*
X240981183Y-42751467D01*
G37*
X240981183Y-42751467D02*
X240852204Y-42755828D01*
X240742501Y-42769053D01*
X240650266Y-42791933D01*
X240573690Y-42825262D01*
X240510965Y-42869830D01*
X240460280Y-42926428D01*
X240419829Y-42995850D01*
X240419033Y-42997543D01*
X240394891Y-43059675D01*
X240386289Y-43114701D01*
X240393261Y-43170079D01*
X240415838Y-43233265D01*
X240420120Y-43242881D01*
X240449320Y-43299158D01*
X240482136Y-43342643D01*
X240524490Y-43379609D01*
X240582302Y-43416327D01*
X240585661Y-43418244D01*
X240635988Y-43442419D01*
X240692871Y-43460474D01*
X240759965Y-43473031D01*
X240840927Y-43480714D01*
X240939410Y-43484145D01*
X240974206Y-43484443D01*
X241139898Y-43485037D01*
X241163295Y-43455292D01*
X241170235Y-43445511D01*
X241175650Y-43434089D01*
X241179727Y-43418287D01*
X241182655Y-43395367D01*
X241184625Y-43362588D01*
X241185267Y-43338281D01*
X241028648Y-43338281D01*
X240934766Y-43338281D01*
X240879828Y-43336675D01*
X240823432Y-43332447D01*
X240777147Y-43326484D01*
X240774353Y-43325982D01*
X240692144Y-43303928D01*
X240628378Y-43270792D01*
X240581040Y-43225039D01*
X240548110Y-43165131D01*
X240542384Y-43149253D01*
X240536771Y-43124525D01*
X240539201Y-43100094D01*
X240551025Y-43067592D01*
X240558152Y-43051626D01*
X240581492Y-43009198D01*
X240609612Y-42979432D01*
X240640552Y-42958703D01*
X240702526Y-42931729D01*
X240781841Y-42912190D01*
X240874239Y-42900938D01*
X240941159Y-42898462D01*
X241028648Y-42898014D01*
X241028648Y-43338281D01*
X241185267Y-43338281D01*
X241185824Y-43317213D01*
X241186442Y-43256503D01*
X241186667Y-43177718D01*
X241186692Y-43116112D01*
X241186692Y-42806677D01*
X241158983Y-42778968D01*
X241146686Y-42767736D01*
X241133389Y-42760045D01*
X241114820Y-42755232D01*
X241086706Y-42752638D01*
X241044775Y-42751602D01*
X240984755Y-42751462D01*
X240981183Y-42751467D01*
G36*
X238254827Y-42753226D02*
G01*
X238235237Y-42760227D01*
X238234482Y-42760569D01*
X238207879Y-42780870D01*
X238193222Y-42801753D01*
X238190354Y-42811544D01*
X238190496Y-42824553D01*
X238194531Y-42843087D01*
X238203346Y-42869449D01*
X238217823Y-42905944D01*
X238238847Y-42954879D01*
X238267304Y-43018557D01*
X238304077Y-43099285D01*
X238324317Y-43143408D01*
X238360867Y-43222177D01*
X238395177Y-43294615D01*
X238425940Y-43358072D01*
X238451844Y-43409900D01*
X238471582Y-43447451D01*
X238483842Y-43468076D01*
X238486268Y-43470925D01*
X238517309Y-43483494D01*
X238552371Y-43481811D01*
X238580492Y-43466524D01*
X238581638Y-43465281D01*
X238592824Y-43448346D01*
X238611588Y-43415362D01*
X238635617Y-43370572D01*
X238662595Y-43318224D01*
X238672291Y-43298934D01*
X238745478Y-43152342D01*
X238825252Y-43311585D01*
X238853725Y-43366607D01*
X238880142Y-43414324D01*
X238902344Y-43451085D01*
X238918173Y-43473236D01*
X238923538Y-43477933D01*
X238965235Y-43484294D01*
X238999643Y-43470925D01*
X239009764Y-43456638D01*
X239027278Y-43424884D01*
X239050757Y-43378789D01*
X239078772Y-43321477D01*
X239109893Y-43256072D01*
X239142693Y-43185699D01*
X239175742Y-43113483D01*
X239207611Y-43042547D01*
X239236873Y-42976017D01*
X239262097Y-42917018D01*
X239281856Y-42868673D01*
X239294720Y-42834107D01*
X239299261Y-42816445D01*
X239299215Y-42815805D01*
X239288166Y-42793580D01*
X239266082Y-42770945D01*
X239264782Y-42769960D01*
X239237639Y-42754617D01*
X239212534Y-42754766D01*
X239203124Y-42757658D01*
X239191658Y-42763910D01*
X239179482Y-42776206D01*
X239165135Y-42797100D01*
X239147156Y-42829141D01*
X239124085Y-42874880D01*
X239094462Y-42936869D01*
X239067747Y-42994090D01*
X239037012Y-43060418D01*
X239009471Y-43120066D01*
X238986554Y-43169917D01*
X238969694Y-43206856D01*
X238960319Y-43227765D01*
X238958952Y-43231037D01*
X238952803Y-43225689D01*
X238938670Y-43203301D01*
X238918435Y-43167138D01*
X238893977Y-43120469D01*
X238884244Y-43101214D01*
X238851275Y-43036196D01*
X238825849Y-42988846D01*
X238805880Y-42956411D01*
X238789282Y-42936138D01*
X238773968Y-42925274D01*
X238757852Y-42921067D01*
X238747349Y-42920592D01*
X238728822Y-42922234D01*
X238712588Y-42929023D01*
X238696457Y-42943758D01*
X238678241Y-42969236D01*
X238655753Y-43008253D01*
X238626803Y-43063606D01*
X238610830Y-43095095D01*
X238584922Y-43145279D01*
X238562325Y-43186896D01*
X238545034Y-43216434D01*
X238535042Y-43230381D01*
X238533683Y-43230962D01*
X238527231Y-43219985D01*
X238512784Y-43191482D01*
X238491789Y-43148436D01*
X238465695Y-43093830D01*
X238435946Y-43030646D01*
X238421312Y-42999263D01*
X238383242Y-42918270D01*
X238352587Y-42855948D01*
X238327755Y-42810263D01*
X238307155Y-42779181D01*
X238289194Y-42760670D01*
X238272282Y-42752696D01*
X238254827Y-42753226D01*
G37*
X238254827Y-42753226D02*
X238235237Y-42760227D01*
X238234482Y-42760569D01*
X238207879Y-42780870D01*
X238193222Y-42801753D01*
X238190354Y-42811544D01*
X238190496Y-42824553D01*
X238194531Y-42843087D01*
X238203346Y-42869449D01*
X238217823Y-42905944D01*
X238238847Y-42954879D01*
X238267304Y-43018557D01*
X238304077Y-43099285D01*
X238324317Y-43143408D01*
X238360867Y-43222177D01*
X238395177Y-43294615D01*
X238425940Y-43358072D01*
X238451844Y-43409900D01*
X238471582Y-43447451D01*
X238483842Y-43468076D01*
X238486268Y-43470925D01*
X238517309Y-43483494D01*
X238552371Y-43481811D01*
X238580492Y-43466524D01*
X238581638Y-43465281D01*
X238592824Y-43448346D01*
X238611588Y-43415362D01*
X238635617Y-43370572D01*
X238662595Y-43318224D01*
X238672291Y-43298934D01*
X238745478Y-43152342D01*
X238825252Y-43311585D01*
X238853725Y-43366607D01*
X238880142Y-43414324D01*
X238902344Y-43451085D01*
X238918173Y-43473236D01*
X238923538Y-43477933D01*
X238965235Y-43484294D01*
X238999643Y-43470925D01*
X239009764Y-43456638D01*
X239027278Y-43424884D01*
X239050757Y-43378789D01*
X239078772Y-43321477D01*
X239109893Y-43256072D01*
X239142693Y-43185699D01*
X239175742Y-43113483D01*
X239207611Y-43042547D01*
X239236873Y-42976017D01*
X239262097Y-42917018D01*
X239281856Y-42868673D01*
X239294720Y-42834107D01*
X239299261Y-42816445D01*
X239299215Y-42815805D01*
X239288166Y-42793580D01*
X239266082Y-42770945D01*
X239264782Y-42769960D01*
X239237639Y-42754617D01*
X239212534Y-42754766D01*
X239203124Y-42757658D01*
X239191658Y-42763910D01*
X239179482Y-42776206D01*
X239165135Y-42797100D01*
X239147156Y-42829141D01*
X239124085Y-42874880D01*
X239094462Y-42936869D01*
X239067747Y-42994090D01*
X239037012Y-43060418D01*
X239009471Y-43120066D01*
X238986554Y-43169917D01*
X238969694Y-43206856D01*
X238960319Y-43227765D01*
X238958952Y-43231037D01*
X238952803Y-43225689D01*
X238938670Y-43203301D01*
X238918435Y-43167138D01*
X238893977Y-43120469D01*
X238884244Y-43101214D01*
X238851275Y-43036196D01*
X238825849Y-42988846D01*
X238805880Y-42956411D01*
X238789282Y-42936138D01*
X238773968Y-42925274D01*
X238757852Y-42921067D01*
X238747349Y-42920592D01*
X238728822Y-42922234D01*
X238712588Y-42929023D01*
X238696457Y-42943758D01*
X238678241Y-42969236D01*
X238655753Y-43008253D01*
X238626803Y-43063606D01*
X238610830Y-43095095D01*
X238584922Y-43145279D01*
X238562325Y-43186896D01*
X238545034Y-43216434D01*
X238535042Y-43230381D01*
X238533683Y-43230962D01*
X238527231Y-43219985D01*
X238512784Y-43191482D01*
X238491789Y-43148436D01*
X238465695Y-43093830D01*
X238435946Y-43030646D01*
X238421312Y-42999263D01*
X238383242Y-42918270D01*
X238352587Y-42855948D01*
X238327755Y-42810263D01*
X238307155Y-42779181D01*
X238289194Y-42760670D01*
X238272282Y-42752696D01*
X238254827Y-42753226D01*
G36*
X237810878Y-42758069D02*
G01*
X237787165Y-42772839D01*
X237760514Y-42794419D01*
X237760514Y-43115965D01*
X237760599Y-43210022D01*
X237760963Y-43284124D01*
X237761768Y-43340896D01*
X237763179Y-43382960D01*
X237765359Y-43412940D01*
X237768471Y-43433459D01*
X237772678Y-43447141D01*
X237778144Y-43456608D01*
X237782020Y-43461274D01*
X237813458Y-43481767D01*
X237849259Y-43480931D01*
X237880619Y-43463456D01*
X237907270Y-43441876D01*
X237907270Y-42794419D01*
X237880619Y-42772839D01*
X237854898Y-42757141D01*
X237833892Y-42751259D01*
X237810878Y-42758069D01*
G37*
X237810878Y-42758069D02*
X237787165Y-42772839D01*
X237760514Y-42794419D01*
X237760514Y-43115965D01*
X237760599Y-43210022D01*
X237760963Y-43284124D01*
X237761768Y-43340896D01*
X237763179Y-43382960D01*
X237765359Y-43412940D01*
X237768471Y-43433459D01*
X237772678Y-43447141D01*
X237778144Y-43456608D01*
X237782020Y-43461274D01*
X237813458Y-43481767D01*
X237849259Y-43480931D01*
X237880619Y-43463456D01*
X237907270Y-43441876D01*
X237907270Y-42794419D01*
X237880619Y-42772839D01*
X237854898Y-42757141D01*
X237833892Y-42751259D01*
X237810878Y-42758069D01*
G36*
X237036427Y-42751355D02*
G01*
X236957720Y-42751734D01*
X236896629Y-42752525D01*
X236850675Y-42753862D01*
X236817378Y-42755875D01*
X236794256Y-42758698D01*
X236778830Y-42762461D01*
X236768621Y-42767297D01*
X236763679Y-42771014D01*
X236738035Y-42803550D01*
X236734933Y-42837330D01*
X236750781Y-42868018D01*
X236761144Y-42880281D01*
X236772296Y-42888642D01*
X236788457Y-42893849D01*
X236813850Y-42896649D01*
X236852694Y-42897788D01*
X236909212Y-42898013D01*
X236920312Y-42898014D01*
X237066248Y-42898014D01*
X237066248Y-43168948D01*
X237066344Y-43254346D01*
X237066781Y-43320056D01*
X237067780Y-43368966D01*
X237069564Y-43403965D01*
X237072355Y-43427941D01*
X237076375Y-43443785D01*
X237081847Y-43454383D01*
X237088826Y-43462459D01*
X237121758Y-43482304D01*
X237156138Y-43480740D01*
X237187316Y-43458098D01*
X237189606Y-43455292D01*
X237197063Y-43444684D01*
X237202745Y-43432273D01*
X237206891Y-43415042D01*
X237209742Y-43389976D01*
X237211538Y-43354059D01*
X237212520Y-43304275D01*
X237212928Y-43237609D01*
X237213003Y-43161781D01*
X237213003Y-42898014D01*
X237352365Y-42898014D01*
X237412170Y-42897610D01*
X237453574Y-42896032D01*
X237480744Y-42892739D01*
X237497846Y-42887184D01*
X237509049Y-42878823D01*
X237510409Y-42877370D01*
X237526767Y-42844131D01*
X237525320Y-42806554D01*
X237506514Y-42773837D01*
X237499242Y-42767490D01*
X237489865Y-42762458D01*
X237475883Y-42758588D01*
X237454796Y-42755729D01*
X237424103Y-42753727D01*
X237381303Y-42752431D01*
X237323897Y-42751690D01*
X237249382Y-42751350D01*
X237155259Y-42751260D01*
X237135232Y-42751259D01*
X237036427Y-42751355D01*
G37*
X237036427Y-42751355D02*
X236957720Y-42751734D01*
X236896629Y-42752525D01*
X236850675Y-42753862D01*
X236817378Y-42755875D01*
X236794256Y-42758698D01*
X236778830Y-42762461D01*
X236768621Y-42767297D01*
X236763679Y-42771014D01*
X236738035Y-42803550D01*
X236734933Y-42837330D01*
X236750781Y-42868018D01*
X236761144Y-42880281D01*
X236772296Y-42888642D01*
X236788457Y-42893849D01*
X236813850Y-42896649D01*
X236852694Y-42897788D01*
X236909212Y-42898013D01*
X236920312Y-42898014D01*
X237066248Y-42898014D01*
X237066248Y-43168948D01*
X237066344Y-43254346D01*
X237066781Y-43320056D01*
X237067780Y-43368966D01*
X237069564Y-43403965D01*
X237072355Y-43427941D01*
X237076375Y-43443785D01*
X237081847Y-43454383D01*
X237088826Y-43462459D01*
X237121758Y-43482304D01*
X237156138Y-43480740D01*
X237187316Y-43458098D01*
X237189606Y-43455292D01*
X237197063Y-43444684D01*
X237202745Y-43432273D01*
X237206891Y-43415042D01*
X237209742Y-43389976D01*
X237211538Y-43354059D01*
X237212520Y-43304275D01*
X237212928Y-43237609D01*
X237213003Y-43161781D01*
X237213003Y-42898014D01*
X237352365Y-42898014D01*
X237412170Y-42897610D01*
X237453574Y-42896032D01*
X237480744Y-42892739D01*
X237497846Y-42887184D01*
X237509049Y-42878823D01*
X237510409Y-42877370D01*
X237526767Y-42844131D01*
X237525320Y-42806554D01*
X237506514Y-42773837D01*
X237499242Y-42767490D01*
X237489865Y-42762458D01*
X237475883Y-42758588D01*
X237454796Y-42755729D01*
X237424103Y-42753727D01*
X237381303Y-42752431D01*
X237323897Y-42751690D01*
X237249382Y-42751350D01*
X237155259Y-42751260D01*
X237135232Y-42751259D01*
X237036427Y-42751355D01*
G36*
X235770669Y-42756725D02*
G01*
X235739290Y-42778968D01*
X235711581Y-42806677D01*
X235711581Y-43116112D01*
X235711654Y-43207991D01*
X235711997Y-43280032D01*
X235712800Y-43334972D01*
X235714251Y-43375552D01*
X235716540Y-43404509D01*
X235719856Y-43424583D01*
X235724387Y-43438513D01*
X235730323Y-43449037D01*
X235734978Y-43455292D01*
X235765709Y-43479865D01*
X235800996Y-43482533D01*
X235833247Y-43467463D01*
X235843904Y-43458566D01*
X235851028Y-43446749D01*
X235855325Y-43427718D01*
X235857501Y-43397184D01*
X235858264Y-43350854D01*
X235858337Y-43315063D01*
X235858337Y-43180237D01*
X236355048Y-43180237D01*
X236355048Y-43302892D01*
X236355561Y-43358979D01*
X236357616Y-43397525D01*
X236361984Y-43423553D01*
X236369436Y-43442089D01*
X236378445Y-43455292D01*
X236409348Y-43479796D01*
X236444296Y-43482698D01*
X236477754Y-43465281D01*
X236486888Y-43456151D01*
X236493340Y-43444047D01*
X236497595Y-43425193D01*
X236500140Y-43395812D01*
X236501463Y-43352129D01*
X236502049Y-43290367D01*
X236502117Y-43276192D01*
X236502601Y-43159823D01*
X236502851Y-43063919D01*
X236502769Y-42986369D01*
X236502261Y-42925061D01*
X236501230Y-42877882D01*
X236499579Y-42842722D01*
X236497213Y-42817468D01*
X236494035Y-42800009D01*
X236489948Y-42788233D01*
X236484858Y-42780027D01*
X236479226Y-42773837D01*
X236447364Y-42754036D01*
X236414135Y-42756725D01*
X236382757Y-42778968D01*
X236370059Y-42793318D01*
X236361966Y-42809170D01*
X236357450Y-42831746D01*
X236355486Y-42866270D01*
X236355048Y-42917968D01*
X236355048Y-43033481D01*
X235858337Y-43033481D01*
X235858337Y-42914948D01*
X235857830Y-42860340D01*
X235855794Y-42823467D01*
X235851457Y-42799499D01*
X235844045Y-42783607D01*
X235835759Y-42773837D01*
X235803898Y-42754036D01*
X235770669Y-42756725D01*
G37*
X235770669Y-42756725D02*
X235739290Y-42778968D01*
X235711581Y-42806677D01*
X235711581Y-43116112D01*
X235711654Y-43207991D01*
X235711997Y-43280032D01*
X235712800Y-43334972D01*
X235714251Y-43375552D01*
X235716540Y-43404509D01*
X235719856Y-43424583D01*
X235724387Y-43438513D01*
X235730323Y-43449037D01*
X235734978Y-43455292D01*
X235765709Y-43479865D01*
X235800996Y-43482533D01*
X235833247Y-43467463D01*
X235843904Y-43458566D01*
X235851028Y-43446749D01*
X235855325Y-43427718D01*
X235857501Y-43397184D01*
X235858264Y-43350854D01*
X235858337Y-43315063D01*
X235858337Y-43180237D01*
X236355048Y-43180237D01*
X236355048Y-43302892D01*
X236355561Y-43358979D01*
X236357616Y-43397525D01*
X236361984Y-43423553D01*
X236369436Y-43442089D01*
X236378445Y-43455292D01*
X236409348Y-43479796D01*
X236444296Y-43482698D01*
X236477754Y-43465281D01*
X236486888Y-43456151D01*
X236493340Y-43444047D01*
X236497595Y-43425193D01*
X236500140Y-43395812D01*
X236501463Y-43352129D01*
X236502049Y-43290367D01*
X236502117Y-43276192D01*
X236502601Y-43159823D01*
X236502851Y-43063919D01*
X236502769Y-42986369D01*
X236502261Y-42925061D01*
X236501230Y-42877882D01*
X236499579Y-42842722D01*
X236497213Y-42817468D01*
X236494035Y-42800009D01*
X236489948Y-42788233D01*
X236484858Y-42780027D01*
X236479226Y-42773837D01*
X236447364Y-42754036D01*
X236414135Y-42756725D01*
X236382757Y-42778968D01*
X236370059Y-42793318D01*
X236361966Y-42809170D01*
X236357450Y-42831746D01*
X236355486Y-42866270D01*
X236355048Y-42917968D01*
X236355048Y-43033481D01*
X235858337Y-43033481D01*
X235858337Y-42914948D01*
X235857830Y-42860340D01*
X235855794Y-42823467D01*
X235851457Y-42799499D01*
X235844045Y-42783607D01*
X235835759Y-42773837D01*
X235803898Y-42754036D01*
X235770669Y-42756725D01*
G36*
X244737279Y-36152490D02*
G01*
X244634173Y-36188238D01*
X244538178Y-36244507D01*
X244452447Y-36321288D01*
X244380130Y-36418573D01*
X244347645Y-36479892D01*
X244319532Y-36565660D01*
X244305905Y-36664677D01*
X244307414Y-36766471D01*
X244324169Y-36858714D01*
X244369963Y-36971432D01*
X244436368Y-37069207D01*
X244520009Y-37150115D01*
X244617512Y-37212232D01*
X244725500Y-37253634D01*
X244840599Y-37272397D01*
X244959434Y-37266598D01*
X245018011Y-37254206D01*
X245132172Y-37209797D01*
X245233565Y-37142033D01*
X245319745Y-37053001D01*
X245388266Y-36944791D01*
X245394064Y-36932973D01*
X245414104Y-36888628D01*
X245426687Y-36851280D01*
X245433519Y-36811880D01*
X245436305Y-36761381D01*
X245436768Y-36706433D01*
X245436003Y-36640415D01*
X245432552Y-36592689D01*
X245424677Y-36554103D01*
X245410643Y-36515506D01*
X245393320Y-36477426D01*
X245328705Y-36369328D01*
X245249134Y-36281803D01*
X245157760Y-36214841D01*
X245057736Y-36168436D01*
X244952212Y-36142581D01*
X244844342Y-36137268D01*
X244737279Y-36152490D01*
G37*
X244737279Y-36152490D02*
X244634173Y-36188238D01*
X244538178Y-36244507D01*
X244452447Y-36321288D01*
X244380130Y-36418573D01*
X244347645Y-36479892D01*
X244319532Y-36565660D01*
X244305905Y-36664677D01*
X244307414Y-36766471D01*
X244324169Y-36858714D01*
X244369963Y-36971432D01*
X244436368Y-37069207D01*
X244520009Y-37150115D01*
X244617512Y-37212232D01*
X244725500Y-37253634D01*
X244840599Y-37272397D01*
X244959434Y-37266598D01*
X245018011Y-37254206D01*
X245132172Y-37209797D01*
X245233565Y-37142033D01*
X245319745Y-37053001D01*
X245388266Y-36944791D01*
X245394064Y-36932973D01*
X245414104Y-36888628D01*
X245426687Y-36851280D01*
X245433519Y-36811880D01*
X245436305Y-36761381D01*
X245436768Y-36706433D01*
X245436003Y-36640415D01*
X245432552Y-36592689D01*
X245424677Y-36554103D01*
X245410643Y-36515506D01*
X245393320Y-36477426D01*
X245328705Y-36369328D01*
X245249134Y-36281803D01*
X245157760Y-36214841D01*
X245057736Y-36168436D01*
X244952212Y-36142581D01*
X244844342Y-36137268D01*
X244737279Y-36152490D01*
G36*
X235168930Y-37072825D02*
G01*
X235052159Y-37073304D01*
X235012471Y-37073545D01*
X234466714Y-37077135D01*
X234459849Y-39170919D01*
X234458942Y-39454842D01*
X234458138Y-39712640D01*
X234457385Y-39945646D01*
X234456631Y-40155194D01*
X234455825Y-40342618D01*
X234454915Y-40509250D01*
X234453849Y-40656425D01*
X234452576Y-40785477D01*
X234451044Y-40897739D01*
X234449202Y-40994544D01*
X234446997Y-41077226D01*
X234444378Y-41147119D01*
X234441294Y-41205557D01*
X234437692Y-41253872D01*
X234433522Y-41293400D01*
X234428731Y-41325473D01*
X234423269Y-41351424D01*
X234417082Y-41372589D01*
X234410120Y-41390299D01*
X234402331Y-41405889D01*
X234393663Y-41420693D01*
X234384065Y-41436044D01*
X234373485Y-41453276D01*
X234371316Y-41456946D01*
X234334932Y-41519031D01*
X234860769Y-41515434D01*
X235386606Y-41511838D01*
X235393471Y-41396331D01*
X235397208Y-41340899D01*
X235401103Y-41308851D01*
X235406389Y-41296135D01*
X235414297Y-41298696D01*
X235420930Y-41306024D01*
X235449826Y-41332714D01*
X235496921Y-41367021D01*
X235555580Y-41404846D01*
X235619169Y-41442090D01*
X235681051Y-41474653D01*
X235728566Y-41496077D01*
X235839884Y-41531283D01*
X235967604Y-41556222D01*
X236102299Y-41569941D01*
X236234537Y-41571486D01*
X236354892Y-41559906D01*
X236356874Y-41559574D01*
X236521559Y-41518250D01*
X236675721Y-41452412D01*
X236817872Y-41363474D01*
X236946525Y-41252852D01*
X237060193Y-41121961D01*
X237157390Y-40972216D01*
X237236628Y-40805033D01*
X237279770Y-40681190D01*
X237308221Y-40577581D01*
X237329320Y-40477252D01*
X237343712Y-40374109D01*
X237352042Y-40262057D01*
X237354955Y-40135001D01*
X237353665Y-40031252D01*
X236340550Y-40031252D01*
X236335756Y-40205222D01*
X236320632Y-40354895D01*
X236294715Y-40481597D01*
X236257537Y-40586658D01*
X236208635Y-40671406D01*
X236147542Y-40737169D01*
X236077023Y-40783659D01*
X236040329Y-40801014D01*
X236008504Y-40811419D01*
X235973023Y-40816179D01*
X235925359Y-40816601D01*
X235874011Y-40814748D01*
X235773031Y-40805841D01*
X235693165Y-40788398D01*
X235668065Y-40779661D01*
X235610752Y-40753857D01*
X235550303Y-40721453D01*
X235523903Y-40705233D01*
X235455254Y-40660205D01*
X235455254Y-39232982D01*
X235530768Y-39187718D01*
X235636079Y-39136572D01*
X235743675Y-39106324D01*
X235849619Y-39096795D01*
X235949976Y-39107807D01*
X236040813Y-39139181D01*
X236118193Y-39190740D01*
X236143161Y-39215488D01*
X236203344Y-39296577D01*
X236252055Y-39394734D01*
X236289701Y-39511643D01*
X236316688Y-39648985D01*
X236333425Y-39808444D01*
X236340317Y-39991700D01*
X236340550Y-40031252D01*
X237353665Y-40031252D01*
X237353127Y-39988067D01*
X237341553Y-39762053D01*
X237318280Y-39558192D01*
X237282696Y-39373513D01*
X237234187Y-39205048D01*
X237172140Y-39049826D01*
X237149999Y-39003808D01*
X237060815Y-38853739D01*
X236953041Y-38720377D01*
X236829210Y-38605877D01*
X236691858Y-38512389D01*
X236543517Y-38442068D01*
X236454596Y-38413060D01*
X236367267Y-38395840D01*
X236262189Y-38385594D01*
X236148171Y-38382318D01*
X236034023Y-38386009D01*
X235928552Y-38396660D01*
X235843866Y-38413370D01*
X235743072Y-38446140D01*
X235645378Y-38488279D01*
X235559904Y-38535519D01*
X235514411Y-38567581D01*
X235483031Y-38591422D01*
X235461058Y-38605939D01*
X235456059Y-38608000D01*
X235454510Y-38594718D01*
X235453065Y-38556663D01*
X235451757Y-38496519D01*
X235450617Y-38416973D01*
X235449679Y-38320711D01*
X235448974Y-38210419D01*
X235448533Y-38088781D01*
X235448389Y-37964885D01*
X235448470Y-37806196D01*
X235448865Y-37672408D01*
X235449805Y-37560960D01*
X235451520Y-37469295D01*
X235454243Y-37394853D01*
X235458203Y-37335075D01*
X235463631Y-37287402D01*
X235470759Y-37249274D01*
X235479816Y-37218134D01*
X235491033Y-37191421D01*
X235504642Y-37166577D01*
X235520872Y-37141043D01*
X235522960Y-37137881D01*
X235543894Y-37104810D01*
X235556533Y-37082069D01*
X235558227Y-37077272D01*
X235544984Y-37075759D01*
X235507198Y-37074528D01*
X235447784Y-37073599D01*
X235369658Y-37072992D01*
X235275735Y-37072727D01*
X235168930Y-37072825D01*
G37*
X235168930Y-37072825D02*
X235052159Y-37073304D01*
X235012471Y-37073545D01*
X234466714Y-37077135D01*
X234459849Y-39170919D01*
X234458942Y-39454842D01*
X234458138Y-39712640D01*
X234457385Y-39945646D01*
X234456631Y-40155194D01*
X234455825Y-40342618D01*
X234454915Y-40509250D01*
X234453849Y-40656425D01*
X234452576Y-40785477D01*
X234451044Y-40897739D01*
X234449202Y-40994544D01*
X234446997Y-41077226D01*
X234444378Y-41147119D01*
X234441294Y-41205557D01*
X234437692Y-41253872D01*
X234433522Y-41293400D01*
X234428731Y-41325473D01*
X234423269Y-41351424D01*
X234417082Y-41372589D01*
X234410120Y-41390299D01*
X234402331Y-41405889D01*
X234393663Y-41420693D01*
X234384065Y-41436044D01*
X234373485Y-41453276D01*
X234371316Y-41456946D01*
X234334932Y-41519031D01*
X234860769Y-41515434D01*
X235386606Y-41511838D01*
X235393471Y-41396331D01*
X235397208Y-41340899D01*
X235401103Y-41308851D01*
X235406389Y-41296135D01*
X235414297Y-41298696D01*
X235420930Y-41306024D01*
X235449826Y-41332714D01*
X235496921Y-41367021D01*
X235555580Y-41404846D01*
X235619169Y-41442090D01*
X235681051Y-41474653D01*
X235728566Y-41496077D01*
X235839884Y-41531283D01*
X235967604Y-41556222D01*
X236102299Y-41569941D01*
X236234537Y-41571486D01*
X236354892Y-41559906D01*
X236356874Y-41559574D01*
X236521559Y-41518250D01*
X236675721Y-41452412D01*
X236817872Y-41363474D01*
X236946525Y-41252852D01*
X237060193Y-41121961D01*
X237157390Y-40972216D01*
X237236628Y-40805033D01*
X237279770Y-40681190D01*
X237308221Y-40577581D01*
X237329320Y-40477252D01*
X237343712Y-40374109D01*
X237352042Y-40262057D01*
X237354955Y-40135001D01*
X237353665Y-40031252D01*
X236340550Y-40031252D01*
X236335756Y-40205222D01*
X236320632Y-40354895D01*
X236294715Y-40481597D01*
X236257537Y-40586658D01*
X236208635Y-40671406D01*
X236147542Y-40737169D01*
X236077023Y-40783659D01*
X236040329Y-40801014D01*
X236008504Y-40811419D01*
X235973023Y-40816179D01*
X235925359Y-40816601D01*
X235874011Y-40814748D01*
X235773031Y-40805841D01*
X235693165Y-40788398D01*
X235668065Y-40779661D01*
X235610752Y-40753857D01*
X235550303Y-40721453D01*
X235523903Y-40705233D01*
X235455254Y-40660205D01*
X235455254Y-39232982D01*
X235530768Y-39187718D01*
X235636079Y-39136572D01*
X235743675Y-39106324D01*
X235849619Y-39096795D01*
X235949976Y-39107807D01*
X236040813Y-39139181D01*
X236118193Y-39190740D01*
X236143161Y-39215488D01*
X236203344Y-39296577D01*
X236252055Y-39394734D01*
X236289701Y-39511643D01*
X236316688Y-39648985D01*
X236333425Y-39808444D01*
X236340317Y-39991700D01*
X236340550Y-40031252D01*
X237353665Y-40031252D01*
X237353127Y-39988067D01*
X237341553Y-39762053D01*
X237318280Y-39558192D01*
X237282696Y-39373513D01*
X237234187Y-39205048D01*
X237172140Y-39049826D01*
X237149999Y-39003808D01*
X237060815Y-38853739D01*
X236953041Y-38720377D01*
X236829210Y-38605877D01*
X236691858Y-38512389D01*
X236543517Y-38442068D01*
X236454596Y-38413060D01*
X236367267Y-38395840D01*
X236262189Y-38385594D01*
X236148171Y-38382318D01*
X236034023Y-38386009D01*
X235928552Y-38396660D01*
X235843866Y-38413370D01*
X235743072Y-38446140D01*
X235645378Y-38488279D01*
X235559904Y-38535519D01*
X235514411Y-38567581D01*
X235483031Y-38591422D01*
X235461058Y-38605939D01*
X235456059Y-38608000D01*
X235454510Y-38594718D01*
X235453065Y-38556663D01*
X235451757Y-38496519D01*
X235450617Y-38416973D01*
X235449679Y-38320711D01*
X235448974Y-38210419D01*
X235448533Y-38088781D01*
X235448389Y-37964885D01*
X235448470Y-37806196D01*
X235448865Y-37672408D01*
X235449805Y-37560960D01*
X235451520Y-37469295D01*
X235454243Y-37394853D01*
X235458203Y-37335075D01*
X235463631Y-37287402D01*
X235470759Y-37249274D01*
X235479816Y-37218134D01*
X235491033Y-37191421D01*
X235504642Y-37166577D01*
X235520872Y-37141043D01*
X235522960Y-37137881D01*
X235543894Y-37104810D01*
X235556533Y-37082069D01*
X235558227Y-37077272D01*
X235544984Y-37075759D01*
X235507198Y-37074528D01*
X235447784Y-37073599D01*
X235369658Y-37072992D01*
X235275735Y-37072727D01*
X235168930Y-37072825D01*
G36*
X238843695Y-38380229D02*
G01*
X238775669Y-38385378D01*
X238581037Y-38411273D01*
X238408671Y-38452575D01*
X238257730Y-38509853D01*
X238127375Y-38583674D01*
X238016766Y-38674608D01*
X237925065Y-38783222D01*
X237851430Y-38910085D01*
X237797661Y-39047352D01*
X237784013Y-39091137D01*
X237772127Y-39132141D01*
X237761866Y-39172569D01*
X237753087Y-39214630D01*
X237745652Y-39260531D01*
X237739420Y-39312480D01*
X237734250Y-39372685D01*
X237730004Y-39443352D01*
X237726540Y-39526689D01*
X237723719Y-39624905D01*
X237721400Y-39740205D01*
X237719443Y-39874799D01*
X237717709Y-40030893D01*
X237716057Y-40210695D01*
X237714876Y-40351676D01*
X237706930Y-41319622D01*
X237655444Y-41412770D01*
X237631063Y-41457645D01*
X237612920Y-41492501D01*
X237604265Y-41511054D01*
X237603957Y-41512311D01*
X237617186Y-41513749D01*
X237654874Y-41515074D01*
X237714017Y-41516249D01*
X237791614Y-41517237D01*
X237884664Y-41517999D01*
X237990165Y-41518500D01*
X238105116Y-41518701D01*
X238118822Y-41518703D01*
X238633687Y-41518703D01*
X238633687Y-41402000D01*
X238634565Y-41349260D01*
X238636908Y-41308926D01*
X238640279Y-41287300D01*
X238641769Y-41285298D01*
X238655396Y-41293683D01*
X238683443Y-41315692D01*
X238719897Y-41346601D01*
X238720715Y-41347316D01*
X238787238Y-41396843D01*
X238871252Y-41446575D01*
X238963263Y-41491626D01*
X239053779Y-41527110D01*
X239093633Y-41539236D01*
X239172945Y-41554637D01*
X239270265Y-41564465D01*
X239376684Y-41568580D01*
X239483293Y-41566841D01*
X239581183Y-41559108D01*
X239649687Y-41547981D01*
X239817680Y-41498648D01*
X239968919Y-41428342D01*
X240102418Y-41337933D01*
X240217194Y-41228295D01*
X240312263Y-41100299D01*
X240386640Y-40954818D01*
X240418726Y-40866541D01*
X240438835Y-40780739D01*
X240452162Y-40677736D01*
X240458328Y-40567034D01*
X240458126Y-40550925D01*
X239529552Y-40550925D01*
X239521852Y-40633184D01*
X239496211Y-40701546D01*
X239448822Y-40764970D01*
X239430621Y-40783567D01*
X239365918Y-40833846D01*
X239291134Y-40866056D01*
X239201538Y-40881648D01*
X239107188Y-40882796D01*
X239017699Y-40875216D01*
X238949182Y-40860389D01*
X238919425Y-40849253D01*
X238865792Y-40818904D01*
X238808965Y-40776221D01*
X238757118Y-40728317D01*
X238718422Y-40682301D01*
X238708146Y-40665421D01*
X238700158Y-40641782D01*
X238694479Y-40604168D01*
X238690844Y-40548985D01*
X238688989Y-40472640D01*
X238688606Y-40399981D01*
X238688865Y-40315270D01*
X238689913Y-40254018D01*
X238692155Y-40212227D01*
X238695994Y-40185899D01*
X238701835Y-40171035D01*
X238710082Y-40163639D01*
X238712633Y-40162461D01*
X238734800Y-40158833D01*
X238778520Y-40155866D01*
X238837889Y-40153827D01*
X238907004Y-40152983D01*
X238922011Y-40152982D01*
X239014395Y-40154457D01*
X239085768Y-40158842D01*
X239142481Y-40166738D01*
X239189328Y-40178270D01*
X239305531Y-40222215D01*
X239396657Y-40276243D01*
X239463495Y-40341219D01*
X239506835Y-40418005D01*
X239527466Y-40507467D01*
X239529552Y-40550925D01*
X240458126Y-40550925D01*
X240456956Y-40458133D01*
X240447668Y-40360536D01*
X240440423Y-40321105D01*
X240394161Y-40174701D01*
X240323816Y-40039995D01*
X240230716Y-39918280D01*
X240116188Y-39810847D01*
X239981560Y-39718988D01*
X239828160Y-39643996D01*
X239697741Y-39598458D01*
X239610577Y-39574533D01*
X239527204Y-39555943D01*
X239442224Y-39542084D01*
X239350235Y-39532351D01*
X239245838Y-39526141D01*
X239123632Y-39522851D01*
X239013145Y-39521924D01*
X238685523Y-39521027D01*
X238691799Y-39422547D01*
X238709621Y-39315695D01*
X238747533Y-39223852D01*
X238803920Y-39149310D01*
X238877169Y-39094364D01*
X238941665Y-39067552D01*
X239034077Y-39050654D01*
X239144089Y-39048227D01*
X239266544Y-39059378D01*
X239396286Y-39083210D01*
X239528158Y-39118830D01*
X239657002Y-39165343D01*
X239750634Y-39207883D01*
X239795683Y-39229728D01*
X239830044Y-39244984D01*
X239847519Y-39250937D01*
X239848467Y-39250746D01*
X239854497Y-39237412D01*
X239869555Y-39202068D01*
X239892223Y-39148101D01*
X239921085Y-39078896D01*
X239954723Y-38997840D01*
X239988916Y-38915118D01*
X240125614Y-38583803D01*
X240028380Y-38567833D01*
X239986236Y-38559820D01*
X239922881Y-38546361D01*
X239843743Y-38528679D01*
X239754249Y-38507996D01*
X239659827Y-38485532D01*
X239622227Y-38476403D01*
X239459563Y-38438674D01*
X239317150Y-38410388D01*
X239189673Y-38390972D01*
X239071816Y-38379854D01*
X238958262Y-38376464D01*
X238843695Y-38380229D01*
G37*
X238843695Y-38380229D02*
X238775669Y-38385378D01*
X238581037Y-38411273D01*
X238408671Y-38452575D01*
X238257730Y-38509853D01*
X238127375Y-38583674D01*
X238016766Y-38674608D01*
X237925065Y-38783222D01*
X237851430Y-38910085D01*
X237797661Y-39047352D01*
X237784013Y-39091137D01*
X237772127Y-39132141D01*
X237761866Y-39172569D01*
X237753087Y-39214630D01*
X237745652Y-39260531D01*
X237739420Y-39312480D01*
X237734250Y-39372685D01*
X237730004Y-39443352D01*
X237726540Y-39526689D01*
X237723719Y-39624905D01*
X237721400Y-39740205D01*
X237719443Y-39874799D01*
X237717709Y-40030893D01*
X237716057Y-40210695D01*
X237714876Y-40351676D01*
X237706930Y-41319622D01*
X237655444Y-41412770D01*
X237631063Y-41457645D01*
X237612920Y-41492501D01*
X237604265Y-41511054D01*
X237603957Y-41512311D01*
X237617186Y-41513749D01*
X237654874Y-41515074D01*
X237714017Y-41516249D01*
X237791614Y-41517237D01*
X237884664Y-41517999D01*
X237990165Y-41518500D01*
X238105116Y-41518701D01*
X238118822Y-41518703D01*
X238633687Y-41518703D01*
X238633687Y-41402000D01*
X238634565Y-41349260D01*
X238636908Y-41308926D01*
X238640279Y-41287300D01*
X238641769Y-41285298D01*
X238655396Y-41293683D01*
X238683443Y-41315692D01*
X238719897Y-41346601D01*
X238720715Y-41347316D01*
X238787238Y-41396843D01*
X238871252Y-41446575D01*
X238963263Y-41491626D01*
X239053779Y-41527110D01*
X239093633Y-41539236D01*
X239172945Y-41554637D01*
X239270265Y-41564465D01*
X239376684Y-41568580D01*
X239483293Y-41566841D01*
X239581183Y-41559108D01*
X239649687Y-41547981D01*
X239817680Y-41498648D01*
X239968919Y-41428342D01*
X240102418Y-41337933D01*
X240217194Y-41228295D01*
X240312263Y-41100299D01*
X240386640Y-40954818D01*
X240418726Y-40866541D01*
X240438835Y-40780739D01*
X240452162Y-40677736D01*
X240458328Y-40567034D01*
X240458126Y-40550925D01*
X239529552Y-40550925D01*
X239521852Y-40633184D01*
X239496211Y-40701546D01*
X239448822Y-40764970D01*
X239430621Y-40783567D01*
X239365918Y-40833846D01*
X239291134Y-40866056D01*
X239201538Y-40881648D01*
X239107188Y-40882796D01*
X239017699Y-40875216D01*
X238949182Y-40860389D01*
X238919425Y-40849253D01*
X238865792Y-40818904D01*
X238808965Y-40776221D01*
X238757118Y-40728317D01*
X238718422Y-40682301D01*
X238708146Y-40665421D01*
X238700158Y-40641782D01*
X238694479Y-40604168D01*
X238690844Y-40548985D01*
X238688989Y-40472640D01*
X238688606Y-40399981D01*
X238688865Y-40315270D01*
X238689913Y-40254018D01*
X238692155Y-40212227D01*
X238695994Y-40185899D01*
X238701835Y-40171035D01*
X238710082Y-40163639D01*
X238712633Y-40162461D01*
X238734800Y-40158833D01*
X238778520Y-40155866D01*
X238837889Y-40153827D01*
X238907004Y-40152983D01*
X238922011Y-40152982D01*
X239014395Y-40154457D01*
X239085768Y-40158842D01*
X239142481Y-40166738D01*
X239189328Y-40178270D01*
X239305531Y-40222215D01*
X239396657Y-40276243D01*
X239463495Y-40341219D01*
X239506835Y-40418005D01*
X239527466Y-40507467D01*
X239529552Y-40550925D01*
X240458126Y-40550925D01*
X240456956Y-40458133D01*
X240447668Y-40360536D01*
X240440423Y-40321105D01*
X240394161Y-40174701D01*
X240323816Y-40039995D01*
X240230716Y-39918280D01*
X240116188Y-39810847D01*
X239981560Y-39718988D01*
X239828160Y-39643996D01*
X239697741Y-39598458D01*
X239610577Y-39574533D01*
X239527204Y-39555943D01*
X239442224Y-39542084D01*
X239350235Y-39532351D01*
X239245838Y-39526141D01*
X239123632Y-39522851D01*
X239013145Y-39521924D01*
X238685523Y-39521027D01*
X238691799Y-39422547D01*
X238709621Y-39315695D01*
X238747533Y-39223852D01*
X238803920Y-39149310D01*
X238877169Y-39094364D01*
X238941665Y-39067552D01*
X239034077Y-39050654D01*
X239144089Y-39048227D01*
X239266544Y-39059378D01*
X239396286Y-39083210D01*
X239528158Y-39118830D01*
X239657002Y-39165343D01*
X239750634Y-39207883D01*
X239795683Y-39229728D01*
X239830044Y-39244984D01*
X239847519Y-39250937D01*
X239848467Y-39250746D01*
X239854497Y-39237412D01*
X239869555Y-39202068D01*
X239892223Y-39148101D01*
X239921085Y-39078896D01*
X239954723Y-38997840D01*
X239988916Y-38915118D01*
X240125614Y-38583803D01*
X240028380Y-38567833D01*
X239986236Y-38559820D01*
X239922881Y-38546361D01*
X239843743Y-38528679D01*
X239754249Y-38507996D01*
X239659827Y-38485532D01*
X239622227Y-38476403D01*
X239459563Y-38438674D01*
X239317150Y-38410388D01*
X239189673Y-38390972D01*
X239071816Y-38379854D01*
X238958262Y-38376464D01*
X238843695Y-38380229D01*
G36*
X241571238Y-37276499D02*
G01*
X241423186Y-37292707D01*
X241279748Y-37321718D01*
X241135090Y-37365045D01*
X240983376Y-37424201D01*
X240818772Y-37500700D01*
X240789129Y-37515517D01*
X240721102Y-37549031D01*
X240656944Y-37579208D01*
X240602985Y-37603166D01*
X240565560Y-37618024D01*
X240559811Y-37619895D01*
X240504714Y-37636402D01*
X240751349Y-37995201D01*
X240811648Y-38082893D01*
X240866778Y-38163012D01*
X240914864Y-38232836D01*
X240954032Y-38289647D01*
X240982406Y-38330723D01*
X240998113Y-38353346D01*
X241000664Y-38356928D01*
X241011029Y-38349438D01*
X241036540Y-38326918D01*
X241072637Y-38293461D01*
X241092558Y-38274550D01*
X241205427Y-38184778D01*
X241332186Y-38116561D01*
X241441417Y-38079195D01*
X241506986Y-38067460D01*
X241589084Y-38060308D01*
X241678056Y-38057874D01*
X241764244Y-38060288D01*
X241837995Y-38067683D01*
X241867424Y-38073347D01*
X242000067Y-38118982D01*
X242119594Y-38188663D01*
X242225917Y-38282260D01*
X242318947Y-38399649D01*
X242398595Y-38540700D01*
X242464774Y-38705286D01*
X242517394Y-38893280D01*
X242548667Y-39054217D01*
X242556826Y-39125263D01*
X242562385Y-39217046D01*
X242565398Y-39322968D01*
X242565919Y-39436434D01*
X242564000Y-39550849D01*
X242559697Y-39659617D01*
X242553063Y-39756143D01*
X242544151Y-39833831D01*
X242542221Y-39845817D01*
X242499701Y-40038892D01*
X242441767Y-40209773D01*
X242368067Y-40359224D01*
X242278249Y-40488011D01*
X242214493Y-40557639D01*
X242099914Y-40652173D01*
X241974258Y-40722246D01*
X241839643Y-40767477D01*
X241698189Y-40787484D01*
X241552017Y-40781885D01*
X241403245Y-40750300D01*
X241315289Y-40719394D01*
X241193571Y-40657506D01*
X241068120Y-40568729D01*
X240997847Y-40508694D01*
X240958389Y-40473947D01*
X240927388Y-40448454D01*
X240909742Y-40436170D01*
X240907552Y-40435795D01*
X240899676Y-40448347D01*
X240879268Y-40481516D01*
X240848068Y-40532458D01*
X240807814Y-40598331D01*
X240760243Y-40676289D01*
X240707096Y-40763490D01*
X240677513Y-40812067D01*
X240451552Y-41183215D01*
X240733673Y-41322639D01*
X240835678Y-41372719D01*
X240918311Y-41412210D01*
X240986622Y-41443073D01*
X241045663Y-41467268D01*
X241100486Y-41486758D01*
X241156140Y-41503503D01*
X241217677Y-41519465D01*
X241276660Y-41533482D01*
X241329085Y-41544329D01*
X241383912Y-41552526D01*
X241446628Y-41558528D01*
X241522723Y-41562790D01*
X241617684Y-41565767D01*
X241681687Y-41567052D01*
X241773008Y-41567930D01*
X241860573Y-41567487D01*
X241938588Y-41565852D01*
X242001258Y-41563149D01*
X242042787Y-41559505D01*
X242045248Y-41559142D01*
X242260897Y-41512487D01*
X242463407Y-41441729D01*
X242652705Y-41346914D01*
X242828721Y-41228089D01*
X242991384Y-41085300D01*
X243140622Y-40918594D01*
X243248704Y-40770433D01*
X243363766Y-40576502D01*
X243456777Y-40371699D01*
X243528187Y-40154383D01*
X243578444Y-39922912D01*
X243607999Y-39675643D01*
X243617311Y-39424559D01*
X243609652Y-39181670D01*
X243585587Y-38957570D01*
X243544348Y-38748477D01*
X243485173Y-38550613D01*
X243407296Y-38360196D01*
X243397997Y-38340468D01*
X243295552Y-38156059D01*
X243169728Y-37980576D01*
X243024088Y-37817650D01*
X242862199Y-37670914D01*
X242687624Y-37544001D01*
X242524956Y-37450905D01*
X242360627Y-37377991D01*
X242195949Y-37325174D01*
X242024548Y-37291015D01*
X241840047Y-37274078D01*
X241729741Y-37271580D01*
X241571238Y-37276499D01*
G37*
X241571238Y-37276499D02*
X241423186Y-37292707D01*
X241279748Y-37321718D01*
X241135090Y-37365045D01*
X240983376Y-37424201D01*
X240818772Y-37500700D01*
X240789129Y-37515517D01*
X240721102Y-37549031D01*
X240656944Y-37579208D01*
X240602985Y-37603166D01*
X240565560Y-37618024D01*
X240559811Y-37619895D01*
X240504714Y-37636402D01*
X240751349Y-37995201D01*
X240811648Y-38082893D01*
X240866778Y-38163012D01*
X240914864Y-38232836D01*
X240954032Y-38289647D01*
X240982406Y-38330723D01*
X240998113Y-38353346D01*
X241000664Y-38356928D01*
X241011029Y-38349438D01*
X241036540Y-38326918D01*
X241072637Y-38293461D01*
X241092558Y-38274550D01*
X241205427Y-38184778D01*
X241332186Y-38116561D01*
X241441417Y-38079195D01*
X241506986Y-38067460D01*
X241589084Y-38060308D01*
X241678056Y-38057874D01*
X241764244Y-38060288D01*
X241837995Y-38067683D01*
X241867424Y-38073347D01*
X242000067Y-38118982D01*
X242119594Y-38188663D01*
X242225917Y-38282260D01*
X242318947Y-38399649D01*
X242398595Y-38540700D01*
X242464774Y-38705286D01*
X242517394Y-38893280D01*
X242548667Y-39054217D01*
X242556826Y-39125263D01*
X242562385Y-39217046D01*
X242565398Y-39322968D01*
X242565919Y-39436434D01*
X242564000Y-39550849D01*
X242559697Y-39659617D01*
X242553063Y-39756143D01*
X242544151Y-39833831D01*
X242542221Y-39845817D01*
X242499701Y-40038892D01*
X242441767Y-40209773D01*
X242368067Y-40359224D01*
X242278249Y-40488011D01*
X242214493Y-40557639D01*
X242099914Y-40652173D01*
X241974258Y-40722246D01*
X241839643Y-40767477D01*
X241698189Y-40787484D01*
X241552017Y-40781885D01*
X241403245Y-40750300D01*
X241315289Y-40719394D01*
X241193571Y-40657506D01*
X241068120Y-40568729D01*
X240997847Y-40508694D01*
X240958389Y-40473947D01*
X240927388Y-40448454D01*
X240909742Y-40436170D01*
X240907552Y-40435795D01*
X240899676Y-40448347D01*
X240879268Y-40481516D01*
X240848068Y-40532458D01*
X240807814Y-40598331D01*
X240760243Y-40676289D01*
X240707096Y-40763490D01*
X240677513Y-40812067D01*
X240451552Y-41183215D01*
X240733673Y-41322639D01*
X240835678Y-41372719D01*
X240918311Y-41412210D01*
X240986622Y-41443073D01*
X241045663Y-41467268D01*
X241100486Y-41486758D01*
X241156140Y-41503503D01*
X241217677Y-41519465D01*
X241276660Y-41533482D01*
X241329085Y-41544329D01*
X241383912Y-41552526D01*
X241446628Y-41558528D01*
X241522723Y-41562790D01*
X241617684Y-41565767D01*
X241681687Y-41567052D01*
X241773008Y-41567930D01*
X241860573Y-41567487D01*
X241938588Y-41565852D01*
X242001258Y-41563149D01*
X242042787Y-41559505D01*
X242045248Y-41559142D01*
X242260897Y-41512487D01*
X242463407Y-41441729D01*
X242652705Y-41346914D01*
X242828721Y-41228089D01*
X242991384Y-41085300D01*
X243140622Y-40918594D01*
X243248704Y-40770433D01*
X243363766Y-40576502D01*
X243456777Y-40371699D01*
X243528187Y-40154383D01*
X243578444Y-39922912D01*
X243607999Y-39675643D01*
X243617311Y-39424559D01*
X243609652Y-39181670D01*
X243585587Y-38957570D01*
X243544348Y-38748477D01*
X243485173Y-38550613D01*
X243407296Y-38360196D01*
X243397997Y-38340468D01*
X243295552Y-38156059D01*
X243169728Y-37980576D01*
X243024088Y-37817650D01*
X242862199Y-37670914D01*
X242687624Y-37544001D01*
X242524956Y-37450905D01*
X242360627Y-37377991D01*
X242195949Y-37325174D01*
X242024548Y-37291015D01*
X241840047Y-37274078D01*
X241729741Y-37271580D01*
X241571238Y-37276499D01*
G36*
X247966943Y-36589689D02*
G01*
X247702420Y-36589725D01*
X247579288Y-36589730D01*
X245608389Y-36589730D01*
X245608389Y-36705910D01*
X245595989Y-36847291D01*
X245558564Y-36977684D01*
X245495777Y-37097862D01*
X245407294Y-37208602D01*
X245377357Y-37238511D01*
X245269666Y-37323348D01*
X245150925Y-37385221D01*
X245024660Y-37424159D01*
X244894397Y-37440190D01*
X244763665Y-37433342D01*
X244635988Y-37403643D01*
X244514895Y-37351120D01*
X244403912Y-37275803D01*
X244354068Y-37230363D01*
X244261183Y-37118952D01*
X244193073Y-36996435D01*
X244150329Y-36864215D01*
X244133547Y-36723692D01*
X244133324Y-36709867D01*
X244132444Y-36589734D01*
X244079643Y-36589732D01*
X244032804Y-36596089D01*
X243990017Y-36611556D01*
X243987189Y-36613154D01*
X243977525Y-36618168D01*
X243968651Y-36622073D01*
X243960535Y-36626007D01*
X243953143Y-36631106D01*
X243946445Y-36638508D01*
X243940408Y-36649351D01*
X243935001Y-36664772D01*
X243930190Y-36685909D01*
X243925945Y-36713899D01*
X243922232Y-36749879D01*
X243919021Y-36794987D01*
X243916278Y-36850360D01*
X243913972Y-36917137D01*
X243912071Y-36996453D01*
X243910542Y-37089447D01*
X243909354Y-37197257D01*
X243908474Y-37321019D01*
X243907870Y-37461871D01*
X243907511Y-37620950D01*
X243907365Y-37799395D01*
X243907398Y-37998342D01*
X243907580Y-38218929D01*
X243907877Y-38462293D01*
X243908259Y-38729572D01*
X243908692Y-39021903D01*
X243909145Y-39340424D01*
X243909198Y-39379230D01*
X243909604Y-39699782D01*
X243909949Y-39994012D01*
X243910269Y-40263056D01*
X243910600Y-40508052D01*
X243910979Y-40730137D01*
X243911443Y-40930447D01*
X243912028Y-41110119D01*
X243912770Y-41270290D01*
X243913706Y-41412098D01*
X243914873Y-41536679D01*
X243916307Y-41645170D01*
X243918044Y-41738707D01*
X243920122Y-41818429D01*
X243922576Y-41885472D01*
X243925444Y-41940973D01*
X243928761Y-41986068D01*
X243932564Y-42021895D01*
X243936890Y-42049591D01*
X243941775Y-42070293D01*
X243947255Y-42085137D01*
X243953368Y-42095260D01*
X243960150Y-42101800D01*
X243967637Y-42105893D01*
X243975866Y-42108676D01*
X243984873Y-42111287D01*
X243994695Y-42114862D01*
X243997094Y-42115950D01*
X244004635Y-42118396D01*
X244017256Y-42120642D01*
X244036059Y-42122698D01*
X244062147Y-42124572D01*
X244096622Y-42126271D01*
X244140585Y-42127803D01*
X244195139Y-42129177D01*
X244261385Y-42130400D01*
X244340426Y-42131481D01*
X244433363Y-42132427D01*
X244541299Y-42133247D01*
X244665336Y-42133947D01*
X244806576Y-42134538D01*
X244966121Y-42135025D01*
X245145072Y-42135419D01*
X245344532Y-42135725D01*
X245565604Y-42135953D01*
X245809388Y-42136110D01*
X246076987Y-42136205D01*
X246369503Y-42136245D01*
X246688039Y-42136238D01*
X246791221Y-42136228D01*
X247116823Y-42136176D01*
X247416081Y-42136091D01*
X247690109Y-42135963D01*
X247940024Y-42135785D01*
X248166940Y-42135548D01*
X248371973Y-42135242D01*
X248556238Y-42134860D01*
X248720850Y-42134392D01*
X248866925Y-42133830D01*
X248995576Y-42133165D01*
X249107921Y-42132388D01*
X249205074Y-42131491D01*
X249288150Y-42130465D01*
X249358264Y-42129301D01*
X249416532Y-42127991D01*
X249464069Y-42126525D01*
X249501990Y-42124896D01*
X249531410Y-42123093D01*
X249553445Y-42121110D01*
X249569210Y-42118936D01*
X249579820Y-42116563D01*
X249585604Y-42114391D01*
X249595884Y-42110056D01*
X249605322Y-42106859D01*
X249613955Y-42103665D01*
X249621819Y-42099338D01*
X249628948Y-42092744D01*
X249635379Y-42082747D01*
X249641147Y-42068212D01*
X249646289Y-42048003D01*
X249650840Y-42020985D01*
X249654835Y-41986023D01*
X249658311Y-41941981D01*
X249661302Y-41887724D01*
X249663846Y-41822117D01*
X249665977Y-41744024D01*
X249667732Y-41652310D01*
X249669145Y-41545840D01*
X249669515Y-41504973D01*
X249303084Y-41504973D01*
X248007934Y-41504973D01*
X248032855Y-41467217D01*
X248057647Y-41428417D01*
X248078640Y-41391469D01*
X248096135Y-41353788D01*
X248110430Y-41312788D01*
X248121823Y-41265883D01*
X248130613Y-41210487D01*
X248137098Y-41144016D01*
X248141577Y-41063883D01*
X248144350Y-40967502D01*
X248145713Y-40852289D01*
X248145967Y-40715657D01*
X248145409Y-40555020D01*
X248145093Y-40495382D01*
X248141525Y-39856041D01*
X247736498Y-40407449D01*
X247621754Y-40563876D01*
X247522343Y-40700088D01*
X247437190Y-40817890D01*
X247365222Y-40919084D01*
X247305366Y-41005477D01*
X247256548Y-41078874D01*
X247217695Y-41141077D01*
X247187734Y-41193893D01*
X247165591Y-41239125D01*
X247150193Y-41278578D01*
X247140466Y-41314058D01*
X247135337Y-41347368D01*
X247133732Y-41380313D01*
X247134579Y-41414697D01*
X247134795Y-41419019D01*
X247139254Y-41505031D01*
X245719892Y-41504973D01*
X245825465Y-41398522D01*
X245854113Y-41369406D01*
X245881290Y-41341076D01*
X245908189Y-41311968D01*
X245936003Y-41280520D01*
X245965925Y-41245169D01*
X245999146Y-41204354D01*
X246036861Y-41156511D01*
X246080260Y-41100079D01*
X246130538Y-41033494D01*
X246188888Y-40955195D01*
X246256500Y-40863619D01*
X246334569Y-40757204D01*
X246424288Y-40634387D01*
X246526848Y-40493605D01*
X246643442Y-40333297D01*
X246739009Y-40201798D01*
X246858949Y-40036596D01*
X246963580Y-39892152D01*
X247053848Y-39767094D01*
X247130703Y-39660052D01*
X247195091Y-39569654D01*
X247247961Y-39494529D01*
X247290260Y-39433304D01*
X247322936Y-39384610D01*
X247346938Y-39347074D01*
X247363213Y-39319325D01*
X247372708Y-39299992D01*
X247376373Y-39287703D01*
X247375271Y-39281242D01*
X247361924Y-39264048D01*
X247333066Y-39227655D01*
X247290440Y-39174224D01*
X247235785Y-39105919D01*
X247170844Y-39024903D01*
X247097358Y-38933340D01*
X247017068Y-38833392D01*
X246931715Y-38727224D01*
X246843040Y-38616997D01*
X246752786Y-38504876D01*
X246703144Y-38443244D01*
X245470573Y-38443244D01*
X245419346Y-38535919D01*
X245368119Y-38628595D01*
X245368119Y-41319622D01*
X245419346Y-41412298D01*
X245470573Y-41504973D01*
X244864596Y-41504973D01*
X244719934Y-41504931D01*
X244600444Y-41504741D01*
X244503842Y-41504308D01*
X244427842Y-41503536D01*
X244370157Y-41502330D01*
X244328501Y-41500594D01*
X244300589Y-41498232D01*
X244284135Y-41495150D01*
X244276852Y-41491251D01*
X244276455Y-41486440D01*
X244280658Y-41480622D01*
X244280701Y-41480574D01*
X244298013Y-41455532D01*
X244320936Y-41414815D01*
X244341181Y-41374168D01*
X244379579Y-41292162D01*
X244387411Y-38443244D01*
X245470573Y-38443244D01*
X246703144Y-38443244D01*
X246662693Y-38393024D01*
X246574502Y-38283604D01*
X246489954Y-38178778D01*
X246410792Y-38080711D01*
X246338756Y-37991566D01*
X246275587Y-37913505D01*
X246223027Y-37848692D01*
X246182817Y-37799290D01*
X246159200Y-37770487D01*
X246067490Y-37662778D01*
X245979260Y-37565580D01*
X245897603Y-37482076D01*
X245825610Y-37415448D01*
X245774519Y-37374599D01*
X245714107Y-37331135D01*
X247103498Y-37331135D01*
X247103108Y-37412666D01*
X247106991Y-37472606D01*
X247121590Y-37528177D01*
X247144188Y-37580855D01*
X247158878Y-37610615D01*
X247174672Y-37640103D01*
X247193014Y-37671276D01*
X247215345Y-37706093D01*
X247243109Y-37746510D01*
X247277749Y-37794486D01*
X247320707Y-37851978D01*
X247373427Y-37920943D01*
X247437351Y-38003339D01*
X247513921Y-38101124D01*
X247604581Y-38216255D01*
X247710774Y-38350690D01*
X247722768Y-38365859D01*
X248141525Y-38895412D01*
X248145578Y-38308922D01*
X248146395Y-38133251D01*
X248146221Y-37984532D01*
X248145049Y-37862275D01*
X248142869Y-37765989D01*
X248139674Y-37695183D01*
X248135456Y-37649369D01*
X248134038Y-37640679D01*
X248111791Y-37549135D01*
X248082643Y-37466608D01*
X248049382Y-37400253D01*
X248029400Y-37372110D01*
X247994922Y-37331135D01*
X248649114Y-37331135D01*
X248805169Y-37331269D01*
X248935667Y-37331703D01*
X249042510Y-37332489D01*
X249127598Y-37333676D01*
X249192835Y-37335317D01*
X249240121Y-37337461D01*
X249271357Y-37340159D01*
X249288446Y-37343462D01*
X249293288Y-37347421D01*
X249292953Y-37348298D01*
X249279085Y-37369231D01*
X249255932Y-37402412D01*
X249243954Y-37419193D01*
X249231569Y-37435940D01*
X249220437Y-37450915D01*
X249210488Y-37465594D01*
X249201651Y-37481449D01*
X249193857Y-37499955D01*
X249187035Y-37522585D01*
X249181116Y-37550813D01*
X249176029Y-37586113D01*
X249171704Y-37629958D01*
X249168071Y-37683822D01*
X249165060Y-37749180D01*
X249162601Y-37827504D01*
X249160623Y-37920268D01*
X249159058Y-38028947D01*
X249157834Y-38155013D01*
X249156881Y-38299942D01*
X249156130Y-38465206D01*
X249155511Y-38652279D01*
X249154952Y-38862635D01*
X249154385Y-39097748D01*
X249153855Y-39313741D01*
X249153355Y-39554535D01*
X249153095Y-39784274D01*
X249153068Y-40001493D01*
X249153267Y-40204722D01*
X249153686Y-40392496D01*
X249154318Y-40563345D01*
X249155156Y-40715803D01*
X249156192Y-40848403D01*
X249157420Y-40959676D01*
X249158833Y-41048156D01*
X249160425Y-41112375D01*
X249162187Y-41150865D01*
X249162521Y-41154933D01*
X249174666Y-41248248D01*
X249193627Y-41323190D01*
X249222502Y-41388594D01*
X249264390Y-41453293D01*
X249269629Y-41460352D01*
X249303084Y-41504973D01*
X249669515Y-41504973D01*
X249670254Y-41423479D01*
X249671093Y-41284090D01*
X249671698Y-41126539D01*
X249672105Y-40949691D01*
X249672350Y-40752410D01*
X249672467Y-40533560D01*
X249672495Y-40292007D01*
X249672467Y-40026615D01*
X249672420Y-39736249D01*
X249672390Y-39419773D01*
X249672389Y-39356946D01*
X249672372Y-39037137D01*
X249672312Y-38743661D01*
X249672202Y-38475390D01*
X249672033Y-38231198D01*
X249671797Y-38009957D01*
X249671484Y-37810540D01*
X249671085Y-37631820D01*
X249670593Y-37472671D01*
X249669997Y-37331966D01*
X249669290Y-37208576D01*
X249668463Y-37101376D01*
X249667507Y-37009238D01*
X249666413Y-36931035D01*
X249665173Y-36865641D01*
X249663778Y-36811928D01*
X249662218Y-36768769D01*
X249660486Y-36735037D01*
X249658572Y-36709605D01*
X249656468Y-36691347D01*
X249654166Y-36679134D01*
X249651655Y-36671841D01*
X249651563Y-36671659D01*
X249646392Y-36660518D01*
X249642085Y-36650431D01*
X249637321Y-36641346D01*
X249630778Y-36633212D01*
X249621135Y-36625976D01*
X249607071Y-36619586D01*
X249587263Y-36613989D01*
X249560391Y-36609133D01*
X249525133Y-36604966D01*
X249480168Y-36601436D01*
X249424174Y-36598491D01*
X249355829Y-36596077D01*
X249273814Y-36594144D01*
X249176805Y-36592638D01*
X249063482Y-36591508D01*
X248932523Y-36590702D01*
X248782607Y-36590166D01*
X248612413Y-36589849D01*
X248420618Y-36589699D01*
X248205902Y-36589663D01*
X247966943Y-36589689D01*
G37*
X247966943Y-36589689D02*
X247702420Y-36589725D01*
X247579288Y-36589730D01*
X245608389Y-36589730D01*
X245608389Y-36705910D01*
X245595989Y-36847291D01*
X245558564Y-36977684D01*
X245495777Y-37097862D01*
X245407294Y-37208602D01*
X245377357Y-37238511D01*
X245269666Y-37323348D01*
X245150925Y-37385221D01*
X245024660Y-37424159D01*
X244894397Y-37440190D01*
X244763665Y-37433342D01*
X244635988Y-37403643D01*
X244514895Y-37351120D01*
X244403912Y-37275803D01*
X244354068Y-37230363D01*
X244261183Y-37118952D01*
X244193073Y-36996435D01*
X244150329Y-36864215D01*
X244133547Y-36723692D01*
X244133324Y-36709867D01*
X244132444Y-36589734D01*
X244079643Y-36589732D01*
X244032804Y-36596089D01*
X243990017Y-36611556D01*
X243987189Y-36613154D01*
X243977525Y-36618168D01*
X243968651Y-36622073D01*
X243960535Y-36626007D01*
X243953143Y-36631106D01*
X243946445Y-36638508D01*
X243940408Y-36649351D01*
X243935001Y-36664772D01*
X243930190Y-36685909D01*
X243925945Y-36713899D01*
X243922232Y-36749879D01*
X243919021Y-36794987D01*
X243916278Y-36850360D01*
X243913972Y-36917137D01*
X243912071Y-36996453D01*
X243910542Y-37089447D01*
X243909354Y-37197257D01*
X243908474Y-37321019D01*
X243907870Y-37461871D01*
X243907511Y-37620950D01*
X243907365Y-37799395D01*
X243907398Y-37998342D01*
X243907580Y-38218929D01*
X243907877Y-38462293D01*
X243908259Y-38729572D01*
X243908692Y-39021903D01*
X243909145Y-39340424D01*
X243909198Y-39379230D01*
X243909604Y-39699782D01*
X243909949Y-39994012D01*
X243910269Y-40263056D01*
X243910600Y-40508052D01*
X243910979Y-40730137D01*
X243911443Y-40930447D01*
X243912028Y-41110119D01*
X243912770Y-41270290D01*
X243913706Y-41412098D01*
X243914873Y-41536679D01*
X243916307Y-41645170D01*
X243918044Y-41738707D01*
X243920122Y-41818429D01*
X243922576Y-41885472D01*
X243925444Y-41940973D01*
X243928761Y-41986068D01*
X243932564Y-42021895D01*
X243936890Y-42049591D01*
X243941775Y-42070293D01*
X243947255Y-42085137D01*
X243953368Y-42095260D01*
X243960150Y-42101800D01*
X243967637Y-42105893D01*
X243975866Y-42108676D01*
X243984873Y-42111287D01*
X243994695Y-42114862D01*
X243997094Y-42115950D01*
X244004635Y-42118396D01*
X244017256Y-42120642D01*
X244036059Y-42122698D01*
X244062147Y-42124572D01*
X244096622Y-42126271D01*
X244140585Y-42127803D01*
X244195139Y-42129177D01*
X244261385Y-42130400D01*
X244340426Y-42131481D01*
X244433363Y-42132427D01*
X244541299Y-42133247D01*
X244665336Y-42133947D01*
X244806576Y-42134538D01*
X244966121Y-42135025D01*
X245145072Y-42135419D01*
X245344532Y-42135725D01*
X245565604Y-42135953D01*
X245809388Y-42136110D01*
X246076987Y-42136205D01*
X246369503Y-42136245D01*
X246688039Y-42136238D01*
X246791221Y-42136228D01*
X247116823Y-42136176D01*
X247416081Y-42136091D01*
X247690109Y-42135963D01*
X247940024Y-42135785D01*
X248166940Y-42135548D01*
X248371973Y-42135242D01*
X248556238Y-42134860D01*
X248720850Y-42134392D01*
X248866925Y-42133830D01*
X248995576Y-42133165D01*
X249107921Y-42132388D01*
X249205074Y-42131491D01*
X249288150Y-42130465D01*
X249358264Y-42129301D01*
X249416532Y-42127991D01*
X249464069Y-42126525D01*
X249501990Y-42124896D01*
X249531410Y-42123093D01*
X249553445Y-42121110D01*
X249569210Y-42118936D01*
X249579820Y-42116563D01*
X249585604Y-42114391D01*
X249595884Y-42110056D01*
X249605322Y-42106859D01*
X249613955Y-42103665D01*
X249621819Y-42099338D01*
X249628948Y-42092744D01*
X249635379Y-42082747D01*
X249641147Y-42068212D01*
X249646289Y-42048003D01*
X249650840Y-42020985D01*
X249654835Y-41986023D01*
X249658311Y-41941981D01*
X249661302Y-41887724D01*
X249663846Y-41822117D01*
X249665977Y-41744024D01*
X249667732Y-41652310D01*
X249669145Y-41545840D01*
X249669515Y-41504973D01*
X249303084Y-41504973D01*
X248007934Y-41504973D01*
X248032855Y-41467217D01*
X248057647Y-41428417D01*
X248078640Y-41391469D01*
X248096135Y-41353788D01*
X248110430Y-41312788D01*
X248121823Y-41265883D01*
X248130613Y-41210487D01*
X248137098Y-41144016D01*
X248141577Y-41063883D01*
X248144350Y-40967502D01*
X248145713Y-40852289D01*
X248145967Y-40715657D01*
X248145409Y-40555020D01*
X248145093Y-40495382D01*
X248141525Y-39856041D01*
X247736498Y-40407449D01*
X247621754Y-40563876D01*
X247522343Y-40700088D01*
X247437190Y-40817890D01*
X247365222Y-40919084D01*
X247305366Y-41005477D01*
X247256548Y-41078874D01*
X247217695Y-41141077D01*
X247187734Y-41193893D01*
X247165591Y-41239125D01*
X247150193Y-41278578D01*
X247140466Y-41314058D01*
X247135337Y-41347368D01*
X247133732Y-41380313D01*
X247134579Y-41414697D01*
X247134795Y-41419019D01*
X247139254Y-41505031D01*
X245719892Y-41504973D01*
X245825465Y-41398522D01*
X245854113Y-41369406D01*
X245881290Y-41341076D01*
X245908189Y-41311968D01*
X245936003Y-41280520D01*
X245965925Y-41245169D01*
X245999146Y-41204354D01*
X246036861Y-41156511D01*
X246080260Y-41100079D01*
X246130538Y-41033494D01*
X246188888Y-40955195D01*
X246256500Y-40863619D01*
X246334569Y-40757204D01*
X246424288Y-40634387D01*
X246526848Y-40493605D01*
X246643442Y-40333297D01*
X246739009Y-40201798D01*
X246858949Y-40036596D01*
X246963580Y-39892152D01*
X247053848Y-39767094D01*
X247130703Y-39660052D01*
X247195091Y-39569654D01*
X247247961Y-39494529D01*
X247290260Y-39433304D01*
X247322936Y-39384610D01*
X247346938Y-39347074D01*
X247363213Y-39319325D01*
X247372708Y-39299992D01*
X247376373Y-39287703D01*
X247375271Y-39281242D01*
X247361924Y-39264048D01*
X247333066Y-39227655D01*
X247290440Y-39174224D01*
X247235785Y-39105919D01*
X247170844Y-39024903D01*
X247097358Y-38933340D01*
X247017068Y-38833392D01*
X246931715Y-38727224D01*
X246843040Y-38616997D01*
X246752786Y-38504876D01*
X246703144Y-38443244D01*
X245470573Y-38443244D01*
X245419346Y-38535919D01*
X245368119Y-38628595D01*
X245368119Y-41319622D01*
X245419346Y-41412298D01*
X245470573Y-41504973D01*
X244864596Y-41504973D01*
X244719934Y-41504931D01*
X244600444Y-41504741D01*
X244503842Y-41504308D01*
X244427842Y-41503536D01*
X244370157Y-41502330D01*
X244328501Y-41500594D01*
X244300589Y-41498232D01*
X244284135Y-41495150D01*
X244276852Y-41491251D01*
X244276455Y-41486440D01*
X244280658Y-41480622D01*
X244280701Y-41480574D01*
X244298013Y-41455532D01*
X244320936Y-41414815D01*
X244341181Y-41374168D01*
X244379579Y-41292162D01*
X244387411Y-38443244D01*
X245470573Y-38443244D01*
X246703144Y-38443244D01*
X246662693Y-38393024D01*
X246574502Y-38283604D01*
X246489954Y-38178778D01*
X246410792Y-38080711D01*
X246338756Y-37991566D01*
X246275587Y-37913505D01*
X246223027Y-37848692D01*
X246182817Y-37799290D01*
X246159200Y-37770487D01*
X246067490Y-37662778D01*
X245979260Y-37565580D01*
X245897603Y-37482076D01*
X245825610Y-37415448D01*
X245774519Y-37374599D01*
X245714107Y-37331135D01*
X247103498Y-37331135D01*
X247103108Y-37412666D01*
X247106991Y-37472606D01*
X247121590Y-37528177D01*
X247144188Y-37580855D01*
X247158878Y-37610615D01*
X247174672Y-37640103D01*
X247193014Y-37671276D01*
X247215345Y-37706093D01*
X247243109Y-37746510D01*
X247277749Y-37794486D01*
X247320707Y-37851978D01*
X247373427Y-37920943D01*
X247437351Y-38003339D01*
X247513921Y-38101124D01*
X247604581Y-38216255D01*
X247710774Y-38350690D01*
X247722768Y-38365859D01*
X248141525Y-38895412D01*
X248145578Y-38308922D01*
X248146395Y-38133251D01*
X248146221Y-37984532D01*
X248145049Y-37862275D01*
X248142869Y-37765989D01*
X248139674Y-37695183D01*
X248135456Y-37649369D01*
X248134038Y-37640679D01*
X248111791Y-37549135D01*
X248082643Y-37466608D01*
X248049382Y-37400253D01*
X248029400Y-37372110D01*
X247994922Y-37331135D01*
X248649114Y-37331135D01*
X248805169Y-37331269D01*
X248935667Y-37331703D01*
X249042510Y-37332489D01*
X249127598Y-37333676D01*
X249192835Y-37335317D01*
X249240121Y-37337461D01*
X249271357Y-37340159D01*
X249288446Y-37343462D01*
X249293288Y-37347421D01*
X249292953Y-37348298D01*
X249279085Y-37369231D01*
X249255932Y-37402412D01*
X249243954Y-37419193D01*
X249231569Y-37435940D01*
X249220437Y-37450915D01*
X249210488Y-37465594D01*
X249201651Y-37481449D01*
X249193857Y-37499955D01*
X249187035Y-37522585D01*
X249181116Y-37550813D01*
X249176029Y-37586113D01*
X249171704Y-37629958D01*
X249168071Y-37683822D01*
X249165060Y-37749180D01*
X249162601Y-37827504D01*
X249160623Y-37920268D01*
X249159058Y-38028947D01*
X249157834Y-38155013D01*
X249156881Y-38299942D01*
X249156130Y-38465206D01*
X249155511Y-38652279D01*
X249154952Y-38862635D01*
X249154385Y-39097748D01*
X249153855Y-39313741D01*
X249153355Y-39554535D01*
X249153095Y-39784274D01*
X249153068Y-40001493D01*
X249153267Y-40204722D01*
X249153686Y-40392496D01*
X249154318Y-40563345D01*
X249155156Y-40715803D01*
X249156192Y-40848403D01*
X249157420Y-40959676D01*
X249158833Y-41048156D01*
X249160425Y-41112375D01*
X249162187Y-41150865D01*
X249162521Y-41154933D01*
X249174666Y-41248248D01*
X249193627Y-41323190D01*
X249222502Y-41388594D01*
X249264390Y-41453293D01*
X249269629Y-41460352D01*
X249303084Y-41504973D01*
X249669515Y-41504973D01*
X249670254Y-41423479D01*
X249671093Y-41284090D01*
X249671698Y-41126539D01*
X249672105Y-40949691D01*
X249672350Y-40752410D01*
X249672467Y-40533560D01*
X249672495Y-40292007D01*
X249672467Y-40026615D01*
X249672420Y-39736249D01*
X249672390Y-39419773D01*
X249672389Y-39356946D01*
X249672372Y-39037137D01*
X249672312Y-38743661D01*
X249672202Y-38475390D01*
X249672033Y-38231198D01*
X249671797Y-38009957D01*
X249671484Y-37810540D01*
X249671085Y-37631820D01*
X249670593Y-37472671D01*
X249669997Y-37331966D01*
X249669290Y-37208576D01*
X249668463Y-37101376D01*
X249667507Y-37009238D01*
X249666413Y-36931035D01*
X249665173Y-36865641D01*
X249663778Y-36811928D01*
X249662218Y-36768769D01*
X249660486Y-36735037D01*
X249658572Y-36709605D01*
X249656468Y-36691347D01*
X249654166Y-36679134D01*
X249651655Y-36671841D01*
X249651563Y-36671659D01*
X249646392Y-36660518D01*
X249642085Y-36650431D01*
X249637321Y-36641346D01*
X249630778Y-36633212D01*
X249621135Y-36625976D01*
X249607071Y-36619586D01*
X249587263Y-36613989D01*
X249560391Y-36609133D01*
X249525133Y-36604966D01*
X249480168Y-36601436D01*
X249424174Y-36598491D01*
X249355829Y-36596077D01*
X249273814Y-36594144D01*
X249176805Y-36592638D01*
X249063482Y-36591508D01*
X248932523Y-36590702D01*
X248782607Y-36590166D01*
X248612413Y-36589849D01*
X248420618Y-36589699D01*
X248205902Y-36589663D01*
X247966943Y-36589689D01*
G36*
X212103757Y-62033635D02*
G01*
X212080735Y-62071045D01*
X212045266Y-62130314D01*
X211998804Y-62208918D01*
X211942804Y-62304338D01*
X211878719Y-62414050D01*
X211808004Y-62535534D01*
X211732113Y-62666268D01*
X211652501Y-62803730D01*
X211570622Y-62945398D01*
X211487930Y-63088751D01*
X211405879Y-63231267D01*
X211325924Y-63370424D01*
X211249519Y-63503701D01*
X211178118Y-63628576D01*
X211113176Y-63742527D01*
X211056147Y-63843033D01*
X211008485Y-63927572D01*
X210971645Y-63993622D01*
X210947080Y-64038662D01*
X210936246Y-64060170D01*
X210935849Y-64061514D01*
X210949299Y-64079765D01*
X210986686Y-64107682D01*
X211043565Y-64142525D01*
X211115488Y-64181554D01*
X211190785Y-64218643D01*
X211293240Y-64263617D01*
X211400983Y-64304026D01*
X211517727Y-64340769D01*
X211647182Y-64374742D01*
X211793060Y-64406844D01*
X211959074Y-64437973D01*
X212148934Y-64469027D01*
X212345331Y-64497945D01*
X212515966Y-64523600D01*
X212659255Y-64548998D01*
X212778792Y-64575402D01*
X212878170Y-64604073D01*
X212960982Y-64636273D01*
X213030822Y-64673265D01*
X213091282Y-64716312D01*
X213145955Y-64766675D01*
X213163586Y-64785383D01*
X213201800Y-64828939D01*
X213230068Y-64864482D01*
X213243182Y-64885383D01*
X213243532Y-64887097D01*
X213248120Y-64897606D01*
X213264042Y-64897724D01*
X213294534Y-64886054D01*
X213342832Y-64861196D01*
X213412173Y-64821752D01*
X213460361Y-64793387D01*
X213532217Y-64749047D01*
X213588058Y-64711079D01*
X213624133Y-64682216D01*
X213636687Y-64665188D01*
X213636679Y-64665064D01*
X213628894Y-64648837D01*
X213606908Y-64608200D01*
X213571997Y-64545367D01*
X213525437Y-64462552D01*
X213468505Y-64361972D01*
X213402477Y-64245840D01*
X213328628Y-64116371D01*
X213248236Y-63975780D01*
X213162576Y-63826282D01*
X213072924Y-63670092D01*
X212980557Y-63509424D01*
X212886751Y-63346493D01*
X212792782Y-63183513D01*
X212699926Y-63022700D01*
X212609460Y-62866268D01*
X212522659Y-62716433D01*
X212440800Y-62575408D01*
X212365159Y-62445409D01*
X212297013Y-62328649D01*
X212237637Y-62227345D01*
X212188307Y-62143711D01*
X212150300Y-62079962D01*
X212124893Y-62038311D01*
X212113360Y-62020975D01*
X212112877Y-62020605D01*
X212103757Y-62033635D01*
G37*
X212103757Y-62033635D02*
X212080735Y-62071045D01*
X212045266Y-62130314D01*
X211998804Y-62208918D01*
X211942804Y-62304338D01*
X211878719Y-62414050D01*
X211808004Y-62535534D01*
X211732113Y-62666268D01*
X211652501Y-62803730D01*
X211570622Y-62945398D01*
X211487930Y-63088751D01*
X211405879Y-63231267D01*
X211325924Y-63370424D01*
X211249519Y-63503701D01*
X211178118Y-63628576D01*
X211113176Y-63742527D01*
X211056147Y-63843033D01*
X211008485Y-63927572D01*
X210971645Y-63993622D01*
X210947080Y-64038662D01*
X210936246Y-64060170D01*
X210935849Y-64061514D01*
X210949299Y-64079765D01*
X210986686Y-64107682D01*
X211043565Y-64142525D01*
X211115488Y-64181554D01*
X211190785Y-64218643D01*
X211293240Y-64263617D01*
X211400983Y-64304026D01*
X211517727Y-64340769D01*
X211647182Y-64374742D01*
X211793060Y-64406844D01*
X211959074Y-64437973D01*
X212148934Y-64469027D01*
X212345331Y-64497945D01*
X212515966Y-64523600D01*
X212659255Y-64548998D01*
X212778792Y-64575402D01*
X212878170Y-64604073D01*
X212960982Y-64636273D01*
X213030822Y-64673265D01*
X213091282Y-64716312D01*
X213145955Y-64766675D01*
X213163586Y-64785383D01*
X213201800Y-64828939D01*
X213230068Y-64864482D01*
X213243182Y-64885383D01*
X213243532Y-64887097D01*
X213248120Y-64897606D01*
X213264042Y-64897724D01*
X213294534Y-64886054D01*
X213342832Y-64861196D01*
X213412173Y-64821752D01*
X213460361Y-64793387D01*
X213532217Y-64749047D01*
X213588058Y-64711079D01*
X213624133Y-64682216D01*
X213636687Y-64665188D01*
X213636679Y-64665064D01*
X213628894Y-64648837D01*
X213606908Y-64608200D01*
X213571997Y-64545367D01*
X213525437Y-64462552D01*
X213468505Y-64361972D01*
X213402477Y-64245840D01*
X213328628Y-64116371D01*
X213248236Y-63975780D01*
X213162576Y-63826282D01*
X213072924Y-63670092D01*
X212980557Y-63509424D01*
X212886751Y-63346493D01*
X212792782Y-63183513D01*
X212699926Y-63022700D01*
X212609460Y-62866268D01*
X212522659Y-62716433D01*
X212440800Y-62575408D01*
X212365159Y-62445409D01*
X212297013Y-62328649D01*
X212237637Y-62227345D01*
X212188307Y-62143711D01*
X212150300Y-62079962D01*
X212124893Y-62038311D01*
X212113360Y-62020975D01*
X212112877Y-62020605D01*
X212103757Y-62033635D01*
G36*
X210280272Y-65182419D02*
G01*
X210268892Y-65201493D01*
X210243312Y-65245221D01*
X210204798Y-65311419D01*
X210154614Y-65397902D01*
X210094025Y-65502485D01*
X210024297Y-65622983D01*
X209946693Y-65757212D01*
X209862480Y-65902987D01*
X209772921Y-66058123D01*
X209680802Y-66217800D01*
X209586724Y-66380917D01*
X209496398Y-66537509D01*
X209411135Y-66685306D01*
X209332243Y-66822040D01*
X209261031Y-66945442D01*
X209198809Y-67053244D01*
X209146887Y-67143177D01*
X209106572Y-67212973D01*
X209079176Y-67260364D01*
X209066293Y-67282586D01*
X209045293Y-67320130D01*
X209033875Y-67343631D01*
X209033249Y-67347720D01*
X209047164Y-67340042D01*
X209085859Y-67318003D01*
X209147313Y-67282771D01*
X209229502Y-67235511D01*
X209330404Y-67177389D01*
X209447995Y-67109571D01*
X209580254Y-67033224D01*
X209725158Y-66949514D01*
X209880683Y-66859606D01*
X210044808Y-66764667D01*
X210107251Y-66728532D01*
X210274313Y-66631883D01*
X210433726Y-66539738D01*
X210583445Y-66453275D01*
X210721424Y-66373671D01*
X210845615Y-66302105D01*
X210953973Y-66239755D01*
X211044452Y-66187798D01*
X211115004Y-66147413D01*
X211163585Y-66119778D01*
X211188146Y-66106072D01*
X211190715Y-66104774D01*
X211183231Y-66093020D01*
X211157186Y-66061595D01*
X211115241Y-66013394D01*
X211060054Y-65951310D01*
X210994283Y-65878239D01*
X210920588Y-65797076D01*
X210841627Y-65710716D01*
X210760060Y-65622053D01*
X210678546Y-65533982D01*
X210599743Y-65449399D01*
X210526310Y-65371197D01*
X210460907Y-65302272D01*
X210406192Y-65245519D01*
X210364823Y-65203832D01*
X210350636Y-65190163D01*
X210303620Y-65146001D01*
X210280272Y-65182419D01*
G37*
X210280272Y-65182419D02*
X210268892Y-65201493D01*
X210243312Y-65245221D01*
X210204798Y-65311419D01*
X210154614Y-65397902D01*
X210094025Y-65502485D01*
X210024297Y-65622983D01*
X209946693Y-65757212D01*
X209862480Y-65902987D01*
X209772921Y-66058123D01*
X209680802Y-66217800D01*
X209586724Y-66380917D01*
X209496398Y-66537509D01*
X209411135Y-66685306D01*
X209332243Y-66822040D01*
X209261031Y-66945442D01*
X209198809Y-67053244D01*
X209146887Y-67143177D01*
X209106572Y-67212973D01*
X209079176Y-67260364D01*
X209066293Y-67282586D01*
X209045293Y-67320130D01*
X209033875Y-67343631D01*
X209033249Y-67347720D01*
X209047164Y-67340042D01*
X209085859Y-67318003D01*
X209147313Y-67282771D01*
X209229502Y-67235511D01*
X209330404Y-67177389D01*
X209447995Y-67109571D01*
X209580254Y-67033224D01*
X209725158Y-66949514D01*
X209880683Y-66859606D01*
X210044808Y-66764667D01*
X210107251Y-66728532D01*
X210274313Y-66631883D01*
X210433726Y-66539738D01*
X210583445Y-66453275D01*
X210721424Y-66373671D01*
X210845615Y-66302105D01*
X210953973Y-66239755D01*
X211044452Y-66187798D01*
X211115004Y-66147413D01*
X211163585Y-66119778D01*
X211188146Y-66106072D01*
X211190715Y-66104774D01*
X211183231Y-66093020D01*
X211157186Y-66061595D01*
X211115241Y-66013394D01*
X211060054Y-65951310D01*
X210994283Y-65878239D01*
X210920588Y-65797076D01*
X210841627Y-65710716D01*
X210760060Y-65622053D01*
X210678546Y-65533982D01*
X210599743Y-65449399D01*
X210526310Y-65371197D01*
X210460907Y-65302272D01*
X210406192Y-65245519D01*
X210364823Y-65203832D01*
X210350636Y-65190163D01*
X210303620Y-65146001D01*
X210280272Y-65182419D01*
G36*
X213945706Y-65238958D02*
G01*
X213913181Y-65251536D01*
X213863607Y-65276512D01*
X213792426Y-65315676D01*
X213786884Y-65318788D01*
X213721326Y-65356276D01*
X213666002Y-65389119D01*
X213626345Y-65414005D01*
X213607788Y-65427620D01*
X213607269Y-65428287D01*
X213611752Y-65447190D01*
X213632314Y-65489405D01*
X213667617Y-65552632D01*
X213716320Y-65634572D01*
X213777082Y-65732922D01*
X213848564Y-65845385D01*
X213866355Y-65872965D01*
X213912707Y-65949499D01*
X213946458Y-66015356D01*
X213964647Y-66064582D01*
X213966514Y-66074307D01*
X213965685Y-66117112D01*
X213956406Y-66185009D01*
X213939832Y-66273643D01*
X213917120Y-66378659D01*
X213889427Y-66495702D01*
X213857910Y-66620416D01*
X213823725Y-66748445D01*
X213788029Y-66875434D01*
X213751979Y-66997028D01*
X213716732Y-67108872D01*
X213683444Y-67206610D01*
X213653272Y-67285887D01*
X213632239Y-67332922D01*
X213607463Y-67383025D01*
X213584070Y-67430968D01*
X213582803Y-67433593D01*
X213544101Y-67482020D01*
X213487616Y-67514628D01*
X213421861Y-67530254D01*
X213355349Y-67527737D01*
X213296595Y-67505914D01*
X213263542Y-67477182D01*
X213215941Y-67398383D01*
X213181061Y-67300178D01*
X213161923Y-67192579D01*
X213159212Y-67131580D01*
X213170130Y-67017735D01*
X213202176Y-66923460D01*
X213257074Y-66844179D01*
X213274193Y-66826533D01*
X213325139Y-66777035D01*
X213328637Y-66427162D01*
X213332136Y-66077289D01*
X213242982Y-65942331D01*
X213201146Y-65881245D01*
X213160855Y-65826293D01*
X213127857Y-65785136D01*
X213113674Y-65769992D01*
X213073519Y-65732610D01*
X213019135Y-65761898D01*
X212984761Y-65782884D01*
X212965954Y-65799178D01*
X212964751Y-65802107D01*
X212951897Y-65814528D01*
X212929904Y-65823777D01*
X212908650Y-65832113D01*
X212876106Y-65847949D01*
X212829478Y-65872833D01*
X212765971Y-65908309D01*
X212682792Y-65955923D01*
X212577147Y-66017222D01*
X212519738Y-66050732D01*
X212452206Y-66090871D01*
X212407915Y-66119459D01*
X212382945Y-66139839D01*
X212373377Y-66155353D01*
X212375292Y-66169346D01*
X212376889Y-66172596D01*
X212392424Y-66193066D01*
X212425664Y-66231465D01*
X212472738Y-66283496D01*
X212529772Y-66344866D01*
X212579100Y-66396890D01*
X212692770Y-66520367D01*
X212781695Y-66627391D01*
X212846666Y-66719040D01*
X212888479Y-66796388D01*
X212902583Y-66835666D01*
X212908408Y-66870049D01*
X212914425Y-66928699D01*
X212920104Y-67004917D01*
X212924916Y-67092002D01*
X212927181Y-67147068D01*
X212930341Y-67242264D01*
X212931731Y-67311862D01*
X212930942Y-67361209D01*
X212927565Y-67395654D01*
X212921192Y-67420543D01*
X212911413Y-67441225D01*
X212903733Y-67453853D01*
X212859379Y-67502526D01*
X212802226Y-67536445D01*
X212742092Y-67551238D01*
X212697027Y-67545886D01*
X212656224Y-67522730D01*
X212605076Y-67481262D01*
X212550758Y-67428712D01*
X212500443Y-67372316D01*
X212461306Y-67319305D01*
X212446895Y-67293689D01*
X212425309Y-67258614D01*
X212386047Y-67205189D01*
X212332698Y-67137589D01*
X212268848Y-67059990D01*
X212198085Y-66976568D01*
X212123996Y-66891498D01*
X212050168Y-66808955D01*
X211980189Y-66733116D01*
X211917645Y-66668156D01*
X211868540Y-66620469D01*
X211814021Y-66572832D01*
X211768158Y-66537708D01*
X211735989Y-66518749D01*
X211725311Y-66516664D01*
X211708947Y-66525074D01*
X211668129Y-66547646D01*
X211605214Y-66583024D01*
X211522556Y-66629854D01*
X211422511Y-66686781D01*
X211307434Y-66752449D01*
X211179681Y-66825503D01*
X211041606Y-66904588D01*
X210895566Y-66988348D01*
X210743916Y-67075429D01*
X210589010Y-67164476D01*
X210433205Y-67254132D01*
X210278856Y-67343043D01*
X210128318Y-67429854D01*
X209983946Y-67513209D01*
X209848096Y-67591754D01*
X209723123Y-67664133D01*
X209611383Y-67728990D01*
X209515230Y-67784971D01*
X209437021Y-67830720D01*
X209379111Y-67864883D01*
X209343854Y-67886104D01*
X209333635Y-67892763D01*
X209347398Y-67894080D01*
X209390696Y-67895359D01*
X209462086Y-67896596D01*
X209560127Y-67897783D01*
X209683378Y-67898915D01*
X209830397Y-67899986D01*
X209999743Y-67900989D01*
X210189974Y-67901919D01*
X210399649Y-67902768D01*
X210627327Y-67903532D01*
X210871565Y-67904203D01*
X211130923Y-67904776D01*
X211403959Y-67905244D01*
X211689232Y-67905602D01*
X211985300Y-67905842D01*
X212290721Y-67905959D01*
X212418876Y-67905971D01*
X215518830Y-67905971D01*
X215297747Y-67522647D01*
X215250944Y-67441480D01*
X215190698Y-67336966D01*
X215119022Y-67212601D01*
X215037931Y-67071882D01*
X214949438Y-66918303D01*
X214855560Y-66755362D01*
X214758309Y-66586554D01*
X214659700Y-66415375D01*
X214561747Y-66245321D01*
X214536975Y-66202312D01*
X214446648Y-66045657D01*
X214360511Y-65896603D01*
X214279858Y-65757368D01*
X214205984Y-65630171D01*
X214140183Y-65517232D01*
X214083750Y-65420768D01*
X214037979Y-65343000D01*
X214004165Y-65286146D01*
X213983602Y-65252425D01*
X213977847Y-65243840D01*
X213965742Y-65236989D01*
X213945706Y-65238958D01*
G37*
X213945706Y-65238958D02*
X213913181Y-65251536D01*
X213863607Y-65276512D01*
X213792426Y-65315676D01*
X213786884Y-65318788D01*
X213721326Y-65356276D01*
X213666002Y-65389119D01*
X213626345Y-65414005D01*
X213607788Y-65427620D01*
X213607269Y-65428287D01*
X213611752Y-65447190D01*
X213632314Y-65489405D01*
X213667617Y-65552632D01*
X213716320Y-65634572D01*
X213777082Y-65732922D01*
X213848564Y-65845385D01*
X213866355Y-65872965D01*
X213912707Y-65949499D01*
X213946458Y-66015356D01*
X213964647Y-66064582D01*
X213966514Y-66074307D01*
X213965685Y-66117112D01*
X213956406Y-66185009D01*
X213939832Y-66273643D01*
X213917120Y-66378659D01*
X213889427Y-66495702D01*
X213857910Y-66620416D01*
X213823725Y-66748445D01*
X213788029Y-66875434D01*
X213751979Y-66997028D01*
X213716732Y-67108872D01*
X213683444Y-67206610D01*
X213653272Y-67285887D01*
X213632239Y-67332922D01*
X213607463Y-67383025D01*
X213584070Y-67430968D01*
X213582803Y-67433593D01*
X213544101Y-67482020D01*
X213487616Y-67514628D01*
X213421861Y-67530254D01*
X213355349Y-67527737D01*
X213296595Y-67505914D01*
X213263542Y-67477182D01*
X213215941Y-67398383D01*
X213181061Y-67300178D01*
X213161923Y-67192579D01*
X213159212Y-67131580D01*
X213170130Y-67017735D01*
X213202176Y-66923460D01*
X213257074Y-66844179D01*
X213274193Y-66826533D01*
X213325139Y-66777035D01*
X213328637Y-66427162D01*
X213332136Y-66077289D01*
X213242982Y-65942331D01*
X213201146Y-65881245D01*
X213160855Y-65826293D01*
X213127857Y-65785136D01*
X213113674Y-65769992D01*
X213073519Y-65732610D01*
X213019135Y-65761898D01*
X212984761Y-65782884D01*
X212965954Y-65799178D01*
X212964751Y-65802107D01*
X212951897Y-65814528D01*
X212929904Y-65823777D01*
X212908650Y-65832113D01*
X212876106Y-65847949D01*
X212829478Y-65872833D01*
X212765971Y-65908309D01*
X212682792Y-65955923D01*
X212577147Y-66017222D01*
X212519738Y-66050732D01*
X212452206Y-66090871D01*
X212407915Y-66119459D01*
X212382945Y-66139839D01*
X212373377Y-66155353D01*
X212375292Y-66169346D01*
X212376889Y-66172596D01*
X212392424Y-66193066D01*
X212425664Y-66231465D01*
X212472738Y-66283496D01*
X212529772Y-66344866D01*
X212579100Y-66396890D01*
X212692770Y-66520367D01*
X212781695Y-66627391D01*
X212846666Y-66719040D01*
X212888479Y-66796388D01*
X212902583Y-66835666D01*
X212908408Y-66870049D01*
X212914425Y-66928699D01*
X212920104Y-67004917D01*
X212924916Y-67092002D01*
X212927181Y-67147068D01*
X212930341Y-67242264D01*
X212931731Y-67311862D01*
X212930942Y-67361209D01*
X212927565Y-67395654D01*
X212921192Y-67420543D01*
X212911413Y-67441225D01*
X212903733Y-67453853D01*
X212859379Y-67502526D01*
X212802226Y-67536445D01*
X212742092Y-67551238D01*
X212697027Y-67545886D01*
X212656224Y-67522730D01*
X212605076Y-67481262D01*
X212550758Y-67428712D01*
X212500443Y-67372316D01*
X212461306Y-67319305D01*
X212446895Y-67293689D01*
X212425309Y-67258614D01*
X212386047Y-67205189D01*
X212332698Y-67137589D01*
X212268848Y-67059990D01*
X212198085Y-66976568D01*
X212123996Y-66891498D01*
X212050168Y-66808955D01*
X211980189Y-66733116D01*
X211917645Y-66668156D01*
X211868540Y-66620469D01*
X211814021Y-66572832D01*
X211768158Y-66537708D01*
X211735989Y-66518749D01*
X211725311Y-66516664D01*
X211708947Y-66525074D01*
X211668129Y-66547646D01*
X211605214Y-66583024D01*
X211522556Y-66629854D01*
X211422511Y-66686781D01*
X211307434Y-66752449D01*
X211179681Y-66825503D01*
X211041606Y-66904588D01*
X210895566Y-66988348D01*
X210743916Y-67075429D01*
X210589010Y-67164476D01*
X210433205Y-67254132D01*
X210278856Y-67343043D01*
X210128318Y-67429854D01*
X209983946Y-67513209D01*
X209848096Y-67591754D01*
X209723123Y-67664133D01*
X209611383Y-67728990D01*
X209515230Y-67784971D01*
X209437021Y-67830720D01*
X209379111Y-67864883D01*
X209343854Y-67886104D01*
X209333635Y-67892763D01*
X209347398Y-67894080D01*
X209390696Y-67895359D01*
X209462086Y-67896596D01*
X209560127Y-67897783D01*
X209683378Y-67898915D01*
X209830397Y-67899986D01*
X209999743Y-67900989D01*
X210189974Y-67901919D01*
X210399649Y-67902768D01*
X210627327Y-67903532D01*
X210871565Y-67904203D01*
X211130923Y-67904776D01*
X211403959Y-67905244D01*
X211689232Y-67905602D01*
X211985300Y-67905842D01*
X212290721Y-67905959D01*
X212418876Y-67905971D01*
X215518830Y-67905971D01*
X215297747Y-67522647D01*
X215250944Y-67441480D01*
X215190698Y-67336966D01*
X215119022Y-67212601D01*
X215037931Y-67071882D01*
X214949438Y-66918303D01*
X214855560Y-66755362D01*
X214758309Y-66586554D01*
X214659700Y-66415375D01*
X214561747Y-66245321D01*
X214536975Y-66202312D01*
X214446648Y-66045657D01*
X214360511Y-65896603D01*
X214279858Y-65757368D01*
X214205984Y-65630171D01*
X214140183Y-65517232D01*
X214083750Y-65420768D01*
X214037979Y-65343000D01*
X214004165Y-65286146D01*
X213983602Y-65252425D01*
X213977847Y-65243840D01*
X213965742Y-65236989D01*
X213945706Y-65238958D01*
G36*
X215401170Y-61999948D02*
G01*
X215401789Y-62087031D01*
X215853514Y-62545991D01*
X216305239Y-63004952D01*
X216305568Y-63215571D01*
X216305897Y-63426189D01*
X216580990Y-63426189D01*
X216588078Y-63479630D01*
X216590762Y-63503988D01*
X216595287Y-63549859D01*
X216601409Y-63614505D01*
X216608888Y-63695191D01*
X216617481Y-63789181D01*
X216626946Y-63893737D01*
X216637042Y-64006125D01*
X216647526Y-64123607D01*
X216658156Y-64243448D01*
X216668691Y-64362911D01*
X216678887Y-64479259D01*
X216688505Y-64589757D01*
X216697300Y-64691669D01*
X216705032Y-64782258D01*
X216711458Y-64858787D01*
X216716337Y-64918521D01*
X216719425Y-64958724D01*
X216720483Y-64976659D01*
X216720482Y-64976744D01*
X216712773Y-64991135D01*
X216689619Y-65020848D01*
X216650705Y-65066231D01*
X216595716Y-65127629D01*
X216524336Y-65205388D01*
X216436251Y-65299854D01*
X216331146Y-65411372D01*
X216208705Y-65540288D01*
X216174290Y-65576387D01*
X215628463Y-66148516D01*
X215716719Y-66236536D01*
X215788115Y-66158858D01*
X215814234Y-66130786D01*
X215855034Y-66087374D01*
X215907823Y-66031466D01*
X215969909Y-65965908D01*
X216038600Y-65893541D01*
X216111204Y-65817212D01*
X216154640Y-65771624D01*
X216236184Y-65686219D01*
X216302096Y-65617810D01*
X216354056Y-65565153D01*
X216393745Y-65527005D01*
X216422843Y-65502120D01*
X216443031Y-65489256D01*
X216455990Y-65487168D01*
X216463400Y-65494613D01*
X216466942Y-65510346D01*
X216468297Y-65533123D01*
X216468479Y-65539339D01*
X216477897Y-65582161D01*
X216501103Y-65633919D01*
X216533464Y-65686428D01*
X216570348Y-65731503D01*
X216585107Y-65745428D01*
X216660833Y-65794147D01*
X216749292Y-65821406D01*
X216827500Y-65827873D01*
X216916132Y-65815676D01*
X216997988Y-65779913D01*
X217070436Y-65721822D01*
X217083803Y-65707362D01*
X217132682Y-65651833D01*
X217978274Y-65651833D01*
X217978274Y-65827873D01*
X218204610Y-65827873D01*
X218204610Y-65745631D01*
X218207450Y-65689486D01*
X218216993Y-65650516D01*
X218228591Y-65629319D01*
X218236877Y-65614152D01*
X218243973Y-65592162D01*
X218250348Y-65560087D01*
X218256472Y-65514669D01*
X218262816Y-65452648D01*
X218269850Y-65370762D01*
X218274666Y-65309846D01*
X218296761Y-65024443D01*
X218839165Y-65573905D01*
X218937237Y-65673328D01*
X219031384Y-65768915D01*
X219119885Y-65858910D01*
X219201020Y-65941557D01*
X219273069Y-66015101D01*
X219334312Y-66077784D01*
X219383027Y-66127852D01*
X219417496Y-66163548D01*
X219435979Y-66183095D01*
X219466343Y-66214044D01*
X219491671Y-66235630D01*
X219505295Y-66242823D01*
X219522695Y-66234397D01*
X219548060Y-66213345D01*
X219556658Y-66204771D01*
X219593114Y-66166720D01*
X219392402Y-65962758D01*
X219341196Y-65910799D01*
X219275169Y-65843920D01*
X219197218Y-65765050D01*
X219110238Y-65677114D01*
X219017126Y-65583041D01*
X218920779Y-65485758D01*
X218824092Y-65388193D01*
X218754734Y-65318245D01*
X218649303Y-65211650D01*
X218560729Y-65121407D01*
X218487881Y-65046292D01*
X218429623Y-64985086D01*
X218384825Y-64936566D01*
X218362621Y-64911229D01*
X218184324Y-64911229D01*
X218162001Y-65196655D01*
X218155269Y-65280319D01*
X218148757Y-65356827D01*
X218142834Y-65422181D01*
X218137868Y-65472381D01*
X218134229Y-65503429D01*
X218133058Y-65510373D01*
X218126438Y-65538665D01*
X217176964Y-65538665D01*
X217170626Y-65459706D01*
X217151490Y-65366415D01*
X217111446Y-65283891D01*
X217053018Y-65215138D01*
X216978729Y-65163163D01*
X216895348Y-65131963D01*
X216868298Y-65117328D01*
X216854756Y-65085919D01*
X216854472Y-65084534D01*
X216852847Y-65071274D01*
X216854856Y-65057695D01*
X216862458Y-65041281D01*
X216877616Y-65019511D01*
X216902288Y-64989867D01*
X216938436Y-64949832D01*
X216988020Y-64896885D01*
X217053001Y-64828509D01*
X217057199Y-64824105D01*
X217127093Y-64750711D01*
X217201400Y-64672537D01*
X217275014Y-64594964D01*
X217342829Y-64523375D01*
X217399740Y-64463151D01*
X217412432Y-64449687D01*
X217461087Y-64398920D01*
X217504309Y-64355475D01*
X217538995Y-64322341D01*
X217562044Y-64302505D01*
X217569782Y-64298146D01*
X217581322Y-64307270D01*
X217608310Y-64332300D01*
X217648621Y-64371152D01*
X217700129Y-64421743D01*
X217760709Y-64481988D01*
X217828236Y-64549804D01*
X217883426Y-64605665D01*
X218184324Y-64911229D01*
X218362621Y-64911229D01*
X218352351Y-64899511D01*
X218331071Y-64872699D01*
X218319851Y-64854908D01*
X218317354Y-64846670D01*
X218318300Y-64828690D01*
X218321173Y-64787992D01*
X218325787Y-64726919D01*
X218331958Y-64647813D01*
X218339498Y-64553014D01*
X218348221Y-64444867D01*
X218357943Y-64325712D01*
X218368476Y-64197891D01*
X218376965Y-64095735D01*
X218424996Y-63519774D01*
X218301405Y-63519774D01*
X218300873Y-63532204D01*
X218298369Y-63567210D01*
X218294096Y-63622315D01*
X218288253Y-63695043D01*
X218281043Y-63782914D01*
X218272666Y-63883451D01*
X218263323Y-63994177D01*
X218254358Y-64099305D01*
X218244202Y-64218583D01*
X218234742Y-64331180D01*
X218226196Y-64434405D01*
X218218779Y-64525573D01*
X218212708Y-64601995D01*
X218208201Y-64660983D01*
X218205473Y-64699849D01*
X218204716Y-64714944D01*
X218203535Y-64724338D01*
X218198856Y-64728066D01*
X218188876Y-64724571D01*
X218171790Y-64712299D01*
X218145796Y-64689694D01*
X218109090Y-64655200D01*
X218059867Y-64607262D01*
X217996326Y-64544324D01*
X217928905Y-64477068D01*
X217653201Y-64201577D01*
X217655133Y-64199506D01*
X217472890Y-64199506D01*
X217464584Y-64210880D01*
X217441333Y-64237663D01*
X217405465Y-64277392D01*
X217359313Y-64327607D01*
X217305206Y-64385846D01*
X217245474Y-64449647D01*
X217182448Y-64516549D01*
X217118458Y-64584090D01*
X217055836Y-64649810D01*
X216996910Y-64711246D01*
X216944012Y-64765937D01*
X216899472Y-64811422D01*
X216865620Y-64845238D01*
X216844788Y-64864926D01*
X216839106Y-64868937D01*
X216837234Y-64855991D01*
X216833346Y-64820234D01*
X216827657Y-64763904D01*
X216820381Y-64689240D01*
X216811731Y-64598480D01*
X216801922Y-64493862D01*
X216791166Y-64377626D01*
X216779679Y-64252008D01*
X216770507Y-64150718D01*
X216758774Y-64019379D01*
X216747935Y-63895652D01*
X216738170Y-63781781D01*
X216729663Y-63680011D01*
X216722595Y-63592587D01*
X216717149Y-63521753D01*
X216713508Y-63469753D01*
X216711853Y-63438832D01*
X216712042Y-63430803D01*
X216721934Y-63437954D01*
X216747124Y-63460941D01*
X216785410Y-63497539D01*
X216834589Y-63545522D01*
X216892461Y-63602666D01*
X216956822Y-63666747D01*
X217025471Y-63735538D01*
X217096205Y-63806816D01*
X217166822Y-63878355D01*
X217235120Y-63947930D01*
X217298896Y-64013317D01*
X217355950Y-64072291D01*
X217404078Y-64122627D01*
X217441078Y-64162099D01*
X217464748Y-64188483D01*
X217472890Y-64199506D01*
X217655133Y-64199506D01*
X217756009Y-64091395D01*
X217808368Y-64035477D01*
X217867135Y-63973048D01*
X217929985Y-63906543D01*
X217994595Y-63838398D01*
X218058642Y-63771048D01*
X218119803Y-63706928D01*
X218175753Y-63648472D01*
X218224170Y-63598118D01*
X218262730Y-63558298D01*
X218289109Y-63531450D01*
X218300984Y-63520008D01*
X218301405Y-63519774D01*
X218424996Y-63519774D01*
X218437001Y-63375826D01*
X219037538Y-62744258D01*
X219638075Y-62112689D01*
X219637634Y-62024415D01*
X219637192Y-61936140D01*
X219540183Y-62039766D01*
X219485891Y-62097563D01*
X219421792Y-62165468D01*
X219349616Y-62241672D01*
X219271092Y-62324369D01*
X219187949Y-62411753D01*
X219101919Y-62502015D01*
X219014730Y-62593350D01*
X218928113Y-62683949D01*
X218843797Y-62772007D01*
X218763512Y-62855715D01*
X218688987Y-62933267D01*
X218621954Y-63002857D01*
X218564141Y-63062676D01*
X218517279Y-63110918D01*
X218483096Y-63145776D01*
X218463324Y-63165443D01*
X218458990Y-63169216D01*
X218458692Y-63156092D01*
X218460331Y-63122489D01*
X218463623Y-63072980D01*
X218468282Y-63012137D01*
X218470282Y-62987832D01*
X218485177Y-62810051D01*
X218368555Y-62810051D01*
X218362534Y-62838343D01*
X218359463Y-62860718D01*
X218355148Y-62902817D01*
X218350088Y-62959278D01*
X218344781Y-63024735D01*
X218342944Y-63048962D01*
X218337527Y-63118521D01*
X218332059Y-63183118D01*
X218327088Y-63236648D01*
X218323161Y-63273010D01*
X218322275Y-63279609D01*
X218318934Y-63293156D01*
X218311701Y-63309014D01*
X218299040Y-63328961D01*
X218279411Y-63354773D01*
X218251278Y-63388229D01*
X218213102Y-63431107D01*
X218163346Y-63485183D01*
X218100471Y-63552236D01*
X218022941Y-63634043D01*
X217943851Y-63717050D01*
X217865164Y-63799194D01*
X217791712Y-63875269D01*
X217725324Y-63943425D01*
X217667827Y-64001812D01*
X217621051Y-64048581D01*
X217586824Y-64081882D01*
X217566973Y-64099867D01*
X217562740Y-64102542D01*
X217551603Y-64092841D01*
X217525571Y-64067541D01*
X217487170Y-64029182D01*
X217438928Y-63980300D01*
X217383370Y-63923434D01*
X217343192Y-63882006D01*
X217133431Y-63665100D01*
X217751937Y-63665100D01*
X217751937Y-63426189D01*
X216997481Y-63426189D01*
X216997481Y-63532642D01*
X216859165Y-63394754D01*
X216761047Y-63296940D01*
X216569957Y-63296940D01*
X216568129Y-63312370D01*
X216558877Y-63320967D01*
X216536550Y-63324713D01*
X216495495Y-63325589D01*
X216488224Y-63325595D01*
X216406491Y-63325595D01*
X216406491Y-63106272D01*
X216488224Y-63187279D01*
X216534330Y-63236528D01*
X216561906Y-63274259D01*
X216569957Y-63296940D01*
X216761047Y-63296940D01*
X216720848Y-63256866D01*
X216720848Y-63134052D01*
X216720463Y-63077550D01*
X216718700Y-63041605D01*
X216714650Y-63021630D01*
X216707401Y-63013037D01*
X216696470Y-63011239D01*
X216684312Y-63008598D01*
X216675327Y-62998012D01*
X216668426Y-62975481D01*
X216662524Y-62937009D01*
X216656535Y-62878598D01*
X216654613Y-62857204D01*
X216650452Y-62810051D01*
X218368555Y-62810051D01*
X218485177Y-62810051D01*
X218644709Y-62810051D01*
X218644709Y-62696882D01*
X218576914Y-62696882D01*
X218537262Y-62695796D01*
X218515716Y-62690554D01*
X218513080Y-62687434D01*
X218374216Y-62687434D01*
X218366908Y-62694562D01*
X218341593Y-62696762D01*
X218324508Y-62696882D01*
X218267481Y-62696882D01*
X218054821Y-62696882D01*
X216640298Y-62696882D01*
X216688142Y-62647886D01*
X216762450Y-62587424D01*
X216854416Y-62540791D01*
X216965598Y-62507349D01*
X217076071Y-62488853D01*
X217148373Y-62480222D01*
X217148373Y-62571140D01*
X217726788Y-62571140D01*
X217726788Y-62467993D01*
X217811665Y-62476596D01*
X217870968Y-62483856D01*
X217934151Y-62493479D01*
X217971986Y-62500352D01*
X218047432Y-62515507D01*
X218051126Y-62606195D01*
X218054821Y-62696882D01*
X218267481Y-62696882D01*
X218267481Y-62646585D01*
X218269144Y-62615076D01*
X218273297Y-62597563D01*
X218274971Y-62596288D01*
X218293587Y-62604354D01*
X218320783Y-62623920D01*
X218348048Y-62648044D01*
X218366867Y-62669782D01*
X218368543Y-62672608D01*
X218374216Y-62687434D01*
X218513080Y-62687434D01*
X218505262Y-62678181D01*
X218501042Y-62664704D01*
X218483819Y-62629727D01*
X218450738Y-62587679D01*
X218407493Y-62544456D01*
X218359774Y-62505954D01*
X218328430Y-62485901D01*
X218292723Y-62463951D01*
X218274419Y-62445511D01*
X218267988Y-62423768D01*
X218267494Y-62410818D01*
X218267494Y-62407675D01*
X217626194Y-62407675D01*
X217626194Y-62470546D01*
X217248967Y-62470546D01*
X217248967Y-62407675D01*
X217626194Y-62407675D01*
X218267494Y-62407675D01*
X218267481Y-62369952D01*
X218161648Y-62369952D01*
X218112955Y-62371129D01*
X218075005Y-62374265D01*
X218053908Y-62378771D01*
X218051623Y-62380595D01*
X218038241Y-62383395D01*
X218005674Y-62382248D01*
X217959516Y-62377493D01*
X217927976Y-62373103D01*
X217870788Y-62364478D01*
X217818486Y-62356691D01*
X217779182Y-62350947D01*
X217767655Y-62349315D01*
X217737537Y-62339988D01*
X217726788Y-62325372D01*
X217723520Y-62319420D01*
X217711830Y-62314878D01*
X217688888Y-62311570D01*
X217651865Y-62309315D01*
X217597932Y-62307934D01*
X217524260Y-62307250D01*
X217437580Y-62307080D01*
X217345071Y-62307177D01*
X217274694Y-62307630D01*
X217223436Y-62308690D01*
X217188280Y-62310603D01*
X217166211Y-62313619D01*
X217154215Y-62317985D01*
X217149276Y-62323949D01*
X217148373Y-62330884D01*
X217140679Y-62352895D01*
X217115479Y-62365421D01*
X217069591Y-62369888D01*
X217061336Y-62369952D01*
X216983627Y-62377968D01*
X216895367Y-62400036D01*
X216804515Y-62433184D01*
X216719030Y-62474439D01*
X216646874Y-62520831D01*
X216637528Y-62528182D01*
X216607067Y-62552098D01*
X216589028Y-62561676D01*
X216576431Y-62558580D01*
X216563500Y-62545804D01*
X216525307Y-62520778D01*
X216475602Y-62511171D01*
X216422076Y-62516167D01*
X216372422Y-62534951D01*
X216334333Y-62566706D01*
X216331575Y-62570397D01*
X216303074Y-62629675D01*
X216297772Y-62691034D01*
X216315082Y-62749527D01*
X216354420Y-62800204D01*
X216359230Y-62804389D01*
X216387160Y-62824267D01*
X216415498Y-62833021D01*
X216455337Y-62833653D01*
X216465289Y-62833092D01*
X216504268Y-62831662D01*
X216524346Y-62834939D01*
X216531615Y-62844828D01*
X216532360Y-62854061D01*
X216533884Y-62880844D01*
X216537665Y-62921125D01*
X216540382Y-62945224D01*
X216544323Y-62983501D01*
X216542684Y-63003096D01*
X216533179Y-63010258D01*
X216516249Y-63011239D01*
X216506208Y-63008001D01*
X216490010Y-62997520D01*
X216466455Y-62978648D01*
X216434343Y-62950235D01*
X216392472Y-62911135D01*
X216339643Y-62860197D01*
X216274655Y-62796273D01*
X216196309Y-62718214D01*
X216103403Y-62624872D01*
X215994737Y-62515098D01*
X215942369Y-62462052D01*
X215400551Y-61912867D01*
X215401170Y-61999948D01*
G37*
X215401170Y-61999948D02*
X215401789Y-62087031D01*
X215853514Y-62545991D01*
X216305239Y-63004952D01*
X216305568Y-63215571D01*
X216305897Y-63426189D01*
X216580990Y-63426189D01*
X216588078Y-63479630D01*
X216590762Y-63503988D01*
X216595287Y-63549859D01*
X216601409Y-63614505D01*
X216608888Y-63695191D01*
X216617481Y-63789181D01*
X216626946Y-63893737D01*
X216637042Y-64006125D01*
X216647526Y-64123607D01*
X216658156Y-64243448D01*
X216668691Y-64362911D01*
X216678887Y-64479259D01*
X216688505Y-64589757D01*
X216697300Y-64691669D01*
X216705032Y-64782258D01*
X216711458Y-64858787D01*
X216716337Y-64918521D01*
X216719425Y-64958724D01*
X216720483Y-64976659D01*
X216720482Y-64976744D01*
X216712773Y-64991135D01*
X216689619Y-65020848D01*
X216650705Y-65066231D01*
X216595716Y-65127629D01*
X216524336Y-65205388D01*
X216436251Y-65299854D01*
X216331146Y-65411372D01*
X216208705Y-65540288D01*
X216174290Y-65576387D01*
X215628463Y-66148516D01*
X215716719Y-66236536D01*
X215788115Y-66158858D01*
X215814234Y-66130786D01*
X215855034Y-66087374D01*
X215907823Y-66031466D01*
X215969909Y-65965908D01*
X216038600Y-65893541D01*
X216111204Y-65817212D01*
X216154640Y-65771624D01*
X216236184Y-65686219D01*
X216302096Y-65617810D01*
X216354056Y-65565153D01*
X216393745Y-65527005D01*
X216422843Y-65502120D01*
X216443031Y-65489256D01*
X216455990Y-65487168D01*
X216463400Y-65494613D01*
X216466942Y-65510346D01*
X216468297Y-65533123D01*
X216468479Y-65539339D01*
X216477897Y-65582161D01*
X216501103Y-65633919D01*
X216533464Y-65686428D01*
X216570348Y-65731503D01*
X216585107Y-65745428D01*
X216660833Y-65794147D01*
X216749292Y-65821406D01*
X216827500Y-65827873D01*
X216916132Y-65815676D01*
X216997988Y-65779913D01*
X217070436Y-65721822D01*
X217083803Y-65707362D01*
X217132682Y-65651833D01*
X217978274Y-65651833D01*
X217978274Y-65827873D01*
X218204610Y-65827873D01*
X218204610Y-65745631D01*
X218207450Y-65689486D01*
X218216993Y-65650516D01*
X218228591Y-65629319D01*
X218236877Y-65614152D01*
X218243973Y-65592162D01*
X218250348Y-65560087D01*
X218256472Y-65514669D01*
X218262816Y-65452648D01*
X218269850Y-65370762D01*
X218274666Y-65309846D01*
X218296761Y-65024443D01*
X218839165Y-65573905D01*
X218937237Y-65673328D01*
X219031384Y-65768915D01*
X219119885Y-65858910D01*
X219201020Y-65941557D01*
X219273069Y-66015101D01*
X219334312Y-66077784D01*
X219383027Y-66127852D01*
X219417496Y-66163548D01*
X219435979Y-66183095D01*
X219466343Y-66214044D01*
X219491671Y-66235630D01*
X219505295Y-66242823D01*
X219522695Y-66234397D01*
X219548060Y-66213345D01*
X219556658Y-66204771D01*
X219593114Y-66166720D01*
X219392402Y-65962758D01*
X219341196Y-65910799D01*
X219275169Y-65843920D01*
X219197218Y-65765050D01*
X219110238Y-65677114D01*
X219017126Y-65583041D01*
X218920779Y-65485758D01*
X218824092Y-65388193D01*
X218754734Y-65318245D01*
X218649303Y-65211650D01*
X218560729Y-65121407D01*
X218487881Y-65046292D01*
X218429623Y-64985086D01*
X218384825Y-64936566D01*
X218362621Y-64911229D01*
X218184324Y-64911229D01*
X218162001Y-65196655D01*
X218155269Y-65280319D01*
X218148757Y-65356827D01*
X218142834Y-65422181D01*
X218137868Y-65472381D01*
X218134229Y-65503429D01*
X218133058Y-65510373D01*
X218126438Y-65538665D01*
X217176964Y-65538665D01*
X217170626Y-65459706D01*
X217151490Y-65366415D01*
X217111446Y-65283891D01*
X217053018Y-65215138D01*
X216978729Y-65163163D01*
X216895348Y-65131963D01*
X216868298Y-65117328D01*
X216854756Y-65085919D01*
X216854472Y-65084534D01*
X216852847Y-65071274D01*
X216854856Y-65057695D01*
X216862458Y-65041281D01*
X216877616Y-65019511D01*
X216902288Y-64989867D01*
X216938436Y-64949832D01*
X216988020Y-64896885D01*
X217053001Y-64828509D01*
X217057199Y-64824105D01*
X217127093Y-64750711D01*
X217201400Y-64672537D01*
X217275014Y-64594964D01*
X217342829Y-64523375D01*
X217399740Y-64463151D01*
X217412432Y-64449687D01*
X217461087Y-64398920D01*
X217504309Y-64355475D01*
X217538995Y-64322341D01*
X217562044Y-64302505D01*
X217569782Y-64298146D01*
X217581322Y-64307270D01*
X217608310Y-64332300D01*
X217648621Y-64371152D01*
X217700129Y-64421743D01*
X217760709Y-64481988D01*
X217828236Y-64549804D01*
X217883426Y-64605665D01*
X218184324Y-64911229D01*
X218362621Y-64911229D01*
X218352351Y-64899511D01*
X218331071Y-64872699D01*
X218319851Y-64854908D01*
X218317354Y-64846670D01*
X218318300Y-64828690D01*
X218321173Y-64787992D01*
X218325787Y-64726919D01*
X218331958Y-64647813D01*
X218339498Y-64553014D01*
X218348221Y-64444867D01*
X218357943Y-64325712D01*
X218368476Y-64197891D01*
X218376965Y-64095735D01*
X218424996Y-63519774D01*
X218301405Y-63519774D01*
X218300873Y-63532204D01*
X218298369Y-63567210D01*
X218294096Y-63622315D01*
X218288253Y-63695043D01*
X218281043Y-63782914D01*
X218272666Y-63883451D01*
X218263323Y-63994177D01*
X218254358Y-64099305D01*
X218244202Y-64218583D01*
X218234742Y-64331180D01*
X218226196Y-64434405D01*
X218218779Y-64525573D01*
X218212708Y-64601995D01*
X218208201Y-64660983D01*
X218205473Y-64699849D01*
X218204716Y-64714944D01*
X218203535Y-64724338D01*
X218198856Y-64728066D01*
X218188876Y-64724571D01*
X218171790Y-64712299D01*
X218145796Y-64689694D01*
X218109090Y-64655200D01*
X218059867Y-64607262D01*
X217996326Y-64544324D01*
X217928905Y-64477068D01*
X217653201Y-64201577D01*
X217655133Y-64199506D01*
X217472890Y-64199506D01*
X217464584Y-64210880D01*
X217441333Y-64237663D01*
X217405465Y-64277392D01*
X217359313Y-64327607D01*
X217305206Y-64385846D01*
X217245474Y-64449647D01*
X217182448Y-64516549D01*
X217118458Y-64584090D01*
X217055836Y-64649810D01*
X216996910Y-64711246D01*
X216944012Y-64765937D01*
X216899472Y-64811422D01*
X216865620Y-64845238D01*
X216844788Y-64864926D01*
X216839106Y-64868937D01*
X216837234Y-64855991D01*
X216833346Y-64820234D01*
X216827657Y-64763904D01*
X216820381Y-64689240D01*
X216811731Y-64598480D01*
X216801922Y-64493862D01*
X216791166Y-64377626D01*
X216779679Y-64252008D01*
X216770507Y-64150718D01*
X216758774Y-64019379D01*
X216747935Y-63895652D01*
X216738170Y-63781781D01*
X216729663Y-63680011D01*
X216722595Y-63592587D01*
X216717149Y-63521753D01*
X216713508Y-63469753D01*
X216711853Y-63438832D01*
X216712042Y-63430803D01*
X216721934Y-63437954D01*
X216747124Y-63460941D01*
X216785410Y-63497539D01*
X216834589Y-63545522D01*
X216892461Y-63602666D01*
X216956822Y-63666747D01*
X217025471Y-63735538D01*
X217096205Y-63806816D01*
X217166822Y-63878355D01*
X217235120Y-63947930D01*
X217298896Y-64013317D01*
X217355950Y-64072291D01*
X217404078Y-64122627D01*
X217441078Y-64162099D01*
X217464748Y-64188483D01*
X217472890Y-64199506D01*
X217655133Y-64199506D01*
X217756009Y-64091395D01*
X217808368Y-64035477D01*
X217867135Y-63973048D01*
X217929985Y-63906543D01*
X217994595Y-63838398D01*
X218058642Y-63771048D01*
X218119803Y-63706928D01*
X218175753Y-63648472D01*
X218224170Y-63598118D01*
X218262730Y-63558298D01*
X218289109Y-63531450D01*
X218300984Y-63520008D01*
X218301405Y-63519774D01*
X218424996Y-63519774D01*
X218437001Y-63375826D01*
X219037538Y-62744258D01*
X219638075Y-62112689D01*
X219637634Y-62024415D01*
X219637192Y-61936140D01*
X219540183Y-62039766D01*
X219485891Y-62097563D01*
X219421792Y-62165468D01*
X219349616Y-62241672D01*
X219271092Y-62324369D01*
X219187949Y-62411753D01*
X219101919Y-62502015D01*
X219014730Y-62593350D01*
X218928113Y-62683949D01*
X218843797Y-62772007D01*
X218763512Y-62855715D01*
X218688987Y-62933267D01*
X218621954Y-63002857D01*
X218564141Y-63062676D01*
X218517279Y-63110918D01*
X218483096Y-63145776D01*
X218463324Y-63165443D01*
X218458990Y-63169216D01*
X218458692Y-63156092D01*
X218460331Y-63122489D01*
X218463623Y-63072980D01*
X218468282Y-63012137D01*
X218470282Y-62987832D01*
X218485177Y-62810051D01*
X218368555Y-62810051D01*
X218362534Y-62838343D01*
X218359463Y-62860718D01*
X218355148Y-62902817D01*
X218350088Y-62959278D01*
X218344781Y-63024735D01*
X218342944Y-63048962D01*
X218337527Y-63118521D01*
X218332059Y-63183118D01*
X218327088Y-63236648D01*
X218323161Y-63273010D01*
X218322275Y-63279609D01*
X218318934Y-63293156D01*
X218311701Y-63309014D01*
X218299040Y-63328961D01*
X218279411Y-63354773D01*
X218251278Y-63388229D01*
X218213102Y-63431107D01*
X218163346Y-63485183D01*
X218100471Y-63552236D01*
X218022941Y-63634043D01*
X217943851Y-63717050D01*
X217865164Y-63799194D01*
X217791712Y-63875269D01*
X217725324Y-63943425D01*
X217667827Y-64001812D01*
X217621051Y-64048581D01*
X217586824Y-64081882D01*
X217566973Y-64099867D01*
X217562740Y-64102542D01*
X217551603Y-64092841D01*
X217525571Y-64067541D01*
X217487170Y-64029182D01*
X217438928Y-63980300D01*
X217383370Y-63923434D01*
X217343192Y-63882006D01*
X217133431Y-63665100D01*
X217751937Y-63665100D01*
X217751937Y-63426189D01*
X216997481Y-63426189D01*
X216997481Y-63532642D01*
X216859165Y-63394754D01*
X216761047Y-63296940D01*
X216569957Y-63296940D01*
X216568129Y-63312370D01*
X216558877Y-63320967D01*
X216536550Y-63324713D01*
X216495495Y-63325589D01*
X216488224Y-63325595D01*
X216406491Y-63325595D01*
X216406491Y-63106272D01*
X216488224Y-63187279D01*
X216534330Y-63236528D01*
X216561906Y-63274259D01*
X216569957Y-63296940D01*
X216761047Y-63296940D01*
X216720848Y-63256866D01*
X216720848Y-63134052D01*
X216720463Y-63077550D01*
X216718700Y-63041605D01*
X216714650Y-63021630D01*
X216707401Y-63013037D01*
X216696470Y-63011239D01*
X216684312Y-63008598D01*
X216675327Y-62998012D01*
X216668426Y-62975481D01*
X216662524Y-62937009D01*
X216656535Y-62878598D01*
X216654613Y-62857204D01*
X216650452Y-62810051D01*
X218368555Y-62810051D01*
X218485177Y-62810051D01*
X218644709Y-62810051D01*
X218644709Y-62696882D01*
X218576914Y-62696882D01*
X218537262Y-62695796D01*
X218515716Y-62690554D01*
X218513080Y-62687434D01*
X218374216Y-62687434D01*
X218366908Y-62694562D01*
X218341593Y-62696762D01*
X218324508Y-62696882D01*
X218267481Y-62696882D01*
X218054821Y-62696882D01*
X216640298Y-62696882D01*
X216688142Y-62647886D01*
X216762450Y-62587424D01*
X216854416Y-62540791D01*
X216965598Y-62507349D01*
X217076071Y-62488853D01*
X217148373Y-62480222D01*
X217148373Y-62571140D01*
X217726788Y-62571140D01*
X217726788Y-62467993D01*
X217811665Y-62476596D01*
X217870968Y-62483856D01*
X217934151Y-62493479D01*
X217971986Y-62500352D01*
X218047432Y-62515507D01*
X218051126Y-62606195D01*
X218054821Y-62696882D01*
X218267481Y-62696882D01*
X218267481Y-62646585D01*
X218269144Y-62615076D01*
X218273297Y-62597563D01*
X218274971Y-62596288D01*
X218293587Y-62604354D01*
X218320783Y-62623920D01*
X218348048Y-62648044D01*
X218366867Y-62669782D01*
X218368543Y-62672608D01*
X218374216Y-62687434D01*
X218513080Y-62687434D01*
X218505262Y-62678181D01*
X218501042Y-62664704D01*
X218483819Y-62629727D01*
X218450738Y-62587679D01*
X218407493Y-62544456D01*
X218359774Y-62505954D01*
X218328430Y-62485901D01*
X218292723Y-62463951D01*
X218274419Y-62445511D01*
X218267988Y-62423768D01*
X218267494Y-62410818D01*
X218267494Y-62407675D01*
X217626194Y-62407675D01*
X217626194Y-62470546D01*
X217248967Y-62470546D01*
X217248967Y-62407675D01*
X217626194Y-62407675D01*
X218267494Y-62407675D01*
X218267481Y-62369952D01*
X218161648Y-62369952D01*
X218112955Y-62371129D01*
X218075005Y-62374265D01*
X218053908Y-62378771D01*
X218051623Y-62380595D01*
X218038241Y-62383395D01*
X218005674Y-62382248D01*
X217959516Y-62377493D01*
X217927976Y-62373103D01*
X217870788Y-62364478D01*
X217818486Y-62356691D01*
X217779182Y-62350947D01*
X217767655Y-62349315D01*
X217737537Y-62339988D01*
X217726788Y-62325372D01*
X217723520Y-62319420D01*
X217711830Y-62314878D01*
X217688888Y-62311570D01*
X217651865Y-62309315D01*
X217597932Y-62307934D01*
X217524260Y-62307250D01*
X217437580Y-62307080D01*
X217345071Y-62307177D01*
X217274694Y-62307630D01*
X217223436Y-62308690D01*
X217188280Y-62310603D01*
X217166211Y-62313619D01*
X217154215Y-62317985D01*
X217149276Y-62323949D01*
X217148373Y-62330884D01*
X217140679Y-62352895D01*
X217115479Y-62365421D01*
X217069591Y-62369888D01*
X217061336Y-62369952D01*
X216983627Y-62377968D01*
X216895367Y-62400036D01*
X216804515Y-62433184D01*
X216719030Y-62474439D01*
X216646874Y-62520831D01*
X216637528Y-62528182D01*
X216607067Y-62552098D01*
X216589028Y-62561676D01*
X216576431Y-62558580D01*
X216563500Y-62545804D01*
X216525307Y-62520778D01*
X216475602Y-62511171D01*
X216422076Y-62516167D01*
X216372422Y-62534951D01*
X216334333Y-62566706D01*
X216331575Y-62570397D01*
X216303074Y-62629675D01*
X216297772Y-62691034D01*
X216315082Y-62749527D01*
X216354420Y-62800204D01*
X216359230Y-62804389D01*
X216387160Y-62824267D01*
X216415498Y-62833021D01*
X216455337Y-62833653D01*
X216465289Y-62833092D01*
X216504268Y-62831662D01*
X216524346Y-62834939D01*
X216531615Y-62844828D01*
X216532360Y-62854061D01*
X216533884Y-62880844D01*
X216537665Y-62921125D01*
X216540382Y-62945224D01*
X216544323Y-62983501D01*
X216542684Y-63003096D01*
X216533179Y-63010258D01*
X216516249Y-63011239D01*
X216506208Y-63008001D01*
X216490010Y-62997520D01*
X216466455Y-62978648D01*
X216434343Y-62950235D01*
X216392472Y-62911135D01*
X216339643Y-62860197D01*
X216274655Y-62796273D01*
X216196309Y-62718214D01*
X216103403Y-62624872D01*
X215994737Y-62515098D01*
X215942369Y-62462052D01*
X215400551Y-61912867D01*
X215401170Y-61999948D01*
G36*
X215777778Y-67952922D02*
G01*
X219298571Y-67952922D01*
X219298571Y-67085298D01*
X215777778Y-67085298D01*
X215777778Y-67952922D01*
G37*
X215777778Y-67952922D02*
X219298571Y-67952922D01*
X219298571Y-67085298D01*
X215777778Y-67085298D01*
X215777778Y-67952922D01*
%TD*%
M02*
