%TF.GenerationSoftware,KiCad,Pcbnew,(5.1.10)-1*%
%TF.CreationDate,2021-10-28T16:28:33-07:00*%
%TF.ProjectId,AtlasPD,41746c61-7350-4442-9e6b-696361645f70,1.0*%
%TF.SameCoordinates,Original*%
%TF.FileFunction,Soldermask,Bot*%
%TF.FilePolarity,Negative*%
%FSLAX46Y46*%
G04 Gerber Fmt 4.6, Leading zero omitted, Abs format (unit mm)*
G04 Created by KiCad (PCBNEW (5.1.10)-1) date 2021-10-28 16:28:33*
%MOMM*%
%LPD*%
G01*
G04 APERTURE LIST*
%ADD10C,2.200000*%
%ADD11O,1.750000X1.200000*%
%ADD12O,1.200000X1.750000*%
%ADD13O,2.100000X1.000000*%
%ADD14C,0.650000*%
%ADD15O,1.600000X1.000000*%
G04 APERTURE END LIST*
D10*
%TO.C,REF\u002A\u002A*%
X216306400Y-29641800D03*
%TD*%
%TO.C,REF\u002A\u002A*%
X204038200Y-65938400D03*
%TD*%
%TO.C,REF\u002A\u002A*%
X256667000Y-65989200D03*
%TD*%
%TO.C,REF\u002A\u002A*%
X256667000Y-29641800D03*
%TD*%
D11*
%TO.C,J202*%
X208407000Y-59467000D03*
X208407000Y-57467000D03*
X208407000Y-55467000D03*
G36*
G01*
X207781999Y-52867000D02*
X209032001Y-52867000D01*
G75*
G02*
X209282000Y-53116999I0J-249999D01*
G01*
X209282000Y-53817001D01*
G75*
G02*
X209032001Y-54067000I-249999J0D01*
G01*
X207781999Y-54067000D01*
G75*
G02*
X207532000Y-53817001I0J249999D01*
G01*
X207532000Y-53116999D01*
G75*
G02*
X207781999Y-52867000I249999J0D01*
G01*
G37*
%TD*%
D12*
%TO.C,J302*%
X221870000Y-64389000D03*
X223870000Y-64389000D03*
X225870000Y-64389000D03*
X227870000Y-64389000D03*
X229870000Y-64389000D03*
G36*
G01*
X232470000Y-63763999D02*
X232470000Y-65014001D01*
G75*
G02*
X232220001Y-65264000I-249999J0D01*
G01*
X231519999Y-65264000D01*
G75*
G02*
X231270000Y-65014001I0J249999D01*
G01*
X231270000Y-63763999D01*
G75*
G02*
X231519999Y-63514000I249999J0D01*
G01*
X232220001Y-63514000D01*
G75*
G02*
X232470000Y-63763999I0J-249999D01*
G01*
G37*
%TD*%
%TO.C,J301*%
X236887000Y-64389000D03*
X238887000Y-64389000D03*
X240887000Y-64389000D03*
X242887000Y-64389000D03*
X244887000Y-64389000D03*
G36*
G01*
X247487000Y-63763999D02*
X247487000Y-65014001D01*
G75*
G02*
X247237001Y-65264000I-249999J0D01*
G01*
X246536999Y-65264000D01*
G75*
G02*
X246287000Y-65014001I0J249999D01*
G01*
X246287000Y-63763999D01*
G75*
G02*
X246536999Y-63514000I249999J0D01*
G01*
X247237001Y-63514000D01*
G75*
G02*
X247487000Y-63763999I0J-249999D01*
G01*
G37*
%TD*%
D13*
%TO.C,J201*%
X209428800Y-41023000D03*
X209428800Y-32383000D03*
D14*
X208898800Y-33813000D03*
D15*
X205248800Y-32383000D03*
D14*
X208898800Y-39593000D03*
D15*
X205248800Y-41023000D03*
%TD*%
M02*
