%TF.GenerationSoftware,KiCad,Pcbnew,(5.1.10)-1*%
%TF.CreationDate,2021-10-28T16:28:33-07:00*%
%TF.ProjectId,AtlasPD,41746c61-7350-4442-9e6b-696361645f70,1.0*%
%TF.SameCoordinates,Original*%
%TF.FileFunction,Copper,L2,Inr*%
%TF.FilePolarity,Positive*%
%FSLAX46Y46*%
G04 Gerber Fmt 4.6, Leading zero omitted, Abs format (unit mm)*
G04 Created by KiCad (PCBNEW (5.1.10)-1) date 2021-10-28 16:28:33*
%MOMM*%
%LPD*%
G01*
G04 APERTURE LIST*
%TA.AperFunction,ComponentPad*%
%ADD10O,1.750000X1.200000*%
%TD*%
%TA.AperFunction,ComponentPad*%
%ADD11O,1.200000X1.750000*%
%TD*%
%TA.AperFunction,ComponentPad*%
%ADD12O,2.100000X1.000000*%
%TD*%
%TA.AperFunction,ComponentPad*%
%ADD13O,1.600000X1.000000*%
%TD*%
%TA.AperFunction,ViaPad*%
%ADD14C,0.800000*%
%TD*%
%TA.AperFunction,Conductor*%
%ADD15C,0.254000*%
%TD*%
%TA.AperFunction,Conductor*%
%ADD16C,0.100000*%
%TD*%
G04 APERTURE END LIST*
D10*
%TO.N,GND*%
%TO.C,J202*%
X208407000Y-59467000D03*
%TO.N,+BATT*%
X208407000Y-57467000D03*
%TO.N,GND*%
X208407000Y-55467000D03*
%TO.N,+5V*%
%TA.AperFunction,ComponentPad*%
G36*
G01*
X207781999Y-52867000D02*
X209032001Y-52867000D01*
G75*
G02*
X209282000Y-53116999I0J-249999D01*
G01*
X209282000Y-53817001D01*
G75*
G02*
X209032001Y-54067000I-249999J0D01*
G01*
X207781999Y-54067000D01*
G75*
G02*
X207532000Y-53817001I0J249999D01*
G01*
X207532000Y-53116999D01*
G75*
G02*
X207781999Y-52867000I249999J0D01*
G01*
G37*
%TD.AperFunction*%
%TD*%
D11*
%TO.N,/Motor Driver/S4*%
%TO.C,J302*%
X221870000Y-64389000D03*
%TO.N,/Motor Driver/S3*%
X223870000Y-64389000D03*
%TO.N,GND*%
X225870000Y-64389000D03*
%TO.N,+5V*%
X227870000Y-64389000D03*
%TO.N,/Motor Driver/+M2*%
X229870000Y-64389000D03*
%TO.N,/Motor Driver/-M2*%
%TA.AperFunction,ComponentPad*%
G36*
G01*
X232470000Y-63763999D02*
X232470000Y-65014001D01*
G75*
G02*
X232220001Y-65264000I-249999J0D01*
G01*
X231519999Y-65264000D01*
G75*
G02*
X231270000Y-65014001I0J249999D01*
G01*
X231270000Y-63763999D01*
G75*
G02*
X231519999Y-63514000I249999J0D01*
G01*
X232220001Y-63514000D01*
G75*
G02*
X232470000Y-63763999I0J-249999D01*
G01*
G37*
%TD.AperFunction*%
%TD*%
%TO.N,/Motor Driver/S2*%
%TO.C,J301*%
X236887000Y-64389000D03*
%TO.N,/Motor Driver/S1*%
X238887000Y-64389000D03*
%TO.N,GND*%
X240887000Y-64389000D03*
%TO.N,+5V*%
X242887000Y-64389000D03*
%TO.N,/Motor Driver/+M1*%
X244887000Y-64389000D03*
%TO.N,/Motor Driver/-M1*%
%TA.AperFunction,ComponentPad*%
G36*
G01*
X247487000Y-63763999D02*
X247487000Y-65014001D01*
G75*
G02*
X247237001Y-65264000I-249999J0D01*
G01*
X246536999Y-65264000D01*
G75*
G02*
X246287000Y-65014001I0J249999D01*
G01*
X246287000Y-63763999D01*
G75*
G02*
X246536999Y-63514000I249999J0D01*
G01*
X247237001Y-63514000D01*
G75*
G02*
X247487000Y-63763999I0J-249999D01*
G01*
G37*
%TD.AperFunction*%
%TD*%
D12*
%TO.N,Net-(J201-PadS1)*%
%TO.C,J201*%
X209428800Y-41023000D03*
X209428800Y-32383000D03*
D13*
X205248800Y-32383000D03*
X205248800Y-41023000D03*
%TD*%
D14*
%TO.N,GND*%
X248856500Y-30632400D03*
X248869200Y-35534600D03*
X218160600Y-36703000D03*
X219049600Y-37592000D03*
X217271600Y-37592000D03*
X219049600Y-35814000D03*
X217271600Y-35814000D03*
X213080600Y-31064200D03*
X223621600Y-34366200D03*
X223647000Y-35382200D03*
X223647000Y-36372800D03*
X226796600Y-45745400D03*
X211582000Y-41656000D03*
X231089200Y-59156600D03*
X232613200Y-59156600D03*
X234137200Y-59156600D03*
X247091200Y-59982100D03*
X248615200Y-59982100D03*
X249897900Y-60007500D03*
X205181200Y-35331400D03*
X205181200Y-36601400D03*
X205206600Y-37846000D03*
X255066800Y-39903400D03*
X245287800Y-46355000D03*
X248361200Y-43307000D03*
X253263400Y-59309000D03*
X212191600Y-44196000D03*
X203073000Y-44196000D03*
X204647800Y-44196000D03*
X206324200Y-44196000D03*
X239763300Y-53047900D03*
X237121700Y-59156600D03*
X235597700Y-59156600D03*
X249034300Y-58496200D03*
X249034300Y-56781700D03*
%TO.N,+5V*%
X207924400Y-35382200D03*
X207949800Y-37820600D03*
X207924400Y-36601400D03*
X211799347Y-34304147D03*
X221335600Y-39591198D03*
X231927400Y-40995600D03*
X231952800Y-42519600D03*
X231851200Y-36195000D03*
X231876600Y-37820600D03*
X231902000Y-39395400D03*
X211836000Y-39192200D03*
X231927400Y-43942000D03*
X233324400Y-39395400D03*
X233375200Y-42519600D03*
X233299000Y-37820600D03*
X233273600Y-36195000D03*
X233349800Y-40995600D03*
X233349800Y-43942000D03*
%TO.N,VCC*%
X229870000Y-46558200D03*
X231825800Y-46558200D03*
X233807000Y-46558200D03*
X234797600Y-47548800D03*
X232791000Y-47548800D03*
X230860600Y-47548800D03*
X228904800Y-47548800D03*
X227914200Y-48539400D03*
X229870000Y-48539400D03*
X231825800Y-48539400D03*
X233807000Y-48539400D03*
X234797600Y-49530000D03*
X232791000Y-49530000D03*
X230860600Y-49530000D03*
X228904800Y-49530000D03*
X227914200Y-46558200D03*
X236016800Y-48539400D03*
X236016800Y-46558200D03*
X240665000Y-52501800D03*
X220726000Y-54305769D03*
X253847600Y-43129200D03*
X250647200Y-39979600D03*
X226974400Y-56819800D03*
X241795300Y-57048409D03*
%TO.N,/Motor Driver/OUT4*%
X217754200Y-50088800D03*
X231343200Y-57835800D03*
%TO.N,/Motor Driver/OUT3*%
X219583000Y-44500800D03*
X230962200Y-56718200D03*
%TO.N,/Motor Driver/OUT2*%
X226796600Y-47218600D03*
X247077231Y-58441594D03*
%TO.N,/Motor Driver/OUT1*%
X226999800Y-51333400D03*
X247091210Y-57162700D03*
%TO.N,/Motor Driver/EN*%
X239471196Y-42037000D03*
X240182400Y-56286398D03*
X249542300Y-46316900D03*
%TO.N,+BATT*%
X226923600Y-58826400D03*
X225323400Y-58851800D03*
X223647000Y-58851800D03*
X241312700Y-59372500D03*
X239636300Y-59372500D03*
X242912900Y-59347100D03*
X225323400Y-60223400D03*
X223647000Y-60223400D03*
X226923600Y-60223400D03*
X241312700Y-60693300D03*
X239636300Y-60693300D03*
X242912900Y-60667900D03*
%TO.N,/Sheet60A2E58A/RESET*%
X245770400Y-43180000D03*
X250164600Y-38836600D03*
%TD*%
D15*
%TO.N,GND*%
X215484569Y-28104263D02*
X215200402Y-28294137D01*
X214958737Y-28535802D01*
X214768863Y-28819969D01*
X214638075Y-29135719D01*
X214571400Y-29470917D01*
X214571400Y-29812683D01*
X214638075Y-30147881D01*
X214768863Y-30463631D01*
X214958737Y-30747798D01*
X215200402Y-30989463D01*
X215484569Y-31179337D01*
X215800319Y-31310125D01*
X216135517Y-31376800D01*
X216477283Y-31376800D01*
X216812481Y-31310125D01*
X217128231Y-31179337D01*
X217412398Y-30989463D01*
X217654063Y-30747798D01*
X217843937Y-30463631D01*
X217974725Y-30147881D01*
X218041400Y-29812683D01*
X218041400Y-29470917D01*
X217974725Y-29135719D01*
X217843937Y-28819969D01*
X217654063Y-28535802D01*
X217412398Y-28294137D01*
X217128231Y-28104263D01*
X217097660Y-28091600D01*
X255875740Y-28091600D01*
X255845169Y-28104263D01*
X255561002Y-28294137D01*
X255319337Y-28535802D01*
X255129463Y-28819969D01*
X254998675Y-29135719D01*
X254932000Y-29470917D01*
X254932000Y-29812683D01*
X254998675Y-30147881D01*
X255129463Y-30463631D01*
X255319337Y-30747798D01*
X255561002Y-30989463D01*
X255845169Y-31179337D01*
X256160919Y-31310125D01*
X256496117Y-31376800D01*
X256837883Y-31376800D01*
X257173081Y-31310125D01*
X257488831Y-31179337D01*
X257772998Y-30989463D01*
X258014663Y-30747798D01*
X258204537Y-30463631D01*
X258217200Y-30433060D01*
X258217201Y-65197942D01*
X258204537Y-65167369D01*
X258014663Y-64883202D01*
X257772998Y-64641537D01*
X257488831Y-64451663D01*
X257173081Y-64320875D01*
X256837883Y-64254200D01*
X256496117Y-64254200D01*
X256160919Y-64320875D01*
X255845169Y-64451663D01*
X255561002Y-64641537D01*
X255319337Y-64883202D01*
X255129463Y-65167369D01*
X254998675Y-65483119D01*
X254932000Y-65818317D01*
X254932000Y-66160083D01*
X254998675Y-66495281D01*
X255129463Y-66811031D01*
X255319337Y-67095198D01*
X255561002Y-67336863D01*
X255845169Y-67526737D01*
X255937061Y-67564800D01*
X204645497Y-67564800D01*
X204860031Y-67475937D01*
X205144198Y-67286063D01*
X205385863Y-67044398D01*
X205575737Y-66760231D01*
X205706525Y-66444481D01*
X205773200Y-66109283D01*
X205773200Y-65767517D01*
X205706525Y-65432319D01*
X205575737Y-65116569D01*
X205385863Y-64832402D01*
X205144198Y-64590737D01*
X204860031Y-64400863D01*
X204544281Y-64270075D01*
X204209083Y-64203400D01*
X203867317Y-64203400D01*
X203532119Y-64270075D01*
X203216369Y-64400863D01*
X202932202Y-64590737D01*
X202690537Y-64832402D01*
X202500663Y-65116569D01*
X202462600Y-65208461D01*
X202462600Y-64053335D01*
X220635000Y-64053335D01*
X220635000Y-64724664D01*
X220652870Y-64906101D01*
X220723489Y-65138900D01*
X220838167Y-65353448D01*
X220992498Y-65541502D01*
X221180551Y-65695833D01*
X221395099Y-65810511D01*
X221627898Y-65881130D01*
X221870000Y-65904975D01*
X222112101Y-65881130D01*
X222344900Y-65810511D01*
X222559448Y-65695833D01*
X222747502Y-65541502D01*
X222870000Y-65392237D01*
X222992498Y-65541502D01*
X223180551Y-65695833D01*
X223395099Y-65810511D01*
X223627898Y-65881130D01*
X223870000Y-65904975D01*
X224112101Y-65881130D01*
X224344900Y-65810511D01*
X224559448Y-65695833D01*
X224747502Y-65541502D01*
X224870481Y-65391652D01*
X224913693Y-65455725D01*
X225086526Y-65627078D01*
X225289467Y-65761421D01*
X225514718Y-65853591D01*
X225552391Y-65857462D01*
X225743000Y-65732731D01*
X225743000Y-64516000D01*
X225723000Y-64516000D01*
X225723000Y-64262000D01*
X225743000Y-64262000D01*
X225743000Y-63045269D01*
X225997000Y-63045269D01*
X225997000Y-64262000D01*
X226017000Y-64262000D01*
X226017000Y-64516000D01*
X225997000Y-64516000D01*
X225997000Y-65732731D01*
X226187609Y-65857462D01*
X226225282Y-65853591D01*
X226450533Y-65761421D01*
X226653474Y-65627078D01*
X226826307Y-65455725D01*
X226869519Y-65391651D01*
X226992498Y-65541502D01*
X227180551Y-65695833D01*
X227395099Y-65810511D01*
X227627898Y-65881130D01*
X227870000Y-65904975D01*
X228112101Y-65881130D01*
X228344900Y-65810511D01*
X228559448Y-65695833D01*
X228747502Y-65541502D01*
X228870000Y-65392237D01*
X228992498Y-65541502D01*
X229180551Y-65695833D01*
X229395099Y-65810511D01*
X229627898Y-65881130D01*
X229870000Y-65904975D01*
X230112101Y-65881130D01*
X230344900Y-65810511D01*
X230559448Y-65695833D01*
X230747502Y-65541502D01*
X230779191Y-65502889D01*
X230781595Y-65507387D01*
X230892038Y-65641962D01*
X231026613Y-65752405D01*
X231180149Y-65834472D01*
X231346745Y-65885008D01*
X231519999Y-65902072D01*
X232220001Y-65902072D01*
X232393255Y-65885008D01*
X232559851Y-65834472D01*
X232713387Y-65752405D01*
X232847962Y-65641962D01*
X232958405Y-65507387D01*
X233040472Y-65353851D01*
X233091008Y-65187255D01*
X233108072Y-65014001D01*
X233108072Y-64053335D01*
X235652000Y-64053335D01*
X235652000Y-64724664D01*
X235669870Y-64906101D01*
X235740489Y-65138900D01*
X235855167Y-65353448D01*
X236009498Y-65541502D01*
X236197551Y-65695833D01*
X236412099Y-65810511D01*
X236644898Y-65881130D01*
X236887000Y-65904975D01*
X237129101Y-65881130D01*
X237361900Y-65810511D01*
X237576448Y-65695833D01*
X237764502Y-65541502D01*
X237887000Y-65392237D01*
X238009498Y-65541502D01*
X238197551Y-65695833D01*
X238412099Y-65810511D01*
X238644898Y-65881130D01*
X238887000Y-65904975D01*
X239129101Y-65881130D01*
X239361900Y-65810511D01*
X239576448Y-65695833D01*
X239764502Y-65541502D01*
X239887481Y-65391652D01*
X239930693Y-65455725D01*
X240103526Y-65627078D01*
X240306467Y-65761421D01*
X240531718Y-65853591D01*
X240569391Y-65857462D01*
X240760000Y-65732731D01*
X240760000Y-64516000D01*
X240740000Y-64516000D01*
X240740000Y-64262000D01*
X240760000Y-64262000D01*
X240760000Y-63045269D01*
X241014000Y-63045269D01*
X241014000Y-64262000D01*
X241034000Y-64262000D01*
X241034000Y-64516000D01*
X241014000Y-64516000D01*
X241014000Y-65732731D01*
X241204609Y-65857462D01*
X241242282Y-65853591D01*
X241467533Y-65761421D01*
X241670474Y-65627078D01*
X241843307Y-65455725D01*
X241886519Y-65391651D01*
X242009498Y-65541502D01*
X242197551Y-65695833D01*
X242412099Y-65810511D01*
X242644898Y-65881130D01*
X242887000Y-65904975D01*
X243129101Y-65881130D01*
X243361900Y-65810511D01*
X243576448Y-65695833D01*
X243764502Y-65541502D01*
X243887000Y-65392237D01*
X244009498Y-65541502D01*
X244197551Y-65695833D01*
X244412099Y-65810511D01*
X244644898Y-65881130D01*
X244887000Y-65904975D01*
X245129101Y-65881130D01*
X245361900Y-65810511D01*
X245576448Y-65695833D01*
X245764502Y-65541502D01*
X245796191Y-65502889D01*
X245798595Y-65507387D01*
X245909038Y-65641962D01*
X246043613Y-65752405D01*
X246197149Y-65834472D01*
X246363745Y-65885008D01*
X246536999Y-65902072D01*
X247237001Y-65902072D01*
X247410255Y-65885008D01*
X247576851Y-65834472D01*
X247730387Y-65752405D01*
X247864962Y-65641962D01*
X247975405Y-65507387D01*
X248057472Y-65353851D01*
X248108008Y-65187255D01*
X248125072Y-65014001D01*
X248125072Y-63763999D01*
X248108008Y-63590745D01*
X248057472Y-63424149D01*
X247975405Y-63270613D01*
X247864962Y-63136038D01*
X247730387Y-63025595D01*
X247576851Y-62943528D01*
X247410255Y-62892992D01*
X247237001Y-62875928D01*
X246536999Y-62875928D01*
X246363745Y-62892992D01*
X246197149Y-62943528D01*
X246043613Y-63025595D01*
X245909038Y-63136038D01*
X245798595Y-63270613D01*
X245796191Y-63275111D01*
X245764502Y-63236498D01*
X245576449Y-63082167D01*
X245361901Y-62967489D01*
X245129102Y-62896870D01*
X244887000Y-62873025D01*
X244644899Y-62896870D01*
X244412100Y-62967489D01*
X244197552Y-63082167D01*
X244009499Y-63236498D01*
X243887001Y-63385763D01*
X243764502Y-63236498D01*
X243576449Y-63082167D01*
X243361901Y-62967489D01*
X243129102Y-62896870D01*
X242887000Y-62873025D01*
X242644899Y-62896870D01*
X242412100Y-62967489D01*
X242197552Y-63082167D01*
X242009499Y-63236498D01*
X241886520Y-63386349D01*
X241843307Y-63322275D01*
X241670474Y-63150922D01*
X241467533Y-63016579D01*
X241242282Y-62924409D01*
X241204609Y-62920538D01*
X241014000Y-63045269D01*
X240760000Y-63045269D01*
X240569391Y-62920538D01*
X240531718Y-62924409D01*
X240306467Y-63016579D01*
X240103526Y-63150922D01*
X239930693Y-63322275D01*
X239887481Y-63386348D01*
X239764502Y-63236498D01*
X239576449Y-63082167D01*
X239361901Y-62967489D01*
X239129102Y-62896870D01*
X238887000Y-62873025D01*
X238644899Y-62896870D01*
X238412100Y-62967489D01*
X238197552Y-63082167D01*
X238009499Y-63236498D01*
X237887001Y-63385763D01*
X237764502Y-63236498D01*
X237576449Y-63082167D01*
X237361901Y-62967489D01*
X237129102Y-62896870D01*
X236887000Y-62873025D01*
X236644899Y-62896870D01*
X236412100Y-62967489D01*
X236197552Y-63082167D01*
X236009499Y-63236498D01*
X235855168Y-63424551D01*
X235740489Y-63639099D01*
X235669870Y-63871898D01*
X235652000Y-64053335D01*
X233108072Y-64053335D01*
X233108072Y-63763999D01*
X233091008Y-63590745D01*
X233040472Y-63424149D01*
X232958405Y-63270613D01*
X232847962Y-63136038D01*
X232713387Y-63025595D01*
X232559851Y-62943528D01*
X232393255Y-62892992D01*
X232220001Y-62875928D01*
X231519999Y-62875928D01*
X231346745Y-62892992D01*
X231180149Y-62943528D01*
X231026613Y-63025595D01*
X230892038Y-63136038D01*
X230781595Y-63270613D01*
X230779191Y-63275111D01*
X230747502Y-63236498D01*
X230559449Y-63082167D01*
X230344901Y-62967489D01*
X230112102Y-62896870D01*
X229870000Y-62873025D01*
X229627899Y-62896870D01*
X229395100Y-62967489D01*
X229180552Y-63082167D01*
X228992499Y-63236498D01*
X228870001Y-63385763D01*
X228747502Y-63236498D01*
X228559449Y-63082167D01*
X228344901Y-62967489D01*
X228112102Y-62896870D01*
X227870000Y-62873025D01*
X227627899Y-62896870D01*
X227395100Y-62967489D01*
X227180552Y-63082167D01*
X226992499Y-63236498D01*
X226869520Y-63386349D01*
X226826307Y-63322275D01*
X226653474Y-63150922D01*
X226450533Y-63016579D01*
X226225282Y-62924409D01*
X226187609Y-62920538D01*
X225997000Y-63045269D01*
X225743000Y-63045269D01*
X225552391Y-62920538D01*
X225514718Y-62924409D01*
X225289467Y-63016579D01*
X225086526Y-63150922D01*
X224913693Y-63322275D01*
X224870481Y-63386348D01*
X224747502Y-63236498D01*
X224559449Y-63082167D01*
X224344901Y-62967489D01*
X224112102Y-62896870D01*
X223870000Y-62873025D01*
X223627899Y-62896870D01*
X223395100Y-62967489D01*
X223180552Y-63082167D01*
X222992499Y-63236498D01*
X222870001Y-63385763D01*
X222747502Y-63236498D01*
X222559449Y-63082167D01*
X222344901Y-62967489D01*
X222112102Y-62896870D01*
X221870000Y-62873025D01*
X221627899Y-62896870D01*
X221395100Y-62967489D01*
X221180552Y-63082167D01*
X220992499Y-63236498D01*
X220838168Y-63424551D01*
X220723489Y-63639099D01*
X220652870Y-63871898D01*
X220635000Y-64053335D01*
X202462600Y-64053335D01*
X202462600Y-59784609D01*
X206938538Y-59784609D01*
X206942409Y-59822282D01*
X207034579Y-60047533D01*
X207168922Y-60250474D01*
X207340275Y-60423307D01*
X207542054Y-60559390D01*
X207766504Y-60653493D01*
X208005000Y-60702000D01*
X208280000Y-60702000D01*
X208280000Y-59594000D01*
X208534000Y-59594000D01*
X208534000Y-60702000D01*
X208809000Y-60702000D01*
X209047496Y-60653493D01*
X209271946Y-60559390D01*
X209473725Y-60423307D01*
X209645078Y-60250474D01*
X209779421Y-60047533D01*
X209871591Y-59822282D01*
X209875462Y-59784609D01*
X209750731Y-59594000D01*
X208534000Y-59594000D01*
X208280000Y-59594000D01*
X207063269Y-59594000D01*
X206938538Y-59784609D01*
X202462600Y-59784609D01*
X202462600Y-57467000D01*
X206891025Y-57467000D01*
X206914870Y-57709102D01*
X206985489Y-57941901D01*
X207100167Y-58156449D01*
X207254498Y-58344502D01*
X207404348Y-58467481D01*
X207340275Y-58510693D01*
X207168922Y-58683526D01*
X207034579Y-58886467D01*
X206942409Y-59111718D01*
X206938538Y-59149391D01*
X207063269Y-59340000D01*
X208280000Y-59340000D01*
X208280000Y-59320000D01*
X208534000Y-59320000D01*
X208534000Y-59340000D01*
X209750731Y-59340000D01*
X209875462Y-59149391D01*
X209871591Y-59111718D01*
X209779421Y-58886467D01*
X209688991Y-58749861D01*
X222612000Y-58749861D01*
X222612000Y-58953739D01*
X222651774Y-59153698D01*
X222729795Y-59342056D01*
X222843063Y-59511574D01*
X222869089Y-59537600D01*
X222843063Y-59563626D01*
X222729795Y-59733144D01*
X222651774Y-59921502D01*
X222612000Y-60121461D01*
X222612000Y-60325339D01*
X222651774Y-60525298D01*
X222729795Y-60713656D01*
X222843063Y-60883174D01*
X222987226Y-61027337D01*
X223156744Y-61140605D01*
X223345102Y-61218626D01*
X223545061Y-61258400D01*
X223748939Y-61258400D01*
X223948898Y-61218626D01*
X224137256Y-61140605D01*
X224306774Y-61027337D01*
X224450937Y-60883174D01*
X224485200Y-60831896D01*
X224519463Y-60883174D01*
X224663626Y-61027337D01*
X224833144Y-61140605D01*
X225021502Y-61218626D01*
X225221461Y-61258400D01*
X225425339Y-61258400D01*
X225625298Y-61218626D01*
X225813656Y-61140605D01*
X225983174Y-61027337D01*
X226123500Y-60887011D01*
X226263826Y-61027337D01*
X226433344Y-61140605D01*
X226621702Y-61218626D01*
X226821661Y-61258400D01*
X227025539Y-61258400D01*
X227225498Y-61218626D01*
X227413856Y-61140605D01*
X227583374Y-61027337D01*
X227727537Y-60883174D01*
X227840805Y-60713656D01*
X227918826Y-60525298D01*
X227958600Y-60325339D01*
X227958600Y-60121461D01*
X227918826Y-59921502D01*
X227840805Y-59733144D01*
X227727537Y-59563626D01*
X227688811Y-59524900D01*
X227727537Y-59486174D01*
X227840805Y-59316656D01*
X227859898Y-59270561D01*
X238601300Y-59270561D01*
X238601300Y-59474439D01*
X238641074Y-59674398D01*
X238719095Y-59862756D01*
X238832363Y-60032274D01*
X238832989Y-60032900D01*
X238832363Y-60033526D01*
X238719095Y-60203044D01*
X238641074Y-60391402D01*
X238601300Y-60591361D01*
X238601300Y-60795239D01*
X238641074Y-60995198D01*
X238719095Y-61183556D01*
X238832363Y-61353074D01*
X238976526Y-61497237D01*
X239146044Y-61610505D01*
X239334402Y-61688526D01*
X239534361Y-61728300D01*
X239738239Y-61728300D01*
X239938198Y-61688526D01*
X240126556Y-61610505D01*
X240296074Y-61497237D01*
X240440237Y-61353074D01*
X240474500Y-61301796D01*
X240508763Y-61353074D01*
X240652926Y-61497237D01*
X240822444Y-61610505D01*
X241010802Y-61688526D01*
X241210761Y-61728300D01*
X241414639Y-61728300D01*
X241614598Y-61688526D01*
X241802956Y-61610505D01*
X241972474Y-61497237D01*
X242116637Y-61353074D01*
X242123737Y-61342448D01*
X242253126Y-61471837D01*
X242422644Y-61585105D01*
X242611002Y-61663126D01*
X242810961Y-61702900D01*
X243014839Y-61702900D01*
X243214798Y-61663126D01*
X243403156Y-61585105D01*
X243572674Y-61471837D01*
X243716837Y-61327674D01*
X243830105Y-61158156D01*
X243908126Y-60969798D01*
X243947900Y-60769839D01*
X243947900Y-60565961D01*
X243908126Y-60366002D01*
X243830105Y-60177644D01*
X243716837Y-60008126D01*
X243716211Y-60007500D01*
X243716837Y-60006874D01*
X243830105Y-59837356D01*
X243908126Y-59648998D01*
X243947900Y-59449039D01*
X243947900Y-59245161D01*
X243908126Y-59045202D01*
X243830105Y-58856844D01*
X243716837Y-58687326D01*
X243572674Y-58543163D01*
X243403156Y-58429895D01*
X243214798Y-58351874D01*
X243153369Y-58339655D01*
X246042231Y-58339655D01*
X246042231Y-58543533D01*
X246082005Y-58743492D01*
X246160026Y-58931850D01*
X246273294Y-59101368D01*
X246417457Y-59245531D01*
X246586975Y-59358799D01*
X246775333Y-59436820D01*
X246975292Y-59476594D01*
X247179170Y-59476594D01*
X247379129Y-59436820D01*
X247567487Y-59358799D01*
X247737005Y-59245531D01*
X247881168Y-59101368D01*
X247994436Y-58931850D01*
X248072457Y-58743492D01*
X248112231Y-58543533D01*
X248112231Y-58339655D01*
X248072457Y-58139696D01*
X247994436Y-57951338D01*
X247901740Y-57812608D01*
X248008415Y-57652956D01*
X248086436Y-57464598D01*
X248126210Y-57264639D01*
X248126210Y-57060761D01*
X248086436Y-56860802D01*
X248008415Y-56672444D01*
X247895147Y-56502926D01*
X247750984Y-56358763D01*
X247581466Y-56245495D01*
X247393108Y-56167474D01*
X247193149Y-56127700D01*
X246989271Y-56127700D01*
X246789312Y-56167474D01*
X246600954Y-56245495D01*
X246431436Y-56358763D01*
X246287273Y-56502926D01*
X246174005Y-56672444D01*
X246095984Y-56860802D01*
X246056210Y-57060761D01*
X246056210Y-57264639D01*
X246095984Y-57464598D01*
X246174005Y-57652956D01*
X246266701Y-57791686D01*
X246160026Y-57951338D01*
X246082005Y-58139696D01*
X246042231Y-58339655D01*
X243153369Y-58339655D01*
X243014839Y-58312100D01*
X242810961Y-58312100D01*
X242611002Y-58351874D01*
X242422644Y-58429895D01*
X242253126Y-58543163D01*
X242108963Y-58687326D01*
X242101863Y-58697952D01*
X241972474Y-58568563D01*
X241802956Y-58455295D01*
X241614598Y-58377274D01*
X241414639Y-58337500D01*
X241210761Y-58337500D01*
X241010802Y-58377274D01*
X240822444Y-58455295D01*
X240652926Y-58568563D01*
X240508763Y-58712726D01*
X240474500Y-58764004D01*
X240440237Y-58712726D01*
X240296074Y-58568563D01*
X240126556Y-58455295D01*
X239938198Y-58377274D01*
X239738239Y-58337500D01*
X239534361Y-58337500D01*
X239334402Y-58377274D01*
X239146044Y-58455295D01*
X238976526Y-58568563D01*
X238832363Y-58712726D01*
X238719095Y-58882244D01*
X238641074Y-59070602D01*
X238601300Y-59270561D01*
X227859898Y-59270561D01*
X227918826Y-59128298D01*
X227958600Y-58928339D01*
X227958600Y-58724461D01*
X227918826Y-58524502D01*
X227840805Y-58336144D01*
X227727537Y-58166626D01*
X227583374Y-58022463D01*
X227413856Y-57909195D01*
X227225498Y-57831174D01*
X227210307Y-57828152D01*
X227276298Y-57815026D01*
X227464656Y-57737005D01*
X227634174Y-57623737D01*
X227778337Y-57479574D01*
X227891605Y-57310056D01*
X227969626Y-57121698D01*
X228009400Y-56921739D01*
X228009400Y-56717861D01*
X227989191Y-56616261D01*
X229927200Y-56616261D01*
X229927200Y-56820139D01*
X229966974Y-57020098D01*
X230044995Y-57208456D01*
X230158263Y-57377974D01*
X230302426Y-57522137D01*
X230344696Y-57550381D01*
X230308200Y-57733861D01*
X230308200Y-57937739D01*
X230347974Y-58137698D01*
X230425995Y-58326056D01*
X230539263Y-58495574D01*
X230683426Y-58639737D01*
X230852944Y-58753005D01*
X231041302Y-58831026D01*
X231241261Y-58870800D01*
X231445139Y-58870800D01*
X231645098Y-58831026D01*
X231833456Y-58753005D01*
X232002974Y-58639737D01*
X232147137Y-58495574D01*
X232260405Y-58326056D01*
X232338426Y-58137698D01*
X232378200Y-57937739D01*
X232378200Y-57733861D01*
X232338426Y-57533902D01*
X232260405Y-57345544D01*
X232147137Y-57176026D01*
X232002974Y-57031863D01*
X231960704Y-57003619D01*
X231997200Y-56820139D01*
X231997200Y-56616261D01*
X231957426Y-56416302D01*
X231879405Y-56227944D01*
X231850350Y-56184459D01*
X239147400Y-56184459D01*
X239147400Y-56388337D01*
X239187174Y-56588296D01*
X239265195Y-56776654D01*
X239378463Y-56946172D01*
X239522626Y-57090335D01*
X239692144Y-57203603D01*
X239880502Y-57281624D01*
X240080461Y-57321398D01*
X240284339Y-57321398D01*
X240484298Y-57281624D01*
X240672656Y-57203603D01*
X240760300Y-57145041D01*
X240760300Y-57150348D01*
X240800074Y-57350307D01*
X240878095Y-57538665D01*
X240991363Y-57708183D01*
X241135526Y-57852346D01*
X241305044Y-57965614D01*
X241493402Y-58043635D01*
X241693361Y-58083409D01*
X241897239Y-58083409D01*
X242097198Y-58043635D01*
X242285556Y-57965614D01*
X242455074Y-57852346D01*
X242599237Y-57708183D01*
X242712505Y-57538665D01*
X242790526Y-57350307D01*
X242830300Y-57150348D01*
X242830300Y-56946470D01*
X242790526Y-56746511D01*
X242712505Y-56558153D01*
X242599237Y-56388635D01*
X242455074Y-56244472D01*
X242285556Y-56131204D01*
X242097198Y-56053183D01*
X241897239Y-56013409D01*
X241693361Y-56013409D01*
X241493402Y-56053183D01*
X241305044Y-56131204D01*
X241217400Y-56189766D01*
X241217400Y-56184459D01*
X241177626Y-55984500D01*
X241099605Y-55796142D01*
X240986337Y-55626624D01*
X240842174Y-55482461D01*
X240672656Y-55369193D01*
X240484298Y-55291172D01*
X240284339Y-55251398D01*
X240080461Y-55251398D01*
X239880502Y-55291172D01*
X239692144Y-55369193D01*
X239522626Y-55482461D01*
X239378463Y-55626624D01*
X239265195Y-55796142D01*
X239187174Y-55984500D01*
X239147400Y-56184459D01*
X231850350Y-56184459D01*
X231766137Y-56058426D01*
X231621974Y-55914263D01*
X231452456Y-55800995D01*
X231264098Y-55722974D01*
X231064139Y-55683200D01*
X230860261Y-55683200D01*
X230660302Y-55722974D01*
X230471944Y-55800995D01*
X230302426Y-55914263D01*
X230158263Y-56058426D01*
X230044995Y-56227944D01*
X229966974Y-56416302D01*
X229927200Y-56616261D01*
X227989191Y-56616261D01*
X227969626Y-56517902D01*
X227891605Y-56329544D01*
X227778337Y-56160026D01*
X227634174Y-56015863D01*
X227464656Y-55902595D01*
X227276298Y-55824574D01*
X227076339Y-55784800D01*
X226872461Y-55784800D01*
X226672502Y-55824574D01*
X226484144Y-55902595D01*
X226314626Y-56015863D01*
X226170463Y-56160026D01*
X226057195Y-56329544D01*
X225979174Y-56517902D01*
X225939400Y-56717861D01*
X225939400Y-56921739D01*
X225979174Y-57121698D01*
X226057195Y-57310056D01*
X226170463Y-57479574D01*
X226314626Y-57623737D01*
X226484144Y-57737005D01*
X226672502Y-57815026D01*
X226687693Y-57818048D01*
X226621702Y-57831174D01*
X226433344Y-57909195D01*
X226263826Y-58022463D01*
X226119663Y-58166626D01*
X226112563Y-58177252D01*
X225983174Y-58047863D01*
X225813656Y-57934595D01*
X225625298Y-57856574D01*
X225425339Y-57816800D01*
X225221461Y-57816800D01*
X225021502Y-57856574D01*
X224833144Y-57934595D01*
X224663626Y-58047863D01*
X224519463Y-58192026D01*
X224485200Y-58243304D01*
X224450937Y-58192026D01*
X224306774Y-58047863D01*
X224137256Y-57934595D01*
X223948898Y-57856574D01*
X223748939Y-57816800D01*
X223545061Y-57816800D01*
X223345102Y-57856574D01*
X223156744Y-57934595D01*
X222987226Y-58047863D01*
X222843063Y-58192026D01*
X222729795Y-58361544D01*
X222651774Y-58549902D01*
X222612000Y-58749861D01*
X209688991Y-58749861D01*
X209645078Y-58683526D01*
X209473725Y-58510693D01*
X209409652Y-58467481D01*
X209559502Y-58344502D01*
X209713833Y-58156449D01*
X209828511Y-57941901D01*
X209899130Y-57709102D01*
X209922975Y-57467000D01*
X209899130Y-57224898D01*
X209828511Y-56992099D01*
X209713833Y-56777551D01*
X209559502Y-56589498D01*
X209409652Y-56466519D01*
X209473725Y-56423307D01*
X209645078Y-56250474D01*
X209779421Y-56047533D01*
X209871591Y-55822282D01*
X209875462Y-55784609D01*
X209750731Y-55594000D01*
X208534000Y-55594000D01*
X208534000Y-55614000D01*
X208280000Y-55614000D01*
X208280000Y-55594000D01*
X207063269Y-55594000D01*
X206938538Y-55784609D01*
X206942409Y-55822282D01*
X207034579Y-56047533D01*
X207168922Y-56250474D01*
X207340275Y-56423307D01*
X207404348Y-56466519D01*
X207254498Y-56589498D01*
X207100167Y-56777551D01*
X206985489Y-56992099D01*
X206914870Y-57224898D01*
X206891025Y-57467000D01*
X202462600Y-57467000D01*
X202462600Y-53116999D01*
X206893928Y-53116999D01*
X206893928Y-53817001D01*
X206910992Y-53990255D01*
X206961528Y-54156851D01*
X207043595Y-54310387D01*
X207154038Y-54444962D01*
X207288613Y-54555405D01*
X207293406Y-54557967D01*
X207168922Y-54683526D01*
X207034579Y-54886467D01*
X206942409Y-55111718D01*
X206938538Y-55149391D01*
X207063269Y-55340000D01*
X208280000Y-55340000D01*
X208280000Y-55320000D01*
X208534000Y-55320000D01*
X208534000Y-55340000D01*
X209750731Y-55340000D01*
X209875462Y-55149391D01*
X209871591Y-55111718D01*
X209779421Y-54886467D01*
X209645078Y-54683526D01*
X209520594Y-54557967D01*
X209525387Y-54555405D01*
X209659962Y-54444962D01*
X209770405Y-54310387D01*
X209827361Y-54203830D01*
X219691000Y-54203830D01*
X219691000Y-54407708D01*
X219730774Y-54607667D01*
X219808795Y-54796025D01*
X219922063Y-54965543D01*
X220066226Y-55109706D01*
X220235744Y-55222974D01*
X220424102Y-55300995D01*
X220624061Y-55340769D01*
X220827939Y-55340769D01*
X221027898Y-55300995D01*
X221216256Y-55222974D01*
X221385774Y-55109706D01*
X221529937Y-54965543D01*
X221643205Y-54796025D01*
X221721226Y-54607667D01*
X221761000Y-54407708D01*
X221761000Y-54203830D01*
X221721226Y-54003871D01*
X221643205Y-53815513D01*
X221529937Y-53645995D01*
X221385774Y-53501832D01*
X221216256Y-53388564D01*
X221027898Y-53310543D01*
X220827939Y-53270769D01*
X220624061Y-53270769D01*
X220424102Y-53310543D01*
X220235744Y-53388564D01*
X220066226Y-53501832D01*
X219922063Y-53645995D01*
X219808795Y-53815513D01*
X219730774Y-54003871D01*
X219691000Y-54203830D01*
X209827361Y-54203830D01*
X209852472Y-54156851D01*
X209903008Y-53990255D01*
X209920072Y-53817001D01*
X209920072Y-53116999D01*
X209903008Y-52943745D01*
X209852472Y-52777149D01*
X209770405Y-52623613D01*
X209659962Y-52489038D01*
X209551300Y-52399861D01*
X239630000Y-52399861D01*
X239630000Y-52603739D01*
X239669774Y-52803698D01*
X239747795Y-52992056D01*
X239861063Y-53161574D01*
X240005226Y-53305737D01*
X240174744Y-53419005D01*
X240363102Y-53497026D01*
X240563061Y-53536800D01*
X240766939Y-53536800D01*
X240966898Y-53497026D01*
X241155256Y-53419005D01*
X241324774Y-53305737D01*
X241468937Y-53161574D01*
X241582205Y-52992056D01*
X241660226Y-52803698D01*
X241700000Y-52603739D01*
X241700000Y-52399861D01*
X241660226Y-52199902D01*
X241582205Y-52011544D01*
X241468937Y-51842026D01*
X241324774Y-51697863D01*
X241155256Y-51584595D01*
X240966898Y-51506574D01*
X240766939Y-51466800D01*
X240563061Y-51466800D01*
X240363102Y-51506574D01*
X240174744Y-51584595D01*
X240005226Y-51697863D01*
X239861063Y-51842026D01*
X239747795Y-52011544D01*
X239669774Y-52199902D01*
X239630000Y-52399861D01*
X209551300Y-52399861D01*
X209525387Y-52378595D01*
X209371851Y-52296528D01*
X209205255Y-52245992D01*
X209032001Y-52228928D01*
X207781999Y-52228928D01*
X207608745Y-52245992D01*
X207442149Y-52296528D01*
X207288613Y-52378595D01*
X207154038Y-52489038D01*
X207043595Y-52623613D01*
X206961528Y-52777149D01*
X206910992Y-52943745D01*
X206893928Y-53116999D01*
X202462600Y-53116999D01*
X202462600Y-51231461D01*
X225964800Y-51231461D01*
X225964800Y-51435339D01*
X226004574Y-51635298D01*
X226082595Y-51823656D01*
X226195863Y-51993174D01*
X226340026Y-52137337D01*
X226509544Y-52250605D01*
X226697902Y-52328626D01*
X226897861Y-52368400D01*
X227101739Y-52368400D01*
X227301698Y-52328626D01*
X227490056Y-52250605D01*
X227659574Y-52137337D01*
X227803737Y-51993174D01*
X227917005Y-51823656D01*
X227995026Y-51635298D01*
X228034800Y-51435339D01*
X228034800Y-51231461D01*
X227995026Y-51031502D01*
X227917005Y-50843144D01*
X227803737Y-50673626D01*
X227659574Y-50529463D01*
X227490056Y-50416195D01*
X227301698Y-50338174D01*
X227101739Y-50298400D01*
X226897861Y-50298400D01*
X226697902Y-50338174D01*
X226509544Y-50416195D01*
X226340026Y-50529463D01*
X226195863Y-50673626D01*
X226082595Y-50843144D01*
X226004574Y-51031502D01*
X225964800Y-51231461D01*
X202462600Y-51231461D01*
X202462600Y-49986861D01*
X216719200Y-49986861D01*
X216719200Y-50190739D01*
X216758974Y-50390698D01*
X216836995Y-50579056D01*
X216950263Y-50748574D01*
X217094426Y-50892737D01*
X217263944Y-51006005D01*
X217452302Y-51084026D01*
X217652261Y-51123800D01*
X217856139Y-51123800D01*
X218056098Y-51084026D01*
X218244456Y-51006005D01*
X218413974Y-50892737D01*
X218558137Y-50748574D01*
X218671405Y-50579056D01*
X218749426Y-50390698D01*
X218789200Y-50190739D01*
X218789200Y-49986861D01*
X218749426Y-49786902D01*
X218671405Y-49598544D01*
X218558137Y-49429026D01*
X218413974Y-49284863D01*
X218244456Y-49171595D01*
X218056098Y-49093574D01*
X217856139Y-49053800D01*
X217652261Y-49053800D01*
X217452302Y-49093574D01*
X217263944Y-49171595D01*
X217094426Y-49284863D01*
X216950263Y-49429026D01*
X216836995Y-49598544D01*
X216758974Y-49786902D01*
X216719200Y-49986861D01*
X202462600Y-49986861D01*
X202462600Y-47116661D01*
X225761600Y-47116661D01*
X225761600Y-47320539D01*
X225801374Y-47520498D01*
X225879395Y-47708856D01*
X225992663Y-47878374D01*
X226136826Y-48022537D01*
X226306344Y-48135805D01*
X226494702Y-48213826D01*
X226694661Y-48253600D01*
X226898539Y-48253600D01*
X226916482Y-48250031D01*
X226879200Y-48437461D01*
X226879200Y-48641339D01*
X226918974Y-48841298D01*
X226996995Y-49029656D01*
X227110263Y-49199174D01*
X227254426Y-49343337D01*
X227423944Y-49456605D01*
X227612302Y-49534626D01*
X227812261Y-49574400D01*
X227869800Y-49574400D01*
X227869800Y-49631939D01*
X227909574Y-49831898D01*
X227987595Y-50020256D01*
X228100863Y-50189774D01*
X228245026Y-50333937D01*
X228414544Y-50447205D01*
X228602902Y-50525226D01*
X228802861Y-50565000D01*
X229006739Y-50565000D01*
X229206698Y-50525226D01*
X229395056Y-50447205D01*
X229564574Y-50333937D01*
X229708737Y-50189774D01*
X229822005Y-50020256D01*
X229882700Y-49873726D01*
X229943395Y-50020256D01*
X230056663Y-50189774D01*
X230200826Y-50333937D01*
X230370344Y-50447205D01*
X230558702Y-50525226D01*
X230758661Y-50565000D01*
X230962539Y-50565000D01*
X231162498Y-50525226D01*
X231350856Y-50447205D01*
X231520374Y-50333937D01*
X231664537Y-50189774D01*
X231777805Y-50020256D01*
X231825800Y-49904387D01*
X231873795Y-50020256D01*
X231987063Y-50189774D01*
X232131226Y-50333937D01*
X232300744Y-50447205D01*
X232489102Y-50525226D01*
X232689061Y-50565000D01*
X232892939Y-50565000D01*
X233092898Y-50525226D01*
X233281256Y-50447205D01*
X233450774Y-50333937D01*
X233594937Y-50189774D01*
X233708205Y-50020256D01*
X233786226Y-49831898D01*
X233794300Y-49791307D01*
X233802374Y-49831898D01*
X233880395Y-50020256D01*
X233993663Y-50189774D01*
X234137826Y-50333937D01*
X234307344Y-50447205D01*
X234495702Y-50525226D01*
X234695661Y-50565000D01*
X234899539Y-50565000D01*
X235099498Y-50525226D01*
X235287856Y-50447205D01*
X235457374Y-50333937D01*
X235601537Y-50189774D01*
X235714805Y-50020256D01*
X235792826Y-49831898D01*
X235832600Y-49631939D01*
X235832600Y-49558037D01*
X235914861Y-49574400D01*
X236118739Y-49574400D01*
X236318698Y-49534626D01*
X236507056Y-49456605D01*
X236676574Y-49343337D01*
X236820737Y-49199174D01*
X236934005Y-49029656D01*
X237012026Y-48841298D01*
X237051800Y-48641339D01*
X237051800Y-48437461D01*
X237012026Y-48237502D01*
X236934005Y-48049144D01*
X236820737Y-47879626D01*
X236676574Y-47735463D01*
X236507056Y-47622195D01*
X236329866Y-47548800D01*
X236507056Y-47475405D01*
X236676574Y-47362137D01*
X236820737Y-47217974D01*
X236934005Y-47048456D01*
X237012026Y-46860098D01*
X237051800Y-46660139D01*
X237051800Y-46456261D01*
X237012026Y-46256302D01*
X236994902Y-46214961D01*
X248507300Y-46214961D01*
X248507300Y-46418839D01*
X248547074Y-46618798D01*
X248625095Y-46807156D01*
X248738363Y-46976674D01*
X248882526Y-47120837D01*
X249052044Y-47234105D01*
X249240402Y-47312126D01*
X249440361Y-47351900D01*
X249644239Y-47351900D01*
X249844198Y-47312126D01*
X250032556Y-47234105D01*
X250202074Y-47120837D01*
X250346237Y-46976674D01*
X250459505Y-46807156D01*
X250537526Y-46618798D01*
X250577300Y-46418839D01*
X250577300Y-46214961D01*
X250537526Y-46015002D01*
X250459505Y-45826644D01*
X250346237Y-45657126D01*
X250202074Y-45512963D01*
X250032556Y-45399695D01*
X249844198Y-45321674D01*
X249644239Y-45281900D01*
X249440361Y-45281900D01*
X249240402Y-45321674D01*
X249052044Y-45399695D01*
X248882526Y-45512963D01*
X248738363Y-45657126D01*
X248625095Y-45826644D01*
X248547074Y-46015002D01*
X248507300Y-46214961D01*
X236994902Y-46214961D01*
X236934005Y-46067944D01*
X236820737Y-45898426D01*
X236676574Y-45754263D01*
X236507056Y-45640995D01*
X236318698Y-45562974D01*
X236118739Y-45523200D01*
X235914861Y-45523200D01*
X235714902Y-45562974D01*
X235526544Y-45640995D01*
X235357026Y-45754263D01*
X235212863Y-45898426D01*
X235099595Y-46067944D01*
X235021574Y-46256302D01*
X234981800Y-46456261D01*
X234981800Y-46530163D01*
X234899539Y-46513800D01*
X234842000Y-46513800D01*
X234842000Y-46456261D01*
X234802226Y-46256302D01*
X234724205Y-46067944D01*
X234610937Y-45898426D01*
X234466774Y-45754263D01*
X234297256Y-45640995D01*
X234108898Y-45562974D01*
X233908939Y-45523200D01*
X233705061Y-45523200D01*
X233505102Y-45562974D01*
X233316744Y-45640995D01*
X233147226Y-45754263D01*
X233003063Y-45898426D01*
X232889795Y-46067944D01*
X232816400Y-46245134D01*
X232743005Y-46067944D01*
X232629737Y-45898426D01*
X232485574Y-45754263D01*
X232316056Y-45640995D01*
X232127698Y-45562974D01*
X231927739Y-45523200D01*
X231723861Y-45523200D01*
X231523902Y-45562974D01*
X231335544Y-45640995D01*
X231166026Y-45754263D01*
X231021863Y-45898426D01*
X230908595Y-46067944D01*
X230847900Y-46214474D01*
X230787205Y-46067944D01*
X230673937Y-45898426D01*
X230529774Y-45754263D01*
X230360256Y-45640995D01*
X230171898Y-45562974D01*
X229971939Y-45523200D01*
X229768061Y-45523200D01*
X229568102Y-45562974D01*
X229379744Y-45640995D01*
X229210226Y-45754263D01*
X229066063Y-45898426D01*
X228952795Y-46067944D01*
X228892100Y-46214474D01*
X228831405Y-46067944D01*
X228718137Y-45898426D01*
X228573974Y-45754263D01*
X228404456Y-45640995D01*
X228216098Y-45562974D01*
X228016139Y-45523200D01*
X227812261Y-45523200D01*
X227612302Y-45562974D01*
X227423944Y-45640995D01*
X227254426Y-45754263D01*
X227110263Y-45898426D01*
X226996995Y-46067944D01*
X226945241Y-46192889D01*
X226898539Y-46183600D01*
X226694661Y-46183600D01*
X226494702Y-46223374D01*
X226306344Y-46301395D01*
X226136826Y-46414663D01*
X225992663Y-46558826D01*
X225879395Y-46728344D01*
X225801374Y-46916702D01*
X225761600Y-47116661D01*
X202462600Y-47116661D01*
X202462600Y-44398861D01*
X218548000Y-44398861D01*
X218548000Y-44602739D01*
X218587774Y-44802698D01*
X218665795Y-44991056D01*
X218779063Y-45160574D01*
X218923226Y-45304737D01*
X219092744Y-45418005D01*
X219281102Y-45496026D01*
X219481061Y-45535800D01*
X219684939Y-45535800D01*
X219884898Y-45496026D01*
X220073256Y-45418005D01*
X220242774Y-45304737D01*
X220386937Y-45160574D01*
X220500205Y-44991056D01*
X220578226Y-44802698D01*
X220618000Y-44602739D01*
X220618000Y-44398861D01*
X220578226Y-44198902D01*
X220500205Y-44010544D01*
X220386937Y-43841026D01*
X220242774Y-43696863D01*
X220073256Y-43583595D01*
X219884898Y-43505574D01*
X219684939Y-43465800D01*
X219481061Y-43465800D01*
X219281102Y-43505574D01*
X219092744Y-43583595D01*
X218923226Y-43696863D01*
X218779063Y-43841026D01*
X218665795Y-44010544D01*
X218587774Y-44198902D01*
X218548000Y-44398861D01*
X202462600Y-44398861D01*
X202462600Y-41023000D01*
X203808309Y-41023000D01*
X203830223Y-41245499D01*
X203895124Y-41459447D01*
X204000516Y-41656623D01*
X204142351Y-41829449D01*
X204315177Y-41971284D01*
X204512353Y-42076676D01*
X204726301Y-42141577D01*
X204893048Y-42158000D01*
X205604552Y-42158000D01*
X205771299Y-42141577D01*
X205985247Y-42076676D01*
X206182423Y-41971284D01*
X206355249Y-41829449D01*
X206497084Y-41656623D01*
X206602476Y-41459447D01*
X206667377Y-41245499D01*
X206689291Y-41023000D01*
X207738309Y-41023000D01*
X207760223Y-41245499D01*
X207825124Y-41459447D01*
X207930516Y-41656623D01*
X208072351Y-41829449D01*
X208245177Y-41971284D01*
X208442353Y-42076676D01*
X208656301Y-42141577D01*
X208823048Y-42158000D01*
X210034552Y-42158000D01*
X210201299Y-42141577D01*
X210415247Y-42076676D01*
X210612423Y-41971284D01*
X210785249Y-41829449D01*
X210927084Y-41656623D01*
X211032476Y-41459447D01*
X211097377Y-41245499D01*
X211119291Y-41023000D01*
X211097377Y-40800501D01*
X211032476Y-40586553D01*
X210927084Y-40389377D01*
X210785249Y-40216551D01*
X210612423Y-40074716D01*
X210415247Y-39969324D01*
X210201299Y-39904423D01*
X210034552Y-39888000D01*
X209815704Y-39888000D01*
X209821908Y-39873022D01*
X209858800Y-39687552D01*
X209858800Y-39498448D01*
X209821908Y-39312978D01*
X209749541Y-39138269D01*
X209717463Y-39090261D01*
X210801000Y-39090261D01*
X210801000Y-39294139D01*
X210840774Y-39494098D01*
X210918795Y-39682456D01*
X211032063Y-39851974D01*
X211176226Y-39996137D01*
X211345744Y-40109405D01*
X211534102Y-40187426D01*
X211734061Y-40227200D01*
X211937939Y-40227200D01*
X212137898Y-40187426D01*
X212326256Y-40109405D01*
X212495774Y-39996137D01*
X212639937Y-39851974D01*
X212753205Y-39682456D01*
X212831226Y-39494098D01*
X212832188Y-39489259D01*
X220300600Y-39489259D01*
X220300600Y-39693137D01*
X220340374Y-39893096D01*
X220418395Y-40081454D01*
X220531663Y-40250972D01*
X220675826Y-40395135D01*
X220845344Y-40508403D01*
X221033702Y-40586424D01*
X221233661Y-40626198D01*
X221437539Y-40626198D01*
X221637498Y-40586424D01*
X221825856Y-40508403D01*
X221995374Y-40395135D01*
X222139537Y-40250972D01*
X222252805Y-40081454D01*
X222330826Y-39893096D01*
X222370600Y-39693137D01*
X222370600Y-39489259D01*
X222330826Y-39289300D01*
X222252805Y-39100942D01*
X222139537Y-38931424D01*
X221995374Y-38787261D01*
X221825856Y-38673993D01*
X221637498Y-38595972D01*
X221437539Y-38556198D01*
X221233661Y-38556198D01*
X221033702Y-38595972D01*
X220845344Y-38673993D01*
X220675826Y-38787261D01*
X220531663Y-38931424D01*
X220418395Y-39100942D01*
X220340374Y-39289300D01*
X220300600Y-39489259D01*
X212832188Y-39489259D01*
X212871000Y-39294139D01*
X212871000Y-39090261D01*
X212831226Y-38890302D01*
X212753205Y-38701944D01*
X212639937Y-38532426D01*
X212495774Y-38388263D01*
X212326256Y-38274995D01*
X212137898Y-38196974D01*
X211937939Y-38157200D01*
X211734061Y-38157200D01*
X211534102Y-38196974D01*
X211345744Y-38274995D01*
X211176226Y-38388263D01*
X211032063Y-38532426D01*
X210918795Y-38701944D01*
X210840774Y-38890302D01*
X210801000Y-39090261D01*
X209717463Y-39090261D01*
X209644481Y-38981036D01*
X209510764Y-38847319D01*
X209353531Y-38742259D01*
X209178822Y-38669892D01*
X208993352Y-38633000D01*
X208804248Y-38633000D01*
X208618778Y-38669892D01*
X208444069Y-38742259D01*
X208286836Y-38847319D01*
X208153119Y-38981036D01*
X208048059Y-39138269D01*
X207975692Y-39312978D01*
X207938800Y-39498448D01*
X207938800Y-39687552D01*
X207975692Y-39873022D01*
X208048059Y-40047731D01*
X208129515Y-40169638D01*
X208072351Y-40216551D01*
X207930516Y-40389377D01*
X207825124Y-40586553D01*
X207760223Y-40800501D01*
X207738309Y-41023000D01*
X206689291Y-41023000D01*
X206667377Y-40800501D01*
X206602476Y-40586553D01*
X206497084Y-40389377D01*
X206355249Y-40216551D01*
X206182423Y-40074716D01*
X205985247Y-39969324D01*
X205771299Y-39904423D01*
X205604552Y-39888000D01*
X204893048Y-39888000D01*
X204726301Y-39904423D01*
X204512353Y-39969324D01*
X204315177Y-40074716D01*
X204142351Y-40216551D01*
X204000516Y-40389377D01*
X203895124Y-40586553D01*
X203830223Y-40800501D01*
X203808309Y-41023000D01*
X202462600Y-41023000D01*
X202462600Y-35280261D01*
X206889400Y-35280261D01*
X206889400Y-35484139D01*
X206929174Y-35684098D01*
X207007195Y-35872456D01*
X207086938Y-35991800D01*
X207007195Y-36111144D01*
X206929174Y-36299502D01*
X206889400Y-36499461D01*
X206889400Y-36703339D01*
X206929174Y-36903298D01*
X207007195Y-37091656D01*
X207099638Y-37230007D01*
X207032595Y-37330344D01*
X206954574Y-37518702D01*
X206914800Y-37718661D01*
X206914800Y-37922539D01*
X206954574Y-38122498D01*
X207032595Y-38310856D01*
X207145863Y-38480374D01*
X207290026Y-38624537D01*
X207459544Y-38737805D01*
X207647902Y-38815826D01*
X207847861Y-38855600D01*
X208051739Y-38855600D01*
X208251698Y-38815826D01*
X208440056Y-38737805D01*
X208609574Y-38624537D01*
X208753737Y-38480374D01*
X208867005Y-38310856D01*
X208945026Y-38122498D01*
X208984800Y-37922539D01*
X208984800Y-37718661D01*
X208945026Y-37518702D01*
X208867005Y-37330344D01*
X208774562Y-37191993D01*
X208841605Y-37091656D01*
X208919626Y-36903298D01*
X208959400Y-36703339D01*
X208959400Y-36499461D01*
X208919626Y-36299502D01*
X208841605Y-36111144D01*
X208829523Y-36093061D01*
X230816200Y-36093061D01*
X230816200Y-36296939D01*
X230855974Y-36496898D01*
X230933995Y-36685256D01*
X231047263Y-36854774D01*
X231191426Y-36998937D01*
X231217390Y-37016286D01*
X231216826Y-37016663D01*
X231072663Y-37160826D01*
X230959395Y-37330344D01*
X230881374Y-37518702D01*
X230841600Y-37718661D01*
X230841600Y-37922539D01*
X230881374Y-38122498D01*
X230959395Y-38310856D01*
X231072663Y-38480374D01*
X231212989Y-38620700D01*
X231098063Y-38735626D01*
X230984795Y-38905144D01*
X230906774Y-39093502D01*
X230867000Y-39293461D01*
X230867000Y-39497339D01*
X230906774Y-39697298D01*
X230984795Y-39885656D01*
X231098063Y-40055174D01*
X231242226Y-40199337D01*
X231252852Y-40206437D01*
X231123463Y-40335826D01*
X231010195Y-40505344D01*
X230932174Y-40693702D01*
X230892400Y-40893661D01*
X230892400Y-41097539D01*
X230932174Y-41297498D01*
X231010195Y-41485856D01*
X231123463Y-41655374D01*
X231238389Y-41770300D01*
X231148863Y-41859826D01*
X231035595Y-42029344D01*
X230957574Y-42217702D01*
X230917800Y-42417661D01*
X230917800Y-42621539D01*
X230957574Y-42821498D01*
X231035595Y-43009856D01*
X231148863Y-43179374D01*
X231187589Y-43218100D01*
X231123463Y-43282226D01*
X231010195Y-43451744D01*
X230932174Y-43640102D01*
X230892400Y-43840061D01*
X230892400Y-44043939D01*
X230932174Y-44243898D01*
X231010195Y-44432256D01*
X231123463Y-44601774D01*
X231267626Y-44745937D01*
X231437144Y-44859205D01*
X231625502Y-44937226D01*
X231825461Y-44977000D01*
X232029339Y-44977000D01*
X232229298Y-44937226D01*
X232417656Y-44859205D01*
X232587174Y-44745937D01*
X232638600Y-44694511D01*
X232690026Y-44745937D01*
X232859544Y-44859205D01*
X233047902Y-44937226D01*
X233247861Y-44977000D01*
X233451739Y-44977000D01*
X233651698Y-44937226D01*
X233840056Y-44859205D01*
X234009574Y-44745937D01*
X234153737Y-44601774D01*
X234267005Y-44432256D01*
X234345026Y-44243898D01*
X234384800Y-44043939D01*
X234384800Y-43840061D01*
X234345026Y-43640102D01*
X234267005Y-43451744D01*
X234153737Y-43282226D01*
X234115011Y-43243500D01*
X234179137Y-43179374D01*
X234246831Y-43078061D01*
X244735400Y-43078061D01*
X244735400Y-43281939D01*
X244775174Y-43481898D01*
X244853195Y-43670256D01*
X244966463Y-43839774D01*
X245110626Y-43983937D01*
X245280144Y-44097205D01*
X245468502Y-44175226D01*
X245668461Y-44215000D01*
X245872339Y-44215000D01*
X246072298Y-44175226D01*
X246260656Y-44097205D01*
X246430174Y-43983937D01*
X246574337Y-43839774D01*
X246687605Y-43670256D01*
X246765626Y-43481898D01*
X246805400Y-43281939D01*
X246805400Y-43078061D01*
X246795296Y-43027261D01*
X252812600Y-43027261D01*
X252812600Y-43231139D01*
X252852374Y-43431098D01*
X252930395Y-43619456D01*
X253043663Y-43788974D01*
X253187826Y-43933137D01*
X253357344Y-44046405D01*
X253545702Y-44124426D01*
X253745661Y-44164200D01*
X253949539Y-44164200D01*
X254149498Y-44124426D01*
X254337856Y-44046405D01*
X254507374Y-43933137D01*
X254651537Y-43788974D01*
X254764805Y-43619456D01*
X254842826Y-43431098D01*
X254882600Y-43231139D01*
X254882600Y-43027261D01*
X254842826Y-42827302D01*
X254764805Y-42638944D01*
X254651537Y-42469426D01*
X254507374Y-42325263D01*
X254337856Y-42211995D01*
X254149498Y-42133974D01*
X253949539Y-42094200D01*
X253745661Y-42094200D01*
X253545702Y-42133974D01*
X253357344Y-42211995D01*
X253187826Y-42325263D01*
X253043663Y-42469426D01*
X252930395Y-42638944D01*
X252852374Y-42827302D01*
X252812600Y-43027261D01*
X246795296Y-43027261D01*
X246765626Y-42878102D01*
X246687605Y-42689744D01*
X246574337Y-42520226D01*
X246430174Y-42376063D01*
X246260656Y-42262795D01*
X246072298Y-42184774D01*
X245872339Y-42145000D01*
X245668461Y-42145000D01*
X245468502Y-42184774D01*
X245280144Y-42262795D01*
X245110626Y-42376063D01*
X244966463Y-42520226D01*
X244853195Y-42689744D01*
X244775174Y-42878102D01*
X244735400Y-43078061D01*
X234246831Y-43078061D01*
X234292405Y-43009856D01*
X234370426Y-42821498D01*
X234410200Y-42621539D01*
X234410200Y-42417661D01*
X234370426Y-42217702D01*
X234292405Y-42029344D01*
X234229408Y-41935061D01*
X238436196Y-41935061D01*
X238436196Y-42138939D01*
X238475970Y-42338898D01*
X238553991Y-42527256D01*
X238667259Y-42696774D01*
X238811422Y-42840937D01*
X238980940Y-42954205D01*
X239169298Y-43032226D01*
X239369257Y-43072000D01*
X239573135Y-43072000D01*
X239773094Y-43032226D01*
X239961452Y-42954205D01*
X240130970Y-42840937D01*
X240275133Y-42696774D01*
X240388401Y-42527256D01*
X240466422Y-42338898D01*
X240506196Y-42138939D01*
X240506196Y-41935061D01*
X240466422Y-41735102D01*
X240388401Y-41546744D01*
X240275133Y-41377226D01*
X240130970Y-41233063D01*
X239961452Y-41119795D01*
X239773094Y-41041774D01*
X239573135Y-41002000D01*
X239369257Y-41002000D01*
X239169298Y-41041774D01*
X238980940Y-41119795D01*
X238811422Y-41233063D01*
X238667259Y-41377226D01*
X238553991Y-41546744D01*
X238475970Y-41735102D01*
X238436196Y-41935061D01*
X234229408Y-41935061D01*
X234179137Y-41859826D01*
X234064211Y-41744900D01*
X234153737Y-41655374D01*
X234267005Y-41485856D01*
X234345026Y-41297498D01*
X234384800Y-41097539D01*
X234384800Y-40893661D01*
X234345026Y-40693702D01*
X234267005Y-40505344D01*
X234153737Y-40335826D01*
X234009574Y-40191663D01*
X233998948Y-40184563D01*
X234128337Y-40055174D01*
X234241605Y-39885656D01*
X234319626Y-39697298D01*
X234359400Y-39497339D01*
X234359400Y-39293461D01*
X234319626Y-39093502D01*
X234241605Y-38905144D01*
X234128337Y-38735626D01*
X234127372Y-38734661D01*
X249129600Y-38734661D01*
X249129600Y-38938539D01*
X249169374Y-39138498D01*
X249247395Y-39326856D01*
X249360663Y-39496374D01*
X249504826Y-39640537D01*
X249641237Y-39731683D01*
X249612200Y-39877661D01*
X249612200Y-40081539D01*
X249651974Y-40281498D01*
X249729995Y-40469856D01*
X249843263Y-40639374D01*
X249987426Y-40783537D01*
X250156944Y-40896805D01*
X250345302Y-40974826D01*
X250545261Y-41014600D01*
X250749139Y-41014600D01*
X250949098Y-40974826D01*
X251137456Y-40896805D01*
X251306974Y-40783537D01*
X251451137Y-40639374D01*
X251564405Y-40469856D01*
X251642426Y-40281498D01*
X251682200Y-40081539D01*
X251682200Y-39877661D01*
X251642426Y-39677702D01*
X251564405Y-39489344D01*
X251451137Y-39319826D01*
X251306974Y-39175663D01*
X251170563Y-39084517D01*
X251199600Y-38938539D01*
X251199600Y-38734661D01*
X251159826Y-38534702D01*
X251081805Y-38346344D01*
X250968537Y-38176826D01*
X250824374Y-38032663D01*
X250654856Y-37919395D01*
X250466498Y-37841374D01*
X250266539Y-37801600D01*
X250062661Y-37801600D01*
X249862702Y-37841374D01*
X249674344Y-37919395D01*
X249504826Y-38032663D01*
X249360663Y-38176826D01*
X249247395Y-38346344D01*
X249169374Y-38534702D01*
X249129600Y-38734661D01*
X234127372Y-38734661D01*
X233988011Y-38595300D01*
X234102937Y-38480374D01*
X234216205Y-38310856D01*
X234294226Y-38122498D01*
X234334000Y-37922539D01*
X234334000Y-37718661D01*
X234294226Y-37518702D01*
X234216205Y-37330344D01*
X234102937Y-37160826D01*
X233958774Y-37016663D01*
X233932810Y-36999314D01*
X233933374Y-36998937D01*
X234077537Y-36854774D01*
X234190805Y-36685256D01*
X234268826Y-36496898D01*
X234308600Y-36296939D01*
X234308600Y-36093061D01*
X234268826Y-35893102D01*
X234190805Y-35704744D01*
X234077537Y-35535226D01*
X233933374Y-35391063D01*
X233763856Y-35277795D01*
X233575498Y-35199774D01*
X233375539Y-35160000D01*
X233171661Y-35160000D01*
X232971702Y-35199774D01*
X232783344Y-35277795D01*
X232613826Y-35391063D01*
X232562400Y-35442489D01*
X232510974Y-35391063D01*
X232341456Y-35277795D01*
X232153098Y-35199774D01*
X231953139Y-35160000D01*
X231749261Y-35160000D01*
X231549302Y-35199774D01*
X231360944Y-35277795D01*
X231191426Y-35391063D01*
X231047263Y-35535226D01*
X230933995Y-35704744D01*
X230855974Y-35893102D01*
X230816200Y-36093061D01*
X208829523Y-36093061D01*
X208761862Y-35991800D01*
X208841605Y-35872456D01*
X208919626Y-35684098D01*
X208959400Y-35484139D01*
X208959400Y-35280261D01*
X208919626Y-35080302D01*
X208841605Y-34891944D01*
X208755673Y-34763338D01*
X208804248Y-34773000D01*
X208993352Y-34773000D01*
X209178822Y-34736108D01*
X209353531Y-34663741D01*
X209510764Y-34558681D01*
X209644481Y-34424964D01*
X209749541Y-34267731D01*
X209776681Y-34202208D01*
X210764347Y-34202208D01*
X210764347Y-34406086D01*
X210804121Y-34606045D01*
X210882142Y-34794403D01*
X210995410Y-34963921D01*
X211139573Y-35108084D01*
X211309091Y-35221352D01*
X211497449Y-35299373D01*
X211697408Y-35339147D01*
X211901286Y-35339147D01*
X212101245Y-35299373D01*
X212289603Y-35221352D01*
X212459121Y-35108084D01*
X212603284Y-34963921D01*
X212716552Y-34794403D01*
X212794573Y-34606045D01*
X212834347Y-34406086D01*
X212834347Y-34202208D01*
X212794573Y-34002249D01*
X212716552Y-33813891D01*
X212603284Y-33644373D01*
X212459121Y-33500210D01*
X212289603Y-33386942D01*
X212101245Y-33308921D01*
X211901286Y-33269147D01*
X211697408Y-33269147D01*
X211497449Y-33308921D01*
X211309091Y-33386942D01*
X211139573Y-33500210D01*
X210995410Y-33644373D01*
X210882142Y-33813891D01*
X210804121Y-34002249D01*
X210764347Y-34202208D01*
X209776681Y-34202208D01*
X209821908Y-34093022D01*
X209858800Y-33907552D01*
X209858800Y-33718448D01*
X209821908Y-33532978D01*
X209815704Y-33518000D01*
X210034552Y-33518000D01*
X210201299Y-33501577D01*
X210415247Y-33436676D01*
X210612423Y-33331284D01*
X210785249Y-33189449D01*
X210927084Y-33016623D01*
X211032476Y-32819447D01*
X211097377Y-32605499D01*
X211119291Y-32383000D01*
X211097377Y-32160501D01*
X211032476Y-31946553D01*
X210927084Y-31749377D01*
X210785249Y-31576551D01*
X210612423Y-31434716D01*
X210415247Y-31329324D01*
X210201299Y-31264423D01*
X210034552Y-31248000D01*
X208823048Y-31248000D01*
X208656301Y-31264423D01*
X208442353Y-31329324D01*
X208245177Y-31434716D01*
X208072351Y-31576551D01*
X207930516Y-31749377D01*
X207825124Y-31946553D01*
X207760223Y-32160501D01*
X207738309Y-32383000D01*
X207760223Y-32605499D01*
X207825124Y-32819447D01*
X207930516Y-33016623D01*
X208072351Y-33189449D01*
X208129515Y-33236362D01*
X208048059Y-33358269D01*
X207975692Y-33532978D01*
X207938800Y-33718448D01*
X207938800Y-33907552D01*
X207975692Y-34093022D01*
X208048059Y-34267731D01*
X208112627Y-34364364D01*
X208026339Y-34347200D01*
X207822461Y-34347200D01*
X207622502Y-34386974D01*
X207434144Y-34464995D01*
X207264626Y-34578263D01*
X207120463Y-34722426D01*
X207007195Y-34891944D01*
X206929174Y-35080302D01*
X206889400Y-35280261D01*
X202462600Y-35280261D01*
X202462600Y-32383000D01*
X203808309Y-32383000D01*
X203830223Y-32605499D01*
X203895124Y-32819447D01*
X204000516Y-33016623D01*
X204142351Y-33189449D01*
X204315177Y-33331284D01*
X204512353Y-33436676D01*
X204726301Y-33501577D01*
X204893048Y-33518000D01*
X205604552Y-33518000D01*
X205771299Y-33501577D01*
X205985247Y-33436676D01*
X206182423Y-33331284D01*
X206355249Y-33189449D01*
X206497084Y-33016623D01*
X206602476Y-32819447D01*
X206667377Y-32605499D01*
X206689291Y-32383000D01*
X206667377Y-32160501D01*
X206602476Y-31946553D01*
X206497084Y-31749377D01*
X206355249Y-31576551D01*
X206182423Y-31434716D01*
X205985247Y-31329324D01*
X205771299Y-31264423D01*
X205604552Y-31248000D01*
X204893048Y-31248000D01*
X204726301Y-31264423D01*
X204512353Y-31329324D01*
X204315177Y-31434716D01*
X204142351Y-31576551D01*
X204000516Y-31749377D01*
X203895124Y-31946553D01*
X203830223Y-32160501D01*
X203808309Y-32383000D01*
X202462600Y-32383000D01*
X202462600Y-28091600D01*
X215515140Y-28091600D01*
X215484569Y-28104263D01*
%TA.AperFunction,Conductor*%
D16*
G36*
X215484569Y-28104263D02*
G01*
X215200402Y-28294137D01*
X214958737Y-28535802D01*
X214768863Y-28819969D01*
X214638075Y-29135719D01*
X214571400Y-29470917D01*
X214571400Y-29812683D01*
X214638075Y-30147881D01*
X214768863Y-30463631D01*
X214958737Y-30747798D01*
X215200402Y-30989463D01*
X215484569Y-31179337D01*
X215800319Y-31310125D01*
X216135517Y-31376800D01*
X216477283Y-31376800D01*
X216812481Y-31310125D01*
X217128231Y-31179337D01*
X217412398Y-30989463D01*
X217654063Y-30747798D01*
X217843937Y-30463631D01*
X217974725Y-30147881D01*
X218041400Y-29812683D01*
X218041400Y-29470917D01*
X217974725Y-29135719D01*
X217843937Y-28819969D01*
X217654063Y-28535802D01*
X217412398Y-28294137D01*
X217128231Y-28104263D01*
X217097660Y-28091600D01*
X255875740Y-28091600D01*
X255845169Y-28104263D01*
X255561002Y-28294137D01*
X255319337Y-28535802D01*
X255129463Y-28819969D01*
X254998675Y-29135719D01*
X254932000Y-29470917D01*
X254932000Y-29812683D01*
X254998675Y-30147881D01*
X255129463Y-30463631D01*
X255319337Y-30747798D01*
X255561002Y-30989463D01*
X255845169Y-31179337D01*
X256160919Y-31310125D01*
X256496117Y-31376800D01*
X256837883Y-31376800D01*
X257173081Y-31310125D01*
X257488831Y-31179337D01*
X257772998Y-30989463D01*
X258014663Y-30747798D01*
X258204537Y-30463631D01*
X258217200Y-30433060D01*
X258217201Y-65197942D01*
X258204537Y-65167369D01*
X258014663Y-64883202D01*
X257772998Y-64641537D01*
X257488831Y-64451663D01*
X257173081Y-64320875D01*
X256837883Y-64254200D01*
X256496117Y-64254200D01*
X256160919Y-64320875D01*
X255845169Y-64451663D01*
X255561002Y-64641537D01*
X255319337Y-64883202D01*
X255129463Y-65167369D01*
X254998675Y-65483119D01*
X254932000Y-65818317D01*
X254932000Y-66160083D01*
X254998675Y-66495281D01*
X255129463Y-66811031D01*
X255319337Y-67095198D01*
X255561002Y-67336863D01*
X255845169Y-67526737D01*
X255937061Y-67564800D01*
X204645497Y-67564800D01*
X204860031Y-67475937D01*
X205144198Y-67286063D01*
X205385863Y-67044398D01*
X205575737Y-66760231D01*
X205706525Y-66444481D01*
X205773200Y-66109283D01*
X205773200Y-65767517D01*
X205706525Y-65432319D01*
X205575737Y-65116569D01*
X205385863Y-64832402D01*
X205144198Y-64590737D01*
X204860031Y-64400863D01*
X204544281Y-64270075D01*
X204209083Y-64203400D01*
X203867317Y-64203400D01*
X203532119Y-64270075D01*
X203216369Y-64400863D01*
X202932202Y-64590737D01*
X202690537Y-64832402D01*
X202500663Y-65116569D01*
X202462600Y-65208461D01*
X202462600Y-64053335D01*
X220635000Y-64053335D01*
X220635000Y-64724664D01*
X220652870Y-64906101D01*
X220723489Y-65138900D01*
X220838167Y-65353448D01*
X220992498Y-65541502D01*
X221180551Y-65695833D01*
X221395099Y-65810511D01*
X221627898Y-65881130D01*
X221870000Y-65904975D01*
X222112101Y-65881130D01*
X222344900Y-65810511D01*
X222559448Y-65695833D01*
X222747502Y-65541502D01*
X222870000Y-65392237D01*
X222992498Y-65541502D01*
X223180551Y-65695833D01*
X223395099Y-65810511D01*
X223627898Y-65881130D01*
X223870000Y-65904975D01*
X224112101Y-65881130D01*
X224344900Y-65810511D01*
X224559448Y-65695833D01*
X224747502Y-65541502D01*
X224870481Y-65391652D01*
X224913693Y-65455725D01*
X225086526Y-65627078D01*
X225289467Y-65761421D01*
X225514718Y-65853591D01*
X225552391Y-65857462D01*
X225743000Y-65732731D01*
X225743000Y-64516000D01*
X225723000Y-64516000D01*
X225723000Y-64262000D01*
X225743000Y-64262000D01*
X225743000Y-63045269D01*
X225997000Y-63045269D01*
X225997000Y-64262000D01*
X226017000Y-64262000D01*
X226017000Y-64516000D01*
X225997000Y-64516000D01*
X225997000Y-65732731D01*
X226187609Y-65857462D01*
X226225282Y-65853591D01*
X226450533Y-65761421D01*
X226653474Y-65627078D01*
X226826307Y-65455725D01*
X226869519Y-65391651D01*
X226992498Y-65541502D01*
X227180551Y-65695833D01*
X227395099Y-65810511D01*
X227627898Y-65881130D01*
X227870000Y-65904975D01*
X228112101Y-65881130D01*
X228344900Y-65810511D01*
X228559448Y-65695833D01*
X228747502Y-65541502D01*
X228870000Y-65392237D01*
X228992498Y-65541502D01*
X229180551Y-65695833D01*
X229395099Y-65810511D01*
X229627898Y-65881130D01*
X229870000Y-65904975D01*
X230112101Y-65881130D01*
X230344900Y-65810511D01*
X230559448Y-65695833D01*
X230747502Y-65541502D01*
X230779191Y-65502889D01*
X230781595Y-65507387D01*
X230892038Y-65641962D01*
X231026613Y-65752405D01*
X231180149Y-65834472D01*
X231346745Y-65885008D01*
X231519999Y-65902072D01*
X232220001Y-65902072D01*
X232393255Y-65885008D01*
X232559851Y-65834472D01*
X232713387Y-65752405D01*
X232847962Y-65641962D01*
X232958405Y-65507387D01*
X233040472Y-65353851D01*
X233091008Y-65187255D01*
X233108072Y-65014001D01*
X233108072Y-64053335D01*
X235652000Y-64053335D01*
X235652000Y-64724664D01*
X235669870Y-64906101D01*
X235740489Y-65138900D01*
X235855167Y-65353448D01*
X236009498Y-65541502D01*
X236197551Y-65695833D01*
X236412099Y-65810511D01*
X236644898Y-65881130D01*
X236887000Y-65904975D01*
X237129101Y-65881130D01*
X237361900Y-65810511D01*
X237576448Y-65695833D01*
X237764502Y-65541502D01*
X237887000Y-65392237D01*
X238009498Y-65541502D01*
X238197551Y-65695833D01*
X238412099Y-65810511D01*
X238644898Y-65881130D01*
X238887000Y-65904975D01*
X239129101Y-65881130D01*
X239361900Y-65810511D01*
X239576448Y-65695833D01*
X239764502Y-65541502D01*
X239887481Y-65391652D01*
X239930693Y-65455725D01*
X240103526Y-65627078D01*
X240306467Y-65761421D01*
X240531718Y-65853591D01*
X240569391Y-65857462D01*
X240760000Y-65732731D01*
X240760000Y-64516000D01*
X240740000Y-64516000D01*
X240740000Y-64262000D01*
X240760000Y-64262000D01*
X240760000Y-63045269D01*
X241014000Y-63045269D01*
X241014000Y-64262000D01*
X241034000Y-64262000D01*
X241034000Y-64516000D01*
X241014000Y-64516000D01*
X241014000Y-65732731D01*
X241204609Y-65857462D01*
X241242282Y-65853591D01*
X241467533Y-65761421D01*
X241670474Y-65627078D01*
X241843307Y-65455725D01*
X241886519Y-65391651D01*
X242009498Y-65541502D01*
X242197551Y-65695833D01*
X242412099Y-65810511D01*
X242644898Y-65881130D01*
X242887000Y-65904975D01*
X243129101Y-65881130D01*
X243361900Y-65810511D01*
X243576448Y-65695833D01*
X243764502Y-65541502D01*
X243887000Y-65392237D01*
X244009498Y-65541502D01*
X244197551Y-65695833D01*
X244412099Y-65810511D01*
X244644898Y-65881130D01*
X244887000Y-65904975D01*
X245129101Y-65881130D01*
X245361900Y-65810511D01*
X245576448Y-65695833D01*
X245764502Y-65541502D01*
X245796191Y-65502889D01*
X245798595Y-65507387D01*
X245909038Y-65641962D01*
X246043613Y-65752405D01*
X246197149Y-65834472D01*
X246363745Y-65885008D01*
X246536999Y-65902072D01*
X247237001Y-65902072D01*
X247410255Y-65885008D01*
X247576851Y-65834472D01*
X247730387Y-65752405D01*
X247864962Y-65641962D01*
X247975405Y-65507387D01*
X248057472Y-65353851D01*
X248108008Y-65187255D01*
X248125072Y-65014001D01*
X248125072Y-63763999D01*
X248108008Y-63590745D01*
X248057472Y-63424149D01*
X247975405Y-63270613D01*
X247864962Y-63136038D01*
X247730387Y-63025595D01*
X247576851Y-62943528D01*
X247410255Y-62892992D01*
X247237001Y-62875928D01*
X246536999Y-62875928D01*
X246363745Y-62892992D01*
X246197149Y-62943528D01*
X246043613Y-63025595D01*
X245909038Y-63136038D01*
X245798595Y-63270613D01*
X245796191Y-63275111D01*
X245764502Y-63236498D01*
X245576449Y-63082167D01*
X245361901Y-62967489D01*
X245129102Y-62896870D01*
X244887000Y-62873025D01*
X244644899Y-62896870D01*
X244412100Y-62967489D01*
X244197552Y-63082167D01*
X244009499Y-63236498D01*
X243887001Y-63385763D01*
X243764502Y-63236498D01*
X243576449Y-63082167D01*
X243361901Y-62967489D01*
X243129102Y-62896870D01*
X242887000Y-62873025D01*
X242644899Y-62896870D01*
X242412100Y-62967489D01*
X242197552Y-63082167D01*
X242009499Y-63236498D01*
X241886520Y-63386349D01*
X241843307Y-63322275D01*
X241670474Y-63150922D01*
X241467533Y-63016579D01*
X241242282Y-62924409D01*
X241204609Y-62920538D01*
X241014000Y-63045269D01*
X240760000Y-63045269D01*
X240569391Y-62920538D01*
X240531718Y-62924409D01*
X240306467Y-63016579D01*
X240103526Y-63150922D01*
X239930693Y-63322275D01*
X239887481Y-63386348D01*
X239764502Y-63236498D01*
X239576449Y-63082167D01*
X239361901Y-62967489D01*
X239129102Y-62896870D01*
X238887000Y-62873025D01*
X238644899Y-62896870D01*
X238412100Y-62967489D01*
X238197552Y-63082167D01*
X238009499Y-63236498D01*
X237887001Y-63385763D01*
X237764502Y-63236498D01*
X237576449Y-63082167D01*
X237361901Y-62967489D01*
X237129102Y-62896870D01*
X236887000Y-62873025D01*
X236644899Y-62896870D01*
X236412100Y-62967489D01*
X236197552Y-63082167D01*
X236009499Y-63236498D01*
X235855168Y-63424551D01*
X235740489Y-63639099D01*
X235669870Y-63871898D01*
X235652000Y-64053335D01*
X233108072Y-64053335D01*
X233108072Y-63763999D01*
X233091008Y-63590745D01*
X233040472Y-63424149D01*
X232958405Y-63270613D01*
X232847962Y-63136038D01*
X232713387Y-63025595D01*
X232559851Y-62943528D01*
X232393255Y-62892992D01*
X232220001Y-62875928D01*
X231519999Y-62875928D01*
X231346745Y-62892992D01*
X231180149Y-62943528D01*
X231026613Y-63025595D01*
X230892038Y-63136038D01*
X230781595Y-63270613D01*
X230779191Y-63275111D01*
X230747502Y-63236498D01*
X230559449Y-63082167D01*
X230344901Y-62967489D01*
X230112102Y-62896870D01*
X229870000Y-62873025D01*
X229627899Y-62896870D01*
X229395100Y-62967489D01*
X229180552Y-63082167D01*
X228992499Y-63236498D01*
X228870001Y-63385763D01*
X228747502Y-63236498D01*
X228559449Y-63082167D01*
X228344901Y-62967489D01*
X228112102Y-62896870D01*
X227870000Y-62873025D01*
X227627899Y-62896870D01*
X227395100Y-62967489D01*
X227180552Y-63082167D01*
X226992499Y-63236498D01*
X226869520Y-63386349D01*
X226826307Y-63322275D01*
X226653474Y-63150922D01*
X226450533Y-63016579D01*
X226225282Y-62924409D01*
X226187609Y-62920538D01*
X225997000Y-63045269D01*
X225743000Y-63045269D01*
X225552391Y-62920538D01*
X225514718Y-62924409D01*
X225289467Y-63016579D01*
X225086526Y-63150922D01*
X224913693Y-63322275D01*
X224870481Y-63386348D01*
X224747502Y-63236498D01*
X224559449Y-63082167D01*
X224344901Y-62967489D01*
X224112102Y-62896870D01*
X223870000Y-62873025D01*
X223627899Y-62896870D01*
X223395100Y-62967489D01*
X223180552Y-63082167D01*
X222992499Y-63236498D01*
X222870001Y-63385763D01*
X222747502Y-63236498D01*
X222559449Y-63082167D01*
X222344901Y-62967489D01*
X222112102Y-62896870D01*
X221870000Y-62873025D01*
X221627899Y-62896870D01*
X221395100Y-62967489D01*
X221180552Y-63082167D01*
X220992499Y-63236498D01*
X220838168Y-63424551D01*
X220723489Y-63639099D01*
X220652870Y-63871898D01*
X220635000Y-64053335D01*
X202462600Y-64053335D01*
X202462600Y-59784609D01*
X206938538Y-59784609D01*
X206942409Y-59822282D01*
X207034579Y-60047533D01*
X207168922Y-60250474D01*
X207340275Y-60423307D01*
X207542054Y-60559390D01*
X207766504Y-60653493D01*
X208005000Y-60702000D01*
X208280000Y-60702000D01*
X208280000Y-59594000D01*
X208534000Y-59594000D01*
X208534000Y-60702000D01*
X208809000Y-60702000D01*
X209047496Y-60653493D01*
X209271946Y-60559390D01*
X209473725Y-60423307D01*
X209645078Y-60250474D01*
X209779421Y-60047533D01*
X209871591Y-59822282D01*
X209875462Y-59784609D01*
X209750731Y-59594000D01*
X208534000Y-59594000D01*
X208280000Y-59594000D01*
X207063269Y-59594000D01*
X206938538Y-59784609D01*
X202462600Y-59784609D01*
X202462600Y-57467000D01*
X206891025Y-57467000D01*
X206914870Y-57709102D01*
X206985489Y-57941901D01*
X207100167Y-58156449D01*
X207254498Y-58344502D01*
X207404348Y-58467481D01*
X207340275Y-58510693D01*
X207168922Y-58683526D01*
X207034579Y-58886467D01*
X206942409Y-59111718D01*
X206938538Y-59149391D01*
X207063269Y-59340000D01*
X208280000Y-59340000D01*
X208280000Y-59320000D01*
X208534000Y-59320000D01*
X208534000Y-59340000D01*
X209750731Y-59340000D01*
X209875462Y-59149391D01*
X209871591Y-59111718D01*
X209779421Y-58886467D01*
X209688991Y-58749861D01*
X222612000Y-58749861D01*
X222612000Y-58953739D01*
X222651774Y-59153698D01*
X222729795Y-59342056D01*
X222843063Y-59511574D01*
X222869089Y-59537600D01*
X222843063Y-59563626D01*
X222729795Y-59733144D01*
X222651774Y-59921502D01*
X222612000Y-60121461D01*
X222612000Y-60325339D01*
X222651774Y-60525298D01*
X222729795Y-60713656D01*
X222843063Y-60883174D01*
X222987226Y-61027337D01*
X223156744Y-61140605D01*
X223345102Y-61218626D01*
X223545061Y-61258400D01*
X223748939Y-61258400D01*
X223948898Y-61218626D01*
X224137256Y-61140605D01*
X224306774Y-61027337D01*
X224450937Y-60883174D01*
X224485200Y-60831896D01*
X224519463Y-60883174D01*
X224663626Y-61027337D01*
X224833144Y-61140605D01*
X225021502Y-61218626D01*
X225221461Y-61258400D01*
X225425339Y-61258400D01*
X225625298Y-61218626D01*
X225813656Y-61140605D01*
X225983174Y-61027337D01*
X226123500Y-60887011D01*
X226263826Y-61027337D01*
X226433344Y-61140605D01*
X226621702Y-61218626D01*
X226821661Y-61258400D01*
X227025539Y-61258400D01*
X227225498Y-61218626D01*
X227413856Y-61140605D01*
X227583374Y-61027337D01*
X227727537Y-60883174D01*
X227840805Y-60713656D01*
X227918826Y-60525298D01*
X227958600Y-60325339D01*
X227958600Y-60121461D01*
X227918826Y-59921502D01*
X227840805Y-59733144D01*
X227727537Y-59563626D01*
X227688811Y-59524900D01*
X227727537Y-59486174D01*
X227840805Y-59316656D01*
X227859898Y-59270561D01*
X238601300Y-59270561D01*
X238601300Y-59474439D01*
X238641074Y-59674398D01*
X238719095Y-59862756D01*
X238832363Y-60032274D01*
X238832989Y-60032900D01*
X238832363Y-60033526D01*
X238719095Y-60203044D01*
X238641074Y-60391402D01*
X238601300Y-60591361D01*
X238601300Y-60795239D01*
X238641074Y-60995198D01*
X238719095Y-61183556D01*
X238832363Y-61353074D01*
X238976526Y-61497237D01*
X239146044Y-61610505D01*
X239334402Y-61688526D01*
X239534361Y-61728300D01*
X239738239Y-61728300D01*
X239938198Y-61688526D01*
X240126556Y-61610505D01*
X240296074Y-61497237D01*
X240440237Y-61353074D01*
X240474500Y-61301796D01*
X240508763Y-61353074D01*
X240652926Y-61497237D01*
X240822444Y-61610505D01*
X241010802Y-61688526D01*
X241210761Y-61728300D01*
X241414639Y-61728300D01*
X241614598Y-61688526D01*
X241802956Y-61610505D01*
X241972474Y-61497237D01*
X242116637Y-61353074D01*
X242123737Y-61342448D01*
X242253126Y-61471837D01*
X242422644Y-61585105D01*
X242611002Y-61663126D01*
X242810961Y-61702900D01*
X243014839Y-61702900D01*
X243214798Y-61663126D01*
X243403156Y-61585105D01*
X243572674Y-61471837D01*
X243716837Y-61327674D01*
X243830105Y-61158156D01*
X243908126Y-60969798D01*
X243947900Y-60769839D01*
X243947900Y-60565961D01*
X243908126Y-60366002D01*
X243830105Y-60177644D01*
X243716837Y-60008126D01*
X243716211Y-60007500D01*
X243716837Y-60006874D01*
X243830105Y-59837356D01*
X243908126Y-59648998D01*
X243947900Y-59449039D01*
X243947900Y-59245161D01*
X243908126Y-59045202D01*
X243830105Y-58856844D01*
X243716837Y-58687326D01*
X243572674Y-58543163D01*
X243403156Y-58429895D01*
X243214798Y-58351874D01*
X243153369Y-58339655D01*
X246042231Y-58339655D01*
X246042231Y-58543533D01*
X246082005Y-58743492D01*
X246160026Y-58931850D01*
X246273294Y-59101368D01*
X246417457Y-59245531D01*
X246586975Y-59358799D01*
X246775333Y-59436820D01*
X246975292Y-59476594D01*
X247179170Y-59476594D01*
X247379129Y-59436820D01*
X247567487Y-59358799D01*
X247737005Y-59245531D01*
X247881168Y-59101368D01*
X247994436Y-58931850D01*
X248072457Y-58743492D01*
X248112231Y-58543533D01*
X248112231Y-58339655D01*
X248072457Y-58139696D01*
X247994436Y-57951338D01*
X247901740Y-57812608D01*
X248008415Y-57652956D01*
X248086436Y-57464598D01*
X248126210Y-57264639D01*
X248126210Y-57060761D01*
X248086436Y-56860802D01*
X248008415Y-56672444D01*
X247895147Y-56502926D01*
X247750984Y-56358763D01*
X247581466Y-56245495D01*
X247393108Y-56167474D01*
X247193149Y-56127700D01*
X246989271Y-56127700D01*
X246789312Y-56167474D01*
X246600954Y-56245495D01*
X246431436Y-56358763D01*
X246287273Y-56502926D01*
X246174005Y-56672444D01*
X246095984Y-56860802D01*
X246056210Y-57060761D01*
X246056210Y-57264639D01*
X246095984Y-57464598D01*
X246174005Y-57652956D01*
X246266701Y-57791686D01*
X246160026Y-57951338D01*
X246082005Y-58139696D01*
X246042231Y-58339655D01*
X243153369Y-58339655D01*
X243014839Y-58312100D01*
X242810961Y-58312100D01*
X242611002Y-58351874D01*
X242422644Y-58429895D01*
X242253126Y-58543163D01*
X242108963Y-58687326D01*
X242101863Y-58697952D01*
X241972474Y-58568563D01*
X241802956Y-58455295D01*
X241614598Y-58377274D01*
X241414639Y-58337500D01*
X241210761Y-58337500D01*
X241010802Y-58377274D01*
X240822444Y-58455295D01*
X240652926Y-58568563D01*
X240508763Y-58712726D01*
X240474500Y-58764004D01*
X240440237Y-58712726D01*
X240296074Y-58568563D01*
X240126556Y-58455295D01*
X239938198Y-58377274D01*
X239738239Y-58337500D01*
X239534361Y-58337500D01*
X239334402Y-58377274D01*
X239146044Y-58455295D01*
X238976526Y-58568563D01*
X238832363Y-58712726D01*
X238719095Y-58882244D01*
X238641074Y-59070602D01*
X238601300Y-59270561D01*
X227859898Y-59270561D01*
X227918826Y-59128298D01*
X227958600Y-58928339D01*
X227958600Y-58724461D01*
X227918826Y-58524502D01*
X227840805Y-58336144D01*
X227727537Y-58166626D01*
X227583374Y-58022463D01*
X227413856Y-57909195D01*
X227225498Y-57831174D01*
X227210307Y-57828152D01*
X227276298Y-57815026D01*
X227464656Y-57737005D01*
X227634174Y-57623737D01*
X227778337Y-57479574D01*
X227891605Y-57310056D01*
X227969626Y-57121698D01*
X228009400Y-56921739D01*
X228009400Y-56717861D01*
X227989191Y-56616261D01*
X229927200Y-56616261D01*
X229927200Y-56820139D01*
X229966974Y-57020098D01*
X230044995Y-57208456D01*
X230158263Y-57377974D01*
X230302426Y-57522137D01*
X230344696Y-57550381D01*
X230308200Y-57733861D01*
X230308200Y-57937739D01*
X230347974Y-58137698D01*
X230425995Y-58326056D01*
X230539263Y-58495574D01*
X230683426Y-58639737D01*
X230852944Y-58753005D01*
X231041302Y-58831026D01*
X231241261Y-58870800D01*
X231445139Y-58870800D01*
X231645098Y-58831026D01*
X231833456Y-58753005D01*
X232002974Y-58639737D01*
X232147137Y-58495574D01*
X232260405Y-58326056D01*
X232338426Y-58137698D01*
X232378200Y-57937739D01*
X232378200Y-57733861D01*
X232338426Y-57533902D01*
X232260405Y-57345544D01*
X232147137Y-57176026D01*
X232002974Y-57031863D01*
X231960704Y-57003619D01*
X231997200Y-56820139D01*
X231997200Y-56616261D01*
X231957426Y-56416302D01*
X231879405Y-56227944D01*
X231850350Y-56184459D01*
X239147400Y-56184459D01*
X239147400Y-56388337D01*
X239187174Y-56588296D01*
X239265195Y-56776654D01*
X239378463Y-56946172D01*
X239522626Y-57090335D01*
X239692144Y-57203603D01*
X239880502Y-57281624D01*
X240080461Y-57321398D01*
X240284339Y-57321398D01*
X240484298Y-57281624D01*
X240672656Y-57203603D01*
X240760300Y-57145041D01*
X240760300Y-57150348D01*
X240800074Y-57350307D01*
X240878095Y-57538665D01*
X240991363Y-57708183D01*
X241135526Y-57852346D01*
X241305044Y-57965614D01*
X241493402Y-58043635D01*
X241693361Y-58083409D01*
X241897239Y-58083409D01*
X242097198Y-58043635D01*
X242285556Y-57965614D01*
X242455074Y-57852346D01*
X242599237Y-57708183D01*
X242712505Y-57538665D01*
X242790526Y-57350307D01*
X242830300Y-57150348D01*
X242830300Y-56946470D01*
X242790526Y-56746511D01*
X242712505Y-56558153D01*
X242599237Y-56388635D01*
X242455074Y-56244472D01*
X242285556Y-56131204D01*
X242097198Y-56053183D01*
X241897239Y-56013409D01*
X241693361Y-56013409D01*
X241493402Y-56053183D01*
X241305044Y-56131204D01*
X241217400Y-56189766D01*
X241217400Y-56184459D01*
X241177626Y-55984500D01*
X241099605Y-55796142D01*
X240986337Y-55626624D01*
X240842174Y-55482461D01*
X240672656Y-55369193D01*
X240484298Y-55291172D01*
X240284339Y-55251398D01*
X240080461Y-55251398D01*
X239880502Y-55291172D01*
X239692144Y-55369193D01*
X239522626Y-55482461D01*
X239378463Y-55626624D01*
X239265195Y-55796142D01*
X239187174Y-55984500D01*
X239147400Y-56184459D01*
X231850350Y-56184459D01*
X231766137Y-56058426D01*
X231621974Y-55914263D01*
X231452456Y-55800995D01*
X231264098Y-55722974D01*
X231064139Y-55683200D01*
X230860261Y-55683200D01*
X230660302Y-55722974D01*
X230471944Y-55800995D01*
X230302426Y-55914263D01*
X230158263Y-56058426D01*
X230044995Y-56227944D01*
X229966974Y-56416302D01*
X229927200Y-56616261D01*
X227989191Y-56616261D01*
X227969626Y-56517902D01*
X227891605Y-56329544D01*
X227778337Y-56160026D01*
X227634174Y-56015863D01*
X227464656Y-55902595D01*
X227276298Y-55824574D01*
X227076339Y-55784800D01*
X226872461Y-55784800D01*
X226672502Y-55824574D01*
X226484144Y-55902595D01*
X226314626Y-56015863D01*
X226170463Y-56160026D01*
X226057195Y-56329544D01*
X225979174Y-56517902D01*
X225939400Y-56717861D01*
X225939400Y-56921739D01*
X225979174Y-57121698D01*
X226057195Y-57310056D01*
X226170463Y-57479574D01*
X226314626Y-57623737D01*
X226484144Y-57737005D01*
X226672502Y-57815026D01*
X226687693Y-57818048D01*
X226621702Y-57831174D01*
X226433344Y-57909195D01*
X226263826Y-58022463D01*
X226119663Y-58166626D01*
X226112563Y-58177252D01*
X225983174Y-58047863D01*
X225813656Y-57934595D01*
X225625298Y-57856574D01*
X225425339Y-57816800D01*
X225221461Y-57816800D01*
X225021502Y-57856574D01*
X224833144Y-57934595D01*
X224663626Y-58047863D01*
X224519463Y-58192026D01*
X224485200Y-58243304D01*
X224450937Y-58192026D01*
X224306774Y-58047863D01*
X224137256Y-57934595D01*
X223948898Y-57856574D01*
X223748939Y-57816800D01*
X223545061Y-57816800D01*
X223345102Y-57856574D01*
X223156744Y-57934595D01*
X222987226Y-58047863D01*
X222843063Y-58192026D01*
X222729795Y-58361544D01*
X222651774Y-58549902D01*
X222612000Y-58749861D01*
X209688991Y-58749861D01*
X209645078Y-58683526D01*
X209473725Y-58510693D01*
X209409652Y-58467481D01*
X209559502Y-58344502D01*
X209713833Y-58156449D01*
X209828511Y-57941901D01*
X209899130Y-57709102D01*
X209922975Y-57467000D01*
X209899130Y-57224898D01*
X209828511Y-56992099D01*
X209713833Y-56777551D01*
X209559502Y-56589498D01*
X209409652Y-56466519D01*
X209473725Y-56423307D01*
X209645078Y-56250474D01*
X209779421Y-56047533D01*
X209871591Y-55822282D01*
X209875462Y-55784609D01*
X209750731Y-55594000D01*
X208534000Y-55594000D01*
X208534000Y-55614000D01*
X208280000Y-55614000D01*
X208280000Y-55594000D01*
X207063269Y-55594000D01*
X206938538Y-55784609D01*
X206942409Y-55822282D01*
X207034579Y-56047533D01*
X207168922Y-56250474D01*
X207340275Y-56423307D01*
X207404348Y-56466519D01*
X207254498Y-56589498D01*
X207100167Y-56777551D01*
X206985489Y-56992099D01*
X206914870Y-57224898D01*
X206891025Y-57467000D01*
X202462600Y-57467000D01*
X202462600Y-53116999D01*
X206893928Y-53116999D01*
X206893928Y-53817001D01*
X206910992Y-53990255D01*
X206961528Y-54156851D01*
X207043595Y-54310387D01*
X207154038Y-54444962D01*
X207288613Y-54555405D01*
X207293406Y-54557967D01*
X207168922Y-54683526D01*
X207034579Y-54886467D01*
X206942409Y-55111718D01*
X206938538Y-55149391D01*
X207063269Y-55340000D01*
X208280000Y-55340000D01*
X208280000Y-55320000D01*
X208534000Y-55320000D01*
X208534000Y-55340000D01*
X209750731Y-55340000D01*
X209875462Y-55149391D01*
X209871591Y-55111718D01*
X209779421Y-54886467D01*
X209645078Y-54683526D01*
X209520594Y-54557967D01*
X209525387Y-54555405D01*
X209659962Y-54444962D01*
X209770405Y-54310387D01*
X209827361Y-54203830D01*
X219691000Y-54203830D01*
X219691000Y-54407708D01*
X219730774Y-54607667D01*
X219808795Y-54796025D01*
X219922063Y-54965543D01*
X220066226Y-55109706D01*
X220235744Y-55222974D01*
X220424102Y-55300995D01*
X220624061Y-55340769D01*
X220827939Y-55340769D01*
X221027898Y-55300995D01*
X221216256Y-55222974D01*
X221385774Y-55109706D01*
X221529937Y-54965543D01*
X221643205Y-54796025D01*
X221721226Y-54607667D01*
X221761000Y-54407708D01*
X221761000Y-54203830D01*
X221721226Y-54003871D01*
X221643205Y-53815513D01*
X221529937Y-53645995D01*
X221385774Y-53501832D01*
X221216256Y-53388564D01*
X221027898Y-53310543D01*
X220827939Y-53270769D01*
X220624061Y-53270769D01*
X220424102Y-53310543D01*
X220235744Y-53388564D01*
X220066226Y-53501832D01*
X219922063Y-53645995D01*
X219808795Y-53815513D01*
X219730774Y-54003871D01*
X219691000Y-54203830D01*
X209827361Y-54203830D01*
X209852472Y-54156851D01*
X209903008Y-53990255D01*
X209920072Y-53817001D01*
X209920072Y-53116999D01*
X209903008Y-52943745D01*
X209852472Y-52777149D01*
X209770405Y-52623613D01*
X209659962Y-52489038D01*
X209551300Y-52399861D01*
X239630000Y-52399861D01*
X239630000Y-52603739D01*
X239669774Y-52803698D01*
X239747795Y-52992056D01*
X239861063Y-53161574D01*
X240005226Y-53305737D01*
X240174744Y-53419005D01*
X240363102Y-53497026D01*
X240563061Y-53536800D01*
X240766939Y-53536800D01*
X240966898Y-53497026D01*
X241155256Y-53419005D01*
X241324774Y-53305737D01*
X241468937Y-53161574D01*
X241582205Y-52992056D01*
X241660226Y-52803698D01*
X241700000Y-52603739D01*
X241700000Y-52399861D01*
X241660226Y-52199902D01*
X241582205Y-52011544D01*
X241468937Y-51842026D01*
X241324774Y-51697863D01*
X241155256Y-51584595D01*
X240966898Y-51506574D01*
X240766939Y-51466800D01*
X240563061Y-51466800D01*
X240363102Y-51506574D01*
X240174744Y-51584595D01*
X240005226Y-51697863D01*
X239861063Y-51842026D01*
X239747795Y-52011544D01*
X239669774Y-52199902D01*
X239630000Y-52399861D01*
X209551300Y-52399861D01*
X209525387Y-52378595D01*
X209371851Y-52296528D01*
X209205255Y-52245992D01*
X209032001Y-52228928D01*
X207781999Y-52228928D01*
X207608745Y-52245992D01*
X207442149Y-52296528D01*
X207288613Y-52378595D01*
X207154038Y-52489038D01*
X207043595Y-52623613D01*
X206961528Y-52777149D01*
X206910992Y-52943745D01*
X206893928Y-53116999D01*
X202462600Y-53116999D01*
X202462600Y-51231461D01*
X225964800Y-51231461D01*
X225964800Y-51435339D01*
X226004574Y-51635298D01*
X226082595Y-51823656D01*
X226195863Y-51993174D01*
X226340026Y-52137337D01*
X226509544Y-52250605D01*
X226697902Y-52328626D01*
X226897861Y-52368400D01*
X227101739Y-52368400D01*
X227301698Y-52328626D01*
X227490056Y-52250605D01*
X227659574Y-52137337D01*
X227803737Y-51993174D01*
X227917005Y-51823656D01*
X227995026Y-51635298D01*
X228034800Y-51435339D01*
X228034800Y-51231461D01*
X227995026Y-51031502D01*
X227917005Y-50843144D01*
X227803737Y-50673626D01*
X227659574Y-50529463D01*
X227490056Y-50416195D01*
X227301698Y-50338174D01*
X227101739Y-50298400D01*
X226897861Y-50298400D01*
X226697902Y-50338174D01*
X226509544Y-50416195D01*
X226340026Y-50529463D01*
X226195863Y-50673626D01*
X226082595Y-50843144D01*
X226004574Y-51031502D01*
X225964800Y-51231461D01*
X202462600Y-51231461D01*
X202462600Y-49986861D01*
X216719200Y-49986861D01*
X216719200Y-50190739D01*
X216758974Y-50390698D01*
X216836995Y-50579056D01*
X216950263Y-50748574D01*
X217094426Y-50892737D01*
X217263944Y-51006005D01*
X217452302Y-51084026D01*
X217652261Y-51123800D01*
X217856139Y-51123800D01*
X218056098Y-51084026D01*
X218244456Y-51006005D01*
X218413974Y-50892737D01*
X218558137Y-50748574D01*
X218671405Y-50579056D01*
X218749426Y-50390698D01*
X218789200Y-50190739D01*
X218789200Y-49986861D01*
X218749426Y-49786902D01*
X218671405Y-49598544D01*
X218558137Y-49429026D01*
X218413974Y-49284863D01*
X218244456Y-49171595D01*
X218056098Y-49093574D01*
X217856139Y-49053800D01*
X217652261Y-49053800D01*
X217452302Y-49093574D01*
X217263944Y-49171595D01*
X217094426Y-49284863D01*
X216950263Y-49429026D01*
X216836995Y-49598544D01*
X216758974Y-49786902D01*
X216719200Y-49986861D01*
X202462600Y-49986861D01*
X202462600Y-47116661D01*
X225761600Y-47116661D01*
X225761600Y-47320539D01*
X225801374Y-47520498D01*
X225879395Y-47708856D01*
X225992663Y-47878374D01*
X226136826Y-48022537D01*
X226306344Y-48135805D01*
X226494702Y-48213826D01*
X226694661Y-48253600D01*
X226898539Y-48253600D01*
X226916482Y-48250031D01*
X226879200Y-48437461D01*
X226879200Y-48641339D01*
X226918974Y-48841298D01*
X226996995Y-49029656D01*
X227110263Y-49199174D01*
X227254426Y-49343337D01*
X227423944Y-49456605D01*
X227612302Y-49534626D01*
X227812261Y-49574400D01*
X227869800Y-49574400D01*
X227869800Y-49631939D01*
X227909574Y-49831898D01*
X227987595Y-50020256D01*
X228100863Y-50189774D01*
X228245026Y-50333937D01*
X228414544Y-50447205D01*
X228602902Y-50525226D01*
X228802861Y-50565000D01*
X229006739Y-50565000D01*
X229206698Y-50525226D01*
X229395056Y-50447205D01*
X229564574Y-50333937D01*
X229708737Y-50189774D01*
X229822005Y-50020256D01*
X229882700Y-49873726D01*
X229943395Y-50020256D01*
X230056663Y-50189774D01*
X230200826Y-50333937D01*
X230370344Y-50447205D01*
X230558702Y-50525226D01*
X230758661Y-50565000D01*
X230962539Y-50565000D01*
X231162498Y-50525226D01*
X231350856Y-50447205D01*
X231520374Y-50333937D01*
X231664537Y-50189774D01*
X231777805Y-50020256D01*
X231825800Y-49904387D01*
X231873795Y-50020256D01*
X231987063Y-50189774D01*
X232131226Y-50333937D01*
X232300744Y-50447205D01*
X232489102Y-50525226D01*
X232689061Y-50565000D01*
X232892939Y-50565000D01*
X233092898Y-50525226D01*
X233281256Y-50447205D01*
X233450774Y-50333937D01*
X233594937Y-50189774D01*
X233708205Y-50020256D01*
X233786226Y-49831898D01*
X233794300Y-49791307D01*
X233802374Y-49831898D01*
X233880395Y-50020256D01*
X233993663Y-50189774D01*
X234137826Y-50333937D01*
X234307344Y-50447205D01*
X234495702Y-50525226D01*
X234695661Y-50565000D01*
X234899539Y-50565000D01*
X235099498Y-50525226D01*
X235287856Y-50447205D01*
X235457374Y-50333937D01*
X235601537Y-50189774D01*
X235714805Y-50020256D01*
X235792826Y-49831898D01*
X235832600Y-49631939D01*
X235832600Y-49558037D01*
X235914861Y-49574400D01*
X236118739Y-49574400D01*
X236318698Y-49534626D01*
X236507056Y-49456605D01*
X236676574Y-49343337D01*
X236820737Y-49199174D01*
X236934005Y-49029656D01*
X237012026Y-48841298D01*
X237051800Y-48641339D01*
X237051800Y-48437461D01*
X237012026Y-48237502D01*
X236934005Y-48049144D01*
X236820737Y-47879626D01*
X236676574Y-47735463D01*
X236507056Y-47622195D01*
X236329866Y-47548800D01*
X236507056Y-47475405D01*
X236676574Y-47362137D01*
X236820737Y-47217974D01*
X236934005Y-47048456D01*
X237012026Y-46860098D01*
X237051800Y-46660139D01*
X237051800Y-46456261D01*
X237012026Y-46256302D01*
X236994902Y-46214961D01*
X248507300Y-46214961D01*
X248507300Y-46418839D01*
X248547074Y-46618798D01*
X248625095Y-46807156D01*
X248738363Y-46976674D01*
X248882526Y-47120837D01*
X249052044Y-47234105D01*
X249240402Y-47312126D01*
X249440361Y-47351900D01*
X249644239Y-47351900D01*
X249844198Y-47312126D01*
X250032556Y-47234105D01*
X250202074Y-47120837D01*
X250346237Y-46976674D01*
X250459505Y-46807156D01*
X250537526Y-46618798D01*
X250577300Y-46418839D01*
X250577300Y-46214961D01*
X250537526Y-46015002D01*
X250459505Y-45826644D01*
X250346237Y-45657126D01*
X250202074Y-45512963D01*
X250032556Y-45399695D01*
X249844198Y-45321674D01*
X249644239Y-45281900D01*
X249440361Y-45281900D01*
X249240402Y-45321674D01*
X249052044Y-45399695D01*
X248882526Y-45512963D01*
X248738363Y-45657126D01*
X248625095Y-45826644D01*
X248547074Y-46015002D01*
X248507300Y-46214961D01*
X236994902Y-46214961D01*
X236934005Y-46067944D01*
X236820737Y-45898426D01*
X236676574Y-45754263D01*
X236507056Y-45640995D01*
X236318698Y-45562974D01*
X236118739Y-45523200D01*
X235914861Y-45523200D01*
X235714902Y-45562974D01*
X235526544Y-45640995D01*
X235357026Y-45754263D01*
X235212863Y-45898426D01*
X235099595Y-46067944D01*
X235021574Y-46256302D01*
X234981800Y-46456261D01*
X234981800Y-46530163D01*
X234899539Y-46513800D01*
X234842000Y-46513800D01*
X234842000Y-46456261D01*
X234802226Y-46256302D01*
X234724205Y-46067944D01*
X234610937Y-45898426D01*
X234466774Y-45754263D01*
X234297256Y-45640995D01*
X234108898Y-45562974D01*
X233908939Y-45523200D01*
X233705061Y-45523200D01*
X233505102Y-45562974D01*
X233316744Y-45640995D01*
X233147226Y-45754263D01*
X233003063Y-45898426D01*
X232889795Y-46067944D01*
X232816400Y-46245134D01*
X232743005Y-46067944D01*
X232629737Y-45898426D01*
X232485574Y-45754263D01*
X232316056Y-45640995D01*
X232127698Y-45562974D01*
X231927739Y-45523200D01*
X231723861Y-45523200D01*
X231523902Y-45562974D01*
X231335544Y-45640995D01*
X231166026Y-45754263D01*
X231021863Y-45898426D01*
X230908595Y-46067944D01*
X230847900Y-46214474D01*
X230787205Y-46067944D01*
X230673937Y-45898426D01*
X230529774Y-45754263D01*
X230360256Y-45640995D01*
X230171898Y-45562974D01*
X229971939Y-45523200D01*
X229768061Y-45523200D01*
X229568102Y-45562974D01*
X229379744Y-45640995D01*
X229210226Y-45754263D01*
X229066063Y-45898426D01*
X228952795Y-46067944D01*
X228892100Y-46214474D01*
X228831405Y-46067944D01*
X228718137Y-45898426D01*
X228573974Y-45754263D01*
X228404456Y-45640995D01*
X228216098Y-45562974D01*
X228016139Y-45523200D01*
X227812261Y-45523200D01*
X227612302Y-45562974D01*
X227423944Y-45640995D01*
X227254426Y-45754263D01*
X227110263Y-45898426D01*
X226996995Y-46067944D01*
X226945241Y-46192889D01*
X226898539Y-46183600D01*
X226694661Y-46183600D01*
X226494702Y-46223374D01*
X226306344Y-46301395D01*
X226136826Y-46414663D01*
X225992663Y-46558826D01*
X225879395Y-46728344D01*
X225801374Y-46916702D01*
X225761600Y-47116661D01*
X202462600Y-47116661D01*
X202462600Y-44398861D01*
X218548000Y-44398861D01*
X218548000Y-44602739D01*
X218587774Y-44802698D01*
X218665795Y-44991056D01*
X218779063Y-45160574D01*
X218923226Y-45304737D01*
X219092744Y-45418005D01*
X219281102Y-45496026D01*
X219481061Y-45535800D01*
X219684939Y-45535800D01*
X219884898Y-45496026D01*
X220073256Y-45418005D01*
X220242774Y-45304737D01*
X220386937Y-45160574D01*
X220500205Y-44991056D01*
X220578226Y-44802698D01*
X220618000Y-44602739D01*
X220618000Y-44398861D01*
X220578226Y-44198902D01*
X220500205Y-44010544D01*
X220386937Y-43841026D01*
X220242774Y-43696863D01*
X220073256Y-43583595D01*
X219884898Y-43505574D01*
X219684939Y-43465800D01*
X219481061Y-43465800D01*
X219281102Y-43505574D01*
X219092744Y-43583595D01*
X218923226Y-43696863D01*
X218779063Y-43841026D01*
X218665795Y-44010544D01*
X218587774Y-44198902D01*
X218548000Y-44398861D01*
X202462600Y-44398861D01*
X202462600Y-41023000D01*
X203808309Y-41023000D01*
X203830223Y-41245499D01*
X203895124Y-41459447D01*
X204000516Y-41656623D01*
X204142351Y-41829449D01*
X204315177Y-41971284D01*
X204512353Y-42076676D01*
X204726301Y-42141577D01*
X204893048Y-42158000D01*
X205604552Y-42158000D01*
X205771299Y-42141577D01*
X205985247Y-42076676D01*
X206182423Y-41971284D01*
X206355249Y-41829449D01*
X206497084Y-41656623D01*
X206602476Y-41459447D01*
X206667377Y-41245499D01*
X206689291Y-41023000D01*
X207738309Y-41023000D01*
X207760223Y-41245499D01*
X207825124Y-41459447D01*
X207930516Y-41656623D01*
X208072351Y-41829449D01*
X208245177Y-41971284D01*
X208442353Y-42076676D01*
X208656301Y-42141577D01*
X208823048Y-42158000D01*
X210034552Y-42158000D01*
X210201299Y-42141577D01*
X210415247Y-42076676D01*
X210612423Y-41971284D01*
X210785249Y-41829449D01*
X210927084Y-41656623D01*
X211032476Y-41459447D01*
X211097377Y-41245499D01*
X211119291Y-41023000D01*
X211097377Y-40800501D01*
X211032476Y-40586553D01*
X210927084Y-40389377D01*
X210785249Y-40216551D01*
X210612423Y-40074716D01*
X210415247Y-39969324D01*
X210201299Y-39904423D01*
X210034552Y-39888000D01*
X209815704Y-39888000D01*
X209821908Y-39873022D01*
X209858800Y-39687552D01*
X209858800Y-39498448D01*
X209821908Y-39312978D01*
X209749541Y-39138269D01*
X209717463Y-39090261D01*
X210801000Y-39090261D01*
X210801000Y-39294139D01*
X210840774Y-39494098D01*
X210918795Y-39682456D01*
X211032063Y-39851974D01*
X211176226Y-39996137D01*
X211345744Y-40109405D01*
X211534102Y-40187426D01*
X211734061Y-40227200D01*
X211937939Y-40227200D01*
X212137898Y-40187426D01*
X212326256Y-40109405D01*
X212495774Y-39996137D01*
X212639937Y-39851974D01*
X212753205Y-39682456D01*
X212831226Y-39494098D01*
X212832188Y-39489259D01*
X220300600Y-39489259D01*
X220300600Y-39693137D01*
X220340374Y-39893096D01*
X220418395Y-40081454D01*
X220531663Y-40250972D01*
X220675826Y-40395135D01*
X220845344Y-40508403D01*
X221033702Y-40586424D01*
X221233661Y-40626198D01*
X221437539Y-40626198D01*
X221637498Y-40586424D01*
X221825856Y-40508403D01*
X221995374Y-40395135D01*
X222139537Y-40250972D01*
X222252805Y-40081454D01*
X222330826Y-39893096D01*
X222370600Y-39693137D01*
X222370600Y-39489259D01*
X222330826Y-39289300D01*
X222252805Y-39100942D01*
X222139537Y-38931424D01*
X221995374Y-38787261D01*
X221825856Y-38673993D01*
X221637498Y-38595972D01*
X221437539Y-38556198D01*
X221233661Y-38556198D01*
X221033702Y-38595972D01*
X220845344Y-38673993D01*
X220675826Y-38787261D01*
X220531663Y-38931424D01*
X220418395Y-39100942D01*
X220340374Y-39289300D01*
X220300600Y-39489259D01*
X212832188Y-39489259D01*
X212871000Y-39294139D01*
X212871000Y-39090261D01*
X212831226Y-38890302D01*
X212753205Y-38701944D01*
X212639937Y-38532426D01*
X212495774Y-38388263D01*
X212326256Y-38274995D01*
X212137898Y-38196974D01*
X211937939Y-38157200D01*
X211734061Y-38157200D01*
X211534102Y-38196974D01*
X211345744Y-38274995D01*
X211176226Y-38388263D01*
X211032063Y-38532426D01*
X210918795Y-38701944D01*
X210840774Y-38890302D01*
X210801000Y-39090261D01*
X209717463Y-39090261D01*
X209644481Y-38981036D01*
X209510764Y-38847319D01*
X209353531Y-38742259D01*
X209178822Y-38669892D01*
X208993352Y-38633000D01*
X208804248Y-38633000D01*
X208618778Y-38669892D01*
X208444069Y-38742259D01*
X208286836Y-38847319D01*
X208153119Y-38981036D01*
X208048059Y-39138269D01*
X207975692Y-39312978D01*
X207938800Y-39498448D01*
X207938800Y-39687552D01*
X207975692Y-39873022D01*
X208048059Y-40047731D01*
X208129515Y-40169638D01*
X208072351Y-40216551D01*
X207930516Y-40389377D01*
X207825124Y-40586553D01*
X207760223Y-40800501D01*
X207738309Y-41023000D01*
X206689291Y-41023000D01*
X206667377Y-40800501D01*
X206602476Y-40586553D01*
X206497084Y-40389377D01*
X206355249Y-40216551D01*
X206182423Y-40074716D01*
X205985247Y-39969324D01*
X205771299Y-39904423D01*
X205604552Y-39888000D01*
X204893048Y-39888000D01*
X204726301Y-39904423D01*
X204512353Y-39969324D01*
X204315177Y-40074716D01*
X204142351Y-40216551D01*
X204000516Y-40389377D01*
X203895124Y-40586553D01*
X203830223Y-40800501D01*
X203808309Y-41023000D01*
X202462600Y-41023000D01*
X202462600Y-35280261D01*
X206889400Y-35280261D01*
X206889400Y-35484139D01*
X206929174Y-35684098D01*
X207007195Y-35872456D01*
X207086938Y-35991800D01*
X207007195Y-36111144D01*
X206929174Y-36299502D01*
X206889400Y-36499461D01*
X206889400Y-36703339D01*
X206929174Y-36903298D01*
X207007195Y-37091656D01*
X207099638Y-37230007D01*
X207032595Y-37330344D01*
X206954574Y-37518702D01*
X206914800Y-37718661D01*
X206914800Y-37922539D01*
X206954574Y-38122498D01*
X207032595Y-38310856D01*
X207145863Y-38480374D01*
X207290026Y-38624537D01*
X207459544Y-38737805D01*
X207647902Y-38815826D01*
X207847861Y-38855600D01*
X208051739Y-38855600D01*
X208251698Y-38815826D01*
X208440056Y-38737805D01*
X208609574Y-38624537D01*
X208753737Y-38480374D01*
X208867005Y-38310856D01*
X208945026Y-38122498D01*
X208984800Y-37922539D01*
X208984800Y-37718661D01*
X208945026Y-37518702D01*
X208867005Y-37330344D01*
X208774562Y-37191993D01*
X208841605Y-37091656D01*
X208919626Y-36903298D01*
X208959400Y-36703339D01*
X208959400Y-36499461D01*
X208919626Y-36299502D01*
X208841605Y-36111144D01*
X208829523Y-36093061D01*
X230816200Y-36093061D01*
X230816200Y-36296939D01*
X230855974Y-36496898D01*
X230933995Y-36685256D01*
X231047263Y-36854774D01*
X231191426Y-36998937D01*
X231217390Y-37016286D01*
X231216826Y-37016663D01*
X231072663Y-37160826D01*
X230959395Y-37330344D01*
X230881374Y-37518702D01*
X230841600Y-37718661D01*
X230841600Y-37922539D01*
X230881374Y-38122498D01*
X230959395Y-38310856D01*
X231072663Y-38480374D01*
X231212989Y-38620700D01*
X231098063Y-38735626D01*
X230984795Y-38905144D01*
X230906774Y-39093502D01*
X230867000Y-39293461D01*
X230867000Y-39497339D01*
X230906774Y-39697298D01*
X230984795Y-39885656D01*
X231098063Y-40055174D01*
X231242226Y-40199337D01*
X231252852Y-40206437D01*
X231123463Y-40335826D01*
X231010195Y-40505344D01*
X230932174Y-40693702D01*
X230892400Y-40893661D01*
X230892400Y-41097539D01*
X230932174Y-41297498D01*
X231010195Y-41485856D01*
X231123463Y-41655374D01*
X231238389Y-41770300D01*
X231148863Y-41859826D01*
X231035595Y-42029344D01*
X230957574Y-42217702D01*
X230917800Y-42417661D01*
X230917800Y-42621539D01*
X230957574Y-42821498D01*
X231035595Y-43009856D01*
X231148863Y-43179374D01*
X231187589Y-43218100D01*
X231123463Y-43282226D01*
X231010195Y-43451744D01*
X230932174Y-43640102D01*
X230892400Y-43840061D01*
X230892400Y-44043939D01*
X230932174Y-44243898D01*
X231010195Y-44432256D01*
X231123463Y-44601774D01*
X231267626Y-44745937D01*
X231437144Y-44859205D01*
X231625502Y-44937226D01*
X231825461Y-44977000D01*
X232029339Y-44977000D01*
X232229298Y-44937226D01*
X232417656Y-44859205D01*
X232587174Y-44745937D01*
X232638600Y-44694511D01*
X232690026Y-44745937D01*
X232859544Y-44859205D01*
X233047902Y-44937226D01*
X233247861Y-44977000D01*
X233451739Y-44977000D01*
X233651698Y-44937226D01*
X233840056Y-44859205D01*
X234009574Y-44745937D01*
X234153737Y-44601774D01*
X234267005Y-44432256D01*
X234345026Y-44243898D01*
X234384800Y-44043939D01*
X234384800Y-43840061D01*
X234345026Y-43640102D01*
X234267005Y-43451744D01*
X234153737Y-43282226D01*
X234115011Y-43243500D01*
X234179137Y-43179374D01*
X234246831Y-43078061D01*
X244735400Y-43078061D01*
X244735400Y-43281939D01*
X244775174Y-43481898D01*
X244853195Y-43670256D01*
X244966463Y-43839774D01*
X245110626Y-43983937D01*
X245280144Y-44097205D01*
X245468502Y-44175226D01*
X245668461Y-44215000D01*
X245872339Y-44215000D01*
X246072298Y-44175226D01*
X246260656Y-44097205D01*
X246430174Y-43983937D01*
X246574337Y-43839774D01*
X246687605Y-43670256D01*
X246765626Y-43481898D01*
X246805400Y-43281939D01*
X246805400Y-43078061D01*
X246795296Y-43027261D01*
X252812600Y-43027261D01*
X252812600Y-43231139D01*
X252852374Y-43431098D01*
X252930395Y-43619456D01*
X253043663Y-43788974D01*
X253187826Y-43933137D01*
X253357344Y-44046405D01*
X253545702Y-44124426D01*
X253745661Y-44164200D01*
X253949539Y-44164200D01*
X254149498Y-44124426D01*
X254337856Y-44046405D01*
X254507374Y-43933137D01*
X254651537Y-43788974D01*
X254764805Y-43619456D01*
X254842826Y-43431098D01*
X254882600Y-43231139D01*
X254882600Y-43027261D01*
X254842826Y-42827302D01*
X254764805Y-42638944D01*
X254651537Y-42469426D01*
X254507374Y-42325263D01*
X254337856Y-42211995D01*
X254149498Y-42133974D01*
X253949539Y-42094200D01*
X253745661Y-42094200D01*
X253545702Y-42133974D01*
X253357344Y-42211995D01*
X253187826Y-42325263D01*
X253043663Y-42469426D01*
X252930395Y-42638944D01*
X252852374Y-42827302D01*
X252812600Y-43027261D01*
X246795296Y-43027261D01*
X246765626Y-42878102D01*
X246687605Y-42689744D01*
X246574337Y-42520226D01*
X246430174Y-42376063D01*
X246260656Y-42262795D01*
X246072298Y-42184774D01*
X245872339Y-42145000D01*
X245668461Y-42145000D01*
X245468502Y-42184774D01*
X245280144Y-42262795D01*
X245110626Y-42376063D01*
X244966463Y-42520226D01*
X244853195Y-42689744D01*
X244775174Y-42878102D01*
X244735400Y-43078061D01*
X234246831Y-43078061D01*
X234292405Y-43009856D01*
X234370426Y-42821498D01*
X234410200Y-42621539D01*
X234410200Y-42417661D01*
X234370426Y-42217702D01*
X234292405Y-42029344D01*
X234229408Y-41935061D01*
X238436196Y-41935061D01*
X238436196Y-42138939D01*
X238475970Y-42338898D01*
X238553991Y-42527256D01*
X238667259Y-42696774D01*
X238811422Y-42840937D01*
X238980940Y-42954205D01*
X239169298Y-43032226D01*
X239369257Y-43072000D01*
X239573135Y-43072000D01*
X239773094Y-43032226D01*
X239961452Y-42954205D01*
X240130970Y-42840937D01*
X240275133Y-42696774D01*
X240388401Y-42527256D01*
X240466422Y-42338898D01*
X240506196Y-42138939D01*
X240506196Y-41935061D01*
X240466422Y-41735102D01*
X240388401Y-41546744D01*
X240275133Y-41377226D01*
X240130970Y-41233063D01*
X239961452Y-41119795D01*
X239773094Y-41041774D01*
X239573135Y-41002000D01*
X239369257Y-41002000D01*
X239169298Y-41041774D01*
X238980940Y-41119795D01*
X238811422Y-41233063D01*
X238667259Y-41377226D01*
X238553991Y-41546744D01*
X238475970Y-41735102D01*
X238436196Y-41935061D01*
X234229408Y-41935061D01*
X234179137Y-41859826D01*
X234064211Y-41744900D01*
X234153737Y-41655374D01*
X234267005Y-41485856D01*
X234345026Y-41297498D01*
X234384800Y-41097539D01*
X234384800Y-40893661D01*
X234345026Y-40693702D01*
X234267005Y-40505344D01*
X234153737Y-40335826D01*
X234009574Y-40191663D01*
X233998948Y-40184563D01*
X234128337Y-40055174D01*
X234241605Y-39885656D01*
X234319626Y-39697298D01*
X234359400Y-39497339D01*
X234359400Y-39293461D01*
X234319626Y-39093502D01*
X234241605Y-38905144D01*
X234128337Y-38735626D01*
X234127372Y-38734661D01*
X249129600Y-38734661D01*
X249129600Y-38938539D01*
X249169374Y-39138498D01*
X249247395Y-39326856D01*
X249360663Y-39496374D01*
X249504826Y-39640537D01*
X249641237Y-39731683D01*
X249612200Y-39877661D01*
X249612200Y-40081539D01*
X249651974Y-40281498D01*
X249729995Y-40469856D01*
X249843263Y-40639374D01*
X249987426Y-40783537D01*
X250156944Y-40896805D01*
X250345302Y-40974826D01*
X250545261Y-41014600D01*
X250749139Y-41014600D01*
X250949098Y-40974826D01*
X251137456Y-40896805D01*
X251306974Y-40783537D01*
X251451137Y-40639374D01*
X251564405Y-40469856D01*
X251642426Y-40281498D01*
X251682200Y-40081539D01*
X251682200Y-39877661D01*
X251642426Y-39677702D01*
X251564405Y-39489344D01*
X251451137Y-39319826D01*
X251306974Y-39175663D01*
X251170563Y-39084517D01*
X251199600Y-38938539D01*
X251199600Y-38734661D01*
X251159826Y-38534702D01*
X251081805Y-38346344D01*
X250968537Y-38176826D01*
X250824374Y-38032663D01*
X250654856Y-37919395D01*
X250466498Y-37841374D01*
X250266539Y-37801600D01*
X250062661Y-37801600D01*
X249862702Y-37841374D01*
X249674344Y-37919395D01*
X249504826Y-38032663D01*
X249360663Y-38176826D01*
X249247395Y-38346344D01*
X249169374Y-38534702D01*
X249129600Y-38734661D01*
X234127372Y-38734661D01*
X233988011Y-38595300D01*
X234102937Y-38480374D01*
X234216205Y-38310856D01*
X234294226Y-38122498D01*
X234334000Y-37922539D01*
X234334000Y-37718661D01*
X234294226Y-37518702D01*
X234216205Y-37330344D01*
X234102937Y-37160826D01*
X233958774Y-37016663D01*
X233932810Y-36999314D01*
X233933374Y-36998937D01*
X234077537Y-36854774D01*
X234190805Y-36685256D01*
X234268826Y-36496898D01*
X234308600Y-36296939D01*
X234308600Y-36093061D01*
X234268826Y-35893102D01*
X234190805Y-35704744D01*
X234077537Y-35535226D01*
X233933374Y-35391063D01*
X233763856Y-35277795D01*
X233575498Y-35199774D01*
X233375539Y-35160000D01*
X233171661Y-35160000D01*
X232971702Y-35199774D01*
X232783344Y-35277795D01*
X232613826Y-35391063D01*
X232562400Y-35442489D01*
X232510974Y-35391063D01*
X232341456Y-35277795D01*
X232153098Y-35199774D01*
X231953139Y-35160000D01*
X231749261Y-35160000D01*
X231549302Y-35199774D01*
X231360944Y-35277795D01*
X231191426Y-35391063D01*
X231047263Y-35535226D01*
X230933995Y-35704744D01*
X230855974Y-35893102D01*
X230816200Y-36093061D01*
X208829523Y-36093061D01*
X208761862Y-35991800D01*
X208841605Y-35872456D01*
X208919626Y-35684098D01*
X208959400Y-35484139D01*
X208959400Y-35280261D01*
X208919626Y-35080302D01*
X208841605Y-34891944D01*
X208755673Y-34763338D01*
X208804248Y-34773000D01*
X208993352Y-34773000D01*
X209178822Y-34736108D01*
X209353531Y-34663741D01*
X209510764Y-34558681D01*
X209644481Y-34424964D01*
X209749541Y-34267731D01*
X209776681Y-34202208D01*
X210764347Y-34202208D01*
X210764347Y-34406086D01*
X210804121Y-34606045D01*
X210882142Y-34794403D01*
X210995410Y-34963921D01*
X211139573Y-35108084D01*
X211309091Y-35221352D01*
X211497449Y-35299373D01*
X211697408Y-35339147D01*
X211901286Y-35339147D01*
X212101245Y-35299373D01*
X212289603Y-35221352D01*
X212459121Y-35108084D01*
X212603284Y-34963921D01*
X212716552Y-34794403D01*
X212794573Y-34606045D01*
X212834347Y-34406086D01*
X212834347Y-34202208D01*
X212794573Y-34002249D01*
X212716552Y-33813891D01*
X212603284Y-33644373D01*
X212459121Y-33500210D01*
X212289603Y-33386942D01*
X212101245Y-33308921D01*
X211901286Y-33269147D01*
X211697408Y-33269147D01*
X211497449Y-33308921D01*
X211309091Y-33386942D01*
X211139573Y-33500210D01*
X210995410Y-33644373D01*
X210882142Y-33813891D01*
X210804121Y-34002249D01*
X210764347Y-34202208D01*
X209776681Y-34202208D01*
X209821908Y-34093022D01*
X209858800Y-33907552D01*
X209858800Y-33718448D01*
X209821908Y-33532978D01*
X209815704Y-33518000D01*
X210034552Y-33518000D01*
X210201299Y-33501577D01*
X210415247Y-33436676D01*
X210612423Y-33331284D01*
X210785249Y-33189449D01*
X210927084Y-33016623D01*
X211032476Y-32819447D01*
X211097377Y-32605499D01*
X211119291Y-32383000D01*
X211097377Y-32160501D01*
X211032476Y-31946553D01*
X210927084Y-31749377D01*
X210785249Y-31576551D01*
X210612423Y-31434716D01*
X210415247Y-31329324D01*
X210201299Y-31264423D01*
X210034552Y-31248000D01*
X208823048Y-31248000D01*
X208656301Y-31264423D01*
X208442353Y-31329324D01*
X208245177Y-31434716D01*
X208072351Y-31576551D01*
X207930516Y-31749377D01*
X207825124Y-31946553D01*
X207760223Y-32160501D01*
X207738309Y-32383000D01*
X207760223Y-32605499D01*
X207825124Y-32819447D01*
X207930516Y-33016623D01*
X208072351Y-33189449D01*
X208129515Y-33236362D01*
X208048059Y-33358269D01*
X207975692Y-33532978D01*
X207938800Y-33718448D01*
X207938800Y-33907552D01*
X207975692Y-34093022D01*
X208048059Y-34267731D01*
X208112627Y-34364364D01*
X208026339Y-34347200D01*
X207822461Y-34347200D01*
X207622502Y-34386974D01*
X207434144Y-34464995D01*
X207264626Y-34578263D01*
X207120463Y-34722426D01*
X207007195Y-34891944D01*
X206929174Y-35080302D01*
X206889400Y-35280261D01*
X202462600Y-35280261D01*
X202462600Y-32383000D01*
X203808309Y-32383000D01*
X203830223Y-32605499D01*
X203895124Y-32819447D01*
X204000516Y-33016623D01*
X204142351Y-33189449D01*
X204315177Y-33331284D01*
X204512353Y-33436676D01*
X204726301Y-33501577D01*
X204893048Y-33518000D01*
X205604552Y-33518000D01*
X205771299Y-33501577D01*
X205985247Y-33436676D01*
X206182423Y-33331284D01*
X206355249Y-33189449D01*
X206497084Y-33016623D01*
X206602476Y-32819447D01*
X206667377Y-32605499D01*
X206689291Y-32383000D01*
X206667377Y-32160501D01*
X206602476Y-31946553D01*
X206497084Y-31749377D01*
X206355249Y-31576551D01*
X206182423Y-31434716D01*
X205985247Y-31329324D01*
X205771299Y-31264423D01*
X205604552Y-31248000D01*
X204893048Y-31248000D01*
X204726301Y-31264423D01*
X204512353Y-31329324D01*
X204315177Y-31434716D01*
X204142351Y-31576551D01*
X204000516Y-31749377D01*
X203895124Y-31946553D01*
X203830223Y-32160501D01*
X203808309Y-32383000D01*
X202462600Y-32383000D01*
X202462600Y-28091600D01*
X215515140Y-28091600D01*
X215484569Y-28104263D01*
G37*
%TD.AperFunction*%
%TD*%
M02*
