G04 #@! TF.GenerationSoftware,KiCad,Pcbnew,(5.1.9)-1*
G04 #@! TF.CreationDate,2021-09-16T20:09:32-07:00*
G04 #@! TF.ProjectId,AtlasPD,41746c61-7350-4442-9e6b-696361645f70,rev?*
G04 #@! TF.SameCoordinates,Original*
G04 #@! TF.FileFunction,Paste,Top*
G04 #@! TF.FilePolarity,Positive*
%FSLAX46Y46*%
G04 Gerber Fmt 4.6, Leading zero omitted, Abs format (unit mm)*
G04 Created by KiCad (PCBNEW (5.1.9)-1) date 2021-09-16 20:09:32*
%MOMM*%
%LPD*%
G01*
G04 APERTURE LIST*
%ADD10R,1.400000X2.100000*%
%ADD11R,1.200000X2.000000*%
G04 APERTURE END LIST*
D10*
X33436200Y-21920200D03*
X37836200Y-21920200D03*
D11*
X35509000Y-25247600D03*
X32309000Y-25247600D03*
G36*
G01*
X54790000Y-28481000D02*
X54790000Y-29431000D01*
G75*
G02*
X54540000Y-29681000I-250000J0D01*
G01*
X54040000Y-29681000D01*
G75*
G02*
X53790000Y-29431000I0J250000D01*
G01*
X53790000Y-28481000D01*
G75*
G02*
X54040000Y-28231000I250000J0D01*
G01*
X54540000Y-28231000D01*
G75*
G02*
X54790000Y-28481000I0J-250000D01*
G01*
G37*
G36*
G01*
X52890000Y-28481000D02*
X52890000Y-29431000D01*
G75*
G02*
X52640000Y-29681000I-250000J0D01*
G01*
X52140000Y-29681000D01*
G75*
G02*
X51890000Y-29431000I0J250000D01*
G01*
X51890000Y-28481000D01*
G75*
G02*
X52140000Y-28231000I250000J0D01*
G01*
X52640000Y-28231000D01*
G75*
G02*
X52890000Y-28481000I0J-250000D01*
G01*
G37*
G36*
G01*
X37345600Y-25885600D02*
X38295600Y-25885600D01*
G75*
G02*
X38545600Y-26135600I0J-250000D01*
G01*
X38545600Y-26635600D01*
G75*
G02*
X38295600Y-26885600I-250000J0D01*
G01*
X37345600Y-26885600D01*
G75*
G02*
X37095600Y-26635600I0J250000D01*
G01*
X37095600Y-26135600D01*
G75*
G02*
X37345600Y-25885600I250000J0D01*
G01*
G37*
G36*
G01*
X37345600Y-23985600D02*
X38295600Y-23985600D01*
G75*
G02*
X38545600Y-24235600I0J-250000D01*
G01*
X38545600Y-24735600D01*
G75*
G02*
X38295600Y-24985600I-250000J0D01*
G01*
X37345600Y-24985600D01*
G75*
G02*
X37095600Y-24735600I0J250000D01*
G01*
X37095600Y-24235600D01*
G75*
G02*
X37345600Y-23985600I250000J0D01*
G01*
G37*
G36*
G01*
X30548600Y-21673400D02*
X29598600Y-21673400D01*
G75*
G02*
X29348600Y-21423400I0J250000D01*
G01*
X29348600Y-20923400D01*
G75*
G02*
X29598600Y-20673400I250000J0D01*
G01*
X30548600Y-20673400D01*
G75*
G02*
X30798600Y-20923400I0J-250000D01*
G01*
X30798600Y-21423400D01*
G75*
G02*
X30548600Y-21673400I-250000J0D01*
G01*
G37*
G36*
G01*
X30548600Y-23573400D02*
X29598600Y-23573400D01*
G75*
G02*
X29348600Y-23323400I0J250000D01*
G01*
X29348600Y-22823400D01*
G75*
G02*
X29598600Y-22573400I250000J0D01*
G01*
X30548600Y-22573400D01*
G75*
G02*
X30798600Y-22823400I0J-250000D01*
G01*
X30798600Y-23323400D01*
G75*
G02*
X30548600Y-23573400I-250000J0D01*
G01*
G37*
G36*
G01*
X33322200Y-28974201D02*
X33322200Y-28074199D01*
G75*
G02*
X33572199Y-27824200I249999J0D01*
G01*
X34097201Y-27824200D01*
G75*
G02*
X34347200Y-28074199I0J-249999D01*
G01*
X34347200Y-28974201D01*
G75*
G02*
X34097201Y-29224200I-249999J0D01*
G01*
X33572199Y-29224200D01*
G75*
G02*
X33322200Y-28974201I0J249999D01*
G01*
G37*
G36*
G01*
X35147200Y-28974201D02*
X35147200Y-28074199D01*
G75*
G02*
X35397199Y-27824200I249999J0D01*
G01*
X35922201Y-27824200D01*
G75*
G02*
X36172200Y-28074199I0J-249999D01*
G01*
X36172200Y-28974201D01*
G75*
G02*
X35922201Y-29224200I-249999J0D01*
G01*
X35397199Y-29224200D01*
G75*
G02*
X35147200Y-28974201I0J249999D01*
G01*
G37*
G36*
G01*
X37370599Y-29610000D02*
X38270601Y-29610000D01*
G75*
G02*
X38520600Y-29859999I0J-249999D01*
G01*
X38520600Y-30385001D01*
G75*
G02*
X38270601Y-30635000I-249999J0D01*
G01*
X37370599Y-30635000D01*
G75*
G02*
X37120600Y-30385001I0J249999D01*
G01*
X37120600Y-29859999D01*
G75*
G02*
X37370599Y-29610000I249999J0D01*
G01*
G37*
G36*
G01*
X37370599Y-27785000D02*
X38270601Y-27785000D01*
G75*
G02*
X38520600Y-28034999I0J-249999D01*
G01*
X38520600Y-28560001D01*
G75*
G02*
X38270601Y-28810000I-249999J0D01*
G01*
X37370599Y-28810000D01*
G75*
G02*
X37120600Y-28560001I0J249999D01*
G01*
X37120600Y-28034999D01*
G75*
G02*
X37370599Y-27785000I249999J0D01*
G01*
G37*
G36*
G01*
X33733800Y-31903350D02*
X33733800Y-32815850D01*
G75*
G02*
X33490050Y-33059600I-243750J0D01*
G01*
X33002550Y-33059600D01*
G75*
G02*
X32758800Y-32815850I0J243750D01*
G01*
X32758800Y-31903350D01*
G75*
G02*
X33002550Y-31659600I243750J0D01*
G01*
X33490050Y-31659600D01*
G75*
G02*
X33733800Y-31903350I0J-243750D01*
G01*
G37*
G36*
G01*
X31858800Y-31903350D02*
X31858800Y-32815850D01*
G75*
G02*
X31615050Y-33059600I-243750J0D01*
G01*
X31127550Y-33059600D01*
G75*
G02*
X30883800Y-32815850I0J243750D01*
G01*
X30883800Y-31903350D01*
G75*
G02*
X31127550Y-31659600I243750J0D01*
G01*
X31615050Y-31659600D01*
G75*
G02*
X31858800Y-31903350I0J-243750D01*
G01*
G37*
G36*
G01*
X34693800Y-32809601D02*
X34693800Y-31909599D01*
G75*
G02*
X34943799Y-31659600I249999J0D01*
G01*
X35468801Y-31659600D01*
G75*
G02*
X35718800Y-31909599I0J-249999D01*
G01*
X35718800Y-32809601D01*
G75*
G02*
X35468801Y-33059600I-249999J0D01*
G01*
X34943799Y-33059600D01*
G75*
G02*
X34693800Y-32809601I0J249999D01*
G01*
G37*
G36*
G01*
X36518800Y-32809601D02*
X36518800Y-31909599D01*
G75*
G02*
X36768799Y-31659600I249999J0D01*
G01*
X37293801Y-31659600D01*
G75*
G02*
X37543800Y-31909599I0J-249999D01*
G01*
X37543800Y-32809601D01*
G75*
G02*
X37293801Y-33059600I-249999J0D01*
G01*
X36768799Y-33059600D01*
G75*
G02*
X36518800Y-32809601I0J249999D01*
G01*
G37*
M02*
